%TF.GenerationSoftware,KiCad,Pcbnew,8.0.5*%
%TF.CreationDate,2024-09-21T18:14:30+02:00*%
%TF.ProjectId,KorryLargePCB_SMD,4b6f7272-794c-4617-9267-655043425f53,rev?*%
%TF.SameCoordinates,Original*%
%TF.FileFunction,Legend,Top*%
%TF.FilePolarity,Positive*%
%FSLAX46Y46*%
G04 Gerber Fmt 4.6, Leading zero omitted, Abs format (unit mm)*
G04 Created by KiCad (PCBNEW 8.0.5) date 2024-09-21 18:14:30*
%MOMM*%
%LPD*%
G01*
G04 APERTURE LIST*
%ADD10C,0.300000*%
%ADD11C,0.150000*%
%ADD12C,0.120000*%
G04 APERTURE END LIST*
D10*
X50983082Y-27564484D02*
X51197368Y-27635912D01*
X51197368Y-27635912D02*
X51554510Y-27635912D01*
X51554510Y-27635912D02*
X51697368Y-27564484D01*
X51697368Y-27564484D02*
X51768796Y-27493055D01*
X51768796Y-27493055D02*
X51840225Y-27350198D01*
X51840225Y-27350198D02*
X51840225Y-27207341D01*
X51840225Y-27207341D02*
X51768796Y-27064484D01*
X51768796Y-27064484D02*
X51697368Y-26993055D01*
X51697368Y-26993055D02*
X51554510Y-26921626D01*
X51554510Y-26921626D02*
X51268796Y-26850198D01*
X51268796Y-26850198D02*
X51125939Y-26778769D01*
X51125939Y-26778769D02*
X51054510Y-26707341D01*
X51054510Y-26707341D02*
X50983082Y-26564484D01*
X50983082Y-26564484D02*
X50983082Y-26421626D01*
X50983082Y-26421626D02*
X51054510Y-26278769D01*
X51054510Y-26278769D02*
X51125939Y-26207341D01*
X51125939Y-26207341D02*
X51268796Y-26135912D01*
X51268796Y-26135912D02*
X51625939Y-26135912D01*
X51625939Y-26135912D02*
X51840225Y-26207341D01*
X52983081Y-26850198D02*
X52483081Y-26850198D01*
X52483081Y-27635912D02*
X52483081Y-26135912D01*
X52483081Y-26135912D02*
X53197367Y-26135912D01*
X50983082Y-28693685D02*
X51054510Y-28622257D01*
X51054510Y-28622257D02*
X51197368Y-28550828D01*
X51197368Y-28550828D02*
X51554510Y-28550828D01*
X51554510Y-28550828D02*
X51697368Y-28622257D01*
X51697368Y-28622257D02*
X51768796Y-28693685D01*
X51768796Y-28693685D02*
X51840225Y-28836542D01*
X51840225Y-28836542D02*
X51840225Y-28979400D01*
X51840225Y-28979400D02*
X51768796Y-29193685D01*
X51768796Y-29193685D02*
X50911653Y-30050828D01*
X50911653Y-30050828D02*
X51840225Y-30050828D01*
X52768796Y-28550828D02*
X52911653Y-28550828D01*
X52911653Y-28550828D02*
X53054510Y-28622257D01*
X53054510Y-28622257D02*
X53125939Y-28693685D01*
X53125939Y-28693685D02*
X53197367Y-28836542D01*
X53197367Y-28836542D02*
X53268796Y-29122257D01*
X53268796Y-29122257D02*
X53268796Y-29479400D01*
X53268796Y-29479400D02*
X53197367Y-29765114D01*
X53197367Y-29765114D02*
X53125939Y-29907971D01*
X53125939Y-29907971D02*
X53054510Y-29979400D01*
X53054510Y-29979400D02*
X52911653Y-30050828D01*
X52911653Y-30050828D02*
X52768796Y-30050828D01*
X52768796Y-30050828D02*
X52625939Y-29979400D01*
X52625939Y-29979400D02*
X52554510Y-29907971D01*
X52554510Y-29907971D02*
X52483081Y-29765114D01*
X52483081Y-29765114D02*
X52411653Y-29479400D01*
X52411653Y-29479400D02*
X52411653Y-29122257D01*
X52411653Y-29122257D02*
X52483081Y-28836542D01*
X52483081Y-28836542D02*
X52554510Y-28693685D01*
X52554510Y-28693685D02*
X52625939Y-28622257D01*
X52625939Y-28622257D02*
X52768796Y-28550828D01*
X53840224Y-28693685D02*
X53911652Y-28622257D01*
X53911652Y-28622257D02*
X54054510Y-28550828D01*
X54054510Y-28550828D02*
X54411652Y-28550828D01*
X54411652Y-28550828D02*
X54554510Y-28622257D01*
X54554510Y-28622257D02*
X54625938Y-28693685D01*
X54625938Y-28693685D02*
X54697367Y-28836542D01*
X54697367Y-28836542D02*
X54697367Y-28979400D01*
X54697367Y-28979400D02*
X54625938Y-29193685D01*
X54625938Y-29193685D02*
X53768795Y-30050828D01*
X53768795Y-30050828D02*
X54697367Y-30050828D01*
X55983081Y-29050828D02*
X55983081Y-30050828D01*
X55625938Y-28479400D02*
X55268795Y-29550828D01*
X55268795Y-29550828D02*
X56197366Y-29550828D01*
D11*
X58860588Y-25317438D02*
X58765350Y-25269819D01*
X58765350Y-25269819D02*
X58622493Y-25269819D01*
X58622493Y-25269819D02*
X58479636Y-25317438D01*
X58479636Y-25317438D02*
X58384398Y-25412676D01*
X58384398Y-25412676D02*
X58336779Y-25507914D01*
X58336779Y-25507914D02*
X58289160Y-25698390D01*
X58289160Y-25698390D02*
X58289160Y-25841247D01*
X58289160Y-25841247D02*
X58336779Y-26031723D01*
X58336779Y-26031723D02*
X58384398Y-26126961D01*
X58384398Y-26126961D02*
X58479636Y-26222200D01*
X58479636Y-26222200D02*
X58622493Y-26269819D01*
X58622493Y-26269819D02*
X58717731Y-26269819D01*
X58717731Y-26269819D02*
X58860588Y-26222200D01*
X58860588Y-26222200D02*
X58908207Y-26174580D01*
X58908207Y-26174580D02*
X58908207Y-25841247D01*
X58908207Y-25841247D02*
X58717731Y-25841247D01*
X59470112Y-44946009D02*
X59612969Y-44993628D01*
X59612969Y-44993628D02*
X59660588Y-45041247D01*
X59660588Y-45041247D02*
X59708207Y-45136485D01*
X59708207Y-45136485D02*
X59708207Y-45279342D01*
X59708207Y-45279342D02*
X59660588Y-45374580D01*
X59660588Y-45374580D02*
X59612969Y-45422200D01*
X59612969Y-45422200D02*
X59517731Y-45469819D01*
X59517731Y-45469819D02*
X59136779Y-45469819D01*
X59136779Y-45469819D02*
X59136779Y-44469819D01*
X59136779Y-44469819D02*
X59470112Y-44469819D01*
X59470112Y-44469819D02*
X59565350Y-44517438D01*
X59565350Y-44517438D02*
X59612969Y-44565057D01*
X59612969Y-44565057D02*
X59660588Y-44660295D01*
X59660588Y-44660295D02*
X59660588Y-44755533D01*
X59660588Y-44755533D02*
X59612969Y-44850771D01*
X59612969Y-44850771D02*
X59565350Y-44898390D01*
X59565350Y-44898390D02*
X59470112Y-44946009D01*
X59470112Y-44946009D02*
X59136779Y-44946009D01*
X60136779Y-45088866D02*
X60898684Y-45088866D01*
X61851064Y-45469819D02*
X61374874Y-45469819D01*
X61374874Y-45469819D02*
X61374874Y-44469819D01*
X62565350Y-45422200D02*
X62470112Y-45469819D01*
X62470112Y-45469819D02*
X62279636Y-45469819D01*
X62279636Y-45469819D02*
X62184398Y-45422200D01*
X62184398Y-45422200D02*
X62136779Y-45326961D01*
X62136779Y-45326961D02*
X62136779Y-44946009D01*
X62136779Y-44946009D02*
X62184398Y-44850771D01*
X62184398Y-44850771D02*
X62279636Y-44803152D01*
X62279636Y-44803152D02*
X62470112Y-44803152D01*
X62470112Y-44803152D02*
X62565350Y-44850771D01*
X62565350Y-44850771D02*
X62612969Y-44946009D01*
X62612969Y-44946009D02*
X62612969Y-45041247D01*
X62612969Y-45041247D02*
X62136779Y-45136485D01*
X63470112Y-45469819D02*
X63470112Y-44469819D01*
X63470112Y-45422200D02*
X63374874Y-45469819D01*
X63374874Y-45469819D02*
X63184398Y-45469819D01*
X63184398Y-45469819D02*
X63089160Y-45422200D01*
X63089160Y-45422200D02*
X63041541Y-45374580D01*
X63041541Y-45374580D02*
X62993922Y-45279342D01*
X62993922Y-45279342D02*
X62993922Y-44993628D01*
X62993922Y-44993628D02*
X63041541Y-44898390D01*
X63041541Y-44898390D02*
X63089160Y-44850771D01*
X63089160Y-44850771D02*
X63184398Y-44803152D01*
X63184398Y-44803152D02*
X63374874Y-44803152D01*
X63374874Y-44803152D02*
X63470112Y-44850771D01*
X63970112Y-25746009D02*
X64112969Y-25793628D01*
X64112969Y-25793628D02*
X64160588Y-25841247D01*
X64160588Y-25841247D02*
X64208207Y-25936485D01*
X64208207Y-25936485D02*
X64208207Y-26079342D01*
X64208207Y-26079342D02*
X64160588Y-26174580D01*
X64160588Y-26174580D02*
X64112969Y-26222200D01*
X64112969Y-26222200D02*
X64017731Y-26269819D01*
X64017731Y-26269819D02*
X63636779Y-26269819D01*
X63636779Y-26269819D02*
X63636779Y-25269819D01*
X63636779Y-25269819D02*
X63970112Y-25269819D01*
X63970112Y-25269819D02*
X64065350Y-25317438D01*
X64065350Y-25317438D02*
X64112969Y-25365057D01*
X64112969Y-25365057D02*
X64160588Y-25460295D01*
X64160588Y-25460295D02*
X64160588Y-25555533D01*
X64160588Y-25555533D02*
X64112969Y-25650771D01*
X64112969Y-25650771D02*
X64065350Y-25698390D01*
X64065350Y-25698390D02*
X63970112Y-25746009D01*
X63970112Y-25746009D02*
X63636779Y-25746009D01*
X61612969Y-26269819D02*
X61136779Y-26269819D01*
X61136779Y-26269819D02*
X61136779Y-25269819D01*
D10*
X61754510Y-46329400D02*
X62897368Y-46329400D01*
X59254510Y-46329400D02*
X60397368Y-46329400D01*
X59825939Y-46900828D02*
X59825939Y-45757971D01*
X68804510Y-46550828D02*
X68804510Y-45050828D01*
X69661653Y-46550828D02*
X69018796Y-45693685D01*
X69661653Y-45050828D02*
X68804510Y-45907971D01*
X71018796Y-46550828D02*
X70304510Y-46550828D01*
X70304510Y-46550828D02*
X70304510Y-45050828D01*
D11*
X52954819Y-40985714D02*
X52478628Y-41319047D01*
X52954819Y-41557142D02*
X51954819Y-41557142D01*
X51954819Y-41557142D02*
X51954819Y-41176190D01*
X51954819Y-41176190D02*
X52002438Y-41080952D01*
X52002438Y-41080952D02*
X52050057Y-41033333D01*
X52050057Y-41033333D02*
X52145295Y-40985714D01*
X52145295Y-40985714D02*
X52288152Y-40985714D01*
X52288152Y-40985714D02*
X52383390Y-41033333D01*
X52383390Y-41033333D02*
X52431009Y-41080952D01*
X52431009Y-41080952D02*
X52478628Y-41176190D01*
X52478628Y-41176190D02*
X52478628Y-41557142D01*
X52002438Y-40033333D02*
X51954819Y-40128571D01*
X51954819Y-40128571D02*
X51954819Y-40271428D01*
X51954819Y-40271428D02*
X52002438Y-40414285D01*
X52002438Y-40414285D02*
X52097676Y-40509523D01*
X52097676Y-40509523D02*
X52192914Y-40557142D01*
X52192914Y-40557142D02*
X52383390Y-40604761D01*
X52383390Y-40604761D02*
X52526247Y-40604761D01*
X52526247Y-40604761D02*
X52716723Y-40557142D01*
X52716723Y-40557142D02*
X52811961Y-40509523D01*
X52811961Y-40509523D02*
X52907200Y-40414285D01*
X52907200Y-40414285D02*
X52954819Y-40271428D01*
X52954819Y-40271428D02*
X52954819Y-40176190D01*
X52954819Y-40176190D02*
X52907200Y-40033333D01*
X52907200Y-40033333D02*
X52859580Y-39985714D01*
X52859580Y-39985714D02*
X52526247Y-39985714D01*
X52526247Y-39985714D02*
X52526247Y-40176190D01*
X52573866Y-39557142D02*
X52573866Y-38795238D01*
X52954819Y-37795238D02*
X52954819Y-38366666D01*
X52954819Y-38080952D02*
X51954819Y-38080952D01*
X51954819Y-38080952D02*
X52097676Y-38176190D01*
X52097676Y-38176190D02*
X52192914Y-38271428D01*
X52192914Y-38271428D02*
X52240533Y-38366666D01*
X56874819Y-49583333D02*
X57589104Y-49583333D01*
X57589104Y-49583333D02*
X57731961Y-49630952D01*
X57731961Y-49630952D02*
X57827200Y-49726190D01*
X57827200Y-49726190D02*
X57874819Y-49869047D01*
X57874819Y-49869047D02*
X57874819Y-49964285D01*
X56970057Y-49154761D02*
X56922438Y-49107142D01*
X56922438Y-49107142D02*
X56874819Y-49011904D01*
X56874819Y-49011904D02*
X56874819Y-48773809D01*
X56874819Y-48773809D02*
X56922438Y-48678571D01*
X56922438Y-48678571D02*
X56970057Y-48630952D01*
X56970057Y-48630952D02*
X57065295Y-48583333D01*
X57065295Y-48583333D02*
X57160533Y-48583333D01*
X57160533Y-48583333D02*
X57303390Y-48630952D01*
X57303390Y-48630952D02*
X57874819Y-49202380D01*
X57874819Y-49202380D02*
X57874819Y-48583333D01*
X65534819Y-23333333D02*
X66249104Y-23333333D01*
X66249104Y-23333333D02*
X66391961Y-23380952D01*
X66391961Y-23380952D02*
X66487200Y-23476190D01*
X66487200Y-23476190D02*
X66534819Y-23619047D01*
X66534819Y-23619047D02*
X66534819Y-23714285D01*
X66534819Y-22333333D02*
X66534819Y-22904761D01*
X66534819Y-22619047D02*
X65534819Y-22619047D01*
X65534819Y-22619047D02*
X65677676Y-22714285D01*
X65677676Y-22714285D02*
X65772914Y-22809523D01*
X65772914Y-22809523D02*
X65820533Y-22904761D01*
X70154819Y-35757142D02*
X69678628Y-36090475D01*
X70154819Y-36328570D02*
X69154819Y-36328570D01*
X69154819Y-36328570D02*
X69154819Y-35947618D01*
X69154819Y-35947618D02*
X69202438Y-35852380D01*
X69202438Y-35852380D02*
X69250057Y-35804761D01*
X69250057Y-35804761D02*
X69345295Y-35757142D01*
X69345295Y-35757142D02*
X69488152Y-35757142D01*
X69488152Y-35757142D02*
X69583390Y-35804761D01*
X69583390Y-35804761D02*
X69631009Y-35852380D01*
X69631009Y-35852380D02*
X69678628Y-35947618D01*
X69678628Y-35947618D02*
X69678628Y-36328570D01*
X69154819Y-35423808D02*
X70154819Y-35185713D01*
X70154819Y-35185713D02*
X69440533Y-34995237D01*
X69440533Y-34995237D02*
X70154819Y-34804761D01*
X70154819Y-34804761D02*
X69154819Y-34566666D01*
X69773866Y-34185713D02*
X69773866Y-33423809D01*
X70154819Y-32423809D02*
X70154819Y-32995237D01*
X70154819Y-32709523D02*
X69154819Y-32709523D01*
X69154819Y-32709523D02*
X69297676Y-32804761D01*
X69297676Y-32804761D02*
X69392914Y-32899999D01*
X69392914Y-32899999D02*
X69440533Y-32995237D01*
X73738095Y-39804819D02*
X73738095Y-38804819D01*
X73738095Y-39281009D02*
X74309523Y-39281009D01*
X74309523Y-39804819D02*
X74309523Y-38804819D01*
X74738095Y-38900057D02*
X74785714Y-38852438D01*
X74785714Y-38852438D02*
X74880952Y-38804819D01*
X74880952Y-38804819D02*
X75119047Y-38804819D01*
X75119047Y-38804819D02*
X75214285Y-38852438D01*
X75214285Y-38852438D02*
X75261904Y-38900057D01*
X75261904Y-38900057D02*
X75309523Y-38995295D01*
X75309523Y-38995295D02*
X75309523Y-39090533D01*
X75309523Y-39090533D02*
X75261904Y-39233390D01*
X75261904Y-39233390D02*
X74690476Y-39804819D01*
X74690476Y-39804819D02*
X75309523Y-39804819D01*
X46738095Y-39804819D02*
X46738095Y-38804819D01*
X46738095Y-39281009D02*
X47309523Y-39281009D01*
X47309523Y-39804819D02*
X47309523Y-38804819D01*
X48309523Y-39804819D02*
X47738095Y-39804819D01*
X48023809Y-39804819D02*
X48023809Y-38804819D01*
X48023809Y-38804819D02*
X47928571Y-38947676D01*
X47928571Y-38947676D02*
X47833333Y-39042914D01*
X47833333Y-39042914D02*
X47738095Y-39090533D01*
D12*
%TO.C,RG-1*%
X53590000Y-40537064D02*
X53590000Y-39082936D01*
X55410000Y-40537064D02*
X55410000Y-39082936D01*
%TO.C,J2*%
X58420000Y-50580000D02*
X58420000Y-49250000D01*
X59750000Y-50580000D02*
X58420000Y-50580000D01*
X61020000Y-50580000D02*
X63620000Y-50580000D01*
X61020000Y-50580000D02*
X61020000Y-47920000D01*
X63620000Y-50580000D02*
X63620000Y-47920000D01*
X61020000Y-47920000D02*
X63620000Y-47920000D01*
%TO.C,J1*%
X62480000Y-24330000D02*
X57340000Y-24330000D01*
X57340000Y-21670000D02*
X57340000Y-24330000D01*
X62480000Y-21670000D02*
X62480000Y-24330000D01*
X62480000Y-21670000D02*
X57340000Y-21670000D01*
X63750000Y-21670000D02*
X65080000Y-21670000D01*
X65080000Y-21670000D02*
X65080000Y-23000000D01*
%TO.C,RW-1*%
X66840000Y-33402936D02*
X66840000Y-34857064D01*
X68660000Y-33402936D02*
X68660000Y-34857064D01*
%TD*%
M02*
