%TF.GenerationSoftware,KiCad,Pcbnew,8.0.5*%
%TF.CreationDate,2024-09-21T18:14:26+02:00*%
%TF.ProjectId,KorryLargePCB_SMD,4b6f7272-794c-4617-9267-655043425f53,rev?*%
%TF.SameCoordinates,Original*%
%TF.FileFunction,Drillmap*%
%TF.FilePolarity,Positive*%
%FSLAX45Y45*%
G04 Gerber Fmt 4.5, Leading zero omitted, Abs format (unit mm)*
G04 Created by KiCad (PCBNEW 8.0.5) date 2024-09-21 18:14:26*
%MOMM*%
%LPD*%
G01*
G04 APERTURE LIST*
%ADD10C,0.100000*%
%ADD11C,0.200000*%
%ADD12C,0.270000*%
G04 APERTURE END LIST*
D10*
X5000000Y-2550000D02*
X5500000Y-2550000D01*
X5500000Y-2000000D02*
X5500000Y-2550000D01*
X7200000Y-4100000D02*
X7200000Y-4750000D01*
X4460000Y-3100000D02*
X5000000Y-3100000D01*
X7740000Y-4100000D02*
X7740000Y-3100000D01*
X5000000Y-4750000D02*
X5000000Y-4100000D01*
X5000000Y-3100000D02*
X5000000Y-2550000D01*
X7200000Y-3100000D02*
X7200000Y-2550000D01*
X6575000Y-5200000D02*
X6575000Y-4750000D01*
X6750000Y-2000000D02*
X6750000Y-2550000D01*
X6575000Y-4750000D02*
X7200000Y-4750000D01*
X5000000Y-4750000D02*
X5600000Y-4750000D01*
X7200000Y-4100000D02*
X7740000Y-4100000D01*
X6575000Y-5200000D02*
X5600000Y-5200000D01*
X5000000Y-4100000D02*
X4460000Y-4100000D01*
X7740000Y-3100000D02*
X7200000Y-3100000D01*
X5600000Y-5200000D02*
X5600000Y-4750000D01*
X4460000Y-4100000D02*
X4460000Y-3100000D01*
X7200000Y-2550000D02*
X6750000Y-2550000D01*
X5500000Y-2000000D02*
X6750000Y-2000000D01*
D11*
D10*
X5435000Y-3962500D02*
X5475000Y-4002500D01*
X5475000Y-3962500D02*
X5435000Y-4002500D01*
X6102500Y-2797500D02*
X6142500Y-2837500D01*
X6142500Y-2797500D02*
X6102500Y-2837500D01*
X6752500Y-4157500D02*
X6792500Y-4197500D01*
X6792500Y-4157500D02*
X6752500Y-4197500D01*
X6757500Y-3390000D02*
X6797500Y-3430000D01*
X6797500Y-3390000D02*
X6757500Y-3430000D01*
X5850000Y-3390000D02*
G75*
G02*
X5770000Y-3390000I-40000J0D01*
G01*
X5770000Y-3390000D02*
G75*
G02*
X5850000Y-3390000I40000J0D01*
G01*
X5850000Y-3660000D02*
G75*
G02*
X5770000Y-3660000I-40000J0D01*
G01*
X5770000Y-3660000D02*
G75*
G02*
X5850000Y-3660000I40000J0D01*
G01*
X5850000Y-3930000D02*
G75*
G02*
X5770000Y-3930000I-40000J0D01*
G01*
X5770000Y-3930000D02*
G75*
G02*
X5850000Y-3930000I40000J0D01*
G01*
X6450000Y-3390000D02*
G75*
G02*
X6370000Y-3390000I-40000J0D01*
G01*
X6370000Y-3390000D02*
G75*
G02*
X6450000Y-3390000I40000J0D01*
G01*
X6450000Y-3660000D02*
G75*
G02*
X6370000Y-3660000I-40000J0D01*
G01*
X6370000Y-3660000D02*
G75*
G02*
X6450000Y-3660000I40000J0D01*
G01*
X6450000Y-3930000D02*
G75*
G02*
X6370000Y-3930000I-40000J0D01*
G01*
X6370000Y-3930000D02*
G75*
G02*
X6450000Y-3930000I40000J0D01*
G01*
X5867000Y-2250000D02*
X5867000Y-2350000D01*
X5817000Y-2300000D02*
X5917000Y-2300000D01*
X5975000Y-4875000D02*
X5975000Y-4975000D01*
X5925000Y-4925000D02*
X6025000Y-4925000D01*
X6121000Y-2250000D02*
X6121000Y-2350000D01*
X6071000Y-2300000D02*
X6171000Y-2300000D01*
X6229000Y-4875000D02*
X6229000Y-4975000D01*
X6179000Y-4925000D02*
X6279000Y-4925000D01*
X6375000Y-2250000D02*
X6375000Y-2350000D01*
X6325000Y-2300000D02*
X6425000Y-2300000D01*
D12*
X4845460Y-3695460D02*
X4845460Y-3504540D01*
X4654540Y-3504540D01*
X4654540Y-3695460D01*
X4845460Y-3695460D01*
X7545460Y-3695460D02*
X7545460Y-3504540D01*
X7354540Y-3504540D01*
X7354540Y-3695460D01*
X7545460Y-3695460D01*
D11*
X4715777Y-5516484D02*
X4715777Y-5316484D01*
X4715777Y-5316484D02*
X4763396Y-5316484D01*
X4763396Y-5316484D02*
X4791967Y-5326008D01*
X4791967Y-5326008D02*
X4811015Y-5345055D01*
X4811015Y-5345055D02*
X4820539Y-5364103D01*
X4820539Y-5364103D02*
X4830063Y-5402198D01*
X4830063Y-5402198D02*
X4830063Y-5430770D01*
X4830063Y-5430770D02*
X4820539Y-5468865D01*
X4820539Y-5468865D02*
X4811015Y-5487912D01*
X4811015Y-5487912D02*
X4791967Y-5506960D01*
X4791967Y-5506960D02*
X4763396Y-5516484D01*
X4763396Y-5516484D02*
X4715777Y-5516484D01*
X4915777Y-5516484D02*
X4915777Y-5383150D01*
X4915777Y-5421246D02*
X4925301Y-5402198D01*
X4925301Y-5402198D02*
X4934824Y-5392674D01*
X4934824Y-5392674D02*
X4953872Y-5383150D01*
X4953872Y-5383150D02*
X4972920Y-5383150D01*
X5039586Y-5516484D02*
X5039586Y-5383150D01*
X5039586Y-5316484D02*
X5030063Y-5326008D01*
X5030063Y-5326008D02*
X5039586Y-5335531D01*
X5039586Y-5335531D02*
X5049110Y-5326008D01*
X5049110Y-5326008D02*
X5039586Y-5316484D01*
X5039586Y-5316484D02*
X5039586Y-5335531D01*
X5163396Y-5516484D02*
X5144348Y-5506960D01*
X5144348Y-5506960D02*
X5134824Y-5487912D01*
X5134824Y-5487912D02*
X5134824Y-5316484D01*
X5268158Y-5516484D02*
X5249110Y-5506960D01*
X5249110Y-5506960D02*
X5239586Y-5487912D01*
X5239586Y-5487912D02*
X5239586Y-5316484D01*
X5496729Y-5516484D02*
X5496729Y-5316484D01*
X5496729Y-5316484D02*
X5563396Y-5459341D01*
X5563396Y-5459341D02*
X5630062Y-5316484D01*
X5630062Y-5316484D02*
X5630062Y-5516484D01*
X5811015Y-5516484D02*
X5811015Y-5411722D01*
X5811015Y-5411722D02*
X5801491Y-5392674D01*
X5801491Y-5392674D02*
X5782443Y-5383150D01*
X5782443Y-5383150D02*
X5744348Y-5383150D01*
X5744348Y-5383150D02*
X5725301Y-5392674D01*
X5811015Y-5506960D02*
X5791967Y-5516484D01*
X5791967Y-5516484D02*
X5744348Y-5516484D01*
X5744348Y-5516484D02*
X5725301Y-5506960D01*
X5725301Y-5506960D02*
X5715777Y-5487912D01*
X5715777Y-5487912D02*
X5715777Y-5468865D01*
X5715777Y-5468865D02*
X5725301Y-5449817D01*
X5725301Y-5449817D02*
X5744348Y-5440293D01*
X5744348Y-5440293D02*
X5791967Y-5440293D01*
X5791967Y-5440293D02*
X5811015Y-5430770D01*
X5906253Y-5383150D02*
X5906253Y-5583150D01*
X5906253Y-5392674D02*
X5925301Y-5383150D01*
X5925301Y-5383150D02*
X5963396Y-5383150D01*
X5963396Y-5383150D02*
X5982443Y-5392674D01*
X5982443Y-5392674D02*
X5991967Y-5402198D01*
X5991967Y-5402198D02*
X6001491Y-5421246D01*
X6001491Y-5421246D02*
X6001491Y-5478389D01*
X6001491Y-5478389D02*
X5991967Y-5497436D01*
X5991967Y-5497436D02*
X5982443Y-5506960D01*
X5982443Y-5506960D02*
X5963396Y-5516484D01*
X5963396Y-5516484D02*
X5925301Y-5516484D01*
X5925301Y-5516484D02*
X5906253Y-5506960D01*
X6087205Y-5497436D02*
X6096729Y-5506960D01*
X6096729Y-5506960D02*
X6087205Y-5516484D01*
X6087205Y-5516484D02*
X6077682Y-5506960D01*
X6077682Y-5506960D02*
X6087205Y-5497436D01*
X6087205Y-5497436D02*
X6087205Y-5516484D01*
X6087205Y-5392674D02*
X6096729Y-5402198D01*
X6096729Y-5402198D02*
X6087205Y-5411722D01*
X6087205Y-5411722D02*
X6077682Y-5402198D01*
X6077682Y-5402198D02*
X6087205Y-5392674D01*
X6087205Y-5392674D02*
X6087205Y-5411722D01*
D10*
X4415000Y-5825000D02*
X4455000Y-5865000D01*
X4455000Y-5825000D02*
X4415000Y-5865000D01*
D11*
X4753872Y-5736484D02*
X4772920Y-5736484D01*
X4772920Y-5736484D02*
X4791967Y-5746008D01*
X4791967Y-5746008D02*
X4801491Y-5755531D01*
X4801491Y-5755531D02*
X4811015Y-5774579D01*
X4811015Y-5774579D02*
X4820539Y-5812674D01*
X4820539Y-5812674D02*
X4820539Y-5860293D01*
X4820539Y-5860293D02*
X4811015Y-5898388D01*
X4811015Y-5898388D02*
X4801491Y-5917436D01*
X4801491Y-5917436D02*
X4791967Y-5926960D01*
X4791967Y-5926960D02*
X4772920Y-5936484D01*
X4772920Y-5936484D02*
X4753872Y-5936484D01*
X4753872Y-5936484D02*
X4734824Y-5926960D01*
X4734824Y-5926960D02*
X4725301Y-5917436D01*
X4725301Y-5917436D02*
X4715777Y-5898388D01*
X4715777Y-5898388D02*
X4706253Y-5860293D01*
X4706253Y-5860293D02*
X4706253Y-5812674D01*
X4706253Y-5812674D02*
X4715777Y-5774579D01*
X4715777Y-5774579D02*
X4725301Y-5755531D01*
X4725301Y-5755531D02*
X4734824Y-5746008D01*
X4734824Y-5746008D02*
X4753872Y-5736484D01*
X4906253Y-5917436D02*
X4915777Y-5926960D01*
X4915777Y-5926960D02*
X4906253Y-5936484D01*
X4906253Y-5936484D02*
X4896729Y-5926960D01*
X4896729Y-5926960D02*
X4906253Y-5917436D01*
X4906253Y-5917436D02*
X4906253Y-5936484D01*
X5087205Y-5803150D02*
X5087205Y-5936484D01*
X5039586Y-5726960D02*
X4991967Y-5869817D01*
X4991967Y-5869817D02*
X5115777Y-5869817D01*
X5230063Y-5736484D02*
X5249110Y-5736484D01*
X5249110Y-5736484D02*
X5268158Y-5746008D01*
X5268158Y-5746008D02*
X5277682Y-5755531D01*
X5277682Y-5755531D02*
X5287205Y-5774579D01*
X5287205Y-5774579D02*
X5296729Y-5812674D01*
X5296729Y-5812674D02*
X5296729Y-5860293D01*
X5296729Y-5860293D02*
X5287205Y-5898388D01*
X5287205Y-5898388D02*
X5277682Y-5917436D01*
X5277682Y-5917436D02*
X5268158Y-5926960D01*
X5268158Y-5926960D02*
X5249110Y-5936484D01*
X5249110Y-5936484D02*
X5230063Y-5936484D01*
X5230063Y-5936484D02*
X5211015Y-5926960D01*
X5211015Y-5926960D02*
X5201491Y-5917436D01*
X5201491Y-5917436D02*
X5191967Y-5898388D01*
X5191967Y-5898388D02*
X5182444Y-5860293D01*
X5182444Y-5860293D02*
X5182444Y-5812674D01*
X5182444Y-5812674D02*
X5191967Y-5774579D01*
X5191967Y-5774579D02*
X5201491Y-5755531D01*
X5201491Y-5755531D02*
X5211015Y-5746008D01*
X5211015Y-5746008D02*
X5230063Y-5736484D01*
X5420539Y-5736484D02*
X5439586Y-5736484D01*
X5439586Y-5736484D02*
X5458634Y-5746008D01*
X5458634Y-5746008D02*
X5468158Y-5755531D01*
X5468158Y-5755531D02*
X5477682Y-5774579D01*
X5477682Y-5774579D02*
X5487205Y-5812674D01*
X5487205Y-5812674D02*
X5487205Y-5860293D01*
X5487205Y-5860293D02*
X5477682Y-5898388D01*
X5477682Y-5898388D02*
X5468158Y-5917436D01*
X5468158Y-5917436D02*
X5458634Y-5926960D01*
X5458634Y-5926960D02*
X5439586Y-5936484D01*
X5439586Y-5936484D02*
X5420539Y-5936484D01*
X5420539Y-5936484D02*
X5401491Y-5926960D01*
X5401491Y-5926960D02*
X5391967Y-5917436D01*
X5391967Y-5917436D02*
X5382444Y-5898388D01*
X5382444Y-5898388D02*
X5372920Y-5860293D01*
X5372920Y-5860293D02*
X5372920Y-5812674D01*
X5372920Y-5812674D02*
X5382444Y-5774579D01*
X5382444Y-5774579D02*
X5391967Y-5755531D01*
X5391967Y-5755531D02*
X5401491Y-5746008D01*
X5401491Y-5746008D02*
X5420539Y-5736484D01*
X5572920Y-5936484D02*
X5572920Y-5803150D01*
X5572920Y-5822198D02*
X5582444Y-5812674D01*
X5582444Y-5812674D02*
X5601491Y-5803150D01*
X5601491Y-5803150D02*
X5630063Y-5803150D01*
X5630063Y-5803150D02*
X5649110Y-5812674D01*
X5649110Y-5812674D02*
X5658634Y-5831722D01*
X5658634Y-5831722D02*
X5658634Y-5936484D01*
X5658634Y-5831722D02*
X5668158Y-5812674D01*
X5668158Y-5812674D02*
X5687205Y-5803150D01*
X5687205Y-5803150D02*
X5715777Y-5803150D01*
X5715777Y-5803150D02*
X5734824Y-5812674D01*
X5734824Y-5812674D02*
X5744348Y-5831722D01*
X5744348Y-5831722D02*
X5744348Y-5936484D01*
X5839586Y-5936484D02*
X5839586Y-5803150D01*
X5839586Y-5822198D02*
X5849110Y-5812674D01*
X5849110Y-5812674D02*
X5868158Y-5803150D01*
X5868158Y-5803150D02*
X5896729Y-5803150D01*
X5896729Y-5803150D02*
X5915777Y-5812674D01*
X5915777Y-5812674D02*
X5925301Y-5831722D01*
X5925301Y-5831722D02*
X5925301Y-5936484D01*
X5925301Y-5831722D02*
X5934824Y-5812674D01*
X5934824Y-5812674D02*
X5953872Y-5803150D01*
X5953872Y-5803150D02*
X5982443Y-5803150D01*
X5982443Y-5803150D02*
X6001491Y-5812674D01*
X6001491Y-5812674D02*
X6011015Y-5831722D01*
X6011015Y-5831722D02*
X6011015Y-5936484D01*
X6401491Y-5726960D02*
X6230063Y-5984103D01*
X6658634Y-5736484D02*
X6677682Y-5736484D01*
X6677682Y-5736484D02*
X6696729Y-5746008D01*
X6696729Y-5746008D02*
X6706253Y-5755531D01*
X6706253Y-5755531D02*
X6715777Y-5774579D01*
X6715777Y-5774579D02*
X6725301Y-5812674D01*
X6725301Y-5812674D02*
X6725301Y-5860293D01*
X6725301Y-5860293D02*
X6715777Y-5898388D01*
X6715777Y-5898388D02*
X6706253Y-5917436D01*
X6706253Y-5917436D02*
X6696729Y-5926960D01*
X6696729Y-5926960D02*
X6677682Y-5936484D01*
X6677682Y-5936484D02*
X6658634Y-5936484D01*
X6658634Y-5936484D02*
X6639586Y-5926960D01*
X6639586Y-5926960D02*
X6630063Y-5917436D01*
X6630063Y-5917436D02*
X6620539Y-5898388D01*
X6620539Y-5898388D02*
X6611015Y-5860293D01*
X6611015Y-5860293D02*
X6611015Y-5812674D01*
X6611015Y-5812674D02*
X6620539Y-5774579D01*
X6620539Y-5774579D02*
X6630063Y-5755531D01*
X6630063Y-5755531D02*
X6639586Y-5746008D01*
X6639586Y-5746008D02*
X6658634Y-5736484D01*
X6811015Y-5917436D02*
X6820539Y-5926960D01*
X6820539Y-5926960D02*
X6811015Y-5936484D01*
X6811015Y-5936484D02*
X6801491Y-5926960D01*
X6801491Y-5926960D02*
X6811015Y-5917436D01*
X6811015Y-5917436D02*
X6811015Y-5936484D01*
X6944348Y-5736484D02*
X6963396Y-5736484D01*
X6963396Y-5736484D02*
X6982444Y-5746008D01*
X6982444Y-5746008D02*
X6991967Y-5755531D01*
X6991967Y-5755531D02*
X7001491Y-5774579D01*
X7001491Y-5774579D02*
X7011015Y-5812674D01*
X7011015Y-5812674D02*
X7011015Y-5860293D01*
X7011015Y-5860293D02*
X7001491Y-5898388D01*
X7001491Y-5898388D02*
X6991967Y-5917436D01*
X6991967Y-5917436D02*
X6982444Y-5926960D01*
X6982444Y-5926960D02*
X6963396Y-5936484D01*
X6963396Y-5936484D02*
X6944348Y-5936484D01*
X6944348Y-5936484D02*
X6925301Y-5926960D01*
X6925301Y-5926960D02*
X6915777Y-5917436D01*
X6915777Y-5917436D02*
X6906253Y-5898388D01*
X6906253Y-5898388D02*
X6896729Y-5860293D01*
X6896729Y-5860293D02*
X6896729Y-5812674D01*
X6896729Y-5812674D02*
X6906253Y-5774579D01*
X6906253Y-5774579D02*
X6915777Y-5755531D01*
X6915777Y-5755531D02*
X6925301Y-5746008D01*
X6925301Y-5746008D02*
X6944348Y-5736484D01*
X7201491Y-5936484D02*
X7087206Y-5936484D01*
X7144348Y-5936484D02*
X7144348Y-5736484D01*
X7144348Y-5736484D02*
X7125301Y-5765055D01*
X7125301Y-5765055D02*
X7106253Y-5784103D01*
X7106253Y-5784103D02*
X7087206Y-5793627D01*
X7382444Y-5736484D02*
X7287206Y-5736484D01*
X7287206Y-5736484D02*
X7277682Y-5831722D01*
X7277682Y-5831722D02*
X7287206Y-5822198D01*
X7287206Y-5822198D02*
X7306253Y-5812674D01*
X7306253Y-5812674D02*
X7353872Y-5812674D01*
X7353872Y-5812674D02*
X7372920Y-5822198D01*
X7372920Y-5822198D02*
X7382444Y-5831722D01*
X7382444Y-5831722D02*
X7391967Y-5850769D01*
X7391967Y-5850769D02*
X7391967Y-5898388D01*
X7391967Y-5898388D02*
X7382444Y-5917436D01*
X7382444Y-5917436D02*
X7372920Y-5926960D01*
X7372920Y-5926960D02*
X7353872Y-5936484D01*
X7353872Y-5936484D02*
X7306253Y-5936484D01*
X7306253Y-5936484D02*
X7287206Y-5926960D01*
X7287206Y-5926960D02*
X7277682Y-5917436D01*
X7458634Y-5736484D02*
X7591967Y-5736484D01*
X7591967Y-5736484D02*
X7506253Y-5936484D01*
X7658634Y-5736484D02*
X7658634Y-5774579D01*
X7734825Y-5736484D02*
X7734825Y-5774579D01*
X8030063Y-6012674D02*
X8020539Y-6003150D01*
X8020539Y-6003150D02*
X8001491Y-5974579D01*
X8001491Y-5974579D02*
X7991968Y-5955531D01*
X7991968Y-5955531D02*
X7982444Y-5926960D01*
X7982444Y-5926960D02*
X7972920Y-5879341D01*
X7972920Y-5879341D02*
X7972920Y-5841246D01*
X7972920Y-5841246D02*
X7982444Y-5793627D01*
X7982444Y-5793627D02*
X7991968Y-5765055D01*
X7991968Y-5765055D02*
X8001491Y-5746008D01*
X8001491Y-5746008D02*
X8020539Y-5717436D01*
X8020539Y-5717436D02*
X8030063Y-5707912D01*
X8191968Y-5803150D02*
X8191968Y-5936484D01*
X8144348Y-5726960D02*
X8096729Y-5869817D01*
X8096729Y-5869817D02*
X8220539Y-5869817D01*
X8449111Y-5936484D02*
X8449111Y-5736484D01*
X8534825Y-5936484D02*
X8534825Y-5831722D01*
X8534825Y-5831722D02*
X8525301Y-5812674D01*
X8525301Y-5812674D02*
X8506253Y-5803150D01*
X8506253Y-5803150D02*
X8477682Y-5803150D01*
X8477682Y-5803150D02*
X8458634Y-5812674D01*
X8458634Y-5812674D02*
X8449111Y-5822198D01*
X8658634Y-5936484D02*
X8639587Y-5926960D01*
X8639587Y-5926960D02*
X8630063Y-5917436D01*
X8630063Y-5917436D02*
X8620539Y-5898388D01*
X8620539Y-5898388D02*
X8620539Y-5841246D01*
X8620539Y-5841246D02*
X8630063Y-5822198D01*
X8630063Y-5822198D02*
X8639587Y-5812674D01*
X8639587Y-5812674D02*
X8658634Y-5803150D01*
X8658634Y-5803150D02*
X8687206Y-5803150D01*
X8687206Y-5803150D02*
X8706253Y-5812674D01*
X8706253Y-5812674D02*
X8715777Y-5822198D01*
X8715777Y-5822198D02*
X8725301Y-5841246D01*
X8725301Y-5841246D02*
X8725301Y-5898388D01*
X8725301Y-5898388D02*
X8715777Y-5917436D01*
X8715777Y-5917436D02*
X8706253Y-5926960D01*
X8706253Y-5926960D02*
X8687206Y-5936484D01*
X8687206Y-5936484D02*
X8658634Y-5936484D01*
X8839587Y-5936484D02*
X8820539Y-5926960D01*
X8820539Y-5926960D02*
X8811015Y-5907912D01*
X8811015Y-5907912D02*
X8811015Y-5736484D01*
X8991968Y-5926960D02*
X8972920Y-5936484D01*
X8972920Y-5936484D02*
X8934825Y-5936484D01*
X8934825Y-5936484D02*
X8915777Y-5926960D01*
X8915777Y-5926960D02*
X8906253Y-5907912D01*
X8906253Y-5907912D02*
X8906253Y-5831722D01*
X8906253Y-5831722D02*
X8915777Y-5812674D01*
X8915777Y-5812674D02*
X8934825Y-5803150D01*
X8934825Y-5803150D02*
X8972920Y-5803150D01*
X8972920Y-5803150D02*
X8991968Y-5812674D01*
X8991968Y-5812674D02*
X9001492Y-5831722D01*
X9001492Y-5831722D02*
X9001492Y-5850769D01*
X9001492Y-5850769D02*
X8906253Y-5869817D01*
X9077682Y-5926960D02*
X9096730Y-5936484D01*
X9096730Y-5936484D02*
X9134825Y-5936484D01*
X9134825Y-5936484D02*
X9153873Y-5926960D01*
X9153873Y-5926960D02*
X9163396Y-5907912D01*
X9163396Y-5907912D02*
X9163396Y-5898388D01*
X9163396Y-5898388D02*
X9153873Y-5879341D01*
X9153873Y-5879341D02*
X9134825Y-5869817D01*
X9134825Y-5869817D02*
X9106253Y-5869817D01*
X9106253Y-5869817D02*
X9087206Y-5860293D01*
X9087206Y-5860293D02*
X9077682Y-5841246D01*
X9077682Y-5841246D02*
X9077682Y-5831722D01*
X9077682Y-5831722D02*
X9087206Y-5812674D01*
X9087206Y-5812674D02*
X9106253Y-5803150D01*
X9106253Y-5803150D02*
X9134825Y-5803150D01*
X9134825Y-5803150D02*
X9153873Y-5812674D01*
X9230063Y-6012674D02*
X9239587Y-6003150D01*
X9239587Y-6003150D02*
X9258634Y-5974579D01*
X9258634Y-5974579D02*
X9268158Y-5955531D01*
X9268158Y-5955531D02*
X9277682Y-5926960D01*
X9277682Y-5926960D02*
X9287206Y-5879341D01*
X9287206Y-5879341D02*
X9287206Y-5841246D01*
X9287206Y-5841246D02*
X9277682Y-5793627D01*
X9277682Y-5793627D02*
X9268158Y-5765055D01*
X9268158Y-5765055D02*
X9258634Y-5746008D01*
X9258634Y-5746008D02*
X9239587Y-5717436D01*
X9239587Y-5717436D02*
X9230063Y-5707912D01*
D10*
X4455000Y-6109000D02*
G75*
G02*
X4375000Y-6109000I-40000J0D01*
G01*
X4375000Y-6109000D02*
G75*
G02*
X4455000Y-6109000I40000J0D01*
G01*
D11*
X4753872Y-6000484D02*
X4772920Y-6000484D01*
X4772920Y-6000484D02*
X4791967Y-6010008D01*
X4791967Y-6010008D02*
X4801491Y-6019531D01*
X4801491Y-6019531D02*
X4811015Y-6038579D01*
X4811015Y-6038579D02*
X4820539Y-6076674D01*
X4820539Y-6076674D02*
X4820539Y-6124293D01*
X4820539Y-6124293D02*
X4811015Y-6162388D01*
X4811015Y-6162388D02*
X4801491Y-6181436D01*
X4801491Y-6181436D02*
X4791967Y-6190960D01*
X4791967Y-6190960D02*
X4772920Y-6200484D01*
X4772920Y-6200484D02*
X4753872Y-6200484D01*
X4753872Y-6200484D02*
X4734824Y-6190960D01*
X4734824Y-6190960D02*
X4725301Y-6181436D01*
X4725301Y-6181436D02*
X4715777Y-6162388D01*
X4715777Y-6162388D02*
X4706253Y-6124293D01*
X4706253Y-6124293D02*
X4706253Y-6076674D01*
X4706253Y-6076674D02*
X4715777Y-6038579D01*
X4715777Y-6038579D02*
X4725301Y-6019531D01*
X4725301Y-6019531D02*
X4734824Y-6010008D01*
X4734824Y-6010008D02*
X4753872Y-6000484D01*
X4906253Y-6181436D02*
X4915777Y-6190960D01*
X4915777Y-6190960D02*
X4906253Y-6200484D01*
X4906253Y-6200484D02*
X4896729Y-6190960D01*
X4896729Y-6190960D02*
X4906253Y-6181436D01*
X4906253Y-6181436D02*
X4906253Y-6200484D01*
X5030063Y-6086198D02*
X5011015Y-6076674D01*
X5011015Y-6076674D02*
X5001491Y-6067150D01*
X5001491Y-6067150D02*
X4991967Y-6048103D01*
X4991967Y-6048103D02*
X4991967Y-6038579D01*
X4991967Y-6038579D02*
X5001491Y-6019531D01*
X5001491Y-6019531D02*
X5011015Y-6010008D01*
X5011015Y-6010008D02*
X5030063Y-6000484D01*
X5030063Y-6000484D02*
X5068158Y-6000484D01*
X5068158Y-6000484D02*
X5087205Y-6010008D01*
X5087205Y-6010008D02*
X5096729Y-6019531D01*
X5096729Y-6019531D02*
X5106253Y-6038579D01*
X5106253Y-6038579D02*
X5106253Y-6048103D01*
X5106253Y-6048103D02*
X5096729Y-6067150D01*
X5096729Y-6067150D02*
X5087205Y-6076674D01*
X5087205Y-6076674D02*
X5068158Y-6086198D01*
X5068158Y-6086198D02*
X5030063Y-6086198D01*
X5030063Y-6086198D02*
X5011015Y-6095722D01*
X5011015Y-6095722D02*
X5001491Y-6105246D01*
X5001491Y-6105246D02*
X4991967Y-6124293D01*
X4991967Y-6124293D02*
X4991967Y-6162388D01*
X4991967Y-6162388D02*
X5001491Y-6181436D01*
X5001491Y-6181436D02*
X5011015Y-6190960D01*
X5011015Y-6190960D02*
X5030063Y-6200484D01*
X5030063Y-6200484D02*
X5068158Y-6200484D01*
X5068158Y-6200484D02*
X5087205Y-6190960D01*
X5087205Y-6190960D02*
X5096729Y-6181436D01*
X5096729Y-6181436D02*
X5106253Y-6162388D01*
X5106253Y-6162388D02*
X5106253Y-6124293D01*
X5106253Y-6124293D02*
X5096729Y-6105246D01*
X5096729Y-6105246D02*
X5087205Y-6095722D01*
X5087205Y-6095722D02*
X5068158Y-6086198D01*
X5230063Y-6000484D02*
X5249110Y-6000484D01*
X5249110Y-6000484D02*
X5268158Y-6010008D01*
X5268158Y-6010008D02*
X5277682Y-6019531D01*
X5277682Y-6019531D02*
X5287205Y-6038579D01*
X5287205Y-6038579D02*
X5296729Y-6076674D01*
X5296729Y-6076674D02*
X5296729Y-6124293D01*
X5296729Y-6124293D02*
X5287205Y-6162388D01*
X5287205Y-6162388D02*
X5277682Y-6181436D01*
X5277682Y-6181436D02*
X5268158Y-6190960D01*
X5268158Y-6190960D02*
X5249110Y-6200484D01*
X5249110Y-6200484D02*
X5230063Y-6200484D01*
X5230063Y-6200484D02*
X5211015Y-6190960D01*
X5211015Y-6190960D02*
X5201491Y-6181436D01*
X5201491Y-6181436D02*
X5191967Y-6162388D01*
X5191967Y-6162388D02*
X5182444Y-6124293D01*
X5182444Y-6124293D02*
X5182444Y-6076674D01*
X5182444Y-6076674D02*
X5191967Y-6038579D01*
X5191967Y-6038579D02*
X5201491Y-6019531D01*
X5201491Y-6019531D02*
X5211015Y-6010008D01*
X5211015Y-6010008D02*
X5230063Y-6000484D01*
X5420539Y-6000484D02*
X5439586Y-6000484D01*
X5439586Y-6000484D02*
X5458634Y-6010008D01*
X5458634Y-6010008D02*
X5468158Y-6019531D01*
X5468158Y-6019531D02*
X5477682Y-6038579D01*
X5477682Y-6038579D02*
X5487205Y-6076674D01*
X5487205Y-6076674D02*
X5487205Y-6124293D01*
X5487205Y-6124293D02*
X5477682Y-6162388D01*
X5477682Y-6162388D02*
X5468158Y-6181436D01*
X5468158Y-6181436D02*
X5458634Y-6190960D01*
X5458634Y-6190960D02*
X5439586Y-6200484D01*
X5439586Y-6200484D02*
X5420539Y-6200484D01*
X5420539Y-6200484D02*
X5401491Y-6190960D01*
X5401491Y-6190960D02*
X5391967Y-6181436D01*
X5391967Y-6181436D02*
X5382444Y-6162388D01*
X5382444Y-6162388D02*
X5372920Y-6124293D01*
X5372920Y-6124293D02*
X5372920Y-6076674D01*
X5372920Y-6076674D02*
X5382444Y-6038579D01*
X5382444Y-6038579D02*
X5391967Y-6019531D01*
X5391967Y-6019531D02*
X5401491Y-6010008D01*
X5401491Y-6010008D02*
X5420539Y-6000484D01*
X5572920Y-6200484D02*
X5572920Y-6067150D01*
X5572920Y-6086198D02*
X5582444Y-6076674D01*
X5582444Y-6076674D02*
X5601491Y-6067150D01*
X5601491Y-6067150D02*
X5630063Y-6067150D01*
X5630063Y-6067150D02*
X5649110Y-6076674D01*
X5649110Y-6076674D02*
X5658634Y-6095722D01*
X5658634Y-6095722D02*
X5658634Y-6200484D01*
X5658634Y-6095722D02*
X5668158Y-6076674D01*
X5668158Y-6076674D02*
X5687205Y-6067150D01*
X5687205Y-6067150D02*
X5715777Y-6067150D01*
X5715777Y-6067150D02*
X5734824Y-6076674D01*
X5734824Y-6076674D02*
X5744348Y-6095722D01*
X5744348Y-6095722D02*
X5744348Y-6200484D01*
X5839586Y-6200484D02*
X5839586Y-6067150D01*
X5839586Y-6086198D02*
X5849110Y-6076674D01*
X5849110Y-6076674D02*
X5868158Y-6067150D01*
X5868158Y-6067150D02*
X5896729Y-6067150D01*
X5896729Y-6067150D02*
X5915777Y-6076674D01*
X5915777Y-6076674D02*
X5925301Y-6095722D01*
X5925301Y-6095722D02*
X5925301Y-6200484D01*
X5925301Y-6095722D02*
X5934824Y-6076674D01*
X5934824Y-6076674D02*
X5953872Y-6067150D01*
X5953872Y-6067150D02*
X5982443Y-6067150D01*
X5982443Y-6067150D02*
X6001491Y-6076674D01*
X6001491Y-6076674D02*
X6011015Y-6095722D01*
X6011015Y-6095722D02*
X6011015Y-6200484D01*
X6401491Y-5990960D02*
X6230063Y-6248103D01*
X6658634Y-6000484D02*
X6677682Y-6000484D01*
X6677682Y-6000484D02*
X6696729Y-6010008D01*
X6696729Y-6010008D02*
X6706253Y-6019531D01*
X6706253Y-6019531D02*
X6715777Y-6038579D01*
X6715777Y-6038579D02*
X6725301Y-6076674D01*
X6725301Y-6076674D02*
X6725301Y-6124293D01*
X6725301Y-6124293D02*
X6715777Y-6162388D01*
X6715777Y-6162388D02*
X6706253Y-6181436D01*
X6706253Y-6181436D02*
X6696729Y-6190960D01*
X6696729Y-6190960D02*
X6677682Y-6200484D01*
X6677682Y-6200484D02*
X6658634Y-6200484D01*
X6658634Y-6200484D02*
X6639586Y-6190960D01*
X6639586Y-6190960D02*
X6630063Y-6181436D01*
X6630063Y-6181436D02*
X6620539Y-6162388D01*
X6620539Y-6162388D02*
X6611015Y-6124293D01*
X6611015Y-6124293D02*
X6611015Y-6076674D01*
X6611015Y-6076674D02*
X6620539Y-6038579D01*
X6620539Y-6038579D02*
X6630063Y-6019531D01*
X6630063Y-6019531D02*
X6639586Y-6010008D01*
X6639586Y-6010008D02*
X6658634Y-6000484D01*
X6811015Y-6181436D02*
X6820539Y-6190960D01*
X6820539Y-6190960D02*
X6811015Y-6200484D01*
X6811015Y-6200484D02*
X6801491Y-6190960D01*
X6801491Y-6190960D02*
X6811015Y-6181436D01*
X6811015Y-6181436D02*
X6811015Y-6200484D01*
X6944348Y-6000484D02*
X6963396Y-6000484D01*
X6963396Y-6000484D02*
X6982444Y-6010008D01*
X6982444Y-6010008D02*
X6991967Y-6019531D01*
X6991967Y-6019531D02*
X7001491Y-6038579D01*
X7001491Y-6038579D02*
X7011015Y-6076674D01*
X7011015Y-6076674D02*
X7011015Y-6124293D01*
X7011015Y-6124293D02*
X7001491Y-6162388D01*
X7001491Y-6162388D02*
X6991967Y-6181436D01*
X6991967Y-6181436D02*
X6982444Y-6190960D01*
X6982444Y-6190960D02*
X6963396Y-6200484D01*
X6963396Y-6200484D02*
X6944348Y-6200484D01*
X6944348Y-6200484D02*
X6925301Y-6190960D01*
X6925301Y-6190960D02*
X6915777Y-6181436D01*
X6915777Y-6181436D02*
X6906253Y-6162388D01*
X6906253Y-6162388D02*
X6896729Y-6124293D01*
X6896729Y-6124293D02*
X6896729Y-6076674D01*
X6896729Y-6076674D02*
X6906253Y-6038579D01*
X6906253Y-6038579D02*
X6915777Y-6019531D01*
X6915777Y-6019531D02*
X6925301Y-6010008D01*
X6925301Y-6010008D02*
X6944348Y-6000484D01*
X7077682Y-6000484D02*
X7201491Y-6000484D01*
X7201491Y-6000484D02*
X7134825Y-6076674D01*
X7134825Y-6076674D02*
X7163396Y-6076674D01*
X7163396Y-6076674D02*
X7182444Y-6086198D01*
X7182444Y-6086198D02*
X7191967Y-6095722D01*
X7191967Y-6095722D02*
X7201491Y-6114769D01*
X7201491Y-6114769D02*
X7201491Y-6162388D01*
X7201491Y-6162388D02*
X7191967Y-6181436D01*
X7191967Y-6181436D02*
X7182444Y-6190960D01*
X7182444Y-6190960D02*
X7163396Y-6200484D01*
X7163396Y-6200484D02*
X7106253Y-6200484D01*
X7106253Y-6200484D02*
X7087206Y-6190960D01*
X7087206Y-6190960D02*
X7077682Y-6181436D01*
X7391967Y-6200484D02*
X7277682Y-6200484D01*
X7334825Y-6200484D02*
X7334825Y-6000484D01*
X7334825Y-6000484D02*
X7315777Y-6029055D01*
X7315777Y-6029055D02*
X7296729Y-6048103D01*
X7296729Y-6048103D02*
X7277682Y-6057627D01*
X7572920Y-6000484D02*
X7477682Y-6000484D01*
X7477682Y-6000484D02*
X7468158Y-6095722D01*
X7468158Y-6095722D02*
X7477682Y-6086198D01*
X7477682Y-6086198D02*
X7496729Y-6076674D01*
X7496729Y-6076674D02*
X7544348Y-6076674D01*
X7544348Y-6076674D02*
X7563396Y-6086198D01*
X7563396Y-6086198D02*
X7572920Y-6095722D01*
X7572920Y-6095722D02*
X7582444Y-6114769D01*
X7582444Y-6114769D02*
X7582444Y-6162388D01*
X7582444Y-6162388D02*
X7572920Y-6181436D01*
X7572920Y-6181436D02*
X7563396Y-6190960D01*
X7563396Y-6190960D02*
X7544348Y-6200484D01*
X7544348Y-6200484D02*
X7496729Y-6200484D01*
X7496729Y-6200484D02*
X7477682Y-6190960D01*
X7477682Y-6190960D02*
X7468158Y-6181436D01*
X7658634Y-6000484D02*
X7658634Y-6038579D01*
X7734825Y-6000484D02*
X7734825Y-6038579D01*
X8030063Y-6276674D02*
X8020539Y-6267150D01*
X8020539Y-6267150D02*
X8001491Y-6238579D01*
X8001491Y-6238579D02*
X7991968Y-6219531D01*
X7991968Y-6219531D02*
X7982444Y-6190960D01*
X7982444Y-6190960D02*
X7972920Y-6143341D01*
X7972920Y-6143341D02*
X7972920Y-6105246D01*
X7972920Y-6105246D02*
X7982444Y-6057627D01*
X7982444Y-6057627D02*
X7991968Y-6029055D01*
X7991968Y-6029055D02*
X8001491Y-6010008D01*
X8001491Y-6010008D02*
X8020539Y-5981436D01*
X8020539Y-5981436D02*
X8030063Y-5971912D01*
X8191968Y-6000484D02*
X8153872Y-6000484D01*
X8153872Y-6000484D02*
X8134825Y-6010008D01*
X8134825Y-6010008D02*
X8125301Y-6019531D01*
X8125301Y-6019531D02*
X8106253Y-6048103D01*
X8106253Y-6048103D02*
X8096729Y-6086198D01*
X8096729Y-6086198D02*
X8096729Y-6162388D01*
X8096729Y-6162388D02*
X8106253Y-6181436D01*
X8106253Y-6181436D02*
X8115777Y-6190960D01*
X8115777Y-6190960D02*
X8134825Y-6200484D01*
X8134825Y-6200484D02*
X8172920Y-6200484D01*
X8172920Y-6200484D02*
X8191968Y-6190960D01*
X8191968Y-6190960D02*
X8201491Y-6181436D01*
X8201491Y-6181436D02*
X8211015Y-6162388D01*
X8211015Y-6162388D02*
X8211015Y-6114769D01*
X8211015Y-6114769D02*
X8201491Y-6095722D01*
X8201491Y-6095722D02*
X8191968Y-6086198D01*
X8191968Y-6086198D02*
X8172920Y-6076674D01*
X8172920Y-6076674D02*
X8134825Y-6076674D01*
X8134825Y-6076674D02*
X8115777Y-6086198D01*
X8115777Y-6086198D02*
X8106253Y-6095722D01*
X8106253Y-6095722D02*
X8096729Y-6114769D01*
X8449111Y-6200484D02*
X8449111Y-6000484D01*
X8534825Y-6200484D02*
X8534825Y-6095722D01*
X8534825Y-6095722D02*
X8525301Y-6076674D01*
X8525301Y-6076674D02*
X8506253Y-6067150D01*
X8506253Y-6067150D02*
X8477682Y-6067150D01*
X8477682Y-6067150D02*
X8458634Y-6076674D01*
X8458634Y-6076674D02*
X8449111Y-6086198D01*
X8658634Y-6200484D02*
X8639587Y-6190960D01*
X8639587Y-6190960D02*
X8630063Y-6181436D01*
X8630063Y-6181436D02*
X8620539Y-6162388D01*
X8620539Y-6162388D02*
X8620539Y-6105246D01*
X8620539Y-6105246D02*
X8630063Y-6086198D01*
X8630063Y-6086198D02*
X8639587Y-6076674D01*
X8639587Y-6076674D02*
X8658634Y-6067150D01*
X8658634Y-6067150D02*
X8687206Y-6067150D01*
X8687206Y-6067150D02*
X8706253Y-6076674D01*
X8706253Y-6076674D02*
X8715777Y-6086198D01*
X8715777Y-6086198D02*
X8725301Y-6105246D01*
X8725301Y-6105246D02*
X8725301Y-6162388D01*
X8725301Y-6162388D02*
X8715777Y-6181436D01*
X8715777Y-6181436D02*
X8706253Y-6190960D01*
X8706253Y-6190960D02*
X8687206Y-6200484D01*
X8687206Y-6200484D02*
X8658634Y-6200484D01*
X8839587Y-6200484D02*
X8820539Y-6190960D01*
X8820539Y-6190960D02*
X8811015Y-6171912D01*
X8811015Y-6171912D02*
X8811015Y-6000484D01*
X8991968Y-6190960D02*
X8972920Y-6200484D01*
X8972920Y-6200484D02*
X8934825Y-6200484D01*
X8934825Y-6200484D02*
X8915777Y-6190960D01*
X8915777Y-6190960D02*
X8906253Y-6171912D01*
X8906253Y-6171912D02*
X8906253Y-6095722D01*
X8906253Y-6095722D02*
X8915777Y-6076674D01*
X8915777Y-6076674D02*
X8934825Y-6067150D01*
X8934825Y-6067150D02*
X8972920Y-6067150D01*
X8972920Y-6067150D02*
X8991968Y-6076674D01*
X8991968Y-6076674D02*
X9001492Y-6095722D01*
X9001492Y-6095722D02*
X9001492Y-6114769D01*
X9001492Y-6114769D02*
X8906253Y-6133817D01*
X9077682Y-6190960D02*
X9096730Y-6200484D01*
X9096730Y-6200484D02*
X9134825Y-6200484D01*
X9134825Y-6200484D02*
X9153873Y-6190960D01*
X9153873Y-6190960D02*
X9163396Y-6171912D01*
X9163396Y-6171912D02*
X9163396Y-6162388D01*
X9163396Y-6162388D02*
X9153873Y-6143341D01*
X9153873Y-6143341D02*
X9134825Y-6133817D01*
X9134825Y-6133817D02*
X9106253Y-6133817D01*
X9106253Y-6133817D02*
X9087206Y-6124293D01*
X9087206Y-6124293D02*
X9077682Y-6105246D01*
X9077682Y-6105246D02*
X9077682Y-6095722D01*
X9077682Y-6095722D02*
X9087206Y-6076674D01*
X9087206Y-6076674D02*
X9106253Y-6067150D01*
X9106253Y-6067150D02*
X9134825Y-6067150D01*
X9134825Y-6067150D02*
X9153873Y-6076674D01*
X9230063Y-6276674D02*
X9239587Y-6267150D01*
X9239587Y-6267150D02*
X9258634Y-6238579D01*
X9258634Y-6238579D02*
X9268158Y-6219531D01*
X9268158Y-6219531D02*
X9277682Y-6190960D01*
X9277682Y-6190960D02*
X9287206Y-6143341D01*
X9287206Y-6143341D02*
X9287206Y-6105246D01*
X9287206Y-6105246D02*
X9277682Y-6057627D01*
X9277682Y-6057627D02*
X9268158Y-6029055D01*
X9268158Y-6029055D02*
X9258634Y-6010008D01*
X9258634Y-6010008D02*
X9239587Y-5981436D01*
X9239587Y-5981436D02*
X9230063Y-5971912D01*
D10*
X4405000Y-6323000D02*
X4405000Y-6423000D01*
X4355000Y-6373000D02*
X4455000Y-6373000D01*
D11*
X4820539Y-6464484D02*
X4706253Y-6464484D01*
X4763396Y-6464484D02*
X4763396Y-6264484D01*
X4763396Y-6264484D02*
X4744348Y-6293055D01*
X4744348Y-6293055D02*
X4725301Y-6312103D01*
X4725301Y-6312103D02*
X4706253Y-6321627D01*
X4906253Y-6445436D02*
X4915777Y-6454960D01*
X4915777Y-6454960D02*
X4906253Y-6464484D01*
X4906253Y-6464484D02*
X4896729Y-6454960D01*
X4896729Y-6454960D02*
X4906253Y-6445436D01*
X4906253Y-6445436D02*
X4906253Y-6464484D01*
X5039586Y-6264484D02*
X5058634Y-6264484D01*
X5058634Y-6264484D02*
X5077682Y-6274008D01*
X5077682Y-6274008D02*
X5087205Y-6283531D01*
X5087205Y-6283531D02*
X5096729Y-6302579D01*
X5096729Y-6302579D02*
X5106253Y-6340674D01*
X5106253Y-6340674D02*
X5106253Y-6388293D01*
X5106253Y-6388293D02*
X5096729Y-6426388D01*
X5096729Y-6426388D02*
X5087205Y-6445436D01*
X5087205Y-6445436D02*
X5077682Y-6454960D01*
X5077682Y-6454960D02*
X5058634Y-6464484D01*
X5058634Y-6464484D02*
X5039586Y-6464484D01*
X5039586Y-6464484D02*
X5020539Y-6454960D01*
X5020539Y-6454960D02*
X5011015Y-6445436D01*
X5011015Y-6445436D02*
X5001491Y-6426388D01*
X5001491Y-6426388D02*
X4991967Y-6388293D01*
X4991967Y-6388293D02*
X4991967Y-6340674D01*
X4991967Y-6340674D02*
X5001491Y-6302579D01*
X5001491Y-6302579D02*
X5011015Y-6283531D01*
X5011015Y-6283531D02*
X5020539Y-6274008D01*
X5020539Y-6274008D02*
X5039586Y-6264484D01*
X5230063Y-6264484D02*
X5249110Y-6264484D01*
X5249110Y-6264484D02*
X5268158Y-6274008D01*
X5268158Y-6274008D02*
X5277682Y-6283531D01*
X5277682Y-6283531D02*
X5287205Y-6302579D01*
X5287205Y-6302579D02*
X5296729Y-6340674D01*
X5296729Y-6340674D02*
X5296729Y-6388293D01*
X5296729Y-6388293D02*
X5287205Y-6426388D01*
X5287205Y-6426388D02*
X5277682Y-6445436D01*
X5277682Y-6445436D02*
X5268158Y-6454960D01*
X5268158Y-6454960D02*
X5249110Y-6464484D01*
X5249110Y-6464484D02*
X5230063Y-6464484D01*
X5230063Y-6464484D02*
X5211015Y-6454960D01*
X5211015Y-6454960D02*
X5201491Y-6445436D01*
X5201491Y-6445436D02*
X5191967Y-6426388D01*
X5191967Y-6426388D02*
X5182444Y-6388293D01*
X5182444Y-6388293D02*
X5182444Y-6340674D01*
X5182444Y-6340674D02*
X5191967Y-6302579D01*
X5191967Y-6302579D02*
X5201491Y-6283531D01*
X5201491Y-6283531D02*
X5211015Y-6274008D01*
X5211015Y-6274008D02*
X5230063Y-6264484D01*
X5420539Y-6264484D02*
X5439586Y-6264484D01*
X5439586Y-6264484D02*
X5458634Y-6274008D01*
X5458634Y-6274008D02*
X5468158Y-6283531D01*
X5468158Y-6283531D02*
X5477682Y-6302579D01*
X5477682Y-6302579D02*
X5487205Y-6340674D01*
X5487205Y-6340674D02*
X5487205Y-6388293D01*
X5487205Y-6388293D02*
X5477682Y-6426388D01*
X5477682Y-6426388D02*
X5468158Y-6445436D01*
X5468158Y-6445436D02*
X5458634Y-6454960D01*
X5458634Y-6454960D02*
X5439586Y-6464484D01*
X5439586Y-6464484D02*
X5420539Y-6464484D01*
X5420539Y-6464484D02*
X5401491Y-6454960D01*
X5401491Y-6454960D02*
X5391967Y-6445436D01*
X5391967Y-6445436D02*
X5382444Y-6426388D01*
X5382444Y-6426388D02*
X5372920Y-6388293D01*
X5372920Y-6388293D02*
X5372920Y-6340674D01*
X5372920Y-6340674D02*
X5382444Y-6302579D01*
X5382444Y-6302579D02*
X5391967Y-6283531D01*
X5391967Y-6283531D02*
X5401491Y-6274008D01*
X5401491Y-6274008D02*
X5420539Y-6264484D01*
X5572920Y-6464484D02*
X5572920Y-6331150D01*
X5572920Y-6350198D02*
X5582444Y-6340674D01*
X5582444Y-6340674D02*
X5601491Y-6331150D01*
X5601491Y-6331150D02*
X5630063Y-6331150D01*
X5630063Y-6331150D02*
X5649110Y-6340674D01*
X5649110Y-6340674D02*
X5658634Y-6359722D01*
X5658634Y-6359722D02*
X5658634Y-6464484D01*
X5658634Y-6359722D02*
X5668158Y-6340674D01*
X5668158Y-6340674D02*
X5687205Y-6331150D01*
X5687205Y-6331150D02*
X5715777Y-6331150D01*
X5715777Y-6331150D02*
X5734824Y-6340674D01*
X5734824Y-6340674D02*
X5744348Y-6359722D01*
X5744348Y-6359722D02*
X5744348Y-6464484D01*
X5839586Y-6464484D02*
X5839586Y-6331150D01*
X5839586Y-6350198D02*
X5849110Y-6340674D01*
X5849110Y-6340674D02*
X5868158Y-6331150D01*
X5868158Y-6331150D02*
X5896729Y-6331150D01*
X5896729Y-6331150D02*
X5915777Y-6340674D01*
X5915777Y-6340674D02*
X5925301Y-6359722D01*
X5925301Y-6359722D02*
X5925301Y-6464484D01*
X5925301Y-6359722D02*
X5934824Y-6340674D01*
X5934824Y-6340674D02*
X5953872Y-6331150D01*
X5953872Y-6331150D02*
X5982443Y-6331150D01*
X5982443Y-6331150D02*
X6001491Y-6340674D01*
X6001491Y-6340674D02*
X6011015Y-6359722D01*
X6011015Y-6359722D02*
X6011015Y-6464484D01*
X6401491Y-6254960D02*
X6230063Y-6512103D01*
X6658634Y-6264484D02*
X6677682Y-6264484D01*
X6677682Y-6264484D02*
X6696729Y-6274008D01*
X6696729Y-6274008D02*
X6706253Y-6283531D01*
X6706253Y-6283531D02*
X6715777Y-6302579D01*
X6715777Y-6302579D02*
X6725301Y-6340674D01*
X6725301Y-6340674D02*
X6725301Y-6388293D01*
X6725301Y-6388293D02*
X6715777Y-6426388D01*
X6715777Y-6426388D02*
X6706253Y-6445436D01*
X6706253Y-6445436D02*
X6696729Y-6454960D01*
X6696729Y-6454960D02*
X6677682Y-6464484D01*
X6677682Y-6464484D02*
X6658634Y-6464484D01*
X6658634Y-6464484D02*
X6639586Y-6454960D01*
X6639586Y-6454960D02*
X6630063Y-6445436D01*
X6630063Y-6445436D02*
X6620539Y-6426388D01*
X6620539Y-6426388D02*
X6611015Y-6388293D01*
X6611015Y-6388293D02*
X6611015Y-6340674D01*
X6611015Y-6340674D02*
X6620539Y-6302579D01*
X6620539Y-6302579D02*
X6630063Y-6283531D01*
X6630063Y-6283531D02*
X6639586Y-6274008D01*
X6639586Y-6274008D02*
X6658634Y-6264484D01*
X6811015Y-6445436D02*
X6820539Y-6454960D01*
X6820539Y-6454960D02*
X6811015Y-6464484D01*
X6811015Y-6464484D02*
X6801491Y-6454960D01*
X6801491Y-6454960D02*
X6811015Y-6445436D01*
X6811015Y-6445436D02*
X6811015Y-6464484D01*
X6944348Y-6264484D02*
X6963396Y-6264484D01*
X6963396Y-6264484D02*
X6982444Y-6274008D01*
X6982444Y-6274008D02*
X6991967Y-6283531D01*
X6991967Y-6283531D02*
X7001491Y-6302579D01*
X7001491Y-6302579D02*
X7011015Y-6340674D01*
X7011015Y-6340674D02*
X7011015Y-6388293D01*
X7011015Y-6388293D02*
X7001491Y-6426388D01*
X7001491Y-6426388D02*
X6991967Y-6445436D01*
X6991967Y-6445436D02*
X6982444Y-6454960D01*
X6982444Y-6454960D02*
X6963396Y-6464484D01*
X6963396Y-6464484D02*
X6944348Y-6464484D01*
X6944348Y-6464484D02*
X6925301Y-6454960D01*
X6925301Y-6454960D02*
X6915777Y-6445436D01*
X6915777Y-6445436D02*
X6906253Y-6426388D01*
X6906253Y-6426388D02*
X6896729Y-6388293D01*
X6896729Y-6388293D02*
X6896729Y-6340674D01*
X6896729Y-6340674D02*
X6906253Y-6302579D01*
X6906253Y-6302579D02*
X6915777Y-6283531D01*
X6915777Y-6283531D02*
X6925301Y-6274008D01*
X6925301Y-6274008D02*
X6944348Y-6264484D01*
X7077682Y-6264484D02*
X7201491Y-6264484D01*
X7201491Y-6264484D02*
X7134825Y-6340674D01*
X7134825Y-6340674D02*
X7163396Y-6340674D01*
X7163396Y-6340674D02*
X7182444Y-6350198D01*
X7182444Y-6350198D02*
X7191967Y-6359722D01*
X7191967Y-6359722D02*
X7201491Y-6378769D01*
X7201491Y-6378769D02*
X7201491Y-6426388D01*
X7201491Y-6426388D02*
X7191967Y-6445436D01*
X7191967Y-6445436D02*
X7182444Y-6454960D01*
X7182444Y-6454960D02*
X7163396Y-6464484D01*
X7163396Y-6464484D02*
X7106253Y-6464484D01*
X7106253Y-6464484D02*
X7087206Y-6454960D01*
X7087206Y-6454960D02*
X7077682Y-6445436D01*
X7296729Y-6464484D02*
X7334825Y-6464484D01*
X7334825Y-6464484D02*
X7353872Y-6454960D01*
X7353872Y-6454960D02*
X7363396Y-6445436D01*
X7363396Y-6445436D02*
X7382444Y-6416865D01*
X7382444Y-6416865D02*
X7391967Y-6378769D01*
X7391967Y-6378769D02*
X7391967Y-6302579D01*
X7391967Y-6302579D02*
X7382444Y-6283531D01*
X7382444Y-6283531D02*
X7372920Y-6274008D01*
X7372920Y-6274008D02*
X7353872Y-6264484D01*
X7353872Y-6264484D02*
X7315777Y-6264484D01*
X7315777Y-6264484D02*
X7296729Y-6274008D01*
X7296729Y-6274008D02*
X7287206Y-6283531D01*
X7287206Y-6283531D02*
X7277682Y-6302579D01*
X7277682Y-6302579D02*
X7277682Y-6350198D01*
X7277682Y-6350198D02*
X7287206Y-6369246D01*
X7287206Y-6369246D02*
X7296729Y-6378769D01*
X7296729Y-6378769D02*
X7315777Y-6388293D01*
X7315777Y-6388293D02*
X7353872Y-6388293D01*
X7353872Y-6388293D02*
X7372920Y-6378769D01*
X7372920Y-6378769D02*
X7382444Y-6369246D01*
X7382444Y-6369246D02*
X7391967Y-6350198D01*
X7563396Y-6331150D02*
X7563396Y-6464484D01*
X7515777Y-6254960D02*
X7468158Y-6397817D01*
X7468158Y-6397817D02*
X7591967Y-6397817D01*
X7658634Y-6264484D02*
X7658634Y-6302579D01*
X7734825Y-6264484D02*
X7734825Y-6302579D01*
X8030063Y-6540674D02*
X8020539Y-6531150D01*
X8020539Y-6531150D02*
X8001491Y-6502579D01*
X8001491Y-6502579D02*
X7991968Y-6483531D01*
X7991968Y-6483531D02*
X7982444Y-6454960D01*
X7982444Y-6454960D02*
X7972920Y-6407341D01*
X7972920Y-6407341D02*
X7972920Y-6369246D01*
X7972920Y-6369246D02*
X7982444Y-6321627D01*
X7982444Y-6321627D02*
X7991968Y-6293055D01*
X7991968Y-6293055D02*
X8001491Y-6274008D01*
X8001491Y-6274008D02*
X8020539Y-6245436D01*
X8020539Y-6245436D02*
X8030063Y-6235912D01*
X8201491Y-6264484D02*
X8106253Y-6264484D01*
X8106253Y-6264484D02*
X8096729Y-6359722D01*
X8096729Y-6359722D02*
X8106253Y-6350198D01*
X8106253Y-6350198D02*
X8125301Y-6340674D01*
X8125301Y-6340674D02*
X8172920Y-6340674D01*
X8172920Y-6340674D02*
X8191968Y-6350198D01*
X8191968Y-6350198D02*
X8201491Y-6359722D01*
X8201491Y-6359722D02*
X8211015Y-6378769D01*
X8211015Y-6378769D02*
X8211015Y-6426388D01*
X8211015Y-6426388D02*
X8201491Y-6445436D01*
X8201491Y-6445436D02*
X8191968Y-6454960D01*
X8191968Y-6454960D02*
X8172920Y-6464484D01*
X8172920Y-6464484D02*
X8125301Y-6464484D01*
X8125301Y-6464484D02*
X8106253Y-6454960D01*
X8106253Y-6454960D02*
X8096729Y-6445436D01*
X8449111Y-6464484D02*
X8449111Y-6264484D01*
X8534825Y-6464484D02*
X8534825Y-6359722D01*
X8534825Y-6359722D02*
X8525301Y-6340674D01*
X8525301Y-6340674D02*
X8506253Y-6331150D01*
X8506253Y-6331150D02*
X8477682Y-6331150D01*
X8477682Y-6331150D02*
X8458634Y-6340674D01*
X8458634Y-6340674D02*
X8449111Y-6350198D01*
X8658634Y-6464484D02*
X8639587Y-6454960D01*
X8639587Y-6454960D02*
X8630063Y-6445436D01*
X8630063Y-6445436D02*
X8620539Y-6426388D01*
X8620539Y-6426388D02*
X8620539Y-6369246D01*
X8620539Y-6369246D02*
X8630063Y-6350198D01*
X8630063Y-6350198D02*
X8639587Y-6340674D01*
X8639587Y-6340674D02*
X8658634Y-6331150D01*
X8658634Y-6331150D02*
X8687206Y-6331150D01*
X8687206Y-6331150D02*
X8706253Y-6340674D01*
X8706253Y-6340674D02*
X8715777Y-6350198D01*
X8715777Y-6350198D02*
X8725301Y-6369246D01*
X8725301Y-6369246D02*
X8725301Y-6426388D01*
X8725301Y-6426388D02*
X8715777Y-6445436D01*
X8715777Y-6445436D02*
X8706253Y-6454960D01*
X8706253Y-6454960D02*
X8687206Y-6464484D01*
X8687206Y-6464484D02*
X8658634Y-6464484D01*
X8839587Y-6464484D02*
X8820539Y-6454960D01*
X8820539Y-6454960D02*
X8811015Y-6435912D01*
X8811015Y-6435912D02*
X8811015Y-6264484D01*
X8991968Y-6454960D02*
X8972920Y-6464484D01*
X8972920Y-6464484D02*
X8934825Y-6464484D01*
X8934825Y-6464484D02*
X8915777Y-6454960D01*
X8915777Y-6454960D02*
X8906253Y-6435912D01*
X8906253Y-6435912D02*
X8906253Y-6359722D01*
X8906253Y-6359722D02*
X8915777Y-6340674D01*
X8915777Y-6340674D02*
X8934825Y-6331150D01*
X8934825Y-6331150D02*
X8972920Y-6331150D01*
X8972920Y-6331150D02*
X8991968Y-6340674D01*
X8991968Y-6340674D02*
X9001492Y-6359722D01*
X9001492Y-6359722D02*
X9001492Y-6378769D01*
X9001492Y-6378769D02*
X8906253Y-6397817D01*
X9077682Y-6454960D02*
X9096730Y-6464484D01*
X9096730Y-6464484D02*
X9134825Y-6464484D01*
X9134825Y-6464484D02*
X9153873Y-6454960D01*
X9153873Y-6454960D02*
X9163396Y-6435912D01*
X9163396Y-6435912D02*
X9163396Y-6426388D01*
X9163396Y-6426388D02*
X9153873Y-6407341D01*
X9153873Y-6407341D02*
X9134825Y-6397817D01*
X9134825Y-6397817D02*
X9106253Y-6397817D01*
X9106253Y-6397817D02*
X9087206Y-6388293D01*
X9087206Y-6388293D02*
X9077682Y-6369246D01*
X9077682Y-6369246D02*
X9077682Y-6359722D01*
X9077682Y-6359722D02*
X9087206Y-6340674D01*
X9087206Y-6340674D02*
X9106253Y-6331150D01*
X9106253Y-6331150D02*
X9134825Y-6331150D01*
X9134825Y-6331150D02*
X9153873Y-6340674D01*
X9230063Y-6540674D02*
X9239587Y-6531150D01*
X9239587Y-6531150D02*
X9258634Y-6502579D01*
X9258634Y-6502579D02*
X9268158Y-6483531D01*
X9268158Y-6483531D02*
X9277682Y-6454960D01*
X9277682Y-6454960D02*
X9287206Y-6407341D01*
X9287206Y-6407341D02*
X9287206Y-6369246D01*
X9287206Y-6369246D02*
X9277682Y-6321627D01*
X9277682Y-6321627D02*
X9268158Y-6293055D01*
X9268158Y-6293055D02*
X9258634Y-6274008D01*
X9258634Y-6274008D02*
X9239587Y-6245436D01*
X9239587Y-6245436D02*
X9230063Y-6235912D01*
X4425711Y-6707711D02*
X4425711Y-6566289D01*
X4284289Y-6566289D01*
X4284289Y-6707711D01*
X4425711Y-6707711D01*
X4706253Y-6547531D02*
X4715777Y-6538008D01*
X4715777Y-6538008D02*
X4734824Y-6528484D01*
X4734824Y-6528484D02*
X4782444Y-6528484D01*
X4782444Y-6528484D02*
X4801491Y-6538008D01*
X4801491Y-6538008D02*
X4811015Y-6547531D01*
X4811015Y-6547531D02*
X4820539Y-6566579D01*
X4820539Y-6566579D02*
X4820539Y-6585627D01*
X4820539Y-6585627D02*
X4811015Y-6614198D01*
X4811015Y-6614198D02*
X4696729Y-6728484D01*
X4696729Y-6728484D02*
X4820539Y-6728484D01*
X4906253Y-6709436D02*
X4915777Y-6718960D01*
X4915777Y-6718960D02*
X4906253Y-6728484D01*
X4906253Y-6728484D02*
X4896729Y-6718960D01*
X4896729Y-6718960D02*
X4906253Y-6709436D01*
X4906253Y-6709436D02*
X4906253Y-6728484D01*
X4982444Y-6528484D02*
X5115777Y-6528484D01*
X5115777Y-6528484D02*
X5030063Y-6728484D01*
X5230063Y-6528484D02*
X5249110Y-6528484D01*
X5249110Y-6528484D02*
X5268158Y-6538008D01*
X5268158Y-6538008D02*
X5277682Y-6547531D01*
X5277682Y-6547531D02*
X5287205Y-6566579D01*
X5287205Y-6566579D02*
X5296729Y-6604674D01*
X5296729Y-6604674D02*
X5296729Y-6652293D01*
X5296729Y-6652293D02*
X5287205Y-6690388D01*
X5287205Y-6690388D02*
X5277682Y-6709436D01*
X5277682Y-6709436D02*
X5268158Y-6718960D01*
X5268158Y-6718960D02*
X5249110Y-6728484D01*
X5249110Y-6728484D02*
X5230063Y-6728484D01*
X5230063Y-6728484D02*
X5211015Y-6718960D01*
X5211015Y-6718960D02*
X5201491Y-6709436D01*
X5201491Y-6709436D02*
X5191967Y-6690388D01*
X5191967Y-6690388D02*
X5182444Y-6652293D01*
X5182444Y-6652293D02*
X5182444Y-6604674D01*
X5182444Y-6604674D02*
X5191967Y-6566579D01*
X5191967Y-6566579D02*
X5201491Y-6547531D01*
X5201491Y-6547531D02*
X5211015Y-6538008D01*
X5211015Y-6538008D02*
X5230063Y-6528484D01*
X5420539Y-6528484D02*
X5439586Y-6528484D01*
X5439586Y-6528484D02*
X5458634Y-6538008D01*
X5458634Y-6538008D02*
X5468158Y-6547531D01*
X5468158Y-6547531D02*
X5477682Y-6566579D01*
X5477682Y-6566579D02*
X5487205Y-6604674D01*
X5487205Y-6604674D02*
X5487205Y-6652293D01*
X5487205Y-6652293D02*
X5477682Y-6690388D01*
X5477682Y-6690388D02*
X5468158Y-6709436D01*
X5468158Y-6709436D02*
X5458634Y-6718960D01*
X5458634Y-6718960D02*
X5439586Y-6728484D01*
X5439586Y-6728484D02*
X5420539Y-6728484D01*
X5420539Y-6728484D02*
X5401491Y-6718960D01*
X5401491Y-6718960D02*
X5391967Y-6709436D01*
X5391967Y-6709436D02*
X5382444Y-6690388D01*
X5382444Y-6690388D02*
X5372920Y-6652293D01*
X5372920Y-6652293D02*
X5372920Y-6604674D01*
X5372920Y-6604674D02*
X5382444Y-6566579D01*
X5382444Y-6566579D02*
X5391967Y-6547531D01*
X5391967Y-6547531D02*
X5401491Y-6538008D01*
X5401491Y-6538008D02*
X5420539Y-6528484D01*
X5572920Y-6728484D02*
X5572920Y-6595150D01*
X5572920Y-6614198D02*
X5582444Y-6604674D01*
X5582444Y-6604674D02*
X5601491Y-6595150D01*
X5601491Y-6595150D02*
X5630063Y-6595150D01*
X5630063Y-6595150D02*
X5649110Y-6604674D01*
X5649110Y-6604674D02*
X5658634Y-6623722D01*
X5658634Y-6623722D02*
X5658634Y-6728484D01*
X5658634Y-6623722D02*
X5668158Y-6604674D01*
X5668158Y-6604674D02*
X5687205Y-6595150D01*
X5687205Y-6595150D02*
X5715777Y-6595150D01*
X5715777Y-6595150D02*
X5734824Y-6604674D01*
X5734824Y-6604674D02*
X5744348Y-6623722D01*
X5744348Y-6623722D02*
X5744348Y-6728484D01*
X5839586Y-6728484D02*
X5839586Y-6595150D01*
X5839586Y-6614198D02*
X5849110Y-6604674D01*
X5849110Y-6604674D02*
X5868158Y-6595150D01*
X5868158Y-6595150D02*
X5896729Y-6595150D01*
X5896729Y-6595150D02*
X5915777Y-6604674D01*
X5915777Y-6604674D02*
X5925301Y-6623722D01*
X5925301Y-6623722D02*
X5925301Y-6728484D01*
X5925301Y-6623722D02*
X5934824Y-6604674D01*
X5934824Y-6604674D02*
X5953872Y-6595150D01*
X5953872Y-6595150D02*
X5982443Y-6595150D01*
X5982443Y-6595150D02*
X6001491Y-6604674D01*
X6001491Y-6604674D02*
X6011015Y-6623722D01*
X6011015Y-6623722D02*
X6011015Y-6728484D01*
X6401491Y-6518960D02*
X6230063Y-6776103D01*
X6658634Y-6528484D02*
X6677682Y-6528484D01*
X6677682Y-6528484D02*
X6696729Y-6538008D01*
X6696729Y-6538008D02*
X6706253Y-6547531D01*
X6706253Y-6547531D02*
X6715777Y-6566579D01*
X6715777Y-6566579D02*
X6725301Y-6604674D01*
X6725301Y-6604674D02*
X6725301Y-6652293D01*
X6725301Y-6652293D02*
X6715777Y-6690388D01*
X6715777Y-6690388D02*
X6706253Y-6709436D01*
X6706253Y-6709436D02*
X6696729Y-6718960D01*
X6696729Y-6718960D02*
X6677682Y-6728484D01*
X6677682Y-6728484D02*
X6658634Y-6728484D01*
X6658634Y-6728484D02*
X6639586Y-6718960D01*
X6639586Y-6718960D02*
X6630063Y-6709436D01*
X6630063Y-6709436D02*
X6620539Y-6690388D01*
X6620539Y-6690388D02*
X6611015Y-6652293D01*
X6611015Y-6652293D02*
X6611015Y-6604674D01*
X6611015Y-6604674D02*
X6620539Y-6566579D01*
X6620539Y-6566579D02*
X6630063Y-6547531D01*
X6630063Y-6547531D02*
X6639586Y-6538008D01*
X6639586Y-6538008D02*
X6658634Y-6528484D01*
X6811015Y-6709436D02*
X6820539Y-6718960D01*
X6820539Y-6718960D02*
X6811015Y-6728484D01*
X6811015Y-6728484D02*
X6801491Y-6718960D01*
X6801491Y-6718960D02*
X6811015Y-6709436D01*
X6811015Y-6709436D02*
X6811015Y-6728484D01*
X7011015Y-6728484D02*
X6896729Y-6728484D01*
X6953872Y-6728484D02*
X6953872Y-6528484D01*
X6953872Y-6528484D02*
X6934825Y-6557055D01*
X6934825Y-6557055D02*
X6915777Y-6576103D01*
X6915777Y-6576103D02*
X6896729Y-6585627D01*
X7134825Y-6528484D02*
X7153872Y-6528484D01*
X7153872Y-6528484D02*
X7172920Y-6538008D01*
X7172920Y-6538008D02*
X7182444Y-6547531D01*
X7182444Y-6547531D02*
X7191967Y-6566579D01*
X7191967Y-6566579D02*
X7201491Y-6604674D01*
X7201491Y-6604674D02*
X7201491Y-6652293D01*
X7201491Y-6652293D02*
X7191967Y-6690388D01*
X7191967Y-6690388D02*
X7182444Y-6709436D01*
X7182444Y-6709436D02*
X7172920Y-6718960D01*
X7172920Y-6718960D02*
X7153872Y-6728484D01*
X7153872Y-6728484D02*
X7134825Y-6728484D01*
X7134825Y-6728484D02*
X7115777Y-6718960D01*
X7115777Y-6718960D02*
X7106253Y-6709436D01*
X7106253Y-6709436D02*
X7096729Y-6690388D01*
X7096729Y-6690388D02*
X7087206Y-6652293D01*
X7087206Y-6652293D02*
X7087206Y-6604674D01*
X7087206Y-6604674D02*
X7096729Y-6566579D01*
X7096729Y-6566579D02*
X7106253Y-6547531D01*
X7106253Y-6547531D02*
X7115777Y-6538008D01*
X7115777Y-6538008D02*
X7134825Y-6528484D01*
X7372920Y-6528484D02*
X7334825Y-6528484D01*
X7334825Y-6528484D02*
X7315777Y-6538008D01*
X7315777Y-6538008D02*
X7306253Y-6547531D01*
X7306253Y-6547531D02*
X7287206Y-6576103D01*
X7287206Y-6576103D02*
X7277682Y-6614198D01*
X7277682Y-6614198D02*
X7277682Y-6690388D01*
X7277682Y-6690388D02*
X7287206Y-6709436D01*
X7287206Y-6709436D02*
X7296729Y-6718960D01*
X7296729Y-6718960D02*
X7315777Y-6728484D01*
X7315777Y-6728484D02*
X7353872Y-6728484D01*
X7353872Y-6728484D02*
X7372920Y-6718960D01*
X7372920Y-6718960D02*
X7382444Y-6709436D01*
X7382444Y-6709436D02*
X7391967Y-6690388D01*
X7391967Y-6690388D02*
X7391967Y-6642769D01*
X7391967Y-6642769D02*
X7382444Y-6623722D01*
X7382444Y-6623722D02*
X7372920Y-6614198D01*
X7372920Y-6614198D02*
X7353872Y-6604674D01*
X7353872Y-6604674D02*
X7315777Y-6604674D01*
X7315777Y-6604674D02*
X7296729Y-6614198D01*
X7296729Y-6614198D02*
X7287206Y-6623722D01*
X7287206Y-6623722D02*
X7277682Y-6642769D01*
X7458634Y-6528484D02*
X7582444Y-6528484D01*
X7582444Y-6528484D02*
X7515777Y-6604674D01*
X7515777Y-6604674D02*
X7544348Y-6604674D01*
X7544348Y-6604674D02*
X7563396Y-6614198D01*
X7563396Y-6614198D02*
X7572920Y-6623722D01*
X7572920Y-6623722D02*
X7582444Y-6642769D01*
X7582444Y-6642769D02*
X7582444Y-6690388D01*
X7582444Y-6690388D02*
X7572920Y-6709436D01*
X7572920Y-6709436D02*
X7563396Y-6718960D01*
X7563396Y-6718960D02*
X7544348Y-6728484D01*
X7544348Y-6728484D02*
X7487206Y-6728484D01*
X7487206Y-6728484D02*
X7468158Y-6718960D01*
X7468158Y-6718960D02*
X7458634Y-6709436D01*
X7658634Y-6528484D02*
X7658634Y-6566579D01*
X7734825Y-6528484D02*
X7734825Y-6566579D01*
X8030063Y-6804674D02*
X8020539Y-6795150D01*
X8020539Y-6795150D02*
X8001491Y-6766579D01*
X8001491Y-6766579D02*
X7991968Y-6747531D01*
X7991968Y-6747531D02*
X7982444Y-6718960D01*
X7982444Y-6718960D02*
X7972920Y-6671341D01*
X7972920Y-6671341D02*
X7972920Y-6633246D01*
X7972920Y-6633246D02*
X7982444Y-6585627D01*
X7982444Y-6585627D02*
X7991968Y-6557055D01*
X7991968Y-6557055D02*
X8001491Y-6538008D01*
X8001491Y-6538008D02*
X8020539Y-6509436D01*
X8020539Y-6509436D02*
X8030063Y-6499912D01*
X8096729Y-6547531D02*
X8106253Y-6538008D01*
X8106253Y-6538008D02*
X8125301Y-6528484D01*
X8125301Y-6528484D02*
X8172920Y-6528484D01*
X8172920Y-6528484D02*
X8191968Y-6538008D01*
X8191968Y-6538008D02*
X8201491Y-6547531D01*
X8201491Y-6547531D02*
X8211015Y-6566579D01*
X8211015Y-6566579D02*
X8211015Y-6585627D01*
X8211015Y-6585627D02*
X8201491Y-6614198D01*
X8201491Y-6614198D02*
X8087206Y-6728484D01*
X8087206Y-6728484D02*
X8211015Y-6728484D01*
X8449111Y-6728484D02*
X8449111Y-6528484D01*
X8534825Y-6728484D02*
X8534825Y-6623722D01*
X8534825Y-6623722D02*
X8525301Y-6604674D01*
X8525301Y-6604674D02*
X8506253Y-6595150D01*
X8506253Y-6595150D02*
X8477682Y-6595150D01*
X8477682Y-6595150D02*
X8458634Y-6604674D01*
X8458634Y-6604674D02*
X8449111Y-6614198D01*
X8658634Y-6728484D02*
X8639587Y-6718960D01*
X8639587Y-6718960D02*
X8630063Y-6709436D01*
X8630063Y-6709436D02*
X8620539Y-6690388D01*
X8620539Y-6690388D02*
X8620539Y-6633246D01*
X8620539Y-6633246D02*
X8630063Y-6614198D01*
X8630063Y-6614198D02*
X8639587Y-6604674D01*
X8639587Y-6604674D02*
X8658634Y-6595150D01*
X8658634Y-6595150D02*
X8687206Y-6595150D01*
X8687206Y-6595150D02*
X8706253Y-6604674D01*
X8706253Y-6604674D02*
X8715777Y-6614198D01*
X8715777Y-6614198D02*
X8725301Y-6633246D01*
X8725301Y-6633246D02*
X8725301Y-6690388D01*
X8725301Y-6690388D02*
X8715777Y-6709436D01*
X8715777Y-6709436D02*
X8706253Y-6718960D01*
X8706253Y-6718960D02*
X8687206Y-6728484D01*
X8687206Y-6728484D02*
X8658634Y-6728484D01*
X8839587Y-6728484D02*
X8820539Y-6718960D01*
X8820539Y-6718960D02*
X8811015Y-6699912D01*
X8811015Y-6699912D02*
X8811015Y-6528484D01*
X8991968Y-6718960D02*
X8972920Y-6728484D01*
X8972920Y-6728484D02*
X8934825Y-6728484D01*
X8934825Y-6728484D02*
X8915777Y-6718960D01*
X8915777Y-6718960D02*
X8906253Y-6699912D01*
X8906253Y-6699912D02*
X8906253Y-6623722D01*
X8906253Y-6623722D02*
X8915777Y-6604674D01*
X8915777Y-6604674D02*
X8934825Y-6595150D01*
X8934825Y-6595150D02*
X8972920Y-6595150D01*
X8972920Y-6595150D02*
X8991968Y-6604674D01*
X8991968Y-6604674D02*
X9001492Y-6623722D01*
X9001492Y-6623722D02*
X9001492Y-6642769D01*
X9001492Y-6642769D02*
X8906253Y-6661817D01*
X9077682Y-6718960D02*
X9096730Y-6728484D01*
X9096730Y-6728484D02*
X9134825Y-6728484D01*
X9134825Y-6728484D02*
X9153873Y-6718960D01*
X9153873Y-6718960D02*
X9163396Y-6699912D01*
X9163396Y-6699912D02*
X9163396Y-6690388D01*
X9163396Y-6690388D02*
X9153873Y-6671341D01*
X9153873Y-6671341D02*
X9134825Y-6661817D01*
X9134825Y-6661817D02*
X9106253Y-6661817D01*
X9106253Y-6661817D02*
X9087206Y-6652293D01*
X9087206Y-6652293D02*
X9077682Y-6633246D01*
X9077682Y-6633246D02*
X9077682Y-6623722D01*
X9077682Y-6623722D02*
X9087206Y-6604674D01*
X9087206Y-6604674D02*
X9106253Y-6595150D01*
X9106253Y-6595150D02*
X9134825Y-6595150D01*
X9134825Y-6595150D02*
X9153873Y-6604674D01*
X9230063Y-6804674D02*
X9239587Y-6795150D01*
X9239587Y-6795150D02*
X9258634Y-6766579D01*
X9258634Y-6766579D02*
X9268158Y-6747531D01*
X9268158Y-6747531D02*
X9277682Y-6718960D01*
X9277682Y-6718960D02*
X9287206Y-6671341D01*
X9287206Y-6671341D02*
X9287206Y-6633246D01*
X9287206Y-6633246D02*
X9277682Y-6585627D01*
X9277682Y-6585627D02*
X9268158Y-6557055D01*
X9268158Y-6557055D02*
X9258634Y-6538008D01*
X9258634Y-6538008D02*
X9239587Y-6509436D01*
X9239587Y-6509436D02*
X9230063Y-6499912D01*
M02*
