%TF.GenerationSoftware,KiCad,Pcbnew,8.0.5*%
%TF.CreationDate,2024-09-21T18:14:30+02:00*%
%TF.ProjectId,KorryLargePCB_SMD,4b6f7272-794c-4617-9267-655043425f53,rev?*%
%TF.SameCoordinates,Original*%
%TF.FileFunction,Legend,Bot*%
%TF.FilePolarity,Positive*%
%FSLAX46Y46*%
G04 Gerber Fmt 4.6, Leading zero omitted, Abs format (unit mm)*
G04 Created by KiCad (PCBNEW 8.0.5) date 2024-09-21 18:14:30*
%MOMM*%
%LPD*%
G01*
G04 APERTURE LIST*
%ADD10C,0.300000*%
%ADD11C,0.150000*%
%ADD12C,0.120000*%
G04 APERTURE END LIST*
D10*
X64154510Y-31329400D02*
X65297368Y-31329400D01*
X57354510Y-31329400D02*
X58497368Y-31329400D01*
X57925939Y-31900828D02*
X57925939Y-30757971D01*
D11*
X61810839Y-36722200D02*
X61667982Y-36769819D01*
X61667982Y-36769819D02*
X61429887Y-36769819D01*
X61429887Y-36769819D02*
X61334649Y-36722200D01*
X61334649Y-36722200D02*
X61287030Y-36674580D01*
X61287030Y-36674580D02*
X61239411Y-36579342D01*
X61239411Y-36579342D02*
X61239411Y-36484104D01*
X61239411Y-36484104D02*
X61287030Y-36388866D01*
X61287030Y-36388866D02*
X61334649Y-36341247D01*
X61334649Y-36341247D02*
X61429887Y-36293628D01*
X61429887Y-36293628D02*
X61620363Y-36246009D01*
X61620363Y-36246009D02*
X61715601Y-36198390D01*
X61715601Y-36198390D02*
X61763220Y-36150771D01*
X61763220Y-36150771D02*
X61810839Y-36055533D01*
X61810839Y-36055533D02*
X61810839Y-35960295D01*
X61810839Y-35960295D02*
X61763220Y-35865057D01*
X61763220Y-35865057D02*
X61715601Y-35817438D01*
X61715601Y-35817438D02*
X61620363Y-35769819D01*
X61620363Y-35769819D02*
X61382268Y-35769819D01*
X61382268Y-35769819D02*
X61239411Y-35817438D01*
X60906077Y-35769819D02*
X60667982Y-36769819D01*
X60667982Y-36769819D02*
X60477506Y-36055533D01*
X60477506Y-36055533D02*
X60287030Y-36769819D01*
X60287030Y-36769819D02*
X60048935Y-35769819D01*
D10*
X64254510Y-41729400D02*
X65397368Y-41729400D01*
X57454510Y-41929400D02*
X58597368Y-41929400D01*
X58025939Y-42500828D02*
X58025939Y-41357971D01*
D11*
X65457142Y-29754819D02*
X65457142Y-28754819D01*
X65457142Y-28754819D02*
X65219047Y-28754819D01*
X65219047Y-28754819D02*
X65076190Y-28802438D01*
X65076190Y-28802438D02*
X64980952Y-28897676D01*
X64980952Y-28897676D02*
X64933333Y-28992914D01*
X64933333Y-28992914D02*
X64885714Y-29183390D01*
X64885714Y-29183390D02*
X64885714Y-29326247D01*
X64885714Y-29326247D02*
X64933333Y-29516723D01*
X64933333Y-29516723D02*
X64980952Y-29611961D01*
X64980952Y-29611961D02*
X65076190Y-29707200D01*
X65076190Y-29707200D02*
X65219047Y-29754819D01*
X65219047Y-29754819D02*
X65457142Y-29754819D01*
X63933333Y-28802438D02*
X64028571Y-28754819D01*
X64028571Y-28754819D02*
X64171428Y-28754819D01*
X64171428Y-28754819D02*
X64314285Y-28802438D01*
X64314285Y-28802438D02*
X64409523Y-28897676D01*
X64409523Y-28897676D02*
X64457142Y-28992914D01*
X64457142Y-28992914D02*
X64504761Y-29183390D01*
X64504761Y-29183390D02*
X64504761Y-29326247D01*
X64504761Y-29326247D02*
X64457142Y-29516723D01*
X64457142Y-29516723D02*
X64409523Y-29611961D01*
X64409523Y-29611961D02*
X64314285Y-29707200D01*
X64314285Y-29707200D02*
X64171428Y-29754819D01*
X64171428Y-29754819D02*
X64076190Y-29754819D01*
X64076190Y-29754819D02*
X63933333Y-29707200D01*
X63933333Y-29707200D02*
X63885714Y-29659580D01*
X63885714Y-29659580D02*
X63885714Y-29326247D01*
X63885714Y-29326247D02*
X64076190Y-29326247D01*
X63457142Y-29373866D02*
X62695238Y-29373866D01*
X61695238Y-29754819D02*
X62266666Y-29754819D01*
X61980952Y-29754819D02*
X61980952Y-28754819D01*
X61980952Y-28754819D02*
X62076190Y-28897676D01*
X62076190Y-28897676D02*
X62171428Y-28992914D01*
X62171428Y-28992914D02*
X62266666Y-29040533D01*
X63228570Y-44354819D02*
X63228570Y-43354819D01*
X63228570Y-43354819D02*
X62990475Y-43354819D01*
X62990475Y-43354819D02*
X62847618Y-43402438D01*
X62847618Y-43402438D02*
X62752380Y-43497676D01*
X62752380Y-43497676D02*
X62704761Y-43592914D01*
X62704761Y-43592914D02*
X62657142Y-43783390D01*
X62657142Y-43783390D02*
X62657142Y-43926247D01*
X62657142Y-43926247D02*
X62704761Y-44116723D01*
X62704761Y-44116723D02*
X62752380Y-44211961D01*
X62752380Y-44211961D02*
X62847618Y-44307200D01*
X62847618Y-44307200D02*
X62990475Y-44354819D01*
X62990475Y-44354819D02*
X63228570Y-44354819D01*
X62323808Y-43354819D02*
X62085713Y-44354819D01*
X62085713Y-44354819D02*
X61895237Y-43640533D01*
X61895237Y-43640533D02*
X61704761Y-44354819D01*
X61704761Y-44354819D02*
X61466666Y-43354819D01*
X61085713Y-43973866D02*
X60323809Y-43973866D01*
X59323809Y-44354819D02*
X59895237Y-44354819D01*
X59609523Y-44354819D02*
X59609523Y-43354819D01*
X59609523Y-43354819D02*
X59704761Y-43497676D01*
X59704761Y-43497676D02*
X59799999Y-43592914D01*
X59799999Y-43592914D02*
X59895237Y-43640533D01*
D12*
%TO.C,S1*%
X56350000Y-32610001D02*
X56350000Y-40590000D01*
X56350000Y-40590000D02*
X65850000Y-40589999D01*
X59516667Y-32610000D02*
X56350000Y-32610001D01*
X59516667Y-32970000D02*
X59516667Y-32610000D01*
X62683333Y-32610000D02*
X62683333Y-32970000D01*
X62683333Y-32970000D02*
X59516667Y-32970000D01*
X65850000Y-32610000D02*
X62683333Y-32610000D01*
X65850000Y-40589999D02*
X65850000Y-32610000D01*
%TO.C,DG-1*%
X59600000Y-32435000D02*
X63660000Y-32435000D01*
X63660000Y-30165000D02*
X59600000Y-30165000D01*
X63660000Y-32435000D02*
X63660000Y-30165000D01*
%TO.C,DW-1*%
X59700000Y-43035000D02*
X63760000Y-43035000D01*
X63760000Y-40765000D02*
X59700000Y-40765000D01*
X63760000Y-43035000D02*
X63760000Y-40765000D01*
%TD*%
M02*
