%TF.GenerationSoftware,KiCad,Pcbnew,8.0.5*%
%TF.CreationDate,2024-09-21T18:14:30+02:00*%
%TF.ProjectId,KorryLargePCB_SMD,4b6f7272-794c-4617-9267-655043425f53,rev?*%
%TF.SameCoordinates,Original*%
%TF.FileFunction,Copper,L2,Bot*%
%TF.FilePolarity,Positive*%
%FSLAX46Y46*%
G04 Gerber Fmt 4.6, Leading zero omitted, Abs format (unit mm)*
G04 Created by KiCad (PCBNEW 8.0.5) date 2024-09-21 18:14:30*
%MOMM*%
%LPD*%
G01*
G04 APERTURE LIST*
G04 Aperture macros list*
%AMRoundRect*
0 Rectangle with rounded corners*
0 $1 Rounding radius*
0 $2 $3 $4 $5 $6 $7 $8 $9 X,Y pos of 4 corners*
0 Add a 4 corners polygon primitive as box body*
4,1,4,$2,$3,$4,$5,$6,$7,$8,$9,$2,$3,0*
0 Add four circle primitives for the rounded corners*
1,1,$1+$1,$2,$3*
1,1,$1+$1,$4,$5*
1,1,$1+$1,$6,$7*
1,1,$1+$1,$8,$9*
0 Add four rect primitives between the rounded corners*
20,1,$1+$1,$2,$3,$4,$5,0*
20,1,$1+$1,$4,$5,$6,$7,0*
20,1,$1+$1,$6,$7,$8,$9,0*
20,1,$1+$1,$8,$9,$2,$3,0*%
G04 Aperture macros list end*
%TA.AperFunction,ComponentPad*%
%ADD10R,1.700000X1.700000*%
%TD*%
%TA.AperFunction,ComponentPad*%
%ADD11O,1.700000X1.700000*%
%TD*%
%TA.AperFunction,ComponentPad*%
%ADD12C,3.100000*%
%TD*%
%TA.AperFunction,ConnectorPad*%
%ADD13C,4.700000*%
%TD*%
%TA.AperFunction,ComponentPad*%
%ADD14O,2.500000X2.000000*%
%TD*%
%TA.AperFunction,SMDPad,CuDef*%
%ADD15RoundRect,0.250001X0.462499X0.624999X-0.462499X0.624999X-0.462499X-0.624999X0.462499X-0.624999X0*%
%TD*%
%TA.AperFunction,ViaPad*%
%ADD16C,0.800000*%
%TD*%
%TA.AperFunction,Conductor*%
%ADD17C,0.800000*%
%TD*%
%TA.AperFunction,Conductor*%
%ADD18C,0.250000*%
%TD*%
G04 APERTURE END LIST*
D10*
%TO.P,J2,1,Pin_1*%
%TO.N,+9V*%
X59750000Y-49250000D03*
D11*
%TO.P,J2,2,Pin_2*%
%TO.N,/LED_PCB*%
X62290000Y-49250000D03*
%TD*%
D10*
%TO.P,J1,1,Pin_1*%
%TO.N,/BTN_INPUT*%
X63750000Y-23000000D03*
D11*
%TO.P,J1,2,Pin_2*%
%TO.N,/LED_INPUT*%
X61210000Y-23000000D03*
%TO.P,J1,3,Pin_3*%
%TO.N,GND*%
X58670000Y-23000000D03*
%TD*%
D12*
%TO.P,H2,1*%
%TO.N,N/C*%
X74500000Y-36000000D03*
D13*
X74500000Y-36000000D03*
%TD*%
D12*
%TO.P,H1,1*%
%TO.N,N/C*%
X47500000Y-36000000D03*
D13*
X47500000Y-36000000D03*
%TD*%
D14*
%TO.P,S1,1*%
%TO.N,unconnected-(S1-Pad1)*%
X64100000Y-33900000D03*
%TO.P,S1,3*%
%TO.N,/BTN_INPUT*%
X64100000Y-39300000D03*
%TO.P,S1,4*%
%TO.N,unconnected-(S1-Pad4)*%
X58100000Y-39300000D03*
%TO.P,S1,6*%
%TO.N,unconnected-(S1-Pad6)*%
X58100000Y-33900000D03*
%TD*%
D15*
%TO.P,DG-1,1,K*%
%TO.N,Net-(DG-1-K)*%
X62687500Y-31300000D03*
%TO.P,DG-1,2,A*%
%TO.N,/LED_INPUT*%
X59712500Y-31300000D03*
%TD*%
%TO.P,DW-1,1,K*%
%TO.N,Net-(DW-1-K)*%
X62787500Y-41900000D03*
%TO.P,DW-1,2,A*%
%TO.N,+9V*%
X59812500Y-41900000D03*
%TD*%
D16*
%TO.N,/LED_INPUT*%
X61225000Y-28175000D03*
%TO.N,/LED_PCB*%
X67775000Y-34100000D03*
%TO.N,Net-(DG-1-K)*%
X54550000Y-39825000D03*
%TO.N,Net-(DW-1-K)*%
X67725000Y-41775000D03*
%TD*%
D17*
%TO.N,+9V*%
X59750000Y-49250000D02*
X59750000Y-41962500D01*
X59750000Y-41962500D02*
X59812500Y-41900000D01*
%TO.N,/LED_PCB*%
X62250000Y-49250000D02*
X63250000Y-49250000D01*
X63250000Y-49250000D02*
X70000002Y-42499998D01*
X70000002Y-42499998D02*
X70000002Y-35000000D01*
D18*
%TO.N,/LED_INPUT*%
X61225000Y-28700000D02*
X59712500Y-30212500D01*
X61225000Y-28175000D02*
X61225000Y-28700000D01*
X59712500Y-30212500D02*
X59712500Y-31300000D01*
D17*
%TO.N,/LED_PCB*%
X69130000Y-34130000D02*
X70000000Y-35000000D01*
X67775000Y-34100000D02*
X69130000Y-34130000D01*
D18*
%TO.N,Net-(DG-1-K)*%
X54550000Y-39825000D02*
X54575000Y-39800000D01*
X62687500Y-31300000D02*
X61387500Y-32600000D01*
X59004900Y-32600000D02*
X58979900Y-32575000D01*
X56925000Y-32575000D02*
X54550000Y-34950000D01*
X54550000Y-34950000D02*
X54550000Y-39825000D01*
X61387500Y-32600000D02*
X59004900Y-32600000D01*
X54575000Y-39800000D02*
X54600000Y-39800000D01*
X58979900Y-32575000D02*
X56925000Y-32575000D01*
D17*
%TO.N,Net-(DW-1-K)*%
X67725000Y-41775000D02*
X62912500Y-41775000D01*
X62912500Y-41775000D02*
X62787500Y-41900000D01*
%TD*%
M02*
