%TF.GenerationSoftware,KiCad,Pcbnew,8.0.5*%
%TF.CreationDate,2024-09-21T18:14:30+02:00*%
%TF.ProjectId,KorryLargePCB_SMD,4b6f7272-794c-4617-9267-655043425f53,rev?*%
%TF.SameCoordinates,Original*%
%TF.FileFunction,Copper,L1,Top*%
%TF.FilePolarity,Positive*%
%FSLAX46Y46*%
G04 Gerber Fmt 4.6, Leading zero omitted, Abs format (unit mm)*
G04 Created by KiCad (PCBNEW 8.0.5) date 2024-09-21 18:14:30*
%MOMM*%
%LPD*%
G01*
G04 APERTURE LIST*
G04 Aperture macros list*
%AMRoundRect*
0 Rectangle with rounded corners*
0 $1 Rounding radius*
0 $2 $3 $4 $5 $6 $7 $8 $9 X,Y pos of 4 corners*
0 Add a 4 corners polygon primitive as box body*
4,1,4,$2,$3,$4,$5,$6,$7,$8,$9,$2,$3,0*
0 Add four circle primitives for the rounded corners*
1,1,$1+$1,$2,$3*
1,1,$1+$1,$4,$5*
1,1,$1+$1,$6,$7*
1,1,$1+$1,$8,$9*
0 Add four rect primitives between the rounded corners*
20,1,$1+$1,$2,$3,$4,$5,0*
20,1,$1+$1,$4,$5,$6,$7,0*
20,1,$1+$1,$6,$7,$8,$9,0*
20,1,$1+$1,$8,$9,$2,$3,0*%
G04 Aperture macros list end*
%TA.AperFunction,SMDPad,CuDef*%
%ADD10RoundRect,0.250000X0.625000X-0.400000X0.625000X0.400000X-0.625000X0.400000X-0.625000X-0.400000X0*%
%TD*%
%TA.AperFunction,ComponentPad*%
%ADD11R,1.700000X1.700000*%
%TD*%
%TA.AperFunction,ComponentPad*%
%ADD12O,1.700000X1.700000*%
%TD*%
%TA.AperFunction,SMDPad,CuDef*%
%ADD13RoundRect,0.250000X-0.625000X0.400000X-0.625000X-0.400000X0.625000X-0.400000X0.625000X0.400000X0*%
%TD*%
%TA.AperFunction,ComponentPad*%
%ADD14C,3.100000*%
%TD*%
%TA.AperFunction,ConnectorPad*%
%ADD15C,4.700000*%
%TD*%
%TA.AperFunction,ComponentPad*%
%ADD16O,2.500000X2.000000*%
%TD*%
%TA.AperFunction,ComponentPad*%
%ADD17O,2.500000X1.850000*%
%TD*%
%TA.AperFunction,ViaPad*%
%ADD18C,0.800000*%
%TD*%
%TA.AperFunction,Conductor*%
%ADD19C,0.250000*%
%TD*%
%TA.AperFunction,Conductor*%
%ADD20C,0.800000*%
%TD*%
G04 APERTURE END LIST*
D10*
%TO.P,RG-1,1*%
%TO.N,Net-(DG-1-K)*%
X54500000Y-41360000D03*
%TO.P,RG-1,2*%
%TO.N,GND*%
X54500000Y-38260000D03*
%TD*%
D11*
%TO.P,J2,1,Pin_1*%
%TO.N,+9V*%
X59750000Y-49250000D03*
D12*
%TO.P,J2,2,Pin_2*%
%TO.N,/LED_PCB*%
X62290000Y-49250000D03*
%TD*%
D11*
%TO.P,J1,1,Pin_1*%
%TO.N,/BTN_INPUT*%
X63750000Y-23000000D03*
D12*
%TO.P,J1,2,Pin_2*%
%TO.N,/LED_INPUT*%
X61210000Y-23000000D03*
%TO.P,J1,3,Pin_3*%
%TO.N,GND*%
X58670000Y-23000000D03*
%TD*%
D13*
%TO.P,RW-1,1*%
%TO.N,/LED_PCB*%
X67750000Y-32580000D03*
%TO.P,RW-1,2*%
%TO.N,Net-(DW-1-K)*%
X67750000Y-35680000D03*
%TD*%
D14*
%TO.P,H2,1*%
%TO.N,N/C*%
X74500000Y-36000000D03*
D15*
X74500000Y-36000000D03*
%TD*%
D14*
%TO.P,H1,1*%
%TO.N,N/C*%
X47500000Y-36000000D03*
D15*
X47500000Y-36000000D03*
%TD*%
D16*
%TO.P,S1,1*%
%TO.N,unconnected-(S1-Pad1)*%
X64100000Y-33900000D03*
D17*
%TO.P,S1,2*%
%TO.N,GND*%
X64100000Y-36600000D03*
D16*
%TO.P,S1,3*%
%TO.N,/BTN_INPUT*%
X64100000Y-39300000D03*
%TO.P,S1,4*%
%TO.N,unconnected-(S1-Pad4)*%
X58100000Y-39300000D03*
D17*
%TO.P,S1,5*%
%TO.N,unconnected-(S1-Pad5)*%
X58100000Y-36600000D03*
D16*
%TO.P,S1,6*%
%TO.N,unconnected-(S1-Pad6)*%
X58100000Y-33900000D03*
%TD*%
D18*
%TO.N,/LED_INPUT*%
X61225000Y-28175000D03*
%TO.N,/LED_PCB*%
X67775000Y-34100000D03*
%TO.N,Net-(DG-1-K)*%
X54550000Y-39825000D03*
%TO.N,Net-(DW-1-K)*%
X67725000Y-41775000D03*
%TD*%
D19*
%TO.N,/LED_INPUT*%
X61250000Y-28150000D02*
X61225000Y-28175000D01*
X61250000Y-23000000D02*
X61250000Y-28150000D01*
%TO.N,/BTN_INPUT*%
X62525000Y-24225000D02*
X62525000Y-37725000D01*
X63750000Y-23000000D02*
X62525000Y-24225000D01*
X62525000Y-37725000D02*
X64100000Y-39300000D01*
D20*
%TO.N,/LED_PCB*%
X67775000Y-34100000D02*
X67775000Y-32605000D01*
D19*
%TO.N,Net-(DG-1-K)*%
X54550000Y-39825000D02*
X54550000Y-41310000D01*
D20*
%TO.N,Net-(DW-1-K)*%
X67725000Y-41775000D02*
X67725000Y-35705000D01*
%TD*%
%TA.AperFunction,Conductor*%
%TO.N,GND*%
G36*
X67193039Y-20269685D02*
G01*
X67238794Y-20322489D01*
X67250000Y-20374000D01*
X67250000Y-25750000D01*
X71626000Y-25750000D01*
X71693039Y-25769685D01*
X71738794Y-25822489D01*
X71750000Y-25874000D01*
X71750000Y-35228605D01*
X71744791Y-35264169D01*
X71721634Y-35341516D01*
X71721632Y-35341523D01*
X71663977Y-35668504D01*
X71663976Y-35668515D01*
X71644669Y-35999996D01*
X71644669Y-36000003D01*
X71663976Y-36331484D01*
X71663977Y-36331495D01*
X71721631Y-36658467D01*
X71721634Y-36658481D01*
X71721635Y-36658485D01*
X71741848Y-36726000D01*
X71744791Y-36735831D01*
X71750000Y-36771394D01*
X71750000Y-47126000D01*
X71730315Y-47193039D01*
X71677511Y-47238794D01*
X71626000Y-47250000D01*
X65500000Y-47250000D01*
X65500000Y-51626000D01*
X65480315Y-51693039D01*
X65427511Y-51738794D01*
X65376000Y-51750000D01*
X56374000Y-51750000D01*
X56306961Y-51730315D01*
X56261206Y-51677511D01*
X56250000Y-51626000D01*
X56250000Y-48352135D01*
X58399500Y-48352135D01*
X58399500Y-50147870D01*
X58399501Y-50147876D01*
X58405908Y-50207483D01*
X58456202Y-50342328D01*
X58456206Y-50342335D01*
X58542452Y-50457544D01*
X58542455Y-50457547D01*
X58657664Y-50543793D01*
X58657671Y-50543797D01*
X58792517Y-50594091D01*
X58792516Y-50594091D01*
X58799444Y-50594835D01*
X58852127Y-50600500D01*
X60647872Y-50600499D01*
X60707483Y-50594091D01*
X60842331Y-50543796D01*
X60957546Y-50457546D01*
X61043796Y-50342331D01*
X61092810Y-50210916D01*
X61134681Y-50154984D01*
X61200145Y-50130566D01*
X61268418Y-50145417D01*
X61296673Y-50166569D01*
X61418599Y-50288495D01*
X61515384Y-50356265D01*
X61612165Y-50424032D01*
X61612167Y-50424033D01*
X61612170Y-50424035D01*
X61826337Y-50523903D01*
X62054592Y-50585063D01*
X62231034Y-50600500D01*
X62289999Y-50605659D01*
X62290000Y-50605659D01*
X62290001Y-50605659D01*
X62348966Y-50600500D01*
X62525408Y-50585063D01*
X62753663Y-50523903D01*
X62967830Y-50424035D01*
X63161401Y-50288495D01*
X63328495Y-50121401D01*
X63464035Y-49927830D01*
X63563903Y-49713663D01*
X63625063Y-49485408D01*
X63645659Y-49250000D01*
X63625063Y-49014592D01*
X63563903Y-48786337D01*
X63464035Y-48572171D01*
X63328495Y-48378599D01*
X63328494Y-48378597D01*
X63161402Y-48211506D01*
X63161395Y-48211501D01*
X62967834Y-48075967D01*
X62967830Y-48075965D01*
X62967828Y-48075964D01*
X62753663Y-47976097D01*
X62753659Y-47976096D01*
X62753655Y-47976094D01*
X62525413Y-47914938D01*
X62525403Y-47914936D01*
X62290001Y-47894341D01*
X62289999Y-47894341D01*
X62054596Y-47914936D01*
X62054586Y-47914938D01*
X61826344Y-47976094D01*
X61826335Y-47976098D01*
X61612171Y-48075964D01*
X61612169Y-48075965D01*
X61418600Y-48211503D01*
X61296673Y-48333430D01*
X61235350Y-48366914D01*
X61165658Y-48361930D01*
X61109725Y-48320058D01*
X61092810Y-48289081D01*
X61043797Y-48157671D01*
X61043793Y-48157664D01*
X60957547Y-48042455D01*
X60957544Y-48042452D01*
X60842335Y-47956206D01*
X60842328Y-47956202D01*
X60707482Y-47905908D01*
X60707483Y-47905908D01*
X60647883Y-47899501D01*
X60647881Y-47899500D01*
X60647873Y-47899500D01*
X60647864Y-47899500D01*
X58852129Y-47899500D01*
X58852123Y-47899501D01*
X58792516Y-47905908D01*
X58657671Y-47956202D01*
X58657664Y-47956206D01*
X58542455Y-48042452D01*
X58542452Y-48042455D01*
X58456206Y-48157664D01*
X58456202Y-48157671D01*
X58405908Y-48292517D01*
X58399501Y-48352116D01*
X58399500Y-48352135D01*
X56250000Y-48352135D01*
X56250000Y-47250000D01*
X50374000Y-47250000D01*
X50306961Y-47230315D01*
X50261206Y-47177511D01*
X50250000Y-47126000D01*
X50250000Y-40909983D01*
X53124500Y-40909983D01*
X53124500Y-41810001D01*
X53124501Y-41810019D01*
X53135000Y-41912796D01*
X53135001Y-41912799D01*
X53190185Y-42079331D01*
X53190187Y-42079336D01*
X53197721Y-42091551D01*
X53282288Y-42228656D01*
X53406344Y-42352712D01*
X53555666Y-42444814D01*
X53722203Y-42499999D01*
X53824991Y-42510500D01*
X55175008Y-42510499D01*
X55277797Y-42499999D01*
X55444334Y-42444814D01*
X55593656Y-42352712D01*
X55717712Y-42228656D01*
X55809814Y-42079334D01*
X55864999Y-41912797D01*
X55875500Y-41810009D01*
X55875499Y-40909992D01*
X55864999Y-40807203D01*
X55809814Y-40640666D01*
X55717712Y-40491344D01*
X55593656Y-40367288D01*
X55449172Y-40278170D01*
X55402449Y-40226223D01*
X55391226Y-40157260D01*
X55396336Y-40134322D01*
X55435674Y-40013256D01*
X55455460Y-39825000D01*
X55435674Y-39636744D01*
X55388059Y-39490203D01*
X55386065Y-39420364D01*
X55422145Y-39360531D01*
X55440894Y-39346348D01*
X55593345Y-39252315D01*
X55717315Y-39128345D01*
X55809356Y-38979124D01*
X55809358Y-38979119D01*
X55864505Y-38812697D01*
X55864506Y-38812690D01*
X55874999Y-38709986D01*
X55875000Y-38709973D01*
X55875000Y-38510000D01*
X53125001Y-38510000D01*
X53125001Y-38709986D01*
X53135494Y-38812697D01*
X53190641Y-38979119D01*
X53190643Y-38979124D01*
X53282684Y-39128345D01*
X53406654Y-39252315D01*
X53555875Y-39344356D01*
X53555882Y-39344359D01*
X53622528Y-39366443D01*
X53679973Y-39406215D01*
X53706797Y-39470731D01*
X53701456Y-39522466D01*
X53664327Y-39636739D01*
X53664326Y-39636741D01*
X53664326Y-39636744D01*
X53644540Y-39825000D01*
X53664326Y-40013256D01*
X53664327Y-40013259D01*
X53692502Y-40099973D01*
X53694497Y-40169814D01*
X53658417Y-40229647D01*
X53613575Y-40255996D01*
X53593558Y-40262629D01*
X53555668Y-40275185D01*
X53555663Y-40275187D01*
X53406342Y-40367289D01*
X53282289Y-40491342D01*
X53190187Y-40640663D01*
X53190186Y-40640666D01*
X53135001Y-40807203D01*
X53135001Y-40807204D01*
X53135000Y-40807204D01*
X53124500Y-40909983D01*
X50250000Y-40909983D01*
X50250000Y-37810013D01*
X53125000Y-37810013D01*
X53125000Y-38010000D01*
X54250000Y-38010000D01*
X54750000Y-38010000D01*
X55874999Y-38010000D01*
X55874999Y-37810028D01*
X55874998Y-37810013D01*
X55864505Y-37707302D01*
X55809358Y-37540880D01*
X55809356Y-37540875D01*
X55717315Y-37391654D01*
X55593345Y-37267684D01*
X55444124Y-37175643D01*
X55444119Y-37175641D01*
X55277697Y-37120494D01*
X55277690Y-37120493D01*
X55174986Y-37110000D01*
X54750000Y-37110000D01*
X54750000Y-38010000D01*
X54250000Y-38010000D01*
X54250000Y-37110000D01*
X53825028Y-37110000D01*
X53825012Y-37110001D01*
X53722302Y-37120494D01*
X53555880Y-37175641D01*
X53555875Y-37175643D01*
X53406654Y-37267684D01*
X53282684Y-37391654D01*
X53190643Y-37540875D01*
X53190641Y-37540880D01*
X53135494Y-37707302D01*
X53135493Y-37707309D01*
X53125000Y-37810013D01*
X50250000Y-37810013D01*
X50250000Y-36771394D01*
X50255209Y-36735831D01*
X50258152Y-36726000D01*
X50278365Y-36658485D01*
X50336024Y-36331484D01*
X50355331Y-36000000D01*
X50336024Y-35668516D01*
X50336022Y-35668504D01*
X50278367Y-35341523D01*
X50278365Y-35341516D01*
X50255209Y-35264169D01*
X50250000Y-35228605D01*
X50250000Y-33781902D01*
X56349500Y-33781902D01*
X56349500Y-34018097D01*
X56386446Y-34251368D01*
X56459433Y-34475996D01*
X56566657Y-34686433D01*
X56705483Y-34877510D01*
X56872490Y-35044517D01*
X56986299Y-35127204D01*
X57044898Y-35169779D01*
X57087563Y-35225109D01*
X57093542Y-35294723D01*
X57060936Y-35356518D01*
X57031851Y-35377971D01*
X57032027Y-35378258D01*
X57028695Y-35380299D01*
X57028326Y-35380572D01*
X57027878Y-35380800D01*
X57027875Y-35380802D01*
X56846355Y-35512683D01*
X56846350Y-35512687D01*
X56687687Y-35671350D01*
X56687683Y-35671355D01*
X56555805Y-35852871D01*
X56453938Y-36052793D01*
X56384599Y-36266194D01*
X56349500Y-36487805D01*
X56349500Y-36712194D01*
X56384599Y-36933805D01*
X56453938Y-37147206D01*
X56555805Y-37347128D01*
X56687683Y-37528644D01*
X56687687Y-37528649D01*
X56846350Y-37687312D01*
X56846355Y-37687316D01*
X57027875Y-37819197D01*
X57027876Y-37819198D01*
X57028307Y-37819418D01*
X57028441Y-37819544D01*
X57032027Y-37821742D01*
X57031565Y-37822495D01*
X57079103Y-37867392D01*
X57095898Y-37935213D01*
X57073360Y-38001348D01*
X57044898Y-38030220D01*
X56872488Y-38155484D01*
X56705485Y-38322487D01*
X56705485Y-38322488D01*
X56705483Y-38322490D01*
X56645862Y-38404550D01*
X56566657Y-38513566D01*
X56459433Y-38724003D01*
X56386446Y-38948631D01*
X56349500Y-39181902D01*
X56349500Y-39418097D01*
X56386446Y-39651368D01*
X56459433Y-39875996D01*
X56529371Y-40013256D01*
X56566657Y-40086433D01*
X56705483Y-40277510D01*
X56872490Y-40444517D01*
X57063567Y-40583343D01*
X57162991Y-40634002D01*
X57274003Y-40690566D01*
X57274005Y-40690566D01*
X57274008Y-40690568D01*
X57394412Y-40729689D01*
X57498631Y-40763553D01*
X57731903Y-40800500D01*
X57731908Y-40800500D01*
X58468097Y-40800500D01*
X58701368Y-40763553D01*
X58925992Y-40690568D01*
X59136433Y-40583343D01*
X59327510Y-40444517D01*
X59494517Y-40277510D01*
X59633343Y-40086433D01*
X59740568Y-39875992D01*
X59813553Y-39651368D01*
X59833969Y-39522466D01*
X59850500Y-39418097D01*
X59850500Y-39181902D01*
X59813553Y-38948631D01*
X59740569Y-38724011D01*
X59740568Y-38724008D01*
X59740566Y-38724005D01*
X59740566Y-38724003D01*
X59633342Y-38513566D01*
X59630751Y-38510000D01*
X59494517Y-38322490D01*
X59327510Y-38155483D01*
X59155101Y-38030220D01*
X59112436Y-37974890D01*
X59106457Y-37905276D01*
X59139063Y-37843481D01*
X59168150Y-37822031D01*
X59167973Y-37821742D01*
X59171343Y-37819676D01*
X59171701Y-37819413D01*
X59172125Y-37819197D01*
X59172716Y-37818768D01*
X59353644Y-37687316D01*
X59353642Y-37687316D01*
X59353651Y-37687311D01*
X59512311Y-37528651D01*
X59644197Y-37347125D01*
X59746063Y-37147202D01*
X59815400Y-36933805D01*
X59824570Y-36875908D01*
X59850500Y-36712194D01*
X59850500Y-36487805D01*
X59815400Y-36266194D01*
X59746061Y-36052793D01*
X59709105Y-35980264D01*
X59644197Y-35852875D01*
X59627347Y-35829683D01*
X59512316Y-35671355D01*
X59512312Y-35671350D01*
X59353649Y-35512687D01*
X59353644Y-35512683D01*
X59172124Y-35380802D01*
X59171683Y-35380577D01*
X59171545Y-35380447D01*
X59167973Y-35378258D01*
X59168433Y-35377507D01*
X59120891Y-35332598D01*
X59104101Y-35264776D01*
X59126645Y-35198643D01*
X59155102Y-35169779D01*
X59213701Y-35127204D01*
X59327510Y-35044517D01*
X59494517Y-34877510D01*
X59633343Y-34686433D01*
X59740568Y-34475992D01*
X59813553Y-34251368D01*
X59817000Y-34229602D01*
X59850500Y-34018097D01*
X59850500Y-33781902D01*
X59813553Y-33548631D01*
X59779689Y-33444412D01*
X59740568Y-33324008D01*
X59740566Y-33324005D01*
X59740566Y-33324003D01*
X59671293Y-33188048D01*
X59633343Y-33113567D01*
X59494517Y-32922490D01*
X59327510Y-32755483D01*
X59136433Y-32616657D01*
X58925996Y-32509433D01*
X58701368Y-32436446D01*
X58468097Y-32399500D01*
X58468092Y-32399500D01*
X57731908Y-32399500D01*
X57731903Y-32399500D01*
X57498631Y-32436446D01*
X57274003Y-32509433D01*
X57063566Y-32616657D01*
X56954550Y-32695862D01*
X56872490Y-32755483D01*
X56872488Y-32755485D01*
X56872487Y-32755485D01*
X56705485Y-32922487D01*
X56705485Y-32922488D01*
X56705483Y-32922490D01*
X56645862Y-33004550D01*
X56566657Y-33113566D01*
X56459433Y-33324003D01*
X56386446Y-33548631D01*
X56349500Y-33781902D01*
X50250000Y-33781902D01*
X50250000Y-25874000D01*
X50269685Y-25806961D01*
X50322489Y-25761206D01*
X50374000Y-25750000D01*
X55250000Y-25750000D01*
X55250000Y-22749999D01*
X57339364Y-22749999D01*
X57339364Y-22750000D01*
X58236988Y-22750000D01*
X58204075Y-22807007D01*
X58170000Y-22934174D01*
X58170000Y-23065826D01*
X58204075Y-23192993D01*
X58236988Y-23250000D01*
X57339364Y-23250000D01*
X57396567Y-23463486D01*
X57396570Y-23463492D01*
X57496399Y-23677578D01*
X57631894Y-23871082D01*
X57798917Y-24038105D01*
X57992421Y-24173600D01*
X58206507Y-24273429D01*
X58206516Y-24273433D01*
X58420000Y-24330634D01*
X58420000Y-23433012D01*
X58477007Y-23465925D01*
X58604174Y-23500000D01*
X58735826Y-23500000D01*
X58862993Y-23465925D01*
X58920000Y-23433012D01*
X58920000Y-24330633D01*
X59133483Y-24273433D01*
X59133492Y-24273429D01*
X59347578Y-24173600D01*
X59541082Y-24038105D01*
X59708105Y-23871082D01*
X59838119Y-23685405D01*
X59892696Y-23641781D01*
X59962195Y-23634588D01*
X60024549Y-23666110D01*
X60041269Y-23685405D01*
X60171505Y-23871401D01*
X60338599Y-24038495D01*
X60435384Y-24106265D01*
X60532165Y-24174032D01*
X60532166Y-24174032D01*
X60532170Y-24174035D01*
X60552905Y-24183703D01*
X60605343Y-24229873D01*
X60624500Y-24296085D01*
X60624500Y-27448547D01*
X60604815Y-27515586D01*
X60592650Y-27531519D01*
X60492466Y-27642785D01*
X60397821Y-27806715D01*
X60397818Y-27806722D01*
X60339327Y-27986740D01*
X60339326Y-27986744D01*
X60319540Y-28175000D01*
X60339326Y-28363256D01*
X60339327Y-28363259D01*
X60397818Y-28543277D01*
X60397821Y-28543284D01*
X60492467Y-28707216D01*
X60619129Y-28847888D01*
X60772265Y-28959148D01*
X60772270Y-28959151D01*
X60945192Y-29036142D01*
X60945197Y-29036144D01*
X61130354Y-29075500D01*
X61130355Y-29075500D01*
X61319644Y-29075500D01*
X61319646Y-29075500D01*
X61504803Y-29036144D01*
X61677730Y-28959151D01*
X61702614Y-28941071D01*
X61768419Y-28917591D01*
X61836474Y-28933416D01*
X61885169Y-28983521D01*
X61899500Y-29041389D01*
X61899500Y-37663393D01*
X61899500Y-37786607D01*
X61899500Y-37786609D01*
X61899499Y-37786609D01*
X61909199Y-37835368D01*
X61909199Y-37835370D01*
X61923535Y-37907444D01*
X61923539Y-37907458D01*
X61929174Y-37921063D01*
X61929175Y-37921064D01*
X61970685Y-38021281D01*
X61970687Y-38021284D01*
X62004914Y-38072507D01*
X62004915Y-38072509D01*
X62039140Y-38123731D01*
X62039141Y-38123732D01*
X62039142Y-38123733D01*
X62126267Y-38210858D01*
X62126268Y-38210858D01*
X62133335Y-38217925D01*
X62133334Y-38217925D01*
X62133338Y-38217928D01*
X62456480Y-38541070D01*
X62489965Y-38602393D01*
X62484981Y-38672085D01*
X62479284Y-38685045D01*
X62459430Y-38724010D01*
X62459430Y-38724011D01*
X62386447Y-38948627D01*
X62386447Y-38948630D01*
X62349500Y-39181902D01*
X62349500Y-39418097D01*
X62386446Y-39651368D01*
X62459433Y-39875996D01*
X62529371Y-40013256D01*
X62566657Y-40086433D01*
X62705483Y-40277510D01*
X62872490Y-40444517D01*
X63063567Y-40583343D01*
X63162991Y-40634002D01*
X63274003Y-40690566D01*
X63274005Y-40690566D01*
X63274008Y-40690568D01*
X63394412Y-40729689D01*
X63498631Y-40763553D01*
X63731903Y-40800500D01*
X63731908Y-40800500D01*
X64468097Y-40800500D01*
X64701368Y-40763553D01*
X64925992Y-40690568D01*
X65136433Y-40583343D01*
X65327510Y-40444517D01*
X65494517Y-40277510D01*
X65633343Y-40086433D01*
X65740568Y-39875992D01*
X65813553Y-39651368D01*
X65833969Y-39522466D01*
X65850500Y-39418097D01*
X65850500Y-39181902D01*
X65813553Y-38948631D01*
X65740569Y-38724011D01*
X65740568Y-38724008D01*
X65740566Y-38724005D01*
X65740566Y-38724003D01*
X65633342Y-38513566D01*
X65630751Y-38510000D01*
X65494517Y-38322490D01*
X65327510Y-38155483D01*
X65154645Y-38029889D01*
X65111981Y-37974560D01*
X65106002Y-37904946D01*
X65138608Y-37843152D01*
X65167870Y-37821573D01*
X65167711Y-37821314D01*
X65170737Y-37819459D01*
X65171252Y-37819080D01*
X65171863Y-37818768D01*
X65353326Y-37686926D01*
X65353327Y-37686926D01*
X65511926Y-37528327D01*
X65511926Y-37528326D01*
X65643768Y-37346863D01*
X65745599Y-37147010D01*
X65745600Y-37147007D01*
X65814910Y-36933689D01*
X65828166Y-36850000D01*
X64415686Y-36850000D01*
X64420080Y-36845606D01*
X64472741Y-36754394D01*
X64500000Y-36652661D01*
X64500000Y-36547339D01*
X64472741Y-36445606D01*
X64420080Y-36354394D01*
X64415686Y-36350000D01*
X65828166Y-36350000D01*
X65814910Y-36266310D01*
X65745600Y-36052992D01*
X65745599Y-36052989D01*
X65643768Y-35853136D01*
X65511926Y-35671673D01*
X65511926Y-35671672D01*
X65353327Y-35513073D01*
X65171860Y-35381229D01*
X65171234Y-35380910D01*
X65171037Y-35380724D01*
X65167711Y-35378686D01*
X65168139Y-35377987D01*
X65120439Y-35332934D01*
X65103646Y-35265113D01*
X65126185Y-35198979D01*
X65154644Y-35170111D01*
X65327510Y-35044517D01*
X65494517Y-34877510D01*
X65633343Y-34686433D01*
X65740568Y-34475992D01*
X65813553Y-34251368D01*
X65817000Y-34229602D01*
X65850500Y-34018097D01*
X65850500Y-33781902D01*
X65813553Y-33548631D01*
X65779689Y-33444412D01*
X65740568Y-33324008D01*
X65740566Y-33324005D01*
X65740566Y-33324003D01*
X65671293Y-33188048D01*
X65633343Y-33113567D01*
X65494517Y-32922490D01*
X65327510Y-32755483D01*
X65136433Y-32616657D01*
X64925996Y-32509433D01*
X64701368Y-32436446D01*
X64468097Y-32399500D01*
X64468092Y-32399500D01*
X63731908Y-32399500D01*
X63731903Y-32399500D01*
X63498630Y-32436447D01*
X63498627Y-32436447D01*
X63312818Y-32496821D01*
X63242977Y-32498816D01*
X63183144Y-32462736D01*
X63152316Y-32400035D01*
X63150500Y-32378890D01*
X63150500Y-32129983D01*
X66374500Y-32129983D01*
X66374500Y-33030001D01*
X66374501Y-33030019D01*
X66385000Y-33132796D01*
X66385001Y-33132799D01*
X66403309Y-33188048D01*
X66440186Y-33299334D01*
X66532288Y-33448656D01*
X66656344Y-33572712D01*
X66805666Y-33664814D01*
X66805667Y-33664814D01*
X66811813Y-33668605D01*
X66810706Y-33670399D01*
X66855337Y-33709687D01*
X66874500Y-33775908D01*
X66874500Y-34046306D01*
X66873821Y-34059266D01*
X66869540Y-34099999D01*
X66873821Y-34140731D01*
X66874500Y-34153692D01*
X66874500Y-34188695D01*
X66882637Y-34229602D01*
X66884341Y-34240831D01*
X66889325Y-34288253D01*
X66889325Y-34288254D01*
X66899904Y-34320811D01*
X66903590Y-34334938D01*
X66909104Y-34362662D01*
X66909105Y-34362664D01*
X66927644Y-34407423D01*
X66931012Y-34416553D01*
X66933131Y-34423074D01*
X66935128Y-34492915D01*
X66899049Y-34552749D01*
X66854207Y-34579100D01*
X66805672Y-34595183D01*
X66805663Y-34595187D01*
X66656342Y-34687289D01*
X66532289Y-34811342D01*
X66440187Y-34960663D01*
X66440186Y-34960666D01*
X66385001Y-35127203D01*
X66385001Y-35127204D01*
X66385000Y-35127204D01*
X66374500Y-35229983D01*
X66374500Y-36130001D01*
X66374501Y-36130019D01*
X66385000Y-36232796D01*
X66385001Y-36232799D01*
X66440185Y-36399331D01*
X66440186Y-36399334D01*
X66532288Y-36548656D01*
X66656344Y-36672712D01*
X66765597Y-36740099D01*
X66812321Y-36792047D01*
X66824500Y-36845638D01*
X66824500Y-41721306D01*
X66823821Y-41734266D01*
X66819540Y-41775000D01*
X66823220Y-41810009D01*
X66823821Y-41815731D01*
X66824500Y-41828692D01*
X66824500Y-41863695D01*
X66832637Y-41904602D01*
X66834341Y-41915831D01*
X66839325Y-41963253D01*
X66839325Y-41963254D01*
X66849904Y-41995811D01*
X66853590Y-42009938D01*
X66859104Y-42037662D01*
X66859105Y-42037664D01*
X66877644Y-42082423D01*
X66881012Y-42091554D01*
X66897819Y-42143279D01*
X66897822Y-42143286D01*
X66911569Y-42167097D01*
X66918742Y-42181643D01*
X66926984Y-42201542D01*
X66957634Y-42247413D01*
X66961912Y-42254294D01*
X66984506Y-42293427D01*
X66992468Y-42307218D01*
X66992469Y-42307219D01*
X67006357Y-42322643D01*
X67017307Y-42336721D01*
X67025534Y-42349033D01*
X67069274Y-42392773D01*
X67073744Y-42397483D01*
X67119129Y-42447888D01*
X67119131Y-42447890D01*
X67130467Y-42456126D01*
X67145263Y-42468763D01*
X67150961Y-42474461D01*
X67150965Y-42474464D01*
X67207994Y-42512570D01*
X67211966Y-42515338D01*
X67272270Y-42559151D01*
X67278902Y-42562104D01*
X67297361Y-42572283D01*
X67298453Y-42573013D01*
X67368042Y-42601836D01*
X67370987Y-42603102D01*
X67445197Y-42636144D01*
X67445668Y-42636244D01*
X67445696Y-42636250D01*
X67456370Y-42639562D01*
X67456503Y-42639125D01*
X67462330Y-42640892D01*
X67462334Y-42640894D01*
X67542816Y-42656902D01*
X67544282Y-42657204D01*
X67630354Y-42675500D01*
X67630355Y-42675500D01*
X67819645Y-42675500D01*
X67819646Y-42675500D01*
X67905746Y-42657198D01*
X67907180Y-42656902D01*
X67987666Y-42640894D01*
X67987669Y-42640892D01*
X67987672Y-42640892D01*
X67993496Y-42639126D01*
X67993631Y-42639573D01*
X68004315Y-42636247D01*
X68004803Y-42636144D01*
X68079057Y-42603082D01*
X68081955Y-42601837D01*
X68151547Y-42573013D01*
X68152633Y-42572287D01*
X68171095Y-42562104D01*
X68177730Y-42559151D01*
X68238054Y-42515322D01*
X68241952Y-42512605D01*
X68299035Y-42474464D01*
X68304739Y-42468758D01*
X68319531Y-42456126D01*
X68330871Y-42447888D01*
X68376274Y-42397461D01*
X68380687Y-42392810D01*
X68424464Y-42349035D01*
X68432687Y-42336727D01*
X68443642Y-42322643D01*
X68457531Y-42307218D01*
X68457530Y-42307218D01*
X68457533Y-42307216D01*
X68488091Y-42254284D01*
X68492368Y-42247408D01*
X68523012Y-42201548D01*
X68523013Y-42201547D01*
X68531259Y-42181637D01*
X68538433Y-42167091D01*
X68552177Y-42143287D01*
X68552178Y-42143286D01*
X68552179Y-42143284D01*
X68568995Y-42091528D01*
X68572355Y-42082423D01*
X68590894Y-42037666D01*
X68596411Y-42009927D01*
X68600094Y-41995813D01*
X68610674Y-41963256D01*
X68615656Y-41915837D01*
X68617361Y-41904604D01*
X68625500Y-41863695D01*
X68625500Y-41828692D01*
X68626179Y-41815731D01*
X68626780Y-41810009D01*
X68630460Y-41775000D01*
X68626179Y-41734266D01*
X68625500Y-41721306D01*
X68625500Y-36875908D01*
X68645185Y-36808869D01*
X68689271Y-36770363D01*
X68688187Y-36768605D01*
X68694332Y-36764814D01*
X68694334Y-36764814D01*
X68843656Y-36672712D01*
X68967712Y-36548656D01*
X69059814Y-36399334D01*
X69114999Y-36232797D01*
X69125500Y-36130009D01*
X69125499Y-35229992D01*
X69125357Y-35228605D01*
X69114999Y-35127203D01*
X69114998Y-35127200D01*
X69087600Y-35044519D01*
X69059814Y-34960666D01*
X68967712Y-34811344D01*
X68843656Y-34687288D01*
X68694334Y-34595186D01*
X68694332Y-34595185D01*
X68694324Y-34595182D01*
X68690926Y-34594056D01*
X68688900Y-34592653D01*
X68687791Y-34592136D01*
X68687879Y-34591946D01*
X68633484Y-34554279D01*
X68606665Y-34489762D01*
X68612007Y-34438036D01*
X68614303Y-34430970D01*
X68618990Y-34416542D01*
X68622355Y-34407423D01*
X68640894Y-34362666D01*
X68646411Y-34334927D01*
X68650094Y-34320813D01*
X68660674Y-34288256D01*
X68665656Y-34240837D01*
X68667361Y-34229604D01*
X68675500Y-34188695D01*
X68675500Y-34153692D01*
X68676179Y-34140731D01*
X68680460Y-34100000D01*
X68676179Y-34059266D01*
X68675500Y-34046306D01*
X68675500Y-33745638D01*
X68695185Y-33678599D01*
X68734401Y-33640100D01*
X68843656Y-33572712D01*
X68967712Y-33448656D01*
X69059814Y-33299334D01*
X69114999Y-33132797D01*
X69125500Y-33030009D01*
X69125499Y-32129992D01*
X69114999Y-32027203D01*
X69059814Y-31860666D01*
X68967712Y-31711344D01*
X68843656Y-31587288D01*
X68694334Y-31495186D01*
X68527797Y-31440001D01*
X68527795Y-31440000D01*
X68425010Y-31429500D01*
X67074998Y-31429500D01*
X67074981Y-31429501D01*
X66972203Y-31440000D01*
X66972200Y-31440001D01*
X66805668Y-31495185D01*
X66805663Y-31495187D01*
X66656342Y-31587289D01*
X66532289Y-31711342D01*
X66440187Y-31860663D01*
X66440186Y-31860666D01*
X66385001Y-32027203D01*
X66385001Y-32027204D01*
X66385000Y-32027204D01*
X66374500Y-32129983D01*
X63150500Y-32129983D01*
X63150500Y-24535452D01*
X63170185Y-24468413D01*
X63186819Y-24447771D01*
X63247772Y-24386818D01*
X63309095Y-24353333D01*
X63335453Y-24350499D01*
X64647871Y-24350499D01*
X64647872Y-24350499D01*
X64707483Y-24344091D01*
X64842331Y-24293796D01*
X64957546Y-24207546D01*
X65043796Y-24092331D01*
X65094091Y-23957483D01*
X65100500Y-23897873D01*
X65100499Y-22102128D01*
X65094091Y-22042517D01*
X65092810Y-22039083D01*
X65043797Y-21907671D01*
X65043793Y-21907664D01*
X64957547Y-21792455D01*
X64957544Y-21792452D01*
X64842335Y-21706206D01*
X64842328Y-21706202D01*
X64707482Y-21655908D01*
X64707483Y-21655908D01*
X64647883Y-21649501D01*
X64647881Y-21649500D01*
X64647873Y-21649500D01*
X64647864Y-21649500D01*
X62852129Y-21649500D01*
X62852123Y-21649501D01*
X62792516Y-21655908D01*
X62657671Y-21706202D01*
X62657664Y-21706206D01*
X62542455Y-21792452D01*
X62542452Y-21792455D01*
X62456206Y-21907664D01*
X62456203Y-21907669D01*
X62407189Y-22039083D01*
X62365317Y-22095016D01*
X62299853Y-22119433D01*
X62231580Y-22104581D01*
X62203326Y-22083430D01*
X62081402Y-21961506D01*
X62081395Y-21961501D01*
X61887834Y-21825967D01*
X61887830Y-21825965D01*
X61887828Y-21825964D01*
X61673663Y-21726097D01*
X61673659Y-21726096D01*
X61673655Y-21726094D01*
X61445413Y-21664938D01*
X61445403Y-21664936D01*
X61210001Y-21644341D01*
X61209999Y-21644341D01*
X60974596Y-21664936D01*
X60974586Y-21664938D01*
X60746344Y-21726094D01*
X60746335Y-21726098D01*
X60532171Y-21825964D01*
X60532169Y-21825965D01*
X60338597Y-21961505D01*
X60171508Y-22128594D01*
X60041269Y-22314595D01*
X59986692Y-22358219D01*
X59917193Y-22365412D01*
X59854839Y-22333890D01*
X59838119Y-22314594D01*
X59708113Y-22128926D01*
X59708108Y-22128920D01*
X59541082Y-21961894D01*
X59347578Y-21826399D01*
X59133492Y-21726570D01*
X59133486Y-21726567D01*
X58920000Y-21669364D01*
X58920000Y-22566988D01*
X58862993Y-22534075D01*
X58735826Y-22500000D01*
X58604174Y-22500000D01*
X58477007Y-22534075D01*
X58420000Y-22566988D01*
X58420000Y-21669364D01*
X58419999Y-21669364D01*
X58206513Y-21726567D01*
X58206507Y-21726570D01*
X57992422Y-21826399D01*
X57992420Y-21826400D01*
X57798926Y-21961886D01*
X57798920Y-21961891D01*
X57631891Y-22128920D01*
X57631886Y-22128926D01*
X57496400Y-22322420D01*
X57496399Y-22322422D01*
X57396570Y-22536507D01*
X57396567Y-22536513D01*
X57339364Y-22749999D01*
X55250000Y-22749999D01*
X55250000Y-20374000D01*
X55269685Y-20306961D01*
X55322489Y-20261206D01*
X55374000Y-20250000D01*
X67126000Y-20250000D01*
X67193039Y-20269685D01*
G37*
%TD.AperFunction*%
%TD*%
M02*
