%TF.GenerationSoftware,KiCad,Pcbnew,7.0.9*%
%TF.CreationDate,2024-03-13T22:21:00+01:00*%
%TF.ProjectId,Backlighting_PCB,4261636b-6c69-4676-9874-696e675f5043,rev?*%
%TF.SameCoordinates,Original*%
%TF.FileFunction,Legend,Top*%
%TF.FilePolarity,Positive*%
%FSLAX46Y46*%
G04 Gerber Fmt 4.6, Leading zero omitted, Abs format (unit mm)*
G04 Created by KiCad (PCBNEW 7.0.9) date 2024-03-13 22:21:00*
%MOMM*%
%LPD*%
G01*
G04 APERTURE LIST*
%ADD10C,0.150000*%
%ADD11C,0.120000*%
%ADD12C,0.100000*%
G04 APERTURE END LIST*
D10*
X75083333Y-52954819D02*
X74750000Y-52478628D01*
X74511905Y-52954819D02*
X74511905Y-51954819D01*
X74511905Y-51954819D02*
X74892857Y-51954819D01*
X74892857Y-51954819D02*
X74988095Y-52002438D01*
X74988095Y-52002438D02*
X75035714Y-52050057D01*
X75035714Y-52050057D02*
X75083333Y-52145295D01*
X75083333Y-52145295D02*
X75083333Y-52288152D01*
X75083333Y-52288152D02*
X75035714Y-52383390D01*
X75035714Y-52383390D02*
X74988095Y-52431009D01*
X74988095Y-52431009D02*
X74892857Y-52478628D01*
X74892857Y-52478628D02*
X74511905Y-52478628D01*
X75464286Y-52050057D02*
X75511905Y-52002438D01*
X75511905Y-52002438D02*
X75607143Y-51954819D01*
X75607143Y-51954819D02*
X75845238Y-51954819D01*
X75845238Y-51954819D02*
X75940476Y-52002438D01*
X75940476Y-52002438D02*
X75988095Y-52050057D01*
X75988095Y-52050057D02*
X76035714Y-52145295D01*
X76035714Y-52145295D02*
X76035714Y-52240533D01*
X76035714Y-52240533D02*
X75988095Y-52383390D01*
X75988095Y-52383390D02*
X75416667Y-52954819D01*
X75416667Y-52954819D02*
X76035714Y-52954819D01*
X68952380Y-53204819D02*
X68619047Y-52728628D01*
X68380952Y-53204819D02*
X68380952Y-52204819D01*
X68380952Y-52204819D02*
X68761904Y-52204819D01*
X68761904Y-52204819D02*
X68857142Y-52252438D01*
X68857142Y-52252438D02*
X68904761Y-52300057D01*
X68904761Y-52300057D02*
X68952380Y-52395295D01*
X68952380Y-52395295D02*
X68952380Y-52538152D01*
X68952380Y-52538152D02*
X68904761Y-52633390D01*
X68904761Y-52633390D02*
X68857142Y-52681009D01*
X68857142Y-52681009D02*
X68761904Y-52728628D01*
X68761904Y-52728628D02*
X68380952Y-52728628D01*
X70619047Y-52204819D02*
X70142857Y-52204819D01*
X70142857Y-52204819D02*
X70095238Y-52681009D01*
X70095238Y-52681009D02*
X70142857Y-52633390D01*
X70142857Y-52633390D02*
X70238095Y-52585771D01*
X70238095Y-52585771D02*
X70476190Y-52585771D01*
X70476190Y-52585771D02*
X70571428Y-52633390D01*
X70571428Y-52633390D02*
X70619047Y-52681009D01*
X70619047Y-52681009D02*
X70666666Y-52776247D01*
X70666666Y-52776247D02*
X70666666Y-53014342D01*
X70666666Y-53014342D02*
X70619047Y-53109580D01*
X70619047Y-53109580D02*
X70571428Y-53157200D01*
X70571428Y-53157200D02*
X70476190Y-53204819D01*
X70476190Y-53204819D02*
X70238095Y-53204819D01*
X70238095Y-53204819D02*
X70142857Y-53157200D01*
X70142857Y-53157200D02*
X70095238Y-53109580D01*
X71095238Y-53204819D02*
X71095238Y-52204819D01*
X71666666Y-53204819D02*
X71238095Y-52633390D01*
X71666666Y-52204819D02*
X71095238Y-52776247D01*
X94988095Y-72904819D02*
X94988095Y-71904819D01*
X94988095Y-72381009D02*
X95559523Y-72381009D01*
X95559523Y-72904819D02*
X95559523Y-71904819D01*
X96464285Y-72238152D02*
X96464285Y-72904819D01*
X96226190Y-71857200D02*
X95988095Y-72571485D01*
X95988095Y-72571485D02*
X96607142Y-72571485D01*
X66144819Y-59747619D02*
X65668628Y-60080952D01*
X66144819Y-60319047D02*
X65144819Y-60319047D01*
X65144819Y-60319047D02*
X65144819Y-59938095D01*
X65144819Y-59938095D02*
X65192438Y-59842857D01*
X65192438Y-59842857D02*
X65240057Y-59795238D01*
X65240057Y-59795238D02*
X65335295Y-59747619D01*
X65335295Y-59747619D02*
X65478152Y-59747619D01*
X65478152Y-59747619D02*
X65573390Y-59795238D01*
X65573390Y-59795238D02*
X65621009Y-59842857D01*
X65621009Y-59842857D02*
X65668628Y-59938095D01*
X65668628Y-59938095D02*
X65668628Y-60319047D01*
X66144819Y-58033333D02*
X66144819Y-58604761D01*
X66144819Y-58319047D02*
X65144819Y-58319047D01*
X65144819Y-58319047D02*
X65287676Y-58414285D01*
X65287676Y-58414285D02*
X65382914Y-58509523D01*
X65382914Y-58509523D02*
X65430533Y-58604761D01*
X66144819Y-57604761D02*
X65144819Y-57604761D01*
X66144819Y-57033333D02*
X65573390Y-57461904D01*
X65144819Y-57033333D02*
X65716247Y-57604761D01*
X89261905Y-42454819D02*
X89261905Y-41454819D01*
X89261905Y-41454819D02*
X89500000Y-41454819D01*
X89500000Y-41454819D02*
X89642857Y-41502438D01*
X89642857Y-41502438D02*
X89738095Y-41597676D01*
X89738095Y-41597676D02*
X89785714Y-41692914D01*
X89785714Y-41692914D02*
X89833333Y-41883390D01*
X89833333Y-41883390D02*
X89833333Y-42026247D01*
X89833333Y-42026247D02*
X89785714Y-42216723D01*
X89785714Y-42216723D02*
X89738095Y-42311961D01*
X89738095Y-42311961D02*
X89642857Y-42407200D01*
X89642857Y-42407200D02*
X89500000Y-42454819D01*
X89500000Y-42454819D02*
X89261905Y-42454819D01*
X90785714Y-42454819D02*
X90214286Y-42454819D01*
X90500000Y-42454819D02*
X90500000Y-41454819D01*
X90500000Y-41454819D02*
X90404762Y-41597676D01*
X90404762Y-41597676D02*
X90309524Y-41692914D01*
X90309524Y-41692914D02*
X90214286Y-41740533D01*
X89932142Y-37354819D02*
X89360714Y-37354819D01*
X89646428Y-37354819D02*
X89646428Y-36354819D01*
X89646428Y-36354819D02*
X89551190Y-36497676D01*
X89551190Y-36497676D02*
X89455952Y-36592914D01*
X89455952Y-36592914D02*
X89360714Y-36640533D01*
X90360714Y-37354819D02*
X90360714Y-36354819D01*
X90360714Y-36354819D02*
X90932142Y-37354819D01*
X90932142Y-37354819D02*
X90932142Y-36354819D01*
X91836904Y-36688152D02*
X91836904Y-37354819D01*
X91598809Y-36307200D02*
X91360714Y-37021485D01*
X91360714Y-37021485D02*
X91979761Y-37021485D01*
X92551190Y-36354819D02*
X92646428Y-36354819D01*
X92646428Y-36354819D02*
X92741666Y-36402438D01*
X92741666Y-36402438D02*
X92789285Y-36450057D01*
X92789285Y-36450057D02*
X92836904Y-36545295D01*
X92836904Y-36545295D02*
X92884523Y-36735771D01*
X92884523Y-36735771D02*
X92884523Y-36973866D01*
X92884523Y-36973866D02*
X92836904Y-37164342D01*
X92836904Y-37164342D02*
X92789285Y-37259580D01*
X92789285Y-37259580D02*
X92741666Y-37307200D01*
X92741666Y-37307200D02*
X92646428Y-37354819D01*
X92646428Y-37354819D02*
X92551190Y-37354819D01*
X92551190Y-37354819D02*
X92455952Y-37307200D01*
X92455952Y-37307200D02*
X92408333Y-37259580D01*
X92408333Y-37259580D02*
X92360714Y-37164342D01*
X92360714Y-37164342D02*
X92313095Y-36973866D01*
X92313095Y-36973866D02*
X92313095Y-36735771D01*
X92313095Y-36735771D02*
X92360714Y-36545295D01*
X92360714Y-36545295D02*
X92408333Y-36450057D01*
X92408333Y-36450057D02*
X92455952Y-36402438D01*
X92455952Y-36402438D02*
X92551190Y-36354819D01*
X93503571Y-36354819D02*
X93598809Y-36354819D01*
X93598809Y-36354819D02*
X93694047Y-36402438D01*
X93694047Y-36402438D02*
X93741666Y-36450057D01*
X93741666Y-36450057D02*
X93789285Y-36545295D01*
X93789285Y-36545295D02*
X93836904Y-36735771D01*
X93836904Y-36735771D02*
X93836904Y-36973866D01*
X93836904Y-36973866D02*
X93789285Y-37164342D01*
X93789285Y-37164342D02*
X93741666Y-37259580D01*
X93741666Y-37259580D02*
X93694047Y-37307200D01*
X93694047Y-37307200D02*
X93598809Y-37354819D01*
X93598809Y-37354819D02*
X93503571Y-37354819D01*
X93503571Y-37354819D02*
X93408333Y-37307200D01*
X93408333Y-37307200D02*
X93360714Y-37259580D01*
X93360714Y-37259580D02*
X93313095Y-37164342D01*
X93313095Y-37164342D02*
X93265476Y-36973866D01*
X93265476Y-36973866D02*
X93265476Y-36735771D01*
X93265476Y-36735771D02*
X93313095Y-36545295D01*
X93313095Y-36545295D02*
X93360714Y-36450057D01*
X93360714Y-36450057D02*
X93408333Y-36402438D01*
X93408333Y-36402438D02*
X93503571Y-36354819D01*
X94789285Y-37354819D02*
X94217857Y-37354819D01*
X94503571Y-37354819D02*
X94503571Y-36354819D01*
X94503571Y-36354819D02*
X94408333Y-36497676D01*
X94408333Y-36497676D02*
X94313095Y-36592914D01*
X94313095Y-36592914D02*
X94217857Y-36640533D01*
X96893095Y-41924819D02*
X96893095Y-40924819D01*
X97464523Y-41924819D02*
X97035952Y-41353390D01*
X97464523Y-40924819D02*
X96893095Y-41496247D01*
X79190476Y-33954819D02*
X79190476Y-34669104D01*
X79190476Y-34669104D02*
X79142857Y-34811961D01*
X79142857Y-34811961D02*
X79047619Y-34907200D01*
X79047619Y-34907200D02*
X78904762Y-34954819D01*
X78904762Y-34954819D02*
X78809524Y-34954819D01*
X79571429Y-33954819D02*
X80190476Y-33954819D01*
X80190476Y-33954819D02*
X79857143Y-34335771D01*
X79857143Y-34335771D02*
X80000000Y-34335771D01*
X80000000Y-34335771D02*
X80095238Y-34383390D01*
X80095238Y-34383390D02*
X80142857Y-34431009D01*
X80142857Y-34431009D02*
X80190476Y-34526247D01*
X80190476Y-34526247D02*
X80190476Y-34764342D01*
X80190476Y-34764342D02*
X80142857Y-34859580D01*
X80142857Y-34859580D02*
X80095238Y-34907200D01*
X80095238Y-34907200D02*
X80000000Y-34954819D01*
X80000000Y-34954819D02*
X79714286Y-34954819D01*
X79714286Y-34954819D02*
X79619048Y-34907200D01*
X79619048Y-34907200D02*
X79571429Y-34859580D01*
X80571429Y-34050057D02*
X80619048Y-34002438D01*
X80619048Y-34002438D02*
X80714286Y-33954819D01*
X80714286Y-33954819D02*
X80952381Y-33954819D01*
X80952381Y-33954819D02*
X81047619Y-34002438D01*
X81047619Y-34002438D02*
X81095238Y-34050057D01*
X81095238Y-34050057D02*
X81142857Y-34145295D01*
X81142857Y-34145295D02*
X81142857Y-34240533D01*
X81142857Y-34240533D02*
X81095238Y-34383390D01*
X81095238Y-34383390D02*
X80523810Y-34954819D01*
X80523810Y-34954819D02*
X81142857Y-34954819D01*
X65238095Y-27204819D02*
X65238095Y-26204819D01*
X65238095Y-26681009D02*
X65809523Y-26681009D01*
X65809523Y-27204819D02*
X65809523Y-26204819D01*
X66761904Y-26204819D02*
X66285714Y-26204819D01*
X66285714Y-26204819D02*
X66238095Y-26681009D01*
X66238095Y-26681009D02*
X66285714Y-26633390D01*
X66285714Y-26633390D02*
X66380952Y-26585771D01*
X66380952Y-26585771D02*
X66619047Y-26585771D01*
X66619047Y-26585771D02*
X66714285Y-26633390D01*
X66714285Y-26633390D02*
X66761904Y-26681009D01*
X66761904Y-26681009D02*
X66809523Y-26776247D01*
X66809523Y-26776247D02*
X66809523Y-27014342D01*
X66809523Y-27014342D02*
X66761904Y-27109580D01*
X66761904Y-27109580D02*
X66714285Y-27157200D01*
X66714285Y-27157200D02*
X66619047Y-27204819D01*
X66619047Y-27204819D02*
X66380952Y-27204819D01*
X66380952Y-27204819D02*
X66285714Y-27157200D01*
X66285714Y-27157200D02*
X66238095Y-27109580D01*
X78440476Y-71654819D02*
X78440476Y-72369104D01*
X78440476Y-72369104D02*
X78392857Y-72511961D01*
X78392857Y-72511961D02*
X78297619Y-72607200D01*
X78297619Y-72607200D02*
X78154762Y-72654819D01*
X78154762Y-72654819D02*
X78059524Y-72654819D01*
X78821429Y-71654819D02*
X79440476Y-71654819D01*
X79440476Y-71654819D02*
X79107143Y-72035771D01*
X79107143Y-72035771D02*
X79250000Y-72035771D01*
X79250000Y-72035771D02*
X79345238Y-72083390D01*
X79345238Y-72083390D02*
X79392857Y-72131009D01*
X79392857Y-72131009D02*
X79440476Y-72226247D01*
X79440476Y-72226247D02*
X79440476Y-72464342D01*
X79440476Y-72464342D02*
X79392857Y-72559580D01*
X79392857Y-72559580D02*
X79345238Y-72607200D01*
X79345238Y-72607200D02*
X79250000Y-72654819D01*
X79250000Y-72654819D02*
X78964286Y-72654819D01*
X78964286Y-72654819D02*
X78869048Y-72607200D01*
X78869048Y-72607200D02*
X78821429Y-72559580D01*
X80392857Y-72654819D02*
X79821429Y-72654819D01*
X80107143Y-72654819D02*
X80107143Y-71654819D01*
X80107143Y-71654819D02*
X80011905Y-71797676D01*
X80011905Y-71797676D02*
X79916667Y-71892914D01*
X79916667Y-71892914D02*
X79821429Y-71940533D01*
X93261905Y-42704819D02*
X93261905Y-41704819D01*
X93261905Y-41704819D02*
X93500000Y-41704819D01*
X93500000Y-41704819D02*
X93642857Y-41752438D01*
X93642857Y-41752438D02*
X93738095Y-41847676D01*
X93738095Y-41847676D02*
X93785714Y-41942914D01*
X93785714Y-41942914D02*
X93833333Y-42133390D01*
X93833333Y-42133390D02*
X93833333Y-42276247D01*
X93833333Y-42276247D02*
X93785714Y-42466723D01*
X93785714Y-42466723D02*
X93738095Y-42561961D01*
X93738095Y-42561961D02*
X93642857Y-42657200D01*
X93642857Y-42657200D02*
X93500000Y-42704819D01*
X93500000Y-42704819D02*
X93261905Y-42704819D01*
X94214286Y-41800057D02*
X94261905Y-41752438D01*
X94261905Y-41752438D02*
X94357143Y-41704819D01*
X94357143Y-41704819D02*
X94595238Y-41704819D01*
X94595238Y-41704819D02*
X94690476Y-41752438D01*
X94690476Y-41752438D02*
X94738095Y-41800057D01*
X94738095Y-41800057D02*
X94785714Y-41895295D01*
X94785714Y-41895295D02*
X94785714Y-41990533D01*
X94785714Y-41990533D02*
X94738095Y-42133390D01*
X94738095Y-42133390D02*
X94166667Y-42704819D01*
X94166667Y-42704819D02*
X94785714Y-42704819D01*
X90027142Y-47424819D02*
X89455714Y-47424819D01*
X89741428Y-47424819D02*
X89741428Y-46424819D01*
X89741428Y-46424819D02*
X89646190Y-46567676D01*
X89646190Y-46567676D02*
X89550952Y-46662914D01*
X89550952Y-46662914D02*
X89455714Y-46710533D01*
X90455714Y-47424819D02*
X90455714Y-46424819D01*
X90455714Y-46424819D02*
X91027142Y-47424819D01*
X91027142Y-47424819D02*
X91027142Y-46424819D01*
X91931904Y-46758152D02*
X91931904Y-47424819D01*
X91693809Y-46377200D02*
X91455714Y-47091485D01*
X91455714Y-47091485D02*
X92074761Y-47091485D01*
X92646190Y-46424819D02*
X92741428Y-46424819D01*
X92741428Y-46424819D02*
X92836666Y-46472438D01*
X92836666Y-46472438D02*
X92884285Y-46520057D01*
X92884285Y-46520057D02*
X92931904Y-46615295D01*
X92931904Y-46615295D02*
X92979523Y-46805771D01*
X92979523Y-46805771D02*
X92979523Y-47043866D01*
X92979523Y-47043866D02*
X92931904Y-47234342D01*
X92931904Y-47234342D02*
X92884285Y-47329580D01*
X92884285Y-47329580D02*
X92836666Y-47377200D01*
X92836666Y-47377200D02*
X92741428Y-47424819D01*
X92741428Y-47424819D02*
X92646190Y-47424819D01*
X92646190Y-47424819D02*
X92550952Y-47377200D01*
X92550952Y-47377200D02*
X92503333Y-47329580D01*
X92503333Y-47329580D02*
X92455714Y-47234342D01*
X92455714Y-47234342D02*
X92408095Y-47043866D01*
X92408095Y-47043866D02*
X92408095Y-46805771D01*
X92408095Y-46805771D02*
X92455714Y-46615295D01*
X92455714Y-46615295D02*
X92503333Y-46520057D01*
X92503333Y-46520057D02*
X92550952Y-46472438D01*
X92550952Y-46472438D02*
X92646190Y-46424819D01*
X93598571Y-46424819D02*
X93693809Y-46424819D01*
X93693809Y-46424819D02*
X93789047Y-46472438D01*
X93789047Y-46472438D02*
X93836666Y-46520057D01*
X93836666Y-46520057D02*
X93884285Y-46615295D01*
X93884285Y-46615295D02*
X93931904Y-46805771D01*
X93931904Y-46805771D02*
X93931904Y-47043866D01*
X93931904Y-47043866D02*
X93884285Y-47234342D01*
X93884285Y-47234342D02*
X93836666Y-47329580D01*
X93836666Y-47329580D02*
X93789047Y-47377200D01*
X93789047Y-47377200D02*
X93693809Y-47424819D01*
X93693809Y-47424819D02*
X93598571Y-47424819D01*
X93598571Y-47424819D02*
X93503333Y-47377200D01*
X93503333Y-47377200D02*
X93455714Y-47329580D01*
X93455714Y-47329580D02*
X93408095Y-47234342D01*
X93408095Y-47234342D02*
X93360476Y-47043866D01*
X93360476Y-47043866D02*
X93360476Y-46805771D01*
X93360476Y-46805771D02*
X93408095Y-46615295D01*
X93408095Y-46615295D02*
X93455714Y-46520057D01*
X93455714Y-46520057D02*
X93503333Y-46472438D01*
X93503333Y-46472438D02*
X93598571Y-46424819D01*
X94884285Y-47424819D02*
X94312857Y-47424819D01*
X94598571Y-47424819D02*
X94598571Y-46424819D01*
X94598571Y-46424819D02*
X94503333Y-46567676D01*
X94503333Y-46567676D02*
X94408095Y-46662914D01*
X94408095Y-46662914D02*
X94312857Y-46710533D01*
X86828095Y-42854819D02*
X86828095Y-41854819D01*
X87399523Y-42854819D02*
X86970952Y-42283390D01*
X87399523Y-41854819D02*
X86828095Y-42426247D01*
X81609580Y-37166666D02*
X81657200Y-37214285D01*
X81657200Y-37214285D02*
X81704819Y-37357142D01*
X81704819Y-37357142D02*
X81704819Y-37452380D01*
X81704819Y-37452380D02*
X81657200Y-37595237D01*
X81657200Y-37595237D02*
X81561961Y-37690475D01*
X81561961Y-37690475D02*
X81466723Y-37738094D01*
X81466723Y-37738094D02*
X81276247Y-37785713D01*
X81276247Y-37785713D02*
X81133390Y-37785713D01*
X81133390Y-37785713D02*
X80942914Y-37738094D01*
X80942914Y-37738094D02*
X80847676Y-37690475D01*
X80847676Y-37690475D02*
X80752438Y-37595237D01*
X80752438Y-37595237D02*
X80704819Y-37452380D01*
X80704819Y-37452380D02*
X80704819Y-37357142D01*
X80704819Y-37357142D02*
X80752438Y-37214285D01*
X80752438Y-37214285D02*
X80800057Y-37166666D01*
X80704819Y-36833332D02*
X80704819Y-36214285D01*
X80704819Y-36214285D02*
X81085771Y-36547618D01*
X81085771Y-36547618D02*
X81085771Y-36404761D01*
X81085771Y-36404761D02*
X81133390Y-36309523D01*
X81133390Y-36309523D02*
X81181009Y-36261904D01*
X81181009Y-36261904D02*
X81276247Y-36214285D01*
X81276247Y-36214285D02*
X81514342Y-36214285D01*
X81514342Y-36214285D02*
X81609580Y-36261904D01*
X81609580Y-36261904D02*
X81657200Y-36309523D01*
X81657200Y-36309523D02*
X81704819Y-36404761D01*
X81704819Y-36404761D02*
X81704819Y-36690475D01*
X81704819Y-36690475D02*
X81657200Y-36785713D01*
X81657200Y-36785713D02*
X81609580Y-36833332D01*
X91738095Y-26954819D02*
X91738095Y-25954819D01*
X91738095Y-26431009D02*
X92309523Y-26431009D01*
X92309523Y-26954819D02*
X92309523Y-25954819D01*
X93214285Y-25954819D02*
X93023809Y-25954819D01*
X93023809Y-25954819D02*
X92928571Y-26002438D01*
X92928571Y-26002438D02*
X92880952Y-26050057D01*
X92880952Y-26050057D02*
X92785714Y-26192914D01*
X92785714Y-26192914D02*
X92738095Y-26383390D01*
X92738095Y-26383390D02*
X92738095Y-26764342D01*
X92738095Y-26764342D02*
X92785714Y-26859580D01*
X92785714Y-26859580D02*
X92833333Y-26907200D01*
X92833333Y-26907200D02*
X92928571Y-26954819D01*
X92928571Y-26954819D02*
X93119047Y-26954819D01*
X93119047Y-26954819D02*
X93214285Y-26907200D01*
X93214285Y-26907200D02*
X93261904Y-26859580D01*
X93261904Y-26859580D02*
X93309523Y-26764342D01*
X93309523Y-26764342D02*
X93309523Y-26526247D01*
X93309523Y-26526247D02*
X93261904Y-26431009D01*
X93261904Y-26431009D02*
X93214285Y-26383390D01*
X93214285Y-26383390D02*
X93119047Y-26335771D01*
X93119047Y-26335771D02*
X92928571Y-26335771D01*
X92928571Y-26335771D02*
X92833333Y-26383390D01*
X92833333Y-26383390D02*
X92785714Y-26431009D01*
X92785714Y-26431009D02*
X92738095Y-26526247D01*
X72083333Y-33859580D02*
X72035714Y-33907200D01*
X72035714Y-33907200D02*
X71892857Y-33954819D01*
X71892857Y-33954819D02*
X71797619Y-33954819D01*
X71797619Y-33954819D02*
X71654762Y-33907200D01*
X71654762Y-33907200D02*
X71559524Y-33811961D01*
X71559524Y-33811961D02*
X71511905Y-33716723D01*
X71511905Y-33716723D02*
X71464286Y-33526247D01*
X71464286Y-33526247D02*
X71464286Y-33383390D01*
X71464286Y-33383390D02*
X71511905Y-33192914D01*
X71511905Y-33192914D02*
X71559524Y-33097676D01*
X71559524Y-33097676D02*
X71654762Y-33002438D01*
X71654762Y-33002438D02*
X71797619Y-32954819D01*
X71797619Y-32954819D02*
X71892857Y-32954819D01*
X71892857Y-32954819D02*
X72035714Y-33002438D01*
X72035714Y-33002438D02*
X72083333Y-33050057D01*
X72940476Y-33288152D02*
X72940476Y-33954819D01*
X72702381Y-32907200D02*
X72464286Y-33621485D01*
X72464286Y-33621485D02*
X73083333Y-33621485D01*
X78980476Y-61624819D02*
X78980476Y-62339104D01*
X78980476Y-62339104D02*
X78932857Y-62481961D01*
X78932857Y-62481961D02*
X78837619Y-62577200D01*
X78837619Y-62577200D02*
X78694762Y-62624819D01*
X78694762Y-62624819D02*
X78599524Y-62624819D01*
X79980476Y-62624819D02*
X79409048Y-62624819D01*
X79694762Y-62624819D02*
X79694762Y-61624819D01*
X79694762Y-61624819D02*
X79599524Y-61767676D01*
X79599524Y-61767676D02*
X79504286Y-61862914D01*
X79504286Y-61862914D02*
X79409048Y-61910533D01*
X80313810Y-61624819D02*
X80932857Y-61624819D01*
X80932857Y-61624819D02*
X80599524Y-62005771D01*
X80599524Y-62005771D02*
X80742381Y-62005771D01*
X80742381Y-62005771D02*
X80837619Y-62053390D01*
X80837619Y-62053390D02*
X80885238Y-62101009D01*
X80885238Y-62101009D02*
X80932857Y-62196247D01*
X80932857Y-62196247D02*
X80932857Y-62434342D01*
X80932857Y-62434342D02*
X80885238Y-62529580D01*
X80885238Y-62529580D02*
X80837619Y-62577200D01*
X80837619Y-62577200D02*
X80742381Y-62624819D01*
X80742381Y-62624819D02*
X80456667Y-62624819D01*
X80456667Y-62624819D02*
X80361429Y-62577200D01*
X80361429Y-62577200D02*
X80313810Y-62529580D01*
X89299580Y-53526666D02*
X89347200Y-53574285D01*
X89347200Y-53574285D02*
X89394819Y-53717142D01*
X89394819Y-53717142D02*
X89394819Y-53812380D01*
X89394819Y-53812380D02*
X89347200Y-53955237D01*
X89347200Y-53955237D02*
X89251961Y-54050475D01*
X89251961Y-54050475D02*
X89156723Y-54098094D01*
X89156723Y-54098094D02*
X88966247Y-54145713D01*
X88966247Y-54145713D02*
X88823390Y-54145713D01*
X88823390Y-54145713D02*
X88632914Y-54098094D01*
X88632914Y-54098094D02*
X88537676Y-54050475D01*
X88537676Y-54050475D02*
X88442438Y-53955237D01*
X88442438Y-53955237D02*
X88394819Y-53812380D01*
X88394819Y-53812380D02*
X88394819Y-53717142D01*
X88394819Y-53717142D02*
X88442438Y-53574285D01*
X88442438Y-53574285D02*
X88490057Y-53526666D01*
X89394819Y-52574285D02*
X89394819Y-53145713D01*
X89394819Y-52859999D02*
X88394819Y-52859999D01*
X88394819Y-52859999D02*
X88537676Y-52955237D01*
X88537676Y-52955237D02*
X88632914Y-53050475D01*
X88632914Y-53050475D02*
X88680533Y-53145713D01*
X62632557Y-41885238D02*
X62584938Y-41980476D01*
X62584938Y-41980476D02*
X62489700Y-42075714D01*
X62489700Y-42075714D02*
X62346842Y-42218571D01*
X62346842Y-42218571D02*
X62299223Y-42313809D01*
X62299223Y-42313809D02*
X62299223Y-42409047D01*
X62537319Y-42361428D02*
X62489700Y-42456666D01*
X62489700Y-42456666D02*
X62394461Y-42551904D01*
X62394461Y-42551904D02*
X62203985Y-42599523D01*
X62203985Y-42599523D02*
X61870652Y-42599523D01*
X61870652Y-42599523D02*
X61680176Y-42551904D01*
X61680176Y-42551904D02*
X61584938Y-42456666D01*
X61584938Y-42456666D02*
X61537319Y-42361428D01*
X61537319Y-42361428D02*
X61537319Y-42170952D01*
X61537319Y-42170952D02*
X61584938Y-42075714D01*
X61584938Y-42075714D02*
X61680176Y-41980476D01*
X61680176Y-41980476D02*
X61870652Y-41932857D01*
X61870652Y-41932857D02*
X62203985Y-41932857D01*
X62203985Y-41932857D02*
X62394461Y-41980476D01*
X62394461Y-41980476D02*
X62489700Y-42075714D01*
X62489700Y-42075714D02*
X62537319Y-42170952D01*
X62537319Y-42170952D02*
X62537319Y-42361428D01*
X62537319Y-40980476D02*
X62537319Y-41551904D01*
X62537319Y-41266190D02*
X61537319Y-41266190D01*
X61537319Y-41266190D02*
X61680176Y-41361428D01*
X61680176Y-41361428D02*
X61775414Y-41456666D01*
X61775414Y-41456666D02*
X61823033Y-41551904D01*
X69607319Y-44885237D02*
X68607319Y-44885237D01*
X69607319Y-43837619D02*
X69131128Y-44170952D01*
X69607319Y-44409047D02*
X68607319Y-44409047D01*
X68607319Y-44409047D02*
X68607319Y-44028095D01*
X68607319Y-44028095D02*
X68654938Y-43932857D01*
X68654938Y-43932857D02*
X68702557Y-43885238D01*
X68702557Y-43885238D02*
X68797795Y-43837619D01*
X68797795Y-43837619D02*
X68940652Y-43837619D01*
X68940652Y-43837619D02*
X69035890Y-43885238D01*
X69035890Y-43885238D02*
X69083509Y-43932857D01*
X69083509Y-43932857D02*
X69131128Y-44028095D01*
X69131128Y-44028095D02*
X69131128Y-44409047D01*
X69607319Y-42932857D02*
X69607319Y-43409047D01*
X69607319Y-43409047D02*
X68607319Y-43409047D01*
X69607319Y-42599523D02*
X68607319Y-42599523D01*
X68607319Y-42218571D02*
X68607319Y-41551905D01*
X68607319Y-41551905D02*
X69607319Y-42218571D01*
X69607319Y-42218571D02*
X69607319Y-41551905D01*
X68940652Y-40742381D02*
X69607319Y-40742381D01*
X68559700Y-40980476D02*
X69273985Y-41218571D01*
X69273985Y-41218571D02*
X69273985Y-40599524D01*
X68940652Y-39790000D02*
X69607319Y-39790000D01*
X68559700Y-40028095D02*
X69273985Y-40266190D01*
X69273985Y-40266190D02*
X69273985Y-39647143D01*
X69607319Y-39266190D02*
X68607319Y-39266190D01*
X68607319Y-39266190D02*
X69607319Y-38694762D01*
X69607319Y-38694762D02*
X68607319Y-38694762D01*
X61488095Y-73154819D02*
X61488095Y-72154819D01*
X61488095Y-72631009D02*
X62059523Y-72631009D01*
X62059523Y-73154819D02*
X62059523Y-72154819D01*
X62440476Y-72154819D02*
X63107142Y-72154819D01*
X63107142Y-72154819D02*
X62678571Y-73154819D01*
X93730476Y-61624819D02*
X93730476Y-62339104D01*
X93730476Y-62339104D02*
X93682857Y-62481961D01*
X93682857Y-62481961D02*
X93587619Y-62577200D01*
X93587619Y-62577200D02*
X93444762Y-62624819D01*
X93444762Y-62624819D02*
X93349524Y-62624819D01*
X94730476Y-62624819D02*
X94159048Y-62624819D01*
X94444762Y-62624819D02*
X94444762Y-61624819D01*
X94444762Y-61624819D02*
X94349524Y-61767676D01*
X94349524Y-61767676D02*
X94254286Y-61862914D01*
X94254286Y-61862914D02*
X94159048Y-61910533D01*
X95587619Y-61958152D02*
X95587619Y-62624819D01*
X95349524Y-61577200D02*
X95111429Y-62291485D01*
X95111429Y-62291485D02*
X95730476Y-62291485D01*
X82949580Y-53506666D02*
X82997200Y-53554285D01*
X82997200Y-53554285D02*
X83044819Y-53697142D01*
X83044819Y-53697142D02*
X83044819Y-53792380D01*
X83044819Y-53792380D02*
X82997200Y-53935237D01*
X82997200Y-53935237D02*
X82901961Y-54030475D01*
X82901961Y-54030475D02*
X82806723Y-54078094D01*
X82806723Y-54078094D02*
X82616247Y-54125713D01*
X82616247Y-54125713D02*
X82473390Y-54125713D01*
X82473390Y-54125713D02*
X82282914Y-54078094D01*
X82282914Y-54078094D02*
X82187676Y-54030475D01*
X82187676Y-54030475D02*
X82092438Y-53935237D01*
X82092438Y-53935237D02*
X82044819Y-53792380D01*
X82044819Y-53792380D02*
X82044819Y-53697142D01*
X82044819Y-53697142D02*
X82092438Y-53554285D01*
X82092438Y-53554285D02*
X82140057Y-53506666D01*
X82140057Y-53125713D02*
X82092438Y-53078094D01*
X82092438Y-53078094D02*
X82044819Y-52982856D01*
X82044819Y-52982856D02*
X82044819Y-52744761D01*
X82044819Y-52744761D02*
X82092438Y-52649523D01*
X82092438Y-52649523D02*
X82140057Y-52601904D01*
X82140057Y-52601904D02*
X82235295Y-52554285D01*
X82235295Y-52554285D02*
X82330533Y-52554285D01*
X82330533Y-52554285D02*
X82473390Y-52601904D01*
X82473390Y-52601904D02*
X83044819Y-53173332D01*
X83044819Y-53173332D02*
X83044819Y-52554285D01*
X82238095Y-40954819D02*
X82238095Y-41764342D01*
X82238095Y-41764342D02*
X82285714Y-41859580D01*
X82285714Y-41859580D02*
X82333333Y-41907200D01*
X82333333Y-41907200D02*
X82428571Y-41954819D01*
X82428571Y-41954819D02*
X82619047Y-41954819D01*
X82619047Y-41954819D02*
X82714285Y-41907200D01*
X82714285Y-41907200D02*
X82761904Y-41859580D01*
X82761904Y-41859580D02*
X82809523Y-41764342D01*
X82809523Y-41764342D02*
X82809523Y-40954819D01*
X83809523Y-41954819D02*
X83238095Y-41954819D01*
X83523809Y-41954819D02*
X83523809Y-40954819D01*
X83523809Y-40954819D02*
X83428571Y-41097676D01*
X83428571Y-41097676D02*
X83333333Y-41192914D01*
X83333333Y-41192914D02*
X83238095Y-41240533D01*
X74153333Y-50414819D02*
X74153333Y-49414819D01*
X74153333Y-49414819D02*
X74724761Y-50414819D01*
X74724761Y-50414819D02*
X74724761Y-49414819D01*
X75200952Y-49891009D02*
X75534285Y-49891009D01*
X75677142Y-50414819D02*
X75200952Y-50414819D01*
X75200952Y-50414819D02*
X75200952Y-49414819D01*
X75200952Y-49414819D02*
X75677142Y-49414819D01*
X76581904Y-49414819D02*
X76105714Y-49414819D01*
X76105714Y-49414819D02*
X76058095Y-49891009D01*
X76058095Y-49891009D02*
X76105714Y-49843390D01*
X76105714Y-49843390D02*
X76200952Y-49795771D01*
X76200952Y-49795771D02*
X76439047Y-49795771D01*
X76439047Y-49795771D02*
X76534285Y-49843390D01*
X76534285Y-49843390D02*
X76581904Y-49891009D01*
X76581904Y-49891009D02*
X76629523Y-49986247D01*
X76629523Y-49986247D02*
X76629523Y-50224342D01*
X76629523Y-50224342D02*
X76581904Y-50319580D01*
X76581904Y-50319580D02*
X76534285Y-50367200D01*
X76534285Y-50367200D02*
X76439047Y-50414819D01*
X76439047Y-50414819D02*
X76200952Y-50414819D01*
X76200952Y-50414819D02*
X76105714Y-50367200D01*
X76105714Y-50367200D02*
X76058095Y-50319580D01*
X77534285Y-49414819D02*
X77058095Y-49414819D01*
X77058095Y-49414819D02*
X77010476Y-49891009D01*
X77010476Y-49891009D02*
X77058095Y-49843390D01*
X77058095Y-49843390D02*
X77153333Y-49795771D01*
X77153333Y-49795771D02*
X77391428Y-49795771D01*
X77391428Y-49795771D02*
X77486666Y-49843390D01*
X77486666Y-49843390D02*
X77534285Y-49891009D01*
X77534285Y-49891009D02*
X77581904Y-49986247D01*
X77581904Y-49986247D02*
X77581904Y-50224342D01*
X77581904Y-50224342D02*
X77534285Y-50319580D01*
X77534285Y-50319580D02*
X77486666Y-50367200D01*
X77486666Y-50367200D02*
X77391428Y-50414819D01*
X77391428Y-50414819D02*
X77153333Y-50414819D01*
X77153333Y-50414819D02*
X77058095Y-50367200D01*
X77058095Y-50367200D02*
X77010476Y-50319580D01*
X78486666Y-49414819D02*
X78010476Y-49414819D01*
X78010476Y-49414819D02*
X77962857Y-49891009D01*
X77962857Y-49891009D02*
X78010476Y-49843390D01*
X78010476Y-49843390D02*
X78105714Y-49795771D01*
X78105714Y-49795771D02*
X78343809Y-49795771D01*
X78343809Y-49795771D02*
X78439047Y-49843390D01*
X78439047Y-49843390D02*
X78486666Y-49891009D01*
X78486666Y-49891009D02*
X78534285Y-49986247D01*
X78534285Y-49986247D02*
X78534285Y-50224342D01*
X78534285Y-50224342D02*
X78486666Y-50319580D01*
X78486666Y-50319580D02*
X78439047Y-50367200D01*
X78439047Y-50367200D02*
X78343809Y-50414819D01*
X78343809Y-50414819D02*
X78105714Y-50414819D01*
X78105714Y-50414819D02*
X78010476Y-50367200D01*
X78010476Y-50367200D02*
X77962857Y-50319580D01*
X78962857Y-50414819D02*
X78962857Y-49414819D01*
X78962857Y-49414819D02*
X79343809Y-49414819D01*
X79343809Y-49414819D02*
X79439047Y-49462438D01*
X79439047Y-49462438D02*
X79486666Y-49510057D01*
X79486666Y-49510057D02*
X79534285Y-49605295D01*
X79534285Y-49605295D02*
X79534285Y-49748152D01*
X79534285Y-49748152D02*
X79486666Y-49843390D01*
X79486666Y-49843390D02*
X79439047Y-49891009D01*
X79439047Y-49891009D02*
X79343809Y-49938628D01*
X79343809Y-49938628D02*
X78962857Y-49938628D01*
X65480476Y-61624819D02*
X65480476Y-62339104D01*
X65480476Y-62339104D02*
X65432857Y-62481961D01*
X65432857Y-62481961D02*
X65337619Y-62577200D01*
X65337619Y-62577200D02*
X65194762Y-62624819D01*
X65194762Y-62624819D02*
X65099524Y-62624819D01*
X66480476Y-62624819D02*
X65909048Y-62624819D01*
X66194762Y-62624819D02*
X66194762Y-61624819D01*
X66194762Y-61624819D02*
X66099524Y-61767676D01*
X66099524Y-61767676D02*
X66004286Y-61862914D01*
X66004286Y-61862914D02*
X65909048Y-61910533D01*
X66861429Y-61720057D02*
X66909048Y-61672438D01*
X66909048Y-61672438D02*
X67004286Y-61624819D01*
X67004286Y-61624819D02*
X67242381Y-61624819D01*
X67242381Y-61624819D02*
X67337619Y-61672438D01*
X67337619Y-61672438D02*
X67385238Y-61720057D01*
X67385238Y-61720057D02*
X67432857Y-61815295D01*
X67432857Y-61815295D02*
X67432857Y-61910533D01*
X67432857Y-61910533D02*
X67385238Y-62053390D01*
X67385238Y-62053390D02*
X66813810Y-62624819D01*
X66813810Y-62624819D02*
X67432857Y-62624819D01*
D11*
%TO.C,R2*%
X74520000Y-56370000D02*
X67980000Y-56370000D01*
X74520000Y-56040000D02*
X74520000Y-56370000D01*
X74520000Y-53960000D02*
X74520000Y-53630000D01*
X74520000Y-53630000D02*
X67980000Y-53630000D01*
X67980000Y-56370000D02*
X67980000Y-56040000D01*
X67980000Y-53630000D02*
X67980000Y-53960000D01*
%TO.C,R1*%
X74710000Y-61120000D02*
X68170000Y-61120000D01*
X74710000Y-60790000D02*
X74710000Y-61120000D01*
X74710000Y-58710000D02*
X74710000Y-58380000D01*
X74710000Y-58380000D02*
X68170000Y-58380000D01*
X68170000Y-61120000D02*
X68170000Y-60790000D01*
X68170000Y-58380000D02*
X68170000Y-58710000D01*
%TO.C,D1*%
X95815000Y-39370000D02*
X94795000Y-39370000D01*
X94795000Y-40840000D02*
X94795000Y-37900000D01*
X94795000Y-37900000D02*
X89355000Y-37900000D01*
X94015000Y-40840000D02*
X94015000Y-37900000D01*
X93895000Y-40840000D02*
X93895000Y-37900000D01*
X93775000Y-40840000D02*
X93775000Y-37900000D01*
X89355000Y-40840000D02*
X94795000Y-40840000D01*
X89355000Y-37900000D02*
X89355000Y-40840000D01*
X88335000Y-39370000D02*
X89355000Y-39370000D01*
%TO.C,J32*%
X84290000Y-33060000D02*
X84290000Y-25440000D01*
X84290000Y-25440000D02*
X74130000Y-25440000D01*
X74130000Y-33060000D02*
X84290000Y-33060000D01*
X74130000Y-26710000D02*
X84290000Y-26710000D01*
X74130000Y-25440000D02*
X74130000Y-33060000D01*
%TO.C,J31*%
X73840000Y-75110000D02*
X73840000Y-77610000D01*
X73840000Y-77610000D02*
X76340000Y-77610000D01*
X74140000Y-73290000D02*
X74140000Y-77310000D01*
X74140000Y-75000000D02*
X74640000Y-75000000D01*
X74140000Y-75810000D02*
X75140000Y-75810000D01*
X74140000Y-77310000D02*
X84360000Y-77310000D01*
X74640000Y-73790000D02*
X83860000Y-73790000D01*
X74640000Y-75000000D02*
X74640000Y-73790000D01*
X75140000Y-75810000D02*
X75140000Y-77310000D01*
X83360000Y-75810000D02*
X83360000Y-77310000D01*
X83860000Y-73790000D02*
X83860000Y-75000000D01*
X83860000Y-75000000D02*
X84360000Y-75000000D01*
X84360000Y-73290000D02*
X74140000Y-73290000D01*
X84360000Y-75810000D02*
X83360000Y-75810000D01*
X84360000Y-77310000D02*
X84360000Y-73290000D01*
%TO.C,D2*%
X88430000Y-44500000D02*
X89450000Y-44500000D01*
X89450000Y-43030000D02*
X89450000Y-45970000D01*
X89450000Y-45970000D02*
X94890000Y-45970000D01*
X90230000Y-43030000D02*
X90230000Y-45970000D01*
X90350000Y-43030000D02*
X90350000Y-45970000D01*
X90470000Y-43030000D02*
X90470000Y-45970000D01*
X94890000Y-43030000D02*
X89450000Y-43030000D01*
X94890000Y-45970000D02*
X94890000Y-43030000D01*
X95910000Y-44500000D02*
X94890000Y-44500000D01*
%TO.C,C3*%
X82380000Y-39620000D02*
X85120000Y-39620000D01*
X82380000Y-39620000D02*
X82380000Y-34380000D01*
X85120000Y-39620000D02*
X85120000Y-34380000D01*
X82380000Y-34380000D02*
X85120000Y-34380000D01*
%TO.C,C4*%
X72880000Y-34380000D02*
X72880000Y-37120000D01*
X72880000Y-34380000D02*
X78120000Y-34380000D01*
X72880000Y-37120000D02*
X78120000Y-37120000D01*
X78120000Y-34380000D02*
X78120000Y-37120000D01*
%TO.C,J13*%
X74710000Y-63440000D02*
X74710000Y-71060000D01*
X74710000Y-71060000D02*
X84870000Y-71060000D01*
X84870000Y-63440000D02*
X74710000Y-63440000D01*
X84870000Y-69790000D02*
X74710000Y-69790000D01*
X84870000Y-71060000D02*
X84870000Y-63440000D01*
%TO.C,C1*%
X90070000Y-55980000D02*
X92810000Y-55980000D01*
X90070000Y-55980000D02*
X90070000Y-50740000D01*
X92810000Y-55980000D02*
X92810000Y-50740000D01*
X90070000Y-50740000D02*
X92810000Y-50740000D01*
%TO.C,Q1*%
X63082000Y-47040000D02*
X68023000Y-47040000D01*
X63082000Y-47040000D02*
X63082000Y-36540000D01*
X65842000Y-47040000D02*
X65842000Y-45433000D01*
X68023000Y-47040000D02*
X68023000Y-36540000D01*
X63082000Y-43640000D02*
X65100000Y-43640000D01*
X65842000Y-43227000D02*
X65842000Y-42892000D01*
X65842000Y-40687000D02*
X65842000Y-40352000D01*
X63082000Y-39939000D02*
X65100000Y-39939000D01*
X65842000Y-38147000D02*
X65842000Y-36540000D01*
X63082000Y-36540000D02*
X68023000Y-36540000D01*
%TO.C,J14*%
X89460000Y-63440000D02*
X89460000Y-71060000D01*
X89460000Y-71060000D02*
X99620000Y-71060000D01*
X99620000Y-63440000D02*
X89460000Y-63440000D01*
X99620000Y-69790000D02*
X89460000Y-69790000D01*
X99620000Y-71060000D02*
X99620000Y-63440000D01*
%TO.C,C2*%
X83720000Y-55960000D02*
X86460000Y-55960000D01*
X83720000Y-55960000D02*
X83720000Y-50720000D01*
X86460000Y-55960000D02*
X86460000Y-50720000D01*
X83720000Y-50720000D02*
X86460000Y-50720000D01*
D12*
%TO.C,U1*%
X73280000Y-38430000D02*
X73580000Y-38430000D01*
X73280000Y-38730000D02*
X73280000Y-38430000D01*
X73280000Y-48130000D02*
X73280000Y-48430000D01*
X73280000Y-48430000D02*
X73580000Y-48430000D01*
X80080000Y-38430000D02*
X79780000Y-38430000D01*
X80080000Y-38730000D02*
X80080000Y-38430000D01*
X80080000Y-48130000D02*
X80080000Y-48430000D01*
X80080000Y-48430000D02*
X79780000Y-48430000D01*
D11*
%TO.C,J12*%
X61210000Y-63440000D02*
X61210000Y-71060000D01*
X61210000Y-71060000D02*
X71370000Y-71060000D01*
X71370000Y-63440000D02*
X61210000Y-63440000D01*
X71370000Y-69790000D02*
X61210000Y-69790000D01*
X71370000Y-71060000D02*
X71370000Y-63440000D01*
%TD*%
M02*
