%TF.GenerationSoftware,KiCad,Pcbnew,7.0.9*%
%TF.CreationDate,2024-03-13T22:20:56+01:00*%
%TF.ProjectId,Backlighting_PCB,4261636b-6c69-4676-9874-696e675f5043,rev?*%
%TF.SameCoordinates,Original*%
%TF.FileFunction,Drillmap*%
%TF.FilePolarity,Positive*%
%FSLAX45Y45*%
G04 Gerber Fmt 4.5, Leading zero omitted, Abs format (unit mm)*
G04 Created by KiCad (PCBNEW 7.0.9) date 2024-03-13 22:20:56*
%MOMM*%
%LPD*%
G01*
G04 APERTURE LIST*
%ADD10C,0.100000*%
%ADD11C,0.200000*%
G04 APERTURE END LIST*
D10*
X5750000Y-2500000D02*
X10075000Y-2500000D01*
X10075000Y-8000000D01*
X5750000Y-8000000D01*
X5750000Y-2500000D01*
D11*
X6005777Y-8316484D02*
X6005777Y-8116484D01*
X6005777Y-8116484D02*
X6053396Y-8116484D01*
X6053396Y-8116484D02*
X6081967Y-8126008D01*
X6081967Y-8126008D02*
X6101015Y-8145055D01*
X6101015Y-8145055D02*
X6110539Y-8164103D01*
X6110539Y-8164103D02*
X6120062Y-8202198D01*
X6120062Y-8202198D02*
X6120062Y-8230769D01*
X6120062Y-8230769D02*
X6110539Y-8268865D01*
X6110539Y-8268865D02*
X6101015Y-8287912D01*
X6101015Y-8287912D02*
X6081967Y-8306960D01*
X6081967Y-8306960D02*
X6053396Y-8316484D01*
X6053396Y-8316484D02*
X6005777Y-8316484D01*
X6205777Y-8316484D02*
X6205777Y-8183150D01*
X6205777Y-8221246D02*
X6215301Y-8202198D01*
X6215301Y-8202198D02*
X6224824Y-8192674D01*
X6224824Y-8192674D02*
X6243872Y-8183150D01*
X6243872Y-8183150D02*
X6262920Y-8183150D01*
X6329586Y-8316484D02*
X6329586Y-8183150D01*
X6329586Y-8116484D02*
X6320062Y-8126008D01*
X6320062Y-8126008D02*
X6329586Y-8135531D01*
X6329586Y-8135531D02*
X6339110Y-8126008D01*
X6339110Y-8126008D02*
X6329586Y-8116484D01*
X6329586Y-8116484D02*
X6329586Y-8135531D01*
X6453396Y-8316484D02*
X6434348Y-8306960D01*
X6434348Y-8306960D02*
X6424824Y-8287912D01*
X6424824Y-8287912D02*
X6424824Y-8116484D01*
X6558158Y-8316484D02*
X6539110Y-8306960D01*
X6539110Y-8306960D02*
X6529586Y-8287912D01*
X6529586Y-8287912D02*
X6529586Y-8116484D01*
X6786729Y-8316484D02*
X6786729Y-8116484D01*
X6786729Y-8116484D02*
X6853396Y-8259341D01*
X6853396Y-8259341D02*
X6920062Y-8116484D01*
X6920062Y-8116484D02*
X6920062Y-8316484D01*
X7101015Y-8316484D02*
X7101015Y-8211722D01*
X7101015Y-8211722D02*
X7091491Y-8192674D01*
X7091491Y-8192674D02*
X7072443Y-8183150D01*
X7072443Y-8183150D02*
X7034348Y-8183150D01*
X7034348Y-8183150D02*
X7015301Y-8192674D01*
X7101015Y-8306960D02*
X7081967Y-8316484D01*
X7081967Y-8316484D02*
X7034348Y-8316484D01*
X7034348Y-8316484D02*
X7015301Y-8306960D01*
X7015301Y-8306960D02*
X7005777Y-8287912D01*
X7005777Y-8287912D02*
X7005777Y-8268865D01*
X7005777Y-8268865D02*
X7015301Y-8249817D01*
X7015301Y-8249817D02*
X7034348Y-8240293D01*
X7034348Y-8240293D02*
X7081967Y-8240293D01*
X7081967Y-8240293D02*
X7101015Y-8230769D01*
X7196253Y-8183150D02*
X7196253Y-8383150D01*
X7196253Y-8192674D02*
X7215301Y-8183150D01*
X7215301Y-8183150D02*
X7253396Y-8183150D01*
X7253396Y-8183150D02*
X7272443Y-8192674D01*
X7272443Y-8192674D02*
X7281967Y-8202198D01*
X7281967Y-8202198D02*
X7291491Y-8221246D01*
X7291491Y-8221246D02*
X7291491Y-8278388D01*
X7291491Y-8278388D02*
X7281967Y-8297436D01*
X7281967Y-8297436D02*
X7272443Y-8306960D01*
X7272443Y-8306960D02*
X7253396Y-8316484D01*
X7253396Y-8316484D02*
X7215301Y-8316484D01*
X7215301Y-8316484D02*
X7196253Y-8306960D01*
X7377205Y-8297436D02*
X7386729Y-8306960D01*
X7386729Y-8306960D02*
X7377205Y-8316484D01*
X7377205Y-8316484D02*
X7367682Y-8306960D01*
X7367682Y-8306960D02*
X7377205Y-8297436D01*
X7377205Y-8297436D02*
X7377205Y-8316484D01*
X7377205Y-8192674D02*
X7386729Y-8202198D01*
X7386729Y-8202198D02*
X7377205Y-8211722D01*
X7377205Y-8211722D02*
X7367682Y-8202198D01*
X7367682Y-8202198D02*
X7377205Y-8192674D01*
X7377205Y-8192674D02*
X7377205Y-8211722D01*
M02*
