M48
; DRILL file {KiCad 7.0.9} date Wed Mar 13 22:20:57 2024
; FORMAT={-:-/ absolute / inch / decimal}
; #@! TF.CreationDate,2024-03-13T22:20:57+01:00
; #@! TF.GenerationSoftware,Kicad,Pcbnew,7.0.9
; #@! TF.FileFunction,Plated,1,2,PTH
FMAT,2
INCH
; #@! TA.AperFunction,Plated,PTH,ComponentDrill
T1C0.0315
; #@! TA.AperFunction,Plated,PTH,ComponentDrill
T2C0.0374
; #@! TA.AperFunction,Plated,PTH,ComponentDrill
T3C0.0394
; #@! TA.AperFunction,Plated,PTH,ComponentDrill
T4C0.0433
; #@! TA.AperFunction,Plated,PTH,ComponentDrill
T5C0.0472
; #@! TA.AperFunction,Plated,PTH,ComponentDrill
T6C0.0598
; #@! TA.AperFunction,Plated,PTH,ComponentDrill
T7C0.1260
%
G90
G05
T1
X2.6551Y-2.1654
X2.6626Y-2.3524
X2.9232Y-1.4075
X2.9551Y-2.1654
X2.9626Y-2.3524
X3.0217Y-1.4075
X3.2972Y-1.4075
X3.2972Y-1.5059
X3.35Y-2.0508
X3.35Y-2.1492
X3.6Y-2.0516
X3.6Y-2.15
T2
X3.0217Y-2.9528
X3.1201Y-2.9528
X3.2185Y-2.9528
T3
X2.8693Y-1.5602
X2.8693Y-1.6602
X2.8693Y-1.7602
X2.8693Y-1.8602
X3.1693Y-1.5602
X3.1693Y-1.6602
X3.1693Y-1.7602
X3.1693Y-1.8602
T4
X3.425Y-1.55
X3.4287Y-1.752
X3.825Y-1.55
X3.8287Y-1.752
T5
X2.6083Y-1.5453
X2.6083Y-1.6453
X2.6083Y-1.7453
T6
X2.5098Y-2.6476
X2.7098Y-2.6476
X3.0185Y-1.1516
X3.0413Y-2.6476
X3.2185Y-1.1516
X3.2413Y-2.6476
X3.622Y-2.6476
X3.822Y-2.6476
T7
X2.4508Y-3.0118
X2.4606Y-1.1516
X3.7697Y-1.1516
X3.7697Y-3.002
T0
M30
