%TF.GenerationSoftware,KiCad,Pcbnew,7.0.9*%
%TF.CreationDate,2024-03-13T22:21:00+01:00*%
%TF.ProjectId,Backlighting_PCB,4261636b-6c69-4676-9874-696e675f5043,rev?*%
%TF.SameCoordinates,Original*%
%TF.FileFunction,Soldermask,Bot*%
%TF.FilePolarity,Negative*%
%FSLAX46Y46*%
G04 Gerber Fmt 4.6, Leading zero omitted, Abs format (unit mm)*
G04 Created by KiCad (PCBNEW 7.0.9) date 2024-03-13 22:21:00*
%MOMM*%
%LPD*%
G01*
G04 APERTURE LIST*
G04 Aperture macros list*
%AMRoundRect*
0 Rectangle with rounded corners*
0 $1 Rounding radius*
0 $2 $3 $4 $5 $6 $7 $8 $9 X,Y pos of 4 corners*
0 Add a 4 corners polygon primitive as box body*
4,1,4,$2,$3,$4,$5,$6,$7,$8,$9,$2,$3,0*
0 Add four circle primitives for the rounded corners*
1,1,$1+$1,$2,$3*
1,1,$1+$1,$4,$5*
1,1,$1+$1,$6,$7*
1,1,$1+$1,$8,$9*
0 Add four rect primitives between the rounded corners*
20,1,$1+$1,$2,$3,$4,$5,0*
20,1,$1+$1,$4,$5,$6,$7,0*
20,1,$1+$1,$6,$7,$8,$9,0*
20,1,$1+$1,$8,$9,$2,$3,0*%
G04 Aperture macros list end*
%ADD10C,1.600000*%
%ADD11O,1.600000X1.600000*%
%ADD12C,3.600000*%
%ADD13C,5.600000*%
%ADD14R,2.200000X2.200000*%
%ADD15O,2.200000X2.200000*%
%ADD16R,3.000000X3.000000*%
%ADD17C,3.000000*%
%ADD18RoundRect,0.250000X-0.600000X-0.725000X0.600000X-0.725000X0.600000X0.725000X-0.600000X0.725000X0*%
%ADD19O,1.700000X1.950000*%
%ADD20R,2.000000X1.905000*%
%ADD21O,2.000000X1.905000*%
%ADD22R,1.600000X1.600000*%
G04 APERTURE END LIST*
D10*
%TO.C,R2*%
X75060000Y-55000000D03*
D11*
X67440000Y-55000000D03*
%TD*%
D12*
%TO.C,H4*%
X95750000Y-76250000D03*
D13*
X95750000Y-76250000D03*
%TD*%
D10*
%TO.C,R1*%
X75250000Y-59750000D03*
D11*
X67630000Y-59750000D03*
%TD*%
D14*
%TO.C,D1*%
X97155000Y-39370000D03*
D15*
X86995000Y-39370000D03*
%TD*%
D16*
%TO.C,J32*%
X81750000Y-29250000D03*
D17*
X76670000Y-29250000D03*
%TD*%
D12*
%TO.C,H5*%
X62500000Y-29250000D03*
D13*
X62500000Y-29250000D03*
%TD*%
D18*
%TO.C,J31*%
X76750000Y-75000000D03*
D19*
X79250000Y-75000000D03*
X81750000Y-75000000D03*
%TD*%
D14*
%TO.C,D2*%
X87090000Y-44500000D03*
D15*
X97250000Y-44500000D03*
%TD*%
D10*
%TO.C,C3*%
X83750000Y-38250000D03*
X83750000Y-35750000D03*
%TD*%
D12*
%TO.C,H6*%
X95750000Y-29250000D03*
D13*
X95750000Y-29250000D03*
%TD*%
D10*
%TO.C,C4*%
X74250000Y-35750000D03*
X76750000Y-35750000D03*
%TD*%
D16*
%TO.C,J13*%
X77250000Y-67250000D03*
D17*
X82330000Y-67250000D03*
%TD*%
D10*
%TO.C,C1*%
X91440000Y-54610000D03*
X91440000Y-52110000D03*
%TD*%
D20*
%TO.C,Q1*%
X66250000Y-44330000D03*
D21*
X66250000Y-41790000D03*
X66250000Y-39250000D03*
%TD*%
D12*
%TO.C,H7*%
X62250000Y-76500000D03*
D13*
X62250000Y-76500000D03*
%TD*%
D16*
%TO.C,J14*%
X92000000Y-67250000D03*
D17*
X97080000Y-67250000D03*
%TD*%
D10*
%TO.C,C2*%
X85090000Y-54590000D03*
X85090000Y-52090000D03*
%TD*%
D22*
%TO.C,U1*%
X72880000Y-39630000D03*
D10*
X72880000Y-42170000D03*
X72880000Y-44710000D03*
X72880000Y-47250000D03*
X80500000Y-47250000D03*
X80500000Y-44710000D03*
X80500000Y-42170000D03*
X80500000Y-39630000D03*
%TD*%
D16*
%TO.C,J12*%
X63750000Y-67250000D03*
D17*
X68830000Y-67250000D03*
%TD*%
M02*
