%TF.GenerationSoftware,KiCad,Pcbnew,7.0.9*%
%TF.CreationDate,2024-03-13T22:21:00+01:00*%
%TF.ProjectId,Backlighting_PCB,4261636b-6c69-4676-9874-696e675f5043,rev?*%
%TF.SameCoordinates,Original*%
%TF.FileFunction,Copper,L1,Top*%
%TF.FilePolarity,Positive*%
%FSLAX46Y46*%
G04 Gerber Fmt 4.6, Leading zero omitted, Abs format (unit mm)*
G04 Created by KiCad (PCBNEW 7.0.9) date 2024-03-13 22:21:00*
%MOMM*%
%LPD*%
G01*
G04 APERTURE LIST*
G04 Aperture macros list*
%AMRoundRect*
0 Rectangle with rounded corners*
0 $1 Rounding radius*
0 $2 $3 $4 $5 $6 $7 $8 $9 X,Y pos of 4 corners*
0 Add a 4 corners polygon primitive as box body*
4,1,4,$2,$3,$4,$5,$6,$7,$8,$9,$2,$3,0*
0 Add four circle primitives for the rounded corners*
1,1,$1+$1,$2,$3*
1,1,$1+$1,$4,$5*
1,1,$1+$1,$6,$7*
1,1,$1+$1,$8,$9*
0 Add four rect primitives between the rounded corners*
20,1,$1+$1,$2,$3,$4,$5,0*
20,1,$1+$1,$4,$5,$6,$7,0*
20,1,$1+$1,$6,$7,$8,$9,0*
20,1,$1+$1,$8,$9,$2,$3,0*%
G04 Aperture macros list end*
%TA.AperFunction,ComponentPad*%
%ADD10C,1.600000*%
%TD*%
%TA.AperFunction,ComponentPad*%
%ADD11O,1.600000X1.600000*%
%TD*%
%TA.AperFunction,ComponentPad*%
%ADD12C,3.600000*%
%TD*%
%TA.AperFunction,ConnectorPad*%
%ADD13C,5.600000*%
%TD*%
%TA.AperFunction,ComponentPad*%
%ADD14R,2.200000X2.200000*%
%TD*%
%TA.AperFunction,ComponentPad*%
%ADD15O,2.200000X2.200000*%
%TD*%
%TA.AperFunction,ComponentPad*%
%ADD16R,3.000000X3.000000*%
%TD*%
%TA.AperFunction,ComponentPad*%
%ADD17C,3.000000*%
%TD*%
%TA.AperFunction,ComponentPad*%
%ADD18RoundRect,0.250000X-0.600000X-0.725000X0.600000X-0.725000X0.600000X0.725000X-0.600000X0.725000X0*%
%TD*%
%TA.AperFunction,ComponentPad*%
%ADD19O,1.700000X1.950000*%
%TD*%
%TA.AperFunction,ComponentPad*%
%ADD20R,2.000000X1.905000*%
%TD*%
%TA.AperFunction,ComponentPad*%
%ADD21O,2.000000X1.905000*%
%TD*%
%TA.AperFunction,ComponentPad*%
%ADD22R,1.600000X1.600000*%
%TD*%
%TA.AperFunction,Conductor*%
%ADD23C,0.889000*%
%TD*%
%TA.AperFunction,Conductor*%
%ADD24C,0.900000*%
%TD*%
G04 APERTURE END LIST*
D10*
%TO.P,R2,1*%
%TO.N,Net-(Q1-G)*%
X75060000Y-55000000D03*
D11*
%TO.P,R2,2*%
%TO.N,GND*%
X67440000Y-55000000D03*
%TD*%
D12*
%TO.P,H4,1*%
%TO.N,N/C*%
X95750000Y-76250000D03*
D13*
X95750000Y-76250000D03*
%TD*%
D10*
%TO.P,R1,1*%
%TO.N,+9V*%
X75250000Y-59750000D03*
D11*
%TO.P,R1,2*%
%TO.N,Net-(D1-A)*%
X67630000Y-59750000D03*
%TD*%
D14*
%TO.P,D1,1,K*%
%TO.N,Net-(D1-K)*%
X97155000Y-39370000D03*
D15*
%TO.P,D1,2,A*%
%TO.N,Net-(D1-A)*%
X86995000Y-39370000D03*
%TD*%
D16*
%TO.P,J32,1,Pin_1*%
%TO.N,+9V*%
X81750000Y-29250000D03*
D17*
%TO.P,J32,2,Pin_2*%
%TO.N,GND*%
X76670000Y-29250000D03*
%TD*%
D12*
%TO.P,H5,1*%
%TO.N,N/C*%
X62500000Y-29250000D03*
D13*
X62500000Y-29250000D03*
%TD*%
D18*
%TO.P,J31,1,Pin_1*%
%TO.N,Net-(D1-K)*%
X76750000Y-75000000D03*
D19*
%TO.P,J31,2,Pin_2*%
%TO.N,Net-(J31-Pin_2)*%
X79250000Y-75000000D03*
%TO.P,J31,3,Pin_3*%
%TO.N,Net-(D2-A)*%
X81750000Y-75000000D03*
%TD*%
D14*
%TO.P,D2,1,K*%
%TO.N,Net-(D1-A)*%
X87090000Y-44500000D03*
D15*
%TO.P,D2,2,A*%
%TO.N,Net-(D2-A)*%
X97250000Y-44500000D03*
%TD*%
D10*
%TO.P,C3,1*%
%TO.N,+9V*%
X83750000Y-38250000D03*
%TO.P,C3,2*%
%TO.N,GND*%
X83750000Y-35750000D03*
%TD*%
D12*
%TO.P,H6,1*%
%TO.N,N/C*%
X95750000Y-29250000D03*
D13*
X95750000Y-29250000D03*
%TD*%
D10*
%TO.P,C4,1*%
%TO.N,+9V*%
X74250000Y-35750000D03*
%TO.P,C4,2*%
%TO.N,GND*%
X76750000Y-35750000D03*
%TD*%
D16*
%TO.P,J13,1,Pin_1*%
%TO.N,+9V*%
X77250000Y-67250000D03*
D17*
%TO.P,J13,2,Pin_2*%
%TO.N,Net-(J12-Pin_2)*%
X82330000Y-67250000D03*
%TD*%
D10*
%TO.P,C1,1*%
%TO.N,Net-(J31-Pin_2)*%
X91440000Y-54610000D03*
%TO.P,C1,2*%
%TO.N,GND*%
X91440000Y-52110000D03*
%TD*%
D20*
%TO.P,Q1,1,G*%
%TO.N,Net-(Q1-G)*%
X66250000Y-44330000D03*
D21*
%TO.P,Q1,2,D*%
%TO.N,Net-(J12-Pin_2)*%
X66250000Y-41790000D03*
%TO.P,Q1,3,S*%
%TO.N,GND*%
X66250000Y-39250000D03*
%TD*%
D12*
%TO.P,H7,1*%
%TO.N,N/C*%
X62250000Y-76500000D03*
D13*
X62250000Y-76500000D03*
%TD*%
D16*
%TO.P,J14,1,Pin_1*%
%TO.N,+9V*%
X92000000Y-67250000D03*
D17*
%TO.P,J14,2,Pin_2*%
%TO.N,Net-(J12-Pin_2)*%
X97080000Y-67250000D03*
%TD*%
D10*
%TO.P,C2,1*%
%TO.N,Net-(U1-CONT)*%
X85090000Y-54590000D03*
%TO.P,C2,2*%
%TO.N,GND*%
X85090000Y-52090000D03*
%TD*%
D22*
%TO.P,U1,1,GND*%
%TO.N,GND*%
X72880000Y-39630000D03*
D10*
%TO.P,U1,2,TRIG*%
%TO.N,Net-(J31-Pin_2)*%
X72880000Y-42170000D03*
%TO.P,U1,3,OUT*%
%TO.N,Net-(Q1-G)*%
X72880000Y-44710000D03*
%TO.P,U1,4,RESET*%
%TO.N,+9V*%
X72880000Y-47250000D03*
%TO.P,U1,5,CONT*%
%TO.N,Net-(U1-CONT)*%
X80500000Y-47250000D03*
%TO.P,U1,6,THRES*%
%TO.N,Net-(J31-Pin_2)*%
X80500000Y-44710000D03*
%TO.P,U1,7,DISCH*%
%TO.N,Net-(D1-A)*%
X80500000Y-42170000D03*
%TO.P,U1,8,VCC*%
%TO.N,+9V*%
X80500000Y-39630000D03*
%TD*%
D16*
%TO.P,J12,1,Pin_1*%
%TO.N,+9V*%
X63750000Y-67250000D03*
D17*
%TO.P,J12,2,Pin_2*%
%TO.N,Net-(J12-Pin_2)*%
X68830000Y-67250000D03*
%TD*%
D23*
%TO.N,Net-(J31-Pin_2)*%
X78105000Y-45720000D02*
X78105000Y-45085000D01*
X78105000Y-57150000D02*
X78740000Y-56515000D01*
X89535000Y-56515000D02*
X91440000Y-54610000D01*
X78740000Y-56515000D02*
X89535000Y-56515000D01*
X78105000Y-56515000D02*
X78105000Y-57785000D01*
X78105000Y-45345000D02*
X78740000Y-44710000D01*
X78105000Y-52705000D02*
X78105000Y-57785000D01*
X78105000Y-62145000D02*
X73000000Y-67250000D01*
X78105000Y-55880000D02*
X78105000Y-56515000D01*
X73000000Y-77000000D02*
X74750000Y-78750000D01*
X78740000Y-44710000D02*
X80500000Y-44710000D01*
X78105000Y-52705000D02*
X78105000Y-53340000D01*
X74750000Y-78750000D02*
X79000000Y-78750000D01*
X77730000Y-44710000D02*
X78740000Y-44710000D01*
X78105000Y-45085000D02*
X77730000Y-44710000D01*
X78105000Y-57785000D02*
X78105000Y-57150000D01*
X78105000Y-45720000D02*
X78105000Y-45345000D01*
X78105000Y-52705000D02*
X78105000Y-45085000D01*
X72880000Y-42170000D02*
X75190000Y-42170000D01*
X79250000Y-78500000D02*
X79250000Y-75000000D01*
X75190000Y-42170000D02*
X77730000Y-44710000D01*
X79000000Y-78750000D02*
X79250000Y-78500000D01*
X78740000Y-56515000D02*
X78105000Y-55880000D01*
X78105000Y-57785000D02*
X78105000Y-62145000D01*
X73000000Y-67250000D02*
X73000000Y-77000000D01*
X78105000Y-56515000D02*
X78740000Y-56515000D01*
%TO.N,GND*%
X72880000Y-39630000D02*
X76670000Y-35840000D01*
X69850000Y-52705000D02*
X69850000Y-41275000D01*
X90210000Y-52110000D02*
X91440000Y-52110000D01*
X89535000Y-51435000D02*
X90210000Y-52110000D01*
X69850000Y-41275000D02*
X71495000Y-39630000D01*
X89535000Y-51435000D02*
X88880000Y-52090000D01*
X87910000Y-35840000D02*
X89535000Y-37465000D01*
X88880000Y-52090000D02*
X85090000Y-52090000D01*
X76670000Y-35840000D02*
X87910000Y-35840000D01*
X89535000Y-37465000D02*
X89535000Y-51435000D01*
X67555000Y-55000000D02*
X69850000Y-52705000D01*
X76670000Y-35840000D02*
X76670000Y-29250000D01*
X71495000Y-39630000D02*
X72880000Y-39630000D01*
X67440000Y-55000000D02*
X67555000Y-55000000D01*
%TO.N,Net-(U1-CONT)*%
X80500000Y-51290000D02*
X83800000Y-54590000D01*
X83800000Y-54590000D02*
X85090000Y-54590000D01*
X80500000Y-47250000D02*
X80500000Y-51290000D01*
D24*
%TO.N,Net-(D1-K)*%
X92890000Y-43635000D02*
X92890000Y-55860000D01*
X85500000Y-67120560D02*
X79245560Y-73375000D01*
X97155000Y-39370000D02*
X92890000Y-43635000D01*
X85500000Y-63250000D02*
X85500000Y-67120560D01*
X79245560Y-73375000D02*
X78375000Y-73375000D01*
X78375000Y-73375000D02*
X76750000Y-75000000D01*
X92890000Y-55860000D02*
X85500000Y-63250000D01*
%TO.N,Net-(D2-A)*%
X86750000Y-72250000D02*
X84000000Y-75000000D01*
X97250000Y-44500000D02*
X97250000Y-55370560D01*
D23*
X81250000Y-75000000D02*
X81830000Y-75000000D01*
D24*
X97250000Y-55370560D02*
X86750000Y-65870560D01*
X84000000Y-75000000D02*
X81750000Y-75000000D01*
X86750000Y-65870560D02*
X86750000Y-72250000D01*
%TD*%
%TA.AperFunction,Conductor*%
%TO.N,GND*%
G36*
X100442428Y-25020021D02*
G01*
X100488491Y-25072557D01*
X100500000Y-25124727D01*
X100500000Y-79376722D01*
X100480315Y-79443761D01*
X100427511Y-79489516D01*
X100376725Y-79500720D01*
X97106818Y-79519842D01*
X97039665Y-79500550D01*
X96993602Y-79448014D01*
X96983254Y-79378915D01*
X97011907Y-79315191D01*
X97054022Y-79283307D01*
X97298253Y-79170315D01*
X97604919Y-78985800D01*
X97889837Y-78769211D01*
X98149668Y-78523086D01*
X98381365Y-78250311D01*
X98582211Y-77954085D01*
X98749853Y-77637880D01*
X98882324Y-77305403D01*
X98978071Y-76960552D01*
X99035972Y-76607371D01*
X99055348Y-76250000D01*
X99035972Y-75892629D01*
X99033569Y-75877974D01*
X98978073Y-75539460D01*
X98978072Y-75539459D01*
X98978071Y-75539448D01*
X98882324Y-75194597D01*
X98749853Y-74862120D01*
X98582211Y-74545915D01*
X98381365Y-74249689D01*
X98381361Y-74249684D01*
X98381358Y-74249680D01*
X98149668Y-73976914D01*
X98097626Y-73927617D01*
X97889837Y-73730789D01*
X97889830Y-73730783D01*
X97889827Y-73730781D01*
X97719231Y-73601098D01*
X97604919Y-73514200D01*
X97298253Y-73329685D01*
X97298252Y-73329684D01*
X97298248Y-73329682D01*
X97298244Y-73329680D01*
X96973447Y-73179414D01*
X96973441Y-73179411D01*
X96973435Y-73179409D01*
X96803854Y-73122270D01*
X96634273Y-73065131D01*
X96284744Y-72988194D01*
X95928949Y-72949500D01*
X95928948Y-72949500D01*
X95571052Y-72949500D01*
X95571050Y-72949500D01*
X95215255Y-72988194D01*
X94865726Y-73065131D01*
X94609970Y-73151306D01*
X94526565Y-73179409D01*
X94526563Y-73179410D01*
X94526552Y-73179414D01*
X94201755Y-73329680D01*
X94201751Y-73329682D01*
X94036003Y-73429410D01*
X93895081Y-73514200D01*
X93808944Y-73579680D01*
X93610172Y-73730781D01*
X93610163Y-73730789D01*
X93350331Y-73976914D01*
X93118641Y-74249680D01*
X93118634Y-74249690D01*
X92917790Y-74545913D01*
X92917784Y-74545922D01*
X92750151Y-74862111D01*
X92750142Y-74862129D01*
X92617674Y-75194600D01*
X92617672Y-75194607D01*
X92521932Y-75539434D01*
X92521926Y-75539460D01*
X92464029Y-75892614D01*
X92464028Y-75892627D01*
X92464028Y-75892629D01*
X92460890Y-75950500D01*
X92444652Y-76249997D01*
X92444652Y-76250002D01*
X92464028Y-76607368D01*
X92464029Y-76607385D01*
X92521926Y-76960539D01*
X92521932Y-76960565D01*
X92617672Y-77305392D01*
X92617674Y-77305399D01*
X92750142Y-77637870D01*
X92750151Y-77637888D01*
X92917784Y-77954077D01*
X92917790Y-77954086D01*
X93118634Y-78250309D01*
X93118641Y-78250319D01*
X93350331Y-78523085D01*
X93350332Y-78523086D01*
X93610163Y-78769211D01*
X93895081Y-78985800D01*
X94201747Y-79170315D01*
X94479828Y-79298968D01*
X94532405Y-79344982D01*
X94551759Y-79412117D01*
X94531745Y-79479059D01*
X94478717Y-79524553D01*
X94428486Y-79535505D01*
X79771465Y-79621218D01*
X79704312Y-79601926D01*
X79658249Y-79549390D01*
X79647901Y-79480291D01*
X79676554Y-79416567D01*
X79684207Y-79408905D01*
X79688455Y-79404435D01*
X79688461Y-79404431D01*
X79708191Y-79378940D01*
X79713362Y-79373068D01*
X79909763Y-79176668D01*
X79970724Y-79118721D01*
X80003760Y-79071254D01*
X80006574Y-79067522D01*
X80043117Y-79022708D01*
X80058044Y-78994129D01*
X80062098Y-78987437D01*
X80080518Y-78960975D01*
X80103321Y-78907834D01*
X80105327Y-78903609D01*
X80132102Y-78852355D01*
X80140971Y-78821354D01*
X80143591Y-78813995D01*
X80156311Y-78784357D01*
X80167956Y-78727690D01*
X80169067Y-78723167D01*
X80184974Y-78667577D01*
X80187421Y-78635436D01*
X80188509Y-78627679D01*
X80195000Y-78596097D01*
X80195000Y-78538279D01*
X80195179Y-78533569D01*
X80195978Y-78523085D01*
X80199568Y-78475937D01*
X80195496Y-78443967D01*
X80195000Y-78436136D01*
X80195000Y-76141258D01*
X80214685Y-76074219D01*
X80231314Y-76053581D01*
X80288495Y-75996401D01*
X80398426Y-75839401D01*
X80453001Y-75795778D01*
X80522500Y-75788584D01*
X80584855Y-75820106D01*
X80601571Y-75839398D01*
X80656985Y-75918538D01*
X80711506Y-75996403D01*
X80805000Y-76089896D01*
X80878599Y-76163495D01*
X80921675Y-76193657D01*
X81072165Y-76299032D01*
X81072167Y-76299033D01*
X81072170Y-76299035D01*
X81286337Y-76398903D01*
X81514592Y-76460063D01*
X81691034Y-76475500D01*
X81749999Y-76480659D01*
X81750000Y-76480659D01*
X81750001Y-76480659D01*
X81808966Y-76475500D01*
X81985408Y-76460063D01*
X82213663Y-76398903D01*
X82427829Y-76299035D01*
X82621401Y-76163495D01*
X82788495Y-75996401D01*
X82788498Y-75996396D01*
X82789842Y-75994796D01*
X82790615Y-75994281D01*
X82792324Y-75992573D01*
X82792667Y-75992916D01*
X82848013Y-75956093D01*
X82884833Y-75950500D01*
X83987937Y-75950500D01*
X84072539Y-75952644D01*
X84072539Y-75952643D01*
X84072546Y-75952644D01*
X84129818Y-75942378D01*
X84134432Y-75941731D01*
X84192321Y-75935845D01*
X84223286Y-75926128D01*
X84230886Y-75924263D01*
X84262828Y-75918539D01*
X84316830Y-75896967D01*
X84321267Y-75895387D01*
X84330105Y-75892614D01*
X84376768Y-75877974D01*
X84405134Y-75862228D01*
X84412214Y-75858866D01*
X84442348Y-75846830D01*
X84490917Y-75814818D01*
X84494926Y-75812389D01*
X84545791Y-75784159D01*
X84570408Y-75763023D01*
X84576672Y-75758301D01*
X84603759Y-75740451D01*
X84644906Y-75699302D01*
X84648325Y-75696134D01*
X84692468Y-75658240D01*
X84712328Y-75632581D01*
X84717499Y-75626709D01*
X87413582Y-72930627D01*
X87474919Y-72872323D01*
X87508161Y-72824562D01*
X87510962Y-72820846D01*
X87547734Y-72775751D01*
X87562752Y-72746998D01*
X87566822Y-72740282D01*
X87583192Y-72716762D01*
X87585353Y-72713658D01*
X87608296Y-72660190D01*
X87610305Y-72655959D01*
X87637236Y-72604406D01*
X87646160Y-72573216D01*
X87648787Y-72565836D01*
X87661587Y-72536012D01*
X87673299Y-72479011D01*
X87674410Y-72474485D01*
X87690416Y-72418552D01*
X87692879Y-72386195D01*
X87693965Y-72378449D01*
X87700500Y-72346656D01*
X87700500Y-72288493D01*
X87700679Y-72283783D01*
X87705095Y-72225797D01*
X87700996Y-72193615D01*
X87700500Y-72185784D01*
X87700500Y-68797870D01*
X89999500Y-68797870D01*
X89999501Y-68797876D01*
X90005908Y-68857483D01*
X90056202Y-68992328D01*
X90056206Y-68992335D01*
X90142452Y-69107544D01*
X90142455Y-69107547D01*
X90257664Y-69193793D01*
X90257671Y-69193797D01*
X90392517Y-69244091D01*
X90392516Y-69244091D01*
X90399444Y-69244835D01*
X90452127Y-69250500D01*
X93547872Y-69250499D01*
X93607483Y-69244091D01*
X93742331Y-69193796D01*
X93857546Y-69107546D01*
X93943796Y-68992331D01*
X93994091Y-68857483D01*
X94000500Y-68797873D01*
X94000500Y-67250001D01*
X95074390Y-67250001D01*
X95094804Y-67535433D01*
X95155628Y-67815037D01*
X95255635Y-68083166D01*
X95392770Y-68334309D01*
X95392775Y-68334317D01*
X95564254Y-68563387D01*
X95564270Y-68563405D01*
X95766594Y-68765729D01*
X95766612Y-68765745D01*
X95995682Y-68937224D01*
X95995690Y-68937229D01*
X96246833Y-69074364D01*
X96246832Y-69074364D01*
X96246836Y-69074365D01*
X96246839Y-69074367D01*
X96514954Y-69174369D01*
X96514960Y-69174370D01*
X96514962Y-69174371D01*
X96794566Y-69235195D01*
X96794568Y-69235195D01*
X96794572Y-69235196D01*
X97048220Y-69253337D01*
X97079999Y-69255610D01*
X97080000Y-69255610D01*
X97080001Y-69255610D01*
X97108595Y-69253564D01*
X97365428Y-69235196D01*
X97555742Y-69193796D01*
X97645037Y-69174371D01*
X97645037Y-69174370D01*
X97645046Y-69174369D01*
X97913161Y-69074367D01*
X98164315Y-68937226D01*
X98393395Y-68765739D01*
X98595739Y-68563395D01*
X98767226Y-68334315D01*
X98904367Y-68083161D01*
X99004369Y-67815046D01*
X99065196Y-67535428D01*
X99085610Y-67250000D01*
X99065196Y-66964572D01*
X99057376Y-66928626D01*
X99004371Y-66684962D01*
X99004370Y-66684960D01*
X99004369Y-66684954D01*
X98904367Y-66416839D01*
X98849102Y-66315630D01*
X98767229Y-66165690D01*
X98767224Y-66165682D01*
X98595745Y-65936612D01*
X98595729Y-65936594D01*
X98393405Y-65734270D01*
X98393387Y-65734254D01*
X98164317Y-65562775D01*
X98164309Y-65562770D01*
X97913166Y-65425635D01*
X97913167Y-65425635D01*
X97805915Y-65385632D01*
X97645046Y-65325631D01*
X97645043Y-65325630D01*
X97645037Y-65325628D01*
X97365433Y-65264804D01*
X97080001Y-65244390D01*
X97079999Y-65244390D01*
X96794566Y-65264804D01*
X96514962Y-65325628D01*
X96246833Y-65425635D01*
X95995690Y-65562770D01*
X95995682Y-65562775D01*
X95766612Y-65734254D01*
X95766594Y-65734270D01*
X95564270Y-65936594D01*
X95564254Y-65936612D01*
X95392775Y-66165682D01*
X95392770Y-66165690D01*
X95255635Y-66416833D01*
X95155628Y-66684962D01*
X95094804Y-66964566D01*
X95074390Y-67249998D01*
X95074390Y-67250001D01*
X94000500Y-67250001D01*
X94000499Y-65702128D01*
X93994091Y-65642517D01*
X93964347Y-65562770D01*
X93943797Y-65507671D01*
X93943793Y-65507664D01*
X93857547Y-65392455D01*
X93857544Y-65392452D01*
X93742335Y-65306206D01*
X93742328Y-65306202D01*
X93607482Y-65255908D01*
X93607483Y-65255908D01*
X93547883Y-65249501D01*
X93547881Y-65249500D01*
X93547873Y-65249500D01*
X93547864Y-65249500D01*
X90452129Y-65249500D01*
X90452123Y-65249501D01*
X90392516Y-65255908D01*
X90257671Y-65306202D01*
X90257664Y-65306206D01*
X90142455Y-65392452D01*
X90142452Y-65392455D01*
X90056206Y-65507664D01*
X90056202Y-65507671D01*
X90005908Y-65642517D01*
X89999501Y-65702116D01*
X89999501Y-65702123D01*
X89999500Y-65702135D01*
X89999500Y-68797870D01*
X87700500Y-68797870D01*
X87700500Y-66315630D01*
X87720185Y-66248591D01*
X87736814Y-66227954D01*
X97913561Y-56051207D01*
X97974919Y-55992883D01*
X98008148Y-55945139D01*
X98010987Y-55941375D01*
X98047734Y-55896311D01*
X98062755Y-55867553D01*
X98066815Y-55860850D01*
X98085353Y-55834218D01*
X98108296Y-55780750D01*
X98110305Y-55776519D01*
X98137236Y-55724966D01*
X98146160Y-55693776D01*
X98148787Y-55686396D01*
X98161587Y-55656572D01*
X98173299Y-55599571D01*
X98174410Y-55595045D01*
X98190416Y-55539112D01*
X98190559Y-55537243D01*
X98191774Y-55521275D01*
X98192878Y-55506766D01*
X98193968Y-55498994D01*
X98200500Y-55467216D01*
X98200500Y-55409043D01*
X98200679Y-55404334D01*
X98205094Y-55346359D01*
X98204761Y-55343747D01*
X98203615Y-55334748D01*
X98200997Y-55314183D01*
X98200500Y-55306344D01*
X98200500Y-45850157D01*
X98220185Y-45783118D01*
X98243965Y-45755869D01*
X98385224Y-45635224D01*
X98548836Y-45443659D01*
X98680466Y-45228859D01*
X98776873Y-44996111D01*
X98835683Y-44751148D01*
X98855449Y-44500000D01*
X98835683Y-44248852D01*
X98776873Y-44003889D01*
X98680466Y-43771141D01*
X98680466Y-43771140D01*
X98548839Y-43556346D01*
X98548838Y-43556343D01*
X98472060Y-43466448D01*
X98385224Y-43364776D01*
X98226305Y-43229046D01*
X98193656Y-43201161D01*
X98193653Y-43201160D01*
X97978859Y-43069533D01*
X97746110Y-42973126D01*
X97501151Y-42914317D01*
X97250000Y-42894551D01*
X96998848Y-42914317D01*
X96753889Y-42973126D01*
X96521140Y-43069533D01*
X96306346Y-43201160D01*
X96306343Y-43201161D01*
X96114776Y-43364776D01*
X95951161Y-43556343D01*
X95951160Y-43556346D01*
X95819533Y-43771140D01*
X95723126Y-44003889D01*
X95664317Y-44248848D01*
X95644551Y-44500000D01*
X95664317Y-44751151D01*
X95723126Y-44996110D01*
X95819533Y-45228859D01*
X95951160Y-45443653D01*
X95951161Y-45443656D01*
X96041252Y-45549139D01*
X96114776Y-45635224D01*
X96256032Y-45755868D01*
X96294225Y-45814373D01*
X96299500Y-45850157D01*
X96299500Y-54925488D01*
X96279815Y-54992527D01*
X96263181Y-55013169D01*
X86662181Y-64614169D01*
X86600858Y-64647654D01*
X86531166Y-64642670D01*
X86475233Y-64600798D01*
X86450816Y-64535334D01*
X86450500Y-64526488D01*
X86450500Y-63695071D01*
X86470185Y-63628032D01*
X86486814Y-63607395D01*
X93553582Y-56540627D01*
X93614919Y-56482323D01*
X93648161Y-56434562D01*
X93650962Y-56430846D01*
X93687734Y-56385751D01*
X93702752Y-56356998D01*
X93706822Y-56350282D01*
X93714940Y-56338617D01*
X93725353Y-56323658D01*
X93748301Y-56270179D01*
X93750300Y-56265969D01*
X93777236Y-56214406D01*
X93786157Y-56183230D01*
X93788792Y-56175828D01*
X93801587Y-56146011D01*
X93813295Y-56089039D01*
X93814419Y-56084460D01*
X93823934Y-56051207D01*
X93830417Y-56028552D01*
X93832880Y-55996195D01*
X93833967Y-55988437D01*
X93840500Y-55956656D01*
X93840500Y-55898496D01*
X93840679Y-55893787D01*
X93845095Y-55835797D01*
X93844894Y-55834218D01*
X93840996Y-55803615D01*
X93840500Y-55795784D01*
X93840500Y-44080071D01*
X93860185Y-44013032D01*
X93876814Y-43992395D01*
X96862391Y-41006817D01*
X96923714Y-40973333D01*
X96950072Y-40970499D01*
X98302871Y-40970499D01*
X98302872Y-40970499D01*
X98362483Y-40964091D01*
X98497331Y-40913796D01*
X98612546Y-40827546D01*
X98698796Y-40712331D01*
X98749091Y-40577483D01*
X98755500Y-40517873D01*
X98755499Y-38222128D01*
X98749091Y-38162517D01*
X98715017Y-38071161D01*
X98698797Y-38027671D01*
X98698793Y-38027664D01*
X98612547Y-37912455D01*
X98612544Y-37912452D01*
X98497335Y-37826206D01*
X98497328Y-37826202D01*
X98362482Y-37775908D01*
X98362483Y-37775908D01*
X98302883Y-37769501D01*
X98302881Y-37769500D01*
X98302873Y-37769500D01*
X98302864Y-37769500D01*
X96007129Y-37769500D01*
X96007123Y-37769501D01*
X95947516Y-37775908D01*
X95812671Y-37826202D01*
X95812664Y-37826206D01*
X95697455Y-37912452D01*
X95697452Y-37912455D01*
X95611206Y-38027664D01*
X95611202Y-38027671D01*
X95560908Y-38162517D01*
X95554501Y-38222116D01*
X95554501Y-38222123D01*
X95554500Y-38222135D01*
X95554500Y-39574926D01*
X95534815Y-39641965D01*
X95518181Y-39662607D01*
X92226417Y-42954372D01*
X92165084Y-43012672D01*
X92165082Y-43012675D01*
X92131855Y-43060411D01*
X92129020Y-43064172D01*
X92092265Y-43109250D01*
X92077248Y-43137998D01*
X92073179Y-43144714D01*
X92054646Y-43171342D01*
X92054646Y-43171343D01*
X92031711Y-43224789D01*
X92029689Y-43229046D01*
X92002764Y-43280591D01*
X92002762Y-43280595D01*
X91993839Y-43311776D01*
X91991206Y-43319172D01*
X91978412Y-43348987D01*
X91978412Y-43348988D01*
X91966703Y-43405960D01*
X91965580Y-43410534D01*
X91949583Y-43466448D01*
X91949581Y-43466454D01*
X91947120Y-43498791D01*
X91946029Y-43506572D01*
X91939500Y-43538343D01*
X91939500Y-43596502D01*
X91939321Y-43601211D01*
X91934904Y-43659201D01*
X91936804Y-43674120D01*
X91939003Y-43691385D01*
X91939500Y-43699214D01*
X91939500Y-50736380D01*
X91919815Y-50803419D01*
X91867011Y-50849174D01*
X91797853Y-50859118D01*
X91783407Y-50856155D01*
X91666610Y-50824860D01*
X91666599Y-50824858D01*
X91440002Y-50805034D01*
X91439998Y-50805034D01*
X91213400Y-50824858D01*
X91213389Y-50824860D01*
X90993682Y-50883730D01*
X90993673Y-50883734D01*
X90787513Y-50979868D01*
X90714526Y-51030973D01*
X91395599Y-51712046D01*
X91314852Y-51724835D01*
X91201955Y-51782359D01*
X91112359Y-51871955D01*
X91054835Y-51984852D01*
X91042046Y-52065599D01*
X90360973Y-51384526D01*
X90360972Y-51384527D01*
X90309868Y-51457513D01*
X90213734Y-51663673D01*
X90213730Y-51663682D01*
X90154860Y-51883389D01*
X90154858Y-51883400D01*
X90135034Y-52109997D01*
X90135034Y-52110002D01*
X90154858Y-52336599D01*
X90154860Y-52336610D01*
X90213730Y-52556317D01*
X90213734Y-52556326D01*
X90309865Y-52762481D01*
X90309866Y-52762483D01*
X90360973Y-52835471D01*
X90360974Y-52835472D01*
X91042046Y-52154399D01*
X91054835Y-52235148D01*
X91112359Y-52348045D01*
X91201955Y-52437641D01*
X91314852Y-52495165D01*
X91395597Y-52507953D01*
X90714526Y-53189025D01*
X90714526Y-53189026D01*
X90787512Y-53240131D01*
X90787515Y-53240132D01*
X90802974Y-53247341D01*
X90855414Y-53293513D01*
X90874567Y-53360706D01*
X90854352Y-53427587D01*
X90802978Y-53472105D01*
X90787269Y-53479430D01*
X90787265Y-53479432D01*
X90600858Y-53609954D01*
X90439954Y-53770858D01*
X90309432Y-53957265D01*
X90309431Y-53957267D01*
X90213261Y-54163502D01*
X90213258Y-54163511D01*
X90154366Y-54383302D01*
X90154364Y-54383312D01*
X90141433Y-54531107D01*
X90115980Y-54596176D01*
X90105586Y-54607980D01*
X89179888Y-55533681D01*
X89118565Y-55567166D01*
X89092207Y-55570000D01*
X86229616Y-55570000D01*
X86162577Y-55550315D01*
X86116822Y-55497511D01*
X86106878Y-55428353D01*
X86128041Y-55374877D01*
X86220568Y-55242734D01*
X86316739Y-55036496D01*
X86375635Y-54816692D01*
X86395468Y-54590000D01*
X86375635Y-54363308D01*
X86316739Y-54143504D01*
X86220568Y-53937266D01*
X86090047Y-53750861D01*
X86090045Y-53750858D01*
X85929141Y-53589954D01*
X85742734Y-53459432D01*
X85742730Y-53459430D01*
X85727022Y-53452105D01*
X85674583Y-53405931D01*
X85655433Y-53338737D01*
X85675650Y-53271857D01*
X85727028Y-53227340D01*
X85742481Y-53220134D01*
X85815472Y-53169025D01*
X85134401Y-52487953D01*
X85215148Y-52475165D01*
X85328045Y-52417641D01*
X85417641Y-52328045D01*
X85475165Y-52215148D01*
X85487953Y-52134400D01*
X86169025Y-52815472D01*
X86220136Y-52742478D01*
X86316264Y-52536331D01*
X86316269Y-52536317D01*
X86375139Y-52316610D01*
X86375141Y-52316599D01*
X86394966Y-52090002D01*
X86394966Y-52089997D01*
X86375141Y-51863400D01*
X86375139Y-51863389D01*
X86316269Y-51643682D01*
X86316265Y-51643673D01*
X86220133Y-51437516D01*
X86220131Y-51437512D01*
X86169026Y-51364526D01*
X86169025Y-51364526D01*
X85487953Y-52045598D01*
X85475165Y-51964852D01*
X85417641Y-51851955D01*
X85328045Y-51762359D01*
X85215148Y-51704835D01*
X85134400Y-51692046D01*
X85815472Y-51010974D01*
X85815471Y-51010973D01*
X85742483Y-50959866D01*
X85742481Y-50959865D01*
X85536326Y-50863734D01*
X85536317Y-50863730D01*
X85316610Y-50804860D01*
X85316599Y-50804858D01*
X85090002Y-50785034D01*
X85089998Y-50785034D01*
X84863400Y-50804858D01*
X84863389Y-50804860D01*
X84643682Y-50863730D01*
X84643673Y-50863734D01*
X84437513Y-50959868D01*
X84364527Y-51010972D01*
X84364526Y-51010973D01*
X85045600Y-51692046D01*
X84964852Y-51704835D01*
X84851955Y-51762359D01*
X84762359Y-51851955D01*
X84704835Y-51964852D01*
X84692046Y-52045599D01*
X84010973Y-51364526D01*
X84010972Y-51364527D01*
X83959868Y-51437513D01*
X83863734Y-51643673D01*
X83863730Y-51643682D01*
X83804860Y-51863389D01*
X83804858Y-51863400D01*
X83785034Y-52089997D01*
X83785034Y-52090002D01*
X83804858Y-52316599D01*
X83804860Y-52316610D01*
X83863730Y-52536317D01*
X83863734Y-52536326D01*
X83959865Y-52742481D01*
X83959866Y-52742483D01*
X84010973Y-52815471D01*
X84010974Y-52815472D01*
X84692046Y-52134399D01*
X84704835Y-52215148D01*
X84762359Y-52328045D01*
X84851955Y-52417641D01*
X84964852Y-52475165D01*
X85045599Y-52487953D01*
X84364526Y-53169025D01*
X84364526Y-53169026D01*
X84437512Y-53220131D01*
X84437515Y-53220132D01*
X84452974Y-53227341D01*
X84505414Y-53273513D01*
X84524567Y-53340706D01*
X84504352Y-53407587D01*
X84452978Y-53452105D01*
X84437269Y-53459430D01*
X84437265Y-53459432D01*
X84268761Y-53577419D01*
X84202554Y-53599746D01*
X84134787Y-53582735D01*
X84109957Y-53563525D01*
X81481319Y-50934887D01*
X81447834Y-50873564D01*
X81445000Y-50847206D01*
X81445000Y-48195548D01*
X81464685Y-48128509D01*
X81481321Y-48107865D01*
X81500046Y-48089140D01*
X81500047Y-48089139D01*
X81630568Y-47902734D01*
X81726739Y-47696496D01*
X81785635Y-47476692D01*
X81805468Y-47250000D01*
X81785635Y-47023308D01*
X81726739Y-46803504D01*
X81630568Y-46597266D01*
X81500047Y-46410861D01*
X81500045Y-46410858D01*
X81339141Y-46249954D01*
X81152734Y-46119432D01*
X81152728Y-46119429D01*
X81094725Y-46092382D01*
X81042285Y-46046210D01*
X81023133Y-45979017D01*
X81043348Y-45912135D01*
X81094725Y-45867618D01*
X81152734Y-45840568D01*
X81339139Y-45710047D01*
X81401316Y-45647870D01*
X85489500Y-45647870D01*
X85489501Y-45647876D01*
X85495908Y-45707483D01*
X85546202Y-45842328D01*
X85546206Y-45842335D01*
X85632452Y-45957544D01*
X85632455Y-45957547D01*
X85747664Y-46043793D01*
X85747671Y-46043797D01*
X85882517Y-46094091D01*
X85882516Y-46094091D01*
X85889444Y-46094835D01*
X85942127Y-46100500D01*
X88237872Y-46100499D01*
X88297483Y-46094091D01*
X88432331Y-46043796D01*
X88547546Y-45957546D01*
X88633796Y-45842331D01*
X88684091Y-45707483D01*
X88690500Y-45647873D01*
X88690499Y-43352128D01*
X88684091Y-43292517D01*
X88679644Y-43280595D01*
X88633797Y-43157671D01*
X88633793Y-43157664D01*
X88547547Y-43042455D01*
X88547544Y-43042452D01*
X88432335Y-42956206D01*
X88432328Y-42956202D01*
X88297482Y-42905908D01*
X88297483Y-42905908D01*
X88237883Y-42899501D01*
X88237881Y-42899500D01*
X88237873Y-42899500D01*
X88237864Y-42899500D01*
X85942129Y-42899500D01*
X85942123Y-42899501D01*
X85882516Y-42905908D01*
X85747671Y-42956202D01*
X85747664Y-42956206D01*
X85632455Y-43042452D01*
X85632452Y-43042455D01*
X85546206Y-43157664D01*
X85546202Y-43157671D01*
X85495908Y-43292517D01*
X85489837Y-43348988D01*
X85489501Y-43352123D01*
X85489500Y-43352135D01*
X85489500Y-45647870D01*
X81401316Y-45647870D01*
X81500047Y-45549139D01*
X81630568Y-45362734D01*
X81726739Y-45156496D01*
X81785635Y-44936692D01*
X81805468Y-44710000D01*
X81785635Y-44483308D01*
X81726739Y-44263504D01*
X81630568Y-44057266D01*
X81500047Y-43870861D01*
X81500045Y-43870858D01*
X81339141Y-43709954D01*
X81152734Y-43579432D01*
X81152728Y-43579429D01*
X81103226Y-43556346D01*
X81094724Y-43552381D01*
X81042285Y-43506210D01*
X81023133Y-43439017D01*
X81043348Y-43372135D01*
X81094725Y-43327618D01*
X81152734Y-43300568D01*
X81339139Y-43170047D01*
X81500047Y-43009139D01*
X81630568Y-42822734D01*
X81726739Y-42616496D01*
X81785635Y-42396692D01*
X81805468Y-42170000D01*
X81785635Y-41943308D01*
X81726739Y-41723504D01*
X81630568Y-41517266D01*
X81518973Y-41357890D01*
X81500045Y-41330858D01*
X81339141Y-41169954D01*
X81152734Y-41039432D01*
X81152728Y-41039429D01*
X81094725Y-41012382D01*
X81042285Y-40966210D01*
X81023133Y-40899017D01*
X81043348Y-40832135D01*
X81094725Y-40787618D01*
X81095643Y-40787190D01*
X81152734Y-40760568D01*
X81339139Y-40630047D01*
X81500047Y-40469139D01*
X81630568Y-40282734D01*
X81726739Y-40076496D01*
X81785635Y-39856692D01*
X81805468Y-39630000D01*
X81785635Y-39403308D01*
X81726739Y-39183504D01*
X81630568Y-38977266D01*
X81500047Y-38790861D01*
X81500045Y-38790858D01*
X81339141Y-38629954D01*
X81152734Y-38499432D01*
X81152732Y-38499431D01*
X80946497Y-38403261D01*
X80946488Y-38403258D01*
X80726697Y-38344366D01*
X80726693Y-38344365D01*
X80726692Y-38344365D01*
X80726691Y-38344364D01*
X80726686Y-38344364D01*
X80500002Y-38324532D01*
X80499998Y-38324532D01*
X80273313Y-38344364D01*
X80273302Y-38344366D01*
X80053511Y-38403258D01*
X80053502Y-38403261D01*
X79847267Y-38499431D01*
X79847265Y-38499432D01*
X79660858Y-38629954D01*
X79499954Y-38790858D01*
X79369432Y-38977265D01*
X79369431Y-38977267D01*
X79273261Y-39183502D01*
X79273258Y-39183511D01*
X79214366Y-39403302D01*
X79214364Y-39403313D01*
X79194532Y-39629998D01*
X79194532Y-39630001D01*
X79214364Y-39856686D01*
X79214366Y-39856697D01*
X79273258Y-40076488D01*
X79273261Y-40076497D01*
X79369431Y-40282732D01*
X79369432Y-40282734D01*
X79499954Y-40469141D01*
X79660858Y-40630045D01*
X79674290Y-40639450D01*
X79847266Y-40760568D01*
X79904357Y-40787190D01*
X79905275Y-40787618D01*
X79957714Y-40833791D01*
X79976866Y-40900984D01*
X79956650Y-40967865D01*
X79905275Y-41012382D01*
X79847267Y-41039431D01*
X79847265Y-41039432D01*
X79660858Y-41169954D01*
X79499954Y-41330858D01*
X79369432Y-41517265D01*
X79369431Y-41517267D01*
X79273261Y-41723502D01*
X79273258Y-41723511D01*
X79214366Y-41943302D01*
X79214364Y-41943313D01*
X79194532Y-42169998D01*
X79194532Y-42170001D01*
X79214364Y-42396686D01*
X79214366Y-42396697D01*
X79273258Y-42616488D01*
X79273261Y-42616497D01*
X79369431Y-42822732D01*
X79369432Y-42822734D01*
X79499954Y-43009141D01*
X79660858Y-43170045D01*
X79660861Y-43170047D01*
X79847266Y-43300568D01*
X79905275Y-43327618D01*
X79957714Y-43373791D01*
X79976866Y-43440984D01*
X79956650Y-43507865D01*
X79905275Y-43552381D01*
X79896780Y-43556343D01*
X79847267Y-43579431D01*
X79847265Y-43579432D01*
X79660858Y-43709954D01*
X79642132Y-43728681D01*
X79580809Y-43762166D01*
X79554451Y-43765000D01*
X78751963Y-43765000D01*
X78667875Y-43762868D01*
X78666840Y-43763054D01*
X78644958Y-43765000D01*
X78172793Y-43765000D01*
X78105754Y-43745315D01*
X78085112Y-43728681D01*
X75866687Y-41510256D01*
X75808721Y-41449276D01*
X75808718Y-41449273D01*
X75761262Y-41416244D01*
X75757498Y-41413405D01*
X75712710Y-41376885D01*
X75712711Y-41376885D01*
X75712708Y-41376883D01*
X75684135Y-41361957D01*
X75677422Y-41357890D01*
X75650975Y-41339482D01*
X75650973Y-41339481D01*
X75650968Y-41339478D01*
X75597843Y-41316680D01*
X75593587Y-41314659D01*
X75542354Y-41287897D01*
X75511369Y-41279030D01*
X75503970Y-41276396D01*
X75474360Y-41263689D01*
X75417735Y-41252052D01*
X75413158Y-41250929D01*
X75357580Y-41235026D01*
X75325446Y-41232578D01*
X75317667Y-41231487D01*
X75286098Y-41225000D01*
X75286097Y-41225000D01*
X75228279Y-41225000D01*
X75223571Y-41224821D01*
X75217700Y-41224374D01*
X75165937Y-41220431D01*
X75147210Y-41222816D01*
X75133965Y-41224503D01*
X75126135Y-41225000D01*
X73825549Y-41225000D01*
X73758510Y-41205315D01*
X73737868Y-41188681D01*
X73719143Y-41169956D01*
X73693912Y-41152289D01*
X73650287Y-41097712D01*
X73643095Y-41028213D01*
X73674617Y-40965859D01*
X73734847Y-40930445D01*
X73751781Y-40927424D01*
X73787380Y-40923596D01*
X73922086Y-40873354D01*
X73922093Y-40873350D01*
X74037187Y-40787190D01*
X74037190Y-40787187D01*
X74123350Y-40672093D01*
X74123354Y-40672086D01*
X74173596Y-40537379D01*
X74173598Y-40537372D01*
X74179999Y-40477844D01*
X74180000Y-40477827D01*
X74180000Y-39880000D01*
X73313686Y-39880000D01*
X73339493Y-39839844D01*
X73380000Y-39701889D01*
X73380000Y-39558111D01*
X73339493Y-39420156D01*
X73313686Y-39380000D01*
X74180000Y-39380000D01*
X74180000Y-38782172D01*
X74179999Y-38782155D01*
X74173598Y-38722627D01*
X74173596Y-38722620D01*
X74123354Y-38587913D01*
X74123350Y-38587906D01*
X74037190Y-38472812D01*
X74037187Y-38472809D01*
X73922093Y-38386649D01*
X73922086Y-38386645D01*
X73787379Y-38336403D01*
X73787372Y-38336401D01*
X73727844Y-38330000D01*
X73130000Y-38330000D01*
X73130000Y-39194498D01*
X73022315Y-39145320D01*
X72915763Y-39130000D01*
X72844237Y-39130000D01*
X72737685Y-39145320D01*
X72630000Y-39194498D01*
X72630000Y-38330000D01*
X72032155Y-38330000D01*
X71972627Y-38336401D01*
X71972620Y-38336403D01*
X71837913Y-38386645D01*
X71837906Y-38386649D01*
X71722812Y-38472809D01*
X71722809Y-38472812D01*
X71636649Y-38587906D01*
X71636645Y-38587913D01*
X71586403Y-38722620D01*
X71586401Y-38722627D01*
X71580000Y-38782155D01*
X71580000Y-39380000D01*
X72446314Y-39380000D01*
X72420507Y-39420156D01*
X72380000Y-39558111D01*
X72380000Y-39701889D01*
X72420507Y-39839844D01*
X72446314Y-39880000D01*
X71580000Y-39880000D01*
X71580000Y-40477844D01*
X71586401Y-40537372D01*
X71586403Y-40537379D01*
X71636645Y-40672086D01*
X71636649Y-40672093D01*
X71722809Y-40787187D01*
X71722812Y-40787190D01*
X71837906Y-40873350D01*
X71837913Y-40873354D01*
X71972620Y-40923596D01*
X71972627Y-40923598D01*
X72008218Y-40927425D01*
X72072769Y-40954163D01*
X72112618Y-41011555D01*
X72115111Y-41081380D01*
X72079459Y-41141469D01*
X72066088Y-41152287D01*
X72040861Y-41169951D01*
X71879954Y-41330858D01*
X71749432Y-41517265D01*
X71749431Y-41517267D01*
X71653261Y-41723502D01*
X71653258Y-41723511D01*
X71594366Y-41943302D01*
X71594364Y-41943313D01*
X71574532Y-42169998D01*
X71574532Y-42170001D01*
X71594364Y-42396686D01*
X71594366Y-42396697D01*
X71653258Y-42616488D01*
X71653261Y-42616497D01*
X71749431Y-42822732D01*
X71749432Y-42822734D01*
X71879954Y-43009141D01*
X72040858Y-43170045D01*
X72040861Y-43170047D01*
X72227266Y-43300568D01*
X72285275Y-43327618D01*
X72337714Y-43373791D01*
X72356866Y-43440984D01*
X72336650Y-43507865D01*
X72285275Y-43552381D01*
X72276780Y-43556343D01*
X72227267Y-43579431D01*
X72227265Y-43579432D01*
X72040858Y-43709954D01*
X71879954Y-43870858D01*
X71749432Y-44057265D01*
X71749431Y-44057267D01*
X71653261Y-44263502D01*
X71653258Y-44263511D01*
X71594366Y-44483302D01*
X71594364Y-44483313D01*
X71574532Y-44709998D01*
X71574532Y-44710001D01*
X71594364Y-44936686D01*
X71594366Y-44936697D01*
X71653258Y-45156488D01*
X71653261Y-45156497D01*
X71749431Y-45362732D01*
X71749432Y-45362734D01*
X71879954Y-45549141D01*
X72040858Y-45710045D01*
X72040861Y-45710047D01*
X72227266Y-45840568D01*
X72247830Y-45850157D01*
X72285275Y-45867618D01*
X72337714Y-45913791D01*
X72356866Y-45980984D01*
X72336650Y-46047865D01*
X72285275Y-46092382D01*
X72227267Y-46119431D01*
X72227265Y-46119432D01*
X72040858Y-46249954D01*
X71879954Y-46410858D01*
X71749432Y-46597265D01*
X71749431Y-46597267D01*
X71653261Y-46803502D01*
X71653258Y-46803511D01*
X71594366Y-47023302D01*
X71594364Y-47023313D01*
X71574532Y-47249998D01*
X71574532Y-47250001D01*
X71594364Y-47476686D01*
X71594366Y-47476697D01*
X71653258Y-47696488D01*
X71653261Y-47696497D01*
X71749431Y-47902732D01*
X71749432Y-47902734D01*
X71879954Y-48089141D01*
X72040858Y-48250045D01*
X72040861Y-48250047D01*
X72227266Y-48380568D01*
X72433504Y-48476739D01*
X72653308Y-48535635D01*
X72815230Y-48549801D01*
X72879998Y-48555468D01*
X72880000Y-48555468D01*
X72880002Y-48555468D01*
X72936673Y-48550509D01*
X73106692Y-48535635D01*
X73326496Y-48476739D01*
X73532734Y-48380568D01*
X73719139Y-48250047D01*
X73880047Y-48089139D01*
X74010568Y-47902734D01*
X74106739Y-47696496D01*
X74165635Y-47476692D01*
X74185468Y-47250000D01*
X74165635Y-47023308D01*
X74106739Y-46803504D01*
X74010568Y-46597266D01*
X73880047Y-46410861D01*
X73880045Y-46410858D01*
X73719141Y-46249954D01*
X73532734Y-46119432D01*
X73532728Y-46119429D01*
X73474725Y-46092382D01*
X73422285Y-46046210D01*
X73403133Y-45979017D01*
X73423348Y-45912135D01*
X73474725Y-45867618D01*
X73532734Y-45840568D01*
X73719139Y-45710047D01*
X73880047Y-45549139D01*
X74010568Y-45362734D01*
X74106739Y-45156496D01*
X74165635Y-44936692D01*
X74185468Y-44710000D01*
X74165635Y-44483308D01*
X74106739Y-44263504D01*
X74010568Y-44057266D01*
X73880047Y-43870861D01*
X73880045Y-43870858D01*
X73719141Y-43709954D01*
X73532734Y-43579432D01*
X73532728Y-43579429D01*
X73483226Y-43556346D01*
X73474724Y-43552381D01*
X73422285Y-43506210D01*
X73403133Y-43439017D01*
X73423348Y-43372135D01*
X73474725Y-43327618D01*
X73532734Y-43300568D01*
X73719139Y-43170047D01*
X73719141Y-43170045D01*
X73737868Y-43151319D01*
X73799191Y-43117834D01*
X73825549Y-43115000D01*
X74747206Y-43115000D01*
X74814245Y-43134685D01*
X74834887Y-43151319D01*
X76993833Y-45310265D01*
X77013932Y-45330364D01*
X77053328Y-45369761D01*
X77111275Y-45430721D01*
X77116048Y-45434818D01*
X77114272Y-45436885D01*
X77150610Y-45482072D01*
X77160000Y-45529407D01*
X77160000Y-55868036D01*
X77157868Y-55952124D01*
X77157868Y-55952125D01*
X77158055Y-55953166D01*
X77160000Y-55975040D01*
X77160000Y-56489488D01*
X77159920Y-56492628D01*
X77156346Y-56563109D01*
X77156346Y-56563110D01*
X77158570Y-56577627D01*
X77160000Y-56596404D01*
X77160000Y-57111719D01*
X77159821Y-57116429D01*
X77155431Y-57174061D01*
X77157501Y-57190310D01*
X77159503Y-57206033D01*
X77160000Y-57213863D01*
X77160000Y-61702205D01*
X77140315Y-61769244D01*
X77123681Y-61789886D01*
X72340256Y-66573311D01*
X72279275Y-66631280D01*
X72246246Y-66678733D01*
X72243409Y-66682495D01*
X72206881Y-66727293D01*
X72191962Y-66755854D01*
X72187893Y-66762572D01*
X72169483Y-66789021D01*
X72169478Y-66789031D01*
X72146684Y-66842149D01*
X72144662Y-66846405D01*
X72117898Y-66897645D01*
X72117896Y-66897650D01*
X72109032Y-66928626D01*
X72106398Y-66936024D01*
X72093687Y-66965644D01*
X72082051Y-67022267D01*
X72080928Y-67026842D01*
X72065027Y-67082415D01*
X72065026Y-67082419D01*
X72062578Y-67114552D01*
X72061488Y-67122329D01*
X72055000Y-67153900D01*
X72055000Y-67211719D01*
X72054821Y-67216429D01*
X72050431Y-67274061D01*
X72052501Y-67290310D01*
X72054503Y-67306033D01*
X72055000Y-67313863D01*
X72055000Y-76988036D01*
X72052868Y-77072123D01*
X72063067Y-77129027D01*
X72063721Y-77133693D01*
X72069570Y-77191201D01*
X72069571Y-77191209D01*
X72079220Y-77221966D01*
X72081092Y-77229591D01*
X72086776Y-77261305D01*
X72086778Y-77261311D01*
X72108217Y-77314984D01*
X72109796Y-77319420D01*
X72127106Y-77374585D01*
X72127109Y-77374592D01*
X72142749Y-77402771D01*
X72146116Y-77409862D01*
X72158071Y-77439788D01*
X72189885Y-77488062D01*
X72192320Y-77492081D01*
X72220371Y-77542620D01*
X72220375Y-77542626D01*
X72220379Y-77542632D01*
X72238069Y-77563239D01*
X72241369Y-77567083D01*
X72246098Y-77573356D01*
X72263833Y-77600265D01*
X72304726Y-77641158D01*
X72307918Y-77644603D01*
X72345569Y-77688461D01*
X72371047Y-77708182D01*
X72376943Y-77713375D01*
X74073331Y-79409764D01*
X74107238Y-79445434D01*
X74139159Y-79507586D01*
X74132411Y-79577129D01*
X74089136Y-79631984D01*
X74023074Y-79654734D01*
X74018089Y-79654864D01*
X63725236Y-79715056D01*
X63658083Y-79695764D01*
X63612020Y-79643228D01*
X63601672Y-79574129D01*
X63630325Y-79510405D01*
X63672441Y-79478521D01*
X63798253Y-79420315D01*
X64104919Y-79235800D01*
X64389837Y-79019211D01*
X64649668Y-78773086D01*
X64881365Y-78500311D01*
X65082211Y-78204085D01*
X65249853Y-77887880D01*
X65382324Y-77555403D01*
X65478071Y-77210552D01*
X65519054Y-76960565D01*
X65535970Y-76857385D01*
X65535970Y-76857382D01*
X65535972Y-76857371D01*
X65555348Y-76500000D01*
X65535972Y-76142629D01*
X65535747Y-76141258D01*
X65478073Y-75789460D01*
X65478072Y-75789459D01*
X65478071Y-75789448D01*
X65441641Y-75658239D01*
X65382327Y-75444607D01*
X65382325Y-75444600D01*
X65249857Y-75112129D01*
X65249848Y-75112111D01*
X65082215Y-74795922D01*
X65082213Y-74795919D01*
X65082211Y-74795915D01*
X64881365Y-74499689D01*
X64881361Y-74499684D01*
X64881358Y-74499680D01*
X64649668Y-74226914D01*
X64462374Y-74049500D01*
X64389837Y-73980789D01*
X64389830Y-73980783D01*
X64389827Y-73980781D01*
X64239221Y-73866294D01*
X64104919Y-73764200D01*
X63798253Y-73579685D01*
X63798252Y-73579684D01*
X63798248Y-73579682D01*
X63798244Y-73579680D01*
X63473447Y-73429414D01*
X63473441Y-73429411D01*
X63473435Y-73429409D01*
X63303854Y-73372270D01*
X63134273Y-73315131D01*
X62784744Y-73238194D01*
X62428949Y-73199500D01*
X62428948Y-73199500D01*
X62071052Y-73199500D01*
X62071050Y-73199500D01*
X61715255Y-73238194D01*
X61365726Y-73315131D01*
X61109970Y-73401306D01*
X61026565Y-73429409D01*
X61026563Y-73429410D01*
X61026552Y-73429414D01*
X60701755Y-73579680D01*
X60701751Y-73579682D01*
X60531218Y-73682289D01*
X60395081Y-73764200D01*
X60352457Y-73796602D01*
X60110172Y-73980781D01*
X60110163Y-73980789D01*
X59850331Y-74226914D01*
X59618641Y-74499680D01*
X59618634Y-74499690D01*
X59417790Y-74795913D01*
X59417784Y-74795922D01*
X59250151Y-75112111D01*
X59250142Y-75112129D01*
X59117674Y-75444600D01*
X59117672Y-75444607D01*
X59021932Y-75789434D01*
X59021926Y-75789460D01*
X58964029Y-76142614D01*
X58964028Y-76142627D01*
X58964028Y-76142629D01*
X58961261Y-76193656D01*
X58944652Y-76499997D01*
X58944652Y-76500002D01*
X58964028Y-76857368D01*
X58964029Y-76857385D01*
X59021926Y-77210539D01*
X59021932Y-77210565D01*
X59117672Y-77555392D01*
X59117674Y-77555399D01*
X59250142Y-77887870D01*
X59250151Y-77887888D01*
X59417784Y-78204077D01*
X59417787Y-78204082D01*
X59417789Y-78204085D01*
X59575123Y-78436136D01*
X59618634Y-78500309D01*
X59618641Y-78500319D01*
X59847046Y-78769218D01*
X59850332Y-78773086D01*
X60110163Y-79019211D01*
X60395081Y-79235800D01*
X60629295Y-79376722D01*
X60695517Y-79416567D01*
X60701747Y-79420315D01*
X60864366Y-79495550D01*
X60916943Y-79541564D01*
X60936297Y-79608699D01*
X60916283Y-79675641D01*
X60863255Y-79721135D01*
X60813024Y-79732087D01*
X57874725Y-79749270D01*
X57807572Y-79729978D01*
X57761509Y-79677442D01*
X57750000Y-79625272D01*
X57750000Y-68797870D01*
X61749500Y-68797870D01*
X61749501Y-68797876D01*
X61755908Y-68857483D01*
X61806202Y-68992328D01*
X61806206Y-68992335D01*
X61892452Y-69107544D01*
X61892455Y-69107547D01*
X62007664Y-69193793D01*
X62007671Y-69193797D01*
X62142517Y-69244091D01*
X62142516Y-69244091D01*
X62149444Y-69244835D01*
X62202127Y-69250500D01*
X65297872Y-69250499D01*
X65357483Y-69244091D01*
X65492331Y-69193796D01*
X65607546Y-69107546D01*
X65693796Y-68992331D01*
X65744091Y-68857483D01*
X65750500Y-68797873D01*
X65750500Y-67250001D01*
X66824390Y-67250001D01*
X66844804Y-67535433D01*
X66905628Y-67815037D01*
X67005635Y-68083166D01*
X67142770Y-68334309D01*
X67142775Y-68334317D01*
X67314254Y-68563387D01*
X67314270Y-68563405D01*
X67516594Y-68765729D01*
X67516612Y-68765745D01*
X67745682Y-68937224D01*
X67745690Y-68937229D01*
X67996833Y-69074364D01*
X67996832Y-69074364D01*
X67996836Y-69074365D01*
X67996839Y-69074367D01*
X68264954Y-69174369D01*
X68264960Y-69174370D01*
X68264962Y-69174371D01*
X68544566Y-69235195D01*
X68544568Y-69235195D01*
X68544572Y-69235196D01*
X68798220Y-69253337D01*
X68829999Y-69255610D01*
X68830000Y-69255610D01*
X68830001Y-69255610D01*
X68858595Y-69253564D01*
X69115428Y-69235196D01*
X69305742Y-69193796D01*
X69395037Y-69174371D01*
X69395037Y-69174370D01*
X69395046Y-69174369D01*
X69663161Y-69074367D01*
X69914315Y-68937226D01*
X70143395Y-68765739D01*
X70345739Y-68563395D01*
X70517226Y-68334315D01*
X70654367Y-68083161D01*
X70754369Y-67815046D01*
X70815196Y-67535428D01*
X70835610Y-67250000D01*
X70815196Y-66964572D01*
X70807376Y-66928626D01*
X70754371Y-66684962D01*
X70754370Y-66684960D01*
X70754369Y-66684954D01*
X70654367Y-66416839D01*
X70599102Y-66315630D01*
X70517229Y-66165690D01*
X70517224Y-66165682D01*
X70345745Y-65936612D01*
X70345729Y-65936594D01*
X70143405Y-65734270D01*
X70143387Y-65734254D01*
X69914317Y-65562775D01*
X69914309Y-65562770D01*
X69663166Y-65425635D01*
X69663167Y-65425635D01*
X69555915Y-65385632D01*
X69395046Y-65325631D01*
X69395043Y-65325630D01*
X69395037Y-65325628D01*
X69115433Y-65264804D01*
X68830001Y-65244390D01*
X68829999Y-65244390D01*
X68544566Y-65264804D01*
X68264962Y-65325628D01*
X67996833Y-65425635D01*
X67745690Y-65562770D01*
X67745682Y-65562775D01*
X67516612Y-65734254D01*
X67516594Y-65734270D01*
X67314270Y-65936594D01*
X67314254Y-65936612D01*
X67142775Y-66165682D01*
X67142770Y-66165690D01*
X67005635Y-66416833D01*
X66905628Y-66684962D01*
X66844804Y-66964566D01*
X66824390Y-67249998D01*
X66824390Y-67250001D01*
X65750500Y-67250001D01*
X65750499Y-65702128D01*
X65744091Y-65642517D01*
X65714347Y-65562770D01*
X65693797Y-65507671D01*
X65693793Y-65507664D01*
X65607547Y-65392455D01*
X65607544Y-65392452D01*
X65492335Y-65306206D01*
X65492328Y-65306202D01*
X65357482Y-65255908D01*
X65357483Y-65255908D01*
X65297883Y-65249501D01*
X65297881Y-65249500D01*
X65297873Y-65249500D01*
X65297864Y-65249500D01*
X62202129Y-65249500D01*
X62202123Y-65249501D01*
X62142516Y-65255908D01*
X62007671Y-65306202D01*
X62007664Y-65306206D01*
X61892455Y-65392452D01*
X61892452Y-65392455D01*
X61806206Y-65507664D01*
X61806202Y-65507671D01*
X61755908Y-65642517D01*
X61749501Y-65702116D01*
X61749501Y-65702123D01*
X61749500Y-65702135D01*
X61749500Y-68797870D01*
X57750000Y-68797870D01*
X57750000Y-59750001D01*
X66324532Y-59750001D01*
X66344364Y-59976686D01*
X66344366Y-59976697D01*
X66403258Y-60196488D01*
X66403261Y-60196497D01*
X66499431Y-60402732D01*
X66499432Y-60402734D01*
X66629954Y-60589141D01*
X66790858Y-60750045D01*
X66790861Y-60750047D01*
X66977266Y-60880568D01*
X67183504Y-60976739D01*
X67403308Y-61035635D01*
X67565230Y-61049801D01*
X67629998Y-61055468D01*
X67630000Y-61055468D01*
X67630002Y-61055468D01*
X67686673Y-61050509D01*
X67856692Y-61035635D01*
X68076496Y-60976739D01*
X68282734Y-60880568D01*
X68469139Y-60750047D01*
X68630047Y-60589139D01*
X68760568Y-60402734D01*
X68856739Y-60196496D01*
X68915635Y-59976692D01*
X68935468Y-59750001D01*
X73944532Y-59750001D01*
X73964364Y-59976686D01*
X73964366Y-59976697D01*
X74023258Y-60196488D01*
X74023261Y-60196497D01*
X74119431Y-60402732D01*
X74119432Y-60402734D01*
X74249954Y-60589141D01*
X74410858Y-60750045D01*
X74410861Y-60750047D01*
X74597266Y-60880568D01*
X74803504Y-60976739D01*
X75023308Y-61035635D01*
X75185230Y-61049801D01*
X75249998Y-61055468D01*
X75250000Y-61055468D01*
X75250002Y-61055468D01*
X75306673Y-61050509D01*
X75476692Y-61035635D01*
X75696496Y-60976739D01*
X75902734Y-60880568D01*
X76089139Y-60750047D01*
X76250047Y-60589139D01*
X76380568Y-60402734D01*
X76476739Y-60196496D01*
X76535635Y-59976692D01*
X76555468Y-59750000D01*
X76535635Y-59523308D01*
X76476739Y-59303504D01*
X76380568Y-59097266D01*
X76250047Y-58910861D01*
X76250045Y-58910858D01*
X76089141Y-58749954D01*
X75902734Y-58619432D01*
X75902732Y-58619431D01*
X75696497Y-58523261D01*
X75696488Y-58523258D01*
X75476697Y-58464366D01*
X75476693Y-58464365D01*
X75476692Y-58464365D01*
X75476691Y-58464364D01*
X75476686Y-58464364D01*
X75250002Y-58444532D01*
X75249998Y-58444532D01*
X75023313Y-58464364D01*
X75023302Y-58464366D01*
X74803511Y-58523258D01*
X74803502Y-58523261D01*
X74597267Y-58619431D01*
X74597265Y-58619432D01*
X74410858Y-58749954D01*
X74249954Y-58910858D01*
X74119432Y-59097265D01*
X74119431Y-59097267D01*
X74023261Y-59303502D01*
X74023258Y-59303511D01*
X73964366Y-59523302D01*
X73964364Y-59523313D01*
X73944532Y-59749998D01*
X73944532Y-59750001D01*
X68935468Y-59750001D01*
X68935468Y-59750000D01*
X68915635Y-59523308D01*
X68856739Y-59303504D01*
X68760568Y-59097266D01*
X68630047Y-58910861D01*
X68630045Y-58910858D01*
X68469141Y-58749954D01*
X68282734Y-58619432D01*
X68282732Y-58619431D01*
X68076497Y-58523261D01*
X68076488Y-58523258D01*
X67856697Y-58464366D01*
X67856693Y-58464365D01*
X67856692Y-58464365D01*
X67856691Y-58464364D01*
X67856686Y-58464364D01*
X67630002Y-58444532D01*
X67629998Y-58444532D01*
X67403313Y-58464364D01*
X67403302Y-58464366D01*
X67183511Y-58523258D01*
X67183502Y-58523261D01*
X66977267Y-58619431D01*
X66977265Y-58619432D01*
X66790858Y-58749954D01*
X66629954Y-58910858D01*
X66499432Y-59097265D01*
X66499431Y-59097267D01*
X66403261Y-59303502D01*
X66403258Y-59303511D01*
X66344366Y-59523302D01*
X66344364Y-59523313D01*
X66324532Y-59749998D01*
X66324532Y-59750001D01*
X57750000Y-59750001D01*
X57750000Y-54749999D01*
X66161127Y-54749999D01*
X66161128Y-54750000D01*
X67124314Y-54750000D01*
X67112359Y-54761955D01*
X67054835Y-54874852D01*
X67035014Y-55000000D01*
X67054835Y-55125148D01*
X67112359Y-55238045D01*
X67124314Y-55250000D01*
X66161128Y-55250000D01*
X66213730Y-55446317D01*
X66213734Y-55446326D01*
X66309865Y-55652482D01*
X66440342Y-55838820D01*
X66601179Y-55999657D01*
X66787517Y-56130134D01*
X66993673Y-56226265D01*
X66993682Y-56226269D01*
X67189999Y-56278872D01*
X67190000Y-56278871D01*
X67190000Y-55315686D01*
X67201955Y-55327641D01*
X67314852Y-55385165D01*
X67408519Y-55400000D01*
X67471481Y-55400000D01*
X67565148Y-55385165D01*
X67678045Y-55327641D01*
X67690000Y-55315686D01*
X67690000Y-56278872D01*
X67886317Y-56226269D01*
X67886326Y-56226265D01*
X68092482Y-56130134D01*
X68278820Y-55999657D01*
X68439657Y-55838820D01*
X68570134Y-55652482D01*
X68666265Y-55446326D01*
X68666269Y-55446317D01*
X68718872Y-55250000D01*
X67755686Y-55250000D01*
X67767641Y-55238045D01*
X67825165Y-55125148D01*
X67844986Y-55000001D01*
X73754532Y-55000001D01*
X73774364Y-55226686D01*
X73774366Y-55226697D01*
X73833258Y-55446488D01*
X73833261Y-55446497D01*
X73929431Y-55652732D01*
X73929432Y-55652734D01*
X74059954Y-55839141D01*
X74220858Y-56000045D01*
X74220861Y-56000047D01*
X74407266Y-56130568D01*
X74613504Y-56226739D01*
X74833308Y-56285635D01*
X74995230Y-56299801D01*
X75059998Y-56305468D01*
X75060000Y-56305468D01*
X75060002Y-56305468D01*
X75116673Y-56300509D01*
X75286692Y-56285635D01*
X75506496Y-56226739D01*
X75712734Y-56130568D01*
X75899139Y-56000047D01*
X76060047Y-55839139D01*
X76190568Y-55652734D01*
X76286739Y-55446496D01*
X76345635Y-55226692D01*
X76365468Y-55000000D01*
X76345635Y-54773308D01*
X76296518Y-54590000D01*
X76286741Y-54553511D01*
X76286738Y-54553502D01*
X76276295Y-54531107D01*
X76190568Y-54347266D01*
X76060047Y-54160861D01*
X76060045Y-54160858D01*
X75899141Y-53999954D01*
X75712734Y-53869432D01*
X75712732Y-53869431D01*
X75506497Y-53773261D01*
X75506488Y-53773258D01*
X75286697Y-53714366D01*
X75286693Y-53714365D01*
X75286692Y-53714365D01*
X75286691Y-53714364D01*
X75286686Y-53714364D01*
X75060002Y-53694532D01*
X75059998Y-53694532D01*
X74833313Y-53714364D01*
X74833302Y-53714366D01*
X74613511Y-53773258D01*
X74613502Y-53773261D01*
X74407267Y-53869431D01*
X74407265Y-53869432D01*
X74220858Y-53999954D01*
X74059954Y-54160858D01*
X73929432Y-54347265D01*
X73929431Y-54347267D01*
X73833261Y-54553502D01*
X73833258Y-54553511D01*
X73774366Y-54773302D01*
X73774364Y-54773313D01*
X73754532Y-54999998D01*
X73754532Y-55000001D01*
X67844986Y-55000001D01*
X67844986Y-55000000D01*
X67825165Y-54874852D01*
X67767641Y-54761955D01*
X67755686Y-54750000D01*
X68718872Y-54750000D01*
X68718872Y-54749999D01*
X68666269Y-54553682D01*
X68666265Y-54553673D01*
X68570134Y-54347517D01*
X68439657Y-54161179D01*
X68278820Y-54000342D01*
X68092482Y-53869865D01*
X67886328Y-53773734D01*
X67690000Y-53721127D01*
X67690000Y-54684314D01*
X67678045Y-54672359D01*
X67565148Y-54614835D01*
X67471481Y-54600000D01*
X67408519Y-54600000D01*
X67314852Y-54614835D01*
X67201955Y-54672359D01*
X67190000Y-54684314D01*
X67190000Y-53721127D01*
X66993671Y-53773734D01*
X66787517Y-53869865D01*
X66601179Y-54000342D01*
X66440342Y-54161179D01*
X66309865Y-54347517D01*
X66213734Y-54553673D01*
X66213730Y-54553682D01*
X66161127Y-54749999D01*
X57750000Y-54749999D01*
X57750000Y-45330370D01*
X64749500Y-45330370D01*
X64749501Y-45330376D01*
X64755908Y-45389983D01*
X64806202Y-45524828D01*
X64806206Y-45524835D01*
X64892452Y-45640044D01*
X64892455Y-45640047D01*
X65007664Y-45726293D01*
X65007671Y-45726297D01*
X65142517Y-45776591D01*
X65142516Y-45776591D01*
X65149444Y-45777335D01*
X65202127Y-45783000D01*
X67297872Y-45782999D01*
X67357483Y-45776591D01*
X67492331Y-45726296D01*
X67607546Y-45640046D01*
X67693796Y-45524831D01*
X67744091Y-45389983D01*
X67750500Y-45330373D01*
X67750499Y-43329628D01*
X67744091Y-43270017D01*
X67718409Y-43201161D01*
X67693797Y-43135171D01*
X67693793Y-43135164D01*
X67607547Y-43019955D01*
X67607544Y-43019952D01*
X67492335Y-42933706D01*
X67492328Y-42933702D01*
X67461687Y-42922274D01*
X67405753Y-42880403D01*
X67381336Y-42814938D01*
X67396188Y-42746665D01*
X67407161Y-42729937D01*
X67518072Y-42587439D01*
X67632679Y-42375664D01*
X67710866Y-42147913D01*
X67750500Y-41910399D01*
X67750500Y-41669601D01*
X67710866Y-41432087D01*
X67704966Y-41414902D01*
X67661366Y-41287898D01*
X67632679Y-41204336D01*
X67518072Y-40992561D01*
X67504752Y-40975448D01*
X67464396Y-40923598D01*
X67370171Y-40802537D01*
X67193010Y-40639449D01*
X67193007Y-40639446D01*
X67168614Y-40623510D01*
X67123257Y-40570364D01*
X67113833Y-40501132D01*
X67143335Y-40437796D01*
X67168616Y-40415891D01*
X67192701Y-40400155D01*
X67192702Y-40400154D01*
X67369797Y-40237126D01*
X67369806Y-40237116D01*
X67517649Y-40047168D01*
X67517655Y-40047159D01*
X67632215Y-39835468D01*
X67632221Y-39835454D01*
X67710380Y-39607791D01*
X67728367Y-39500000D01*
X66795882Y-39500000D01*
X66834556Y-39406631D01*
X66855177Y-39250000D01*
X66834556Y-39093369D01*
X66795882Y-39000000D01*
X67728366Y-39000000D01*
X67728366Y-38999999D01*
X67710380Y-38892208D01*
X67632221Y-38664545D01*
X67632215Y-38664531D01*
X67517655Y-38452840D01*
X67517649Y-38452831D01*
X67369806Y-38262883D01*
X67369797Y-38262873D01*
X67355814Y-38250001D01*
X82444532Y-38250001D01*
X82464364Y-38476686D01*
X82464366Y-38476697D01*
X82523258Y-38696488D01*
X82523261Y-38696497D01*
X82619431Y-38902732D01*
X82619432Y-38902734D01*
X82749954Y-39089141D01*
X82910858Y-39250045D01*
X82910861Y-39250047D01*
X83097266Y-39380568D01*
X83303504Y-39476739D01*
X83523308Y-39535635D01*
X83685230Y-39549801D01*
X83749998Y-39555468D01*
X83750000Y-39555468D01*
X83750002Y-39555468D01*
X83806673Y-39550509D01*
X83976692Y-39535635D01*
X84196496Y-39476739D01*
X84402734Y-39380568D01*
X84417827Y-39370000D01*
X85389551Y-39370000D01*
X85409317Y-39621151D01*
X85468126Y-39866110D01*
X85564533Y-40098859D01*
X85696160Y-40313653D01*
X85696161Y-40313656D01*
X85696164Y-40313659D01*
X85859776Y-40505224D01*
X85972624Y-40601605D01*
X86051343Y-40668838D01*
X86051346Y-40668839D01*
X86266140Y-40800466D01*
X86442099Y-40873350D01*
X86498889Y-40896873D01*
X86743852Y-40955683D01*
X86995000Y-40975449D01*
X87246148Y-40955683D01*
X87491111Y-40896873D01*
X87723859Y-40800466D01*
X87938659Y-40668836D01*
X88130224Y-40505224D01*
X88293836Y-40313659D01*
X88425466Y-40098859D01*
X88521873Y-39866111D01*
X88580683Y-39621148D01*
X88600449Y-39370000D01*
X88580683Y-39118852D01*
X88521873Y-38873889D01*
X88460575Y-38725901D01*
X88425466Y-38641140D01*
X88293839Y-38426346D01*
X88293838Y-38426343D01*
X88256875Y-38383066D01*
X88130224Y-38234776D01*
X87972238Y-38099843D01*
X87938656Y-38071161D01*
X87938653Y-38071160D01*
X87723859Y-37939533D01*
X87491110Y-37843126D01*
X87246151Y-37784317D01*
X86995000Y-37764551D01*
X86743848Y-37784317D01*
X86498889Y-37843126D01*
X86266140Y-37939533D01*
X86051346Y-38071160D01*
X86051343Y-38071161D01*
X85859776Y-38234776D01*
X85696161Y-38426343D01*
X85696160Y-38426346D01*
X85564533Y-38641140D01*
X85468126Y-38873889D01*
X85409317Y-39118848D01*
X85389551Y-39370000D01*
X84417827Y-39370000D01*
X84589139Y-39250047D01*
X84750047Y-39089139D01*
X84880568Y-38902734D01*
X84976739Y-38696496D01*
X85035635Y-38476692D01*
X85055468Y-38250000D01*
X85053029Y-38222127D01*
X85047814Y-38162516D01*
X85035635Y-38023308D01*
X84976739Y-37803504D01*
X84880568Y-37597266D01*
X84750047Y-37410861D01*
X84750045Y-37410858D01*
X84589141Y-37249954D01*
X84402734Y-37119432D01*
X84402730Y-37119430D01*
X84387022Y-37112105D01*
X84334583Y-37065931D01*
X84315433Y-36998737D01*
X84335650Y-36931857D01*
X84387028Y-36887340D01*
X84402481Y-36880134D01*
X84475472Y-36829025D01*
X83794401Y-36147953D01*
X83875148Y-36135165D01*
X83988045Y-36077641D01*
X84077641Y-35988045D01*
X84135165Y-35875148D01*
X84147953Y-35794400D01*
X84829025Y-36475472D01*
X84880136Y-36402478D01*
X84976264Y-36196331D01*
X84976269Y-36196317D01*
X85035139Y-35976610D01*
X85035141Y-35976599D01*
X85054966Y-35750002D01*
X85054966Y-35749997D01*
X85035141Y-35523400D01*
X85035139Y-35523389D01*
X84976269Y-35303682D01*
X84976265Y-35303673D01*
X84880133Y-35097516D01*
X84880131Y-35097512D01*
X84829026Y-35024526D01*
X84829025Y-35024526D01*
X84147953Y-35705598D01*
X84135165Y-35624852D01*
X84077641Y-35511955D01*
X83988045Y-35422359D01*
X83875148Y-35364835D01*
X83794400Y-35352046D01*
X84475472Y-34670974D01*
X84475471Y-34670973D01*
X84402483Y-34619866D01*
X84402481Y-34619865D01*
X84196326Y-34523734D01*
X84196317Y-34523730D01*
X83976610Y-34464860D01*
X83976599Y-34464858D01*
X83750002Y-34445034D01*
X83749998Y-34445034D01*
X83523400Y-34464858D01*
X83523389Y-34464860D01*
X83303682Y-34523730D01*
X83303673Y-34523734D01*
X83097513Y-34619868D01*
X83024527Y-34670972D01*
X83024526Y-34670973D01*
X83705600Y-35352046D01*
X83624852Y-35364835D01*
X83511955Y-35422359D01*
X83422359Y-35511955D01*
X83364835Y-35624852D01*
X83352046Y-35705599D01*
X82670973Y-35024526D01*
X82670972Y-35024527D01*
X82619868Y-35097513D01*
X82523734Y-35303673D01*
X82523730Y-35303682D01*
X82464860Y-35523389D01*
X82464858Y-35523400D01*
X82445034Y-35749997D01*
X82445034Y-35750002D01*
X82464858Y-35976599D01*
X82464860Y-35976610D01*
X82523730Y-36196317D01*
X82523734Y-36196326D01*
X82619865Y-36402481D01*
X82619866Y-36402483D01*
X82670973Y-36475471D01*
X82670974Y-36475472D01*
X83352046Y-35794399D01*
X83364835Y-35875148D01*
X83422359Y-35988045D01*
X83511955Y-36077641D01*
X83624852Y-36135165D01*
X83705599Y-36147953D01*
X83024526Y-36829025D01*
X83024526Y-36829026D01*
X83097512Y-36880131D01*
X83097515Y-36880132D01*
X83112974Y-36887341D01*
X83165414Y-36933513D01*
X83184567Y-37000706D01*
X83164352Y-37067587D01*
X83112978Y-37112105D01*
X83097269Y-37119430D01*
X83097265Y-37119432D01*
X82910858Y-37249954D01*
X82749954Y-37410858D01*
X82619432Y-37597265D01*
X82619431Y-37597267D01*
X82523261Y-37803502D01*
X82523258Y-37803511D01*
X82464366Y-38023302D01*
X82464364Y-38023313D01*
X82444532Y-38249998D01*
X82444532Y-38250001D01*
X67355814Y-38250001D01*
X67192710Y-38099851D01*
X67192699Y-38099843D01*
X66991184Y-37968186D01*
X66770739Y-37871491D01*
X66770740Y-37871491D01*
X66537391Y-37812399D01*
X66500000Y-37809300D01*
X66500000Y-38704118D01*
X66406631Y-38665444D01*
X66289323Y-38650000D01*
X66210677Y-38650000D01*
X66093369Y-38665444D01*
X66000000Y-38704118D01*
X66000000Y-37809300D01*
X65999999Y-37809300D01*
X65962608Y-37812399D01*
X65729259Y-37871491D01*
X65508815Y-37968186D01*
X65307300Y-38099843D01*
X65307289Y-38099851D01*
X65130202Y-38262873D01*
X65130193Y-38262883D01*
X64982350Y-38452831D01*
X64982344Y-38452840D01*
X64867784Y-38664531D01*
X64867778Y-38664545D01*
X64789619Y-38892208D01*
X64771633Y-38999999D01*
X64771634Y-39000000D01*
X65704118Y-39000000D01*
X65665444Y-39093369D01*
X65644823Y-39250000D01*
X65665444Y-39406631D01*
X65704118Y-39500000D01*
X64771633Y-39500000D01*
X64789619Y-39607791D01*
X64867778Y-39835454D01*
X64867784Y-39835468D01*
X64982344Y-40047159D01*
X64982350Y-40047168D01*
X65130193Y-40237116D01*
X65130202Y-40237126D01*
X65307297Y-40400154D01*
X65307296Y-40400154D01*
X65331385Y-40415892D01*
X65376742Y-40469038D01*
X65386166Y-40538269D01*
X65356664Y-40601605D01*
X65331389Y-40623507D01*
X65306994Y-40639446D01*
X65306988Y-40639450D01*
X65129832Y-40802534D01*
X65129829Y-40802537D01*
X65110364Y-40827546D01*
X64981929Y-40992558D01*
X64867321Y-41204334D01*
X64867318Y-41204343D01*
X64789134Y-41432083D01*
X64776090Y-41510256D01*
X64749500Y-41669601D01*
X64749500Y-41910399D01*
X64765353Y-42005404D01*
X64789134Y-42147916D01*
X64867318Y-42375656D01*
X64867321Y-42375665D01*
X64981929Y-42587441D01*
X64981933Y-42587447D01*
X65092832Y-42729930D01*
X65118475Y-42794924D01*
X65104908Y-42863464D01*
X65056440Y-42913788D01*
X65038313Y-42922273D01*
X65007675Y-42933700D01*
X65007664Y-42933706D01*
X64892455Y-43019952D01*
X64892452Y-43019955D01*
X64806206Y-43135164D01*
X64806202Y-43135171D01*
X64755908Y-43270017D01*
X64751419Y-43311776D01*
X64749501Y-43329623D01*
X64749500Y-43329635D01*
X64749500Y-45330370D01*
X57750000Y-45330370D01*
X57750000Y-35750001D01*
X72944532Y-35750001D01*
X72964364Y-35976686D01*
X72964366Y-35976697D01*
X73023258Y-36196488D01*
X73023261Y-36196497D01*
X73119431Y-36402732D01*
X73119432Y-36402734D01*
X73249954Y-36589141D01*
X73410858Y-36750045D01*
X73410861Y-36750047D01*
X73597266Y-36880568D01*
X73803504Y-36976739D01*
X74023308Y-37035635D01*
X74185230Y-37049801D01*
X74249998Y-37055468D01*
X74250000Y-37055468D01*
X74250002Y-37055468D01*
X74306673Y-37050509D01*
X74476692Y-37035635D01*
X74696496Y-36976739D01*
X74902734Y-36880568D01*
X75089139Y-36750047D01*
X75250047Y-36589139D01*
X75380568Y-36402734D01*
X75387893Y-36387023D01*
X75434062Y-36334586D01*
X75501254Y-36315432D01*
X75568136Y-36335645D01*
X75612657Y-36387023D01*
X75619865Y-36402481D01*
X75619866Y-36402483D01*
X75670973Y-36475471D01*
X75670974Y-36475472D01*
X76352046Y-35794399D01*
X76364835Y-35875148D01*
X76422359Y-35988045D01*
X76511955Y-36077641D01*
X76624852Y-36135165D01*
X76705599Y-36147953D01*
X76024526Y-36829025D01*
X76024526Y-36829026D01*
X76097512Y-36880131D01*
X76097516Y-36880133D01*
X76303673Y-36976265D01*
X76303682Y-36976269D01*
X76523389Y-37035139D01*
X76523400Y-37035141D01*
X76749998Y-37054966D01*
X76750002Y-37054966D01*
X76976599Y-37035141D01*
X76976610Y-37035139D01*
X77196317Y-36976269D01*
X77196331Y-36976264D01*
X77402478Y-36880136D01*
X77475472Y-36829025D01*
X76794401Y-36147953D01*
X76875148Y-36135165D01*
X76988045Y-36077641D01*
X77077641Y-35988045D01*
X77135165Y-35875148D01*
X77147953Y-35794400D01*
X77829025Y-36475472D01*
X77880136Y-36402478D01*
X77976264Y-36196331D01*
X77976269Y-36196317D01*
X78035139Y-35976610D01*
X78035141Y-35976599D01*
X78054966Y-35750002D01*
X78054966Y-35749997D01*
X78035141Y-35523400D01*
X78035139Y-35523389D01*
X77976269Y-35303682D01*
X77976265Y-35303673D01*
X77880133Y-35097516D01*
X77880131Y-35097512D01*
X77829026Y-35024526D01*
X77829025Y-35024526D01*
X77147953Y-35705598D01*
X77135165Y-35624852D01*
X77077641Y-35511955D01*
X76988045Y-35422359D01*
X76875148Y-35364835D01*
X76794400Y-35352046D01*
X77475472Y-34670974D01*
X77475471Y-34670973D01*
X77402483Y-34619866D01*
X77402481Y-34619865D01*
X77196326Y-34523734D01*
X77196317Y-34523730D01*
X76976610Y-34464860D01*
X76976599Y-34464858D01*
X76750002Y-34445034D01*
X76749998Y-34445034D01*
X76523400Y-34464858D01*
X76523389Y-34464860D01*
X76303682Y-34523730D01*
X76303673Y-34523734D01*
X76097513Y-34619868D01*
X76024527Y-34670972D01*
X76024526Y-34670973D01*
X76705600Y-35352046D01*
X76624852Y-35364835D01*
X76511955Y-35422359D01*
X76422359Y-35511955D01*
X76364835Y-35624852D01*
X76352046Y-35705599D01*
X75670973Y-35024526D01*
X75670972Y-35024527D01*
X75619868Y-35097512D01*
X75612656Y-35112979D01*
X75566482Y-35165417D01*
X75499288Y-35184567D01*
X75432407Y-35164350D01*
X75387893Y-35112976D01*
X75380568Y-35097266D01*
X75250047Y-34910861D01*
X75250045Y-34910858D01*
X75089141Y-34749954D01*
X74902734Y-34619432D01*
X74902732Y-34619431D01*
X74696497Y-34523261D01*
X74696488Y-34523258D01*
X74476697Y-34464366D01*
X74476693Y-34464365D01*
X74476692Y-34464365D01*
X74476691Y-34464364D01*
X74476686Y-34464364D01*
X74250002Y-34444532D01*
X74249998Y-34444532D01*
X74023313Y-34464364D01*
X74023302Y-34464366D01*
X73803511Y-34523258D01*
X73803502Y-34523261D01*
X73597267Y-34619431D01*
X73597265Y-34619432D01*
X73410858Y-34749954D01*
X73249954Y-34910858D01*
X73119432Y-35097265D01*
X73119431Y-35097267D01*
X73023261Y-35303502D01*
X73023258Y-35303511D01*
X72964366Y-35523302D01*
X72964364Y-35523313D01*
X72944532Y-35749998D01*
X72944532Y-35750001D01*
X57750000Y-35750001D01*
X57750000Y-29250002D01*
X59194652Y-29250002D01*
X59214028Y-29607368D01*
X59214029Y-29607385D01*
X59271926Y-29960539D01*
X59271932Y-29960565D01*
X59367672Y-30305392D01*
X59367674Y-30305399D01*
X59500142Y-30637870D01*
X59500151Y-30637888D01*
X59667784Y-30954077D01*
X59667787Y-30954082D01*
X59667789Y-30954085D01*
X59816820Y-31173890D01*
X59868634Y-31250309D01*
X59868641Y-31250319D01*
X59872710Y-31255109D01*
X60100332Y-31523086D01*
X60360163Y-31769211D01*
X60645081Y-31985800D01*
X60951747Y-32170315D01*
X60951749Y-32170316D01*
X60951751Y-32170317D01*
X60951755Y-32170319D01*
X61276552Y-32320585D01*
X61276565Y-32320591D01*
X61615726Y-32434868D01*
X61965254Y-32511805D01*
X62321052Y-32550500D01*
X62321058Y-32550500D01*
X62678942Y-32550500D01*
X62678948Y-32550500D01*
X63034746Y-32511805D01*
X63384274Y-32434868D01*
X63723435Y-32320591D01*
X64048253Y-32170315D01*
X64354919Y-31985800D01*
X64639837Y-31769211D01*
X64899668Y-31523086D01*
X65131365Y-31250311D01*
X65332211Y-30954085D01*
X65499853Y-30637880D01*
X65632324Y-30305403D01*
X65728071Y-29960552D01*
X65745891Y-29851848D01*
X65785970Y-29607385D01*
X65785970Y-29607382D01*
X65785972Y-29607371D01*
X65805348Y-29250001D01*
X74664891Y-29250001D01*
X74685300Y-29535362D01*
X74746109Y-29814895D01*
X74846091Y-30082958D01*
X74983191Y-30334038D01*
X74983196Y-30334046D01*
X75089882Y-30476561D01*
X75089883Y-30476562D01*
X75985195Y-29581250D01*
X76007340Y-29632587D01*
X76113433Y-29775094D01*
X76249530Y-29889294D01*
X76339216Y-29934335D01*
X75443436Y-30830115D01*
X75585960Y-30936807D01*
X75585961Y-30936808D01*
X75837042Y-31073908D01*
X75837041Y-31073908D01*
X76105104Y-31173890D01*
X76384637Y-31234699D01*
X76669999Y-31255109D01*
X76670001Y-31255109D01*
X76955362Y-31234699D01*
X77234895Y-31173890D01*
X77502958Y-31073908D01*
X77754047Y-30936803D01*
X77896561Y-30830116D01*
X77896562Y-30830115D01*
X77864317Y-30797870D01*
X79749500Y-30797870D01*
X79749501Y-30797876D01*
X79755908Y-30857483D01*
X79806202Y-30992328D01*
X79806206Y-30992335D01*
X79892452Y-31107544D01*
X79892455Y-31107547D01*
X80007664Y-31193793D01*
X80007671Y-31193797D01*
X80142517Y-31244091D01*
X80142516Y-31244091D01*
X80149444Y-31244835D01*
X80202127Y-31250500D01*
X83297872Y-31250499D01*
X83357483Y-31244091D01*
X83492331Y-31193796D01*
X83607546Y-31107546D01*
X83693796Y-30992331D01*
X83744091Y-30857483D01*
X83750500Y-30797873D01*
X83750500Y-29250002D01*
X92444652Y-29250002D01*
X92464028Y-29607368D01*
X92464029Y-29607385D01*
X92521926Y-29960539D01*
X92521932Y-29960565D01*
X92617672Y-30305392D01*
X92617674Y-30305399D01*
X92750142Y-30637870D01*
X92750151Y-30637888D01*
X92917784Y-30954077D01*
X92917787Y-30954082D01*
X92917789Y-30954085D01*
X93066820Y-31173890D01*
X93118634Y-31250309D01*
X93118641Y-31250319D01*
X93122710Y-31255109D01*
X93350332Y-31523086D01*
X93610163Y-31769211D01*
X93895081Y-31985800D01*
X94201747Y-32170315D01*
X94201749Y-32170316D01*
X94201751Y-32170317D01*
X94201755Y-32170319D01*
X94526552Y-32320585D01*
X94526565Y-32320591D01*
X94865726Y-32434868D01*
X95215254Y-32511805D01*
X95571052Y-32550500D01*
X95571058Y-32550500D01*
X95928942Y-32550500D01*
X95928948Y-32550500D01*
X96284746Y-32511805D01*
X96634274Y-32434868D01*
X96973435Y-32320591D01*
X97298253Y-32170315D01*
X97604919Y-31985800D01*
X97889837Y-31769211D01*
X98149668Y-31523086D01*
X98381365Y-31250311D01*
X98582211Y-30954085D01*
X98749853Y-30637880D01*
X98882324Y-30305403D01*
X98978071Y-29960552D01*
X98995891Y-29851848D01*
X99035970Y-29607385D01*
X99035970Y-29607382D01*
X99035972Y-29607371D01*
X99055348Y-29250000D01*
X99035972Y-28892629D01*
X99008475Y-28724906D01*
X98978073Y-28539460D01*
X98978072Y-28539459D01*
X98978071Y-28539448D01*
X98882324Y-28194597D01*
X98749853Y-27862120D01*
X98647935Y-27669883D01*
X98582215Y-27545922D01*
X98582213Y-27545919D01*
X98582211Y-27545915D01*
X98381365Y-27249689D01*
X98381205Y-27249501D01*
X98149668Y-26976914D01*
X97889837Y-26730789D01*
X97889830Y-26730783D01*
X97889827Y-26730781D01*
X97822245Y-26679407D01*
X97604919Y-26514200D01*
X97298253Y-26329685D01*
X97298252Y-26329684D01*
X97298248Y-26329682D01*
X97298244Y-26329680D01*
X96973447Y-26179414D01*
X96973441Y-26179411D01*
X96973435Y-26179409D01*
X96803854Y-26122270D01*
X96634273Y-26065131D01*
X96284744Y-25988194D01*
X95928949Y-25949500D01*
X95928948Y-25949500D01*
X95571052Y-25949500D01*
X95571050Y-25949500D01*
X95215255Y-25988194D01*
X94865726Y-26065131D01*
X94609970Y-26151306D01*
X94526565Y-26179409D01*
X94526563Y-26179410D01*
X94526552Y-26179414D01*
X94201755Y-26329680D01*
X94201751Y-26329682D01*
X93973367Y-26467096D01*
X93895081Y-26514200D01*
X93806768Y-26581333D01*
X93610172Y-26730781D01*
X93610163Y-26730789D01*
X93350331Y-26976914D01*
X93118644Y-27249678D01*
X93118634Y-27249690D01*
X92917790Y-27545913D01*
X92917784Y-27545922D01*
X92750151Y-27862111D01*
X92750142Y-27862129D01*
X92617674Y-28194600D01*
X92617672Y-28194607D01*
X92521932Y-28539434D01*
X92521926Y-28539460D01*
X92464029Y-28892614D01*
X92464028Y-28892631D01*
X92444652Y-29249997D01*
X92444652Y-29250002D01*
X83750500Y-29250002D01*
X83750499Y-27702128D01*
X83744091Y-27642517D01*
X83714506Y-27563196D01*
X83693797Y-27507671D01*
X83693793Y-27507664D01*
X83607547Y-27392455D01*
X83607544Y-27392452D01*
X83492335Y-27306206D01*
X83492328Y-27306202D01*
X83357482Y-27255908D01*
X83357483Y-27255908D01*
X83297883Y-27249501D01*
X83297881Y-27249500D01*
X83297873Y-27249500D01*
X83297864Y-27249500D01*
X80202129Y-27249500D01*
X80202123Y-27249501D01*
X80142516Y-27255908D01*
X80007671Y-27306202D01*
X80007664Y-27306206D01*
X79892455Y-27392452D01*
X79892452Y-27392455D01*
X79806206Y-27507664D01*
X79806202Y-27507671D01*
X79755908Y-27642517D01*
X79749501Y-27702116D01*
X79749501Y-27702123D01*
X79749500Y-27702135D01*
X79749500Y-30797870D01*
X77864317Y-30797870D01*
X77003748Y-29937300D01*
X77013409Y-29933784D01*
X77161844Y-29836157D01*
X77283764Y-29706930D01*
X77355768Y-29582215D01*
X78250115Y-30476562D01*
X78250116Y-30476561D01*
X78356803Y-30334047D01*
X78493908Y-30082958D01*
X78593890Y-29814895D01*
X78654699Y-29535362D01*
X78675109Y-29250001D01*
X78675109Y-29249998D01*
X78654699Y-28964637D01*
X78593890Y-28685104D01*
X78493908Y-28417041D01*
X78356808Y-28165961D01*
X78356807Y-28165960D01*
X78250115Y-28023436D01*
X77354803Y-28918747D01*
X77332660Y-28867413D01*
X77226567Y-28724906D01*
X77090470Y-28610706D01*
X77000782Y-28565663D01*
X77896562Y-27669883D01*
X77896561Y-27669882D01*
X77754046Y-27563196D01*
X77754038Y-27563191D01*
X77502957Y-27426091D01*
X77502958Y-27426091D01*
X77234895Y-27326109D01*
X76955362Y-27265300D01*
X76670001Y-27244891D01*
X76669999Y-27244891D01*
X76384637Y-27265300D01*
X76105104Y-27326109D01*
X75837041Y-27426091D01*
X75585961Y-27563191D01*
X75585953Y-27563196D01*
X75443437Y-27669882D01*
X75443436Y-27669883D01*
X76336252Y-28562699D01*
X76326591Y-28566216D01*
X76178156Y-28663843D01*
X76056236Y-28793070D01*
X75984231Y-28917784D01*
X75089883Y-28023436D01*
X75089882Y-28023437D01*
X74983196Y-28165953D01*
X74983191Y-28165961D01*
X74846091Y-28417041D01*
X74746109Y-28685104D01*
X74685300Y-28964637D01*
X74664891Y-29249998D01*
X74664891Y-29250001D01*
X65805348Y-29250001D01*
X65805348Y-29250000D01*
X65785972Y-28892629D01*
X65758475Y-28724906D01*
X65728073Y-28539460D01*
X65728072Y-28539459D01*
X65728071Y-28539448D01*
X65632324Y-28194597D01*
X65499853Y-27862120D01*
X65397935Y-27669883D01*
X65332215Y-27545922D01*
X65332213Y-27545919D01*
X65332211Y-27545915D01*
X65131365Y-27249689D01*
X65131205Y-27249501D01*
X64899668Y-26976914D01*
X64639837Y-26730789D01*
X64639830Y-26730783D01*
X64639827Y-26730781D01*
X64572245Y-26679407D01*
X64354919Y-26514200D01*
X64048253Y-26329685D01*
X64048252Y-26329684D01*
X64048248Y-26329682D01*
X64048244Y-26329680D01*
X63723447Y-26179414D01*
X63723441Y-26179411D01*
X63723435Y-26179409D01*
X63553854Y-26122270D01*
X63384273Y-26065131D01*
X63034744Y-25988194D01*
X62678949Y-25949500D01*
X62678948Y-25949500D01*
X62321052Y-25949500D01*
X62321050Y-25949500D01*
X61965255Y-25988194D01*
X61615726Y-26065131D01*
X61359970Y-26151306D01*
X61276565Y-26179409D01*
X61276563Y-26179410D01*
X61276552Y-26179414D01*
X60951755Y-26329680D01*
X60951751Y-26329682D01*
X60723367Y-26467096D01*
X60645081Y-26514200D01*
X60556768Y-26581333D01*
X60360172Y-26730781D01*
X60360163Y-26730789D01*
X60100331Y-26976914D01*
X59868644Y-27249678D01*
X59868634Y-27249690D01*
X59667790Y-27545913D01*
X59667784Y-27545922D01*
X59500151Y-27862111D01*
X59500142Y-27862129D01*
X59367674Y-28194600D01*
X59367672Y-28194607D01*
X59271932Y-28539434D01*
X59271926Y-28539460D01*
X59214029Y-28892614D01*
X59214028Y-28892631D01*
X59194652Y-29249997D01*
X59194652Y-29250002D01*
X57750000Y-29250002D01*
X57750000Y-25373277D01*
X57769685Y-25306238D01*
X57822489Y-25260483D01*
X57873274Y-25249279D01*
X100375276Y-25000729D01*
X100442428Y-25020021D01*
G37*
%TD.AperFunction*%
%TD*%
M02*
