%TF.GenerationSoftware,KiCad,Pcbnew,7.0.9*%
%TF.CreationDate,2024-03-22T21:38:28+01:00*%
%TF.ProjectId,KorrySmallPCB,4b6f7272-7953-46d6-916c-6c5043422e6b,rev?*%
%TF.SameCoordinates,Original*%
%TF.FileFunction,Drillmap*%
%TF.FilePolarity,Positive*%
%FSLAX45Y45*%
G04 Gerber Fmt 4.5, Leading zero omitted, Abs format (unit mm)*
G04 Created by KiCad (PCBNEW 7.0.9) date 2024-03-22 21:38:28*
%MOMM*%
%LPD*%
G01*
G04 APERTURE LIST*
%ADD10C,0.100000*%
%ADD11C,0.200000*%
%ADD12C,0.130000*%
%ADD13C,0.220000*%
G04 APERTURE END LIST*
D10*
X7965000Y-1257500D02*
X7965000Y-2350000D01*
X5765000Y-1257500D02*
X7965000Y-1257500D01*
X5765000Y-2350000D02*
X5765000Y-1257500D01*
X5765000Y-2850000D02*
X5765000Y-2350000D01*
X7965000Y-3950000D02*
X7965000Y-4350000D01*
X6515000Y-4850000D02*
X5765000Y-4850000D01*
X7215000Y-4850000D02*
X6515000Y-4850000D01*
X7965000Y-2350000D02*
X7965000Y-2750000D01*
X7965000Y-4350000D02*
X7965000Y-4850000D01*
X5765000Y-3850000D02*
X5765000Y-2850000D01*
X7965000Y-4850000D02*
X7215000Y-4850000D01*
X7965000Y-2750000D02*
X7965000Y-3950000D01*
X5765000Y-4850000D02*
X5765000Y-3850000D01*
D11*
D10*
X6100000Y-2779000D02*
X6180000Y-2859000D01*
X6180000Y-2779000D02*
X6100000Y-2859000D01*
X6100000Y-3541000D02*
X6180000Y-3621000D01*
X6180000Y-3541000D02*
X6100000Y-3621000D01*
X7525000Y-3104000D02*
X7605000Y-3184000D01*
X7605000Y-3104000D02*
X7525000Y-3184000D01*
X7525000Y-3866000D02*
X7605000Y-3946000D01*
X7605000Y-3866000D02*
X7525000Y-3946000D01*
X6782500Y-2750000D02*
G75*
G03*
X6782500Y-2750000I-45000J0D01*
G01*
X6782500Y-3900000D02*
G75*
G03*
X6782500Y-3900000I-45000J0D01*
G01*
X7036500Y-2750000D02*
G75*
G03*
X7036500Y-2750000I-45000J0D01*
G01*
X7036500Y-3900000D02*
G75*
G03*
X7036500Y-3900000I-45000J0D01*
G01*
X7635000Y-1547500D02*
X7635000Y-1642500D01*
X7587500Y-1595000D02*
X7682500Y-1595000D01*
X7635000Y-1797500D02*
X7635000Y-1892500D01*
X7587500Y-1845000D02*
X7682500Y-1845000D01*
X7635000Y-2047500D02*
X7635000Y-2142500D01*
X7587500Y-2095000D02*
X7682500Y-2095000D01*
X6262856Y-1745356D02*
X6262856Y-1674644D01*
X6192144Y-1674644D01*
X6192144Y-1745356D01*
X6262856Y-1745356D01*
X6262856Y-1995356D02*
X6262856Y-1924644D01*
X6192144Y-1924644D01*
X6192144Y-1995356D01*
X6262856Y-1995356D01*
D12*
X6540000Y-3415000D02*
X6605000Y-3350000D01*
X6540000Y-3285000D01*
X6475000Y-3350000D01*
X6540000Y-3415000D01*
X7190000Y-3415000D02*
X7255000Y-3350000D01*
X7190000Y-3285000D01*
X7125000Y-3350000D01*
X7190000Y-3415000D01*
D13*
X6755000Y-1990000D02*
X6975000Y-2210000D01*
X6975000Y-1990000D02*
X6755000Y-2210000D01*
X6975000Y-2100000D02*
G75*
G03*
X6975000Y-2100000I-110000J0D01*
G01*
X6755000Y-4490000D02*
X6975000Y-4710000D01*
X6975000Y-4490000D02*
X6755000Y-4710000D01*
X6975000Y-4600000D02*
G75*
G03*
X6975000Y-4600000I-110000J0D01*
G01*
D11*
X6020777Y-5166484D02*
X6020777Y-4966484D01*
X6020777Y-4966484D02*
X6068396Y-4966484D01*
X6068396Y-4966484D02*
X6096967Y-4976008D01*
X6096967Y-4976008D02*
X6116015Y-4995055D01*
X6116015Y-4995055D02*
X6125539Y-5014103D01*
X6125539Y-5014103D02*
X6135062Y-5052198D01*
X6135062Y-5052198D02*
X6135062Y-5080770D01*
X6135062Y-5080770D02*
X6125539Y-5118865D01*
X6125539Y-5118865D02*
X6116015Y-5137912D01*
X6116015Y-5137912D02*
X6096967Y-5156960D01*
X6096967Y-5156960D02*
X6068396Y-5166484D01*
X6068396Y-5166484D02*
X6020777Y-5166484D01*
X6220777Y-5166484D02*
X6220777Y-5033150D01*
X6220777Y-5071246D02*
X6230301Y-5052198D01*
X6230301Y-5052198D02*
X6239824Y-5042674D01*
X6239824Y-5042674D02*
X6258872Y-5033150D01*
X6258872Y-5033150D02*
X6277920Y-5033150D01*
X6344586Y-5166484D02*
X6344586Y-5033150D01*
X6344586Y-4966484D02*
X6335062Y-4976008D01*
X6335062Y-4976008D02*
X6344586Y-4985531D01*
X6344586Y-4985531D02*
X6354110Y-4976008D01*
X6354110Y-4976008D02*
X6344586Y-4966484D01*
X6344586Y-4966484D02*
X6344586Y-4985531D01*
X6468396Y-5166484D02*
X6449348Y-5156960D01*
X6449348Y-5156960D02*
X6439824Y-5137912D01*
X6439824Y-5137912D02*
X6439824Y-4966484D01*
X6573158Y-5166484D02*
X6554110Y-5156960D01*
X6554110Y-5156960D02*
X6544586Y-5137912D01*
X6544586Y-5137912D02*
X6544586Y-4966484D01*
X6801729Y-5166484D02*
X6801729Y-4966484D01*
X6801729Y-4966484D02*
X6868396Y-5109341D01*
X6868396Y-5109341D02*
X6935062Y-4966484D01*
X6935062Y-4966484D02*
X6935062Y-5166484D01*
X7116015Y-5166484D02*
X7116015Y-5061722D01*
X7116015Y-5061722D02*
X7106491Y-5042674D01*
X7106491Y-5042674D02*
X7087443Y-5033150D01*
X7087443Y-5033150D02*
X7049348Y-5033150D01*
X7049348Y-5033150D02*
X7030301Y-5042674D01*
X7116015Y-5156960D02*
X7096967Y-5166484D01*
X7096967Y-5166484D02*
X7049348Y-5166484D01*
X7049348Y-5166484D02*
X7030301Y-5156960D01*
X7030301Y-5156960D02*
X7020777Y-5137912D01*
X7020777Y-5137912D02*
X7020777Y-5118865D01*
X7020777Y-5118865D02*
X7030301Y-5099817D01*
X7030301Y-5099817D02*
X7049348Y-5090293D01*
X7049348Y-5090293D02*
X7096967Y-5090293D01*
X7096967Y-5090293D02*
X7116015Y-5080770D01*
X7211253Y-5033150D02*
X7211253Y-5233150D01*
X7211253Y-5042674D02*
X7230301Y-5033150D01*
X7230301Y-5033150D02*
X7268396Y-5033150D01*
X7268396Y-5033150D02*
X7287443Y-5042674D01*
X7287443Y-5042674D02*
X7296967Y-5052198D01*
X7296967Y-5052198D02*
X7306491Y-5071246D01*
X7306491Y-5071246D02*
X7306491Y-5128389D01*
X7306491Y-5128389D02*
X7296967Y-5147436D01*
X7296967Y-5147436D02*
X7287443Y-5156960D01*
X7287443Y-5156960D02*
X7268396Y-5166484D01*
X7268396Y-5166484D02*
X7230301Y-5166484D01*
X7230301Y-5166484D02*
X7211253Y-5156960D01*
X7392205Y-5147436D02*
X7401729Y-5156960D01*
X7401729Y-5156960D02*
X7392205Y-5166484D01*
X7392205Y-5166484D02*
X7382682Y-5156960D01*
X7382682Y-5156960D02*
X7392205Y-5147436D01*
X7392205Y-5147436D02*
X7392205Y-5166484D01*
X7392205Y-5042674D02*
X7401729Y-5052198D01*
X7401729Y-5052198D02*
X7392205Y-5061722D01*
X7392205Y-5061722D02*
X7382682Y-5052198D01*
X7382682Y-5052198D02*
X7392205Y-5042674D01*
X7392205Y-5042674D02*
X7392205Y-5061722D01*
D10*
X5680000Y-5455000D02*
X5760000Y-5535000D01*
X5760000Y-5455000D02*
X5680000Y-5535000D01*
D11*
X6058872Y-5386484D02*
X6077920Y-5386484D01*
X6077920Y-5386484D02*
X6096967Y-5396008D01*
X6096967Y-5396008D02*
X6106491Y-5405531D01*
X6106491Y-5405531D02*
X6116015Y-5424579D01*
X6116015Y-5424579D02*
X6125539Y-5462674D01*
X6125539Y-5462674D02*
X6125539Y-5510293D01*
X6125539Y-5510293D02*
X6116015Y-5548389D01*
X6116015Y-5548389D02*
X6106491Y-5567436D01*
X6106491Y-5567436D02*
X6096967Y-5576960D01*
X6096967Y-5576960D02*
X6077920Y-5586484D01*
X6077920Y-5586484D02*
X6058872Y-5586484D01*
X6058872Y-5586484D02*
X6039824Y-5576960D01*
X6039824Y-5576960D02*
X6030301Y-5567436D01*
X6030301Y-5567436D02*
X6020777Y-5548389D01*
X6020777Y-5548389D02*
X6011253Y-5510293D01*
X6011253Y-5510293D02*
X6011253Y-5462674D01*
X6011253Y-5462674D02*
X6020777Y-5424579D01*
X6020777Y-5424579D02*
X6030301Y-5405531D01*
X6030301Y-5405531D02*
X6039824Y-5396008D01*
X6039824Y-5396008D02*
X6058872Y-5386484D01*
X6211253Y-5567436D02*
X6220777Y-5576960D01*
X6220777Y-5576960D02*
X6211253Y-5586484D01*
X6211253Y-5586484D02*
X6201729Y-5576960D01*
X6201729Y-5576960D02*
X6211253Y-5567436D01*
X6211253Y-5567436D02*
X6211253Y-5586484D01*
X6335062Y-5472198D02*
X6316015Y-5462674D01*
X6316015Y-5462674D02*
X6306491Y-5453150D01*
X6306491Y-5453150D02*
X6296967Y-5434103D01*
X6296967Y-5434103D02*
X6296967Y-5424579D01*
X6296967Y-5424579D02*
X6306491Y-5405531D01*
X6306491Y-5405531D02*
X6316015Y-5396008D01*
X6316015Y-5396008D02*
X6335062Y-5386484D01*
X6335062Y-5386484D02*
X6373158Y-5386484D01*
X6373158Y-5386484D02*
X6392205Y-5396008D01*
X6392205Y-5396008D02*
X6401729Y-5405531D01*
X6401729Y-5405531D02*
X6411253Y-5424579D01*
X6411253Y-5424579D02*
X6411253Y-5434103D01*
X6411253Y-5434103D02*
X6401729Y-5453150D01*
X6401729Y-5453150D02*
X6392205Y-5462674D01*
X6392205Y-5462674D02*
X6373158Y-5472198D01*
X6373158Y-5472198D02*
X6335062Y-5472198D01*
X6335062Y-5472198D02*
X6316015Y-5481722D01*
X6316015Y-5481722D02*
X6306491Y-5491246D01*
X6306491Y-5491246D02*
X6296967Y-5510293D01*
X6296967Y-5510293D02*
X6296967Y-5548389D01*
X6296967Y-5548389D02*
X6306491Y-5567436D01*
X6306491Y-5567436D02*
X6316015Y-5576960D01*
X6316015Y-5576960D02*
X6335062Y-5586484D01*
X6335062Y-5586484D02*
X6373158Y-5586484D01*
X6373158Y-5586484D02*
X6392205Y-5576960D01*
X6392205Y-5576960D02*
X6401729Y-5567436D01*
X6401729Y-5567436D02*
X6411253Y-5548389D01*
X6411253Y-5548389D02*
X6411253Y-5510293D01*
X6411253Y-5510293D02*
X6401729Y-5491246D01*
X6401729Y-5491246D02*
X6392205Y-5481722D01*
X6392205Y-5481722D02*
X6373158Y-5472198D01*
X6535062Y-5386484D02*
X6554110Y-5386484D01*
X6554110Y-5386484D02*
X6573158Y-5396008D01*
X6573158Y-5396008D02*
X6582682Y-5405531D01*
X6582682Y-5405531D02*
X6592205Y-5424579D01*
X6592205Y-5424579D02*
X6601729Y-5462674D01*
X6601729Y-5462674D02*
X6601729Y-5510293D01*
X6601729Y-5510293D02*
X6592205Y-5548389D01*
X6592205Y-5548389D02*
X6582682Y-5567436D01*
X6582682Y-5567436D02*
X6573158Y-5576960D01*
X6573158Y-5576960D02*
X6554110Y-5586484D01*
X6554110Y-5586484D02*
X6535062Y-5586484D01*
X6535062Y-5586484D02*
X6516015Y-5576960D01*
X6516015Y-5576960D02*
X6506491Y-5567436D01*
X6506491Y-5567436D02*
X6496967Y-5548389D01*
X6496967Y-5548389D02*
X6487443Y-5510293D01*
X6487443Y-5510293D02*
X6487443Y-5462674D01*
X6487443Y-5462674D02*
X6496967Y-5424579D01*
X6496967Y-5424579D02*
X6506491Y-5405531D01*
X6506491Y-5405531D02*
X6516015Y-5396008D01*
X6516015Y-5396008D02*
X6535062Y-5386484D01*
X6725539Y-5386484D02*
X6744586Y-5386484D01*
X6744586Y-5386484D02*
X6763634Y-5396008D01*
X6763634Y-5396008D02*
X6773158Y-5405531D01*
X6773158Y-5405531D02*
X6782682Y-5424579D01*
X6782682Y-5424579D02*
X6792205Y-5462674D01*
X6792205Y-5462674D02*
X6792205Y-5510293D01*
X6792205Y-5510293D02*
X6782682Y-5548389D01*
X6782682Y-5548389D02*
X6773158Y-5567436D01*
X6773158Y-5567436D02*
X6763634Y-5576960D01*
X6763634Y-5576960D02*
X6744586Y-5586484D01*
X6744586Y-5586484D02*
X6725539Y-5586484D01*
X6725539Y-5586484D02*
X6706491Y-5576960D01*
X6706491Y-5576960D02*
X6696967Y-5567436D01*
X6696967Y-5567436D02*
X6687443Y-5548389D01*
X6687443Y-5548389D02*
X6677920Y-5510293D01*
X6677920Y-5510293D02*
X6677920Y-5462674D01*
X6677920Y-5462674D02*
X6687443Y-5424579D01*
X6687443Y-5424579D02*
X6696967Y-5405531D01*
X6696967Y-5405531D02*
X6706491Y-5396008D01*
X6706491Y-5396008D02*
X6725539Y-5386484D01*
X6877920Y-5586484D02*
X6877920Y-5453150D01*
X6877920Y-5472198D02*
X6887443Y-5462674D01*
X6887443Y-5462674D02*
X6906491Y-5453150D01*
X6906491Y-5453150D02*
X6935063Y-5453150D01*
X6935063Y-5453150D02*
X6954110Y-5462674D01*
X6954110Y-5462674D02*
X6963634Y-5481722D01*
X6963634Y-5481722D02*
X6963634Y-5586484D01*
X6963634Y-5481722D02*
X6973158Y-5462674D01*
X6973158Y-5462674D02*
X6992205Y-5453150D01*
X6992205Y-5453150D02*
X7020777Y-5453150D01*
X7020777Y-5453150D02*
X7039824Y-5462674D01*
X7039824Y-5462674D02*
X7049348Y-5481722D01*
X7049348Y-5481722D02*
X7049348Y-5586484D01*
X7144586Y-5586484D02*
X7144586Y-5453150D01*
X7144586Y-5472198D02*
X7154110Y-5462674D01*
X7154110Y-5462674D02*
X7173158Y-5453150D01*
X7173158Y-5453150D02*
X7201729Y-5453150D01*
X7201729Y-5453150D02*
X7220777Y-5462674D01*
X7220777Y-5462674D02*
X7230301Y-5481722D01*
X7230301Y-5481722D02*
X7230301Y-5586484D01*
X7230301Y-5481722D02*
X7239824Y-5462674D01*
X7239824Y-5462674D02*
X7258872Y-5453150D01*
X7258872Y-5453150D02*
X7287443Y-5453150D01*
X7287443Y-5453150D02*
X7306491Y-5462674D01*
X7306491Y-5462674D02*
X7316015Y-5481722D01*
X7316015Y-5481722D02*
X7316015Y-5586484D01*
X7706491Y-5376960D02*
X7535063Y-5634103D01*
X7963634Y-5386484D02*
X7982682Y-5386484D01*
X7982682Y-5386484D02*
X8001729Y-5396008D01*
X8001729Y-5396008D02*
X8011253Y-5405531D01*
X8011253Y-5405531D02*
X8020777Y-5424579D01*
X8020777Y-5424579D02*
X8030301Y-5462674D01*
X8030301Y-5462674D02*
X8030301Y-5510293D01*
X8030301Y-5510293D02*
X8020777Y-5548389D01*
X8020777Y-5548389D02*
X8011253Y-5567436D01*
X8011253Y-5567436D02*
X8001729Y-5576960D01*
X8001729Y-5576960D02*
X7982682Y-5586484D01*
X7982682Y-5586484D02*
X7963634Y-5586484D01*
X7963634Y-5586484D02*
X7944586Y-5576960D01*
X7944586Y-5576960D02*
X7935063Y-5567436D01*
X7935063Y-5567436D02*
X7925539Y-5548389D01*
X7925539Y-5548389D02*
X7916015Y-5510293D01*
X7916015Y-5510293D02*
X7916015Y-5462674D01*
X7916015Y-5462674D02*
X7925539Y-5424579D01*
X7925539Y-5424579D02*
X7935063Y-5405531D01*
X7935063Y-5405531D02*
X7944586Y-5396008D01*
X7944586Y-5396008D02*
X7963634Y-5386484D01*
X8116015Y-5567436D02*
X8125539Y-5576960D01*
X8125539Y-5576960D02*
X8116015Y-5586484D01*
X8116015Y-5586484D02*
X8106491Y-5576960D01*
X8106491Y-5576960D02*
X8116015Y-5567436D01*
X8116015Y-5567436D02*
X8116015Y-5586484D01*
X8249348Y-5386484D02*
X8268396Y-5386484D01*
X8268396Y-5386484D02*
X8287444Y-5396008D01*
X8287444Y-5396008D02*
X8296967Y-5405531D01*
X8296967Y-5405531D02*
X8306491Y-5424579D01*
X8306491Y-5424579D02*
X8316015Y-5462674D01*
X8316015Y-5462674D02*
X8316015Y-5510293D01*
X8316015Y-5510293D02*
X8306491Y-5548389D01*
X8306491Y-5548389D02*
X8296967Y-5567436D01*
X8296967Y-5567436D02*
X8287444Y-5576960D01*
X8287444Y-5576960D02*
X8268396Y-5586484D01*
X8268396Y-5586484D02*
X8249348Y-5586484D01*
X8249348Y-5586484D02*
X8230301Y-5576960D01*
X8230301Y-5576960D02*
X8220777Y-5567436D01*
X8220777Y-5567436D02*
X8211253Y-5548389D01*
X8211253Y-5548389D02*
X8201729Y-5510293D01*
X8201729Y-5510293D02*
X8201729Y-5462674D01*
X8201729Y-5462674D02*
X8211253Y-5424579D01*
X8211253Y-5424579D02*
X8220777Y-5405531D01*
X8220777Y-5405531D02*
X8230301Y-5396008D01*
X8230301Y-5396008D02*
X8249348Y-5386484D01*
X8382682Y-5386484D02*
X8506491Y-5386484D01*
X8506491Y-5386484D02*
X8439825Y-5462674D01*
X8439825Y-5462674D02*
X8468396Y-5462674D01*
X8468396Y-5462674D02*
X8487444Y-5472198D01*
X8487444Y-5472198D02*
X8496968Y-5481722D01*
X8496968Y-5481722D02*
X8506491Y-5500770D01*
X8506491Y-5500770D02*
X8506491Y-5548389D01*
X8506491Y-5548389D02*
X8496968Y-5567436D01*
X8496968Y-5567436D02*
X8487444Y-5576960D01*
X8487444Y-5576960D02*
X8468396Y-5586484D01*
X8468396Y-5586484D02*
X8411253Y-5586484D01*
X8411253Y-5586484D02*
X8392206Y-5576960D01*
X8392206Y-5576960D02*
X8382682Y-5567436D01*
X8696968Y-5586484D02*
X8582682Y-5586484D01*
X8639825Y-5586484D02*
X8639825Y-5386484D01*
X8639825Y-5386484D02*
X8620777Y-5415055D01*
X8620777Y-5415055D02*
X8601729Y-5434103D01*
X8601729Y-5434103D02*
X8582682Y-5443627D01*
X8877920Y-5386484D02*
X8782682Y-5386484D01*
X8782682Y-5386484D02*
X8773158Y-5481722D01*
X8773158Y-5481722D02*
X8782682Y-5472198D01*
X8782682Y-5472198D02*
X8801729Y-5462674D01*
X8801729Y-5462674D02*
X8849349Y-5462674D01*
X8849349Y-5462674D02*
X8868396Y-5472198D01*
X8868396Y-5472198D02*
X8877920Y-5481722D01*
X8877920Y-5481722D02*
X8887444Y-5500770D01*
X8887444Y-5500770D02*
X8887444Y-5548389D01*
X8887444Y-5548389D02*
X8877920Y-5567436D01*
X8877920Y-5567436D02*
X8868396Y-5576960D01*
X8868396Y-5576960D02*
X8849349Y-5586484D01*
X8849349Y-5586484D02*
X8801729Y-5586484D01*
X8801729Y-5586484D02*
X8782682Y-5576960D01*
X8782682Y-5576960D02*
X8773158Y-5567436D01*
X8963634Y-5386484D02*
X8963634Y-5424579D01*
X9039825Y-5386484D02*
X9039825Y-5424579D01*
X9335063Y-5662674D02*
X9325539Y-5653150D01*
X9325539Y-5653150D02*
X9306491Y-5624579D01*
X9306491Y-5624579D02*
X9296968Y-5605531D01*
X9296968Y-5605531D02*
X9287444Y-5576960D01*
X9287444Y-5576960D02*
X9277920Y-5529341D01*
X9277920Y-5529341D02*
X9277920Y-5491246D01*
X9277920Y-5491246D02*
X9287444Y-5443627D01*
X9287444Y-5443627D02*
X9296968Y-5415055D01*
X9296968Y-5415055D02*
X9306491Y-5396008D01*
X9306491Y-5396008D02*
X9325539Y-5367436D01*
X9325539Y-5367436D02*
X9335063Y-5357912D01*
X9496968Y-5453150D02*
X9496968Y-5586484D01*
X9449349Y-5376960D02*
X9401730Y-5519817D01*
X9401730Y-5519817D02*
X9525539Y-5519817D01*
X9754111Y-5586484D02*
X9754111Y-5386484D01*
X9839825Y-5586484D02*
X9839825Y-5481722D01*
X9839825Y-5481722D02*
X9830301Y-5462674D01*
X9830301Y-5462674D02*
X9811253Y-5453150D01*
X9811253Y-5453150D02*
X9782682Y-5453150D01*
X9782682Y-5453150D02*
X9763634Y-5462674D01*
X9763634Y-5462674D02*
X9754111Y-5472198D01*
X9963634Y-5586484D02*
X9944587Y-5576960D01*
X9944587Y-5576960D02*
X9935063Y-5567436D01*
X9935063Y-5567436D02*
X9925539Y-5548389D01*
X9925539Y-5548389D02*
X9925539Y-5491246D01*
X9925539Y-5491246D02*
X9935063Y-5472198D01*
X9935063Y-5472198D02*
X9944587Y-5462674D01*
X9944587Y-5462674D02*
X9963634Y-5453150D01*
X9963634Y-5453150D02*
X9992206Y-5453150D01*
X9992206Y-5453150D02*
X10011253Y-5462674D01*
X10011253Y-5462674D02*
X10020777Y-5472198D01*
X10020777Y-5472198D02*
X10030301Y-5491246D01*
X10030301Y-5491246D02*
X10030301Y-5548389D01*
X10030301Y-5548389D02*
X10020777Y-5567436D01*
X10020777Y-5567436D02*
X10011253Y-5576960D01*
X10011253Y-5576960D02*
X9992206Y-5586484D01*
X9992206Y-5586484D02*
X9963634Y-5586484D01*
X10144587Y-5586484D02*
X10125539Y-5576960D01*
X10125539Y-5576960D02*
X10116015Y-5557912D01*
X10116015Y-5557912D02*
X10116015Y-5386484D01*
X10296968Y-5576960D02*
X10277920Y-5586484D01*
X10277920Y-5586484D02*
X10239825Y-5586484D01*
X10239825Y-5586484D02*
X10220777Y-5576960D01*
X10220777Y-5576960D02*
X10211253Y-5557912D01*
X10211253Y-5557912D02*
X10211253Y-5481722D01*
X10211253Y-5481722D02*
X10220777Y-5462674D01*
X10220777Y-5462674D02*
X10239825Y-5453150D01*
X10239825Y-5453150D02*
X10277920Y-5453150D01*
X10277920Y-5453150D02*
X10296968Y-5462674D01*
X10296968Y-5462674D02*
X10306492Y-5481722D01*
X10306492Y-5481722D02*
X10306492Y-5500770D01*
X10306492Y-5500770D02*
X10211253Y-5519817D01*
X10382682Y-5576960D02*
X10401730Y-5586484D01*
X10401730Y-5586484D02*
X10439825Y-5586484D01*
X10439825Y-5586484D02*
X10458873Y-5576960D01*
X10458873Y-5576960D02*
X10468396Y-5557912D01*
X10468396Y-5557912D02*
X10468396Y-5548389D01*
X10468396Y-5548389D02*
X10458873Y-5529341D01*
X10458873Y-5529341D02*
X10439825Y-5519817D01*
X10439825Y-5519817D02*
X10411253Y-5519817D01*
X10411253Y-5519817D02*
X10392206Y-5510293D01*
X10392206Y-5510293D02*
X10382682Y-5491246D01*
X10382682Y-5491246D02*
X10382682Y-5481722D01*
X10382682Y-5481722D02*
X10392206Y-5462674D01*
X10392206Y-5462674D02*
X10411253Y-5453150D01*
X10411253Y-5453150D02*
X10439825Y-5453150D01*
X10439825Y-5453150D02*
X10458873Y-5462674D01*
X10535063Y-5662674D02*
X10544587Y-5653150D01*
X10544587Y-5653150D02*
X10563634Y-5624579D01*
X10563634Y-5624579D02*
X10573158Y-5605531D01*
X10573158Y-5605531D02*
X10582682Y-5576960D01*
X10582682Y-5576960D02*
X10592206Y-5529341D01*
X10592206Y-5529341D02*
X10592206Y-5491246D01*
X10592206Y-5491246D02*
X10582682Y-5443627D01*
X10582682Y-5443627D02*
X10573158Y-5415055D01*
X10573158Y-5415055D02*
X10563634Y-5396008D01*
X10563634Y-5396008D02*
X10544587Y-5367436D01*
X10544587Y-5367436D02*
X10535063Y-5357912D01*
D10*
X5760000Y-5759000D02*
G75*
G03*
X5760000Y-5759000I-45000J0D01*
G01*
D11*
X6058872Y-5650484D02*
X6077920Y-5650484D01*
X6077920Y-5650484D02*
X6096967Y-5660008D01*
X6096967Y-5660008D02*
X6106491Y-5669531D01*
X6106491Y-5669531D02*
X6116015Y-5688579D01*
X6116015Y-5688579D02*
X6125539Y-5726674D01*
X6125539Y-5726674D02*
X6125539Y-5774293D01*
X6125539Y-5774293D02*
X6116015Y-5812388D01*
X6116015Y-5812388D02*
X6106491Y-5831436D01*
X6106491Y-5831436D02*
X6096967Y-5840960D01*
X6096967Y-5840960D02*
X6077920Y-5850484D01*
X6077920Y-5850484D02*
X6058872Y-5850484D01*
X6058872Y-5850484D02*
X6039824Y-5840960D01*
X6039824Y-5840960D02*
X6030301Y-5831436D01*
X6030301Y-5831436D02*
X6020777Y-5812388D01*
X6020777Y-5812388D02*
X6011253Y-5774293D01*
X6011253Y-5774293D02*
X6011253Y-5726674D01*
X6011253Y-5726674D02*
X6020777Y-5688579D01*
X6020777Y-5688579D02*
X6030301Y-5669531D01*
X6030301Y-5669531D02*
X6039824Y-5660008D01*
X6039824Y-5660008D02*
X6058872Y-5650484D01*
X6211253Y-5831436D02*
X6220777Y-5840960D01*
X6220777Y-5840960D02*
X6211253Y-5850484D01*
X6211253Y-5850484D02*
X6201729Y-5840960D01*
X6201729Y-5840960D02*
X6211253Y-5831436D01*
X6211253Y-5831436D02*
X6211253Y-5850484D01*
X6316015Y-5850484D02*
X6354110Y-5850484D01*
X6354110Y-5850484D02*
X6373158Y-5840960D01*
X6373158Y-5840960D02*
X6382682Y-5831436D01*
X6382682Y-5831436D02*
X6401729Y-5802865D01*
X6401729Y-5802865D02*
X6411253Y-5764769D01*
X6411253Y-5764769D02*
X6411253Y-5688579D01*
X6411253Y-5688579D02*
X6401729Y-5669531D01*
X6401729Y-5669531D02*
X6392205Y-5660008D01*
X6392205Y-5660008D02*
X6373158Y-5650484D01*
X6373158Y-5650484D02*
X6335062Y-5650484D01*
X6335062Y-5650484D02*
X6316015Y-5660008D01*
X6316015Y-5660008D02*
X6306491Y-5669531D01*
X6306491Y-5669531D02*
X6296967Y-5688579D01*
X6296967Y-5688579D02*
X6296967Y-5736198D01*
X6296967Y-5736198D02*
X6306491Y-5755246D01*
X6306491Y-5755246D02*
X6316015Y-5764769D01*
X6316015Y-5764769D02*
X6335062Y-5774293D01*
X6335062Y-5774293D02*
X6373158Y-5774293D01*
X6373158Y-5774293D02*
X6392205Y-5764769D01*
X6392205Y-5764769D02*
X6401729Y-5755246D01*
X6401729Y-5755246D02*
X6411253Y-5736198D01*
X6535062Y-5650484D02*
X6554110Y-5650484D01*
X6554110Y-5650484D02*
X6573158Y-5660008D01*
X6573158Y-5660008D02*
X6582682Y-5669531D01*
X6582682Y-5669531D02*
X6592205Y-5688579D01*
X6592205Y-5688579D02*
X6601729Y-5726674D01*
X6601729Y-5726674D02*
X6601729Y-5774293D01*
X6601729Y-5774293D02*
X6592205Y-5812388D01*
X6592205Y-5812388D02*
X6582682Y-5831436D01*
X6582682Y-5831436D02*
X6573158Y-5840960D01*
X6573158Y-5840960D02*
X6554110Y-5850484D01*
X6554110Y-5850484D02*
X6535062Y-5850484D01*
X6535062Y-5850484D02*
X6516015Y-5840960D01*
X6516015Y-5840960D02*
X6506491Y-5831436D01*
X6506491Y-5831436D02*
X6496967Y-5812388D01*
X6496967Y-5812388D02*
X6487443Y-5774293D01*
X6487443Y-5774293D02*
X6487443Y-5726674D01*
X6487443Y-5726674D02*
X6496967Y-5688579D01*
X6496967Y-5688579D02*
X6506491Y-5669531D01*
X6506491Y-5669531D02*
X6516015Y-5660008D01*
X6516015Y-5660008D02*
X6535062Y-5650484D01*
X6725539Y-5650484D02*
X6744586Y-5650484D01*
X6744586Y-5650484D02*
X6763634Y-5660008D01*
X6763634Y-5660008D02*
X6773158Y-5669531D01*
X6773158Y-5669531D02*
X6782682Y-5688579D01*
X6782682Y-5688579D02*
X6792205Y-5726674D01*
X6792205Y-5726674D02*
X6792205Y-5774293D01*
X6792205Y-5774293D02*
X6782682Y-5812388D01*
X6782682Y-5812388D02*
X6773158Y-5831436D01*
X6773158Y-5831436D02*
X6763634Y-5840960D01*
X6763634Y-5840960D02*
X6744586Y-5850484D01*
X6744586Y-5850484D02*
X6725539Y-5850484D01*
X6725539Y-5850484D02*
X6706491Y-5840960D01*
X6706491Y-5840960D02*
X6696967Y-5831436D01*
X6696967Y-5831436D02*
X6687443Y-5812388D01*
X6687443Y-5812388D02*
X6677920Y-5774293D01*
X6677920Y-5774293D02*
X6677920Y-5726674D01*
X6677920Y-5726674D02*
X6687443Y-5688579D01*
X6687443Y-5688579D02*
X6696967Y-5669531D01*
X6696967Y-5669531D02*
X6706491Y-5660008D01*
X6706491Y-5660008D02*
X6725539Y-5650484D01*
X6877920Y-5850484D02*
X6877920Y-5717150D01*
X6877920Y-5736198D02*
X6887443Y-5726674D01*
X6887443Y-5726674D02*
X6906491Y-5717150D01*
X6906491Y-5717150D02*
X6935063Y-5717150D01*
X6935063Y-5717150D02*
X6954110Y-5726674D01*
X6954110Y-5726674D02*
X6963634Y-5745722D01*
X6963634Y-5745722D02*
X6963634Y-5850484D01*
X6963634Y-5745722D02*
X6973158Y-5726674D01*
X6973158Y-5726674D02*
X6992205Y-5717150D01*
X6992205Y-5717150D02*
X7020777Y-5717150D01*
X7020777Y-5717150D02*
X7039824Y-5726674D01*
X7039824Y-5726674D02*
X7049348Y-5745722D01*
X7049348Y-5745722D02*
X7049348Y-5850484D01*
X7144586Y-5850484D02*
X7144586Y-5717150D01*
X7144586Y-5736198D02*
X7154110Y-5726674D01*
X7154110Y-5726674D02*
X7173158Y-5717150D01*
X7173158Y-5717150D02*
X7201729Y-5717150D01*
X7201729Y-5717150D02*
X7220777Y-5726674D01*
X7220777Y-5726674D02*
X7230301Y-5745722D01*
X7230301Y-5745722D02*
X7230301Y-5850484D01*
X7230301Y-5745722D02*
X7239824Y-5726674D01*
X7239824Y-5726674D02*
X7258872Y-5717150D01*
X7258872Y-5717150D02*
X7287443Y-5717150D01*
X7287443Y-5717150D02*
X7306491Y-5726674D01*
X7306491Y-5726674D02*
X7316015Y-5745722D01*
X7316015Y-5745722D02*
X7316015Y-5850484D01*
X7706491Y-5640960D02*
X7535063Y-5898103D01*
X7963634Y-5650484D02*
X7982682Y-5650484D01*
X7982682Y-5650484D02*
X8001729Y-5660008D01*
X8001729Y-5660008D02*
X8011253Y-5669531D01*
X8011253Y-5669531D02*
X8020777Y-5688579D01*
X8020777Y-5688579D02*
X8030301Y-5726674D01*
X8030301Y-5726674D02*
X8030301Y-5774293D01*
X8030301Y-5774293D02*
X8020777Y-5812388D01*
X8020777Y-5812388D02*
X8011253Y-5831436D01*
X8011253Y-5831436D02*
X8001729Y-5840960D01*
X8001729Y-5840960D02*
X7982682Y-5850484D01*
X7982682Y-5850484D02*
X7963634Y-5850484D01*
X7963634Y-5850484D02*
X7944586Y-5840960D01*
X7944586Y-5840960D02*
X7935063Y-5831436D01*
X7935063Y-5831436D02*
X7925539Y-5812388D01*
X7925539Y-5812388D02*
X7916015Y-5774293D01*
X7916015Y-5774293D02*
X7916015Y-5726674D01*
X7916015Y-5726674D02*
X7925539Y-5688579D01*
X7925539Y-5688579D02*
X7935063Y-5669531D01*
X7935063Y-5669531D02*
X7944586Y-5660008D01*
X7944586Y-5660008D02*
X7963634Y-5650484D01*
X8116015Y-5831436D02*
X8125539Y-5840960D01*
X8125539Y-5840960D02*
X8116015Y-5850484D01*
X8116015Y-5850484D02*
X8106491Y-5840960D01*
X8106491Y-5840960D02*
X8116015Y-5831436D01*
X8116015Y-5831436D02*
X8116015Y-5850484D01*
X8249348Y-5650484D02*
X8268396Y-5650484D01*
X8268396Y-5650484D02*
X8287444Y-5660008D01*
X8287444Y-5660008D02*
X8296967Y-5669531D01*
X8296967Y-5669531D02*
X8306491Y-5688579D01*
X8306491Y-5688579D02*
X8316015Y-5726674D01*
X8316015Y-5726674D02*
X8316015Y-5774293D01*
X8316015Y-5774293D02*
X8306491Y-5812388D01*
X8306491Y-5812388D02*
X8296967Y-5831436D01*
X8296967Y-5831436D02*
X8287444Y-5840960D01*
X8287444Y-5840960D02*
X8268396Y-5850484D01*
X8268396Y-5850484D02*
X8249348Y-5850484D01*
X8249348Y-5850484D02*
X8230301Y-5840960D01*
X8230301Y-5840960D02*
X8220777Y-5831436D01*
X8220777Y-5831436D02*
X8211253Y-5812388D01*
X8211253Y-5812388D02*
X8201729Y-5774293D01*
X8201729Y-5774293D02*
X8201729Y-5726674D01*
X8201729Y-5726674D02*
X8211253Y-5688579D01*
X8211253Y-5688579D02*
X8220777Y-5669531D01*
X8220777Y-5669531D02*
X8230301Y-5660008D01*
X8230301Y-5660008D02*
X8249348Y-5650484D01*
X8382682Y-5650484D02*
X8506491Y-5650484D01*
X8506491Y-5650484D02*
X8439825Y-5726674D01*
X8439825Y-5726674D02*
X8468396Y-5726674D01*
X8468396Y-5726674D02*
X8487444Y-5736198D01*
X8487444Y-5736198D02*
X8496968Y-5745722D01*
X8496968Y-5745722D02*
X8506491Y-5764769D01*
X8506491Y-5764769D02*
X8506491Y-5812388D01*
X8506491Y-5812388D02*
X8496968Y-5831436D01*
X8496968Y-5831436D02*
X8487444Y-5840960D01*
X8487444Y-5840960D02*
X8468396Y-5850484D01*
X8468396Y-5850484D02*
X8411253Y-5850484D01*
X8411253Y-5850484D02*
X8392206Y-5840960D01*
X8392206Y-5840960D02*
X8382682Y-5831436D01*
X8687444Y-5650484D02*
X8592206Y-5650484D01*
X8592206Y-5650484D02*
X8582682Y-5745722D01*
X8582682Y-5745722D02*
X8592206Y-5736198D01*
X8592206Y-5736198D02*
X8611253Y-5726674D01*
X8611253Y-5726674D02*
X8658872Y-5726674D01*
X8658872Y-5726674D02*
X8677920Y-5736198D01*
X8677920Y-5736198D02*
X8687444Y-5745722D01*
X8687444Y-5745722D02*
X8696968Y-5764769D01*
X8696968Y-5764769D02*
X8696968Y-5812388D01*
X8696968Y-5812388D02*
X8687444Y-5831436D01*
X8687444Y-5831436D02*
X8677920Y-5840960D01*
X8677920Y-5840960D02*
X8658872Y-5850484D01*
X8658872Y-5850484D02*
X8611253Y-5850484D01*
X8611253Y-5850484D02*
X8592206Y-5840960D01*
X8592206Y-5840960D02*
X8582682Y-5831436D01*
X8868396Y-5717150D02*
X8868396Y-5850484D01*
X8820777Y-5640960D02*
X8773158Y-5783817D01*
X8773158Y-5783817D02*
X8896968Y-5783817D01*
X8963634Y-5650484D02*
X8963634Y-5688579D01*
X9039825Y-5650484D02*
X9039825Y-5688579D01*
X9335063Y-5926674D02*
X9325539Y-5917150D01*
X9325539Y-5917150D02*
X9306491Y-5888579D01*
X9306491Y-5888579D02*
X9296968Y-5869531D01*
X9296968Y-5869531D02*
X9287444Y-5840960D01*
X9287444Y-5840960D02*
X9277920Y-5793341D01*
X9277920Y-5793341D02*
X9277920Y-5755246D01*
X9277920Y-5755246D02*
X9287444Y-5707627D01*
X9287444Y-5707627D02*
X9296968Y-5679055D01*
X9296968Y-5679055D02*
X9306491Y-5660008D01*
X9306491Y-5660008D02*
X9325539Y-5631436D01*
X9325539Y-5631436D02*
X9335063Y-5621912D01*
X9496968Y-5717150D02*
X9496968Y-5850484D01*
X9449349Y-5640960D02*
X9401730Y-5783817D01*
X9401730Y-5783817D02*
X9525539Y-5783817D01*
X9754111Y-5850484D02*
X9754111Y-5650484D01*
X9839825Y-5850484D02*
X9839825Y-5745722D01*
X9839825Y-5745722D02*
X9830301Y-5726674D01*
X9830301Y-5726674D02*
X9811253Y-5717150D01*
X9811253Y-5717150D02*
X9782682Y-5717150D01*
X9782682Y-5717150D02*
X9763634Y-5726674D01*
X9763634Y-5726674D02*
X9754111Y-5736198D01*
X9963634Y-5850484D02*
X9944587Y-5840960D01*
X9944587Y-5840960D02*
X9935063Y-5831436D01*
X9935063Y-5831436D02*
X9925539Y-5812388D01*
X9925539Y-5812388D02*
X9925539Y-5755246D01*
X9925539Y-5755246D02*
X9935063Y-5736198D01*
X9935063Y-5736198D02*
X9944587Y-5726674D01*
X9944587Y-5726674D02*
X9963634Y-5717150D01*
X9963634Y-5717150D02*
X9992206Y-5717150D01*
X9992206Y-5717150D02*
X10011253Y-5726674D01*
X10011253Y-5726674D02*
X10020777Y-5736198D01*
X10020777Y-5736198D02*
X10030301Y-5755246D01*
X10030301Y-5755246D02*
X10030301Y-5812388D01*
X10030301Y-5812388D02*
X10020777Y-5831436D01*
X10020777Y-5831436D02*
X10011253Y-5840960D01*
X10011253Y-5840960D02*
X9992206Y-5850484D01*
X9992206Y-5850484D02*
X9963634Y-5850484D01*
X10144587Y-5850484D02*
X10125539Y-5840960D01*
X10125539Y-5840960D02*
X10116015Y-5821912D01*
X10116015Y-5821912D02*
X10116015Y-5650484D01*
X10296968Y-5840960D02*
X10277920Y-5850484D01*
X10277920Y-5850484D02*
X10239825Y-5850484D01*
X10239825Y-5850484D02*
X10220777Y-5840960D01*
X10220777Y-5840960D02*
X10211253Y-5821912D01*
X10211253Y-5821912D02*
X10211253Y-5745722D01*
X10211253Y-5745722D02*
X10220777Y-5726674D01*
X10220777Y-5726674D02*
X10239825Y-5717150D01*
X10239825Y-5717150D02*
X10277920Y-5717150D01*
X10277920Y-5717150D02*
X10296968Y-5726674D01*
X10296968Y-5726674D02*
X10306492Y-5745722D01*
X10306492Y-5745722D02*
X10306492Y-5764769D01*
X10306492Y-5764769D02*
X10211253Y-5783817D01*
X10382682Y-5840960D02*
X10401730Y-5850484D01*
X10401730Y-5850484D02*
X10439825Y-5850484D01*
X10439825Y-5850484D02*
X10458873Y-5840960D01*
X10458873Y-5840960D02*
X10468396Y-5821912D01*
X10468396Y-5821912D02*
X10468396Y-5812388D01*
X10468396Y-5812388D02*
X10458873Y-5793341D01*
X10458873Y-5793341D02*
X10439825Y-5783817D01*
X10439825Y-5783817D02*
X10411253Y-5783817D01*
X10411253Y-5783817D02*
X10392206Y-5774293D01*
X10392206Y-5774293D02*
X10382682Y-5755246D01*
X10382682Y-5755246D02*
X10382682Y-5745722D01*
X10382682Y-5745722D02*
X10392206Y-5726674D01*
X10392206Y-5726674D02*
X10411253Y-5717150D01*
X10411253Y-5717150D02*
X10439825Y-5717150D01*
X10439825Y-5717150D02*
X10458873Y-5726674D01*
X10535063Y-5926674D02*
X10544587Y-5917150D01*
X10544587Y-5917150D02*
X10563634Y-5888579D01*
X10563634Y-5888579D02*
X10573158Y-5869531D01*
X10573158Y-5869531D02*
X10582682Y-5840960D01*
X10582682Y-5840960D02*
X10592206Y-5793341D01*
X10592206Y-5793341D02*
X10592206Y-5755246D01*
X10592206Y-5755246D02*
X10582682Y-5707627D01*
X10582682Y-5707627D02*
X10573158Y-5679055D01*
X10573158Y-5679055D02*
X10563634Y-5660008D01*
X10563634Y-5660008D02*
X10544587Y-5631436D01*
X10544587Y-5631436D02*
X10535063Y-5621912D01*
D10*
X5712500Y-5975500D02*
X5712500Y-6070500D01*
X5665000Y-6023000D02*
X5760000Y-6023000D01*
D11*
X6058872Y-5914484D02*
X6077920Y-5914484D01*
X6077920Y-5914484D02*
X6096967Y-5924008D01*
X6096967Y-5924008D02*
X6106491Y-5933531D01*
X6106491Y-5933531D02*
X6116015Y-5952579D01*
X6116015Y-5952579D02*
X6125539Y-5990674D01*
X6125539Y-5990674D02*
X6125539Y-6038293D01*
X6125539Y-6038293D02*
X6116015Y-6076388D01*
X6116015Y-6076388D02*
X6106491Y-6095436D01*
X6106491Y-6095436D02*
X6096967Y-6104960D01*
X6096967Y-6104960D02*
X6077920Y-6114484D01*
X6077920Y-6114484D02*
X6058872Y-6114484D01*
X6058872Y-6114484D02*
X6039824Y-6104960D01*
X6039824Y-6104960D02*
X6030301Y-6095436D01*
X6030301Y-6095436D02*
X6020777Y-6076388D01*
X6020777Y-6076388D02*
X6011253Y-6038293D01*
X6011253Y-6038293D02*
X6011253Y-5990674D01*
X6011253Y-5990674D02*
X6020777Y-5952579D01*
X6020777Y-5952579D02*
X6030301Y-5933531D01*
X6030301Y-5933531D02*
X6039824Y-5924008D01*
X6039824Y-5924008D02*
X6058872Y-5914484D01*
X6211253Y-6095436D02*
X6220777Y-6104960D01*
X6220777Y-6104960D02*
X6211253Y-6114484D01*
X6211253Y-6114484D02*
X6201729Y-6104960D01*
X6201729Y-6104960D02*
X6211253Y-6095436D01*
X6211253Y-6095436D02*
X6211253Y-6114484D01*
X6316015Y-6114484D02*
X6354110Y-6114484D01*
X6354110Y-6114484D02*
X6373158Y-6104960D01*
X6373158Y-6104960D02*
X6382682Y-6095436D01*
X6382682Y-6095436D02*
X6401729Y-6066865D01*
X6401729Y-6066865D02*
X6411253Y-6028769D01*
X6411253Y-6028769D02*
X6411253Y-5952579D01*
X6411253Y-5952579D02*
X6401729Y-5933531D01*
X6401729Y-5933531D02*
X6392205Y-5924008D01*
X6392205Y-5924008D02*
X6373158Y-5914484D01*
X6373158Y-5914484D02*
X6335062Y-5914484D01*
X6335062Y-5914484D02*
X6316015Y-5924008D01*
X6316015Y-5924008D02*
X6306491Y-5933531D01*
X6306491Y-5933531D02*
X6296967Y-5952579D01*
X6296967Y-5952579D02*
X6296967Y-6000198D01*
X6296967Y-6000198D02*
X6306491Y-6019246D01*
X6306491Y-6019246D02*
X6316015Y-6028769D01*
X6316015Y-6028769D02*
X6335062Y-6038293D01*
X6335062Y-6038293D02*
X6373158Y-6038293D01*
X6373158Y-6038293D02*
X6392205Y-6028769D01*
X6392205Y-6028769D02*
X6401729Y-6019246D01*
X6401729Y-6019246D02*
X6411253Y-6000198D01*
X6592205Y-5914484D02*
X6496967Y-5914484D01*
X6496967Y-5914484D02*
X6487443Y-6009722D01*
X6487443Y-6009722D02*
X6496967Y-6000198D01*
X6496967Y-6000198D02*
X6516015Y-5990674D01*
X6516015Y-5990674D02*
X6563634Y-5990674D01*
X6563634Y-5990674D02*
X6582682Y-6000198D01*
X6582682Y-6000198D02*
X6592205Y-6009722D01*
X6592205Y-6009722D02*
X6601729Y-6028769D01*
X6601729Y-6028769D02*
X6601729Y-6076388D01*
X6601729Y-6076388D02*
X6592205Y-6095436D01*
X6592205Y-6095436D02*
X6582682Y-6104960D01*
X6582682Y-6104960D02*
X6563634Y-6114484D01*
X6563634Y-6114484D02*
X6516015Y-6114484D01*
X6516015Y-6114484D02*
X6496967Y-6104960D01*
X6496967Y-6104960D02*
X6487443Y-6095436D01*
X6725539Y-5914484D02*
X6744586Y-5914484D01*
X6744586Y-5914484D02*
X6763634Y-5924008D01*
X6763634Y-5924008D02*
X6773158Y-5933531D01*
X6773158Y-5933531D02*
X6782682Y-5952579D01*
X6782682Y-5952579D02*
X6792205Y-5990674D01*
X6792205Y-5990674D02*
X6792205Y-6038293D01*
X6792205Y-6038293D02*
X6782682Y-6076388D01*
X6782682Y-6076388D02*
X6773158Y-6095436D01*
X6773158Y-6095436D02*
X6763634Y-6104960D01*
X6763634Y-6104960D02*
X6744586Y-6114484D01*
X6744586Y-6114484D02*
X6725539Y-6114484D01*
X6725539Y-6114484D02*
X6706491Y-6104960D01*
X6706491Y-6104960D02*
X6696967Y-6095436D01*
X6696967Y-6095436D02*
X6687443Y-6076388D01*
X6687443Y-6076388D02*
X6677920Y-6038293D01*
X6677920Y-6038293D02*
X6677920Y-5990674D01*
X6677920Y-5990674D02*
X6687443Y-5952579D01*
X6687443Y-5952579D02*
X6696967Y-5933531D01*
X6696967Y-5933531D02*
X6706491Y-5924008D01*
X6706491Y-5924008D02*
X6725539Y-5914484D01*
X6877920Y-6114484D02*
X6877920Y-5981150D01*
X6877920Y-6000198D02*
X6887443Y-5990674D01*
X6887443Y-5990674D02*
X6906491Y-5981150D01*
X6906491Y-5981150D02*
X6935063Y-5981150D01*
X6935063Y-5981150D02*
X6954110Y-5990674D01*
X6954110Y-5990674D02*
X6963634Y-6009722D01*
X6963634Y-6009722D02*
X6963634Y-6114484D01*
X6963634Y-6009722D02*
X6973158Y-5990674D01*
X6973158Y-5990674D02*
X6992205Y-5981150D01*
X6992205Y-5981150D02*
X7020777Y-5981150D01*
X7020777Y-5981150D02*
X7039824Y-5990674D01*
X7039824Y-5990674D02*
X7049348Y-6009722D01*
X7049348Y-6009722D02*
X7049348Y-6114484D01*
X7144586Y-6114484D02*
X7144586Y-5981150D01*
X7144586Y-6000198D02*
X7154110Y-5990674D01*
X7154110Y-5990674D02*
X7173158Y-5981150D01*
X7173158Y-5981150D02*
X7201729Y-5981150D01*
X7201729Y-5981150D02*
X7220777Y-5990674D01*
X7220777Y-5990674D02*
X7230301Y-6009722D01*
X7230301Y-6009722D02*
X7230301Y-6114484D01*
X7230301Y-6009722D02*
X7239824Y-5990674D01*
X7239824Y-5990674D02*
X7258872Y-5981150D01*
X7258872Y-5981150D02*
X7287443Y-5981150D01*
X7287443Y-5981150D02*
X7306491Y-5990674D01*
X7306491Y-5990674D02*
X7316015Y-6009722D01*
X7316015Y-6009722D02*
X7316015Y-6114484D01*
X7706491Y-5904960D02*
X7535063Y-6162103D01*
X7963634Y-5914484D02*
X7982682Y-5914484D01*
X7982682Y-5914484D02*
X8001729Y-5924008D01*
X8001729Y-5924008D02*
X8011253Y-5933531D01*
X8011253Y-5933531D02*
X8020777Y-5952579D01*
X8020777Y-5952579D02*
X8030301Y-5990674D01*
X8030301Y-5990674D02*
X8030301Y-6038293D01*
X8030301Y-6038293D02*
X8020777Y-6076388D01*
X8020777Y-6076388D02*
X8011253Y-6095436D01*
X8011253Y-6095436D02*
X8001729Y-6104960D01*
X8001729Y-6104960D02*
X7982682Y-6114484D01*
X7982682Y-6114484D02*
X7963634Y-6114484D01*
X7963634Y-6114484D02*
X7944586Y-6104960D01*
X7944586Y-6104960D02*
X7935063Y-6095436D01*
X7935063Y-6095436D02*
X7925539Y-6076388D01*
X7925539Y-6076388D02*
X7916015Y-6038293D01*
X7916015Y-6038293D02*
X7916015Y-5990674D01*
X7916015Y-5990674D02*
X7925539Y-5952579D01*
X7925539Y-5952579D02*
X7935063Y-5933531D01*
X7935063Y-5933531D02*
X7944586Y-5924008D01*
X7944586Y-5924008D02*
X7963634Y-5914484D01*
X8116015Y-6095436D02*
X8125539Y-6104960D01*
X8125539Y-6104960D02*
X8116015Y-6114484D01*
X8116015Y-6114484D02*
X8106491Y-6104960D01*
X8106491Y-6104960D02*
X8116015Y-6095436D01*
X8116015Y-6095436D02*
X8116015Y-6114484D01*
X8249348Y-5914484D02*
X8268396Y-5914484D01*
X8268396Y-5914484D02*
X8287444Y-5924008D01*
X8287444Y-5924008D02*
X8296967Y-5933531D01*
X8296967Y-5933531D02*
X8306491Y-5952579D01*
X8306491Y-5952579D02*
X8316015Y-5990674D01*
X8316015Y-5990674D02*
X8316015Y-6038293D01*
X8316015Y-6038293D02*
X8306491Y-6076388D01*
X8306491Y-6076388D02*
X8296967Y-6095436D01*
X8296967Y-6095436D02*
X8287444Y-6104960D01*
X8287444Y-6104960D02*
X8268396Y-6114484D01*
X8268396Y-6114484D02*
X8249348Y-6114484D01*
X8249348Y-6114484D02*
X8230301Y-6104960D01*
X8230301Y-6104960D02*
X8220777Y-6095436D01*
X8220777Y-6095436D02*
X8211253Y-6076388D01*
X8211253Y-6076388D02*
X8201729Y-6038293D01*
X8201729Y-6038293D02*
X8201729Y-5990674D01*
X8201729Y-5990674D02*
X8211253Y-5952579D01*
X8211253Y-5952579D02*
X8220777Y-5933531D01*
X8220777Y-5933531D02*
X8230301Y-5924008D01*
X8230301Y-5924008D02*
X8249348Y-5914484D01*
X8382682Y-5914484D02*
X8506491Y-5914484D01*
X8506491Y-5914484D02*
X8439825Y-5990674D01*
X8439825Y-5990674D02*
X8468396Y-5990674D01*
X8468396Y-5990674D02*
X8487444Y-6000198D01*
X8487444Y-6000198D02*
X8496968Y-6009722D01*
X8496968Y-6009722D02*
X8506491Y-6028769D01*
X8506491Y-6028769D02*
X8506491Y-6076388D01*
X8506491Y-6076388D02*
X8496968Y-6095436D01*
X8496968Y-6095436D02*
X8487444Y-6104960D01*
X8487444Y-6104960D02*
X8468396Y-6114484D01*
X8468396Y-6114484D02*
X8411253Y-6114484D01*
X8411253Y-6114484D02*
X8392206Y-6104960D01*
X8392206Y-6104960D02*
X8382682Y-6095436D01*
X8573158Y-5914484D02*
X8706491Y-5914484D01*
X8706491Y-5914484D02*
X8620777Y-6114484D01*
X8868396Y-5981150D02*
X8868396Y-6114484D01*
X8820777Y-5904960D02*
X8773158Y-6047817D01*
X8773158Y-6047817D02*
X8896968Y-6047817D01*
X8963634Y-5914484D02*
X8963634Y-5952579D01*
X9039825Y-5914484D02*
X9039825Y-5952579D01*
X9335063Y-6190674D02*
X9325539Y-6181150D01*
X9325539Y-6181150D02*
X9306491Y-6152579D01*
X9306491Y-6152579D02*
X9296968Y-6133531D01*
X9296968Y-6133531D02*
X9287444Y-6104960D01*
X9287444Y-6104960D02*
X9277920Y-6057341D01*
X9277920Y-6057341D02*
X9277920Y-6019246D01*
X9277920Y-6019246D02*
X9287444Y-5971627D01*
X9287444Y-5971627D02*
X9296968Y-5943055D01*
X9296968Y-5943055D02*
X9306491Y-5924008D01*
X9306491Y-5924008D02*
X9325539Y-5895436D01*
X9325539Y-5895436D02*
X9335063Y-5885912D01*
X9392206Y-5914484D02*
X9516015Y-5914484D01*
X9516015Y-5914484D02*
X9449349Y-5990674D01*
X9449349Y-5990674D02*
X9477920Y-5990674D01*
X9477920Y-5990674D02*
X9496968Y-6000198D01*
X9496968Y-6000198D02*
X9506491Y-6009722D01*
X9506491Y-6009722D02*
X9516015Y-6028769D01*
X9516015Y-6028769D02*
X9516015Y-6076388D01*
X9516015Y-6076388D02*
X9506491Y-6095436D01*
X9506491Y-6095436D02*
X9496968Y-6104960D01*
X9496968Y-6104960D02*
X9477920Y-6114484D01*
X9477920Y-6114484D02*
X9420777Y-6114484D01*
X9420777Y-6114484D02*
X9401730Y-6104960D01*
X9401730Y-6104960D02*
X9392206Y-6095436D01*
X9754111Y-6114484D02*
X9754111Y-5914484D01*
X9839825Y-6114484D02*
X9839825Y-6009722D01*
X9839825Y-6009722D02*
X9830301Y-5990674D01*
X9830301Y-5990674D02*
X9811253Y-5981150D01*
X9811253Y-5981150D02*
X9782682Y-5981150D01*
X9782682Y-5981150D02*
X9763634Y-5990674D01*
X9763634Y-5990674D02*
X9754111Y-6000198D01*
X9963634Y-6114484D02*
X9944587Y-6104960D01*
X9944587Y-6104960D02*
X9935063Y-6095436D01*
X9935063Y-6095436D02*
X9925539Y-6076388D01*
X9925539Y-6076388D02*
X9925539Y-6019246D01*
X9925539Y-6019246D02*
X9935063Y-6000198D01*
X9935063Y-6000198D02*
X9944587Y-5990674D01*
X9944587Y-5990674D02*
X9963634Y-5981150D01*
X9963634Y-5981150D02*
X9992206Y-5981150D01*
X9992206Y-5981150D02*
X10011253Y-5990674D01*
X10011253Y-5990674D02*
X10020777Y-6000198D01*
X10020777Y-6000198D02*
X10030301Y-6019246D01*
X10030301Y-6019246D02*
X10030301Y-6076388D01*
X10030301Y-6076388D02*
X10020777Y-6095436D01*
X10020777Y-6095436D02*
X10011253Y-6104960D01*
X10011253Y-6104960D02*
X9992206Y-6114484D01*
X9992206Y-6114484D02*
X9963634Y-6114484D01*
X10144587Y-6114484D02*
X10125539Y-6104960D01*
X10125539Y-6104960D02*
X10116015Y-6085912D01*
X10116015Y-6085912D02*
X10116015Y-5914484D01*
X10296968Y-6104960D02*
X10277920Y-6114484D01*
X10277920Y-6114484D02*
X10239825Y-6114484D01*
X10239825Y-6114484D02*
X10220777Y-6104960D01*
X10220777Y-6104960D02*
X10211253Y-6085912D01*
X10211253Y-6085912D02*
X10211253Y-6009722D01*
X10211253Y-6009722D02*
X10220777Y-5990674D01*
X10220777Y-5990674D02*
X10239825Y-5981150D01*
X10239825Y-5981150D02*
X10277920Y-5981150D01*
X10277920Y-5981150D02*
X10296968Y-5990674D01*
X10296968Y-5990674D02*
X10306492Y-6009722D01*
X10306492Y-6009722D02*
X10306492Y-6028769D01*
X10306492Y-6028769D02*
X10211253Y-6047817D01*
X10382682Y-6104960D02*
X10401730Y-6114484D01*
X10401730Y-6114484D02*
X10439825Y-6114484D01*
X10439825Y-6114484D02*
X10458873Y-6104960D01*
X10458873Y-6104960D02*
X10468396Y-6085912D01*
X10468396Y-6085912D02*
X10468396Y-6076388D01*
X10468396Y-6076388D02*
X10458873Y-6057341D01*
X10458873Y-6057341D02*
X10439825Y-6047817D01*
X10439825Y-6047817D02*
X10411253Y-6047817D01*
X10411253Y-6047817D02*
X10392206Y-6038293D01*
X10392206Y-6038293D02*
X10382682Y-6019246D01*
X10382682Y-6019246D02*
X10382682Y-6009722D01*
X10382682Y-6009722D02*
X10392206Y-5990674D01*
X10392206Y-5990674D02*
X10411253Y-5981150D01*
X10411253Y-5981150D02*
X10439825Y-5981150D01*
X10439825Y-5981150D02*
X10458873Y-5990674D01*
X10535063Y-6190674D02*
X10544587Y-6181150D01*
X10544587Y-6181150D02*
X10563634Y-6152579D01*
X10563634Y-6152579D02*
X10573158Y-6133531D01*
X10573158Y-6133531D02*
X10582682Y-6104960D01*
X10582682Y-6104960D02*
X10592206Y-6057341D01*
X10592206Y-6057341D02*
X10592206Y-6019246D01*
X10592206Y-6019246D02*
X10582682Y-5971627D01*
X10582682Y-5971627D02*
X10573158Y-5943055D01*
X10573158Y-5943055D02*
X10563634Y-5924008D01*
X10563634Y-5924008D02*
X10544587Y-5895436D01*
X10544587Y-5895436D02*
X10535063Y-5885912D01*
D10*
X5745356Y-6322356D02*
X5745356Y-6251644D01*
X5674644Y-6251644D01*
X5674644Y-6322356D01*
X5745356Y-6322356D01*
D11*
X6125539Y-6378484D02*
X6011253Y-6378484D01*
X6068396Y-6378484D02*
X6068396Y-6178484D01*
X6068396Y-6178484D02*
X6049348Y-6207055D01*
X6049348Y-6207055D02*
X6030301Y-6226103D01*
X6030301Y-6226103D02*
X6011253Y-6235627D01*
X6211253Y-6359436D02*
X6220777Y-6368960D01*
X6220777Y-6368960D02*
X6211253Y-6378484D01*
X6211253Y-6378484D02*
X6201729Y-6368960D01*
X6201729Y-6368960D02*
X6211253Y-6359436D01*
X6211253Y-6359436D02*
X6211253Y-6378484D01*
X6344586Y-6178484D02*
X6363634Y-6178484D01*
X6363634Y-6178484D02*
X6382682Y-6188008D01*
X6382682Y-6188008D02*
X6392205Y-6197531D01*
X6392205Y-6197531D02*
X6401729Y-6216579D01*
X6401729Y-6216579D02*
X6411253Y-6254674D01*
X6411253Y-6254674D02*
X6411253Y-6302293D01*
X6411253Y-6302293D02*
X6401729Y-6340388D01*
X6401729Y-6340388D02*
X6392205Y-6359436D01*
X6392205Y-6359436D02*
X6382682Y-6368960D01*
X6382682Y-6368960D02*
X6363634Y-6378484D01*
X6363634Y-6378484D02*
X6344586Y-6378484D01*
X6344586Y-6378484D02*
X6325539Y-6368960D01*
X6325539Y-6368960D02*
X6316015Y-6359436D01*
X6316015Y-6359436D02*
X6306491Y-6340388D01*
X6306491Y-6340388D02*
X6296967Y-6302293D01*
X6296967Y-6302293D02*
X6296967Y-6254674D01*
X6296967Y-6254674D02*
X6306491Y-6216579D01*
X6306491Y-6216579D02*
X6316015Y-6197531D01*
X6316015Y-6197531D02*
X6325539Y-6188008D01*
X6325539Y-6188008D02*
X6344586Y-6178484D01*
X6535062Y-6178484D02*
X6554110Y-6178484D01*
X6554110Y-6178484D02*
X6573158Y-6188008D01*
X6573158Y-6188008D02*
X6582682Y-6197531D01*
X6582682Y-6197531D02*
X6592205Y-6216579D01*
X6592205Y-6216579D02*
X6601729Y-6254674D01*
X6601729Y-6254674D02*
X6601729Y-6302293D01*
X6601729Y-6302293D02*
X6592205Y-6340388D01*
X6592205Y-6340388D02*
X6582682Y-6359436D01*
X6582682Y-6359436D02*
X6573158Y-6368960D01*
X6573158Y-6368960D02*
X6554110Y-6378484D01*
X6554110Y-6378484D02*
X6535062Y-6378484D01*
X6535062Y-6378484D02*
X6516015Y-6368960D01*
X6516015Y-6368960D02*
X6506491Y-6359436D01*
X6506491Y-6359436D02*
X6496967Y-6340388D01*
X6496967Y-6340388D02*
X6487443Y-6302293D01*
X6487443Y-6302293D02*
X6487443Y-6254674D01*
X6487443Y-6254674D02*
X6496967Y-6216579D01*
X6496967Y-6216579D02*
X6506491Y-6197531D01*
X6506491Y-6197531D02*
X6516015Y-6188008D01*
X6516015Y-6188008D02*
X6535062Y-6178484D01*
X6725539Y-6178484D02*
X6744586Y-6178484D01*
X6744586Y-6178484D02*
X6763634Y-6188008D01*
X6763634Y-6188008D02*
X6773158Y-6197531D01*
X6773158Y-6197531D02*
X6782682Y-6216579D01*
X6782682Y-6216579D02*
X6792205Y-6254674D01*
X6792205Y-6254674D02*
X6792205Y-6302293D01*
X6792205Y-6302293D02*
X6782682Y-6340388D01*
X6782682Y-6340388D02*
X6773158Y-6359436D01*
X6773158Y-6359436D02*
X6763634Y-6368960D01*
X6763634Y-6368960D02*
X6744586Y-6378484D01*
X6744586Y-6378484D02*
X6725539Y-6378484D01*
X6725539Y-6378484D02*
X6706491Y-6368960D01*
X6706491Y-6368960D02*
X6696967Y-6359436D01*
X6696967Y-6359436D02*
X6687443Y-6340388D01*
X6687443Y-6340388D02*
X6677920Y-6302293D01*
X6677920Y-6302293D02*
X6677920Y-6254674D01*
X6677920Y-6254674D02*
X6687443Y-6216579D01*
X6687443Y-6216579D02*
X6696967Y-6197531D01*
X6696967Y-6197531D02*
X6706491Y-6188008D01*
X6706491Y-6188008D02*
X6725539Y-6178484D01*
X6877920Y-6378484D02*
X6877920Y-6245150D01*
X6877920Y-6264198D02*
X6887443Y-6254674D01*
X6887443Y-6254674D02*
X6906491Y-6245150D01*
X6906491Y-6245150D02*
X6935063Y-6245150D01*
X6935063Y-6245150D02*
X6954110Y-6254674D01*
X6954110Y-6254674D02*
X6963634Y-6273722D01*
X6963634Y-6273722D02*
X6963634Y-6378484D01*
X6963634Y-6273722D02*
X6973158Y-6254674D01*
X6973158Y-6254674D02*
X6992205Y-6245150D01*
X6992205Y-6245150D02*
X7020777Y-6245150D01*
X7020777Y-6245150D02*
X7039824Y-6254674D01*
X7039824Y-6254674D02*
X7049348Y-6273722D01*
X7049348Y-6273722D02*
X7049348Y-6378484D01*
X7144586Y-6378484D02*
X7144586Y-6245150D01*
X7144586Y-6264198D02*
X7154110Y-6254674D01*
X7154110Y-6254674D02*
X7173158Y-6245150D01*
X7173158Y-6245150D02*
X7201729Y-6245150D01*
X7201729Y-6245150D02*
X7220777Y-6254674D01*
X7220777Y-6254674D02*
X7230301Y-6273722D01*
X7230301Y-6273722D02*
X7230301Y-6378484D01*
X7230301Y-6273722D02*
X7239824Y-6254674D01*
X7239824Y-6254674D02*
X7258872Y-6245150D01*
X7258872Y-6245150D02*
X7287443Y-6245150D01*
X7287443Y-6245150D02*
X7306491Y-6254674D01*
X7306491Y-6254674D02*
X7316015Y-6273722D01*
X7316015Y-6273722D02*
X7316015Y-6378484D01*
X7706491Y-6168960D02*
X7535063Y-6426103D01*
X7963634Y-6178484D02*
X7982682Y-6178484D01*
X7982682Y-6178484D02*
X8001729Y-6188008D01*
X8001729Y-6188008D02*
X8011253Y-6197531D01*
X8011253Y-6197531D02*
X8020777Y-6216579D01*
X8020777Y-6216579D02*
X8030301Y-6254674D01*
X8030301Y-6254674D02*
X8030301Y-6302293D01*
X8030301Y-6302293D02*
X8020777Y-6340388D01*
X8020777Y-6340388D02*
X8011253Y-6359436D01*
X8011253Y-6359436D02*
X8001729Y-6368960D01*
X8001729Y-6368960D02*
X7982682Y-6378484D01*
X7982682Y-6378484D02*
X7963634Y-6378484D01*
X7963634Y-6378484D02*
X7944586Y-6368960D01*
X7944586Y-6368960D02*
X7935063Y-6359436D01*
X7935063Y-6359436D02*
X7925539Y-6340388D01*
X7925539Y-6340388D02*
X7916015Y-6302293D01*
X7916015Y-6302293D02*
X7916015Y-6254674D01*
X7916015Y-6254674D02*
X7925539Y-6216579D01*
X7925539Y-6216579D02*
X7935063Y-6197531D01*
X7935063Y-6197531D02*
X7944586Y-6188008D01*
X7944586Y-6188008D02*
X7963634Y-6178484D01*
X8116015Y-6359436D02*
X8125539Y-6368960D01*
X8125539Y-6368960D02*
X8116015Y-6378484D01*
X8116015Y-6378484D02*
X8106491Y-6368960D01*
X8106491Y-6368960D02*
X8116015Y-6359436D01*
X8116015Y-6359436D02*
X8116015Y-6378484D01*
X8249348Y-6178484D02*
X8268396Y-6178484D01*
X8268396Y-6178484D02*
X8287444Y-6188008D01*
X8287444Y-6188008D02*
X8296967Y-6197531D01*
X8296967Y-6197531D02*
X8306491Y-6216579D01*
X8306491Y-6216579D02*
X8316015Y-6254674D01*
X8316015Y-6254674D02*
X8316015Y-6302293D01*
X8316015Y-6302293D02*
X8306491Y-6340388D01*
X8306491Y-6340388D02*
X8296967Y-6359436D01*
X8296967Y-6359436D02*
X8287444Y-6368960D01*
X8287444Y-6368960D02*
X8268396Y-6378484D01*
X8268396Y-6378484D02*
X8249348Y-6378484D01*
X8249348Y-6378484D02*
X8230301Y-6368960D01*
X8230301Y-6368960D02*
X8220777Y-6359436D01*
X8220777Y-6359436D02*
X8211253Y-6340388D01*
X8211253Y-6340388D02*
X8201729Y-6302293D01*
X8201729Y-6302293D02*
X8201729Y-6254674D01*
X8201729Y-6254674D02*
X8211253Y-6216579D01*
X8211253Y-6216579D02*
X8220777Y-6197531D01*
X8220777Y-6197531D02*
X8230301Y-6188008D01*
X8230301Y-6188008D02*
X8249348Y-6178484D01*
X8382682Y-6178484D02*
X8506491Y-6178484D01*
X8506491Y-6178484D02*
X8439825Y-6254674D01*
X8439825Y-6254674D02*
X8468396Y-6254674D01*
X8468396Y-6254674D02*
X8487444Y-6264198D01*
X8487444Y-6264198D02*
X8496968Y-6273722D01*
X8496968Y-6273722D02*
X8506491Y-6292769D01*
X8506491Y-6292769D02*
X8506491Y-6340388D01*
X8506491Y-6340388D02*
X8496968Y-6359436D01*
X8496968Y-6359436D02*
X8487444Y-6368960D01*
X8487444Y-6368960D02*
X8468396Y-6378484D01*
X8468396Y-6378484D02*
X8411253Y-6378484D01*
X8411253Y-6378484D02*
X8392206Y-6368960D01*
X8392206Y-6368960D02*
X8382682Y-6359436D01*
X8601729Y-6378484D02*
X8639825Y-6378484D01*
X8639825Y-6378484D02*
X8658872Y-6368960D01*
X8658872Y-6368960D02*
X8668396Y-6359436D01*
X8668396Y-6359436D02*
X8687444Y-6330865D01*
X8687444Y-6330865D02*
X8696968Y-6292769D01*
X8696968Y-6292769D02*
X8696968Y-6216579D01*
X8696968Y-6216579D02*
X8687444Y-6197531D01*
X8687444Y-6197531D02*
X8677920Y-6188008D01*
X8677920Y-6188008D02*
X8658872Y-6178484D01*
X8658872Y-6178484D02*
X8620777Y-6178484D01*
X8620777Y-6178484D02*
X8601729Y-6188008D01*
X8601729Y-6188008D02*
X8592206Y-6197531D01*
X8592206Y-6197531D02*
X8582682Y-6216579D01*
X8582682Y-6216579D02*
X8582682Y-6264198D01*
X8582682Y-6264198D02*
X8592206Y-6283246D01*
X8592206Y-6283246D02*
X8601729Y-6292769D01*
X8601729Y-6292769D02*
X8620777Y-6302293D01*
X8620777Y-6302293D02*
X8658872Y-6302293D01*
X8658872Y-6302293D02*
X8677920Y-6292769D01*
X8677920Y-6292769D02*
X8687444Y-6283246D01*
X8687444Y-6283246D02*
X8696968Y-6264198D01*
X8868396Y-6245150D02*
X8868396Y-6378484D01*
X8820777Y-6168960D02*
X8773158Y-6311817D01*
X8773158Y-6311817D02*
X8896968Y-6311817D01*
X8963634Y-6178484D02*
X8963634Y-6216579D01*
X9039825Y-6178484D02*
X9039825Y-6216579D01*
X9335063Y-6454674D02*
X9325539Y-6445150D01*
X9325539Y-6445150D02*
X9306491Y-6416579D01*
X9306491Y-6416579D02*
X9296968Y-6397531D01*
X9296968Y-6397531D02*
X9287444Y-6368960D01*
X9287444Y-6368960D02*
X9277920Y-6321341D01*
X9277920Y-6321341D02*
X9277920Y-6283246D01*
X9277920Y-6283246D02*
X9287444Y-6235627D01*
X9287444Y-6235627D02*
X9296968Y-6207055D01*
X9296968Y-6207055D02*
X9306491Y-6188008D01*
X9306491Y-6188008D02*
X9325539Y-6159436D01*
X9325539Y-6159436D02*
X9335063Y-6149912D01*
X9401730Y-6197531D02*
X9411253Y-6188008D01*
X9411253Y-6188008D02*
X9430301Y-6178484D01*
X9430301Y-6178484D02*
X9477920Y-6178484D01*
X9477920Y-6178484D02*
X9496968Y-6188008D01*
X9496968Y-6188008D02*
X9506491Y-6197531D01*
X9506491Y-6197531D02*
X9516015Y-6216579D01*
X9516015Y-6216579D02*
X9516015Y-6235627D01*
X9516015Y-6235627D02*
X9506491Y-6264198D01*
X9506491Y-6264198D02*
X9392206Y-6378484D01*
X9392206Y-6378484D02*
X9516015Y-6378484D01*
X9754111Y-6378484D02*
X9754111Y-6178484D01*
X9839825Y-6378484D02*
X9839825Y-6273722D01*
X9839825Y-6273722D02*
X9830301Y-6254674D01*
X9830301Y-6254674D02*
X9811253Y-6245150D01*
X9811253Y-6245150D02*
X9782682Y-6245150D01*
X9782682Y-6245150D02*
X9763634Y-6254674D01*
X9763634Y-6254674D02*
X9754111Y-6264198D01*
X9963634Y-6378484D02*
X9944587Y-6368960D01*
X9944587Y-6368960D02*
X9935063Y-6359436D01*
X9935063Y-6359436D02*
X9925539Y-6340388D01*
X9925539Y-6340388D02*
X9925539Y-6283246D01*
X9925539Y-6283246D02*
X9935063Y-6264198D01*
X9935063Y-6264198D02*
X9944587Y-6254674D01*
X9944587Y-6254674D02*
X9963634Y-6245150D01*
X9963634Y-6245150D02*
X9992206Y-6245150D01*
X9992206Y-6245150D02*
X10011253Y-6254674D01*
X10011253Y-6254674D02*
X10020777Y-6264198D01*
X10020777Y-6264198D02*
X10030301Y-6283246D01*
X10030301Y-6283246D02*
X10030301Y-6340388D01*
X10030301Y-6340388D02*
X10020777Y-6359436D01*
X10020777Y-6359436D02*
X10011253Y-6368960D01*
X10011253Y-6368960D02*
X9992206Y-6378484D01*
X9992206Y-6378484D02*
X9963634Y-6378484D01*
X10144587Y-6378484D02*
X10125539Y-6368960D01*
X10125539Y-6368960D02*
X10116015Y-6349912D01*
X10116015Y-6349912D02*
X10116015Y-6178484D01*
X10296968Y-6368960D02*
X10277920Y-6378484D01*
X10277920Y-6378484D02*
X10239825Y-6378484D01*
X10239825Y-6378484D02*
X10220777Y-6368960D01*
X10220777Y-6368960D02*
X10211253Y-6349912D01*
X10211253Y-6349912D02*
X10211253Y-6273722D01*
X10211253Y-6273722D02*
X10220777Y-6254674D01*
X10220777Y-6254674D02*
X10239825Y-6245150D01*
X10239825Y-6245150D02*
X10277920Y-6245150D01*
X10277920Y-6245150D02*
X10296968Y-6254674D01*
X10296968Y-6254674D02*
X10306492Y-6273722D01*
X10306492Y-6273722D02*
X10306492Y-6292769D01*
X10306492Y-6292769D02*
X10211253Y-6311817D01*
X10382682Y-6368960D02*
X10401730Y-6378484D01*
X10401730Y-6378484D02*
X10439825Y-6378484D01*
X10439825Y-6378484D02*
X10458873Y-6368960D01*
X10458873Y-6368960D02*
X10468396Y-6349912D01*
X10468396Y-6349912D02*
X10468396Y-6340388D01*
X10468396Y-6340388D02*
X10458873Y-6321341D01*
X10458873Y-6321341D02*
X10439825Y-6311817D01*
X10439825Y-6311817D02*
X10411253Y-6311817D01*
X10411253Y-6311817D02*
X10392206Y-6302293D01*
X10392206Y-6302293D02*
X10382682Y-6283246D01*
X10382682Y-6283246D02*
X10382682Y-6273722D01*
X10382682Y-6273722D02*
X10392206Y-6254674D01*
X10392206Y-6254674D02*
X10411253Y-6245150D01*
X10411253Y-6245150D02*
X10439825Y-6245150D01*
X10439825Y-6245150D02*
X10458873Y-6254674D01*
X10535063Y-6454674D02*
X10544587Y-6445150D01*
X10544587Y-6445150D02*
X10563634Y-6416579D01*
X10563634Y-6416579D02*
X10573158Y-6397531D01*
X10573158Y-6397531D02*
X10582682Y-6368960D01*
X10582682Y-6368960D02*
X10592206Y-6321341D01*
X10592206Y-6321341D02*
X10592206Y-6283246D01*
X10592206Y-6283246D02*
X10582682Y-6235627D01*
X10582682Y-6235627D02*
X10573158Y-6207055D01*
X10573158Y-6207055D02*
X10563634Y-6188008D01*
X10563634Y-6188008D02*
X10544587Y-6159436D01*
X10544587Y-6159436D02*
X10535063Y-6149912D01*
D12*
X5695000Y-6616000D02*
X5760000Y-6551000D01*
X5695000Y-6486000D01*
X5630000Y-6551000D01*
X5695000Y-6616000D01*
D11*
X6125539Y-6642484D02*
X6011253Y-6642484D01*
X6068396Y-6642484D02*
X6068396Y-6442484D01*
X6068396Y-6442484D02*
X6049348Y-6471055D01*
X6049348Y-6471055D02*
X6030301Y-6490103D01*
X6030301Y-6490103D02*
X6011253Y-6499627D01*
X6211253Y-6623436D02*
X6220777Y-6632960D01*
X6220777Y-6632960D02*
X6211253Y-6642484D01*
X6211253Y-6642484D02*
X6201729Y-6632960D01*
X6201729Y-6632960D02*
X6211253Y-6623436D01*
X6211253Y-6623436D02*
X6211253Y-6642484D01*
X6287443Y-6442484D02*
X6411253Y-6442484D01*
X6411253Y-6442484D02*
X6344586Y-6518674D01*
X6344586Y-6518674D02*
X6373158Y-6518674D01*
X6373158Y-6518674D02*
X6392205Y-6528198D01*
X6392205Y-6528198D02*
X6401729Y-6537722D01*
X6401729Y-6537722D02*
X6411253Y-6556769D01*
X6411253Y-6556769D02*
X6411253Y-6604388D01*
X6411253Y-6604388D02*
X6401729Y-6623436D01*
X6401729Y-6623436D02*
X6392205Y-6632960D01*
X6392205Y-6632960D02*
X6373158Y-6642484D01*
X6373158Y-6642484D02*
X6316015Y-6642484D01*
X6316015Y-6642484D02*
X6296967Y-6632960D01*
X6296967Y-6632960D02*
X6287443Y-6623436D01*
X6535062Y-6442484D02*
X6554110Y-6442484D01*
X6554110Y-6442484D02*
X6573158Y-6452008D01*
X6573158Y-6452008D02*
X6582682Y-6461531D01*
X6582682Y-6461531D02*
X6592205Y-6480579D01*
X6592205Y-6480579D02*
X6601729Y-6518674D01*
X6601729Y-6518674D02*
X6601729Y-6566293D01*
X6601729Y-6566293D02*
X6592205Y-6604388D01*
X6592205Y-6604388D02*
X6582682Y-6623436D01*
X6582682Y-6623436D02*
X6573158Y-6632960D01*
X6573158Y-6632960D02*
X6554110Y-6642484D01*
X6554110Y-6642484D02*
X6535062Y-6642484D01*
X6535062Y-6642484D02*
X6516015Y-6632960D01*
X6516015Y-6632960D02*
X6506491Y-6623436D01*
X6506491Y-6623436D02*
X6496967Y-6604388D01*
X6496967Y-6604388D02*
X6487443Y-6566293D01*
X6487443Y-6566293D02*
X6487443Y-6518674D01*
X6487443Y-6518674D02*
X6496967Y-6480579D01*
X6496967Y-6480579D02*
X6506491Y-6461531D01*
X6506491Y-6461531D02*
X6516015Y-6452008D01*
X6516015Y-6452008D02*
X6535062Y-6442484D01*
X6725539Y-6442484D02*
X6744586Y-6442484D01*
X6744586Y-6442484D02*
X6763634Y-6452008D01*
X6763634Y-6452008D02*
X6773158Y-6461531D01*
X6773158Y-6461531D02*
X6782682Y-6480579D01*
X6782682Y-6480579D02*
X6792205Y-6518674D01*
X6792205Y-6518674D02*
X6792205Y-6566293D01*
X6792205Y-6566293D02*
X6782682Y-6604388D01*
X6782682Y-6604388D02*
X6773158Y-6623436D01*
X6773158Y-6623436D02*
X6763634Y-6632960D01*
X6763634Y-6632960D02*
X6744586Y-6642484D01*
X6744586Y-6642484D02*
X6725539Y-6642484D01*
X6725539Y-6642484D02*
X6706491Y-6632960D01*
X6706491Y-6632960D02*
X6696967Y-6623436D01*
X6696967Y-6623436D02*
X6687443Y-6604388D01*
X6687443Y-6604388D02*
X6677920Y-6566293D01*
X6677920Y-6566293D02*
X6677920Y-6518674D01*
X6677920Y-6518674D02*
X6687443Y-6480579D01*
X6687443Y-6480579D02*
X6696967Y-6461531D01*
X6696967Y-6461531D02*
X6706491Y-6452008D01*
X6706491Y-6452008D02*
X6725539Y-6442484D01*
X6877920Y-6642484D02*
X6877920Y-6509150D01*
X6877920Y-6528198D02*
X6887443Y-6518674D01*
X6887443Y-6518674D02*
X6906491Y-6509150D01*
X6906491Y-6509150D02*
X6935063Y-6509150D01*
X6935063Y-6509150D02*
X6954110Y-6518674D01*
X6954110Y-6518674D02*
X6963634Y-6537722D01*
X6963634Y-6537722D02*
X6963634Y-6642484D01*
X6963634Y-6537722D02*
X6973158Y-6518674D01*
X6973158Y-6518674D02*
X6992205Y-6509150D01*
X6992205Y-6509150D02*
X7020777Y-6509150D01*
X7020777Y-6509150D02*
X7039824Y-6518674D01*
X7039824Y-6518674D02*
X7049348Y-6537722D01*
X7049348Y-6537722D02*
X7049348Y-6642484D01*
X7144586Y-6642484D02*
X7144586Y-6509150D01*
X7144586Y-6528198D02*
X7154110Y-6518674D01*
X7154110Y-6518674D02*
X7173158Y-6509150D01*
X7173158Y-6509150D02*
X7201729Y-6509150D01*
X7201729Y-6509150D02*
X7220777Y-6518674D01*
X7220777Y-6518674D02*
X7230301Y-6537722D01*
X7230301Y-6537722D02*
X7230301Y-6642484D01*
X7230301Y-6537722D02*
X7239824Y-6518674D01*
X7239824Y-6518674D02*
X7258872Y-6509150D01*
X7258872Y-6509150D02*
X7287443Y-6509150D01*
X7287443Y-6509150D02*
X7306491Y-6518674D01*
X7306491Y-6518674D02*
X7316015Y-6537722D01*
X7316015Y-6537722D02*
X7316015Y-6642484D01*
X7706491Y-6432960D02*
X7535063Y-6690103D01*
X7963634Y-6442484D02*
X7982682Y-6442484D01*
X7982682Y-6442484D02*
X8001729Y-6452008D01*
X8001729Y-6452008D02*
X8011253Y-6461531D01*
X8011253Y-6461531D02*
X8020777Y-6480579D01*
X8020777Y-6480579D02*
X8030301Y-6518674D01*
X8030301Y-6518674D02*
X8030301Y-6566293D01*
X8030301Y-6566293D02*
X8020777Y-6604388D01*
X8020777Y-6604388D02*
X8011253Y-6623436D01*
X8011253Y-6623436D02*
X8001729Y-6632960D01*
X8001729Y-6632960D02*
X7982682Y-6642484D01*
X7982682Y-6642484D02*
X7963634Y-6642484D01*
X7963634Y-6642484D02*
X7944586Y-6632960D01*
X7944586Y-6632960D02*
X7935063Y-6623436D01*
X7935063Y-6623436D02*
X7925539Y-6604388D01*
X7925539Y-6604388D02*
X7916015Y-6566293D01*
X7916015Y-6566293D02*
X7916015Y-6518674D01*
X7916015Y-6518674D02*
X7925539Y-6480579D01*
X7925539Y-6480579D02*
X7935063Y-6461531D01*
X7935063Y-6461531D02*
X7944586Y-6452008D01*
X7944586Y-6452008D02*
X7963634Y-6442484D01*
X8116015Y-6623436D02*
X8125539Y-6632960D01*
X8125539Y-6632960D02*
X8116015Y-6642484D01*
X8116015Y-6642484D02*
X8106491Y-6632960D01*
X8106491Y-6632960D02*
X8116015Y-6623436D01*
X8116015Y-6623436D02*
X8116015Y-6642484D01*
X8249348Y-6442484D02*
X8268396Y-6442484D01*
X8268396Y-6442484D02*
X8287444Y-6452008D01*
X8287444Y-6452008D02*
X8296967Y-6461531D01*
X8296967Y-6461531D02*
X8306491Y-6480579D01*
X8306491Y-6480579D02*
X8316015Y-6518674D01*
X8316015Y-6518674D02*
X8316015Y-6566293D01*
X8316015Y-6566293D02*
X8306491Y-6604388D01*
X8306491Y-6604388D02*
X8296967Y-6623436D01*
X8296967Y-6623436D02*
X8287444Y-6632960D01*
X8287444Y-6632960D02*
X8268396Y-6642484D01*
X8268396Y-6642484D02*
X8249348Y-6642484D01*
X8249348Y-6642484D02*
X8230301Y-6632960D01*
X8230301Y-6632960D02*
X8220777Y-6623436D01*
X8220777Y-6623436D02*
X8211253Y-6604388D01*
X8211253Y-6604388D02*
X8201729Y-6566293D01*
X8201729Y-6566293D02*
X8201729Y-6518674D01*
X8201729Y-6518674D02*
X8211253Y-6480579D01*
X8211253Y-6480579D02*
X8220777Y-6461531D01*
X8220777Y-6461531D02*
X8230301Y-6452008D01*
X8230301Y-6452008D02*
X8249348Y-6442484D01*
X8496968Y-6442484D02*
X8401729Y-6442484D01*
X8401729Y-6442484D02*
X8392206Y-6537722D01*
X8392206Y-6537722D02*
X8401729Y-6528198D01*
X8401729Y-6528198D02*
X8420777Y-6518674D01*
X8420777Y-6518674D02*
X8468396Y-6518674D01*
X8468396Y-6518674D02*
X8487444Y-6528198D01*
X8487444Y-6528198D02*
X8496968Y-6537722D01*
X8496968Y-6537722D02*
X8506491Y-6556769D01*
X8506491Y-6556769D02*
X8506491Y-6604388D01*
X8506491Y-6604388D02*
X8496968Y-6623436D01*
X8496968Y-6623436D02*
X8487444Y-6632960D01*
X8487444Y-6632960D02*
X8468396Y-6642484D01*
X8468396Y-6642484D02*
X8420777Y-6642484D01*
X8420777Y-6642484D02*
X8401729Y-6632960D01*
X8401729Y-6632960D02*
X8392206Y-6623436D01*
X8696968Y-6642484D02*
X8582682Y-6642484D01*
X8639825Y-6642484D02*
X8639825Y-6442484D01*
X8639825Y-6442484D02*
X8620777Y-6471055D01*
X8620777Y-6471055D02*
X8601729Y-6490103D01*
X8601729Y-6490103D02*
X8582682Y-6499627D01*
X8773158Y-6461531D02*
X8782682Y-6452008D01*
X8782682Y-6452008D02*
X8801729Y-6442484D01*
X8801729Y-6442484D02*
X8849349Y-6442484D01*
X8849349Y-6442484D02*
X8868396Y-6452008D01*
X8868396Y-6452008D02*
X8877920Y-6461531D01*
X8877920Y-6461531D02*
X8887444Y-6480579D01*
X8887444Y-6480579D02*
X8887444Y-6499627D01*
X8887444Y-6499627D02*
X8877920Y-6528198D01*
X8877920Y-6528198D02*
X8763634Y-6642484D01*
X8763634Y-6642484D02*
X8887444Y-6642484D01*
X8963634Y-6442484D02*
X8963634Y-6480579D01*
X9039825Y-6442484D02*
X9039825Y-6480579D01*
X9335063Y-6718674D02*
X9325539Y-6709150D01*
X9325539Y-6709150D02*
X9306491Y-6680579D01*
X9306491Y-6680579D02*
X9296968Y-6661531D01*
X9296968Y-6661531D02*
X9287444Y-6632960D01*
X9287444Y-6632960D02*
X9277920Y-6585341D01*
X9277920Y-6585341D02*
X9277920Y-6547246D01*
X9277920Y-6547246D02*
X9287444Y-6499627D01*
X9287444Y-6499627D02*
X9296968Y-6471055D01*
X9296968Y-6471055D02*
X9306491Y-6452008D01*
X9306491Y-6452008D02*
X9325539Y-6423436D01*
X9325539Y-6423436D02*
X9335063Y-6413912D01*
X9401730Y-6461531D02*
X9411253Y-6452008D01*
X9411253Y-6452008D02*
X9430301Y-6442484D01*
X9430301Y-6442484D02*
X9477920Y-6442484D01*
X9477920Y-6442484D02*
X9496968Y-6452008D01*
X9496968Y-6452008D02*
X9506491Y-6461531D01*
X9506491Y-6461531D02*
X9516015Y-6480579D01*
X9516015Y-6480579D02*
X9516015Y-6499627D01*
X9516015Y-6499627D02*
X9506491Y-6528198D01*
X9506491Y-6528198D02*
X9392206Y-6642484D01*
X9392206Y-6642484D02*
X9516015Y-6642484D01*
X9754111Y-6642484D02*
X9754111Y-6442484D01*
X9839825Y-6642484D02*
X9839825Y-6537722D01*
X9839825Y-6537722D02*
X9830301Y-6518674D01*
X9830301Y-6518674D02*
X9811253Y-6509150D01*
X9811253Y-6509150D02*
X9782682Y-6509150D01*
X9782682Y-6509150D02*
X9763634Y-6518674D01*
X9763634Y-6518674D02*
X9754111Y-6528198D01*
X9963634Y-6642484D02*
X9944587Y-6632960D01*
X9944587Y-6632960D02*
X9935063Y-6623436D01*
X9935063Y-6623436D02*
X9925539Y-6604388D01*
X9925539Y-6604388D02*
X9925539Y-6547246D01*
X9925539Y-6547246D02*
X9935063Y-6528198D01*
X9935063Y-6528198D02*
X9944587Y-6518674D01*
X9944587Y-6518674D02*
X9963634Y-6509150D01*
X9963634Y-6509150D02*
X9992206Y-6509150D01*
X9992206Y-6509150D02*
X10011253Y-6518674D01*
X10011253Y-6518674D02*
X10020777Y-6528198D01*
X10020777Y-6528198D02*
X10030301Y-6547246D01*
X10030301Y-6547246D02*
X10030301Y-6604388D01*
X10030301Y-6604388D02*
X10020777Y-6623436D01*
X10020777Y-6623436D02*
X10011253Y-6632960D01*
X10011253Y-6632960D02*
X9992206Y-6642484D01*
X9992206Y-6642484D02*
X9963634Y-6642484D01*
X10144587Y-6642484D02*
X10125539Y-6632960D01*
X10125539Y-6632960D02*
X10116015Y-6613912D01*
X10116015Y-6613912D02*
X10116015Y-6442484D01*
X10296968Y-6632960D02*
X10277920Y-6642484D01*
X10277920Y-6642484D02*
X10239825Y-6642484D01*
X10239825Y-6642484D02*
X10220777Y-6632960D01*
X10220777Y-6632960D02*
X10211253Y-6613912D01*
X10211253Y-6613912D02*
X10211253Y-6537722D01*
X10211253Y-6537722D02*
X10220777Y-6518674D01*
X10220777Y-6518674D02*
X10239825Y-6509150D01*
X10239825Y-6509150D02*
X10277920Y-6509150D01*
X10277920Y-6509150D02*
X10296968Y-6518674D01*
X10296968Y-6518674D02*
X10306492Y-6537722D01*
X10306492Y-6537722D02*
X10306492Y-6556769D01*
X10306492Y-6556769D02*
X10211253Y-6575817D01*
X10382682Y-6632960D02*
X10401730Y-6642484D01*
X10401730Y-6642484D02*
X10439825Y-6642484D01*
X10439825Y-6642484D02*
X10458873Y-6632960D01*
X10458873Y-6632960D02*
X10468396Y-6613912D01*
X10468396Y-6613912D02*
X10468396Y-6604388D01*
X10468396Y-6604388D02*
X10458873Y-6585341D01*
X10458873Y-6585341D02*
X10439825Y-6575817D01*
X10439825Y-6575817D02*
X10411253Y-6575817D01*
X10411253Y-6575817D02*
X10392206Y-6566293D01*
X10392206Y-6566293D02*
X10382682Y-6547246D01*
X10382682Y-6547246D02*
X10382682Y-6537722D01*
X10382682Y-6537722D02*
X10392206Y-6518674D01*
X10392206Y-6518674D02*
X10411253Y-6509150D01*
X10411253Y-6509150D02*
X10439825Y-6509150D01*
X10439825Y-6509150D02*
X10458873Y-6518674D01*
X10535063Y-6718674D02*
X10544587Y-6709150D01*
X10544587Y-6709150D02*
X10563634Y-6680579D01*
X10563634Y-6680579D02*
X10573158Y-6661531D01*
X10573158Y-6661531D02*
X10582682Y-6632960D01*
X10582682Y-6632960D02*
X10592206Y-6585341D01*
X10592206Y-6585341D02*
X10592206Y-6547246D01*
X10592206Y-6547246D02*
X10582682Y-6499627D01*
X10582682Y-6499627D02*
X10573158Y-6471055D01*
X10573158Y-6471055D02*
X10563634Y-6452008D01*
X10563634Y-6452008D02*
X10544587Y-6423436D01*
X10544587Y-6423436D02*
X10535063Y-6413912D01*
X5560000Y-6715000D02*
X5760000Y-6915000D01*
X5760000Y-6715000D02*
X5560000Y-6915000D01*
X5760000Y-6815000D02*
G75*
G03*
X5760000Y-6815000I-100000J0D01*
G01*
X6011253Y-6725531D02*
X6020777Y-6716008D01*
X6020777Y-6716008D02*
X6039824Y-6706484D01*
X6039824Y-6706484D02*
X6087443Y-6706484D01*
X6087443Y-6706484D02*
X6106491Y-6716008D01*
X6106491Y-6716008D02*
X6116015Y-6725531D01*
X6116015Y-6725531D02*
X6125539Y-6744579D01*
X6125539Y-6744579D02*
X6125539Y-6763627D01*
X6125539Y-6763627D02*
X6116015Y-6792198D01*
X6116015Y-6792198D02*
X6001729Y-6906484D01*
X6001729Y-6906484D02*
X6125539Y-6906484D01*
X6211253Y-6887436D02*
X6220777Y-6896960D01*
X6220777Y-6896960D02*
X6211253Y-6906484D01*
X6211253Y-6906484D02*
X6201729Y-6896960D01*
X6201729Y-6896960D02*
X6211253Y-6887436D01*
X6211253Y-6887436D02*
X6211253Y-6906484D01*
X6296967Y-6725531D02*
X6306491Y-6716008D01*
X6306491Y-6716008D02*
X6325539Y-6706484D01*
X6325539Y-6706484D02*
X6373158Y-6706484D01*
X6373158Y-6706484D02*
X6392205Y-6716008D01*
X6392205Y-6716008D02*
X6401729Y-6725531D01*
X6401729Y-6725531D02*
X6411253Y-6744579D01*
X6411253Y-6744579D02*
X6411253Y-6763627D01*
X6411253Y-6763627D02*
X6401729Y-6792198D01*
X6401729Y-6792198D02*
X6287443Y-6906484D01*
X6287443Y-6906484D02*
X6411253Y-6906484D01*
X6535062Y-6706484D02*
X6554110Y-6706484D01*
X6554110Y-6706484D02*
X6573158Y-6716008D01*
X6573158Y-6716008D02*
X6582682Y-6725531D01*
X6582682Y-6725531D02*
X6592205Y-6744579D01*
X6592205Y-6744579D02*
X6601729Y-6782674D01*
X6601729Y-6782674D02*
X6601729Y-6830293D01*
X6601729Y-6830293D02*
X6592205Y-6868388D01*
X6592205Y-6868388D02*
X6582682Y-6887436D01*
X6582682Y-6887436D02*
X6573158Y-6896960D01*
X6573158Y-6896960D02*
X6554110Y-6906484D01*
X6554110Y-6906484D02*
X6535062Y-6906484D01*
X6535062Y-6906484D02*
X6516015Y-6896960D01*
X6516015Y-6896960D02*
X6506491Y-6887436D01*
X6506491Y-6887436D02*
X6496967Y-6868388D01*
X6496967Y-6868388D02*
X6487443Y-6830293D01*
X6487443Y-6830293D02*
X6487443Y-6782674D01*
X6487443Y-6782674D02*
X6496967Y-6744579D01*
X6496967Y-6744579D02*
X6506491Y-6725531D01*
X6506491Y-6725531D02*
X6516015Y-6716008D01*
X6516015Y-6716008D02*
X6535062Y-6706484D01*
X6725539Y-6706484D02*
X6744586Y-6706484D01*
X6744586Y-6706484D02*
X6763634Y-6716008D01*
X6763634Y-6716008D02*
X6773158Y-6725531D01*
X6773158Y-6725531D02*
X6782682Y-6744579D01*
X6782682Y-6744579D02*
X6792205Y-6782674D01*
X6792205Y-6782674D02*
X6792205Y-6830293D01*
X6792205Y-6830293D02*
X6782682Y-6868388D01*
X6782682Y-6868388D02*
X6773158Y-6887436D01*
X6773158Y-6887436D02*
X6763634Y-6896960D01*
X6763634Y-6896960D02*
X6744586Y-6906484D01*
X6744586Y-6906484D02*
X6725539Y-6906484D01*
X6725539Y-6906484D02*
X6706491Y-6896960D01*
X6706491Y-6896960D02*
X6696967Y-6887436D01*
X6696967Y-6887436D02*
X6687443Y-6868388D01*
X6687443Y-6868388D02*
X6677920Y-6830293D01*
X6677920Y-6830293D02*
X6677920Y-6782674D01*
X6677920Y-6782674D02*
X6687443Y-6744579D01*
X6687443Y-6744579D02*
X6696967Y-6725531D01*
X6696967Y-6725531D02*
X6706491Y-6716008D01*
X6706491Y-6716008D02*
X6725539Y-6706484D01*
X6877920Y-6906484D02*
X6877920Y-6773150D01*
X6877920Y-6792198D02*
X6887443Y-6782674D01*
X6887443Y-6782674D02*
X6906491Y-6773150D01*
X6906491Y-6773150D02*
X6935063Y-6773150D01*
X6935063Y-6773150D02*
X6954110Y-6782674D01*
X6954110Y-6782674D02*
X6963634Y-6801722D01*
X6963634Y-6801722D02*
X6963634Y-6906484D01*
X6963634Y-6801722D02*
X6973158Y-6782674D01*
X6973158Y-6782674D02*
X6992205Y-6773150D01*
X6992205Y-6773150D02*
X7020777Y-6773150D01*
X7020777Y-6773150D02*
X7039824Y-6782674D01*
X7039824Y-6782674D02*
X7049348Y-6801722D01*
X7049348Y-6801722D02*
X7049348Y-6906484D01*
X7144586Y-6906484D02*
X7144586Y-6773150D01*
X7144586Y-6792198D02*
X7154110Y-6782674D01*
X7154110Y-6782674D02*
X7173158Y-6773150D01*
X7173158Y-6773150D02*
X7201729Y-6773150D01*
X7201729Y-6773150D02*
X7220777Y-6782674D01*
X7220777Y-6782674D02*
X7230301Y-6801722D01*
X7230301Y-6801722D02*
X7230301Y-6906484D01*
X7230301Y-6801722D02*
X7239824Y-6782674D01*
X7239824Y-6782674D02*
X7258872Y-6773150D01*
X7258872Y-6773150D02*
X7287443Y-6773150D01*
X7287443Y-6773150D02*
X7306491Y-6782674D01*
X7306491Y-6782674D02*
X7316015Y-6801722D01*
X7316015Y-6801722D02*
X7316015Y-6906484D01*
X7706491Y-6696960D02*
X7535063Y-6954103D01*
X7963634Y-6706484D02*
X7982682Y-6706484D01*
X7982682Y-6706484D02*
X8001729Y-6716008D01*
X8001729Y-6716008D02*
X8011253Y-6725531D01*
X8011253Y-6725531D02*
X8020777Y-6744579D01*
X8020777Y-6744579D02*
X8030301Y-6782674D01*
X8030301Y-6782674D02*
X8030301Y-6830293D01*
X8030301Y-6830293D02*
X8020777Y-6868388D01*
X8020777Y-6868388D02*
X8011253Y-6887436D01*
X8011253Y-6887436D02*
X8001729Y-6896960D01*
X8001729Y-6896960D02*
X7982682Y-6906484D01*
X7982682Y-6906484D02*
X7963634Y-6906484D01*
X7963634Y-6906484D02*
X7944586Y-6896960D01*
X7944586Y-6896960D02*
X7935063Y-6887436D01*
X7935063Y-6887436D02*
X7925539Y-6868388D01*
X7925539Y-6868388D02*
X7916015Y-6830293D01*
X7916015Y-6830293D02*
X7916015Y-6782674D01*
X7916015Y-6782674D02*
X7925539Y-6744579D01*
X7925539Y-6744579D02*
X7935063Y-6725531D01*
X7935063Y-6725531D02*
X7944586Y-6716008D01*
X7944586Y-6716008D02*
X7963634Y-6706484D01*
X8116015Y-6887436D02*
X8125539Y-6896960D01*
X8125539Y-6896960D02*
X8116015Y-6906484D01*
X8116015Y-6906484D02*
X8106491Y-6896960D01*
X8106491Y-6896960D02*
X8116015Y-6887436D01*
X8116015Y-6887436D02*
X8116015Y-6906484D01*
X8249348Y-6706484D02*
X8268396Y-6706484D01*
X8268396Y-6706484D02*
X8287444Y-6716008D01*
X8287444Y-6716008D02*
X8296967Y-6725531D01*
X8296967Y-6725531D02*
X8306491Y-6744579D01*
X8306491Y-6744579D02*
X8316015Y-6782674D01*
X8316015Y-6782674D02*
X8316015Y-6830293D01*
X8316015Y-6830293D02*
X8306491Y-6868388D01*
X8306491Y-6868388D02*
X8296967Y-6887436D01*
X8296967Y-6887436D02*
X8287444Y-6896960D01*
X8287444Y-6896960D02*
X8268396Y-6906484D01*
X8268396Y-6906484D02*
X8249348Y-6906484D01*
X8249348Y-6906484D02*
X8230301Y-6896960D01*
X8230301Y-6896960D02*
X8220777Y-6887436D01*
X8220777Y-6887436D02*
X8211253Y-6868388D01*
X8211253Y-6868388D02*
X8201729Y-6830293D01*
X8201729Y-6830293D02*
X8201729Y-6782674D01*
X8201729Y-6782674D02*
X8211253Y-6744579D01*
X8211253Y-6744579D02*
X8220777Y-6725531D01*
X8220777Y-6725531D02*
X8230301Y-6716008D01*
X8230301Y-6716008D02*
X8249348Y-6706484D01*
X8430301Y-6792198D02*
X8411253Y-6782674D01*
X8411253Y-6782674D02*
X8401729Y-6773150D01*
X8401729Y-6773150D02*
X8392206Y-6754103D01*
X8392206Y-6754103D02*
X8392206Y-6744579D01*
X8392206Y-6744579D02*
X8401729Y-6725531D01*
X8401729Y-6725531D02*
X8411253Y-6716008D01*
X8411253Y-6716008D02*
X8430301Y-6706484D01*
X8430301Y-6706484D02*
X8468396Y-6706484D01*
X8468396Y-6706484D02*
X8487444Y-6716008D01*
X8487444Y-6716008D02*
X8496968Y-6725531D01*
X8496968Y-6725531D02*
X8506491Y-6744579D01*
X8506491Y-6744579D02*
X8506491Y-6754103D01*
X8506491Y-6754103D02*
X8496968Y-6773150D01*
X8496968Y-6773150D02*
X8487444Y-6782674D01*
X8487444Y-6782674D02*
X8468396Y-6792198D01*
X8468396Y-6792198D02*
X8430301Y-6792198D01*
X8430301Y-6792198D02*
X8411253Y-6801722D01*
X8411253Y-6801722D02*
X8401729Y-6811246D01*
X8401729Y-6811246D02*
X8392206Y-6830293D01*
X8392206Y-6830293D02*
X8392206Y-6868388D01*
X8392206Y-6868388D02*
X8401729Y-6887436D01*
X8401729Y-6887436D02*
X8411253Y-6896960D01*
X8411253Y-6896960D02*
X8430301Y-6906484D01*
X8430301Y-6906484D02*
X8468396Y-6906484D01*
X8468396Y-6906484D02*
X8487444Y-6896960D01*
X8487444Y-6896960D02*
X8496968Y-6887436D01*
X8496968Y-6887436D02*
X8506491Y-6868388D01*
X8506491Y-6868388D02*
X8506491Y-6830293D01*
X8506491Y-6830293D02*
X8496968Y-6811246D01*
X8496968Y-6811246D02*
X8487444Y-6801722D01*
X8487444Y-6801722D02*
X8468396Y-6792198D01*
X8677920Y-6706484D02*
X8639825Y-6706484D01*
X8639825Y-6706484D02*
X8620777Y-6716008D01*
X8620777Y-6716008D02*
X8611253Y-6725531D01*
X8611253Y-6725531D02*
X8592206Y-6754103D01*
X8592206Y-6754103D02*
X8582682Y-6792198D01*
X8582682Y-6792198D02*
X8582682Y-6868388D01*
X8582682Y-6868388D02*
X8592206Y-6887436D01*
X8592206Y-6887436D02*
X8601729Y-6896960D01*
X8601729Y-6896960D02*
X8620777Y-6906484D01*
X8620777Y-6906484D02*
X8658872Y-6906484D01*
X8658872Y-6906484D02*
X8677920Y-6896960D01*
X8677920Y-6896960D02*
X8687444Y-6887436D01*
X8687444Y-6887436D02*
X8696968Y-6868388D01*
X8696968Y-6868388D02*
X8696968Y-6820769D01*
X8696968Y-6820769D02*
X8687444Y-6801722D01*
X8687444Y-6801722D02*
X8677920Y-6792198D01*
X8677920Y-6792198D02*
X8658872Y-6782674D01*
X8658872Y-6782674D02*
X8620777Y-6782674D01*
X8620777Y-6782674D02*
X8601729Y-6792198D01*
X8601729Y-6792198D02*
X8592206Y-6801722D01*
X8592206Y-6801722D02*
X8582682Y-6820769D01*
X8868396Y-6706484D02*
X8830301Y-6706484D01*
X8830301Y-6706484D02*
X8811253Y-6716008D01*
X8811253Y-6716008D02*
X8801729Y-6725531D01*
X8801729Y-6725531D02*
X8782682Y-6754103D01*
X8782682Y-6754103D02*
X8773158Y-6792198D01*
X8773158Y-6792198D02*
X8773158Y-6868388D01*
X8773158Y-6868388D02*
X8782682Y-6887436D01*
X8782682Y-6887436D02*
X8792206Y-6896960D01*
X8792206Y-6896960D02*
X8811253Y-6906484D01*
X8811253Y-6906484D02*
X8849349Y-6906484D01*
X8849349Y-6906484D02*
X8868396Y-6896960D01*
X8868396Y-6896960D02*
X8877920Y-6887436D01*
X8877920Y-6887436D02*
X8887444Y-6868388D01*
X8887444Y-6868388D02*
X8887444Y-6820769D01*
X8887444Y-6820769D02*
X8877920Y-6801722D01*
X8877920Y-6801722D02*
X8868396Y-6792198D01*
X8868396Y-6792198D02*
X8849349Y-6782674D01*
X8849349Y-6782674D02*
X8811253Y-6782674D01*
X8811253Y-6782674D02*
X8792206Y-6792198D01*
X8792206Y-6792198D02*
X8782682Y-6801722D01*
X8782682Y-6801722D02*
X8773158Y-6820769D01*
X8963634Y-6706484D02*
X8963634Y-6744579D01*
X9039825Y-6706484D02*
X9039825Y-6744579D01*
X9335063Y-6982674D02*
X9325539Y-6973150D01*
X9325539Y-6973150D02*
X9306491Y-6944579D01*
X9306491Y-6944579D02*
X9296968Y-6925531D01*
X9296968Y-6925531D02*
X9287444Y-6896960D01*
X9287444Y-6896960D02*
X9277920Y-6849341D01*
X9277920Y-6849341D02*
X9277920Y-6811246D01*
X9277920Y-6811246D02*
X9287444Y-6763627D01*
X9287444Y-6763627D02*
X9296968Y-6735055D01*
X9296968Y-6735055D02*
X9306491Y-6716008D01*
X9306491Y-6716008D02*
X9325539Y-6687436D01*
X9325539Y-6687436D02*
X9335063Y-6677912D01*
X9401730Y-6725531D02*
X9411253Y-6716008D01*
X9411253Y-6716008D02*
X9430301Y-6706484D01*
X9430301Y-6706484D02*
X9477920Y-6706484D01*
X9477920Y-6706484D02*
X9496968Y-6716008D01*
X9496968Y-6716008D02*
X9506491Y-6725531D01*
X9506491Y-6725531D02*
X9516015Y-6744579D01*
X9516015Y-6744579D02*
X9516015Y-6763627D01*
X9516015Y-6763627D02*
X9506491Y-6792198D01*
X9506491Y-6792198D02*
X9392206Y-6906484D01*
X9392206Y-6906484D02*
X9516015Y-6906484D01*
X9754111Y-6906484D02*
X9754111Y-6706484D01*
X9839825Y-6906484D02*
X9839825Y-6801722D01*
X9839825Y-6801722D02*
X9830301Y-6782674D01*
X9830301Y-6782674D02*
X9811253Y-6773150D01*
X9811253Y-6773150D02*
X9782682Y-6773150D01*
X9782682Y-6773150D02*
X9763634Y-6782674D01*
X9763634Y-6782674D02*
X9754111Y-6792198D01*
X9963634Y-6906484D02*
X9944587Y-6896960D01*
X9944587Y-6896960D02*
X9935063Y-6887436D01*
X9935063Y-6887436D02*
X9925539Y-6868388D01*
X9925539Y-6868388D02*
X9925539Y-6811246D01*
X9925539Y-6811246D02*
X9935063Y-6792198D01*
X9935063Y-6792198D02*
X9944587Y-6782674D01*
X9944587Y-6782674D02*
X9963634Y-6773150D01*
X9963634Y-6773150D02*
X9992206Y-6773150D01*
X9992206Y-6773150D02*
X10011253Y-6782674D01*
X10011253Y-6782674D02*
X10020777Y-6792198D01*
X10020777Y-6792198D02*
X10030301Y-6811246D01*
X10030301Y-6811246D02*
X10030301Y-6868388D01*
X10030301Y-6868388D02*
X10020777Y-6887436D01*
X10020777Y-6887436D02*
X10011253Y-6896960D01*
X10011253Y-6896960D02*
X9992206Y-6906484D01*
X9992206Y-6906484D02*
X9963634Y-6906484D01*
X10144587Y-6906484D02*
X10125539Y-6896960D01*
X10125539Y-6896960D02*
X10116015Y-6877912D01*
X10116015Y-6877912D02*
X10116015Y-6706484D01*
X10296968Y-6896960D02*
X10277920Y-6906484D01*
X10277920Y-6906484D02*
X10239825Y-6906484D01*
X10239825Y-6906484D02*
X10220777Y-6896960D01*
X10220777Y-6896960D02*
X10211253Y-6877912D01*
X10211253Y-6877912D02*
X10211253Y-6801722D01*
X10211253Y-6801722D02*
X10220777Y-6782674D01*
X10220777Y-6782674D02*
X10239825Y-6773150D01*
X10239825Y-6773150D02*
X10277920Y-6773150D01*
X10277920Y-6773150D02*
X10296968Y-6782674D01*
X10296968Y-6782674D02*
X10306492Y-6801722D01*
X10306492Y-6801722D02*
X10306492Y-6820769D01*
X10306492Y-6820769D02*
X10211253Y-6839817D01*
X10382682Y-6896960D02*
X10401730Y-6906484D01*
X10401730Y-6906484D02*
X10439825Y-6906484D01*
X10439825Y-6906484D02*
X10458873Y-6896960D01*
X10458873Y-6896960D02*
X10468396Y-6877912D01*
X10468396Y-6877912D02*
X10468396Y-6868388D01*
X10468396Y-6868388D02*
X10458873Y-6849341D01*
X10458873Y-6849341D02*
X10439825Y-6839817D01*
X10439825Y-6839817D02*
X10411253Y-6839817D01*
X10411253Y-6839817D02*
X10392206Y-6830293D01*
X10392206Y-6830293D02*
X10382682Y-6811246D01*
X10382682Y-6811246D02*
X10382682Y-6801722D01*
X10382682Y-6801722D02*
X10392206Y-6782674D01*
X10392206Y-6782674D02*
X10411253Y-6773150D01*
X10411253Y-6773150D02*
X10439825Y-6773150D01*
X10439825Y-6773150D02*
X10458873Y-6782674D01*
X10535063Y-6982674D02*
X10544587Y-6973150D01*
X10544587Y-6973150D02*
X10563634Y-6944579D01*
X10563634Y-6944579D02*
X10573158Y-6925531D01*
X10573158Y-6925531D02*
X10582682Y-6896960D01*
X10582682Y-6896960D02*
X10592206Y-6849341D01*
X10592206Y-6849341D02*
X10592206Y-6811246D01*
X10592206Y-6811246D02*
X10582682Y-6763627D01*
X10582682Y-6763627D02*
X10573158Y-6735055D01*
X10573158Y-6735055D02*
X10563634Y-6716008D01*
X10563634Y-6716008D02*
X10544587Y-6687436D01*
X10544587Y-6687436D02*
X10535063Y-6677912D01*
M02*
