%TF.GenerationSoftware,KiCad,Pcbnew,7.0.9*%
%TF.CreationDate,2024-03-22T21:38:29+01:00*%
%TF.ProjectId,KorrySmallPCB,4b6f7272-7953-46d6-916c-6c5043422e6b,rev?*%
%TF.SameCoordinates,Original*%
%TF.FileFunction,Copper,L1,Top*%
%TF.FilePolarity,Positive*%
%FSLAX46Y46*%
G04 Gerber Fmt 4.6, Leading zero omitted, Abs format (unit mm)*
G04 Created by KiCad (PCBNEW 7.0.9) date 2024-03-22 21:38:29*
%MOMM*%
%LPD*%
G01*
G04 APERTURE LIST*
G04 Aperture macros list*
%AMRoundRect*
0 Rectangle with rounded corners*
0 $1 Rounding radius*
0 $2 $3 $4 $5 $6 $7 $8 $9 X,Y pos of 4 corners*
0 Add a 4 corners polygon primitive as box body*
4,1,4,$2,$3,$4,$5,$6,$7,$8,$9,$2,$3,0*
0 Add four circle primitives for the rounded corners*
1,1,$1+$1,$2,$3*
1,1,$1+$1,$4,$5*
1,1,$1+$1,$6,$7*
1,1,$1+$1,$8,$9*
0 Add four rect primitives between the rounded corners*
20,1,$1+$1,$2,$3,$4,$5,0*
20,1,$1+$1,$4,$5,$6,$7,0*
20,1,$1+$1,$6,$7,$8,$9,0*
20,1,$1+$1,$8,$9,$2,$3,0*%
G04 Aperture macros list end*
%TA.AperFunction,ComponentPad*%
%ADD10RoundRect,0.250000X-0.750000X0.600000X-0.750000X-0.600000X0.750000X-0.600000X0.750000X0.600000X0*%
%TD*%
%TA.AperFunction,ComponentPad*%
%ADD11O,2.000000X1.700000*%
%TD*%
%TA.AperFunction,ComponentPad*%
%ADD12C,1.600000*%
%TD*%
%TA.AperFunction,ComponentPad*%
%ADD13O,1.600000X1.600000*%
%TD*%
%TA.AperFunction,ConnectorPad*%
%ADD14C,3.800000*%
%TD*%
%TA.AperFunction,ComponentPad*%
%ADD15C,2.600000*%
%TD*%
%TA.AperFunction,ComponentPad*%
%ADD16O,1.950000X1.700000*%
%TD*%
%TA.AperFunction,ComponentPad*%
%ADD17RoundRect,0.250000X0.725000X-0.600000X0.725000X0.600000X-0.725000X0.600000X-0.725000X-0.600000X0*%
%TD*%
%TA.AperFunction,ComponentPad*%
%ADD18C,1.800000*%
%TD*%
%TA.AperFunction,ComponentPad*%
%ADD19R,1.800000X1.800000*%
%TD*%
%TA.AperFunction,ComponentPad*%
%ADD20R,2.250000X2.250000*%
%TD*%
%TA.AperFunction,ComponentPad*%
%ADD21C,2.250000*%
%TD*%
%TA.AperFunction,Conductor*%
%ADD22C,0.250000*%
%TD*%
%TA.AperFunction,Conductor*%
%ADD23C,0.800000*%
%TD*%
G04 APERTURE END LIST*
D10*
%TO.P,J2,1,Pin_1*%
%TO.N,+9V*%
X62275000Y-17100000D03*
D11*
%TO.P,J2,2,Pin_2*%
%TO.N,/LED_PCB*%
X62275000Y-19600000D03*
%TD*%
D12*
%TO.P,R3,1*%
%TO.N,/LED_PCB*%
X75650000Y-31440000D03*
D13*
%TO.P,R3,2*%
%TO.N,Net-(D3-K)*%
X75650000Y-39060000D03*
%TD*%
D14*
%TO.P,H2,1*%
%TO.N,N/C*%
X68650000Y-21000000D03*
D15*
X68650000Y-21000000D03*
%TD*%
%TO.P,H1,1*%
%TO.N,N/C*%
X68650000Y-46000000D03*
D14*
X68650000Y-46000000D03*
%TD*%
D12*
%TO.P,R4,1*%
%TO.N,Net-(D4-K)*%
X61400000Y-28190000D03*
D13*
%TO.P,R4,2*%
%TO.N,GND*%
X61400000Y-35810000D03*
%TD*%
D16*
%TO.P,J3,3,Pin_3*%
%TO.N,GND*%
X76350000Y-15950000D03*
%TO.P,J3,2,Pin_2*%
%TO.N,/LED_INPUT*%
X76350000Y-18450000D03*
D17*
%TO.P,J3,1,Pin_1*%
%TO.N,/BTN_INPUT*%
X76350000Y-20950000D03*
%TD*%
D18*
%TO.P,D4,2,A*%
%TO.N,/LED_INPUT*%
X69915000Y-27500000D03*
D19*
%TO.P,D4,1,K*%
%TO.N,Net-(D4-K)*%
X67375000Y-27500000D03*
%TD*%
D20*
%TO.P,SW1,1,1*%
%TO.N,/BTN_INPUT*%
X65400000Y-33500000D03*
D21*
%TO.P,SW1,2,2*%
%TO.N,GND*%
X71900000Y-33500000D03*
%TD*%
D19*
%TO.P,D3,1,K*%
%TO.N,Net-(D3-K)*%
X67375000Y-39000000D03*
D18*
%TO.P,D3,2,A*%
%TO.N,+9V*%
X69915000Y-39000000D03*
%TD*%
D22*
%TO.N,/BTN_INPUT*%
X65647412Y-33500000D02*
X65400000Y-33500000D01*
X76350000Y-22797412D02*
X65647412Y-33500000D01*
X76350000Y-20950000D02*
X76350000Y-22797412D01*
%TO.N,/LED_INPUT*%
X69915000Y-27500000D02*
X69915000Y-24885000D01*
X69915000Y-24885000D02*
X76350000Y-18450000D01*
D23*
%TO.N,+9V*%
X59025000Y-20350000D02*
X62275000Y-17100000D01*
X59025000Y-37250000D02*
X59025000Y-20350000D01*
X69437792Y-37250000D02*
X59025000Y-37250000D01*
X69915000Y-37727208D02*
X69437792Y-37250000D01*
X69915000Y-39000000D02*
X69915000Y-37727208D01*
%TO.N,Net-(D3-K)*%
X67375000Y-39000000D02*
X68875000Y-40500000D01*
X68875000Y-40500000D02*
X74210000Y-40500000D01*
X74210000Y-40500000D02*
X75650000Y-39060000D01*
%TO.N,+9V*%
X69915000Y-38540000D02*
X69915000Y-39000000D01*
D22*
%TO.N,Net-(D4-K)*%
X62090000Y-27500000D02*
X61400000Y-28190000D01*
X67375000Y-27500000D02*
X62090000Y-27500000D01*
%TD*%
%TA.AperFunction,Conductor*%
%TO.N,GND*%
G36*
X79343039Y-12944685D02*
G01*
X79388794Y-12997489D01*
X79400000Y-13049000D01*
X79400000Y-27770187D01*
X79402855Y-27772488D01*
X79424921Y-27838782D01*
X79425000Y-27843209D01*
X79425000Y-39173638D01*
X79409286Y-39227150D01*
X79409439Y-39227213D01*
X79408853Y-39228626D01*
X79405315Y-39240677D01*
X79402325Y-39244387D01*
X79400000Y-39250000D01*
X79400000Y-43126000D01*
X79380315Y-43193039D01*
X79327511Y-43238794D01*
X79276000Y-43250000D01*
X71900000Y-43250000D01*
X71900000Y-48126000D01*
X71880315Y-48193039D01*
X71827511Y-48238794D01*
X71776000Y-48250000D01*
X70018748Y-48250000D01*
X69951709Y-48230315D01*
X69905954Y-48177511D01*
X69896010Y-48108353D01*
X69925035Y-48044797D01*
X69945863Y-48025682D01*
X70108466Y-47907543D01*
X70183162Y-47853274D01*
X70403349Y-47646504D01*
X70595885Y-47413768D01*
X70757733Y-47158736D01*
X70886341Y-46885430D01*
X70979681Y-46598160D01*
X71036280Y-46301457D01*
X71055246Y-46000000D01*
X71036280Y-45698543D01*
X70979681Y-45401840D01*
X70886341Y-45114570D01*
X70757733Y-44841264D01*
X70595885Y-44586232D01*
X70403349Y-44353496D01*
X70183162Y-44146726D01*
X70183159Y-44146724D01*
X70183153Y-44146719D01*
X69938806Y-43969191D01*
X69938799Y-43969186D01*
X69938795Y-43969184D01*
X69674104Y-43823668D01*
X69674101Y-43823666D01*
X69674096Y-43823664D01*
X69674095Y-43823663D01*
X69393265Y-43712475D01*
X69393262Y-43712474D01*
X69100695Y-43637357D01*
X68801036Y-43599500D01*
X68801027Y-43599500D01*
X68498973Y-43599500D01*
X68498963Y-43599500D01*
X68199304Y-43637357D01*
X67906737Y-43712474D01*
X67906734Y-43712475D01*
X67625904Y-43823663D01*
X67625903Y-43823664D01*
X67361205Y-43969184D01*
X67361193Y-43969191D01*
X67116846Y-44146719D01*
X67116836Y-44146727D01*
X66896652Y-44353494D01*
X66704111Y-44586236D01*
X66542268Y-44841261D01*
X66542265Y-44841267D01*
X66413661Y-45114563D01*
X66413659Y-45114568D01*
X66320320Y-45401835D01*
X66263719Y-45698546D01*
X66263718Y-45698553D01*
X66244754Y-45999994D01*
X66244754Y-46000005D01*
X66263718Y-46301446D01*
X66263719Y-46301453D01*
X66320320Y-46598164D01*
X66413659Y-46885431D01*
X66413661Y-46885436D01*
X66542265Y-47158732D01*
X66542268Y-47158738D01*
X66704111Y-47413763D01*
X66896652Y-47646505D01*
X67116836Y-47853272D01*
X67116846Y-47853280D01*
X67354137Y-48025682D01*
X67396803Y-48081012D01*
X67402782Y-48150625D01*
X67370176Y-48212420D01*
X67309338Y-48246777D01*
X67281252Y-48250000D01*
X65524000Y-48250000D01*
X65456961Y-48230315D01*
X65411206Y-48177511D01*
X65400000Y-48126000D01*
X65400000Y-43250000D01*
X58024000Y-43250000D01*
X57956961Y-43230315D01*
X57911206Y-43177511D01*
X57900000Y-43126000D01*
X57900000Y-37484591D01*
X57919685Y-37417552D01*
X57972489Y-37371797D01*
X58041647Y-37361853D01*
X58105203Y-37390878D01*
X58141931Y-37446274D01*
X58152986Y-37480297D01*
X58154666Y-37486569D01*
X58163856Y-37529803D01*
X58163855Y-37529803D01*
X58181833Y-37570179D01*
X58184160Y-37576242D01*
X58197818Y-37618277D01*
X58197820Y-37618281D01*
X58197821Y-37618284D01*
X58218965Y-37654906D01*
X58219924Y-37656567D01*
X58222870Y-37662349D01*
X58240526Y-37702005D01*
X58240850Y-37702732D01*
X58240853Y-37702736D01*
X58266825Y-37738484D01*
X58270362Y-37743930D01*
X58292464Y-37782212D01*
X58292471Y-37782222D01*
X58322050Y-37815072D01*
X58326137Y-37820119D01*
X58352110Y-37855869D01*
X58352111Y-37855870D01*
X58352112Y-37855871D01*
X58384966Y-37885453D01*
X58389546Y-37890034D01*
X58419128Y-37922887D01*
X58419129Y-37922888D01*
X58454892Y-37948870D01*
X58459934Y-37952954D01*
X58492777Y-37982528D01*
X58492787Y-37982535D01*
X58531070Y-38004638D01*
X58536516Y-38008175D01*
X58572266Y-38034149D01*
X58612644Y-38052127D01*
X58618430Y-38055075D01*
X58644300Y-38070010D01*
X58656716Y-38077179D01*
X58698755Y-38090837D01*
X58704812Y-38093163D01*
X58745193Y-38111142D01*
X58745192Y-38111142D01*
X58745197Y-38111144D01*
X58779720Y-38118481D01*
X58788435Y-38120334D01*
X58794698Y-38122011D01*
X58836744Y-38135674D01*
X58868051Y-38138964D01*
X58880709Y-38140295D01*
X58887123Y-38141311D01*
X58930354Y-38150500D01*
X58977808Y-38150500D01*
X65850500Y-38150500D01*
X65917539Y-38170185D01*
X65963294Y-38222989D01*
X65974500Y-38274500D01*
X65974500Y-39947870D01*
X65974501Y-39947876D01*
X65980908Y-40007483D01*
X66031202Y-40142328D01*
X66031206Y-40142335D01*
X66117452Y-40257544D01*
X66117455Y-40257547D01*
X66232664Y-40343793D01*
X66232671Y-40343797D01*
X66367517Y-40394091D01*
X66367516Y-40394091D01*
X66374444Y-40394835D01*
X66427127Y-40400500D01*
X67450638Y-40400499D01*
X67517677Y-40420183D01*
X67538319Y-40436818D01*
X68181235Y-41079734D01*
X68193869Y-41094525D01*
X68202112Y-41105871D01*
X68202113Y-41105872D01*
X68253722Y-41152341D01*
X68256071Y-41154570D01*
X68271620Y-41170119D01*
X68288684Y-41183938D01*
X68288702Y-41183952D01*
X68291170Y-41186060D01*
X68342781Y-41232531D01*
X68342782Y-41232531D01*
X68342784Y-41232533D01*
X68342786Y-41232534D01*
X68354918Y-41239538D01*
X68370955Y-41250560D01*
X68381849Y-41259382D01*
X68381851Y-41259383D01*
X68443747Y-41290920D01*
X68446552Y-41292443D01*
X68465998Y-41303670D01*
X68506707Y-41327175D01*
X68506715Y-41327178D01*
X68506716Y-41327179D01*
X68520046Y-41331510D01*
X68538019Y-41338954D01*
X68550512Y-41345320D01*
X68617590Y-41363292D01*
X68620699Y-41364214D01*
X68633933Y-41368514D01*
X68686744Y-41385674D01*
X68697116Y-41386763D01*
X68700684Y-41387139D01*
X68719825Y-41390687D01*
X68733348Y-41394311D01*
X68733354Y-41394312D01*
X68802711Y-41397946D01*
X68805921Y-41398199D01*
X68827808Y-41400500D01*
X68849803Y-41400500D01*
X68853046Y-41400584D01*
X68922388Y-41404219D01*
X68936228Y-41402027D01*
X68955627Y-41400500D01*
X74129373Y-41400500D01*
X74148772Y-41402027D01*
X74162612Y-41404219D01*
X74231959Y-41400584D01*
X74235203Y-41400500D01*
X74257191Y-41400500D01*
X74257192Y-41400500D01*
X74273988Y-41398734D01*
X74279064Y-41398201D01*
X74282284Y-41397947D01*
X74351646Y-41394313D01*
X74365187Y-41390683D01*
X74384313Y-41387138D01*
X74398256Y-41385674D01*
X74464306Y-41364212D01*
X74467368Y-41363304D01*
X74534488Y-41345320D01*
X74546976Y-41338956D01*
X74564950Y-41331510D01*
X74578284Y-41327179D01*
X74638476Y-41292425D01*
X74641222Y-41290934D01*
X74703149Y-41259383D01*
X74714031Y-41250569D01*
X74730083Y-41239537D01*
X74742216Y-41232533D01*
X74793847Y-41186043D01*
X74796260Y-41183982D01*
X74813380Y-41170119D01*
X74828929Y-41154568D01*
X74831277Y-41152341D01*
X74882888Y-41105871D01*
X74891130Y-41094525D01*
X74903760Y-41079737D01*
X75583054Y-40400444D01*
X75644375Y-40366961D01*
X75659916Y-40364600D01*
X75876692Y-40345635D01*
X76096496Y-40286739D01*
X76302734Y-40190568D01*
X76489139Y-40060047D01*
X76650047Y-39899139D01*
X76780568Y-39712734D01*
X76876739Y-39506496D01*
X76935635Y-39286692D01*
X76955468Y-39060000D01*
X76954599Y-39050072D01*
X76935635Y-38833313D01*
X76935635Y-38833312D01*
X76935635Y-38833308D01*
X76876739Y-38613504D01*
X76780568Y-38407266D01*
X76650047Y-38220861D01*
X76650045Y-38220858D01*
X76489141Y-38059954D01*
X76302734Y-37929432D01*
X76302732Y-37929431D01*
X76096497Y-37833261D01*
X76096488Y-37833258D01*
X75876697Y-37774366D01*
X75876693Y-37774365D01*
X75876692Y-37774365D01*
X75876691Y-37774364D01*
X75876686Y-37774364D01*
X75650002Y-37754532D01*
X75649998Y-37754532D01*
X75423313Y-37774364D01*
X75423302Y-37774366D01*
X75203511Y-37833258D01*
X75203502Y-37833261D01*
X74997267Y-37929431D01*
X74997265Y-37929432D01*
X74810858Y-38059954D01*
X74649954Y-38220858D01*
X74519432Y-38407265D01*
X74519431Y-38407267D01*
X74423261Y-38613502D01*
X74423258Y-38613511D01*
X74364366Y-38833302D01*
X74364364Y-38833312D01*
X74345400Y-39050072D01*
X74319947Y-39115140D01*
X74309554Y-39126945D01*
X73873318Y-39563182D01*
X73811998Y-39596666D01*
X73785639Y-39599500D01*
X71367209Y-39599500D01*
X71300170Y-39579815D01*
X71254415Y-39527011D01*
X71244471Y-39457853D01*
X71247004Y-39445059D01*
X71301131Y-39231317D01*
X71301131Y-39231316D01*
X71301134Y-39231305D01*
X71301473Y-39227213D01*
X71320300Y-39000006D01*
X71320300Y-38999993D01*
X71301135Y-38768702D01*
X71301133Y-38768691D01*
X71244157Y-38543699D01*
X71150924Y-38331151D01*
X71023983Y-38136852D01*
X71023980Y-38136849D01*
X71023979Y-38136847D01*
X70866784Y-37966087D01*
X70863336Y-37963403D01*
X70822524Y-37906692D01*
X70815500Y-37865551D01*
X70815500Y-37807834D01*
X70817027Y-37788433D01*
X70819219Y-37774596D01*
X70815584Y-37705248D01*
X70815500Y-37702005D01*
X70815500Y-37680017D01*
X70815499Y-37680008D01*
X70813201Y-37658144D01*
X70812947Y-37654928D01*
X70809313Y-37585562D01*
X70805684Y-37572020D01*
X70802138Y-37552892D01*
X70800674Y-37538952D01*
X70779218Y-37472916D01*
X70778296Y-37469804D01*
X70760321Y-37402725D01*
X70760320Y-37402720D01*
X70753956Y-37390230D01*
X70746511Y-37372258D01*
X70742179Y-37358924D01*
X70742177Y-37358920D01*
X70742175Y-37358915D01*
X70718670Y-37318206D01*
X70707443Y-37298760D01*
X70705920Y-37295955D01*
X70674383Y-37234059D01*
X70674382Y-37234057D01*
X70665560Y-37223163D01*
X70654538Y-37207126D01*
X70647532Y-37194991D01*
X70647531Y-37194989D01*
X70601060Y-37143378D01*
X70598952Y-37140910D01*
X70585118Y-37123827D01*
X70569577Y-37108286D01*
X70567341Y-37105930D01*
X70520872Y-37054321D01*
X70520871Y-37054320D01*
X70509525Y-37046077D01*
X70494734Y-37033443D01*
X70131556Y-36670265D01*
X70118918Y-36655468D01*
X70110679Y-36644128D01*
X70059069Y-36597657D01*
X70056714Y-36595423D01*
X70041174Y-36579882D01*
X70024087Y-36566043D01*
X70021623Y-36563939D01*
X69970012Y-36517470D01*
X69970005Y-36517465D01*
X69957862Y-36510454D01*
X69941835Y-36499438D01*
X69930945Y-36490620D01*
X69930943Y-36490619D01*
X69930941Y-36490617D01*
X69912051Y-36480992D01*
X69869058Y-36459085D01*
X69866206Y-36457537D01*
X69806074Y-36422820D01*
X69792741Y-36418488D01*
X69774770Y-36411043D01*
X69762290Y-36404684D01*
X69762278Y-36404679D01*
X69695201Y-36386705D01*
X69692101Y-36385787D01*
X69626048Y-36364326D01*
X69626043Y-36364325D01*
X69626041Y-36364325D01*
X69612106Y-36362860D01*
X69592981Y-36359315D01*
X69579445Y-36355688D01*
X69579435Y-36355686D01*
X69510082Y-36352051D01*
X69506851Y-36351797D01*
X69492329Y-36350271D01*
X69484984Y-36349500D01*
X69484981Y-36349500D01*
X69462995Y-36349500D01*
X69459751Y-36349415D01*
X69390404Y-36345781D01*
X69390403Y-36345781D01*
X69376564Y-36347973D01*
X69357165Y-36349500D01*
X62762901Y-36349500D01*
X62695862Y-36329815D01*
X62650107Y-36277011D01*
X62640163Y-36207853D01*
X62643126Y-36193406D01*
X62678872Y-36060000D01*
X61715686Y-36060000D01*
X61727641Y-36048045D01*
X61785165Y-35935148D01*
X61804986Y-35810000D01*
X61785165Y-35684852D01*
X61727641Y-35571955D01*
X61715686Y-35560000D01*
X62678872Y-35560000D01*
X62678872Y-35559999D01*
X62626269Y-35363682D01*
X62626265Y-35363673D01*
X62530134Y-35157517D01*
X62399657Y-34971179D01*
X62238820Y-34810342D01*
X62052482Y-34679865D01*
X61846328Y-34583734D01*
X61650000Y-34531127D01*
X61650000Y-35494314D01*
X61638045Y-35482359D01*
X61525148Y-35424835D01*
X61431481Y-35410000D01*
X61368519Y-35410000D01*
X61274852Y-35424835D01*
X61161955Y-35482359D01*
X61150000Y-35494314D01*
X61150000Y-34531127D01*
X60953671Y-34583734D01*
X60747517Y-34679865D01*
X60561179Y-34810342D01*
X60400342Y-34971179D01*
X60269865Y-35157517D01*
X60173734Y-35363673D01*
X60173731Y-35363679D01*
X60169275Y-35380312D01*
X60132910Y-35439972D01*
X60070063Y-35470501D01*
X60000687Y-35462206D01*
X59946809Y-35417721D01*
X59925535Y-35351169D01*
X59925500Y-35348218D01*
X59925500Y-28653714D01*
X59945185Y-28586675D01*
X59997989Y-28540920D01*
X60067147Y-28530976D01*
X60130703Y-28560001D01*
X60168477Y-28618779D01*
X60169275Y-28621621D01*
X60173258Y-28636488D01*
X60173261Y-28636497D01*
X60269431Y-28842732D01*
X60269432Y-28842734D01*
X60399954Y-29029141D01*
X60560858Y-29190045D01*
X60560861Y-29190047D01*
X60747266Y-29320568D01*
X60953504Y-29416739D01*
X61173308Y-29475635D01*
X61335230Y-29489801D01*
X61399998Y-29495468D01*
X61400000Y-29495468D01*
X61400002Y-29495468D01*
X61456673Y-29490509D01*
X61626692Y-29475635D01*
X61846496Y-29416739D01*
X62052734Y-29320568D01*
X62239139Y-29190047D01*
X62400047Y-29029139D01*
X62530568Y-28842734D01*
X62626739Y-28636496D01*
X62685635Y-28416692D01*
X62701208Y-28238693D01*
X62726660Y-28173624D01*
X62783251Y-28132645D01*
X62824736Y-28125500D01*
X65850501Y-28125500D01*
X65917540Y-28145185D01*
X65963295Y-28197989D01*
X65974501Y-28249500D01*
X65974501Y-28447876D01*
X65980908Y-28507483D01*
X66031202Y-28642328D01*
X66031206Y-28642335D01*
X66117452Y-28757544D01*
X66117455Y-28757547D01*
X66232664Y-28843793D01*
X66232671Y-28843797D01*
X66367517Y-28894091D01*
X66367516Y-28894091D01*
X66374444Y-28894835D01*
X66427127Y-28900500D01*
X68322872Y-28900499D01*
X68382483Y-28894091D01*
X68517331Y-28843796D01*
X68632546Y-28757546D01*
X68718796Y-28642331D01*
X68720975Y-28636488D01*
X68747455Y-28565493D01*
X68789326Y-28509559D01*
X68854790Y-28485141D01*
X68923063Y-28499992D01*
X68954866Y-28524843D01*
X68960512Y-28530976D01*
X68963215Y-28533912D01*
X68963222Y-28533918D01*
X69146365Y-28676464D01*
X69146371Y-28676468D01*
X69146374Y-28676470D01*
X69285603Y-28751817D01*
X69335193Y-28801037D01*
X69350301Y-28869253D01*
X69326131Y-28934809D01*
X69314266Y-28948553D01*
X66424639Y-31838181D01*
X66363316Y-31871666D01*
X66336958Y-31874500D01*
X64227129Y-31874500D01*
X64227123Y-31874501D01*
X64167516Y-31880908D01*
X64032671Y-31931202D01*
X64032664Y-31931206D01*
X63917455Y-32017452D01*
X63917452Y-32017455D01*
X63831206Y-32132664D01*
X63831202Y-32132671D01*
X63780908Y-32267517D01*
X63774501Y-32327116D01*
X63774500Y-32327135D01*
X63774500Y-34672870D01*
X63774501Y-34672876D01*
X63780908Y-34732483D01*
X63831202Y-34867328D01*
X63831206Y-34867335D01*
X63917452Y-34982544D01*
X63917455Y-34982547D01*
X64032664Y-35068793D01*
X64032671Y-35068797D01*
X64167517Y-35119091D01*
X64167516Y-35119091D01*
X64174444Y-35119835D01*
X64227127Y-35125500D01*
X66572872Y-35125499D01*
X66632483Y-35119091D01*
X66767331Y-35068796D01*
X66882546Y-34982546D01*
X66968796Y-34867331D01*
X67019091Y-34732483D01*
X67025500Y-34672873D01*
X67025499Y-33500000D01*
X70269975Y-33500000D01*
X70290042Y-33754989D01*
X70349752Y-34003702D01*
X70447634Y-34240012D01*
X70447636Y-34240015D01*
X70581275Y-34458095D01*
X70581286Y-34458110D01*
X70584533Y-34461911D01*
X70584535Y-34461911D01*
X71297452Y-33748993D01*
X71307188Y-33778956D01*
X71395186Y-33917619D01*
X71514903Y-34030040D01*
X71649510Y-34104041D01*
X70938087Y-34815464D01*
X70938087Y-34815465D01*
X70941888Y-34818712D01*
X70941898Y-34818719D01*
X71159984Y-34952363D01*
X71159987Y-34952365D01*
X71396297Y-35050247D01*
X71645011Y-35109957D01*
X71645010Y-35109957D01*
X71900000Y-35130024D01*
X72154989Y-35109957D01*
X72403702Y-35050247D01*
X72640012Y-34952365D01*
X72640015Y-34952363D01*
X72858103Y-34818719D01*
X72861912Y-34815464D01*
X72147534Y-34101086D01*
X72215629Y-34074126D01*
X72348492Y-33977595D01*
X72453175Y-33851055D01*
X72501631Y-33748079D01*
X73215464Y-34461912D01*
X73218719Y-34458103D01*
X73352363Y-34240015D01*
X73352365Y-34240012D01*
X73450247Y-34003702D01*
X73509957Y-33754989D01*
X73530024Y-33500000D01*
X73509957Y-33245010D01*
X73450247Y-32996297D01*
X73352365Y-32759987D01*
X73352363Y-32759984D01*
X73218719Y-32541898D01*
X73218712Y-32541888D01*
X73215465Y-32538087D01*
X73215464Y-32538087D01*
X72502546Y-33251004D01*
X72492812Y-33221044D01*
X72404814Y-33082381D01*
X72285097Y-32969960D01*
X72150489Y-32895958D01*
X72861911Y-32184535D01*
X72861911Y-32184533D01*
X72858110Y-32181286D01*
X72858095Y-32181275D01*
X72640015Y-32047636D01*
X72640012Y-32047634D01*
X72403702Y-31949752D01*
X72154988Y-31890042D01*
X72154989Y-31890042D01*
X71900000Y-31869975D01*
X71645010Y-31890042D01*
X71396297Y-31949752D01*
X71159987Y-32047634D01*
X71159984Y-32047636D01*
X70941897Y-32181280D01*
X70938087Y-32184534D01*
X71652466Y-32898913D01*
X71584371Y-32925874D01*
X71451508Y-33022405D01*
X71346825Y-33148945D01*
X71298368Y-33251921D01*
X70584534Y-32538087D01*
X70581280Y-32541897D01*
X70447636Y-32759984D01*
X70447634Y-32759987D01*
X70349752Y-32996297D01*
X70290042Y-33245010D01*
X70269975Y-33500000D01*
X67025499Y-33500000D01*
X67025499Y-33057862D01*
X67045184Y-32990824D01*
X67061813Y-32970187D01*
X68591999Y-31440001D01*
X74344532Y-31440001D01*
X74364364Y-31666686D01*
X74364366Y-31666697D01*
X74423258Y-31886488D01*
X74423261Y-31886497D01*
X74519431Y-32092732D01*
X74519432Y-32092734D01*
X74649954Y-32279141D01*
X74810858Y-32440045D01*
X74810861Y-32440047D01*
X74997266Y-32570568D01*
X75203504Y-32666739D01*
X75423308Y-32725635D01*
X75585230Y-32739801D01*
X75649998Y-32745468D01*
X75650000Y-32745468D01*
X75650002Y-32745468D01*
X75706673Y-32740509D01*
X75876692Y-32725635D01*
X76096496Y-32666739D01*
X76302734Y-32570568D01*
X76489139Y-32440047D01*
X76650047Y-32279139D01*
X76780568Y-32092734D01*
X76876739Y-31886496D01*
X76935635Y-31666692D01*
X76955468Y-31440000D01*
X76935635Y-31213308D01*
X76876739Y-30993504D01*
X76780568Y-30787266D01*
X76650047Y-30600861D01*
X76650045Y-30600858D01*
X76489141Y-30439954D01*
X76302734Y-30309432D01*
X76302732Y-30309431D01*
X76096497Y-30213261D01*
X76096488Y-30213258D01*
X75876697Y-30154366D01*
X75876693Y-30154365D01*
X75876692Y-30154365D01*
X75876691Y-30154364D01*
X75876686Y-30154364D01*
X75650002Y-30134532D01*
X75649998Y-30134532D01*
X75423313Y-30154364D01*
X75423302Y-30154366D01*
X75203511Y-30213258D01*
X75203502Y-30213261D01*
X74997267Y-30309431D01*
X74997265Y-30309432D01*
X74810858Y-30439954D01*
X74649954Y-30600858D01*
X74519432Y-30787265D01*
X74519431Y-30787267D01*
X74423261Y-30993502D01*
X74423258Y-30993511D01*
X74364366Y-31213302D01*
X74364364Y-31213313D01*
X74344532Y-31439998D01*
X74344532Y-31440001D01*
X68591999Y-31440001D01*
X76733788Y-23298213D01*
X76746042Y-23288398D01*
X76745859Y-23288176D01*
X76751866Y-23283204D01*
X76751877Y-23283198D01*
X76782775Y-23250294D01*
X76799227Y-23232776D01*
X76809671Y-23222330D01*
X76820120Y-23211883D01*
X76824379Y-23206390D01*
X76828152Y-23201973D01*
X76860062Y-23167994D01*
X76869713Y-23150436D01*
X76880396Y-23134173D01*
X76892673Y-23118348D01*
X76911185Y-23075565D01*
X76913738Y-23070353D01*
X76936197Y-23029504D01*
X76941180Y-23010092D01*
X76947481Y-22991692D01*
X76955437Y-22973308D01*
X76962729Y-22927264D01*
X76963906Y-22921583D01*
X76975500Y-22876431D01*
X76975500Y-22856395D01*
X76977027Y-22836994D01*
X76980160Y-22817216D01*
X76975775Y-22770827D01*
X76975500Y-22764989D01*
X76975500Y-22424499D01*
X76995185Y-22357460D01*
X77047989Y-22311705D01*
X77099500Y-22300499D01*
X77125002Y-22300499D01*
X77125008Y-22300499D01*
X77227797Y-22289999D01*
X77394334Y-22234814D01*
X77543656Y-22142712D01*
X77667712Y-22018656D01*
X77759814Y-21869334D01*
X77814999Y-21702797D01*
X77825500Y-21600009D01*
X77825499Y-20299992D01*
X77814999Y-20197203D01*
X77759814Y-20030666D01*
X77667712Y-19881344D01*
X77543656Y-19757288D01*
X77462658Y-19707328D01*
X77388879Y-19661821D01*
X77342155Y-19609873D01*
X77330932Y-19540910D01*
X77358776Y-19476828D01*
X77366295Y-19468601D01*
X77513495Y-19321401D01*
X77649035Y-19127830D01*
X77748903Y-18913663D01*
X77810063Y-18685408D01*
X77830659Y-18450000D01*
X77810063Y-18214592D01*
X77748903Y-17986337D01*
X77649035Y-17772171D01*
X77649034Y-17772169D01*
X77513494Y-17578597D01*
X77346403Y-17411506D01*
X77188967Y-17301269D01*
X77145342Y-17246692D01*
X77138148Y-17177194D01*
X77169671Y-17114839D01*
X77188967Y-17098119D01*
X77346073Y-16988113D01*
X77346079Y-16988108D01*
X77513105Y-16821082D01*
X77648600Y-16627578D01*
X77748429Y-16413492D01*
X77748432Y-16413486D01*
X77805636Y-16200000D01*
X76753969Y-16200000D01*
X76786519Y-16149351D01*
X76825000Y-16018295D01*
X76825000Y-15881705D01*
X76786519Y-15750649D01*
X76753969Y-15700000D01*
X77805636Y-15700000D01*
X77805635Y-15699999D01*
X77748432Y-15486513D01*
X77748429Y-15486507D01*
X77648600Y-15272422D01*
X77648599Y-15272420D01*
X77513113Y-15078926D01*
X77513108Y-15078920D01*
X77346079Y-14911891D01*
X77346073Y-14911886D01*
X77152579Y-14776400D01*
X77152577Y-14776399D01*
X76938492Y-14676570D01*
X76938483Y-14676566D01*
X76710326Y-14615432D01*
X76710316Y-14615430D01*
X76600000Y-14605778D01*
X76600000Y-15541981D01*
X76485199Y-15489554D01*
X76383975Y-15475000D01*
X76316025Y-15475000D01*
X76214801Y-15489554D01*
X76100000Y-15541981D01*
X76100000Y-14605778D01*
X75989683Y-14615430D01*
X75989673Y-14615432D01*
X75761516Y-14676566D01*
X75761507Y-14676570D01*
X75547422Y-14776399D01*
X75547420Y-14776400D01*
X75353926Y-14911886D01*
X75353920Y-14911891D01*
X75186894Y-15078917D01*
X75051399Y-15272421D01*
X74951570Y-15486507D01*
X74951567Y-15486513D01*
X74894364Y-15699999D01*
X74894364Y-15700000D01*
X75946031Y-15700000D01*
X75913481Y-15750649D01*
X75875000Y-15881705D01*
X75875000Y-16018295D01*
X75913481Y-16149351D01*
X75946031Y-16200000D01*
X74894364Y-16200000D01*
X74951567Y-16413486D01*
X74951570Y-16413492D01*
X75051399Y-16627577D01*
X75051400Y-16627579D01*
X75186886Y-16821073D01*
X75186891Y-16821079D01*
X75353920Y-16988108D01*
X75353926Y-16988113D01*
X75511031Y-17098119D01*
X75554656Y-17152696D01*
X75561850Y-17222194D01*
X75530327Y-17284549D01*
X75511032Y-17301269D01*
X75353594Y-17411508D01*
X75186506Y-17578597D01*
X75186501Y-17578604D01*
X75050967Y-17772165D01*
X75050965Y-17772169D01*
X74951098Y-17986335D01*
X74951094Y-17986344D01*
X74889938Y-18214586D01*
X74889936Y-18214596D01*
X74869341Y-18449999D01*
X74869341Y-18450000D01*
X74889936Y-18685403D01*
X74889938Y-18685413D01*
X74943271Y-18884456D01*
X74941608Y-18954306D01*
X74911177Y-19004230D01*
X69531208Y-24384199D01*
X69518951Y-24394020D01*
X69519134Y-24394241D01*
X69513123Y-24399213D01*
X69465772Y-24449636D01*
X69444889Y-24470519D01*
X69444877Y-24470532D01*
X69440621Y-24476017D01*
X69436837Y-24480447D01*
X69404937Y-24514418D01*
X69404936Y-24514420D01*
X69395284Y-24531976D01*
X69384610Y-24548226D01*
X69372329Y-24564061D01*
X69372324Y-24564068D01*
X69353815Y-24606838D01*
X69351245Y-24612084D01*
X69328803Y-24652906D01*
X69323822Y-24672307D01*
X69317521Y-24690710D01*
X69309562Y-24709102D01*
X69309561Y-24709105D01*
X69302271Y-24755127D01*
X69301087Y-24760846D01*
X69289501Y-24805972D01*
X69289500Y-24805982D01*
X69289500Y-24826016D01*
X69287973Y-24845415D01*
X69284840Y-24865194D01*
X69284840Y-24865195D01*
X69289225Y-24911583D01*
X69289500Y-24917421D01*
X69289500Y-26172185D01*
X69269815Y-26239224D01*
X69224518Y-26281239D01*
X69146380Y-26323525D01*
X69146365Y-26323535D01*
X68963222Y-26466081D01*
X68963218Y-26466085D01*
X68954866Y-26475158D01*
X68894979Y-26511148D01*
X68825141Y-26509047D01*
X68767525Y-26469522D01*
X68747455Y-26434507D01*
X68718797Y-26357671D01*
X68718793Y-26357664D01*
X68632547Y-26242455D01*
X68632544Y-26242452D01*
X68517335Y-26156206D01*
X68517328Y-26156202D01*
X68382482Y-26105908D01*
X68382483Y-26105908D01*
X68322883Y-26099501D01*
X68322881Y-26099500D01*
X68322873Y-26099500D01*
X68322864Y-26099500D01*
X66427129Y-26099500D01*
X66427123Y-26099501D01*
X66367516Y-26105908D01*
X66232671Y-26156202D01*
X66232664Y-26156206D01*
X66117455Y-26242452D01*
X66117452Y-26242455D01*
X66031206Y-26357664D01*
X66031202Y-26357671D01*
X65980908Y-26492517D01*
X65974501Y-26552116D01*
X65974500Y-26552135D01*
X65974500Y-26750500D01*
X65954815Y-26817539D01*
X65902011Y-26863294D01*
X65850500Y-26874500D01*
X62172737Y-26874500D01*
X62157120Y-26872776D01*
X62157093Y-26873062D01*
X62149331Y-26872327D01*
X62080203Y-26874500D01*
X62050650Y-26874500D01*
X62049929Y-26874590D01*
X62043757Y-26875369D01*
X62037945Y-26875826D01*
X61991372Y-26877290D01*
X61991369Y-26877291D01*
X61972126Y-26882881D01*
X61953083Y-26886825D01*
X61933204Y-26889336D01*
X61933203Y-26889337D01*
X61889878Y-26906490D01*
X61884352Y-26908382D01*
X61839608Y-26921383D01*
X61839604Y-26921385D01*
X61837880Y-26922405D01*
X61836353Y-26922792D01*
X61832448Y-26924482D01*
X61832175Y-26923851D01*
X61770155Y-26939581D01*
X61742676Y-26935442D01*
X61626697Y-26904366D01*
X61626693Y-26904365D01*
X61626692Y-26904365D01*
X61626691Y-26904364D01*
X61626686Y-26904364D01*
X61400002Y-26884532D01*
X61399998Y-26884532D01*
X61173313Y-26904364D01*
X61173302Y-26904366D01*
X60953511Y-26963258D01*
X60953502Y-26963261D01*
X60747267Y-27059431D01*
X60747265Y-27059432D01*
X60560858Y-27189954D01*
X60399954Y-27350858D01*
X60269432Y-27537265D01*
X60269431Y-27537267D01*
X60173261Y-27743502D01*
X60173259Y-27743509D01*
X60169275Y-27758379D01*
X60132909Y-27818040D01*
X60070062Y-27848568D01*
X60000687Y-27840273D01*
X59946809Y-27795787D01*
X59925535Y-27729235D01*
X59925500Y-27726285D01*
X59925500Y-21000005D01*
X66244754Y-21000005D01*
X66263718Y-21301446D01*
X66263719Y-21301453D01*
X66320320Y-21598164D01*
X66413659Y-21885431D01*
X66413661Y-21885436D01*
X66542265Y-22158732D01*
X66542268Y-22158738D01*
X66704111Y-22413763D01*
X66704114Y-22413767D01*
X66704115Y-22413768D01*
X66712992Y-22424499D01*
X66896652Y-22646505D01*
X67116836Y-22853272D01*
X67116846Y-22853280D01*
X67361193Y-23030808D01*
X67361198Y-23030810D01*
X67361205Y-23030816D01*
X67625896Y-23176332D01*
X67625901Y-23176334D01*
X67625903Y-23176335D01*
X67625904Y-23176336D01*
X67906734Y-23287524D01*
X67906737Y-23287525D01*
X68004259Y-23312564D01*
X68199302Y-23362642D01*
X68346039Y-23381179D01*
X68498963Y-23400499D01*
X68498969Y-23400499D01*
X68498973Y-23400500D01*
X68498975Y-23400500D01*
X68801025Y-23400500D01*
X68801027Y-23400500D01*
X68801032Y-23400499D01*
X68801036Y-23400499D01*
X68880591Y-23390448D01*
X69100698Y-23362642D01*
X69393262Y-23287525D01*
X69404196Y-23283196D01*
X69674095Y-23176336D01*
X69674096Y-23176335D01*
X69674094Y-23176335D01*
X69674104Y-23176332D01*
X69938795Y-23030816D01*
X70183162Y-22853274D01*
X70403349Y-22646504D01*
X70595885Y-22413768D01*
X70757733Y-22158736D01*
X70886341Y-21885430D01*
X70979681Y-21598160D01*
X71036280Y-21301457D01*
X71048360Y-21109451D01*
X71055246Y-21000005D01*
X71055246Y-20999994D01*
X71036281Y-20698553D01*
X71036280Y-20698546D01*
X71036280Y-20698543D01*
X70979681Y-20401840D01*
X70886341Y-20114570D01*
X70862386Y-20063664D01*
X70776592Y-19881342D01*
X70757733Y-19841264D01*
X70686306Y-19728713D01*
X70595888Y-19586236D01*
X70498572Y-19468601D01*
X70403349Y-19353496D01*
X70369172Y-19321402D01*
X70183163Y-19146727D01*
X70183153Y-19146719D01*
X69938806Y-18969191D01*
X69938799Y-18969186D01*
X69938795Y-18969184D01*
X69674104Y-18823668D01*
X69674101Y-18823666D01*
X69674096Y-18823664D01*
X69674095Y-18823663D01*
X69393265Y-18712475D01*
X69393262Y-18712474D01*
X69100695Y-18637357D01*
X68801036Y-18599500D01*
X68801027Y-18599500D01*
X68498973Y-18599500D01*
X68498963Y-18599500D01*
X68199304Y-18637357D01*
X67906737Y-18712474D01*
X67906734Y-18712475D01*
X67625904Y-18823663D01*
X67625903Y-18823664D01*
X67361205Y-18969184D01*
X67361193Y-18969191D01*
X67116846Y-19146719D01*
X67116836Y-19146727D01*
X66896652Y-19353494D01*
X66704111Y-19586236D01*
X66542268Y-19841261D01*
X66542265Y-19841267D01*
X66413661Y-20114563D01*
X66413659Y-20114568D01*
X66320320Y-20401835D01*
X66263719Y-20698546D01*
X66263718Y-20698553D01*
X66244754Y-20999994D01*
X66244754Y-21000005D01*
X59925500Y-21000005D01*
X59925500Y-20774360D01*
X59945185Y-20707321D01*
X59961815Y-20686683D01*
X60642962Y-20005535D01*
X60704283Y-19972052D01*
X60773974Y-19977036D01*
X60829908Y-20018907D01*
X60849186Y-20058589D01*
X60849243Y-20058569D01*
X60849441Y-20059114D01*
X60850414Y-20061116D01*
X60851094Y-20063655D01*
X60851096Y-20063659D01*
X60851097Y-20063663D01*
X60874835Y-20114568D01*
X60950964Y-20277828D01*
X60950965Y-20277830D01*
X61086505Y-20471402D01*
X61253597Y-20638494D01*
X61447169Y-20774034D01*
X61447171Y-20774035D01*
X61661337Y-20873903D01*
X61889592Y-20935063D01*
X62066034Y-20950500D01*
X62483966Y-20950500D01*
X62660408Y-20935063D01*
X62888663Y-20873903D01*
X63102829Y-20774035D01*
X63296401Y-20638495D01*
X63463495Y-20471401D01*
X63599035Y-20277830D01*
X63698903Y-20063663D01*
X63760063Y-19835408D01*
X63780659Y-19600000D01*
X63760063Y-19364592D01*
X63698903Y-19136337D01*
X63599035Y-18922171D01*
X63593079Y-18913664D01*
X63463494Y-18728597D01*
X63316295Y-18581398D01*
X63282810Y-18520075D01*
X63287794Y-18450383D01*
X63329666Y-18394450D01*
X63338880Y-18388178D01*
X63344334Y-18384814D01*
X63493656Y-18292712D01*
X63617712Y-18168656D01*
X63709814Y-18019334D01*
X63764999Y-17852797D01*
X63775500Y-17750009D01*
X63775499Y-16449992D01*
X63771770Y-16413492D01*
X63764999Y-16347203D01*
X63764998Y-16347200D01*
X63709814Y-16180666D01*
X63617712Y-16031344D01*
X63493656Y-15907288D01*
X63344334Y-15815186D01*
X63177797Y-15760001D01*
X63177795Y-15760000D01*
X63075010Y-15749500D01*
X61474998Y-15749500D01*
X61474981Y-15749501D01*
X61372203Y-15760000D01*
X61372200Y-15760001D01*
X61205668Y-15815185D01*
X61205663Y-15815187D01*
X61056342Y-15907289D01*
X60932289Y-16031342D01*
X60840187Y-16180663D01*
X60840186Y-16180666D01*
X60785001Y-16347203D01*
X60785001Y-16347204D01*
X60785000Y-16347204D01*
X60774500Y-16449983D01*
X60774500Y-17275638D01*
X60754815Y-17342677D01*
X60738181Y-17363319D01*
X58445263Y-19656236D01*
X58430474Y-19668869D01*
X58419126Y-19677114D01*
X58372666Y-19728713D01*
X58370435Y-19731065D01*
X58354890Y-19746610D01*
X58354875Y-19746627D01*
X58341039Y-19763710D01*
X58338936Y-19766172D01*
X58292469Y-19817781D01*
X58292466Y-19817785D01*
X58285458Y-19829923D01*
X58274444Y-19845948D01*
X58265626Y-19856837D01*
X58265616Y-19856853D01*
X58234082Y-19918740D01*
X58232533Y-19921592D01*
X58197821Y-19981713D01*
X58193487Y-19995053D01*
X58186045Y-20013020D01*
X58179680Y-20025512D01*
X58161706Y-20092584D01*
X58160785Y-20095692D01*
X58139326Y-20161742D01*
X58139010Y-20164750D01*
X58138342Y-20166372D01*
X58137975Y-20168100D01*
X58137659Y-20168032D01*
X58112420Y-20229362D01*
X58055119Y-20269342D01*
X57985300Y-20271996D01*
X57925129Y-20236482D01*
X57893711Y-20174075D01*
X57891690Y-20152071D01*
X57875287Y-13049285D01*
X57894817Y-12982202D01*
X57947515Y-12936325D01*
X57999287Y-12925000D01*
X79276000Y-12925000D01*
X79343039Y-12944685D01*
G37*
%TD.AperFunction*%
%TD*%
M02*
