%TF.GenerationSoftware,KiCad,Pcbnew,7.0.9*%
%TF.CreationDate,2024-03-22T21:38:29+01:00*%
%TF.ProjectId,KorrySmallPCB,4b6f7272-7953-46d6-916c-6c5043422e6b,rev?*%
%TF.SameCoordinates,Original*%
%TF.FileFunction,Legend,Bot*%
%TF.FilePolarity,Positive*%
%FSLAX46Y46*%
G04 Gerber Fmt 4.6, Leading zero omitted, Abs format (unit mm)*
G04 Created by KiCad (PCBNEW 7.0.9) date 2024-03-22 21:38:29*
%MOMM*%
%LPD*%
G01*
G04 APERTURE LIST*
%ADD10C,0.150000*%
%ADD11C,0.120000*%
G04 APERTURE END LIST*
D10*
X69383094Y-30914819D02*
X69383094Y-29914819D01*
X69383094Y-29914819D02*
X69144999Y-29914819D01*
X69144999Y-29914819D02*
X69002142Y-29962438D01*
X69002142Y-29962438D02*
X68906904Y-30057676D01*
X68906904Y-30057676D02*
X68859285Y-30152914D01*
X68859285Y-30152914D02*
X68811666Y-30343390D01*
X68811666Y-30343390D02*
X68811666Y-30486247D01*
X68811666Y-30486247D02*
X68859285Y-30676723D01*
X68859285Y-30676723D02*
X68906904Y-30771961D01*
X68906904Y-30771961D02*
X69002142Y-30867200D01*
X69002142Y-30867200D02*
X69144999Y-30914819D01*
X69144999Y-30914819D02*
X69383094Y-30914819D01*
X67954523Y-30248152D02*
X67954523Y-30914819D01*
X68192618Y-29867200D02*
X68430713Y-30581485D01*
X68430713Y-30581485D02*
X67811666Y-30581485D01*
X70153332Y-36607200D02*
X70010475Y-36654819D01*
X70010475Y-36654819D02*
X69772380Y-36654819D01*
X69772380Y-36654819D02*
X69677142Y-36607200D01*
X69677142Y-36607200D02*
X69629523Y-36559580D01*
X69629523Y-36559580D02*
X69581904Y-36464342D01*
X69581904Y-36464342D02*
X69581904Y-36369104D01*
X69581904Y-36369104D02*
X69629523Y-36273866D01*
X69629523Y-36273866D02*
X69677142Y-36226247D01*
X69677142Y-36226247D02*
X69772380Y-36178628D01*
X69772380Y-36178628D02*
X69962856Y-36131009D01*
X69962856Y-36131009D02*
X70058094Y-36083390D01*
X70058094Y-36083390D02*
X70105713Y-36035771D01*
X70105713Y-36035771D02*
X70153332Y-35940533D01*
X70153332Y-35940533D02*
X70153332Y-35845295D01*
X70153332Y-35845295D02*
X70105713Y-35750057D01*
X70105713Y-35750057D02*
X70058094Y-35702438D01*
X70058094Y-35702438D02*
X69962856Y-35654819D01*
X69962856Y-35654819D02*
X69724761Y-35654819D01*
X69724761Y-35654819D02*
X69581904Y-35702438D01*
X69248570Y-35654819D02*
X69010475Y-36654819D01*
X69010475Y-36654819D02*
X68819999Y-35940533D01*
X68819999Y-35940533D02*
X68629523Y-36654819D01*
X68629523Y-36654819D02*
X68391428Y-35654819D01*
X67486666Y-36654819D02*
X68058094Y-36654819D01*
X67772380Y-36654819D02*
X67772380Y-35654819D01*
X67772380Y-35654819D02*
X67867618Y-35797676D01*
X67867618Y-35797676D02*
X67962856Y-35892914D01*
X67962856Y-35892914D02*
X68058094Y-35940533D01*
X69383094Y-42414819D02*
X69383094Y-41414819D01*
X69383094Y-41414819D02*
X69144999Y-41414819D01*
X69144999Y-41414819D02*
X69002142Y-41462438D01*
X69002142Y-41462438D02*
X68906904Y-41557676D01*
X68906904Y-41557676D02*
X68859285Y-41652914D01*
X68859285Y-41652914D02*
X68811666Y-41843390D01*
X68811666Y-41843390D02*
X68811666Y-41986247D01*
X68811666Y-41986247D02*
X68859285Y-42176723D01*
X68859285Y-42176723D02*
X68906904Y-42271961D01*
X68906904Y-42271961D02*
X69002142Y-42367200D01*
X69002142Y-42367200D02*
X69144999Y-42414819D01*
X69144999Y-42414819D02*
X69383094Y-42414819D01*
X68478332Y-41414819D02*
X67859285Y-41414819D01*
X67859285Y-41414819D02*
X68192618Y-41795771D01*
X68192618Y-41795771D02*
X68049761Y-41795771D01*
X68049761Y-41795771D02*
X67954523Y-41843390D01*
X67954523Y-41843390D02*
X67906904Y-41891009D01*
X67906904Y-41891009D02*
X67859285Y-41986247D01*
X67859285Y-41986247D02*
X67859285Y-42224342D01*
X67859285Y-42224342D02*
X67906904Y-42319580D01*
X67906904Y-42319580D02*
X67954523Y-42367200D01*
X67954523Y-42367200D02*
X68049761Y-42414819D01*
X68049761Y-42414819D02*
X68335475Y-42414819D01*
X68335475Y-42414819D02*
X68430713Y-42367200D01*
X68430713Y-42367200D02*
X68478332Y-42319580D01*
D11*
%TO.C,D4*%
X67085001Y-28735515D02*
G75*
G03*
X70317334Y-28578608I1559999J1235515D01*
G01*
X67604040Y-28579999D02*
G75*
G03*
X69686129Y-28579836I1040960J1079999D01*
G01*
X69686129Y-26420164D02*
G75*
G03*
X67604040Y-26420001I-1041129J-1079836D01*
G01*
X70317334Y-26421392D02*
G75*
G03*
X67085001Y-26264485I-1672334J-1078608D01*
G01*
X67085000Y-28736000D02*
X67085000Y-28580000D01*
X67085000Y-26420000D02*
X67085000Y-26264000D01*
%TO.C,SW1*%
X65550000Y-31650000D02*
X71750000Y-31650000D01*
X65550000Y-32110000D02*
X65550000Y-31650000D01*
X65550000Y-34890000D02*
X64550000Y-34890000D01*
X65550000Y-35350000D02*
X65550000Y-34890000D01*
X71750000Y-32110000D02*
X71750000Y-31650000D01*
X71750000Y-35350000D02*
X65550000Y-35350000D01*
X71750000Y-35350000D02*
X71750000Y-34890000D01*
X67150000Y-34050000D02*
X70000000Y-34050000D01*
X70000000Y-34050000D02*
X70000000Y-33000000D01*
X70000000Y-33000000D02*
X67150000Y-33000000D01*
X67150000Y-33000000D02*
X67150000Y-34050000D01*
%TO.C,D3*%
X67085000Y-37920000D02*
X67085000Y-37764000D01*
X67085000Y-40236000D02*
X67085000Y-40080000D01*
X70317334Y-37921392D02*
G75*
G03*
X67085001Y-37764485I-1672334J-1078608D01*
G01*
X69686129Y-37920164D02*
G75*
G03*
X67604040Y-37920001I-1041129J-1079836D01*
G01*
X67604040Y-40079999D02*
G75*
G03*
X69686129Y-40079836I1040960J1079999D01*
G01*
X67085001Y-40235515D02*
G75*
G03*
X70317334Y-40078608I1559999J1235515D01*
G01*
%TD*%
M02*
