M48
; DRILL file {KiCad 7.0.9} date Wed Mar 13 22:59:48 2024
; FORMAT={-:-/ absolute / inch / decimal}
; #@! TF.CreationDate,2024-03-13T22:59:48+01:00
; #@! TF.GenerationSoftware,Kicad,Pcbnew,7.0.9
; #@! TF.FileFunction,Plated,1,2,PTH
FMAT,2
INCH
; #@! TA.AperFunction,Plated,PTH,ViaDrill
T1C0.0157
; #@! TA.AperFunction,Plated,PTH,ComponentDrill
T2C0.0374
; #@! TA.AperFunction,Plated,PTH,ComponentDrill
T3C0.0394
; #@! TA.AperFunction,Plated,PTH,ComponentDrill
T4C0.0400
; #@! TA.AperFunction,Plated,PTH,ComponentDrill
T5C0.0402
; #@! TA.AperFunction,Plated,PTH,ComponentDrill
T6C0.0598
; #@! TA.AperFunction,Plated,PTH,ComponentDrill
T7C0.0866
; #@! TA.AperFunction,Plated,PTH,ComponentDrill
T8C0.0984
%
G90
G05
T1
X1.3299Y-1.9292
X1.4446Y-1.8812
X1.4567Y-2.0276
X1.5441Y-1.6385
X1.6339Y-1.2598
X1.7863Y-2.1971
X1.8499Y-2.3619
X1.8898Y-2.0079
X1.9488Y-2.3425
X1.9575Y-1.1434
X2.1247Y-1.1556
X2.1643Y-1.9234
X2.1643Y-2.9695
X2.6217Y-1.5905
X2.8815Y-1.965
X2.9397Y-3.775
X3.3702Y-3.3303
X3.3858Y-2.7165
X3.5827Y-1.7126
X3.622Y-2.1654
X3.6221Y-3.2761
X3.6324Y-3.6124
X3.6799Y-3.4779
X3.6926Y-3.5637
X3.8325Y-3.4779
X3.8386Y-2.7953
X3.8733Y-1.9609
X3.9457Y-3.2505
X4.016Y-2.6264
X4.1286Y-3.6014
X4.1732Y-2.874
X4.3059Y-1.7708
X4.3701Y-3.8189
X4.5153Y-2.9889
X4.6142Y-4.4042
X4.6725Y-3.9526
X4.7261Y-2.0377
X4.746Y-3.8856
X4.7532Y-3.6226
X4.8199Y-2.7967
X4.8217Y-3.5416
X4.8228Y-4.5866
X4.883Y-4.0522
X4.8867Y-2.0127
X4.8964Y-3.2952
X4.9056Y-2.5796
X4.9142Y-3.0819
X4.933Y-4.1417
X4.9632Y-3.472
X5.0394Y-4.5079
X5.2252Y-2.8874
X5.3357Y-2.9784
X5.339Y-2.1281
X5.3403Y-2.4351
X5.4052Y-3.0383
X5.4364Y-2.4848
X5.5613Y-1.6788
X5.573Y-3.8685
X5.5906Y-1.4961
X5.6099Y-1.803
X5.6999Y-1.7303
X5.719Y-1.7801
X5.7531Y-2.8072
X5.7754Y-1.857
X5.7828Y-2.8873
X5.8119Y-3.7431
X5.8389Y-2.126
X5.8651Y-0.8207
X5.8651Y-4.1973
X5.8828Y-1.688
X5.8948Y-1.6468
X5.9725Y-3.8532
X5.9967Y-3.4933
X6.018Y-1.7938
X6.019Y-3.368
X6.0436Y-3.9256
X6.1174Y-2.6968
X6.1595Y-2.8644
X6.1655Y-1.7639
X6.1741Y-4.6901
X6.1933Y-3.3213
X6.2034Y-2.8519
X6.2125Y-2.094
X6.2137Y-2.7688
X6.2935Y-1.9088
X6.3506Y-2.5691
X6.3631Y-2.4305
X6.3646Y-1.2014
X6.4451Y-2.5097
X6.455Y-2.4326
X6.5294Y-1.9313
X6.5317Y-2.5711
X6.5378Y-2.1949
X6.5973Y-2.944
X6.6082Y-2.445
X6.6339Y-3.189
X6.6834Y-3.6027
X6.6835Y-3.7981
X6.6929Y-3.3858
X6.6991Y-3.1781
X6.7791Y-2.7391
X6.8213Y-3.09
X6.8464Y-2.677
X6.8898Y-3.4252
X6.9213Y-3.35
X6.9798Y-2.6727
X7.072Y-3.5605
X7.126Y-1.3976
X7.1291Y-2.3088
X7.1509Y-2.7072
X7.1707Y-2.3185
X7.2193Y-2.7307
X7.2244Y-1.7717
X7.4114Y-2.3439
X7.4951Y-3.1718
X7.5574Y-3.1784
X7.5912Y-1.8193
X7.6264Y-1.5053
X7.7002Y-2.3256
X7.7002Y-3.3398
X7.7165Y-1.2598
X7.7188Y-2.2644
X7.7365Y-1.5045
X7.7397Y-2.3164
X7.7422Y-1.458
X7.7808Y-1.5916
X7.7858Y-1.4719
X7.8128Y-1.9607
X7.8811Y-4.1773
X7.8945Y-3.749
X7.901Y-2.0636
X7.9082Y-2.1586
X7.9301Y-3.0991
X8.009Y-3.1793
X8.1673Y-2.2366
X8.3465Y-1.2402
X8.37Y-1.6444
X8.4926Y-2.6432
X8.6413Y-2.3578
X8.6459Y-2.5762
X8.6672Y-2.3901
X8.7008Y-2.0276
X8.7322Y-3.7256
X8.7539Y-2.4436
X8.7992Y-2.3819
X8.8258Y-2.2863
X8.8605Y-3.8418
X8.878Y-1.2205
X8.937Y-2.5197
X9.1142Y-1.7913
X9.1486Y-3.8938
X9.1753Y-3.1892
X9.1902Y-3.7492
X9.259Y-2.013
X9.4069Y-3.3274
X9.4404Y-2.2127
X9.463Y-2.1628
X9.4642Y-3.1176
X9.4688Y-2.5608
X9.5086Y-2.5244
X9.5319Y-2.5702
X9.6567Y-1.2882
X9.7906Y-1.1447
X9.83Y-1.1651
X10.1859Y-1.9214
T2
X1.2598Y-1.7717
X1.2598Y-2.1654
X1.3583Y-1.7717
X1.3583Y-2.1654
X1.378Y-1.063
X1.4567Y-1.7717
X1.4567Y-2.1654
X1.4764Y-1.063
X1.5748Y-1.063
X1.6732Y-1.063
X1.8898Y-1.7717
X1.8898Y-2.1654
X1.8898Y-2.5197
X1.9882Y-1.7717
X1.9882Y-2.1654
X1.9882Y-2.5197
X2.0866Y-1.063
X2.0866Y-1.7717
X2.0866Y-2.1654
X2.0866Y-2.5197
X2.185Y-1.063
X2.2835Y-1.063
X2.3819Y-1.063
X2.4803Y-1.063
X2.5197Y-1.7717
X2.5197Y-2.1654
X2.5197Y-2.5197
X2.5787Y-1.063
X2.6181Y-1.7717
X2.6181Y-2.1654
X2.6181Y-2.5197
X2.7165Y-1.7717
X2.7165Y-2.1654
X2.7165Y-2.5197
X3.0315Y-1.063
X3.1299Y-1.063
X3.1496Y-1.7717
X3.1496Y-2.1654
X3.1496Y-2.5197
X3.2283Y-1.063
X3.248Y-1.7717
X3.248Y-2.1654
X3.248Y-2.5197
X3.3268Y-1.063
X3.3465Y-1.7717
X3.3465Y-2.1654
X3.3465Y-2.5197
X3.4252Y-1.063
X3.5236Y-1.063
X3.622Y-1.063
X3.7795Y-1.7717
X3.7795Y-2.1654
X3.7795Y-2.5197
X3.878Y-1.7717
X3.878Y-2.1654
X3.878Y-2.5197
X3.9764Y-1.7717
X3.9764Y-2.1654
X3.9764Y-2.5197
X4.311Y-1.063
X4.4094Y-1.063
X4.4094Y-1.7717
X4.4094Y-2.1654
X4.4094Y-2.5197
X4.4094Y-2.874
X4.4094Y-3.2283
X4.4094Y-3.5827
X4.5079Y-1.063
X4.5079Y-1.7717
X4.5079Y-2.1654
X4.5079Y-2.5197
X4.5079Y-2.874
X4.5079Y-3.2283
X4.5079Y-3.5827
X4.6063Y-1.063
X4.6063Y-1.7717
X4.6063Y-2.1654
X4.6063Y-2.5197
X4.6063Y-2.874
X4.6063Y-3.2283
X4.6063Y-3.5827
X5.0197Y-1.063
X5.1181Y-1.063
X5.2165Y-1.063
X5.315Y-1.063
X5.5315Y-1.6142
X5.6299Y-1.6142
X5.7283Y-1.6142
X5.8268Y-1.6142
X6.1024Y-1.063
X6.2008Y-1.063
X6.2992Y-1.063
X6.3976Y-1.063
X6.811Y-1.063
X6.811Y-1.7717
X6.811Y-2.1654
X6.811Y-2.874
X6.811Y-3.2283
X6.811Y-3.5827
X6.9094Y-1.063
X6.9094Y-1.7717
X6.9094Y-2.1654
X6.9094Y-2.874
X6.9094Y-3.2283
X6.9094Y-3.5827
X7.0079Y-1.063
X7.0079Y-1.7717
X7.0079Y-2.1654
X7.0079Y-2.874
X7.0079Y-3.2283
X7.0079Y-3.5827
X7.1063Y-1.063
X7.4409Y-1.7717
X7.4409Y-2.1654
X7.5394Y-1.7717
X7.5394Y-2.1654
X7.6378Y-1.7717
X7.6378Y-2.1654
X7.8346Y-1.063
X7.9331Y-1.063
X8.0315Y-1.063
X8.0709Y-1.7717
X8.0709Y-2.1654
X8.1299Y-1.063
X8.1693Y-1.7717
X8.1693Y-2.1654
X8.2283Y-1.063
X8.2677Y-1.7717
X8.2677Y-2.1654
X8.3268Y-1.063
X8.4252Y-1.063
X8.7008Y-1.7717
X8.7008Y-2.1654
X8.7992Y-1.7717
X8.7992Y-2.1654
X8.8386Y-1.063
X8.8976Y-1.7717
X8.8976Y-2.1654
X8.937Y-1.063
X9.0354Y-1.063
X9.1339Y-1.063
X9.2323Y-1.063
X9.3307Y-1.063
X9.3307Y-1.7717
X9.4291Y-1.7717
X9.5276Y-1.7717
X9.7441Y-1.063
X9.8425Y-1.063
X9.9409Y-1.063
X9.9606Y-1.7717
X10.0394Y-1.063
X10.0591Y-1.7717
X10.1575Y-1.7717
T3
X1.437Y-1.4173
X1.5354Y-1.4173
X1.9488Y-1.4173
X2.0472Y-1.4173
X2.4606Y-1.4173
X2.5591Y-1.4173
X2.9724Y-1.4173
X3.0709Y-1.4173
X3.4843Y-1.4173
X3.5827Y-1.4173
X3.9961Y-1.4173
X4.0945Y-1.4173
X4.5079Y-1.4173
X4.6063Y-1.4173
X5.0197Y-1.4173
X5.1181Y-1.4173
X6.2992Y-1.4173
X6.3976Y-1.4173
X6.811Y-1.4173
X6.9094Y-1.4173
X7.3228Y-1.4173
X7.4213Y-1.4173
X7.7965Y-2.7118
X7.7965Y-3.3118
X7.8346Y-1.4173
X7.8965Y-2.7118
X7.8965Y-3.3118
X7.9331Y-1.4173
X7.9965Y-2.7118
X7.9965Y-3.3118
X8.0965Y-2.7118
X8.0965Y-3.3118
X8.1965Y-2.7118
X8.1965Y-3.3118
X8.2965Y-2.7118
X8.2965Y-3.3118
X8.3465Y-1.4409
X8.3965Y-2.7118
X8.3965Y-3.3118
X8.4449Y-1.4409
X8.4965Y-2.7118
X8.4965Y-3.3118
X8.5965Y-2.7118
X8.5965Y-3.3118
X8.6965Y-2.7118
X8.6965Y-3.3118
X8.7965Y-2.7118
X8.7965Y-3.3118
X8.8583Y-1.4173
X8.8965Y-2.7118
X8.8965Y-3.3118
X8.9567Y-1.4173
X9.3701Y-1.4173
X9.4685Y-1.4173
X9.8819Y-1.4173
X9.9803Y-1.4173
T4
X5.0087Y-2.625
X5.0087Y-2.725
X5.0087Y-2.825
X5.0087Y-2.925
X5.0087Y-3.025
X5.0087Y-3.125
X5.0087Y-3.225
X5.0087Y-3.325
X5.0087Y-3.425
X5.0087Y-3.525
X5.0087Y-3.625
X5.0087Y-3.725
X5.0087Y-3.825
X5.0087Y-3.925
X5.0087Y-4.025
X5.0087Y-4.125
X5.1087Y-2.625
X5.1087Y-2.725
X5.1087Y-2.825
X5.1087Y-2.925
X5.1087Y-3.025
X5.1087Y-3.125
X5.1087Y-3.225
X5.1087Y-3.325
X5.1087Y-3.425
X5.1087Y-3.525
X5.1087Y-3.625
X5.1087Y-3.725
X5.1087Y-3.825
X5.1087Y-3.925
X5.1087Y-4.025
X5.1087Y-4.125
X5.2087Y-2.625
X5.2087Y-2.725
X5.3087Y-2.625
X5.3087Y-2.725
X5.4087Y-2.625
X5.4087Y-2.725
X5.7087Y-2.625
X5.7087Y-2.725
X5.8087Y-2.625
X5.8087Y-2.725
X5.9087Y-2.625
X5.9087Y-2.725
X6.3087Y-2.625
X6.3087Y-2.725
X6.3087Y-2.825
X6.3087Y-2.925
X6.3087Y-3.025
X6.3087Y-3.125
X6.3087Y-3.225
X6.3087Y-3.325
X6.3087Y-3.425
X6.3087Y-3.525
X6.3087Y-3.625
X6.3087Y-3.725
X6.3087Y-3.825
X6.3087Y-3.925
X6.3087Y-4.025
X6.3087Y-4.125
X6.3087Y-4.225
X6.3087Y-4.325
X6.3087Y-4.425
X6.3087Y-4.525
X6.3087Y-4.625
X6.4087Y-2.625
X6.4087Y-2.725
X6.4087Y-2.825
X6.4087Y-2.925
X6.4087Y-3.025
X6.4087Y-3.125
X6.4087Y-3.225
X6.4087Y-3.325
X6.4087Y-3.425
X6.4087Y-3.525
X6.4087Y-3.625
X6.4087Y-3.725
X6.4087Y-3.825
X6.4087Y-3.925
X6.4087Y-4.025
X6.4087Y-4.125
X6.4087Y-4.225
X6.4087Y-4.325
X6.4087Y-4.425
X6.4087Y-4.525
X6.4087Y-4.625
T5
X1.2598Y-2.7732
X1.2598Y-2.8732
X1.2598Y-2.9732
X1.2598Y-3.0732
X1.2598Y-3.1732
X1.2598Y-3.2732
X1.2598Y-3.3732
X1.2598Y-3.4732
X1.2598Y-3.5732
X1.2598Y-3.6732
X1.2598Y-3.7732
X1.2598Y-3.8732
X1.2598Y-3.9732
X1.2598Y-4.0732
X1.2598Y-4.1732
X1.2598Y-4.2732
X1.8598Y-3.1732
X1.8598Y-3.2732
X1.8598Y-3.3732
X1.8598Y-3.4732
X1.8598Y-3.5732
X1.8598Y-3.6732
X1.8598Y-3.7732
X1.8598Y-3.8732
X2.2858Y-3.8677
X2.3858Y-3.8677
X2.4858Y-3.8677
X2.5858Y-3.8677
X2.6858Y-3.2677
X2.6858Y-3.8677
X2.7858Y-3.2677
X2.7858Y-3.8677
X2.8858Y-3.2677
X2.8858Y-3.8677
X2.9858Y-3.2677
X2.9858Y-3.8677
X3.0858Y-3.2677
X3.0858Y-3.8677
X3.1858Y-3.2677
X3.1858Y-3.8677
X3.2858Y-3.2677
X3.2858Y-3.8677
X3.3858Y-3.2677
X3.3858Y-3.8677
X3.4858Y-3.8677
X3.5858Y-3.8677
X3.6858Y-3.8677
X3.7858Y-3.8677
X7.6205Y-4.252
X7.7205Y-4.252
X7.8205Y-4.252
X7.9205Y-4.252
X8.0205Y-3.652
X8.0205Y-4.252
X8.1205Y-3.652
X8.1205Y-4.252
X8.2205Y-3.652
X8.2205Y-4.252
X8.3205Y-3.652
X8.3205Y-4.252
X8.4205Y-3.652
X8.4205Y-4.252
X8.5205Y-3.652
X8.5205Y-4.252
X8.6205Y-3.652
X8.6205Y-4.252
X8.7205Y-3.652
X8.7205Y-4.252
X8.8205Y-4.252
X8.9205Y-4.252
X9.0205Y-4.252
X9.1205Y-4.252
X9.6063Y-2.8307
X9.6063Y-2.9307
X9.6063Y-3.0307
X9.6063Y-3.1307
X9.6063Y-3.2307
X9.6063Y-3.3307
X9.6063Y-3.4307
X9.6063Y-3.5307
X9.6063Y-3.6307
X9.6063Y-3.7307
X9.6063Y-3.8307
X9.6063Y-3.9307
X9.6063Y-4.0307
X9.6063Y-4.1307
X9.6063Y-4.2307
X9.6063Y-4.3307
X10.2063Y-3.2307
X10.2063Y-3.3307
X10.2063Y-3.4307
X10.2063Y-3.5307
X10.2063Y-3.6307
X10.2063Y-3.7307
X10.2063Y-3.8307
X10.2063Y-3.9307
T6
X4.4063Y-4.1142
X4.6063Y-4.1142
T7
X0.9843Y-0.9843
X0.9843Y-4.5276
X4.5276Y-4.5276
X5.7087Y-0.9843
X6.8898Y-4.5276
X10.4331Y-0.9843
X10.4331Y-4.5276
T8
X7.8465Y-3.0118
X8.8465Y-3.0118
T0
M30
