%TF.GenerationSoftware,KiCad,Pcbnew,7.0.9*%
%TF.CreationDate,2024-03-13T22:59:47+01:00*%
%TF.ProjectId,FCU_Mainboard_v2,4643555f-4d61-4696-9e62-6f6172645f76,rev?*%
%TF.SameCoordinates,Original*%
%TF.FileFunction,Drillmap*%
%TF.FilePolarity,Positive*%
%FSLAX45Y45*%
G04 Gerber Fmt 4.5, Leading zero omitted, Abs format (unit mm)*
G04 Created by KiCad (PCBNEW 7.0.9) date 2024-03-13 22:59:47*
%MOMM*%
%LPD*%
G01*
G04 APERTURE LIST*
%ADD10C,0.150000*%
%ADD11C,0.200000*%
%ADD12C,0.320000*%
G04 APERTURE END LIST*
D10*
X2000000Y-2000000D02*
X27000000Y-2000000D01*
X27000000Y-12000000D01*
X2000000Y-12000000D01*
X2000000Y-2000000D01*
D11*
D12*
X13273200Y-10424080D02*
X13593200Y-10744080D01*
X13593200Y-10424080D02*
X13273200Y-10744080D01*
X13959000Y-6621700D02*
X14279000Y-6941700D01*
X14279000Y-6621700D02*
X13959000Y-6941700D01*
D11*
X2253277Y-12318984D02*
X2253277Y-12118984D01*
X2253277Y-12118984D02*
X2300896Y-12118984D01*
X2300896Y-12118984D02*
X2329467Y-12128508D01*
X2329467Y-12128508D02*
X2348515Y-12147555D01*
X2348515Y-12147555D02*
X2358039Y-12166603D01*
X2358039Y-12166603D02*
X2367563Y-12204698D01*
X2367563Y-12204698D02*
X2367563Y-12233269D01*
X2367563Y-12233269D02*
X2358039Y-12271365D01*
X2358039Y-12271365D02*
X2348515Y-12290412D01*
X2348515Y-12290412D02*
X2329467Y-12309460D01*
X2329467Y-12309460D02*
X2300896Y-12318984D01*
X2300896Y-12318984D02*
X2253277Y-12318984D01*
X2453277Y-12318984D02*
X2453277Y-12185650D01*
X2453277Y-12223746D02*
X2462801Y-12204698D01*
X2462801Y-12204698D02*
X2472324Y-12195174D01*
X2472324Y-12195174D02*
X2491372Y-12185650D01*
X2491372Y-12185650D02*
X2510420Y-12185650D01*
X2577086Y-12318984D02*
X2577086Y-12185650D01*
X2577086Y-12118984D02*
X2567563Y-12128508D01*
X2567563Y-12128508D02*
X2577086Y-12138031D01*
X2577086Y-12138031D02*
X2586610Y-12128508D01*
X2586610Y-12128508D02*
X2577086Y-12118984D01*
X2577086Y-12118984D02*
X2577086Y-12138031D01*
X2700896Y-12318984D02*
X2681848Y-12309460D01*
X2681848Y-12309460D02*
X2672324Y-12290412D01*
X2672324Y-12290412D02*
X2672324Y-12118984D01*
X2805658Y-12318984D02*
X2786610Y-12309460D01*
X2786610Y-12309460D02*
X2777086Y-12290412D01*
X2777086Y-12290412D02*
X2777086Y-12118984D01*
X3034229Y-12318984D02*
X3034229Y-12118984D01*
X3034229Y-12118984D02*
X3100896Y-12261841D01*
X3100896Y-12261841D02*
X3167562Y-12118984D01*
X3167562Y-12118984D02*
X3167562Y-12318984D01*
X3348515Y-12318984D02*
X3348515Y-12214222D01*
X3348515Y-12214222D02*
X3338991Y-12195174D01*
X3338991Y-12195174D02*
X3319943Y-12185650D01*
X3319943Y-12185650D02*
X3281848Y-12185650D01*
X3281848Y-12185650D02*
X3262801Y-12195174D01*
X3348515Y-12309460D02*
X3329467Y-12318984D01*
X3329467Y-12318984D02*
X3281848Y-12318984D01*
X3281848Y-12318984D02*
X3262801Y-12309460D01*
X3262801Y-12309460D02*
X3253277Y-12290412D01*
X3253277Y-12290412D02*
X3253277Y-12271365D01*
X3253277Y-12271365D02*
X3262801Y-12252317D01*
X3262801Y-12252317D02*
X3281848Y-12242793D01*
X3281848Y-12242793D02*
X3329467Y-12242793D01*
X3329467Y-12242793D02*
X3348515Y-12233269D01*
X3443753Y-12185650D02*
X3443753Y-12385650D01*
X3443753Y-12195174D02*
X3462801Y-12185650D01*
X3462801Y-12185650D02*
X3500896Y-12185650D01*
X3500896Y-12185650D02*
X3519943Y-12195174D01*
X3519943Y-12195174D02*
X3529467Y-12204698D01*
X3529467Y-12204698D02*
X3538991Y-12223746D01*
X3538991Y-12223746D02*
X3538991Y-12280888D01*
X3538991Y-12280888D02*
X3529467Y-12299936D01*
X3529467Y-12299936D02*
X3519943Y-12309460D01*
X3519943Y-12309460D02*
X3500896Y-12318984D01*
X3500896Y-12318984D02*
X3462801Y-12318984D01*
X3462801Y-12318984D02*
X3443753Y-12309460D01*
X3624705Y-12299936D02*
X3634229Y-12309460D01*
X3634229Y-12309460D02*
X3624705Y-12318984D01*
X3624705Y-12318984D02*
X3615182Y-12309460D01*
X3615182Y-12309460D02*
X3624705Y-12299936D01*
X3624705Y-12299936D02*
X3624705Y-12318984D01*
X3624705Y-12195174D02*
X3634229Y-12204698D01*
X3634229Y-12204698D02*
X3624705Y-12214222D01*
X3624705Y-12214222D02*
X3615182Y-12204698D01*
X3615182Y-12204698D02*
X3624705Y-12195174D01*
X3624705Y-12195174D02*
X3624705Y-12214222D01*
X1792500Y-12547500D02*
X1992500Y-12747500D01*
X1992500Y-12547500D02*
X1792500Y-12747500D01*
X2234229Y-12538984D02*
X2358039Y-12538984D01*
X2358039Y-12538984D02*
X2291372Y-12615174D01*
X2291372Y-12615174D02*
X2319944Y-12615174D01*
X2319944Y-12615174D02*
X2338991Y-12624698D01*
X2338991Y-12624698D02*
X2348515Y-12634222D01*
X2348515Y-12634222D02*
X2358039Y-12653269D01*
X2358039Y-12653269D02*
X2358039Y-12700888D01*
X2358039Y-12700888D02*
X2348515Y-12719936D01*
X2348515Y-12719936D02*
X2338991Y-12729460D01*
X2338991Y-12729460D02*
X2319944Y-12738984D01*
X2319944Y-12738984D02*
X2262801Y-12738984D01*
X2262801Y-12738984D02*
X2243753Y-12729460D01*
X2243753Y-12729460D02*
X2234229Y-12719936D01*
X2443753Y-12719936D02*
X2453277Y-12729460D01*
X2453277Y-12729460D02*
X2443753Y-12738984D01*
X2443753Y-12738984D02*
X2434229Y-12729460D01*
X2434229Y-12729460D02*
X2443753Y-12719936D01*
X2443753Y-12719936D02*
X2443753Y-12738984D01*
X2529467Y-12558031D02*
X2538991Y-12548508D01*
X2538991Y-12548508D02*
X2558039Y-12538984D01*
X2558039Y-12538984D02*
X2605658Y-12538984D01*
X2605658Y-12538984D02*
X2624705Y-12548508D01*
X2624705Y-12548508D02*
X2634229Y-12558031D01*
X2634229Y-12558031D02*
X2643753Y-12577079D01*
X2643753Y-12577079D02*
X2643753Y-12596127D01*
X2643753Y-12596127D02*
X2634229Y-12624698D01*
X2634229Y-12624698D02*
X2519944Y-12738984D01*
X2519944Y-12738984D02*
X2643753Y-12738984D01*
X2767563Y-12538984D02*
X2786610Y-12538984D01*
X2786610Y-12538984D02*
X2805658Y-12548508D01*
X2805658Y-12548508D02*
X2815182Y-12558031D01*
X2815182Y-12558031D02*
X2824705Y-12577079D01*
X2824705Y-12577079D02*
X2834229Y-12615174D01*
X2834229Y-12615174D02*
X2834229Y-12662793D01*
X2834229Y-12662793D02*
X2824705Y-12700888D01*
X2824705Y-12700888D02*
X2815182Y-12719936D01*
X2815182Y-12719936D02*
X2805658Y-12729460D01*
X2805658Y-12729460D02*
X2786610Y-12738984D01*
X2786610Y-12738984D02*
X2767563Y-12738984D01*
X2767563Y-12738984D02*
X2748515Y-12729460D01*
X2748515Y-12729460D02*
X2738991Y-12719936D01*
X2738991Y-12719936D02*
X2729467Y-12700888D01*
X2729467Y-12700888D02*
X2719944Y-12662793D01*
X2719944Y-12662793D02*
X2719944Y-12615174D01*
X2719944Y-12615174D02*
X2729467Y-12577079D01*
X2729467Y-12577079D02*
X2738991Y-12558031D01*
X2738991Y-12558031D02*
X2748515Y-12548508D01*
X2748515Y-12548508D02*
X2767563Y-12538984D01*
X2958039Y-12538984D02*
X2977086Y-12538984D01*
X2977086Y-12538984D02*
X2996134Y-12548508D01*
X2996134Y-12548508D02*
X3005658Y-12558031D01*
X3005658Y-12558031D02*
X3015182Y-12577079D01*
X3015182Y-12577079D02*
X3024705Y-12615174D01*
X3024705Y-12615174D02*
X3024705Y-12662793D01*
X3024705Y-12662793D02*
X3015182Y-12700888D01*
X3015182Y-12700888D02*
X3005658Y-12719936D01*
X3005658Y-12719936D02*
X2996134Y-12729460D01*
X2996134Y-12729460D02*
X2977086Y-12738984D01*
X2977086Y-12738984D02*
X2958039Y-12738984D01*
X2958039Y-12738984D02*
X2938991Y-12729460D01*
X2938991Y-12729460D02*
X2929467Y-12719936D01*
X2929467Y-12719936D02*
X2919943Y-12700888D01*
X2919943Y-12700888D02*
X2910420Y-12662793D01*
X2910420Y-12662793D02*
X2910420Y-12615174D01*
X2910420Y-12615174D02*
X2919943Y-12577079D01*
X2919943Y-12577079D02*
X2929467Y-12558031D01*
X2929467Y-12558031D02*
X2938991Y-12548508D01*
X2938991Y-12548508D02*
X2958039Y-12538984D01*
X3110420Y-12738984D02*
X3110420Y-12605650D01*
X3110420Y-12624698D02*
X3119943Y-12615174D01*
X3119943Y-12615174D02*
X3138991Y-12605650D01*
X3138991Y-12605650D02*
X3167563Y-12605650D01*
X3167563Y-12605650D02*
X3186610Y-12615174D01*
X3186610Y-12615174D02*
X3196134Y-12634222D01*
X3196134Y-12634222D02*
X3196134Y-12738984D01*
X3196134Y-12634222D02*
X3205658Y-12615174D01*
X3205658Y-12615174D02*
X3224705Y-12605650D01*
X3224705Y-12605650D02*
X3253277Y-12605650D01*
X3253277Y-12605650D02*
X3272324Y-12615174D01*
X3272324Y-12615174D02*
X3281848Y-12634222D01*
X3281848Y-12634222D02*
X3281848Y-12738984D01*
X3377086Y-12738984D02*
X3377086Y-12605650D01*
X3377086Y-12624698D02*
X3386610Y-12615174D01*
X3386610Y-12615174D02*
X3405658Y-12605650D01*
X3405658Y-12605650D02*
X3434229Y-12605650D01*
X3434229Y-12605650D02*
X3453277Y-12615174D01*
X3453277Y-12615174D02*
X3462801Y-12634222D01*
X3462801Y-12634222D02*
X3462801Y-12738984D01*
X3462801Y-12634222D02*
X3472324Y-12615174D01*
X3472324Y-12615174D02*
X3491372Y-12605650D01*
X3491372Y-12605650D02*
X3519943Y-12605650D01*
X3519943Y-12605650D02*
X3538991Y-12615174D01*
X3538991Y-12615174D02*
X3548515Y-12634222D01*
X3548515Y-12634222D02*
X3548515Y-12738984D01*
X3938991Y-12529460D02*
X3767563Y-12786603D01*
X4196134Y-12538984D02*
X4215182Y-12538984D01*
X4215182Y-12538984D02*
X4234229Y-12548508D01*
X4234229Y-12548508D02*
X4243753Y-12558031D01*
X4243753Y-12558031D02*
X4253277Y-12577079D01*
X4253277Y-12577079D02*
X4262801Y-12615174D01*
X4262801Y-12615174D02*
X4262801Y-12662793D01*
X4262801Y-12662793D02*
X4253277Y-12700888D01*
X4253277Y-12700888D02*
X4243753Y-12719936D01*
X4243753Y-12719936D02*
X4234229Y-12729460D01*
X4234229Y-12729460D02*
X4215182Y-12738984D01*
X4215182Y-12738984D02*
X4196134Y-12738984D01*
X4196134Y-12738984D02*
X4177086Y-12729460D01*
X4177086Y-12729460D02*
X4167563Y-12719936D01*
X4167563Y-12719936D02*
X4158039Y-12700888D01*
X4158039Y-12700888D02*
X4148515Y-12662793D01*
X4148515Y-12662793D02*
X4148515Y-12615174D01*
X4148515Y-12615174D02*
X4158039Y-12577079D01*
X4158039Y-12577079D02*
X4167563Y-12558031D01*
X4167563Y-12558031D02*
X4177086Y-12548508D01*
X4177086Y-12548508D02*
X4196134Y-12538984D01*
X4348515Y-12719936D02*
X4358039Y-12729460D01*
X4358039Y-12729460D02*
X4348515Y-12738984D01*
X4348515Y-12738984D02*
X4338991Y-12729460D01*
X4338991Y-12729460D02*
X4348515Y-12719936D01*
X4348515Y-12719936D02*
X4348515Y-12738984D01*
X4548515Y-12738984D02*
X4434229Y-12738984D01*
X4491372Y-12738984D02*
X4491372Y-12538984D01*
X4491372Y-12538984D02*
X4472325Y-12567555D01*
X4472325Y-12567555D02*
X4453277Y-12586603D01*
X4453277Y-12586603D02*
X4434229Y-12596127D01*
X4624706Y-12558031D02*
X4634229Y-12548508D01*
X4634229Y-12548508D02*
X4653277Y-12538984D01*
X4653277Y-12538984D02*
X4700896Y-12538984D01*
X4700896Y-12538984D02*
X4719944Y-12548508D01*
X4719944Y-12548508D02*
X4729468Y-12558031D01*
X4729468Y-12558031D02*
X4738991Y-12577079D01*
X4738991Y-12577079D02*
X4738991Y-12596127D01*
X4738991Y-12596127D02*
X4729468Y-12624698D01*
X4729468Y-12624698D02*
X4615182Y-12738984D01*
X4615182Y-12738984D02*
X4738991Y-12738984D01*
X4910420Y-12538984D02*
X4872325Y-12538984D01*
X4872325Y-12538984D02*
X4853277Y-12548508D01*
X4853277Y-12548508D02*
X4843753Y-12558031D01*
X4843753Y-12558031D02*
X4824706Y-12586603D01*
X4824706Y-12586603D02*
X4815182Y-12624698D01*
X4815182Y-12624698D02*
X4815182Y-12700888D01*
X4815182Y-12700888D02*
X4824706Y-12719936D01*
X4824706Y-12719936D02*
X4834229Y-12729460D01*
X4834229Y-12729460D02*
X4853277Y-12738984D01*
X4853277Y-12738984D02*
X4891372Y-12738984D01*
X4891372Y-12738984D02*
X4910420Y-12729460D01*
X4910420Y-12729460D02*
X4919944Y-12719936D01*
X4919944Y-12719936D02*
X4929468Y-12700888D01*
X4929468Y-12700888D02*
X4929468Y-12653269D01*
X4929468Y-12653269D02*
X4919944Y-12634222D01*
X4919944Y-12634222D02*
X4910420Y-12624698D01*
X4910420Y-12624698D02*
X4891372Y-12615174D01*
X4891372Y-12615174D02*
X4853277Y-12615174D01*
X4853277Y-12615174D02*
X4834229Y-12624698D01*
X4834229Y-12624698D02*
X4824706Y-12634222D01*
X4824706Y-12634222D02*
X4815182Y-12653269D01*
X5053277Y-12538984D02*
X5072325Y-12538984D01*
X5072325Y-12538984D02*
X5091372Y-12548508D01*
X5091372Y-12548508D02*
X5100896Y-12558031D01*
X5100896Y-12558031D02*
X5110420Y-12577079D01*
X5110420Y-12577079D02*
X5119944Y-12615174D01*
X5119944Y-12615174D02*
X5119944Y-12662793D01*
X5119944Y-12662793D02*
X5110420Y-12700888D01*
X5110420Y-12700888D02*
X5100896Y-12719936D01*
X5100896Y-12719936D02*
X5091372Y-12729460D01*
X5091372Y-12729460D02*
X5072325Y-12738984D01*
X5072325Y-12738984D02*
X5053277Y-12738984D01*
X5053277Y-12738984D02*
X5034229Y-12729460D01*
X5034229Y-12729460D02*
X5024706Y-12719936D01*
X5024706Y-12719936D02*
X5015182Y-12700888D01*
X5015182Y-12700888D02*
X5005658Y-12662793D01*
X5005658Y-12662793D02*
X5005658Y-12615174D01*
X5005658Y-12615174D02*
X5015182Y-12577079D01*
X5015182Y-12577079D02*
X5024706Y-12558031D01*
X5024706Y-12558031D02*
X5034229Y-12548508D01*
X5034229Y-12548508D02*
X5053277Y-12538984D01*
X5196134Y-12538984D02*
X5196134Y-12577079D01*
X5272325Y-12538984D02*
X5272325Y-12577079D01*
X5567563Y-12815174D02*
X5558039Y-12805650D01*
X5558039Y-12805650D02*
X5538991Y-12777079D01*
X5538991Y-12777079D02*
X5529468Y-12758031D01*
X5529468Y-12758031D02*
X5519944Y-12729460D01*
X5519944Y-12729460D02*
X5510420Y-12681841D01*
X5510420Y-12681841D02*
X5510420Y-12643746D01*
X5510420Y-12643746D02*
X5519944Y-12596127D01*
X5519944Y-12596127D02*
X5529468Y-12567555D01*
X5529468Y-12567555D02*
X5538991Y-12548508D01*
X5538991Y-12548508D02*
X5558039Y-12519936D01*
X5558039Y-12519936D02*
X5567563Y-12510412D01*
X5634229Y-12558031D02*
X5643753Y-12548508D01*
X5643753Y-12548508D02*
X5662801Y-12538984D01*
X5662801Y-12538984D02*
X5710420Y-12538984D01*
X5710420Y-12538984D02*
X5729468Y-12548508D01*
X5729468Y-12548508D02*
X5738991Y-12558031D01*
X5738991Y-12558031D02*
X5748515Y-12577079D01*
X5748515Y-12577079D02*
X5748515Y-12596127D01*
X5748515Y-12596127D02*
X5738991Y-12624698D01*
X5738991Y-12624698D02*
X5624706Y-12738984D01*
X5624706Y-12738984D02*
X5748515Y-12738984D01*
X5986610Y-12738984D02*
X5986610Y-12538984D01*
X6072325Y-12738984D02*
X6072325Y-12634222D01*
X6072325Y-12634222D02*
X6062801Y-12615174D01*
X6062801Y-12615174D02*
X6043753Y-12605650D01*
X6043753Y-12605650D02*
X6015182Y-12605650D01*
X6015182Y-12605650D02*
X5996134Y-12615174D01*
X5996134Y-12615174D02*
X5986610Y-12624698D01*
X6196134Y-12738984D02*
X6177087Y-12729460D01*
X6177087Y-12729460D02*
X6167563Y-12719936D01*
X6167563Y-12719936D02*
X6158039Y-12700888D01*
X6158039Y-12700888D02*
X6158039Y-12643746D01*
X6158039Y-12643746D02*
X6167563Y-12624698D01*
X6167563Y-12624698D02*
X6177087Y-12615174D01*
X6177087Y-12615174D02*
X6196134Y-12605650D01*
X6196134Y-12605650D02*
X6224706Y-12605650D01*
X6224706Y-12605650D02*
X6243753Y-12615174D01*
X6243753Y-12615174D02*
X6253277Y-12624698D01*
X6253277Y-12624698D02*
X6262801Y-12643746D01*
X6262801Y-12643746D02*
X6262801Y-12700888D01*
X6262801Y-12700888D02*
X6253277Y-12719936D01*
X6253277Y-12719936D02*
X6243753Y-12729460D01*
X6243753Y-12729460D02*
X6224706Y-12738984D01*
X6224706Y-12738984D02*
X6196134Y-12738984D01*
X6377087Y-12738984D02*
X6358039Y-12729460D01*
X6358039Y-12729460D02*
X6348515Y-12710412D01*
X6348515Y-12710412D02*
X6348515Y-12538984D01*
X6529468Y-12729460D02*
X6510420Y-12738984D01*
X6510420Y-12738984D02*
X6472325Y-12738984D01*
X6472325Y-12738984D02*
X6453277Y-12729460D01*
X6453277Y-12729460D02*
X6443753Y-12710412D01*
X6443753Y-12710412D02*
X6443753Y-12634222D01*
X6443753Y-12634222D02*
X6453277Y-12615174D01*
X6453277Y-12615174D02*
X6472325Y-12605650D01*
X6472325Y-12605650D02*
X6510420Y-12605650D01*
X6510420Y-12605650D02*
X6529468Y-12615174D01*
X6529468Y-12615174D02*
X6538991Y-12634222D01*
X6538991Y-12634222D02*
X6538991Y-12653269D01*
X6538991Y-12653269D02*
X6443753Y-12672317D01*
X6615182Y-12729460D02*
X6634230Y-12738984D01*
X6634230Y-12738984D02*
X6672325Y-12738984D01*
X6672325Y-12738984D02*
X6691372Y-12729460D01*
X6691372Y-12729460D02*
X6700896Y-12710412D01*
X6700896Y-12710412D02*
X6700896Y-12700888D01*
X6700896Y-12700888D02*
X6691372Y-12681841D01*
X6691372Y-12681841D02*
X6672325Y-12672317D01*
X6672325Y-12672317D02*
X6643753Y-12672317D01*
X6643753Y-12672317D02*
X6624706Y-12662793D01*
X6624706Y-12662793D02*
X6615182Y-12643746D01*
X6615182Y-12643746D02*
X6615182Y-12634222D01*
X6615182Y-12634222D02*
X6624706Y-12615174D01*
X6624706Y-12615174D02*
X6643753Y-12605650D01*
X6643753Y-12605650D02*
X6672325Y-12605650D01*
X6672325Y-12605650D02*
X6691372Y-12615174D01*
X6767563Y-12815174D02*
X6777087Y-12805650D01*
X6777087Y-12805650D02*
X6796134Y-12777079D01*
X6796134Y-12777079D02*
X6805658Y-12758031D01*
X6805658Y-12758031D02*
X6815182Y-12729460D01*
X6815182Y-12729460D02*
X6824706Y-12681841D01*
X6824706Y-12681841D02*
X6824706Y-12643746D01*
X6824706Y-12643746D02*
X6815182Y-12596127D01*
X6815182Y-12596127D02*
X6805658Y-12567555D01*
X6805658Y-12567555D02*
X6796134Y-12548508D01*
X6796134Y-12548508D02*
X6777087Y-12519936D01*
X6777087Y-12519936D02*
X6767563Y-12510412D01*
X7129468Y-12815174D02*
X7119944Y-12805650D01*
X7119944Y-12805650D02*
X7100896Y-12777079D01*
X7100896Y-12777079D02*
X7091372Y-12758031D01*
X7091372Y-12758031D02*
X7081849Y-12729460D01*
X7081849Y-12729460D02*
X7072325Y-12681841D01*
X7072325Y-12681841D02*
X7072325Y-12643746D01*
X7072325Y-12643746D02*
X7081849Y-12596127D01*
X7081849Y-12596127D02*
X7091372Y-12567555D01*
X7091372Y-12567555D02*
X7100896Y-12548508D01*
X7100896Y-12548508D02*
X7119944Y-12519936D01*
X7119944Y-12519936D02*
X7129468Y-12510412D01*
X7205658Y-12605650D02*
X7205658Y-12738984D01*
X7205658Y-12624698D02*
X7215182Y-12615174D01*
X7215182Y-12615174D02*
X7234230Y-12605650D01*
X7234230Y-12605650D02*
X7262801Y-12605650D01*
X7262801Y-12605650D02*
X7281849Y-12615174D01*
X7281849Y-12615174D02*
X7291372Y-12634222D01*
X7291372Y-12634222D02*
X7291372Y-12738984D01*
X7415182Y-12738984D02*
X7396134Y-12729460D01*
X7396134Y-12729460D02*
X7386611Y-12719936D01*
X7386611Y-12719936D02*
X7377087Y-12700888D01*
X7377087Y-12700888D02*
X7377087Y-12643746D01*
X7377087Y-12643746D02*
X7386611Y-12624698D01*
X7386611Y-12624698D02*
X7396134Y-12615174D01*
X7396134Y-12615174D02*
X7415182Y-12605650D01*
X7415182Y-12605650D02*
X7443753Y-12605650D01*
X7443753Y-12605650D02*
X7462801Y-12615174D01*
X7462801Y-12615174D02*
X7472325Y-12624698D01*
X7472325Y-12624698D02*
X7481849Y-12643746D01*
X7481849Y-12643746D02*
X7481849Y-12700888D01*
X7481849Y-12700888D02*
X7472325Y-12719936D01*
X7472325Y-12719936D02*
X7462801Y-12729460D01*
X7462801Y-12729460D02*
X7443753Y-12738984D01*
X7443753Y-12738984D02*
X7415182Y-12738984D01*
X7538992Y-12605650D02*
X7615182Y-12605650D01*
X7567563Y-12538984D02*
X7567563Y-12710412D01*
X7567563Y-12710412D02*
X7577087Y-12729460D01*
X7577087Y-12729460D02*
X7596134Y-12738984D01*
X7596134Y-12738984D02*
X7615182Y-12738984D01*
X7834230Y-12605650D02*
X7834230Y-12805650D01*
X7834230Y-12615174D02*
X7853277Y-12605650D01*
X7853277Y-12605650D02*
X7891373Y-12605650D01*
X7891373Y-12605650D02*
X7910420Y-12615174D01*
X7910420Y-12615174D02*
X7919944Y-12624698D01*
X7919944Y-12624698D02*
X7929468Y-12643746D01*
X7929468Y-12643746D02*
X7929468Y-12700888D01*
X7929468Y-12700888D02*
X7919944Y-12719936D01*
X7919944Y-12719936D02*
X7910420Y-12729460D01*
X7910420Y-12729460D02*
X7891373Y-12738984D01*
X7891373Y-12738984D02*
X7853277Y-12738984D01*
X7853277Y-12738984D02*
X7834230Y-12729460D01*
X8043753Y-12738984D02*
X8024706Y-12729460D01*
X8024706Y-12729460D02*
X8015182Y-12710412D01*
X8015182Y-12710412D02*
X8015182Y-12538984D01*
X8205658Y-12738984D02*
X8205658Y-12634222D01*
X8205658Y-12634222D02*
X8196134Y-12615174D01*
X8196134Y-12615174D02*
X8177087Y-12605650D01*
X8177087Y-12605650D02*
X8138992Y-12605650D01*
X8138992Y-12605650D02*
X8119944Y-12615174D01*
X8205658Y-12729460D02*
X8186611Y-12738984D01*
X8186611Y-12738984D02*
X8138992Y-12738984D01*
X8138992Y-12738984D02*
X8119944Y-12729460D01*
X8119944Y-12729460D02*
X8110420Y-12710412D01*
X8110420Y-12710412D02*
X8110420Y-12691365D01*
X8110420Y-12691365D02*
X8119944Y-12672317D01*
X8119944Y-12672317D02*
X8138992Y-12662793D01*
X8138992Y-12662793D02*
X8186611Y-12662793D01*
X8186611Y-12662793D02*
X8205658Y-12653269D01*
X8272325Y-12605650D02*
X8348515Y-12605650D01*
X8300896Y-12538984D02*
X8300896Y-12710412D01*
X8300896Y-12710412D02*
X8310420Y-12729460D01*
X8310420Y-12729460D02*
X8329468Y-12738984D01*
X8329468Y-12738984D02*
X8348515Y-12738984D01*
X8491373Y-12729460D02*
X8472325Y-12738984D01*
X8472325Y-12738984D02*
X8434230Y-12738984D01*
X8434230Y-12738984D02*
X8415182Y-12729460D01*
X8415182Y-12729460D02*
X8405658Y-12710412D01*
X8405658Y-12710412D02*
X8405658Y-12634222D01*
X8405658Y-12634222D02*
X8415182Y-12615174D01*
X8415182Y-12615174D02*
X8434230Y-12605650D01*
X8434230Y-12605650D02*
X8472325Y-12605650D01*
X8472325Y-12605650D02*
X8491373Y-12615174D01*
X8491373Y-12615174D02*
X8500896Y-12634222D01*
X8500896Y-12634222D02*
X8500896Y-12653269D01*
X8500896Y-12653269D02*
X8405658Y-12672317D01*
X8672325Y-12738984D02*
X8672325Y-12538984D01*
X8672325Y-12729460D02*
X8653277Y-12738984D01*
X8653277Y-12738984D02*
X8615182Y-12738984D01*
X8615182Y-12738984D02*
X8596135Y-12729460D01*
X8596135Y-12729460D02*
X8586611Y-12719936D01*
X8586611Y-12719936D02*
X8577087Y-12700888D01*
X8577087Y-12700888D02*
X8577087Y-12643746D01*
X8577087Y-12643746D02*
X8586611Y-12624698D01*
X8586611Y-12624698D02*
X8596135Y-12615174D01*
X8596135Y-12615174D02*
X8615182Y-12605650D01*
X8615182Y-12605650D02*
X8653277Y-12605650D01*
X8653277Y-12605650D02*
X8672325Y-12615174D01*
X8748516Y-12815174D02*
X8758039Y-12805650D01*
X8758039Y-12805650D02*
X8777087Y-12777079D01*
X8777087Y-12777079D02*
X8786611Y-12758031D01*
X8786611Y-12758031D02*
X8796135Y-12729460D01*
X8796135Y-12729460D02*
X8805658Y-12681841D01*
X8805658Y-12681841D02*
X8805658Y-12643746D01*
X8805658Y-12643746D02*
X8796135Y-12596127D01*
X8796135Y-12596127D02*
X8786611Y-12567555D01*
X8786611Y-12567555D02*
X8777087Y-12548508D01*
X8777087Y-12548508D02*
X8758039Y-12519936D01*
X8758039Y-12519936D02*
X8748516Y-12510412D01*
M02*
