%TF.GenerationSoftware,KiCad,Pcbnew,7.0.9*%
%TF.CreationDate,2024-03-13T22:59:51+01:00*%
%TF.ProjectId,FCU_Mainboard_v2,4643555f-4d61-4696-9e62-6f6172645f76,rev?*%
%TF.SameCoordinates,Original*%
%TF.FileFunction,Legend,Bot*%
%TF.FilePolarity,Positive*%
%FSLAX46Y46*%
G04 Gerber Fmt 4.6, Leading zero omitted, Abs format (unit mm)*
G04 Created by KiCad (PCBNEW 7.0.9) date 2024-03-13 22:59:51*
%MOMM*%
%LPD*%
G01*
G04 APERTURE LIST*
%ADD10C,0.150000*%
G04 APERTURE END LIST*
D10*
X158789819Y-104035905D02*
X157789819Y-104035905D01*
X157789819Y-104035905D02*
X157789819Y-104274000D01*
X157789819Y-104274000D02*
X157837438Y-104416857D01*
X157837438Y-104416857D02*
X157932676Y-104512095D01*
X157932676Y-104512095D02*
X158027914Y-104559714D01*
X158027914Y-104559714D02*
X158218390Y-104607333D01*
X158218390Y-104607333D02*
X158361247Y-104607333D01*
X158361247Y-104607333D02*
X158551723Y-104559714D01*
X158551723Y-104559714D02*
X158646961Y-104512095D01*
X158646961Y-104512095D02*
X158742200Y-104416857D01*
X158742200Y-104416857D02*
X158789819Y-104274000D01*
X158789819Y-104274000D02*
X158789819Y-104035905D01*
X157789819Y-105226381D02*
X157789819Y-105321619D01*
X157789819Y-105321619D02*
X157837438Y-105416857D01*
X157837438Y-105416857D02*
X157885057Y-105464476D01*
X157885057Y-105464476D02*
X157980295Y-105512095D01*
X157980295Y-105512095D02*
X158170771Y-105559714D01*
X158170771Y-105559714D02*
X158408866Y-105559714D01*
X158408866Y-105559714D02*
X158599342Y-105512095D01*
X158599342Y-105512095D02*
X158694580Y-105464476D01*
X158694580Y-105464476D02*
X158742200Y-105416857D01*
X158742200Y-105416857D02*
X158789819Y-105321619D01*
X158789819Y-105321619D02*
X158789819Y-105226381D01*
X158789819Y-105226381D02*
X158742200Y-105131143D01*
X158742200Y-105131143D02*
X158694580Y-105083524D01*
X158694580Y-105083524D02*
X158599342Y-105035905D01*
X158599342Y-105035905D02*
X158408866Y-104988286D01*
X158408866Y-104988286D02*
X158170771Y-104988286D01*
X158170771Y-104988286D02*
X157980295Y-105035905D01*
X157980295Y-105035905D02*
X157885057Y-105083524D01*
X157885057Y-105083524D02*
X157837438Y-105131143D01*
X157837438Y-105131143D02*
X157789819Y-105226381D01*
X143835580Y-70356999D02*
X143883200Y-70309380D01*
X143883200Y-70309380D02*
X143930819Y-70356999D01*
X143930819Y-70356999D02*
X143883200Y-70404618D01*
X143883200Y-70404618D02*
X143835580Y-70356999D01*
X143835580Y-70356999D02*
X143930819Y-70356999D01*
M02*
