%TF.GenerationSoftware,KiCad,Pcbnew,7.0.9*%
%TF.CreationDate,2024-03-13T22:19:23+01:00*%
%TF.ProjectId,Backlighting_LEDModule_PCB,4261636b-6c69-4676-9874-696e675f4c45,rev?*%
%TF.SameCoordinates,Original*%
%TF.FileFunction,Drillmap*%
%TF.FilePolarity,Positive*%
%FSLAX45Y45*%
G04 Gerber Fmt 4.5, Leading zero omitted, Abs format (unit mm)*
G04 Created by KiCad (PCBNEW 7.0.9) date 2024-03-13 22:19:23*
%MOMM*%
%LPD*%
G01*
G04 APERTURE LIST*
%ADD10C,0.100000*%
%ADD11C,0.200000*%
%ADD12C,0.152000*%
%ADD13C,0.320000*%
G04 APERTURE END LIST*
D10*
X10050000Y-5225000D02*
X13275000Y-5225000D01*
X13275000Y-10725000D01*
X10050000Y-10725000D01*
X10050000Y-5225000D01*
D11*
D10*
X10925000Y-6150000D02*
X11025000Y-6250000D01*
X11025000Y-6150000D02*
X10925000Y-6250000D01*
X10925000Y-6925000D02*
X11025000Y-7025000D01*
X11025000Y-6925000D02*
X10925000Y-7025000D01*
X10925000Y-7700000D02*
X11025000Y-7800000D01*
X11025000Y-7700000D02*
X10925000Y-7800000D01*
X10925000Y-8475000D02*
X11025000Y-8575000D01*
X11025000Y-8475000D02*
X10925000Y-8575000D01*
X10925000Y-9250000D02*
X11025000Y-9350000D01*
X11025000Y-9250000D02*
X10925000Y-9350000D01*
X11175000Y-6150000D02*
X11275000Y-6250000D01*
X11275000Y-6150000D02*
X11175000Y-6250000D01*
X11175000Y-6925000D02*
X11275000Y-7025000D01*
X11275000Y-6925000D02*
X11175000Y-7025000D01*
X11175000Y-7700000D02*
X11275000Y-7800000D01*
X11275000Y-7700000D02*
X11175000Y-7800000D01*
X11175000Y-8475000D02*
X11275000Y-8575000D01*
X11275000Y-8475000D02*
X11175000Y-8575000D01*
X11175000Y-9250000D02*
X11275000Y-9350000D01*
X11275000Y-9250000D02*
X11175000Y-9350000D01*
X12025000Y-6150000D02*
X12125000Y-6250000D01*
X12125000Y-6150000D02*
X12025000Y-6250000D01*
X12025000Y-6925000D02*
X12125000Y-7025000D01*
X12125000Y-6925000D02*
X12025000Y-7025000D01*
X12025000Y-7700000D02*
X12125000Y-7800000D01*
X12125000Y-7700000D02*
X12025000Y-7800000D01*
X12025000Y-8475000D02*
X12125000Y-8575000D01*
X12125000Y-8475000D02*
X12025000Y-8575000D01*
X12025000Y-9250000D02*
X12125000Y-9350000D01*
X12125000Y-9250000D02*
X12025000Y-9350000D01*
X12275000Y-6150000D02*
X12375000Y-6250000D01*
X12375000Y-6150000D02*
X12275000Y-6250000D01*
X12275000Y-6925000D02*
X12375000Y-7025000D01*
X12375000Y-6925000D02*
X12275000Y-7025000D01*
X12275000Y-7700000D02*
X12375000Y-7800000D01*
X12375000Y-7700000D02*
X12275000Y-7800000D01*
X12275000Y-8475000D02*
X12375000Y-8575000D01*
X12375000Y-8475000D02*
X12275000Y-8575000D01*
X12275000Y-9250000D02*
X12375000Y-9350000D01*
X12375000Y-9250000D02*
X12275000Y-9350000D01*
D12*
X11601000Y-10225000D02*
G75*
G03*
X11601000Y-10225000I-76000J0D01*
G01*
X12109000Y-10225000D02*
G75*
G03*
X12109000Y-10225000I-76000J0D01*
G01*
D13*
X10550000Y-10115000D02*
X10550000Y-10435000D01*
X10390000Y-10275000D02*
X10710000Y-10275000D01*
X11675000Y-5390000D02*
X11675000Y-5710000D01*
X11515000Y-5550000D02*
X11835000Y-5550000D01*
X12775000Y-10090000D02*
X12775000Y-10410000D01*
X12615000Y-10250000D02*
X12935000Y-10250000D01*
D11*
X10305777Y-11041484D02*
X10305777Y-10841484D01*
X10305777Y-10841484D02*
X10353396Y-10841484D01*
X10353396Y-10841484D02*
X10381967Y-10851008D01*
X10381967Y-10851008D02*
X10401015Y-10870055D01*
X10401015Y-10870055D02*
X10410539Y-10889103D01*
X10410539Y-10889103D02*
X10420063Y-10927198D01*
X10420063Y-10927198D02*
X10420063Y-10955770D01*
X10420063Y-10955770D02*
X10410539Y-10993865D01*
X10410539Y-10993865D02*
X10401015Y-11012912D01*
X10401015Y-11012912D02*
X10381967Y-11031960D01*
X10381967Y-11031960D02*
X10353396Y-11041484D01*
X10353396Y-11041484D02*
X10305777Y-11041484D01*
X10505777Y-11041484D02*
X10505777Y-10908150D01*
X10505777Y-10946246D02*
X10515301Y-10927198D01*
X10515301Y-10927198D02*
X10524824Y-10917674D01*
X10524824Y-10917674D02*
X10543872Y-10908150D01*
X10543872Y-10908150D02*
X10562920Y-10908150D01*
X10629586Y-11041484D02*
X10629586Y-10908150D01*
X10629586Y-10841484D02*
X10620063Y-10851008D01*
X10620063Y-10851008D02*
X10629586Y-10860531D01*
X10629586Y-10860531D02*
X10639110Y-10851008D01*
X10639110Y-10851008D02*
X10629586Y-10841484D01*
X10629586Y-10841484D02*
X10629586Y-10860531D01*
X10753396Y-11041484D02*
X10734348Y-11031960D01*
X10734348Y-11031960D02*
X10724824Y-11012912D01*
X10724824Y-11012912D02*
X10724824Y-10841484D01*
X10858158Y-11041484D02*
X10839110Y-11031960D01*
X10839110Y-11031960D02*
X10829586Y-11012912D01*
X10829586Y-11012912D02*
X10829586Y-10841484D01*
X11086729Y-11041484D02*
X11086729Y-10841484D01*
X11086729Y-10841484D02*
X11153396Y-10984341D01*
X11153396Y-10984341D02*
X11220062Y-10841484D01*
X11220062Y-10841484D02*
X11220062Y-11041484D01*
X11401015Y-11041484D02*
X11401015Y-10936722D01*
X11401015Y-10936722D02*
X11391491Y-10917674D01*
X11391491Y-10917674D02*
X11372443Y-10908150D01*
X11372443Y-10908150D02*
X11334348Y-10908150D01*
X11334348Y-10908150D02*
X11315301Y-10917674D01*
X11401015Y-11031960D02*
X11381967Y-11041484D01*
X11381967Y-11041484D02*
X11334348Y-11041484D01*
X11334348Y-11041484D02*
X11315301Y-11031960D01*
X11315301Y-11031960D02*
X11305777Y-11012912D01*
X11305777Y-11012912D02*
X11305777Y-10993865D01*
X11305777Y-10993865D02*
X11315301Y-10974817D01*
X11315301Y-10974817D02*
X11334348Y-10965293D01*
X11334348Y-10965293D02*
X11381967Y-10965293D01*
X11381967Y-10965293D02*
X11401015Y-10955770D01*
X11496253Y-10908150D02*
X11496253Y-11108150D01*
X11496253Y-10917674D02*
X11515301Y-10908150D01*
X11515301Y-10908150D02*
X11553396Y-10908150D01*
X11553396Y-10908150D02*
X11572443Y-10917674D01*
X11572443Y-10917674D02*
X11581967Y-10927198D01*
X11581967Y-10927198D02*
X11591491Y-10946246D01*
X11591491Y-10946246D02*
X11591491Y-11003389D01*
X11591491Y-11003389D02*
X11581967Y-11022436D01*
X11581967Y-11022436D02*
X11572443Y-11031960D01*
X11572443Y-11031960D02*
X11553396Y-11041484D01*
X11553396Y-11041484D02*
X11515301Y-11041484D01*
X11515301Y-11041484D02*
X11496253Y-11031960D01*
X11677205Y-11022436D02*
X11686729Y-11031960D01*
X11686729Y-11031960D02*
X11677205Y-11041484D01*
X11677205Y-11041484D02*
X11667682Y-11031960D01*
X11667682Y-11031960D02*
X11677205Y-11022436D01*
X11677205Y-11022436D02*
X11677205Y-11041484D01*
X11677205Y-10917674D02*
X11686729Y-10927198D01*
X11686729Y-10927198D02*
X11677205Y-10936722D01*
X11677205Y-10936722D02*
X11667682Y-10927198D01*
X11667682Y-10927198D02*
X11677205Y-10917674D01*
X11677205Y-10917674D02*
X11677205Y-10936722D01*
D10*
X9945000Y-11320000D02*
X10045000Y-11420000D01*
X10045000Y-11320000D02*
X9945000Y-11420000D01*
D11*
X10410539Y-11461484D02*
X10296253Y-11461484D01*
X10353396Y-11461484D02*
X10353396Y-11261484D01*
X10353396Y-11261484D02*
X10334348Y-11290055D01*
X10334348Y-11290055D02*
X10315301Y-11309103D01*
X10315301Y-11309103D02*
X10296253Y-11318627D01*
X10496253Y-11442436D02*
X10505777Y-11451960D01*
X10505777Y-11451960D02*
X10496253Y-11461484D01*
X10496253Y-11461484D02*
X10486729Y-11451960D01*
X10486729Y-11451960D02*
X10496253Y-11442436D01*
X10496253Y-11442436D02*
X10496253Y-11461484D01*
X10629586Y-11261484D02*
X10648634Y-11261484D01*
X10648634Y-11261484D02*
X10667682Y-11271008D01*
X10667682Y-11271008D02*
X10677205Y-11280531D01*
X10677205Y-11280531D02*
X10686729Y-11299579D01*
X10686729Y-11299579D02*
X10696253Y-11337674D01*
X10696253Y-11337674D02*
X10696253Y-11385293D01*
X10696253Y-11385293D02*
X10686729Y-11423388D01*
X10686729Y-11423388D02*
X10677205Y-11442436D01*
X10677205Y-11442436D02*
X10667682Y-11451960D01*
X10667682Y-11451960D02*
X10648634Y-11461484D01*
X10648634Y-11461484D02*
X10629586Y-11461484D01*
X10629586Y-11461484D02*
X10610539Y-11451960D01*
X10610539Y-11451960D02*
X10601015Y-11442436D01*
X10601015Y-11442436D02*
X10591491Y-11423388D01*
X10591491Y-11423388D02*
X10581967Y-11385293D01*
X10581967Y-11385293D02*
X10581967Y-11337674D01*
X10581967Y-11337674D02*
X10591491Y-11299579D01*
X10591491Y-11299579D02*
X10601015Y-11280531D01*
X10601015Y-11280531D02*
X10610539Y-11271008D01*
X10610539Y-11271008D02*
X10629586Y-11261484D01*
X10820063Y-11261484D02*
X10839110Y-11261484D01*
X10839110Y-11261484D02*
X10858158Y-11271008D01*
X10858158Y-11271008D02*
X10867682Y-11280531D01*
X10867682Y-11280531D02*
X10877205Y-11299579D01*
X10877205Y-11299579D02*
X10886729Y-11337674D01*
X10886729Y-11337674D02*
X10886729Y-11385293D01*
X10886729Y-11385293D02*
X10877205Y-11423388D01*
X10877205Y-11423388D02*
X10867682Y-11442436D01*
X10867682Y-11442436D02*
X10858158Y-11451960D01*
X10858158Y-11451960D02*
X10839110Y-11461484D01*
X10839110Y-11461484D02*
X10820063Y-11461484D01*
X10820063Y-11461484D02*
X10801015Y-11451960D01*
X10801015Y-11451960D02*
X10791491Y-11442436D01*
X10791491Y-11442436D02*
X10781967Y-11423388D01*
X10781967Y-11423388D02*
X10772444Y-11385293D01*
X10772444Y-11385293D02*
X10772444Y-11337674D01*
X10772444Y-11337674D02*
X10781967Y-11299579D01*
X10781967Y-11299579D02*
X10791491Y-11280531D01*
X10791491Y-11280531D02*
X10801015Y-11271008D01*
X10801015Y-11271008D02*
X10820063Y-11261484D01*
X11010539Y-11261484D02*
X11029586Y-11261484D01*
X11029586Y-11261484D02*
X11048634Y-11271008D01*
X11048634Y-11271008D02*
X11058158Y-11280531D01*
X11058158Y-11280531D02*
X11067682Y-11299579D01*
X11067682Y-11299579D02*
X11077205Y-11337674D01*
X11077205Y-11337674D02*
X11077205Y-11385293D01*
X11077205Y-11385293D02*
X11067682Y-11423388D01*
X11067682Y-11423388D02*
X11058158Y-11442436D01*
X11058158Y-11442436D02*
X11048634Y-11451960D01*
X11048634Y-11451960D02*
X11029586Y-11461484D01*
X11029586Y-11461484D02*
X11010539Y-11461484D01*
X11010539Y-11461484D02*
X10991491Y-11451960D01*
X10991491Y-11451960D02*
X10981967Y-11442436D01*
X10981967Y-11442436D02*
X10972444Y-11423388D01*
X10972444Y-11423388D02*
X10962920Y-11385293D01*
X10962920Y-11385293D02*
X10962920Y-11337674D01*
X10962920Y-11337674D02*
X10972444Y-11299579D01*
X10972444Y-11299579D02*
X10981967Y-11280531D01*
X10981967Y-11280531D02*
X10991491Y-11271008D01*
X10991491Y-11271008D02*
X11010539Y-11261484D01*
X11162920Y-11461484D02*
X11162920Y-11328150D01*
X11162920Y-11347198D02*
X11172444Y-11337674D01*
X11172444Y-11337674D02*
X11191491Y-11328150D01*
X11191491Y-11328150D02*
X11220063Y-11328150D01*
X11220063Y-11328150D02*
X11239110Y-11337674D01*
X11239110Y-11337674D02*
X11248634Y-11356722D01*
X11248634Y-11356722D02*
X11248634Y-11461484D01*
X11248634Y-11356722D02*
X11258158Y-11337674D01*
X11258158Y-11337674D02*
X11277205Y-11328150D01*
X11277205Y-11328150D02*
X11305777Y-11328150D01*
X11305777Y-11328150D02*
X11324824Y-11337674D01*
X11324824Y-11337674D02*
X11334348Y-11356722D01*
X11334348Y-11356722D02*
X11334348Y-11461484D01*
X11429586Y-11461484D02*
X11429586Y-11328150D01*
X11429586Y-11347198D02*
X11439110Y-11337674D01*
X11439110Y-11337674D02*
X11458158Y-11328150D01*
X11458158Y-11328150D02*
X11486729Y-11328150D01*
X11486729Y-11328150D02*
X11505777Y-11337674D01*
X11505777Y-11337674D02*
X11515301Y-11356722D01*
X11515301Y-11356722D02*
X11515301Y-11461484D01*
X11515301Y-11356722D02*
X11524824Y-11337674D01*
X11524824Y-11337674D02*
X11543872Y-11328150D01*
X11543872Y-11328150D02*
X11572443Y-11328150D01*
X11572443Y-11328150D02*
X11591491Y-11337674D01*
X11591491Y-11337674D02*
X11601015Y-11356722D01*
X11601015Y-11356722D02*
X11601015Y-11461484D01*
X11991491Y-11251960D02*
X11820063Y-11509103D01*
X12248634Y-11261484D02*
X12267682Y-11261484D01*
X12267682Y-11261484D02*
X12286729Y-11271008D01*
X12286729Y-11271008D02*
X12296253Y-11280531D01*
X12296253Y-11280531D02*
X12305777Y-11299579D01*
X12305777Y-11299579D02*
X12315301Y-11337674D01*
X12315301Y-11337674D02*
X12315301Y-11385293D01*
X12315301Y-11385293D02*
X12305777Y-11423388D01*
X12305777Y-11423388D02*
X12296253Y-11442436D01*
X12296253Y-11442436D02*
X12286729Y-11451960D01*
X12286729Y-11451960D02*
X12267682Y-11461484D01*
X12267682Y-11461484D02*
X12248634Y-11461484D01*
X12248634Y-11461484D02*
X12229586Y-11451960D01*
X12229586Y-11451960D02*
X12220063Y-11442436D01*
X12220063Y-11442436D02*
X12210539Y-11423388D01*
X12210539Y-11423388D02*
X12201015Y-11385293D01*
X12201015Y-11385293D02*
X12201015Y-11337674D01*
X12201015Y-11337674D02*
X12210539Y-11299579D01*
X12210539Y-11299579D02*
X12220063Y-11280531D01*
X12220063Y-11280531D02*
X12229586Y-11271008D01*
X12229586Y-11271008D02*
X12248634Y-11261484D01*
X12401015Y-11442436D02*
X12410539Y-11451960D01*
X12410539Y-11451960D02*
X12401015Y-11461484D01*
X12401015Y-11461484D02*
X12391491Y-11451960D01*
X12391491Y-11451960D02*
X12401015Y-11442436D01*
X12401015Y-11442436D02*
X12401015Y-11461484D01*
X12534348Y-11261484D02*
X12553396Y-11261484D01*
X12553396Y-11261484D02*
X12572444Y-11271008D01*
X12572444Y-11271008D02*
X12581967Y-11280531D01*
X12581967Y-11280531D02*
X12591491Y-11299579D01*
X12591491Y-11299579D02*
X12601015Y-11337674D01*
X12601015Y-11337674D02*
X12601015Y-11385293D01*
X12601015Y-11385293D02*
X12591491Y-11423388D01*
X12591491Y-11423388D02*
X12581967Y-11442436D01*
X12581967Y-11442436D02*
X12572444Y-11451960D01*
X12572444Y-11451960D02*
X12553396Y-11461484D01*
X12553396Y-11461484D02*
X12534348Y-11461484D01*
X12534348Y-11461484D02*
X12515301Y-11451960D01*
X12515301Y-11451960D02*
X12505777Y-11442436D01*
X12505777Y-11442436D02*
X12496253Y-11423388D01*
X12496253Y-11423388D02*
X12486729Y-11385293D01*
X12486729Y-11385293D02*
X12486729Y-11337674D01*
X12486729Y-11337674D02*
X12496253Y-11299579D01*
X12496253Y-11299579D02*
X12505777Y-11280531D01*
X12505777Y-11280531D02*
X12515301Y-11271008D01*
X12515301Y-11271008D02*
X12534348Y-11261484D01*
X12667682Y-11261484D02*
X12791491Y-11261484D01*
X12791491Y-11261484D02*
X12724825Y-11337674D01*
X12724825Y-11337674D02*
X12753396Y-11337674D01*
X12753396Y-11337674D02*
X12772444Y-11347198D01*
X12772444Y-11347198D02*
X12781967Y-11356722D01*
X12781967Y-11356722D02*
X12791491Y-11375769D01*
X12791491Y-11375769D02*
X12791491Y-11423388D01*
X12791491Y-11423388D02*
X12781967Y-11442436D01*
X12781967Y-11442436D02*
X12772444Y-11451960D01*
X12772444Y-11451960D02*
X12753396Y-11461484D01*
X12753396Y-11461484D02*
X12696253Y-11461484D01*
X12696253Y-11461484D02*
X12677206Y-11451960D01*
X12677206Y-11451960D02*
X12667682Y-11442436D01*
X12886729Y-11461484D02*
X12924825Y-11461484D01*
X12924825Y-11461484D02*
X12943872Y-11451960D01*
X12943872Y-11451960D02*
X12953396Y-11442436D01*
X12953396Y-11442436D02*
X12972444Y-11413865D01*
X12972444Y-11413865D02*
X12981967Y-11375769D01*
X12981967Y-11375769D02*
X12981967Y-11299579D01*
X12981967Y-11299579D02*
X12972444Y-11280531D01*
X12972444Y-11280531D02*
X12962920Y-11271008D01*
X12962920Y-11271008D02*
X12943872Y-11261484D01*
X12943872Y-11261484D02*
X12905777Y-11261484D01*
X12905777Y-11261484D02*
X12886729Y-11271008D01*
X12886729Y-11271008D02*
X12877206Y-11280531D01*
X12877206Y-11280531D02*
X12867682Y-11299579D01*
X12867682Y-11299579D02*
X12867682Y-11347198D01*
X12867682Y-11347198D02*
X12877206Y-11366246D01*
X12877206Y-11366246D02*
X12886729Y-11375769D01*
X12886729Y-11375769D02*
X12905777Y-11385293D01*
X12905777Y-11385293D02*
X12943872Y-11385293D01*
X12943872Y-11385293D02*
X12962920Y-11375769D01*
X12962920Y-11375769D02*
X12972444Y-11366246D01*
X12972444Y-11366246D02*
X12981967Y-11347198D01*
X13153396Y-11328150D02*
X13153396Y-11461484D01*
X13105777Y-11251960D02*
X13058158Y-11394817D01*
X13058158Y-11394817D02*
X13181967Y-11394817D01*
X13248634Y-11261484D02*
X13248634Y-11299579D01*
X13324825Y-11261484D02*
X13324825Y-11299579D01*
X13620063Y-11537674D02*
X13610539Y-11528150D01*
X13610539Y-11528150D02*
X13591491Y-11499579D01*
X13591491Y-11499579D02*
X13581968Y-11480531D01*
X13581968Y-11480531D02*
X13572444Y-11451960D01*
X13572444Y-11451960D02*
X13562920Y-11404341D01*
X13562920Y-11404341D02*
X13562920Y-11366246D01*
X13562920Y-11366246D02*
X13572444Y-11318627D01*
X13572444Y-11318627D02*
X13581968Y-11290055D01*
X13581968Y-11290055D02*
X13591491Y-11271008D01*
X13591491Y-11271008D02*
X13610539Y-11242436D01*
X13610539Y-11242436D02*
X13620063Y-11232912D01*
X13686729Y-11280531D02*
X13696253Y-11271008D01*
X13696253Y-11271008D02*
X13715301Y-11261484D01*
X13715301Y-11261484D02*
X13762920Y-11261484D01*
X13762920Y-11261484D02*
X13781968Y-11271008D01*
X13781968Y-11271008D02*
X13791491Y-11280531D01*
X13791491Y-11280531D02*
X13801015Y-11299579D01*
X13801015Y-11299579D02*
X13801015Y-11318627D01*
X13801015Y-11318627D02*
X13791491Y-11347198D01*
X13791491Y-11347198D02*
X13677206Y-11461484D01*
X13677206Y-11461484D02*
X13801015Y-11461484D01*
X13924825Y-11261484D02*
X13943872Y-11261484D01*
X13943872Y-11261484D02*
X13962920Y-11271008D01*
X13962920Y-11271008D02*
X13972444Y-11280531D01*
X13972444Y-11280531D02*
X13981968Y-11299579D01*
X13981968Y-11299579D02*
X13991491Y-11337674D01*
X13991491Y-11337674D02*
X13991491Y-11385293D01*
X13991491Y-11385293D02*
X13981968Y-11423388D01*
X13981968Y-11423388D02*
X13972444Y-11442436D01*
X13972444Y-11442436D02*
X13962920Y-11451960D01*
X13962920Y-11451960D02*
X13943872Y-11461484D01*
X13943872Y-11461484D02*
X13924825Y-11461484D01*
X13924825Y-11461484D02*
X13905777Y-11451960D01*
X13905777Y-11451960D02*
X13896253Y-11442436D01*
X13896253Y-11442436D02*
X13886729Y-11423388D01*
X13886729Y-11423388D02*
X13877206Y-11385293D01*
X13877206Y-11385293D02*
X13877206Y-11337674D01*
X13877206Y-11337674D02*
X13886729Y-11299579D01*
X13886729Y-11299579D02*
X13896253Y-11280531D01*
X13896253Y-11280531D02*
X13905777Y-11271008D01*
X13905777Y-11271008D02*
X13924825Y-11261484D01*
X14229587Y-11461484D02*
X14229587Y-11261484D01*
X14315301Y-11461484D02*
X14315301Y-11356722D01*
X14315301Y-11356722D02*
X14305777Y-11337674D01*
X14305777Y-11337674D02*
X14286730Y-11328150D01*
X14286730Y-11328150D02*
X14258158Y-11328150D01*
X14258158Y-11328150D02*
X14239110Y-11337674D01*
X14239110Y-11337674D02*
X14229587Y-11347198D01*
X14439110Y-11461484D02*
X14420063Y-11451960D01*
X14420063Y-11451960D02*
X14410539Y-11442436D01*
X14410539Y-11442436D02*
X14401015Y-11423388D01*
X14401015Y-11423388D02*
X14401015Y-11366246D01*
X14401015Y-11366246D02*
X14410539Y-11347198D01*
X14410539Y-11347198D02*
X14420063Y-11337674D01*
X14420063Y-11337674D02*
X14439110Y-11328150D01*
X14439110Y-11328150D02*
X14467682Y-11328150D01*
X14467682Y-11328150D02*
X14486730Y-11337674D01*
X14486730Y-11337674D02*
X14496253Y-11347198D01*
X14496253Y-11347198D02*
X14505777Y-11366246D01*
X14505777Y-11366246D02*
X14505777Y-11423388D01*
X14505777Y-11423388D02*
X14496253Y-11442436D01*
X14496253Y-11442436D02*
X14486730Y-11451960D01*
X14486730Y-11451960D02*
X14467682Y-11461484D01*
X14467682Y-11461484D02*
X14439110Y-11461484D01*
X14620063Y-11461484D02*
X14601015Y-11451960D01*
X14601015Y-11451960D02*
X14591491Y-11432912D01*
X14591491Y-11432912D02*
X14591491Y-11261484D01*
X14772444Y-11451960D02*
X14753396Y-11461484D01*
X14753396Y-11461484D02*
X14715301Y-11461484D01*
X14715301Y-11461484D02*
X14696253Y-11451960D01*
X14696253Y-11451960D02*
X14686730Y-11432912D01*
X14686730Y-11432912D02*
X14686730Y-11356722D01*
X14686730Y-11356722D02*
X14696253Y-11337674D01*
X14696253Y-11337674D02*
X14715301Y-11328150D01*
X14715301Y-11328150D02*
X14753396Y-11328150D01*
X14753396Y-11328150D02*
X14772444Y-11337674D01*
X14772444Y-11337674D02*
X14781968Y-11356722D01*
X14781968Y-11356722D02*
X14781968Y-11375769D01*
X14781968Y-11375769D02*
X14686730Y-11394817D01*
X14858158Y-11451960D02*
X14877206Y-11461484D01*
X14877206Y-11461484D02*
X14915301Y-11461484D01*
X14915301Y-11461484D02*
X14934349Y-11451960D01*
X14934349Y-11451960D02*
X14943872Y-11432912D01*
X14943872Y-11432912D02*
X14943872Y-11423388D01*
X14943872Y-11423388D02*
X14934349Y-11404341D01*
X14934349Y-11404341D02*
X14915301Y-11394817D01*
X14915301Y-11394817D02*
X14886730Y-11394817D01*
X14886730Y-11394817D02*
X14867682Y-11385293D01*
X14867682Y-11385293D02*
X14858158Y-11366246D01*
X14858158Y-11366246D02*
X14858158Y-11356722D01*
X14858158Y-11356722D02*
X14867682Y-11337674D01*
X14867682Y-11337674D02*
X14886730Y-11328150D01*
X14886730Y-11328150D02*
X14915301Y-11328150D01*
X14915301Y-11328150D02*
X14934349Y-11337674D01*
X15010539Y-11537674D02*
X15020063Y-11528150D01*
X15020063Y-11528150D02*
X15039111Y-11499579D01*
X15039111Y-11499579D02*
X15048634Y-11480531D01*
X15048634Y-11480531D02*
X15058158Y-11451960D01*
X15058158Y-11451960D02*
X15067682Y-11404341D01*
X15067682Y-11404341D02*
X15067682Y-11366246D01*
X15067682Y-11366246D02*
X15058158Y-11318627D01*
X15058158Y-11318627D02*
X15048634Y-11290055D01*
X15048634Y-11290055D02*
X15039111Y-11271008D01*
X15039111Y-11271008D02*
X15020063Y-11242436D01*
X15020063Y-11242436D02*
X15010539Y-11232912D01*
D12*
X10045000Y-11634000D02*
G75*
G03*
X10045000Y-11634000I-76000J0D01*
G01*
D11*
X10410539Y-11725484D02*
X10296253Y-11725484D01*
X10353396Y-11725484D02*
X10353396Y-11525484D01*
X10353396Y-11525484D02*
X10334348Y-11554055D01*
X10334348Y-11554055D02*
X10315301Y-11573103D01*
X10315301Y-11573103D02*
X10296253Y-11582627D01*
X10496253Y-11706436D02*
X10505777Y-11715960D01*
X10505777Y-11715960D02*
X10496253Y-11725484D01*
X10496253Y-11725484D02*
X10486729Y-11715960D01*
X10486729Y-11715960D02*
X10496253Y-11706436D01*
X10496253Y-11706436D02*
X10496253Y-11725484D01*
X10686729Y-11525484D02*
X10591491Y-11525484D01*
X10591491Y-11525484D02*
X10581967Y-11620722D01*
X10581967Y-11620722D02*
X10591491Y-11611198D01*
X10591491Y-11611198D02*
X10610539Y-11601674D01*
X10610539Y-11601674D02*
X10658158Y-11601674D01*
X10658158Y-11601674D02*
X10677205Y-11611198D01*
X10677205Y-11611198D02*
X10686729Y-11620722D01*
X10686729Y-11620722D02*
X10696253Y-11639769D01*
X10696253Y-11639769D02*
X10696253Y-11687388D01*
X10696253Y-11687388D02*
X10686729Y-11706436D01*
X10686729Y-11706436D02*
X10677205Y-11715960D01*
X10677205Y-11715960D02*
X10658158Y-11725484D01*
X10658158Y-11725484D02*
X10610539Y-11725484D01*
X10610539Y-11725484D02*
X10591491Y-11715960D01*
X10591491Y-11715960D02*
X10581967Y-11706436D01*
X10772444Y-11544531D02*
X10781967Y-11535008D01*
X10781967Y-11535008D02*
X10801015Y-11525484D01*
X10801015Y-11525484D02*
X10848634Y-11525484D01*
X10848634Y-11525484D02*
X10867682Y-11535008D01*
X10867682Y-11535008D02*
X10877205Y-11544531D01*
X10877205Y-11544531D02*
X10886729Y-11563579D01*
X10886729Y-11563579D02*
X10886729Y-11582627D01*
X10886729Y-11582627D02*
X10877205Y-11611198D01*
X10877205Y-11611198D02*
X10762920Y-11725484D01*
X10762920Y-11725484D02*
X10886729Y-11725484D01*
X11010539Y-11525484D02*
X11029586Y-11525484D01*
X11029586Y-11525484D02*
X11048634Y-11535008D01*
X11048634Y-11535008D02*
X11058158Y-11544531D01*
X11058158Y-11544531D02*
X11067682Y-11563579D01*
X11067682Y-11563579D02*
X11077205Y-11601674D01*
X11077205Y-11601674D02*
X11077205Y-11649293D01*
X11077205Y-11649293D02*
X11067682Y-11687388D01*
X11067682Y-11687388D02*
X11058158Y-11706436D01*
X11058158Y-11706436D02*
X11048634Y-11715960D01*
X11048634Y-11715960D02*
X11029586Y-11725484D01*
X11029586Y-11725484D02*
X11010539Y-11725484D01*
X11010539Y-11725484D02*
X10991491Y-11715960D01*
X10991491Y-11715960D02*
X10981967Y-11706436D01*
X10981967Y-11706436D02*
X10972444Y-11687388D01*
X10972444Y-11687388D02*
X10962920Y-11649293D01*
X10962920Y-11649293D02*
X10962920Y-11601674D01*
X10962920Y-11601674D02*
X10972444Y-11563579D01*
X10972444Y-11563579D02*
X10981967Y-11544531D01*
X10981967Y-11544531D02*
X10991491Y-11535008D01*
X10991491Y-11535008D02*
X11010539Y-11525484D01*
X11162920Y-11725484D02*
X11162920Y-11592150D01*
X11162920Y-11611198D02*
X11172444Y-11601674D01*
X11172444Y-11601674D02*
X11191491Y-11592150D01*
X11191491Y-11592150D02*
X11220063Y-11592150D01*
X11220063Y-11592150D02*
X11239110Y-11601674D01*
X11239110Y-11601674D02*
X11248634Y-11620722D01*
X11248634Y-11620722D02*
X11248634Y-11725484D01*
X11248634Y-11620722D02*
X11258158Y-11601674D01*
X11258158Y-11601674D02*
X11277205Y-11592150D01*
X11277205Y-11592150D02*
X11305777Y-11592150D01*
X11305777Y-11592150D02*
X11324824Y-11601674D01*
X11324824Y-11601674D02*
X11334348Y-11620722D01*
X11334348Y-11620722D02*
X11334348Y-11725484D01*
X11429586Y-11725484D02*
X11429586Y-11592150D01*
X11429586Y-11611198D02*
X11439110Y-11601674D01*
X11439110Y-11601674D02*
X11458158Y-11592150D01*
X11458158Y-11592150D02*
X11486729Y-11592150D01*
X11486729Y-11592150D02*
X11505777Y-11601674D01*
X11505777Y-11601674D02*
X11515301Y-11620722D01*
X11515301Y-11620722D02*
X11515301Y-11725484D01*
X11515301Y-11620722D02*
X11524824Y-11601674D01*
X11524824Y-11601674D02*
X11543872Y-11592150D01*
X11543872Y-11592150D02*
X11572443Y-11592150D01*
X11572443Y-11592150D02*
X11591491Y-11601674D01*
X11591491Y-11601674D02*
X11601015Y-11620722D01*
X11601015Y-11620722D02*
X11601015Y-11725484D01*
X11991491Y-11515960D02*
X11820063Y-11773103D01*
X12248634Y-11525484D02*
X12267682Y-11525484D01*
X12267682Y-11525484D02*
X12286729Y-11535008D01*
X12286729Y-11535008D02*
X12296253Y-11544531D01*
X12296253Y-11544531D02*
X12305777Y-11563579D01*
X12305777Y-11563579D02*
X12315301Y-11601674D01*
X12315301Y-11601674D02*
X12315301Y-11649293D01*
X12315301Y-11649293D02*
X12305777Y-11687388D01*
X12305777Y-11687388D02*
X12296253Y-11706436D01*
X12296253Y-11706436D02*
X12286729Y-11715960D01*
X12286729Y-11715960D02*
X12267682Y-11725484D01*
X12267682Y-11725484D02*
X12248634Y-11725484D01*
X12248634Y-11725484D02*
X12229586Y-11715960D01*
X12229586Y-11715960D02*
X12220063Y-11706436D01*
X12220063Y-11706436D02*
X12210539Y-11687388D01*
X12210539Y-11687388D02*
X12201015Y-11649293D01*
X12201015Y-11649293D02*
X12201015Y-11601674D01*
X12201015Y-11601674D02*
X12210539Y-11563579D01*
X12210539Y-11563579D02*
X12220063Y-11544531D01*
X12220063Y-11544531D02*
X12229586Y-11535008D01*
X12229586Y-11535008D02*
X12248634Y-11525484D01*
X12401015Y-11706436D02*
X12410539Y-11715960D01*
X12410539Y-11715960D02*
X12401015Y-11725484D01*
X12401015Y-11725484D02*
X12391491Y-11715960D01*
X12391491Y-11715960D02*
X12401015Y-11706436D01*
X12401015Y-11706436D02*
X12401015Y-11725484D01*
X12534348Y-11525484D02*
X12553396Y-11525484D01*
X12553396Y-11525484D02*
X12572444Y-11535008D01*
X12572444Y-11535008D02*
X12581967Y-11544531D01*
X12581967Y-11544531D02*
X12591491Y-11563579D01*
X12591491Y-11563579D02*
X12601015Y-11601674D01*
X12601015Y-11601674D02*
X12601015Y-11649293D01*
X12601015Y-11649293D02*
X12591491Y-11687388D01*
X12591491Y-11687388D02*
X12581967Y-11706436D01*
X12581967Y-11706436D02*
X12572444Y-11715960D01*
X12572444Y-11715960D02*
X12553396Y-11725484D01*
X12553396Y-11725484D02*
X12534348Y-11725484D01*
X12534348Y-11725484D02*
X12515301Y-11715960D01*
X12515301Y-11715960D02*
X12505777Y-11706436D01*
X12505777Y-11706436D02*
X12496253Y-11687388D01*
X12496253Y-11687388D02*
X12486729Y-11649293D01*
X12486729Y-11649293D02*
X12486729Y-11601674D01*
X12486729Y-11601674D02*
X12496253Y-11563579D01*
X12496253Y-11563579D02*
X12505777Y-11544531D01*
X12505777Y-11544531D02*
X12515301Y-11535008D01*
X12515301Y-11535008D02*
X12534348Y-11525484D01*
X12781967Y-11525484D02*
X12686729Y-11525484D01*
X12686729Y-11525484D02*
X12677206Y-11620722D01*
X12677206Y-11620722D02*
X12686729Y-11611198D01*
X12686729Y-11611198D02*
X12705777Y-11601674D01*
X12705777Y-11601674D02*
X12753396Y-11601674D01*
X12753396Y-11601674D02*
X12772444Y-11611198D01*
X12772444Y-11611198D02*
X12781967Y-11620722D01*
X12781967Y-11620722D02*
X12791491Y-11639769D01*
X12791491Y-11639769D02*
X12791491Y-11687388D01*
X12791491Y-11687388D02*
X12781967Y-11706436D01*
X12781967Y-11706436D02*
X12772444Y-11715960D01*
X12772444Y-11715960D02*
X12753396Y-11725484D01*
X12753396Y-11725484D02*
X12705777Y-11725484D01*
X12705777Y-11725484D02*
X12686729Y-11715960D01*
X12686729Y-11715960D02*
X12677206Y-11706436D01*
X12886729Y-11725484D02*
X12924825Y-11725484D01*
X12924825Y-11725484D02*
X12943872Y-11715960D01*
X12943872Y-11715960D02*
X12953396Y-11706436D01*
X12953396Y-11706436D02*
X12972444Y-11677865D01*
X12972444Y-11677865D02*
X12981967Y-11639769D01*
X12981967Y-11639769D02*
X12981967Y-11563579D01*
X12981967Y-11563579D02*
X12972444Y-11544531D01*
X12972444Y-11544531D02*
X12962920Y-11535008D01*
X12962920Y-11535008D02*
X12943872Y-11525484D01*
X12943872Y-11525484D02*
X12905777Y-11525484D01*
X12905777Y-11525484D02*
X12886729Y-11535008D01*
X12886729Y-11535008D02*
X12877206Y-11544531D01*
X12877206Y-11544531D02*
X12867682Y-11563579D01*
X12867682Y-11563579D02*
X12867682Y-11611198D01*
X12867682Y-11611198D02*
X12877206Y-11630246D01*
X12877206Y-11630246D02*
X12886729Y-11639769D01*
X12886729Y-11639769D02*
X12905777Y-11649293D01*
X12905777Y-11649293D02*
X12943872Y-11649293D01*
X12943872Y-11649293D02*
X12962920Y-11639769D01*
X12962920Y-11639769D02*
X12972444Y-11630246D01*
X12972444Y-11630246D02*
X12981967Y-11611198D01*
X13096253Y-11611198D02*
X13077206Y-11601674D01*
X13077206Y-11601674D02*
X13067682Y-11592150D01*
X13067682Y-11592150D02*
X13058158Y-11573103D01*
X13058158Y-11573103D02*
X13058158Y-11563579D01*
X13058158Y-11563579D02*
X13067682Y-11544531D01*
X13067682Y-11544531D02*
X13077206Y-11535008D01*
X13077206Y-11535008D02*
X13096253Y-11525484D01*
X13096253Y-11525484D02*
X13134348Y-11525484D01*
X13134348Y-11525484D02*
X13153396Y-11535008D01*
X13153396Y-11535008D02*
X13162920Y-11544531D01*
X13162920Y-11544531D02*
X13172444Y-11563579D01*
X13172444Y-11563579D02*
X13172444Y-11573103D01*
X13172444Y-11573103D02*
X13162920Y-11592150D01*
X13162920Y-11592150D02*
X13153396Y-11601674D01*
X13153396Y-11601674D02*
X13134348Y-11611198D01*
X13134348Y-11611198D02*
X13096253Y-11611198D01*
X13096253Y-11611198D02*
X13077206Y-11620722D01*
X13077206Y-11620722D02*
X13067682Y-11630246D01*
X13067682Y-11630246D02*
X13058158Y-11649293D01*
X13058158Y-11649293D02*
X13058158Y-11687388D01*
X13058158Y-11687388D02*
X13067682Y-11706436D01*
X13067682Y-11706436D02*
X13077206Y-11715960D01*
X13077206Y-11715960D02*
X13096253Y-11725484D01*
X13096253Y-11725484D02*
X13134348Y-11725484D01*
X13134348Y-11725484D02*
X13153396Y-11715960D01*
X13153396Y-11715960D02*
X13162920Y-11706436D01*
X13162920Y-11706436D02*
X13172444Y-11687388D01*
X13172444Y-11687388D02*
X13172444Y-11649293D01*
X13172444Y-11649293D02*
X13162920Y-11630246D01*
X13162920Y-11630246D02*
X13153396Y-11620722D01*
X13153396Y-11620722D02*
X13134348Y-11611198D01*
X13248634Y-11525484D02*
X13248634Y-11563579D01*
X13324825Y-11525484D02*
X13324825Y-11563579D01*
X13620063Y-11801674D02*
X13610539Y-11792150D01*
X13610539Y-11792150D02*
X13591491Y-11763579D01*
X13591491Y-11763579D02*
X13581968Y-11744531D01*
X13581968Y-11744531D02*
X13572444Y-11715960D01*
X13572444Y-11715960D02*
X13562920Y-11668341D01*
X13562920Y-11668341D02*
X13562920Y-11630246D01*
X13562920Y-11630246D02*
X13572444Y-11582627D01*
X13572444Y-11582627D02*
X13581968Y-11554055D01*
X13581968Y-11554055D02*
X13591491Y-11535008D01*
X13591491Y-11535008D02*
X13610539Y-11506436D01*
X13610539Y-11506436D02*
X13620063Y-11496912D01*
X13686729Y-11544531D02*
X13696253Y-11535008D01*
X13696253Y-11535008D02*
X13715301Y-11525484D01*
X13715301Y-11525484D02*
X13762920Y-11525484D01*
X13762920Y-11525484D02*
X13781968Y-11535008D01*
X13781968Y-11535008D02*
X13791491Y-11544531D01*
X13791491Y-11544531D02*
X13801015Y-11563579D01*
X13801015Y-11563579D02*
X13801015Y-11582627D01*
X13801015Y-11582627D02*
X13791491Y-11611198D01*
X13791491Y-11611198D02*
X13677206Y-11725484D01*
X13677206Y-11725484D02*
X13801015Y-11725484D01*
X14039110Y-11725484D02*
X14039110Y-11525484D01*
X14124825Y-11725484D02*
X14124825Y-11620722D01*
X14124825Y-11620722D02*
X14115301Y-11601674D01*
X14115301Y-11601674D02*
X14096253Y-11592150D01*
X14096253Y-11592150D02*
X14067682Y-11592150D01*
X14067682Y-11592150D02*
X14048634Y-11601674D01*
X14048634Y-11601674D02*
X14039110Y-11611198D01*
X14248634Y-11725484D02*
X14229587Y-11715960D01*
X14229587Y-11715960D02*
X14220063Y-11706436D01*
X14220063Y-11706436D02*
X14210539Y-11687388D01*
X14210539Y-11687388D02*
X14210539Y-11630246D01*
X14210539Y-11630246D02*
X14220063Y-11611198D01*
X14220063Y-11611198D02*
X14229587Y-11601674D01*
X14229587Y-11601674D02*
X14248634Y-11592150D01*
X14248634Y-11592150D02*
X14277206Y-11592150D01*
X14277206Y-11592150D02*
X14296253Y-11601674D01*
X14296253Y-11601674D02*
X14305777Y-11611198D01*
X14305777Y-11611198D02*
X14315301Y-11630246D01*
X14315301Y-11630246D02*
X14315301Y-11687388D01*
X14315301Y-11687388D02*
X14305777Y-11706436D01*
X14305777Y-11706436D02*
X14296253Y-11715960D01*
X14296253Y-11715960D02*
X14277206Y-11725484D01*
X14277206Y-11725484D02*
X14248634Y-11725484D01*
X14429587Y-11725484D02*
X14410539Y-11715960D01*
X14410539Y-11715960D02*
X14401015Y-11696912D01*
X14401015Y-11696912D02*
X14401015Y-11525484D01*
X14581968Y-11715960D02*
X14562920Y-11725484D01*
X14562920Y-11725484D02*
X14524825Y-11725484D01*
X14524825Y-11725484D02*
X14505777Y-11715960D01*
X14505777Y-11715960D02*
X14496253Y-11696912D01*
X14496253Y-11696912D02*
X14496253Y-11620722D01*
X14496253Y-11620722D02*
X14505777Y-11601674D01*
X14505777Y-11601674D02*
X14524825Y-11592150D01*
X14524825Y-11592150D02*
X14562920Y-11592150D01*
X14562920Y-11592150D02*
X14581968Y-11601674D01*
X14581968Y-11601674D02*
X14591491Y-11620722D01*
X14591491Y-11620722D02*
X14591491Y-11639769D01*
X14591491Y-11639769D02*
X14496253Y-11658817D01*
X14667682Y-11715960D02*
X14686730Y-11725484D01*
X14686730Y-11725484D02*
X14724825Y-11725484D01*
X14724825Y-11725484D02*
X14743872Y-11715960D01*
X14743872Y-11715960D02*
X14753396Y-11696912D01*
X14753396Y-11696912D02*
X14753396Y-11687388D01*
X14753396Y-11687388D02*
X14743872Y-11668341D01*
X14743872Y-11668341D02*
X14724825Y-11658817D01*
X14724825Y-11658817D02*
X14696253Y-11658817D01*
X14696253Y-11658817D02*
X14677206Y-11649293D01*
X14677206Y-11649293D02*
X14667682Y-11630246D01*
X14667682Y-11630246D02*
X14667682Y-11620722D01*
X14667682Y-11620722D02*
X14677206Y-11601674D01*
X14677206Y-11601674D02*
X14696253Y-11592150D01*
X14696253Y-11592150D02*
X14724825Y-11592150D01*
X14724825Y-11592150D02*
X14743872Y-11601674D01*
X14820063Y-11801674D02*
X14829587Y-11792150D01*
X14829587Y-11792150D02*
X14848634Y-11763579D01*
X14848634Y-11763579D02*
X14858158Y-11744531D01*
X14858158Y-11744531D02*
X14867682Y-11715960D01*
X14867682Y-11715960D02*
X14877206Y-11668341D01*
X14877206Y-11668341D02*
X14877206Y-11630246D01*
X14877206Y-11630246D02*
X14867682Y-11582627D01*
X14867682Y-11582627D02*
X14858158Y-11554055D01*
X14858158Y-11554055D02*
X14848634Y-11535008D01*
X14848634Y-11535008D02*
X14829587Y-11506436D01*
X14829587Y-11506436D02*
X14820063Y-11496912D01*
X9945000Y-11806000D02*
X9945000Y-12006000D01*
X9845000Y-11906000D02*
X10045000Y-11906000D01*
X10286729Y-11797484D02*
X10410539Y-11797484D01*
X10410539Y-11797484D02*
X10343872Y-11873674D01*
X10343872Y-11873674D02*
X10372444Y-11873674D01*
X10372444Y-11873674D02*
X10391491Y-11883198D01*
X10391491Y-11883198D02*
X10401015Y-11892722D01*
X10401015Y-11892722D02*
X10410539Y-11911769D01*
X10410539Y-11911769D02*
X10410539Y-11959388D01*
X10410539Y-11959388D02*
X10401015Y-11978436D01*
X10401015Y-11978436D02*
X10391491Y-11987960D01*
X10391491Y-11987960D02*
X10372444Y-11997484D01*
X10372444Y-11997484D02*
X10315301Y-11997484D01*
X10315301Y-11997484D02*
X10296253Y-11987960D01*
X10296253Y-11987960D02*
X10286729Y-11978436D01*
X10496253Y-11978436D02*
X10505777Y-11987960D01*
X10505777Y-11987960D02*
X10496253Y-11997484D01*
X10496253Y-11997484D02*
X10486729Y-11987960D01*
X10486729Y-11987960D02*
X10496253Y-11978436D01*
X10496253Y-11978436D02*
X10496253Y-11997484D01*
X10581967Y-11816531D02*
X10591491Y-11807008D01*
X10591491Y-11807008D02*
X10610539Y-11797484D01*
X10610539Y-11797484D02*
X10658158Y-11797484D01*
X10658158Y-11797484D02*
X10677205Y-11807008D01*
X10677205Y-11807008D02*
X10686729Y-11816531D01*
X10686729Y-11816531D02*
X10696253Y-11835579D01*
X10696253Y-11835579D02*
X10696253Y-11854627D01*
X10696253Y-11854627D02*
X10686729Y-11883198D01*
X10686729Y-11883198D02*
X10572444Y-11997484D01*
X10572444Y-11997484D02*
X10696253Y-11997484D01*
X10820063Y-11797484D02*
X10839110Y-11797484D01*
X10839110Y-11797484D02*
X10858158Y-11807008D01*
X10858158Y-11807008D02*
X10867682Y-11816531D01*
X10867682Y-11816531D02*
X10877205Y-11835579D01*
X10877205Y-11835579D02*
X10886729Y-11873674D01*
X10886729Y-11873674D02*
X10886729Y-11921293D01*
X10886729Y-11921293D02*
X10877205Y-11959388D01*
X10877205Y-11959388D02*
X10867682Y-11978436D01*
X10867682Y-11978436D02*
X10858158Y-11987960D01*
X10858158Y-11987960D02*
X10839110Y-11997484D01*
X10839110Y-11997484D02*
X10820063Y-11997484D01*
X10820063Y-11997484D02*
X10801015Y-11987960D01*
X10801015Y-11987960D02*
X10791491Y-11978436D01*
X10791491Y-11978436D02*
X10781967Y-11959388D01*
X10781967Y-11959388D02*
X10772444Y-11921293D01*
X10772444Y-11921293D02*
X10772444Y-11873674D01*
X10772444Y-11873674D02*
X10781967Y-11835579D01*
X10781967Y-11835579D02*
X10791491Y-11816531D01*
X10791491Y-11816531D02*
X10801015Y-11807008D01*
X10801015Y-11807008D02*
X10820063Y-11797484D01*
X11010539Y-11797484D02*
X11029586Y-11797484D01*
X11029586Y-11797484D02*
X11048634Y-11807008D01*
X11048634Y-11807008D02*
X11058158Y-11816531D01*
X11058158Y-11816531D02*
X11067682Y-11835579D01*
X11067682Y-11835579D02*
X11077205Y-11873674D01*
X11077205Y-11873674D02*
X11077205Y-11921293D01*
X11077205Y-11921293D02*
X11067682Y-11959388D01*
X11067682Y-11959388D02*
X11058158Y-11978436D01*
X11058158Y-11978436D02*
X11048634Y-11987960D01*
X11048634Y-11987960D02*
X11029586Y-11997484D01*
X11029586Y-11997484D02*
X11010539Y-11997484D01*
X11010539Y-11997484D02*
X10991491Y-11987960D01*
X10991491Y-11987960D02*
X10981967Y-11978436D01*
X10981967Y-11978436D02*
X10972444Y-11959388D01*
X10972444Y-11959388D02*
X10962920Y-11921293D01*
X10962920Y-11921293D02*
X10962920Y-11873674D01*
X10962920Y-11873674D02*
X10972444Y-11835579D01*
X10972444Y-11835579D02*
X10981967Y-11816531D01*
X10981967Y-11816531D02*
X10991491Y-11807008D01*
X10991491Y-11807008D02*
X11010539Y-11797484D01*
X11162920Y-11997484D02*
X11162920Y-11864150D01*
X11162920Y-11883198D02*
X11172444Y-11873674D01*
X11172444Y-11873674D02*
X11191491Y-11864150D01*
X11191491Y-11864150D02*
X11220063Y-11864150D01*
X11220063Y-11864150D02*
X11239110Y-11873674D01*
X11239110Y-11873674D02*
X11248634Y-11892722D01*
X11248634Y-11892722D02*
X11248634Y-11997484D01*
X11248634Y-11892722D02*
X11258158Y-11873674D01*
X11258158Y-11873674D02*
X11277205Y-11864150D01*
X11277205Y-11864150D02*
X11305777Y-11864150D01*
X11305777Y-11864150D02*
X11324824Y-11873674D01*
X11324824Y-11873674D02*
X11334348Y-11892722D01*
X11334348Y-11892722D02*
X11334348Y-11997484D01*
X11429586Y-11997484D02*
X11429586Y-11864150D01*
X11429586Y-11883198D02*
X11439110Y-11873674D01*
X11439110Y-11873674D02*
X11458158Y-11864150D01*
X11458158Y-11864150D02*
X11486729Y-11864150D01*
X11486729Y-11864150D02*
X11505777Y-11873674D01*
X11505777Y-11873674D02*
X11515301Y-11892722D01*
X11515301Y-11892722D02*
X11515301Y-11997484D01*
X11515301Y-11892722D02*
X11524824Y-11873674D01*
X11524824Y-11873674D02*
X11543872Y-11864150D01*
X11543872Y-11864150D02*
X11572443Y-11864150D01*
X11572443Y-11864150D02*
X11591491Y-11873674D01*
X11591491Y-11873674D02*
X11601015Y-11892722D01*
X11601015Y-11892722D02*
X11601015Y-11997484D01*
X11991491Y-11787960D02*
X11820063Y-12045103D01*
X12248634Y-11797484D02*
X12267682Y-11797484D01*
X12267682Y-11797484D02*
X12286729Y-11807008D01*
X12286729Y-11807008D02*
X12296253Y-11816531D01*
X12296253Y-11816531D02*
X12305777Y-11835579D01*
X12305777Y-11835579D02*
X12315301Y-11873674D01*
X12315301Y-11873674D02*
X12315301Y-11921293D01*
X12315301Y-11921293D02*
X12305777Y-11959388D01*
X12305777Y-11959388D02*
X12296253Y-11978436D01*
X12296253Y-11978436D02*
X12286729Y-11987960D01*
X12286729Y-11987960D02*
X12267682Y-11997484D01*
X12267682Y-11997484D02*
X12248634Y-11997484D01*
X12248634Y-11997484D02*
X12229586Y-11987960D01*
X12229586Y-11987960D02*
X12220063Y-11978436D01*
X12220063Y-11978436D02*
X12210539Y-11959388D01*
X12210539Y-11959388D02*
X12201015Y-11921293D01*
X12201015Y-11921293D02*
X12201015Y-11873674D01*
X12201015Y-11873674D02*
X12210539Y-11835579D01*
X12210539Y-11835579D02*
X12220063Y-11816531D01*
X12220063Y-11816531D02*
X12229586Y-11807008D01*
X12229586Y-11807008D02*
X12248634Y-11797484D01*
X12401015Y-11978436D02*
X12410539Y-11987960D01*
X12410539Y-11987960D02*
X12401015Y-11997484D01*
X12401015Y-11997484D02*
X12391491Y-11987960D01*
X12391491Y-11987960D02*
X12401015Y-11978436D01*
X12401015Y-11978436D02*
X12401015Y-11997484D01*
X12601015Y-11997484D02*
X12486729Y-11997484D01*
X12543872Y-11997484D02*
X12543872Y-11797484D01*
X12543872Y-11797484D02*
X12524825Y-11826055D01*
X12524825Y-11826055D02*
X12505777Y-11845103D01*
X12505777Y-11845103D02*
X12486729Y-11854627D01*
X12677206Y-11816531D02*
X12686729Y-11807008D01*
X12686729Y-11807008D02*
X12705777Y-11797484D01*
X12705777Y-11797484D02*
X12753396Y-11797484D01*
X12753396Y-11797484D02*
X12772444Y-11807008D01*
X12772444Y-11807008D02*
X12781967Y-11816531D01*
X12781967Y-11816531D02*
X12791491Y-11835579D01*
X12791491Y-11835579D02*
X12791491Y-11854627D01*
X12791491Y-11854627D02*
X12781967Y-11883198D01*
X12781967Y-11883198D02*
X12667682Y-11997484D01*
X12667682Y-11997484D02*
X12791491Y-11997484D01*
X12962920Y-11797484D02*
X12924825Y-11797484D01*
X12924825Y-11797484D02*
X12905777Y-11807008D01*
X12905777Y-11807008D02*
X12896253Y-11816531D01*
X12896253Y-11816531D02*
X12877206Y-11845103D01*
X12877206Y-11845103D02*
X12867682Y-11883198D01*
X12867682Y-11883198D02*
X12867682Y-11959388D01*
X12867682Y-11959388D02*
X12877206Y-11978436D01*
X12877206Y-11978436D02*
X12886729Y-11987960D01*
X12886729Y-11987960D02*
X12905777Y-11997484D01*
X12905777Y-11997484D02*
X12943872Y-11997484D01*
X12943872Y-11997484D02*
X12962920Y-11987960D01*
X12962920Y-11987960D02*
X12972444Y-11978436D01*
X12972444Y-11978436D02*
X12981967Y-11959388D01*
X12981967Y-11959388D02*
X12981967Y-11911769D01*
X12981967Y-11911769D02*
X12972444Y-11892722D01*
X12972444Y-11892722D02*
X12962920Y-11883198D01*
X12962920Y-11883198D02*
X12943872Y-11873674D01*
X12943872Y-11873674D02*
X12905777Y-11873674D01*
X12905777Y-11873674D02*
X12886729Y-11883198D01*
X12886729Y-11883198D02*
X12877206Y-11892722D01*
X12877206Y-11892722D02*
X12867682Y-11911769D01*
X13105777Y-11797484D02*
X13124825Y-11797484D01*
X13124825Y-11797484D02*
X13143872Y-11807008D01*
X13143872Y-11807008D02*
X13153396Y-11816531D01*
X13153396Y-11816531D02*
X13162920Y-11835579D01*
X13162920Y-11835579D02*
X13172444Y-11873674D01*
X13172444Y-11873674D02*
X13172444Y-11921293D01*
X13172444Y-11921293D02*
X13162920Y-11959388D01*
X13162920Y-11959388D02*
X13153396Y-11978436D01*
X13153396Y-11978436D02*
X13143872Y-11987960D01*
X13143872Y-11987960D02*
X13124825Y-11997484D01*
X13124825Y-11997484D02*
X13105777Y-11997484D01*
X13105777Y-11997484D02*
X13086729Y-11987960D01*
X13086729Y-11987960D02*
X13077206Y-11978436D01*
X13077206Y-11978436D02*
X13067682Y-11959388D01*
X13067682Y-11959388D02*
X13058158Y-11921293D01*
X13058158Y-11921293D02*
X13058158Y-11873674D01*
X13058158Y-11873674D02*
X13067682Y-11835579D01*
X13067682Y-11835579D02*
X13077206Y-11816531D01*
X13077206Y-11816531D02*
X13086729Y-11807008D01*
X13086729Y-11807008D02*
X13105777Y-11797484D01*
X13248634Y-11797484D02*
X13248634Y-11835579D01*
X13324825Y-11797484D02*
X13324825Y-11835579D01*
X13620063Y-12073674D02*
X13610539Y-12064150D01*
X13610539Y-12064150D02*
X13591491Y-12035579D01*
X13591491Y-12035579D02*
X13581968Y-12016531D01*
X13581968Y-12016531D02*
X13572444Y-11987960D01*
X13572444Y-11987960D02*
X13562920Y-11940341D01*
X13562920Y-11940341D02*
X13562920Y-11902246D01*
X13562920Y-11902246D02*
X13572444Y-11854627D01*
X13572444Y-11854627D02*
X13581968Y-11826055D01*
X13581968Y-11826055D02*
X13591491Y-11807008D01*
X13591491Y-11807008D02*
X13610539Y-11778436D01*
X13610539Y-11778436D02*
X13620063Y-11768912D01*
X13677206Y-11797484D02*
X13801015Y-11797484D01*
X13801015Y-11797484D02*
X13734348Y-11873674D01*
X13734348Y-11873674D02*
X13762920Y-11873674D01*
X13762920Y-11873674D02*
X13781968Y-11883198D01*
X13781968Y-11883198D02*
X13791491Y-11892722D01*
X13791491Y-11892722D02*
X13801015Y-11911769D01*
X13801015Y-11911769D02*
X13801015Y-11959388D01*
X13801015Y-11959388D02*
X13791491Y-11978436D01*
X13791491Y-11978436D02*
X13781968Y-11987960D01*
X13781968Y-11987960D02*
X13762920Y-11997484D01*
X13762920Y-11997484D02*
X13705777Y-11997484D01*
X13705777Y-11997484D02*
X13686729Y-11987960D01*
X13686729Y-11987960D02*
X13677206Y-11978436D01*
X14039110Y-11997484D02*
X14039110Y-11797484D01*
X14124825Y-11997484D02*
X14124825Y-11892722D01*
X14124825Y-11892722D02*
X14115301Y-11873674D01*
X14115301Y-11873674D02*
X14096253Y-11864150D01*
X14096253Y-11864150D02*
X14067682Y-11864150D01*
X14067682Y-11864150D02*
X14048634Y-11873674D01*
X14048634Y-11873674D02*
X14039110Y-11883198D01*
X14248634Y-11997484D02*
X14229587Y-11987960D01*
X14229587Y-11987960D02*
X14220063Y-11978436D01*
X14220063Y-11978436D02*
X14210539Y-11959388D01*
X14210539Y-11959388D02*
X14210539Y-11902246D01*
X14210539Y-11902246D02*
X14220063Y-11883198D01*
X14220063Y-11883198D02*
X14229587Y-11873674D01*
X14229587Y-11873674D02*
X14248634Y-11864150D01*
X14248634Y-11864150D02*
X14277206Y-11864150D01*
X14277206Y-11864150D02*
X14296253Y-11873674D01*
X14296253Y-11873674D02*
X14305777Y-11883198D01*
X14305777Y-11883198D02*
X14315301Y-11902246D01*
X14315301Y-11902246D02*
X14315301Y-11959388D01*
X14315301Y-11959388D02*
X14305777Y-11978436D01*
X14305777Y-11978436D02*
X14296253Y-11987960D01*
X14296253Y-11987960D02*
X14277206Y-11997484D01*
X14277206Y-11997484D02*
X14248634Y-11997484D01*
X14429587Y-11997484D02*
X14410539Y-11987960D01*
X14410539Y-11987960D02*
X14401015Y-11968912D01*
X14401015Y-11968912D02*
X14401015Y-11797484D01*
X14581968Y-11987960D02*
X14562920Y-11997484D01*
X14562920Y-11997484D02*
X14524825Y-11997484D01*
X14524825Y-11997484D02*
X14505777Y-11987960D01*
X14505777Y-11987960D02*
X14496253Y-11968912D01*
X14496253Y-11968912D02*
X14496253Y-11892722D01*
X14496253Y-11892722D02*
X14505777Y-11873674D01*
X14505777Y-11873674D02*
X14524825Y-11864150D01*
X14524825Y-11864150D02*
X14562920Y-11864150D01*
X14562920Y-11864150D02*
X14581968Y-11873674D01*
X14581968Y-11873674D02*
X14591491Y-11892722D01*
X14591491Y-11892722D02*
X14591491Y-11911769D01*
X14591491Y-11911769D02*
X14496253Y-11930817D01*
X14667682Y-11987960D02*
X14686730Y-11997484D01*
X14686730Y-11997484D02*
X14724825Y-11997484D01*
X14724825Y-11997484D02*
X14743872Y-11987960D01*
X14743872Y-11987960D02*
X14753396Y-11968912D01*
X14753396Y-11968912D02*
X14753396Y-11959388D01*
X14753396Y-11959388D02*
X14743872Y-11940341D01*
X14743872Y-11940341D02*
X14724825Y-11930817D01*
X14724825Y-11930817D02*
X14696253Y-11930817D01*
X14696253Y-11930817D02*
X14677206Y-11921293D01*
X14677206Y-11921293D02*
X14667682Y-11902246D01*
X14667682Y-11902246D02*
X14667682Y-11892722D01*
X14667682Y-11892722D02*
X14677206Y-11873674D01*
X14677206Y-11873674D02*
X14696253Y-11864150D01*
X14696253Y-11864150D02*
X14724825Y-11864150D01*
X14724825Y-11864150D02*
X14743872Y-11873674D01*
X14820063Y-12073674D02*
X14829587Y-12064150D01*
X14829587Y-12064150D02*
X14848634Y-12035579D01*
X14848634Y-12035579D02*
X14858158Y-12016531D01*
X14858158Y-12016531D02*
X14867682Y-11987960D01*
X14867682Y-11987960D02*
X14877206Y-11940341D01*
X14877206Y-11940341D02*
X14877206Y-11902246D01*
X14877206Y-11902246D02*
X14867682Y-11854627D01*
X14867682Y-11854627D02*
X14858158Y-11826055D01*
X14858158Y-11826055D02*
X14848634Y-11807008D01*
X14848634Y-11807008D02*
X14829587Y-11778436D01*
X14829587Y-11778436D02*
X14820063Y-11768912D01*
M02*
