M48
; DRILL file {KiCad 7.0.9} date Wed Mar 13 22:19:23 2024
; FORMAT={-:-/ absolute / inch / decimal}
; #@! TF.CreationDate,2024-03-13T22:19:23+01:00
; #@! TF.GenerationSoftware,Kicad,Pcbnew,7.0.9
; #@! TF.FileFunction,Plated,1,2,PTH
FMAT,2
INCH
; #@! TA.AperFunction,Plated,PTH,ComponentDrill
T1C0.0394
; #@! TA.AperFunction,Plated,PTH,ComponentDrill
T2C0.0598
; #@! TA.AperFunction,Plated,PTH,ComponentDrill
T3C0.1260
%
G90
G05
T1
X4.3209Y-2.4409
X4.3209Y-2.7461
X4.3209Y-3.0512
X4.3209Y-3.3563
X4.3209Y-3.6614
X4.4193Y-2.4409
X4.4193Y-2.7461
X4.4193Y-3.0512
X4.4193Y-3.3563
X4.4193Y-3.6614
X4.7539Y-2.4409
X4.7539Y-2.7461
X4.7539Y-3.0512
X4.7539Y-3.3563
X4.7539Y-3.6614
X4.8524Y-2.4409
X4.8524Y-2.7461
X4.8524Y-3.0512
X4.8524Y-3.3563
X4.8524Y-3.6614
T2
X4.5374Y-4.0256
X4.7374Y-4.0256
T3
X4.1535Y-4.0453
X4.5965Y-2.185
X5.0295Y-4.0354
T0
M30
