%TF.GenerationSoftware,KiCad,Pcbnew,7.0.9*%
%TF.CreationDate,2024-03-13T22:19:24+01:00*%
%TF.ProjectId,Backlighting_LEDModule_PCB,4261636b-6c69-4676-9874-696e675f4c45,rev?*%
%TF.SameCoordinates,Original*%
%TF.FileFunction,Copper,L2,Bot*%
%TF.FilePolarity,Positive*%
%FSLAX46Y46*%
G04 Gerber Fmt 4.6, Leading zero omitted, Abs format (unit mm)*
G04 Created by KiCad (PCBNEW 7.0.9) date 2024-03-13 22:19:24*
%MOMM*%
%LPD*%
G01*
G04 APERTURE LIST*
G04 Aperture macros list*
%AMRoundRect*
0 Rectangle with rounded corners*
0 $1 Rounding radius*
0 $2 $3 $4 $5 $6 $7 $8 $9 X,Y pos of 4 corners*
0 Add a 4 corners polygon primitive as box body*
4,1,4,$2,$3,$4,$5,$6,$7,$8,$9,$2,$3,0*
0 Add four circle primitives for the rounded corners*
1,1,$1+$1,$2,$3*
1,1,$1+$1,$4,$5*
1,1,$1+$1,$6,$7*
1,1,$1+$1,$8,$9*
0 Add four rect primitives between the rounded corners*
20,1,$1+$1,$2,$3,$4,$5,0*
20,1,$1+$1,$4,$5,$6,$7,0*
20,1,$1+$1,$6,$7,$8,$9,0*
20,1,$1+$1,$8,$9,$2,$3,0*%
G04 Aperture macros list end*
%TA.AperFunction,ComponentPad*%
%ADD10RoundRect,0.250000X-0.600000X-0.750000X0.600000X-0.750000X0.600000X0.750000X-0.600000X0.750000X0*%
%TD*%
%TA.AperFunction,ComponentPad*%
%ADD11O,1.700000X2.000000*%
%TD*%
%TA.AperFunction,ComponentPad*%
%ADD12R,3.000000X3.000000*%
%TD*%
%TA.AperFunction,ComponentPad*%
%ADD13C,3.000000*%
%TD*%
%TA.AperFunction,ComponentPad*%
%ADD14C,3.600000*%
%TD*%
%TA.AperFunction,ConnectorPad*%
%ADD15C,5.600000*%
%TD*%
%TA.AperFunction,Conductor*%
%ADD16C,1.270000*%
%TD*%
G04 APERTURE END LIST*
D10*
%TO.P,J4,1,Pin_1*%
%TO.N,N/C*%
X109750000Y-69750000D03*
D11*
%TO.P,J4,2,Pin_2*%
X112250000Y-69750000D03*
%TD*%
D12*
%TO.P,J11,1,Pin_1*%
%TO.N,N/C*%
X115250000Y-102250000D03*
D13*
%TO.P,J11,2,Pin_2*%
X120330000Y-102250000D03*
%TD*%
D10*
%TO.P,J6,1,Pin_1*%
%TO.N,N/C*%
X120750000Y-93000000D03*
D11*
%TO.P,J6,2,Pin_2*%
X123250000Y-93000000D03*
%TD*%
D10*
%TO.P,J3,1,Pin_1*%
%TO.N,N/C*%
X109750000Y-77500000D03*
D11*
%TO.P,J3,2,Pin_2*%
X112250000Y-77500000D03*
%TD*%
D10*
%TO.P,J7,1,Pin_1*%
%TO.N,N/C*%
X120750000Y-85250000D03*
D11*
%TO.P,J7,2,Pin_2*%
X123250000Y-85250000D03*
%TD*%
D14*
%TO.P,H1,1*%
%TO.N,N/C*%
X127750000Y-102500000D03*
D15*
X127750000Y-102500000D03*
%TD*%
D14*
%TO.P,H3,1*%
%TO.N,N/C*%
X105500000Y-102750000D03*
D15*
X105500000Y-102750000D03*
%TD*%
D10*
%TO.P,J1,1,Pin_1*%
%TO.N,N/C*%
X109750000Y-93000000D03*
D11*
%TO.P,J1,2,Pin_2*%
X112250000Y-93000000D03*
%TD*%
D10*
%TO.P,J5,1,Pin_1*%
%TO.N,N/C*%
X109750000Y-62000000D03*
D11*
%TO.P,J5,2,Pin_2*%
X112250000Y-62000000D03*
%TD*%
D10*
%TO.P,J9,1,Pin_1*%
%TO.N,N/C*%
X120750000Y-69750000D03*
D11*
%TO.P,J9,2,Pin_2*%
X123250000Y-69750000D03*
%TD*%
D10*
%TO.P,J8,1,Pin_1*%
%TO.N,N/C*%
X120750000Y-77500000D03*
D11*
%TO.P,J8,2,Pin_2*%
X123250000Y-77500000D03*
%TD*%
D10*
%TO.P,J10,1,Pin_1*%
%TO.N,N/C*%
X120750000Y-62000000D03*
D11*
%TO.P,J10,2,Pin_2*%
X123250000Y-62000000D03*
%TD*%
D10*
%TO.P,J2,1,Pin_1*%
%TO.N,N/C*%
X109750000Y-85250000D03*
D11*
%TO.P,J2,2,Pin_2*%
X112250000Y-85250000D03*
%TD*%
D14*
%TO.P,H2,1*%
%TO.N,N/C*%
X116750000Y-55500000D03*
D15*
X116750000Y-55500000D03*
%TD*%
D16*
%TO.N,*%
X114870000Y-69795000D02*
X114870000Y-64620000D01*
X125665000Y-77415000D02*
X125665000Y-69795000D01*
X125665000Y-64415000D02*
X123250000Y-62000000D01*
X112250000Y-77500000D02*
X114785000Y-77500000D01*
X123250000Y-93000000D02*
X125375000Y-93000000D01*
X123250000Y-69750000D02*
X125620000Y-69750000D01*
X120330000Y-102250000D02*
X125665000Y-96915000D01*
X125665000Y-96915000D02*
X125665000Y-93290000D01*
X125665000Y-93290000D02*
X125665000Y-85035000D01*
X123250000Y-77500000D02*
X125580000Y-77500000D01*
X114825000Y-69750000D02*
X114870000Y-69795000D01*
X125665000Y-85035000D02*
X125665000Y-77415000D01*
X125580000Y-77500000D02*
X125665000Y-77415000D01*
X125620000Y-69750000D02*
X125665000Y-69795000D01*
X123250000Y-85250000D02*
X125450000Y-85250000D01*
X112250000Y-85250000D02*
X114655000Y-85250000D01*
X114870000Y-64620000D02*
X112250000Y-62000000D01*
X112620000Y-93000000D02*
X114870000Y-90750000D01*
X114870000Y-77415000D02*
X114870000Y-69795000D01*
X114870000Y-85035000D02*
X114870000Y-77415000D01*
X114870000Y-90750000D02*
X114870000Y-85035000D01*
X125665000Y-69795000D02*
X125665000Y-64415000D01*
X114785000Y-77500000D02*
X114870000Y-77415000D01*
X125450000Y-85250000D02*
X125665000Y-85035000D01*
X112250000Y-93000000D02*
X112620000Y-93000000D01*
X114655000Y-85250000D02*
X114870000Y-85035000D01*
X112250000Y-69750000D02*
X114825000Y-69750000D01*
X107885000Y-94560000D02*
X107885000Y-93290000D01*
X109460000Y-93290000D02*
X109750000Y-93000000D01*
X115250000Y-96720000D02*
X118970000Y-93000000D01*
X107885000Y-69795000D02*
X109705000Y-69795000D01*
X118680000Y-69795000D02*
X120705000Y-69795000D01*
X107885000Y-93290000D02*
X107885000Y-85035000D01*
X109535000Y-85035000D02*
X109750000Y-85250000D01*
X118970000Y-93000000D02*
X118680000Y-92710000D01*
X118680000Y-85670000D02*
X118680000Y-77415000D01*
X118680000Y-92710000D02*
X118680000Y-85670000D01*
X118680000Y-77415000D02*
X118680000Y-69795000D01*
X118680000Y-85670000D02*
X120330000Y-85670000D01*
X107885000Y-93290000D02*
X109460000Y-93290000D01*
X107885000Y-77415000D02*
X109665000Y-77415000D01*
X120665000Y-77415000D02*
X120750000Y-77500000D01*
X109705000Y-69795000D02*
X109750000Y-69750000D01*
X118680000Y-64070000D02*
X120750000Y-62000000D01*
X118680000Y-77415000D02*
X120665000Y-77415000D01*
X107885000Y-85035000D02*
X109535000Y-85035000D01*
X109665000Y-77415000D02*
X109750000Y-77500000D01*
X118970000Y-93000000D02*
X120750000Y-93000000D01*
X107885000Y-77415000D02*
X107885000Y-69795000D01*
X120330000Y-85670000D02*
X120750000Y-85250000D01*
X115250000Y-96720000D02*
X110045000Y-96720000D01*
X107885000Y-63865000D02*
X109750000Y-62000000D01*
X107885000Y-69795000D02*
X107885000Y-63865000D01*
X107885000Y-85035000D02*
X107885000Y-77415000D01*
X120705000Y-69795000D02*
X120750000Y-69750000D01*
X125375000Y-93000000D02*
X125665000Y-93290000D01*
X110045000Y-96720000D02*
X107885000Y-94560000D01*
X115250000Y-102250000D02*
X115250000Y-96720000D01*
X118680000Y-69795000D02*
X118680000Y-64070000D01*
%TD*%
M02*
