%TF.GenerationSoftware,KiCad,Pcbnew,7.0.9*%
%TF.CreationDate,2024-03-13T22:22:46+01:00*%
%TF.ProjectId,KorryLargePCB,4b6f7272-794c-4617-9267-655043422e6b,rev?*%
%TF.SameCoordinates,Original*%
%TF.FileFunction,Legend,Top*%
%TF.FilePolarity,Positive*%
%FSLAX46Y46*%
G04 Gerber Fmt 4.6, Leading zero omitted, Abs format (unit mm)*
G04 Created by KiCad (PCBNEW 7.0.9) date 2024-03-13 22:22:46*
%MOMM*%
%LPD*%
G01*
G04 APERTURE LIST*
%ADD10C,0.300000*%
%ADD11C,0.150000*%
%ADD12C,0.120000*%
G04 APERTURE END LIST*
D10*
X50983082Y-27564400D02*
X51197368Y-27635828D01*
X51197368Y-27635828D02*
X51554510Y-27635828D01*
X51554510Y-27635828D02*
X51697368Y-27564400D01*
X51697368Y-27564400D02*
X51768796Y-27492971D01*
X51768796Y-27492971D02*
X51840225Y-27350114D01*
X51840225Y-27350114D02*
X51840225Y-27207257D01*
X51840225Y-27207257D02*
X51768796Y-27064400D01*
X51768796Y-27064400D02*
X51697368Y-26992971D01*
X51697368Y-26992971D02*
X51554510Y-26921542D01*
X51554510Y-26921542D02*
X51268796Y-26850114D01*
X51268796Y-26850114D02*
X51125939Y-26778685D01*
X51125939Y-26778685D02*
X51054510Y-26707257D01*
X51054510Y-26707257D02*
X50983082Y-26564400D01*
X50983082Y-26564400D02*
X50983082Y-26421542D01*
X50983082Y-26421542D02*
X51054510Y-26278685D01*
X51054510Y-26278685D02*
X51125939Y-26207257D01*
X51125939Y-26207257D02*
X51268796Y-26135828D01*
X51268796Y-26135828D02*
X51625939Y-26135828D01*
X51625939Y-26135828D02*
X51840225Y-26207257D01*
X52983081Y-26850114D02*
X52483081Y-26850114D01*
X52483081Y-27635828D02*
X52483081Y-26135828D01*
X52483081Y-26135828D02*
X53197367Y-26135828D01*
X50983082Y-28693685D02*
X51054510Y-28622257D01*
X51054510Y-28622257D02*
X51197368Y-28550828D01*
X51197368Y-28550828D02*
X51554510Y-28550828D01*
X51554510Y-28550828D02*
X51697368Y-28622257D01*
X51697368Y-28622257D02*
X51768796Y-28693685D01*
X51768796Y-28693685D02*
X51840225Y-28836542D01*
X51840225Y-28836542D02*
X51840225Y-28979400D01*
X51840225Y-28979400D02*
X51768796Y-29193685D01*
X51768796Y-29193685D02*
X50911653Y-30050828D01*
X50911653Y-30050828D02*
X51840225Y-30050828D01*
X52768796Y-28550828D02*
X52911653Y-28550828D01*
X52911653Y-28550828D02*
X53054510Y-28622257D01*
X53054510Y-28622257D02*
X53125939Y-28693685D01*
X53125939Y-28693685D02*
X53197367Y-28836542D01*
X53197367Y-28836542D02*
X53268796Y-29122257D01*
X53268796Y-29122257D02*
X53268796Y-29479400D01*
X53268796Y-29479400D02*
X53197367Y-29765114D01*
X53197367Y-29765114D02*
X53125939Y-29907971D01*
X53125939Y-29907971D02*
X53054510Y-29979400D01*
X53054510Y-29979400D02*
X52911653Y-30050828D01*
X52911653Y-30050828D02*
X52768796Y-30050828D01*
X52768796Y-30050828D02*
X52625939Y-29979400D01*
X52625939Y-29979400D02*
X52554510Y-29907971D01*
X52554510Y-29907971D02*
X52483081Y-29765114D01*
X52483081Y-29765114D02*
X52411653Y-29479400D01*
X52411653Y-29479400D02*
X52411653Y-29122257D01*
X52411653Y-29122257D02*
X52483081Y-28836542D01*
X52483081Y-28836542D02*
X52554510Y-28693685D01*
X52554510Y-28693685D02*
X52625939Y-28622257D01*
X52625939Y-28622257D02*
X52768796Y-28550828D01*
X53840224Y-28693685D02*
X53911652Y-28622257D01*
X53911652Y-28622257D02*
X54054510Y-28550828D01*
X54054510Y-28550828D02*
X54411652Y-28550828D01*
X54411652Y-28550828D02*
X54554510Y-28622257D01*
X54554510Y-28622257D02*
X54625938Y-28693685D01*
X54625938Y-28693685D02*
X54697367Y-28836542D01*
X54697367Y-28836542D02*
X54697367Y-28979400D01*
X54697367Y-28979400D02*
X54625938Y-29193685D01*
X54625938Y-29193685D02*
X53768795Y-30050828D01*
X53768795Y-30050828D02*
X54697367Y-30050828D01*
X55983081Y-29050828D02*
X55983081Y-30050828D01*
X55625938Y-28479400D02*
X55268795Y-29550828D01*
X55268795Y-29550828D02*
X56197366Y-29550828D01*
D11*
X59110588Y-25417438D02*
X59015350Y-25369819D01*
X59015350Y-25369819D02*
X58872493Y-25369819D01*
X58872493Y-25369819D02*
X58729636Y-25417438D01*
X58729636Y-25417438D02*
X58634398Y-25512676D01*
X58634398Y-25512676D02*
X58586779Y-25607914D01*
X58586779Y-25607914D02*
X58539160Y-25798390D01*
X58539160Y-25798390D02*
X58539160Y-25941247D01*
X58539160Y-25941247D02*
X58586779Y-26131723D01*
X58586779Y-26131723D02*
X58634398Y-26226961D01*
X58634398Y-26226961D02*
X58729636Y-26322200D01*
X58729636Y-26322200D02*
X58872493Y-26369819D01*
X58872493Y-26369819D02*
X58967731Y-26369819D01*
X58967731Y-26369819D02*
X59110588Y-26322200D01*
X59110588Y-26322200D02*
X59158207Y-26274580D01*
X59158207Y-26274580D02*
X59158207Y-25941247D01*
X59158207Y-25941247D02*
X58967731Y-25941247D01*
X63336779Y-46738866D02*
X64098684Y-46738866D01*
D10*
X57694510Y-46769400D02*
X58837368Y-46769400D01*
X58265939Y-47340828D02*
X58265939Y-46197971D01*
X57054510Y-28229400D02*
X58197368Y-28229400D01*
X57625939Y-28800828D02*
X57625939Y-27657971D01*
X68804510Y-46550828D02*
X68804510Y-45050828D01*
X69661653Y-46550828D02*
X69018796Y-45693685D01*
X69661653Y-45050828D02*
X68804510Y-45907971D01*
X71018796Y-46550828D02*
X70304510Y-46550828D01*
X70304510Y-46550828D02*
X70304510Y-45050828D01*
D11*
X52704819Y-38416666D02*
X52228628Y-38749999D01*
X52704819Y-38988094D02*
X51704819Y-38988094D01*
X51704819Y-38988094D02*
X51704819Y-38607142D01*
X51704819Y-38607142D02*
X51752438Y-38511904D01*
X51752438Y-38511904D02*
X51800057Y-38464285D01*
X51800057Y-38464285D02*
X51895295Y-38416666D01*
X51895295Y-38416666D02*
X52038152Y-38416666D01*
X52038152Y-38416666D02*
X52133390Y-38464285D01*
X52133390Y-38464285D02*
X52181009Y-38511904D01*
X52181009Y-38511904D02*
X52228628Y-38607142D01*
X52228628Y-38607142D02*
X52228628Y-38988094D01*
X52704819Y-37464285D02*
X52704819Y-38035713D01*
X52704819Y-37749999D02*
X51704819Y-37749999D01*
X51704819Y-37749999D02*
X51847676Y-37845237D01*
X51847676Y-37845237D02*
X51942914Y-37940475D01*
X51942914Y-37940475D02*
X51990533Y-38035713D01*
X56166666Y-45454819D02*
X56166666Y-46169104D01*
X56166666Y-46169104D02*
X56119047Y-46311961D01*
X56119047Y-46311961D02*
X56023809Y-46407200D01*
X56023809Y-46407200D02*
X55880952Y-46454819D01*
X55880952Y-46454819D02*
X55785714Y-46454819D01*
X56595238Y-45550057D02*
X56642857Y-45502438D01*
X56642857Y-45502438D02*
X56738095Y-45454819D01*
X56738095Y-45454819D02*
X56976190Y-45454819D01*
X56976190Y-45454819D02*
X57071428Y-45502438D01*
X57071428Y-45502438D02*
X57119047Y-45550057D01*
X57119047Y-45550057D02*
X57166666Y-45645295D01*
X57166666Y-45645295D02*
X57166666Y-45740533D01*
X57166666Y-45740533D02*
X57119047Y-45883390D01*
X57119047Y-45883390D02*
X56547619Y-46454819D01*
X56547619Y-46454819D02*
X57166666Y-46454819D01*
X65416666Y-25204819D02*
X65416666Y-25919104D01*
X65416666Y-25919104D02*
X65369047Y-26061961D01*
X65369047Y-26061961D02*
X65273809Y-26157200D01*
X65273809Y-26157200D02*
X65130952Y-26204819D01*
X65130952Y-26204819D02*
X65035714Y-26204819D01*
X66416666Y-26204819D02*
X65845238Y-26204819D01*
X66130952Y-26204819D02*
X66130952Y-25204819D01*
X66130952Y-25204819D02*
X66035714Y-25347676D01*
X66035714Y-25347676D02*
X65940476Y-25442914D01*
X65940476Y-25442914D02*
X65845238Y-25490533D01*
X70574819Y-38106666D02*
X70098628Y-38439999D01*
X70574819Y-38678094D02*
X69574819Y-38678094D01*
X69574819Y-38678094D02*
X69574819Y-38297142D01*
X69574819Y-38297142D02*
X69622438Y-38201904D01*
X69622438Y-38201904D02*
X69670057Y-38154285D01*
X69670057Y-38154285D02*
X69765295Y-38106666D01*
X69765295Y-38106666D02*
X69908152Y-38106666D01*
X69908152Y-38106666D02*
X70003390Y-38154285D01*
X70003390Y-38154285D02*
X70051009Y-38201904D01*
X70051009Y-38201904D02*
X70098628Y-38297142D01*
X70098628Y-38297142D02*
X70098628Y-38678094D01*
X69670057Y-37725713D02*
X69622438Y-37678094D01*
X69622438Y-37678094D02*
X69574819Y-37582856D01*
X69574819Y-37582856D02*
X69574819Y-37344761D01*
X69574819Y-37344761D02*
X69622438Y-37249523D01*
X69622438Y-37249523D02*
X69670057Y-37201904D01*
X69670057Y-37201904D02*
X69765295Y-37154285D01*
X69765295Y-37154285D02*
X69860533Y-37154285D01*
X69860533Y-37154285D02*
X70003390Y-37201904D01*
X70003390Y-37201904D02*
X70574819Y-37773332D01*
X70574819Y-37773332D02*
X70574819Y-37154285D01*
X73738095Y-40204819D02*
X73738095Y-39204819D01*
X73738095Y-39681009D02*
X74309523Y-39681009D01*
X74309523Y-40204819D02*
X74309523Y-39204819D01*
X74738095Y-39300057D02*
X74785714Y-39252438D01*
X74785714Y-39252438D02*
X74880952Y-39204819D01*
X74880952Y-39204819D02*
X75119047Y-39204819D01*
X75119047Y-39204819D02*
X75214285Y-39252438D01*
X75214285Y-39252438D02*
X75261904Y-39300057D01*
X75261904Y-39300057D02*
X75309523Y-39395295D01*
X75309523Y-39395295D02*
X75309523Y-39490533D01*
X75309523Y-39490533D02*
X75261904Y-39633390D01*
X75261904Y-39633390D02*
X74690476Y-40204819D01*
X74690476Y-40204819D02*
X75309523Y-40204819D01*
X46988095Y-39954819D02*
X46988095Y-38954819D01*
X46988095Y-39431009D02*
X47559523Y-39431009D01*
X47559523Y-39954819D02*
X47559523Y-38954819D01*
X48559523Y-39954819D02*
X47988095Y-39954819D01*
X48273809Y-39954819D02*
X48273809Y-38954819D01*
X48273809Y-38954819D02*
X48178571Y-39097676D01*
X48178571Y-39097676D02*
X48083333Y-39192914D01*
X48083333Y-39192914D02*
X47988095Y-39240533D01*
D12*
%TO.C,R1*%
X53130000Y-39270000D02*
X53130000Y-32730000D01*
X53460000Y-39270000D02*
X53130000Y-39270000D01*
X55540000Y-39270000D02*
X55870000Y-39270000D01*
X55870000Y-39270000D02*
X55870000Y-32730000D01*
X53130000Y-32730000D02*
X53460000Y-32730000D01*
X55870000Y-32730000D02*
X55540000Y-32730000D01*
%TO.C,J2*%
X56840000Y-49360000D02*
X56840000Y-51860000D01*
X56840000Y-51860000D02*
X59340000Y-51860000D01*
X57140000Y-47540000D02*
X57140000Y-51560000D01*
X57140000Y-49250000D02*
X57640000Y-49250000D01*
X57140000Y-50060000D02*
X58140000Y-50060000D01*
X57140000Y-51560000D02*
X64860000Y-51560000D01*
X57640000Y-48040000D02*
X64360000Y-48040000D01*
X57640000Y-49250000D02*
X57640000Y-48040000D01*
X58140000Y-50060000D02*
X58140000Y-51560000D01*
X63860000Y-50060000D02*
X63860000Y-51560000D01*
X64360000Y-48040000D02*
X64360000Y-49250000D01*
X64360000Y-49250000D02*
X64860000Y-49250000D01*
X64860000Y-47540000D02*
X57140000Y-47540000D01*
X64860000Y-50060000D02*
X63860000Y-50060000D01*
X64860000Y-51560000D02*
X64860000Y-47540000D01*
%TO.C,J1*%
X66660000Y-22890000D02*
X66660000Y-20390000D01*
X66660000Y-20390000D02*
X64160000Y-20390000D01*
X66360000Y-24710000D02*
X66360000Y-20690000D01*
X66360000Y-23000000D02*
X65860000Y-23000000D01*
X66360000Y-22190000D02*
X65360000Y-22190000D01*
X66360000Y-20690000D02*
X56140000Y-20690000D01*
X65860000Y-24210000D02*
X56640000Y-24210000D01*
X65860000Y-23000000D02*
X65860000Y-24210000D01*
X65360000Y-22190000D02*
X65360000Y-20690000D01*
X57140000Y-22190000D02*
X57140000Y-20690000D01*
X56640000Y-24210000D02*
X56640000Y-23000000D01*
X56640000Y-23000000D02*
X56140000Y-23000000D01*
X56140000Y-24710000D02*
X66360000Y-24710000D01*
X56140000Y-22190000D02*
X57140000Y-22190000D01*
X56140000Y-20690000D02*
X56140000Y-24710000D01*
%TO.C,R2*%
X69120000Y-34670000D02*
X69120000Y-41210000D01*
X68790000Y-34670000D02*
X69120000Y-34670000D01*
X66710000Y-34670000D02*
X66380000Y-34670000D01*
X66380000Y-34670000D02*
X66380000Y-41210000D01*
X69120000Y-41210000D02*
X68790000Y-41210000D01*
X66380000Y-41210000D02*
X66710000Y-41210000D01*
%TD*%
M02*
