%TF.GenerationSoftware,KiCad,Pcbnew,7.0.9*%
%TF.CreationDate,2024-03-13T22:22:44+01:00*%
%TF.ProjectId,KorryLargePCB,4b6f7272-794c-4617-9267-655043422e6b,rev?*%
%TF.SameCoordinates,Original*%
%TF.FileFunction,Drillmap*%
%TF.FilePolarity,Positive*%
%FSLAX45Y45*%
G04 Gerber Fmt 4.5, Leading zero omitted, Abs format (unit mm)*
G04 Created by KiCad (PCBNEW 7.0.9) date 2024-03-13 22:22:44*
%MOMM*%
%LPD*%
G01*
G04 APERTURE LIST*
%ADD10C,0.100000*%
%ADD11C,0.200000*%
G04 APERTURE END LIST*
D10*
X5000000Y-2550000D02*
X5500000Y-2550000D01*
X5500000Y-2000000D02*
X5500000Y-2550000D01*
X7200000Y-4100000D02*
X7200000Y-4750000D01*
X4500000Y-3100000D02*
X5000000Y-3100000D01*
X7700000Y-4100000D02*
X7700000Y-3100000D01*
X5000000Y-4750000D02*
X5000000Y-4100000D01*
X5000000Y-3100000D02*
X5000000Y-2550000D01*
X7200000Y-3100000D02*
X7200000Y-2550000D01*
X6575000Y-5200000D02*
X6575000Y-4750000D01*
X6750000Y-2000000D02*
X6750000Y-2550000D01*
X6575000Y-4750000D02*
X7200000Y-4750000D01*
X5000000Y-4750000D02*
X5600000Y-4750000D01*
X7200000Y-4100000D02*
X7700000Y-4100000D01*
X6575000Y-5200000D02*
X5600000Y-5200000D01*
X5000000Y-4100000D02*
X4500000Y-4100000D01*
X7700000Y-3100000D02*
X7200000Y-3100000D01*
X5600000Y-5200000D02*
X5600000Y-4750000D01*
X4500000Y-4100000D02*
X4500000Y-3100000D01*
X7200000Y-2550000D02*
X6750000Y-2550000D01*
X5500000Y-2000000D02*
X6750000Y-2000000D01*
D11*
X4755777Y-5516484D02*
X4755777Y-5316484D01*
X4755777Y-5316484D02*
X4803396Y-5316484D01*
X4803396Y-5316484D02*
X4831967Y-5326008D01*
X4831967Y-5326008D02*
X4851015Y-5345055D01*
X4851015Y-5345055D02*
X4860539Y-5364103D01*
X4860539Y-5364103D02*
X4870063Y-5402198D01*
X4870063Y-5402198D02*
X4870063Y-5430770D01*
X4870063Y-5430770D02*
X4860539Y-5468865D01*
X4860539Y-5468865D02*
X4851015Y-5487912D01*
X4851015Y-5487912D02*
X4831967Y-5506960D01*
X4831967Y-5506960D02*
X4803396Y-5516484D01*
X4803396Y-5516484D02*
X4755777Y-5516484D01*
X4955777Y-5516484D02*
X4955777Y-5383150D01*
X4955777Y-5421246D02*
X4965301Y-5402198D01*
X4965301Y-5402198D02*
X4974824Y-5392674D01*
X4974824Y-5392674D02*
X4993872Y-5383150D01*
X4993872Y-5383150D02*
X5012920Y-5383150D01*
X5079586Y-5516484D02*
X5079586Y-5383150D01*
X5079586Y-5316484D02*
X5070063Y-5326008D01*
X5070063Y-5326008D02*
X5079586Y-5335531D01*
X5079586Y-5335531D02*
X5089110Y-5326008D01*
X5089110Y-5326008D02*
X5079586Y-5316484D01*
X5079586Y-5316484D02*
X5079586Y-5335531D01*
X5203396Y-5516484D02*
X5184348Y-5506960D01*
X5184348Y-5506960D02*
X5174824Y-5487912D01*
X5174824Y-5487912D02*
X5174824Y-5316484D01*
X5308158Y-5516484D02*
X5289110Y-5506960D01*
X5289110Y-5506960D02*
X5279586Y-5487912D01*
X5279586Y-5487912D02*
X5279586Y-5316484D01*
X5536729Y-5516484D02*
X5536729Y-5316484D01*
X5536729Y-5316484D02*
X5603396Y-5459341D01*
X5603396Y-5459341D02*
X5670062Y-5316484D01*
X5670062Y-5316484D02*
X5670062Y-5516484D01*
X5851015Y-5516484D02*
X5851015Y-5411722D01*
X5851015Y-5411722D02*
X5841491Y-5392674D01*
X5841491Y-5392674D02*
X5822443Y-5383150D01*
X5822443Y-5383150D02*
X5784348Y-5383150D01*
X5784348Y-5383150D02*
X5765301Y-5392674D01*
X5851015Y-5506960D02*
X5831967Y-5516484D01*
X5831967Y-5516484D02*
X5784348Y-5516484D01*
X5784348Y-5516484D02*
X5765301Y-5506960D01*
X5765301Y-5506960D02*
X5755777Y-5487912D01*
X5755777Y-5487912D02*
X5755777Y-5468865D01*
X5755777Y-5468865D02*
X5765301Y-5449817D01*
X5765301Y-5449817D02*
X5784348Y-5440293D01*
X5784348Y-5440293D02*
X5831967Y-5440293D01*
X5831967Y-5440293D02*
X5851015Y-5430770D01*
X5946253Y-5383150D02*
X5946253Y-5583150D01*
X5946253Y-5392674D02*
X5965301Y-5383150D01*
X5965301Y-5383150D02*
X6003396Y-5383150D01*
X6003396Y-5383150D02*
X6022443Y-5392674D01*
X6022443Y-5392674D02*
X6031967Y-5402198D01*
X6031967Y-5402198D02*
X6041491Y-5421246D01*
X6041491Y-5421246D02*
X6041491Y-5478389D01*
X6041491Y-5478389D02*
X6031967Y-5497436D01*
X6031967Y-5497436D02*
X6022443Y-5506960D01*
X6022443Y-5506960D02*
X6003396Y-5516484D01*
X6003396Y-5516484D02*
X5965301Y-5516484D01*
X5965301Y-5516484D02*
X5946253Y-5506960D01*
X6127205Y-5497436D02*
X6136729Y-5506960D01*
X6136729Y-5506960D02*
X6127205Y-5516484D01*
X6127205Y-5516484D02*
X6117682Y-5506960D01*
X6117682Y-5506960D02*
X6127205Y-5497436D01*
X6127205Y-5497436D02*
X6127205Y-5516484D01*
X6127205Y-5392674D02*
X6136729Y-5402198D01*
X6136729Y-5402198D02*
X6127205Y-5411722D01*
X6127205Y-5411722D02*
X6117682Y-5402198D01*
X6117682Y-5402198D02*
X6127205Y-5392674D01*
X6127205Y-5392674D02*
X6127205Y-5411722D01*
M02*
