%TF.GenerationSoftware,KiCad,Pcbnew,7.0.9*%
%TF.CreationDate,2024-03-13T22:22:44+01:00*%
%TF.ProjectId,KorryLargePCB,4b6f7272-794c-4617-9267-655043422e6b,rev?*%
%TF.SameCoordinates,Original*%
%TF.FileFunction,Drillmap*%
%TF.FilePolarity,Positive*%
%FSLAX45Y45*%
G04 Gerber Fmt 4.5, Leading zero omitted, Abs format (unit mm)*
G04 Created by KiCad (PCBNEW 7.0.9) date 2024-03-13 22:22:44*
%MOMM*%
%LPD*%
G01*
G04 APERTURE LIST*
%ADD10C,0.100000*%
%ADD11C,0.200000*%
%ADD12C,0.120000*%
%ADD13C,0.220000*%
G04 APERTURE END LIST*
D10*
X5000000Y-2550000D02*
X5500000Y-2550000D01*
X5500000Y-2000000D02*
X5500000Y-2550000D01*
X7200000Y-4100000D02*
X7200000Y-4750000D01*
X4500000Y-3100000D02*
X5000000Y-3100000D01*
X7700000Y-4100000D02*
X7700000Y-3100000D01*
X5000000Y-4750000D02*
X5000000Y-4100000D01*
X5000000Y-3100000D02*
X5000000Y-2550000D01*
X7200000Y-3100000D02*
X7200000Y-2550000D01*
X6575000Y-5200000D02*
X6575000Y-4750000D01*
X6750000Y-2000000D02*
X6750000Y-2550000D01*
X6575000Y-4750000D02*
X7200000Y-4750000D01*
X5000000Y-4750000D02*
X5600000Y-4750000D01*
X7200000Y-4100000D02*
X7700000Y-4100000D01*
X6575000Y-5200000D02*
X5600000Y-5200000D01*
X5000000Y-4100000D02*
X4500000Y-4100000D01*
X7700000Y-3100000D02*
X7200000Y-3100000D01*
X5600000Y-5200000D02*
X5600000Y-4750000D01*
X4500000Y-4100000D02*
X4500000Y-3100000D01*
X7200000Y-2550000D02*
X6750000Y-2550000D01*
X5500000Y-2000000D02*
X6750000Y-2000000D01*
D11*
D10*
X5410000Y-3179000D02*
X5490000Y-3259000D01*
X5490000Y-3179000D02*
X5410000Y-3259000D01*
X5410000Y-3941000D02*
X5490000Y-4021000D01*
X5490000Y-3941000D02*
X5410000Y-4021000D01*
X6735000Y-3373000D02*
X6815000Y-3453000D01*
X6815000Y-3373000D02*
X6735000Y-3453000D01*
X6735000Y-4135000D02*
X6815000Y-4215000D01*
X6815000Y-4135000D02*
X6735000Y-4215000D01*
X6016000Y-4325000D02*
G75*
G03*
X6016000Y-4325000I-45000J0D01*
G01*
X6018500Y-2975000D02*
G75*
G03*
X6018500Y-2975000I-45000J0D01*
G01*
X6270000Y-4325000D02*
G75*
G03*
X6270000Y-4325000I-45000J0D01*
G01*
X6272500Y-2975000D02*
G75*
G03*
X6272500Y-2975000I-45000J0D01*
G01*
X5875000Y-2252500D02*
X5875000Y-2347500D01*
X5827500Y-2300000D02*
X5922500Y-2300000D01*
X6125000Y-2252500D02*
X6125000Y-2347500D01*
X6077500Y-2300000D02*
X6172500Y-2300000D01*
X6375000Y-2252500D02*
X6375000Y-2347500D01*
X6327500Y-2300000D02*
X6422500Y-2300000D01*
X6010356Y-4960356D02*
X6010356Y-4889644D01*
X5939644Y-4889644D01*
X5939644Y-4960356D01*
X6010356Y-4960356D01*
X6260356Y-4960356D02*
X6260356Y-4889644D01*
X6189644Y-4889644D01*
X6189644Y-4960356D01*
X6260356Y-4960356D01*
D12*
X5775000Y-3485000D02*
X5835000Y-3425000D01*
X5775000Y-3365000D01*
X5715000Y-3425000D01*
X5775000Y-3485000D01*
X5775000Y-3935000D02*
X5835000Y-3875000D01*
X5775000Y-3815000D01*
X5715000Y-3875000D01*
X5775000Y-3935000D01*
X6425000Y-3485000D02*
X6485000Y-3425000D01*
X6425000Y-3365000D01*
X6365000Y-3425000D01*
X6425000Y-3485000D01*
X6425000Y-3935000D02*
X6485000Y-3875000D01*
X6425000Y-3815000D01*
X6365000Y-3875000D01*
X6425000Y-3935000D01*
D13*
X4640000Y-3490000D02*
X4860000Y-3710000D01*
X4860000Y-3490000D02*
X4640000Y-3710000D01*
X4860000Y-3600000D02*
G75*
G03*
X4860000Y-3600000I-110000J0D01*
G01*
X7340000Y-3490000D02*
X7560000Y-3710000D01*
X7560000Y-3490000D02*
X7340000Y-3710000D01*
X7560000Y-3600000D02*
G75*
G03*
X7560000Y-3600000I-110000J0D01*
G01*
D11*
X4755777Y-5516484D02*
X4755777Y-5316484D01*
X4755777Y-5316484D02*
X4803396Y-5316484D01*
X4803396Y-5316484D02*
X4831967Y-5326008D01*
X4831967Y-5326008D02*
X4851015Y-5345055D01*
X4851015Y-5345055D02*
X4860539Y-5364103D01*
X4860539Y-5364103D02*
X4870063Y-5402198D01*
X4870063Y-5402198D02*
X4870063Y-5430770D01*
X4870063Y-5430770D02*
X4860539Y-5468865D01*
X4860539Y-5468865D02*
X4851015Y-5487912D01*
X4851015Y-5487912D02*
X4831967Y-5506960D01*
X4831967Y-5506960D02*
X4803396Y-5516484D01*
X4803396Y-5516484D02*
X4755777Y-5516484D01*
X4955777Y-5516484D02*
X4955777Y-5383150D01*
X4955777Y-5421246D02*
X4965301Y-5402198D01*
X4965301Y-5402198D02*
X4974824Y-5392674D01*
X4974824Y-5392674D02*
X4993872Y-5383150D01*
X4993872Y-5383150D02*
X5012920Y-5383150D01*
X5079586Y-5516484D02*
X5079586Y-5383150D01*
X5079586Y-5316484D02*
X5070063Y-5326008D01*
X5070063Y-5326008D02*
X5079586Y-5335531D01*
X5079586Y-5335531D02*
X5089110Y-5326008D01*
X5089110Y-5326008D02*
X5079586Y-5316484D01*
X5079586Y-5316484D02*
X5079586Y-5335531D01*
X5203396Y-5516484D02*
X5184348Y-5506960D01*
X5184348Y-5506960D02*
X5174824Y-5487912D01*
X5174824Y-5487912D02*
X5174824Y-5316484D01*
X5308158Y-5516484D02*
X5289110Y-5506960D01*
X5289110Y-5506960D02*
X5279586Y-5487912D01*
X5279586Y-5487912D02*
X5279586Y-5316484D01*
X5536729Y-5516484D02*
X5536729Y-5316484D01*
X5536729Y-5316484D02*
X5603396Y-5459341D01*
X5603396Y-5459341D02*
X5670062Y-5316484D01*
X5670062Y-5316484D02*
X5670062Y-5516484D01*
X5851015Y-5516484D02*
X5851015Y-5411722D01*
X5851015Y-5411722D02*
X5841491Y-5392674D01*
X5841491Y-5392674D02*
X5822443Y-5383150D01*
X5822443Y-5383150D02*
X5784348Y-5383150D01*
X5784348Y-5383150D02*
X5765301Y-5392674D01*
X5851015Y-5506960D02*
X5831967Y-5516484D01*
X5831967Y-5516484D02*
X5784348Y-5516484D01*
X5784348Y-5516484D02*
X5765301Y-5506960D01*
X5765301Y-5506960D02*
X5755777Y-5487912D01*
X5755777Y-5487912D02*
X5755777Y-5468865D01*
X5755777Y-5468865D02*
X5765301Y-5449817D01*
X5765301Y-5449817D02*
X5784348Y-5440293D01*
X5784348Y-5440293D02*
X5831967Y-5440293D01*
X5831967Y-5440293D02*
X5851015Y-5430770D01*
X5946253Y-5383150D02*
X5946253Y-5583150D01*
X5946253Y-5392674D02*
X5965301Y-5383150D01*
X5965301Y-5383150D02*
X6003396Y-5383150D01*
X6003396Y-5383150D02*
X6022443Y-5392674D01*
X6022443Y-5392674D02*
X6031967Y-5402198D01*
X6031967Y-5402198D02*
X6041491Y-5421246D01*
X6041491Y-5421246D02*
X6041491Y-5478389D01*
X6041491Y-5478389D02*
X6031967Y-5497436D01*
X6031967Y-5497436D02*
X6022443Y-5506960D01*
X6022443Y-5506960D02*
X6003396Y-5516484D01*
X6003396Y-5516484D02*
X5965301Y-5516484D01*
X5965301Y-5516484D02*
X5946253Y-5506960D01*
X6127205Y-5497436D02*
X6136729Y-5506960D01*
X6136729Y-5506960D02*
X6127205Y-5516484D01*
X6127205Y-5516484D02*
X6117682Y-5506960D01*
X6117682Y-5506960D02*
X6127205Y-5497436D01*
X6127205Y-5497436D02*
X6127205Y-5516484D01*
X6127205Y-5392674D02*
X6136729Y-5402198D01*
X6136729Y-5402198D02*
X6127205Y-5411722D01*
X6127205Y-5411722D02*
X6117682Y-5402198D01*
X6117682Y-5402198D02*
X6127205Y-5392674D01*
X6127205Y-5392674D02*
X6127205Y-5411722D01*
D10*
X4415000Y-5805000D02*
X4495000Y-5885000D01*
X4495000Y-5805000D02*
X4415000Y-5885000D01*
D11*
X4793872Y-5736484D02*
X4812920Y-5736484D01*
X4812920Y-5736484D02*
X4831967Y-5746008D01*
X4831967Y-5746008D02*
X4841491Y-5755531D01*
X4841491Y-5755531D02*
X4851015Y-5774579D01*
X4851015Y-5774579D02*
X4860539Y-5812674D01*
X4860539Y-5812674D02*
X4860539Y-5860293D01*
X4860539Y-5860293D02*
X4851015Y-5898388D01*
X4851015Y-5898388D02*
X4841491Y-5917436D01*
X4841491Y-5917436D02*
X4831967Y-5926960D01*
X4831967Y-5926960D02*
X4812920Y-5936484D01*
X4812920Y-5936484D02*
X4793872Y-5936484D01*
X4793872Y-5936484D02*
X4774824Y-5926960D01*
X4774824Y-5926960D02*
X4765301Y-5917436D01*
X4765301Y-5917436D02*
X4755777Y-5898388D01*
X4755777Y-5898388D02*
X4746253Y-5860293D01*
X4746253Y-5860293D02*
X4746253Y-5812674D01*
X4746253Y-5812674D02*
X4755777Y-5774579D01*
X4755777Y-5774579D02*
X4765301Y-5755531D01*
X4765301Y-5755531D02*
X4774824Y-5746008D01*
X4774824Y-5746008D02*
X4793872Y-5736484D01*
X4946253Y-5917436D02*
X4955777Y-5926960D01*
X4955777Y-5926960D02*
X4946253Y-5936484D01*
X4946253Y-5936484D02*
X4936729Y-5926960D01*
X4936729Y-5926960D02*
X4946253Y-5917436D01*
X4946253Y-5917436D02*
X4946253Y-5936484D01*
X5070063Y-5822198D02*
X5051015Y-5812674D01*
X5051015Y-5812674D02*
X5041491Y-5803150D01*
X5041491Y-5803150D02*
X5031967Y-5784103D01*
X5031967Y-5784103D02*
X5031967Y-5774579D01*
X5031967Y-5774579D02*
X5041491Y-5755531D01*
X5041491Y-5755531D02*
X5051015Y-5746008D01*
X5051015Y-5746008D02*
X5070063Y-5736484D01*
X5070063Y-5736484D02*
X5108158Y-5736484D01*
X5108158Y-5736484D02*
X5127205Y-5746008D01*
X5127205Y-5746008D02*
X5136729Y-5755531D01*
X5136729Y-5755531D02*
X5146253Y-5774579D01*
X5146253Y-5774579D02*
X5146253Y-5784103D01*
X5146253Y-5784103D02*
X5136729Y-5803150D01*
X5136729Y-5803150D02*
X5127205Y-5812674D01*
X5127205Y-5812674D02*
X5108158Y-5822198D01*
X5108158Y-5822198D02*
X5070063Y-5822198D01*
X5070063Y-5822198D02*
X5051015Y-5831722D01*
X5051015Y-5831722D02*
X5041491Y-5841246D01*
X5041491Y-5841246D02*
X5031967Y-5860293D01*
X5031967Y-5860293D02*
X5031967Y-5898388D01*
X5031967Y-5898388D02*
X5041491Y-5917436D01*
X5041491Y-5917436D02*
X5051015Y-5926960D01*
X5051015Y-5926960D02*
X5070063Y-5936484D01*
X5070063Y-5936484D02*
X5108158Y-5936484D01*
X5108158Y-5936484D02*
X5127205Y-5926960D01*
X5127205Y-5926960D02*
X5136729Y-5917436D01*
X5136729Y-5917436D02*
X5146253Y-5898388D01*
X5146253Y-5898388D02*
X5146253Y-5860293D01*
X5146253Y-5860293D02*
X5136729Y-5841246D01*
X5136729Y-5841246D02*
X5127205Y-5831722D01*
X5127205Y-5831722D02*
X5108158Y-5822198D01*
X5270063Y-5736484D02*
X5289110Y-5736484D01*
X5289110Y-5736484D02*
X5308158Y-5746008D01*
X5308158Y-5746008D02*
X5317682Y-5755531D01*
X5317682Y-5755531D02*
X5327205Y-5774579D01*
X5327205Y-5774579D02*
X5336729Y-5812674D01*
X5336729Y-5812674D02*
X5336729Y-5860293D01*
X5336729Y-5860293D02*
X5327205Y-5898388D01*
X5327205Y-5898388D02*
X5317682Y-5917436D01*
X5317682Y-5917436D02*
X5308158Y-5926960D01*
X5308158Y-5926960D02*
X5289110Y-5936484D01*
X5289110Y-5936484D02*
X5270063Y-5936484D01*
X5270063Y-5936484D02*
X5251015Y-5926960D01*
X5251015Y-5926960D02*
X5241491Y-5917436D01*
X5241491Y-5917436D02*
X5231967Y-5898388D01*
X5231967Y-5898388D02*
X5222444Y-5860293D01*
X5222444Y-5860293D02*
X5222444Y-5812674D01*
X5222444Y-5812674D02*
X5231967Y-5774579D01*
X5231967Y-5774579D02*
X5241491Y-5755531D01*
X5241491Y-5755531D02*
X5251015Y-5746008D01*
X5251015Y-5746008D02*
X5270063Y-5736484D01*
X5460539Y-5736484D02*
X5479586Y-5736484D01*
X5479586Y-5736484D02*
X5498634Y-5746008D01*
X5498634Y-5746008D02*
X5508158Y-5755531D01*
X5508158Y-5755531D02*
X5517682Y-5774579D01*
X5517682Y-5774579D02*
X5527205Y-5812674D01*
X5527205Y-5812674D02*
X5527205Y-5860293D01*
X5527205Y-5860293D02*
X5517682Y-5898388D01*
X5517682Y-5898388D02*
X5508158Y-5917436D01*
X5508158Y-5917436D02*
X5498634Y-5926960D01*
X5498634Y-5926960D02*
X5479586Y-5936484D01*
X5479586Y-5936484D02*
X5460539Y-5936484D01*
X5460539Y-5936484D02*
X5441491Y-5926960D01*
X5441491Y-5926960D02*
X5431967Y-5917436D01*
X5431967Y-5917436D02*
X5422444Y-5898388D01*
X5422444Y-5898388D02*
X5412920Y-5860293D01*
X5412920Y-5860293D02*
X5412920Y-5812674D01*
X5412920Y-5812674D02*
X5422444Y-5774579D01*
X5422444Y-5774579D02*
X5431967Y-5755531D01*
X5431967Y-5755531D02*
X5441491Y-5746008D01*
X5441491Y-5746008D02*
X5460539Y-5736484D01*
X5612920Y-5936484D02*
X5612920Y-5803150D01*
X5612920Y-5822198D02*
X5622443Y-5812674D01*
X5622443Y-5812674D02*
X5641491Y-5803150D01*
X5641491Y-5803150D02*
X5670063Y-5803150D01*
X5670063Y-5803150D02*
X5689110Y-5812674D01*
X5689110Y-5812674D02*
X5698634Y-5831722D01*
X5698634Y-5831722D02*
X5698634Y-5936484D01*
X5698634Y-5831722D02*
X5708158Y-5812674D01*
X5708158Y-5812674D02*
X5727205Y-5803150D01*
X5727205Y-5803150D02*
X5755777Y-5803150D01*
X5755777Y-5803150D02*
X5774824Y-5812674D01*
X5774824Y-5812674D02*
X5784348Y-5831722D01*
X5784348Y-5831722D02*
X5784348Y-5936484D01*
X5879586Y-5936484D02*
X5879586Y-5803150D01*
X5879586Y-5822198D02*
X5889110Y-5812674D01*
X5889110Y-5812674D02*
X5908158Y-5803150D01*
X5908158Y-5803150D02*
X5936729Y-5803150D01*
X5936729Y-5803150D02*
X5955777Y-5812674D01*
X5955777Y-5812674D02*
X5965301Y-5831722D01*
X5965301Y-5831722D02*
X5965301Y-5936484D01*
X5965301Y-5831722D02*
X5974824Y-5812674D01*
X5974824Y-5812674D02*
X5993872Y-5803150D01*
X5993872Y-5803150D02*
X6022443Y-5803150D01*
X6022443Y-5803150D02*
X6041491Y-5812674D01*
X6041491Y-5812674D02*
X6051015Y-5831722D01*
X6051015Y-5831722D02*
X6051015Y-5936484D01*
X6441491Y-5726960D02*
X6270063Y-5984103D01*
X6698634Y-5736484D02*
X6717682Y-5736484D01*
X6717682Y-5736484D02*
X6736729Y-5746008D01*
X6736729Y-5746008D02*
X6746253Y-5755531D01*
X6746253Y-5755531D02*
X6755777Y-5774579D01*
X6755777Y-5774579D02*
X6765301Y-5812674D01*
X6765301Y-5812674D02*
X6765301Y-5860293D01*
X6765301Y-5860293D02*
X6755777Y-5898388D01*
X6755777Y-5898388D02*
X6746253Y-5917436D01*
X6746253Y-5917436D02*
X6736729Y-5926960D01*
X6736729Y-5926960D02*
X6717682Y-5936484D01*
X6717682Y-5936484D02*
X6698634Y-5936484D01*
X6698634Y-5936484D02*
X6679586Y-5926960D01*
X6679586Y-5926960D02*
X6670063Y-5917436D01*
X6670063Y-5917436D02*
X6660539Y-5898388D01*
X6660539Y-5898388D02*
X6651015Y-5860293D01*
X6651015Y-5860293D02*
X6651015Y-5812674D01*
X6651015Y-5812674D02*
X6660539Y-5774579D01*
X6660539Y-5774579D02*
X6670063Y-5755531D01*
X6670063Y-5755531D02*
X6679586Y-5746008D01*
X6679586Y-5746008D02*
X6698634Y-5736484D01*
X6851015Y-5917436D02*
X6860539Y-5926960D01*
X6860539Y-5926960D02*
X6851015Y-5936484D01*
X6851015Y-5936484D02*
X6841491Y-5926960D01*
X6841491Y-5926960D02*
X6851015Y-5917436D01*
X6851015Y-5917436D02*
X6851015Y-5936484D01*
X6984348Y-5736484D02*
X7003396Y-5736484D01*
X7003396Y-5736484D02*
X7022444Y-5746008D01*
X7022444Y-5746008D02*
X7031967Y-5755531D01*
X7031967Y-5755531D02*
X7041491Y-5774579D01*
X7041491Y-5774579D02*
X7051015Y-5812674D01*
X7051015Y-5812674D02*
X7051015Y-5860293D01*
X7051015Y-5860293D02*
X7041491Y-5898388D01*
X7041491Y-5898388D02*
X7031967Y-5917436D01*
X7031967Y-5917436D02*
X7022444Y-5926960D01*
X7022444Y-5926960D02*
X7003396Y-5936484D01*
X7003396Y-5936484D02*
X6984348Y-5936484D01*
X6984348Y-5936484D02*
X6965301Y-5926960D01*
X6965301Y-5926960D02*
X6955777Y-5917436D01*
X6955777Y-5917436D02*
X6946253Y-5898388D01*
X6946253Y-5898388D02*
X6936729Y-5860293D01*
X6936729Y-5860293D02*
X6936729Y-5812674D01*
X6936729Y-5812674D02*
X6946253Y-5774579D01*
X6946253Y-5774579D02*
X6955777Y-5755531D01*
X6955777Y-5755531D02*
X6965301Y-5746008D01*
X6965301Y-5746008D02*
X6984348Y-5736484D01*
X7117682Y-5736484D02*
X7241491Y-5736484D01*
X7241491Y-5736484D02*
X7174825Y-5812674D01*
X7174825Y-5812674D02*
X7203396Y-5812674D01*
X7203396Y-5812674D02*
X7222444Y-5822198D01*
X7222444Y-5822198D02*
X7231967Y-5831722D01*
X7231967Y-5831722D02*
X7241491Y-5850769D01*
X7241491Y-5850769D02*
X7241491Y-5898388D01*
X7241491Y-5898388D02*
X7231967Y-5917436D01*
X7231967Y-5917436D02*
X7222444Y-5926960D01*
X7222444Y-5926960D02*
X7203396Y-5936484D01*
X7203396Y-5936484D02*
X7146253Y-5936484D01*
X7146253Y-5936484D02*
X7127206Y-5926960D01*
X7127206Y-5926960D02*
X7117682Y-5917436D01*
X7431967Y-5936484D02*
X7317682Y-5936484D01*
X7374825Y-5936484D02*
X7374825Y-5736484D01*
X7374825Y-5736484D02*
X7355777Y-5765055D01*
X7355777Y-5765055D02*
X7336729Y-5784103D01*
X7336729Y-5784103D02*
X7317682Y-5793627D01*
X7612920Y-5736484D02*
X7517682Y-5736484D01*
X7517682Y-5736484D02*
X7508158Y-5831722D01*
X7508158Y-5831722D02*
X7517682Y-5822198D01*
X7517682Y-5822198D02*
X7536729Y-5812674D01*
X7536729Y-5812674D02*
X7584348Y-5812674D01*
X7584348Y-5812674D02*
X7603396Y-5822198D01*
X7603396Y-5822198D02*
X7612920Y-5831722D01*
X7612920Y-5831722D02*
X7622444Y-5850769D01*
X7622444Y-5850769D02*
X7622444Y-5898388D01*
X7622444Y-5898388D02*
X7612920Y-5917436D01*
X7612920Y-5917436D02*
X7603396Y-5926960D01*
X7603396Y-5926960D02*
X7584348Y-5936484D01*
X7584348Y-5936484D02*
X7536729Y-5936484D01*
X7536729Y-5936484D02*
X7517682Y-5926960D01*
X7517682Y-5926960D02*
X7508158Y-5917436D01*
X7698634Y-5736484D02*
X7698634Y-5774579D01*
X7774825Y-5736484D02*
X7774825Y-5774579D01*
X8070063Y-6012674D02*
X8060539Y-6003150D01*
X8060539Y-6003150D02*
X8041491Y-5974579D01*
X8041491Y-5974579D02*
X8031968Y-5955531D01*
X8031968Y-5955531D02*
X8022444Y-5926960D01*
X8022444Y-5926960D02*
X8012920Y-5879341D01*
X8012920Y-5879341D02*
X8012920Y-5841246D01*
X8012920Y-5841246D02*
X8022444Y-5793627D01*
X8022444Y-5793627D02*
X8031968Y-5765055D01*
X8031968Y-5765055D02*
X8041491Y-5746008D01*
X8041491Y-5746008D02*
X8060539Y-5717436D01*
X8060539Y-5717436D02*
X8070063Y-5707912D01*
X8231968Y-5803150D02*
X8231968Y-5936484D01*
X8184348Y-5726960D02*
X8136729Y-5869817D01*
X8136729Y-5869817D02*
X8260539Y-5869817D01*
X8489111Y-5936484D02*
X8489111Y-5736484D01*
X8574825Y-5936484D02*
X8574825Y-5831722D01*
X8574825Y-5831722D02*
X8565301Y-5812674D01*
X8565301Y-5812674D02*
X8546253Y-5803150D01*
X8546253Y-5803150D02*
X8517682Y-5803150D01*
X8517682Y-5803150D02*
X8498634Y-5812674D01*
X8498634Y-5812674D02*
X8489111Y-5822198D01*
X8698634Y-5936484D02*
X8679587Y-5926960D01*
X8679587Y-5926960D02*
X8670063Y-5917436D01*
X8670063Y-5917436D02*
X8660539Y-5898388D01*
X8660539Y-5898388D02*
X8660539Y-5841246D01*
X8660539Y-5841246D02*
X8670063Y-5822198D01*
X8670063Y-5822198D02*
X8679587Y-5812674D01*
X8679587Y-5812674D02*
X8698634Y-5803150D01*
X8698634Y-5803150D02*
X8727206Y-5803150D01*
X8727206Y-5803150D02*
X8746253Y-5812674D01*
X8746253Y-5812674D02*
X8755777Y-5822198D01*
X8755777Y-5822198D02*
X8765301Y-5841246D01*
X8765301Y-5841246D02*
X8765301Y-5898388D01*
X8765301Y-5898388D02*
X8755777Y-5917436D01*
X8755777Y-5917436D02*
X8746253Y-5926960D01*
X8746253Y-5926960D02*
X8727206Y-5936484D01*
X8727206Y-5936484D02*
X8698634Y-5936484D01*
X8879587Y-5936484D02*
X8860539Y-5926960D01*
X8860539Y-5926960D02*
X8851015Y-5907912D01*
X8851015Y-5907912D02*
X8851015Y-5736484D01*
X9031968Y-5926960D02*
X9012920Y-5936484D01*
X9012920Y-5936484D02*
X8974825Y-5936484D01*
X8974825Y-5936484D02*
X8955777Y-5926960D01*
X8955777Y-5926960D02*
X8946253Y-5907912D01*
X8946253Y-5907912D02*
X8946253Y-5831722D01*
X8946253Y-5831722D02*
X8955777Y-5812674D01*
X8955777Y-5812674D02*
X8974825Y-5803150D01*
X8974825Y-5803150D02*
X9012920Y-5803150D01*
X9012920Y-5803150D02*
X9031968Y-5812674D01*
X9031968Y-5812674D02*
X9041492Y-5831722D01*
X9041492Y-5831722D02*
X9041492Y-5850769D01*
X9041492Y-5850769D02*
X8946253Y-5869817D01*
X9117682Y-5926960D02*
X9136730Y-5936484D01*
X9136730Y-5936484D02*
X9174825Y-5936484D01*
X9174825Y-5936484D02*
X9193873Y-5926960D01*
X9193873Y-5926960D02*
X9203396Y-5907912D01*
X9203396Y-5907912D02*
X9203396Y-5898388D01*
X9203396Y-5898388D02*
X9193873Y-5879341D01*
X9193873Y-5879341D02*
X9174825Y-5869817D01*
X9174825Y-5869817D02*
X9146253Y-5869817D01*
X9146253Y-5869817D02*
X9127206Y-5860293D01*
X9127206Y-5860293D02*
X9117682Y-5841246D01*
X9117682Y-5841246D02*
X9117682Y-5831722D01*
X9117682Y-5831722D02*
X9127206Y-5812674D01*
X9127206Y-5812674D02*
X9146253Y-5803150D01*
X9146253Y-5803150D02*
X9174825Y-5803150D01*
X9174825Y-5803150D02*
X9193873Y-5812674D01*
X9270063Y-6012674D02*
X9279587Y-6003150D01*
X9279587Y-6003150D02*
X9298634Y-5974579D01*
X9298634Y-5974579D02*
X9308158Y-5955531D01*
X9308158Y-5955531D02*
X9317682Y-5926960D01*
X9317682Y-5926960D02*
X9327206Y-5879341D01*
X9327206Y-5879341D02*
X9327206Y-5841246D01*
X9327206Y-5841246D02*
X9317682Y-5793627D01*
X9317682Y-5793627D02*
X9308158Y-5765055D01*
X9308158Y-5765055D02*
X9298634Y-5746008D01*
X9298634Y-5746008D02*
X9279587Y-5717436D01*
X9279587Y-5717436D02*
X9270063Y-5707912D01*
D10*
X4495000Y-6109000D02*
G75*
G03*
X4495000Y-6109000I-45000J0D01*
G01*
D11*
X4793872Y-6000484D02*
X4812920Y-6000484D01*
X4812920Y-6000484D02*
X4831967Y-6010008D01*
X4831967Y-6010008D02*
X4841491Y-6019531D01*
X4841491Y-6019531D02*
X4851015Y-6038579D01*
X4851015Y-6038579D02*
X4860539Y-6076674D01*
X4860539Y-6076674D02*
X4860539Y-6124293D01*
X4860539Y-6124293D02*
X4851015Y-6162388D01*
X4851015Y-6162388D02*
X4841491Y-6181436D01*
X4841491Y-6181436D02*
X4831967Y-6190960D01*
X4831967Y-6190960D02*
X4812920Y-6200484D01*
X4812920Y-6200484D02*
X4793872Y-6200484D01*
X4793872Y-6200484D02*
X4774824Y-6190960D01*
X4774824Y-6190960D02*
X4765301Y-6181436D01*
X4765301Y-6181436D02*
X4755777Y-6162388D01*
X4755777Y-6162388D02*
X4746253Y-6124293D01*
X4746253Y-6124293D02*
X4746253Y-6076674D01*
X4746253Y-6076674D02*
X4755777Y-6038579D01*
X4755777Y-6038579D02*
X4765301Y-6019531D01*
X4765301Y-6019531D02*
X4774824Y-6010008D01*
X4774824Y-6010008D02*
X4793872Y-6000484D01*
X4946253Y-6181436D02*
X4955777Y-6190960D01*
X4955777Y-6190960D02*
X4946253Y-6200484D01*
X4946253Y-6200484D02*
X4936729Y-6190960D01*
X4936729Y-6190960D02*
X4946253Y-6181436D01*
X4946253Y-6181436D02*
X4946253Y-6200484D01*
X5051015Y-6200484D02*
X5089110Y-6200484D01*
X5089110Y-6200484D02*
X5108158Y-6190960D01*
X5108158Y-6190960D02*
X5117682Y-6181436D01*
X5117682Y-6181436D02*
X5136729Y-6152865D01*
X5136729Y-6152865D02*
X5146253Y-6114769D01*
X5146253Y-6114769D02*
X5146253Y-6038579D01*
X5146253Y-6038579D02*
X5136729Y-6019531D01*
X5136729Y-6019531D02*
X5127205Y-6010008D01*
X5127205Y-6010008D02*
X5108158Y-6000484D01*
X5108158Y-6000484D02*
X5070063Y-6000484D01*
X5070063Y-6000484D02*
X5051015Y-6010008D01*
X5051015Y-6010008D02*
X5041491Y-6019531D01*
X5041491Y-6019531D02*
X5031967Y-6038579D01*
X5031967Y-6038579D02*
X5031967Y-6086198D01*
X5031967Y-6086198D02*
X5041491Y-6105246D01*
X5041491Y-6105246D02*
X5051015Y-6114769D01*
X5051015Y-6114769D02*
X5070063Y-6124293D01*
X5070063Y-6124293D02*
X5108158Y-6124293D01*
X5108158Y-6124293D02*
X5127205Y-6114769D01*
X5127205Y-6114769D02*
X5136729Y-6105246D01*
X5136729Y-6105246D02*
X5146253Y-6086198D01*
X5270063Y-6000484D02*
X5289110Y-6000484D01*
X5289110Y-6000484D02*
X5308158Y-6010008D01*
X5308158Y-6010008D02*
X5317682Y-6019531D01*
X5317682Y-6019531D02*
X5327205Y-6038579D01*
X5327205Y-6038579D02*
X5336729Y-6076674D01*
X5336729Y-6076674D02*
X5336729Y-6124293D01*
X5336729Y-6124293D02*
X5327205Y-6162388D01*
X5327205Y-6162388D02*
X5317682Y-6181436D01*
X5317682Y-6181436D02*
X5308158Y-6190960D01*
X5308158Y-6190960D02*
X5289110Y-6200484D01*
X5289110Y-6200484D02*
X5270063Y-6200484D01*
X5270063Y-6200484D02*
X5251015Y-6190960D01*
X5251015Y-6190960D02*
X5241491Y-6181436D01*
X5241491Y-6181436D02*
X5231967Y-6162388D01*
X5231967Y-6162388D02*
X5222444Y-6124293D01*
X5222444Y-6124293D02*
X5222444Y-6076674D01*
X5222444Y-6076674D02*
X5231967Y-6038579D01*
X5231967Y-6038579D02*
X5241491Y-6019531D01*
X5241491Y-6019531D02*
X5251015Y-6010008D01*
X5251015Y-6010008D02*
X5270063Y-6000484D01*
X5460539Y-6000484D02*
X5479586Y-6000484D01*
X5479586Y-6000484D02*
X5498634Y-6010008D01*
X5498634Y-6010008D02*
X5508158Y-6019531D01*
X5508158Y-6019531D02*
X5517682Y-6038579D01*
X5517682Y-6038579D02*
X5527205Y-6076674D01*
X5527205Y-6076674D02*
X5527205Y-6124293D01*
X5527205Y-6124293D02*
X5517682Y-6162388D01*
X5517682Y-6162388D02*
X5508158Y-6181436D01*
X5508158Y-6181436D02*
X5498634Y-6190960D01*
X5498634Y-6190960D02*
X5479586Y-6200484D01*
X5479586Y-6200484D02*
X5460539Y-6200484D01*
X5460539Y-6200484D02*
X5441491Y-6190960D01*
X5441491Y-6190960D02*
X5431967Y-6181436D01*
X5431967Y-6181436D02*
X5422444Y-6162388D01*
X5422444Y-6162388D02*
X5412920Y-6124293D01*
X5412920Y-6124293D02*
X5412920Y-6076674D01*
X5412920Y-6076674D02*
X5422444Y-6038579D01*
X5422444Y-6038579D02*
X5431967Y-6019531D01*
X5431967Y-6019531D02*
X5441491Y-6010008D01*
X5441491Y-6010008D02*
X5460539Y-6000484D01*
X5612920Y-6200484D02*
X5612920Y-6067150D01*
X5612920Y-6086198D02*
X5622443Y-6076674D01*
X5622443Y-6076674D02*
X5641491Y-6067150D01*
X5641491Y-6067150D02*
X5670063Y-6067150D01*
X5670063Y-6067150D02*
X5689110Y-6076674D01*
X5689110Y-6076674D02*
X5698634Y-6095722D01*
X5698634Y-6095722D02*
X5698634Y-6200484D01*
X5698634Y-6095722D02*
X5708158Y-6076674D01*
X5708158Y-6076674D02*
X5727205Y-6067150D01*
X5727205Y-6067150D02*
X5755777Y-6067150D01*
X5755777Y-6067150D02*
X5774824Y-6076674D01*
X5774824Y-6076674D02*
X5784348Y-6095722D01*
X5784348Y-6095722D02*
X5784348Y-6200484D01*
X5879586Y-6200484D02*
X5879586Y-6067150D01*
X5879586Y-6086198D02*
X5889110Y-6076674D01*
X5889110Y-6076674D02*
X5908158Y-6067150D01*
X5908158Y-6067150D02*
X5936729Y-6067150D01*
X5936729Y-6067150D02*
X5955777Y-6076674D01*
X5955777Y-6076674D02*
X5965301Y-6095722D01*
X5965301Y-6095722D02*
X5965301Y-6200484D01*
X5965301Y-6095722D02*
X5974824Y-6076674D01*
X5974824Y-6076674D02*
X5993872Y-6067150D01*
X5993872Y-6067150D02*
X6022443Y-6067150D01*
X6022443Y-6067150D02*
X6041491Y-6076674D01*
X6041491Y-6076674D02*
X6051015Y-6095722D01*
X6051015Y-6095722D02*
X6051015Y-6200484D01*
X6441491Y-5990960D02*
X6270063Y-6248103D01*
X6698634Y-6000484D02*
X6717682Y-6000484D01*
X6717682Y-6000484D02*
X6736729Y-6010008D01*
X6736729Y-6010008D02*
X6746253Y-6019531D01*
X6746253Y-6019531D02*
X6755777Y-6038579D01*
X6755777Y-6038579D02*
X6765301Y-6076674D01*
X6765301Y-6076674D02*
X6765301Y-6124293D01*
X6765301Y-6124293D02*
X6755777Y-6162388D01*
X6755777Y-6162388D02*
X6746253Y-6181436D01*
X6746253Y-6181436D02*
X6736729Y-6190960D01*
X6736729Y-6190960D02*
X6717682Y-6200484D01*
X6717682Y-6200484D02*
X6698634Y-6200484D01*
X6698634Y-6200484D02*
X6679586Y-6190960D01*
X6679586Y-6190960D02*
X6670063Y-6181436D01*
X6670063Y-6181436D02*
X6660539Y-6162388D01*
X6660539Y-6162388D02*
X6651015Y-6124293D01*
X6651015Y-6124293D02*
X6651015Y-6076674D01*
X6651015Y-6076674D02*
X6660539Y-6038579D01*
X6660539Y-6038579D02*
X6670063Y-6019531D01*
X6670063Y-6019531D02*
X6679586Y-6010008D01*
X6679586Y-6010008D02*
X6698634Y-6000484D01*
X6851015Y-6181436D02*
X6860539Y-6190960D01*
X6860539Y-6190960D02*
X6851015Y-6200484D01*
X6851015Y-6200484D02*
X6841491Y-6190960D01*
X6841491Y-6190960D02*
X6851015Y-6181436D01*
X6851015Y-6181436D02*
X6851015Y-6200484D01*
X6984348Y-6000484D02*
X7003396Y-6000484D01*
X7003396Y-6000484D02*
X7022444Y-6010008D01*
X7022444Y-6010008D02*
X7031967Y-6019531D01*
X7031967Y-6019531D02*
X7041491Y-6038579D01*
X7041491Y-6038579D02*
X7051015Y-6076674D01*
X7051015Y-6076674D02*
X7051015Y-6124293D01*
X7051015Y-6124293D02*
X7041491Y-6162388D01*
X7041491Y-6162388D02*
X7031967Y-6181436D01*
X7031967Y-6181436D02*
X7022444Y-6190960D01*
X7022444Y-6190960D02*
X7003396Y-6200484D01*
X7003396Y-6200484D02*
X6984348Y-6200484D01*
X6984348Y-6200484D02*
X6965301Y-6190960D01*
X6965301Y-6190960D02*
X6955777Y-6181436D01*
X6955777Y-6181436D02*
X6946253Y-6162388D01*
X6946253Y-6162388D02*
X6936729Y-6124293D01*
X6936729Y-6124293D02*
X6936729Y-6076674D01*
X6936729Y-6076674D02*
X6946253Y-6038579D01*
X6946253Y-6038579D02*
X6955777Y-6019531D01*
X6955777Y-6019531D02*
X6965301Y-6010008D01*
X6965301Y-6010008D02*
X6984348Y-6000484D01*
X7117682Y-6000484D02*
X7241491Y-6000484D01*
X7241491Y-6000484D02*
X7174825Y-6076674D01*
X7174825Y-6076674D02*
X7203396Y-6076674D01*
X7203396Y-6076674D02*
X7222444Y-6086198D01*
X7222444Y-6086198D02*
X7231967Y-6095722D01*
X7231967Y-6095722D02*
X7241491Y-6114769D01*
X7241491Y-6114769D02*
X7241491Y-6162388D01*
X7241491Y-6162388D02*
X7231967Y-6181436D01*
X7231967Y-6181436D02*
X7222444Y-6190960D01*
X7222444Y-6190960D02*
X7203396Y-6200484D01*
X7203396Y-6200484D02*
X7146253Y-6200484D01*
X7146253Y-6200484D02*
X7127206Y-6190960D01*
X7127206Y-6190960D02*
X7117682Y-6181436D01*
X7422444Y-6000484D02*
X7327206Y-6000484D01*
X7327206Y-6000484D02*
X7317682Y-6095722D01*
X7317682Y-6095722D02*
X7327206Y-6086198D01*
X7327206Y-6086198D02*
X7346253Y-6076674D01*
X7346253Y-6076674D02*
X7393872Y-6076674D01*
X7393872Y-6076674D02*
X7412920Y-6086198D01*
X7412920Y-6086198D02*
X7422444Y-6095722D01*
X7422444Y-6095722D02*
X7431967Y-6114769D01*
X7431967Y-6114769D02*
X7431967Y-6162388D01*
X7431967Y-6162388D02*
X7422444Y-6181436D01*
X7422444Y-6181436D02*
X7412920Y-6190960D01*
X7412920Y-6190960D02*
X7393872Y-6200484D01*
X7393872Y-6200484D02*
X7346253Y-6200484D01*
X7346253Y-6200484D02*
X7327206Y-6190960D01*
X7327206Y-6190960D02*
X7317682Y-6181436D01*
X7603396Y-6067150D02*
X7603396Y-6200484D01*
X7555777Y-5990960D02*
X7508158Y-6133817D01*
X7508158Y-6133817D02*
X7631967Y-6133817D01*
X7698634Y-6000484D02*
X7698634Y-6038579D01*
X7774825Y-6000484D02*
X7774825Y-6038579D01*
X8070063Y-6276674D02*
X8060539Y-6267150D01*
X8060539Y-6267150D02*
X8041491Y-6238579D01*
X8041491Y-6238579D02*
X8031968Y-6219531D01*
X8031968Y-6219531D02*
X8022444Y-6190960D01*
X8022444Y-6190960D02*
X8012920Y-6143341D01*
X8012920Y-6143341D02*
X8012920Y-6105246D01*
X8012920Y-6105246D02*
X8022444Y-6057627D01*
X8022444Y-6057627D02*
X8031968Y-6029055D01*
X8031968Y-6029055D02*
X8041491Y-6010008D01*
X8041491Y-6010008D02*
X8060539Y-5981436D01*
X8060539Y-5981436D02*
X8070063Y-5971912D01*
X8231968Y-6067150D02*
X8231968Y-6200484D01*
X8184348Y-5990960D02*
X8136729Y-6133817D01*
X8136729Y-6133817D02*
X8260539Y-6133817D01*
X8489111Y-6200484D02*
X8489111Y-6000484D01*
X8574825Y-6200484D02*
X8574825Y-6095722D01*
X8574825Y-6095722D02*
X8565301Y-6076674D01*
X8565301Y-6076674D02*
X8546253Y-6067150D01*
X8546253Y-6067150D02*
X8517682Y-6067150D01*
X8517682Y-6067150D02*
X8498634Y-6076674D01*
X8498634Y-6076674D02*
X8489111Y-6086198D01*
X8698634Y-6200484D02*
X8679587Y-6190960D01*
X8679587Y-6190960D02*
X8670063Y-6181436D01*
X8670063Y-6181436D02*
X8660539Y-6162388D01*
X8660539Y-6162388D02*
X8660539Y-6105246D01*
X8660539Y-6105246D02*
X8670063Y-6086198D01*
X8670063Y-6086198D02*
X8679587Y-6076674D01*
X8679587Y-6076674D02*
X8698634Y-6067150D01*
X8698634Y-6067150D02*
X8727206Y-6067150D01*
X8727206Y-6067150D02*
X8746253Y-6076674D01*
X8746253Y-6076674D02*
X8755777Y-6086198D01*
X8755777Y-6086198D02*
X8765301Y-6105246D01*
X8765301Y-6105246D02*
X8765301Y-6162388D01*
X8765301Y-6162388D02*
X8755777Y-6181436D01*
X8755777Y-6181436D02*
X8746253Y-6190960D01*
X8746253Y-6190960D02*
X8727206Y-6200484D01*
X8727206Y-6200484D02*
X8698634Y-6200484D01*
X8879587Y-6200484D02*
X8860539Y-6190960D01*
X8860539Y-6190960D02*
X8851015Y-6171912D01*
X8851015Y-6171912D02*
X8851015Y-6000484D01*
X9031968Y-6190960D02*
X9012920Y-6200484D01*
X9012920Y-6200484D02*
X8974825Y-6200484D01*
X8974825Y-6200484D02*
X8955777Y-6190960D01*
X8955777Y-6190960D02*
X8946253Y-6171912D01*
X8946253Y-6171912D02*
X8946253Y-6095722D01*
X8946253Y-6095722D02*
X8955777Y-6076674D01*
X8955777Y-6076674D02*
X8974825Y-6067150D01*
X8974825Y-6067150D02*
X9012920Y-6067150D01*
X9012920Y-6067150D02*
X9031968Y-6076674D01*
X9031968Y-6076674D02*
X9041492Y-6095722D01*
X9041492Y-6095722D02*
X9041492Y-6114769D01*
X9041492Y-6114769D02*
X8946253Y-6133817D01*
X9117682Y-6190960D02*
X9136730Y-6200484D01*
X9136730Y-6200484D02*
X9174825Y-6200484D01*
X9174825Y-6200484D02*
X9193873Y-6190960D01*
X9193873Y-6190960D02*
X9203396Y-6171912D01*
X9203396Y-6171912D02*
X9203396Y-6162388D01*
X9203396Y-6162388D02*
X9193873Y-6143341D01*
X9193873Y-6143341D02*
X9174825Y-6133817D01*
X9174825Y-6133817D02*
X9146253Y-6133817D01*
X9146253Y-6133817D02*
X9127206Y-6124293D01*
X9127206Y-6124293D02*
X9117682Y-6105246D01*
X9117682Y-6105246D02*
X9117682Y-6095722D01*
X9117682Y-6095722D02*
X9127206Y-6076674D01*
X9127206Y-6076674D02*
X9146253Y-6067150D01*
X9146253Y-6067150D02*
X9174825Y-6067150D01*
X9174825Y-6067150D02*
X9193873Y-6076674D01*
X9270063Y-6276674D02*
X9279587Y-6267150D01*
X9279587Y-6267150D02*
X9298634Y-6238579D01*
X9298634Y-6238579D02*
X9308158Y-6219531D01*
X9308158Y-6219531D02*
X9317682Y-6190960D01*
X9317682Y-6190960D02*
X9327206Y-6143341D01*
X9327206Y-6143341D02*
X9327206Y-6105246D01*
X9327206Y-6105246D02*
X9317682Y-6057627D01*
X9317682Y-6057627D02*
X9308158Y-6029055D01*
X9308158Y-6029055D02*
X9298634Y-6010008D01*
X9298634Y-6010008D02*
X9279587Y-5981436D01*
X9279587Y-5981436D02*
X9270063Y-5971912D01*
D10*
X4447500Y-6325500D02*
X4447500Y-6420500D01*
X4400000Y-6373000D02*
X4495000Y-6373000D01*
D11*
X4793872Y-6264484D02*
X4812920Y-6264484D01*
X4812920Y-6264484D02*
X4831967Y-6274008D01*
X4831967Y-6274008D02*
X4841491Y-6283531D01*
X4841491Y-6283531D02*
X4851015Y-6302579D01*
X4851015Y-6302579D02*
X4860539Y-6340674D01*
X4860539Y-6340674D02*
X4860539Y-6388293D01*
X4860539Y-6388293D02*
X4851015Y-6426388D01*
X4851015Y-6426388D02*
X4841491Y-6445436D01*
X4841491Y-6445436D02*
X4831967Y-6454960D01*
X4831967Y-6454960D02*
X4812920Y-6464484D01*
X4812920Y-6464484D02*
X4793872Y-6464484D01*
X4793872Y-6464484D02*
X4774824Y-6454960D01*
X4774824Y-6454960D02*
X4765301Y-6445436D01*
X4765301Y-6445436D02*
X4755777Y-6426388D01*
X4755777Y-6426388D02*
X4746253Y-6388293D01*
X4746253Y-6388293D02*
X4746253Y-6340674D01*
X4746253Y-6340674D02*
X4755777Y-6302579D01*
X4755777Y-6302579D02*
X4765301Y-6283531D01*
X4765301Y-6283531D02*
X4774824Y-6274008D01*
X4774824Y-6274008D02*
X4793872Y-6264484D01*
X4946253Y-6445436D02*
X4955777Y-6454960D01*
X4955777Y-6454960D02*
X4946253Y-6464484D01*
X4946253Y-6464484D02*
X4936729Y-6454960D01*
X4936729Y-6454960D02*
X4946253Y-6445436D01*
X4946253Y-6445436D02*
X4946253Y-6464484D01*
X5051015Y-6464484D02*
X5089110Y-6464484D01*
X5089110Y-6464484D02*
X5108158Y-6454960D01*
X5108158Y-6454960D02*
X5117682Y-6445436D01*
X5117682Y-6445436D02*
X5136729Y-6416865D01*
X5136729Y-6416865D02*
X5146253Y-6378769D01*
X5146253Y-6378769D02*
X5146253Y-6302579D01*
X5146253Y-6302579D02*
X5136729Y-6283531D01*
X5136729Y-6283531D02*
X5127205Y-6274008D01*
X5127205Y-6274008D02*
X5108158Y-6264484D01*
X5108158Y-6264484D02*
X5070063Y-6264484D01*
X5070063Y-6264484D02*
X5051015Y-6274008D01*
X5051015Y-6274008D02*
X5041491Y-6283531D01*
X5041491Y-6283531D02*
X5031967Y-6302579D01*
X5031967Y-6302579D02*
X5031967Y-6350198D01*
X5031967Y-6350198D02*
X5041491Y-6369246D01*
X5041491Y-6369246D02*
X5051015Y-6378769D01*
X5051015Y-6378769D02*
X5070063Y-6388293D01*
X5070063Y-6388293D02*
X5108158Y-6388293D01*
X5108158Y-6388293D02*
X5127205Y-6378769D01*
X5127205Y-6378769D02*
X5136729Y-6369246D01*
X5136729Y-6369246D02*
X5146253Y-6350198D01*
X5327205Y-6264484D02*
X5231967Y-6264484D01*
X5231967Y-6264484D02*
X5222444Y-6359722D01*
X5222444Y-6359722D02*
X5231967Y-6350198D01*
X5231967Y-6350198D02*
X5251015Y-6340674D01*
X5251015Y-6340674D02*
X5298634Y-6340674D01*
X5298634Y-6340674D02*
X5317682Y-6350198D01*
X5317682Y-6350198D02*
X5327205Y-6359722D01*
X5327205Y-6359722D02*
X5336729Y-6378769D01*
X5336729Y-6378769D02*
X5336729Y-6426388D01*
X5336729Y-6426388D02*
X5327205Y-6445436D01*
X5327205Y-6445436D02*
X5317682Y-6454960D01*
X5317682Y-6454960D02*
X5298634Y-6464484D01*
X5298634Y-6464484D02*
X5251015Y-6464484D01*
X5251015Y-6464484D02*
X5231967Y-6454960D01*
X5231967Y-6454960D02*
X5222444Y-6445436D01*
X5460539Y-6264484D02*
X5479586Y-6264484D01*
X5479586Y-6264484D02*
X5498634Y-6274008D01*
X5498634Y-6274008D02*
X5508158Y-6283531D01*
X5508158Y-6283531D02*
X5517682Y-6302579D01*
X5517682Y-6302579D02*
X5527205Y-6340674D01*
X5527205Y-6340674D02*
X5527205Y-6388293D01*
X5527205Y-6388293D02*
X5517682Y-6426388D01*
X5517682Y-6426388D02*
X5508158Y-6445436D01*
X5508158Y-6445436D02*
X5498634Y-6454960D01*
X5498634Y-6454960D02*
X5479586Y-6464484D01*
X5479586Y-6464484D02*
X5460539Y-6464484D01*
X5460539Y-6464484D02*
X5441491Y-6454960D01*
X5441491Y-6454960D02*
X5431967Y-6445436D01*
X5431967Y-6445436D02*
X5422444Y-6426388D01*
X5422444Y-6426388D02*
X5412920Y-6388293D01*
X5412920Y-6388293D02*
X5412920Y-6340674D01*
X5412920Y-6340674D02*
X5422444Y-6302579D01*
X5422444Y-6302579D02*
X5431967Y-6283531D01*
X5431967Y-6283531D02*
X5441491Y-6274008D01*
X5441491Y-6274008D02*
X5460539Y-6264484D01*
X5612920Y-6464484D02*
X5612920Y-6331150D01*
X5612920Y-6350198D02*
X5622443Y-6340674D01*
X5622443Y-6340674D02*
X5641491Y-6331150D01*
X5641491Y-6331150D02*
X5670063Y-6331150D01*
X5670063Y-6331150D02*
X5689110Y-6340674D01*
X5689110Y-6340674D02*
X5698634Y-6359722D01*
X5698634Y-6359722D02*
X5698634Y-6464484D01*
X5698634Y-6359722D02*
X5708158Y-6340674D01*
X5708158Y-6340674D02*
X5727205Y-6331150D01*
X5727205Y-6331150D02*
X5755777Y-6331150D01*
X5755777Y-6331150D02*
X5774824Y-6340674D01*
X5774824Y-6340674D02*
X5784348Y-6359722D01*
X5784348Y-6359722D02*
X5784348Y-6464484D01*
X5879586Y-6464484D02*
X5879586Y-6331150D01*
X5879586Y-6350198D02*
X5889110Y-6340674D01*
X5889110Y-6340674D02*
X5908158Y-6331150D01*
X5908158Y-6331150D02*
X5936729Y-6331150D01*
X5936729Y-6331150D02*
X5955777Y-6340674D01*
X5955777Y-6340674D02*
X5965301Y-6359722D01*
X5965301Y-6359722D02*
X5965301Y-6464484D01*
X5965301Y-6359722D02*
X5974824Y-6340674D01*
X5974824Y-6340674D02*
X5993872Y-6331150D01*
X5993872Y-6331150D02*
X6022443Y-6331150D01*
X6022443Y-6331150D02*
X6041491Y-6340674D01*
X6041491Y-6340674D02*
X6051015Y-6359722D01*
X6051015Y-6359722D02*
X6051015Y-6464484D01*
X6441491Y-6254960D02*
X6270063Y-6512103D01*
X6698634Y-6264484D02*
X6717682Y-6264484D01*
X6717682Y-6264484D02*
X6736729Y-6274008D01*
X6736729Y-6274008D02*
X6746253Y-6283531D01*
X6746253Y-6283531D02*
X6755777Y-6302579D01*
X6755777Y-6302579D02*
X6765301Y-6340674D01*
X6765301Y-6340674D02*
X6765301Y-6388293D01*
X6765301Y-6388293D02*
X6755777Y-6426388D01*
X6755777Y-6426388D02*
X6746253Y-6445436D01*
X6746253Y-6445436D02*
X6736729Y-6454960D01*
X6736729Y-6454960D02*
X6717682Y-6464484D01*
X6717682Y-6464484D02*
X6698634Y-6464484D01*
X6698634Y-6464484D02*
X6679586Y-6454960D01*
X6679586Y-6454960D02*
X6670063Y-6445436D01*
X6670063Y-6445436D02*
X6660539Y-6426388D01*
X6660539Y-6426388D02*
X6651015Y-6388293D01*
X6651015Y-6388293D02*
X6651015Y-6340674D01*
X6651015Y-6340674D02*
X6660539Y-6302579D01*
X6660539Y-6302579D02*
X6670063Y-6283531D01*
X6670063Y-6283531D02*
X6679586Y-6274008D01*
X6679586Y-6274008D02*
X6698634Y-6264484D01*
X6851015Y-6445436D02*
X6860539Y-6454960D01*
X6860539Y-6454960D02*
X6851015Y-6464484D01*
X6851015Y-6464484D02*
X6841491Y-6454960D01*
X6841491Y-6454960D02*
X6851015Y-6445436D01*
X6851015Y-6445436D02*
X6851015Y-6464484D01*
X6984348Y-6264484D02*
X7003396Y-6264484D01*
X7003396Y-6264484D02*
X7022444Y-6274008D01*
X7022444Y-6274008D02*
X7031967Y-6283531D01*
X7031967Y-6283531D02*
X7041491Y-6302579D01*
X7041491Y-6302579D02*
X7051015Y-6340674D01*
X7051015Y-6340674D02*
X7051015Y-6388293D01*
X7051015Y-6388293D02*
X7041491Y-6426388D01*
X7041491Y-6426388D02*
X7031967Y-6445436D01*
X7031967Y-6445436D02*
X7022444Y-6454960D01*
X7022444Y-6454960D02*
X7003396Y-6464484D01*
X7003396Y-6464484D02*
X6984348Y-6464484D01*
X6984348Y-6464484D02*
X6965301Y-6454960D01*
X6965301Y-6454960D02*
X6955777Y-6445436D01*
X6955777Y-6445436D02*
X6946253Y-6426388D01*
X6946253Y-6426388D02*
X6936729Y-6388293D01*
X6936729Y-6388293D02*
X6936729Y-6340674D01*
X6936729Y-6340674D02*
X6946253Y-6302579D01*
X6946253Y-6302579D02*
X6955777Y-6283531D01*
X6955777Y-6283531D02*
X6965301Y-6274008D01*
X6965301Y-6274008D02*
X6984348Y-6264484D01*
X7117682Y-6264484D02*
X7241491Y-6264484D01*
X7241491Y-6264484D02*
X7174825Y-6340674D01*
X7174825Y-6340674D02*
X7203396Y-6340674D01*
X7203396Y-6340674D02*
X7222444Y-6350198D01*
X7222444Y-6350198D02*
X7231967Y-6359722D01*
X7231967Y-6359722D02*
X7241491Y-6378769D01*
X7241491Y-6378769D02*
X7241491Y-6426388D01*
X7241491Y-6426388D02*
X7231967Y-6445436D01*
X7231967Y-6445436D02*
X7222444Y-6454960D01*
X7222444Y-6454960D02*
X7203396Y-6464484D01*
X7203396Y-6464484D02*
X7146253Y-6464484D01*
X7146253Y-6464484D02*
X7127206Y-6454960D01*
X7127206Y-6454960D02*
X7117682Y-6445436D01*
X7308158Y-6264484D02*
X7441491Y-6264484D01*
X7441491Y-6264484D02*
X7355777Y-6464484D01*
X7603396Y-6331150D02*
X7603396Y-6464484D01*
X7555777Y-6254960D02*
X7508158Y-6397817D01*
X7508158Y-6397817D02*
X7631967Y-6397817D01*
X7698634Y-6264484D02*
X7698634Y-6302579D01*
X7774825Y-6264484D02*
X7774825Y-6302579D01*
X8070063Y-6540674D02*
X8060539Y-6531150D01*
X8060539Y-6531150D02*
X8041491Y-6502579D01*
X8041491Y-6502579D02*
X8031968Y-6483531D01*
X8031968Y-6483531D02*
X8022444Y-6454960D01*
X8022444Y-6454960D02*
X8012920Y-6407341D01*
X8012920Y-6407341D02*
X8012920Y-6369246D01*
X8012920Y-6369246D02*
X8022444Y-6321627D01*
X8022444Y-6321627D02*
X8031968Y-6293055D01*
X8031968Y-6293055D02*
X8041491Y-6274008D01*
X8041491Y-6274008D02*
X8060539Y-6245436D01*
X8060539Y-6245436D02*
X8070063Y-6235912D01*
X8127206Y-6264484D02*
X8251015Y-6264484D01*
X8251015Y-6264484D02*
X8184348Y-6340674D01*
X8184348Y-6340674D02*
X8212920Y-6340674D01*
X8212920Y-6340674D02*
X8231968Y-6350198D01*
X8231968Y-6350198D02*
X8241491Y-6359722D01*
X8241491Y-6359722D02*
X8251015Y-6378769D01*
X8251015Y-6378769D02*
X8251015Y-6426388D01*
X8251015Y-6426388D02*
X8241491Y-6445436D01*
X8241491Y-6445436D02*
X8231968Y-6454960D01*
X8231968Y-6454960D02*
X8212920Y-6464484D01*
X8212920Y-6464484D02*
X8155777Y-6464484D01*
X8155777Y-6464484D02*
X8136729Y-6454960D01*
X8136729Y-6454960D02*
X8127206Y-6445436D01*
X8489111Y-6464484D02*
X8489111Y-6264484D01*
X8574825Y-6464484D02*
X8574825Y-6359722D01*
X8574825Y-6359722D02*
X8565301Y-6340674D01*
X8565301Y-6340674D02*
X8546253Y-6331150D01*
X8546253Y-6331150D02*
X8517682Y-6331150D01*
X8517682Y-6331150D02*
X8498634Y-6340674D01*
X8498634Y-6340674D02*
X8489111Y-6350198D01*
X8698634Y-6464484D02*
X8679587Y-6454960D01*
X8679587Y-6454960D02*
X8670063Y-6445436D01*
X8670063Y-6445436D02*
X8660539Y-6426388D01*
X8660539Y-6426388D02*
X8660539Y-6369246D01*
X8660539Y-6369246D02*
X8670063Y-6350198D01*
X8670063Y-6350198D02*
X8679587Y-6340674D01*
X8679587Y-6340674D02*
X8698634Y-6331150D01*
X8698634Y-6331150D02*
X8727206Y-6331150D01*
X8727206Y-6331150D02*
X8746253Y-6340674D01*
X8746253Y-6340674D02*
X8755777Y-6350198D01*
X8755777Y-6350198D02*
X8765301Y-6369246D01*
X8765301Y-6369246D02*
X8765301Y-6426388D01*
X8765301Y-6426388D02*
X8755777Y-6445436D01*
X8755777Y-6445436D02*
X8746253Y-6454960D01*
X8746253Y-6454960D02*
X8727206Y-6464484D01*
X8727206Y-6464484D02*
X8698634Y-6464484D01*
X8879587Y-6464484D02*
X8860539Y-6454960D01*
X8860539Y-6454960D02*
X8851015Y-6435912D01*
X8851015Y-6435912D02*
X8851015Y-6264484D01*
X9031968Y-6454960D02*
X9012920Y-6464484D01*
X9012920Y-6464484D02*
X8974825Y-6464484D01*
X8974825Y-6464484D02*
X8955777Y-6454960D01*
X8955777Y-6454960D02*
X8946253Y-6435912D01*
X8946253Y-6435912D02*
X8946253Y-6359722D01*
X8946253Y-6359722D02*
X8955777Y-6340674D01*
X8955777Y-6340674D02*
X8974825Y-6331150D01*
X8974825Y-6331150D02*
X9012920Y-6331150D01*
X9012920Y-6331150D02*
X9031968Y-6340674D01*
X9031968Y-6340674D02*
X9041492Y-6359722D01*
X9041492Y-6359722D02*
X9041492Y-6378769D01*
X9041492Y-6378769D02*
X8946253Y-6397817D01*
X9117682Y-6454960D02*
X9136730Y-6464484D01*
X9136730Y-6464484D02*
X9174825Y-6464484D01*
X9174825Y-6464484D02*
X9193873Y-6454960D01*
X9193873Y-6454960D02*
X9203396Y-6435912D01*
X9203396Y-6435912D02*
X9203396Y-6426388D01*
X9203396Y-6426388D02*
X9193873Y-6407341D01*
X9193873Y-6407341D02*
X9174825Y-6397817D01*
X9174825Y-6397817D02*
X9146253Y-6397817D01*
X9146253Y-6397817D02*
X9127206Y-6388293D01*
X9127206Y-6388293D02*
X9117682Y-6369246D01*
X9117682Y-6369246D02*
X9117682Y-6359722D01*
X9117682Y-6359722D02*
X9127206Y-6340674D01*
X9127206Y-6340674D02*
X9146253Y-6331150D01*
X9146253Y-6331150D02*
X9174825Y-6331150D01*
X9174825Y-6331150D02*
X9193873Y-6340674D01*
X9270063Y-6540674D02*
X9279587Y-6531150D01*
X9279587Y-6531150D02*
X9298634Y-6502579D01*
X9298634Y-6502579D02*
X9308158Y-6483531D01*
X9308158Y-6483531D02*
X9317682Y-6454960D01*
X9317682Y-6454960D02*
X9327206Y-6407341D01*
X9327206Y-6407341D02*
X9327206Y-6369246D01*
X9327206Y-6369246D02*
X9317682Y-6321627D01*
X9317682Y-6321627D02*
X9308158Y-6293055D01*
X9308158Y-6293055D02*
X9298634Y-6274008D01*
X9298634Y-6274008D02*
X9279587Y-6245436D01*
X9279587Y-6245436D02*
X9270063Y-6235912D01*
D10*
X4480356Y-6672356D02*
X4480356Y-6601644D01*
X4409644Y-6601644D01*
X4409644Y-6672356D01*
X4480356Y-6672356D01*
D11*
X4860539Y-6728484D02*
X4746253Y-6728484D01*
X4803396Y-6728484D02*
X4803396Y-6528484D01*
X4803396Y-6528484D02*
X4784348Y-6557055D01*
X4784348Y-6557055D02*
X4765301Y-6576103D01*
X4765301Y-6576103D02*
X4746253Y-6585627D01*
X4946253Y-6709436D02*
X4955777Y-6718960D01*
X4955777Y-6718960D02*
X4946253Y-6728484D01*
X4946253Y-6728484D02*
X4936729Y-6718960D01*
X4936729Y-6718960D02*
X4946253Y-6709436D01*
X4946253Y-6709436D02*
X4946253Y-6728484D01*
X5079586Y-6528484D02*
X5098634Y-6528484D01*
X5098634Y-6528484D02*
X5117682Y-6538008D01*
X5117682Y-6538008D02*
X5127205Y-6547531D01*
X5127205Y-6547531D02*
X5136729Y-6566579D01*
X5136729Y-6566579D02*
X5146253Y-6604674D01*
X5146253Y-6604674D02*
X5146253Y-6652293D01*
X5146253Y-6652293D02*
X5136729Y-6690388D01*
X5136729Y-6690388D02*
X5127205Y-6709436D01*
X5127205Y-6709436D02*
X5117682Y-6718960D01*
X5117682Y-6718960D02*
X5098634Y-6728484D01*
X5098634Y-6728484D02*
X5079586Y-6728484D01*
X5079586Y-6728484D02*
X5060539Y-6718960D01*
X5060539Y-6718960D02*
X5051015Y-6709436D01*
X5051015Y-6709436D02*
X5041491Y-6690388D01*
X5041491Y-6690388D02*
X5031967Y-6652293D01*
X5031967Y-6652293D02*
X5031967Y-6604674D01*
X5031967Y-6604674D02*
X5041491Y-6566579D01*
X5041491Y-6566579D02*
X5051015Y-6547531D01*
X5051015Y-6547531D02*
X5060539Y-6538008D01*
X5060539Y-6538008D02*
X5079586Y-6528484D01*
X5270063Y-6528484D02*
X5289110Y-6528484D01*
X5289110Y-6528484D02*
X5308158Y-6538008D01*
X5308158Y-6538008D02*
X5317682Y-6547531D01*
X5317682Y-6547531D02*
X5327205Y-6566579D01*
X5327205Y-6566579D02*
X5336729Y-6604674D01*
X5336729Y-6604674D02*
X5336729Y-6652293D01*
X5336729Y-6652293D02*
X5327205Y-6690388D01*
X5327205Y-6690388D02*
X5317682Y-6709436D01*
X5317682Y-6709436D02*
X5308158Y-6718960D01*
X5308158Y-6718960D02*
X5289110Y-6728484D01*
X5289110Y-6728484D02*
X5270063Y-6728484D01*
X5270063Y-6728484D02*
X5251015Y-6718960D01*
X5251015Y-6718960D02*
X5241491Y-6709436D01*
X5241491Y-6709436D02*
X5231967Y-6690388D01*
X5231967Y-6690388D02*
X5222444Y-6652293D01*
X5222444Y-6652293D02*
X5222444Y-6604674D01*
X5222444Y-6604674D02*
X5231967Y-6566579D01*
X5231967Y-6566579D02*
X5241491Y-6547531D01*
X5241491Y-6547531D02*
X5251015Y-6538008D01*
X5251015Y-6538008D02*
X5270063Y-6528484D01*
X5460539Y-6528484D02*
X5479586Y-6528484D01*
X5479586Y-6528484D02*
X5498634Y-6538008D01*
X5498634Y-6538008D02*
X5508158Y-6547531D01*
X5508158Y-6547531D02*
X5517682Y-6566579D01*
X5517682Y-6566579D02*
X5527205Y-6604674D01*
X5527205Y-6604674D02*
X5527205Y-6652293D01*
X5527205Y-6652293D02*
X5517682Y-6690388D01*
X5517682Y-6690388D02*
X5508158Y-6709436D01*
X5508158Y-6709436D02*
X5498634Y-6718960D01*
X5498634Y-6718960D02*
X5479586Y-6728484D01*
X5479586Y-6728484D02*
X5460539Y-6728484D01*
X5460539Y-6728484D02*
X5441491Y-6718960D01*
X5441491Y-6718960D02*
X5431967Y-6709436D01*
X5431967Y-6709436D02*
X5422444Y-6690388D01*
X5422444Y-6690388D02*
X5412920Y-6652293D01*
X5412920Y-6652293D02*
X5412920Y-6604674D01*
X5412920Y-6604674D02*
X5422444Y-6566579D01*
X5422444Y-6566579D02*
X5431967Y-6547531D01*
X5431967Y-6547531D02*
X5441491Y-6538008D01*
X5441491Y-6538008D02*
X5460539Y-6528484D01*
X5612920Y-6728484D02*
X5612920Y-6595150D01*
X5612920Y-6614198D02*
X5622443Y-6604674D01*
X5622443Y-6604674D02*
X5641491Y-6595150D01*
X5641491Y-6595150D02*
X5670063Y-6595150D01*
X5670063Y-6595150D02*
X5689110Y-6604674D01*
X5689110Y-6604674D02*
X5698634Y-6623722D01*
X5698634Y-6623722D02*
X5698634Y-6728484D01*
X5698634Y-6623722D02*
X5708158Y-6604674D01*
X5708158Y-6604674D02*
X5727205Y-6595150D01*
X5727205Y-6595150D02*
X5755777Y-6595150D01*
X5755777Y-6595150D02*
X5774824Y-6604674D01*
X5774824Y-6604674D02*
X5784348Y-6623722D01*
X5784348Y-6623722D02*
X5784348Y-6728484D01*
X5879586Y-6728484D02*
X5879586Y-6595150D01*
X5879586Y-6614198D02*
X5889110Y-6604674D01*
X5889110Y-6604674D02*
X5908158Y-6595150D01*
X5908158Y-6595150D02*
X5936729Y-6595150D01*
X5936729Y-6595150D02*
X5955777Y-6604674D01*
X5955777Y-6604674D02*
X5965301Y-6623722D01*
X5965301Y-6623722D02*
X5965301Y-6728484D01*
X5965301Y-6623722D02*
X5974824Y-6604674D01*
X5974824Y-6604674D02*
X5993872Y-6595150D01*
X5993872Y-6595150D02*
X6022443Y-6595150D01*
X6022443Y-6595150D02*
X6041491Y-6604674D01*
X6041491Y-6604674D02*
X6051015Y-6623722D01*
X6051015Y-6623722D02*
X6051015Y-6728484D01*
X6441491Y-6518960D02*
X6270063Y-6776103D01*
X6698634Y-6528484D02*
X6717682Y-6528484D01*
X6717682Y-6528484D02*
X6736729Y-6538008D01*
X6736729Y-6538008D02*
X6746253Y-6547531D01*
X6746253Y-6547531D02*
X6755777Y-6566579D01*
X6755777Y-6566579D02*
X6765301Y-6604674D01*
X6765301Y-6604674D02*
X6765301Y-6652293D01*
X6765301Y-6652293D02*
X6755777Y-6690388D01*
X6755777Y-6690388D02*
X6746253Y-6709436D01*
X6746253Y-6709436D02*
X6736729Y-6718960D01*
X6736729Y-6718960D02*
X6717682Y-6728484D01*
X6717682Y-6728484D02*
X6698634Y-6728484D01*
X6698634Y-6728484D02*
X6679586Y-6718960D01*
X6679586Y-6718960D02*
X6670063Y-6709436D01*
X6670063Y-6709436D02*
X6660539Y-6690388D01*
X6660539Y-6690388D02*
X6651015Y-6652293D01*
X6651015Y-6652293D02*
X6651015Y-6604674D01*
X6651015Y-6604674D02*
X6660539Y-6566579D01*
X6660539Y-6566579D02*
X6670063Y-6547531D01*
X6670063Y-6547531D02*
X6679586Y-6538008D01*
X6679586Y-6538008D02*
X6698634Y-6528484D01*
X6851015Y-6709436D02*
X6860539Y-6718960D01*
X6860539Y-6718960D02*
X6851015Y-6728484D01*
X6851015Y-6728484D02*
X6841491Y-6718960D01*
X6841491Y-6718960D02*
X6851015Y-6709436D01*
X6851015Y-6709436D02*
X6851015Y-6728484D01*
X6984348Y-6528484D02*
X7003396Y-6528484D01*
X7003396Y-6528484D02*
X7022444Y-6538008D01*
X7022444Y-6538008D02*
X7031967Y-6547531D01*
X7031967Y-6547531D02*
X7041491Y-6566579D01*
X7041491Y-6566579D02*
X7051015Y-6604674D01*
X7051015Y-6604674D02*
X7051015Y-6652293D01*
X7051015Y-6652293D02*
X7041491Y-6690388D01*
X7041491Y-6690388D02*
X7031967Y-6709436D01*
X7031967Y-6709436D02*
X7022444Y-6718960D01*
X7022444Y-6718960D02*
X7003396Y-6728484D01*
X7003396Y-6728484D02*
X6984348Y-6728484D01*
X6984348Y-6728484D02*
X6965301Y-6718960D01*
X6965301Y-6718960D02*
X6955777Y-6709436D01*
X6955777Y-6709436D02*
X6946253Y-6690388D01*
X6946253Y-6690388D02*
X6936729Y-6652293D01*
X6936729Y-6652293D02*
X6936729Y-6604674D01*
X6936729Y-6604674D02*
X6946253Y-6566579D01*
X6946253Y-6566579D02*
X6955777Y-6547531D01*
X6955777Y-6547531D02*
X6965301Y-6538008D01*
X6965301Y-6538008D02*
X6984348Y-6528484D01*
X7117682Y-6528484D02*
X7241491Y-6528484D01*
X7241491Y-6528484D02*
X7174825Y-6604674D01*
X7174825Y-6604674D02*
X7203396Y-6604674D01*
X7203396Y-6604674D02*
X7222444Y-6614198D01*
X7222444Y-6614198D02*
X7231967Y-6623722D01*
X7231967Y-6623722D02*
X7241491Y-6642769D01*
X7241491Y-6642769D02*
X7241491Y-6690388D01*
X7241491Y-6690388D02*
X7231967Y-6709436D01*
X7231967Y-6709436D02*
X7222444Y-6718960D01*
X7222444Y-6718960D02*
X7203396Y-6728484D01*
X7203396Y-6728484D02*
X7146253Y-6728484D01*
X7146253Y-6728484D02*
X7127206Y-6718960D01*
X7127206Y-6718960D02*
X7117682Y-6709436D01*
X7336729Y-6728484D02*
X7374825Y-6728484D01*
X7374825Y-6728484D02*
X7393872Y-6718960D01*
X7393872Y-6718960D02*
X7403396Y-6709436D01*
X7403396Y-6709436D02*
X7422444Y-6680865D01*
X7422444Y-6680865D02*
X7431967Y-6642769D01*
X7431967Y-6642769D02*
X7431967Y-6566579D01*
X7431967Y-6566579D02*
X7422444Y-6547531D01*
X7422444Y-6547531D02*
X7412920Y-6538008D01*
X7412920Y-6538008D02*
X7393872Y-6528484D01*
X7393872Y-6528484D02*
X7355777Y-6528484D01*
X7355777Y-6528484D02*
X7336729Y-6538008D01*
X7336729Y-6538008D02*
X7327206Y-6547531D01*
X7327206Y-6547531D02*
X7317682Y-6566579D01*
X7317682Y-6566579D02*
X7317682Y-6614198D01*
X7317682Y-6614198D02*
X7327206Y-6633246D01*
X7327206Y-6633246D02*
X7336729Y-6642769D01*
X7336729Y-6642769D02*
X7355777Y-6652293D01*
X7355777Y-6652293D02*
X7393872Y-6652293D01*
X7393872Y-6652293D02*
X7412920Y-6642769D01*
X7412920Y-6642769D02*
X7422444Y-6633246D01*
X7422444Y-6633246D02*
X7431967Y-6614198D01*
X7603396Y-6595150D02*
X7603396Y-6728484D01*
X7555777Y-6518960D02*
X7508158Y-6661817D01*
X7508158Y-6661817D02*
X7631967Y-6661817D01*
X7698634Y-6528484D02*
X7698634Y-6566579D01*
X7774825Y-6528484D02*
X7774825Y-6566579D01*
X8070063Y-6804674D02*
X8060539Y-6795150D01*
X8060539Y-6795150D02*
X8041491Y-6766579D01*
X8041491Y-6766579D02*
X8031968Y-6747531D01*
X8031968Y-6747531D02*
X8022444Y-6718960D01*
X8022444Y-6718960D02*
X8012920Y-6671341D01*
X8012920Y-6671341D02*
X8012920Y-6633246D01*
X8012920Y-6633246D02*
X8022444Y-6585627D01*
X8022444Y-6585627D02*
X8031968Y-6557055D01*
X8031968Y-6557055D02*
X8041491Y-6538008D01*
X8041491Y-6538008D02*
X8060539Y-6509436D01*
X8060539Y-6509436D02*
X8070063Y-6499912D01*
X8136729Y-6547531D02*
X8146253Y-6538008D01*
X8146253Y-6538008D02*
X8165301Y-6528484D01*
X8165301Y-6528484D02*
X8212920Y-6528484D01*
X8212920Y-6528484D02*
X8231968Y-6538008D01*
X8231968Y-6538008D02*
X8241491Y-6547531D01*
X8241491Y-6547531D02*
X8251015Y-6566579D01*
X8251015Y-6566579D02*
X8251015Y-6585627D01*
X8251015Y-6585627D02*
X8241491Y-6614198D01*
X8241491Y-6614198D02*
X8127206Y-6728484D01*
X8127206Y-6728484D02*
X8251015Y-6728484D01*
X8489111Y-6728484D02*
X8489111Y-6528484D01*
X8574825Y-6728484D02*
X8574825Y-6623722D01*
X8574825Y-6623722D02*
X8565301Y-6604674D01*
X8565301Y-6604674D02*
X8546253Y-6595150D01*
X8546253Y-6595150D02*
X8517682Y-6595150D01*
X8517682Y-6595150D02*
X8498634Y-6604674D01*
X8498634Y-6604674D02*
X8489111Y-6614198D01*
X8698634Y-6728484D02*
X8679587Y-6718960D01*
X8679587Y-6718960D02*
X8670063Y-6709436D01*
X8670063Y-6709436D02*
X8660539Y-6690388D01*
X8660539Y-6690388D02*
X8660539Y-6633246D01*
X8660539Y-6633246D02*
X8670063Y-6614198D01*
X8670063Y-6614198D02*
X8679587Y-6604674D01*
X8679587Y-6604674D02*
X8698634Y-6595150D01*
X8698634Y-6595150D02*
X8727206Y-6595150D01*
X8727206Y-6595150D02*
X8746253Y-6604674D01*
X8746253Y-6604674D02*
X8755777Y-6614198D01*
X8755777Y-6614198D02*
X8765301Y-6633246D01*
X8765301Y-6633246D02*
X8765301Y-6690388D01*
X8765301Y-6690388D02*
X8755777Y-6709436D01*
X8755777Y-6709436D02*
X8746253Y-6718960D01*
X8746253Y-6718960D02*
X8727206Y-6728484D01*
X8727206Y-6728484D02*
X8698634Y-6728484D01*
X8879587Y-6728484D02*
X8860539Y-6718960D01*
X8860539Y-6718960D02*
X8851015Y-6699912D01*
X8851015Y-6699912D02*
X8851015Y-6528484D01*
X9031968Y-6718960D02*
X9012920Y-6728484D01*
X9012920Y-6728484D02*
X8974825Y-6728484D01*
X8974825Y-6728484D02*
X8955777Y-6718960D01*
X8955777Y-6718960D02*
X8946253Y-6699912D01*
X8946253Y-6699912D02*
X8946253Y-6623722D01*
X8946253Y-6623722D02*
X8955777Y-6604674D01*
X8955777Y-6604674D02*
X8974825Y-6595150D01*
X8974825Y-6595150D02*
X9012920Y-6595150D01*
X9012920Y-6595150D02*
X9031968Y-6604674D01*
X9031968Y-6604674D02*
X9041492Y-6623722D01*
X9041492Y-6623722D02*
X9041492Y-6642769D01*
X9041492Y-6642769D02*
X8946253Y-6661817D01*
X9117682Y-6718960D02*
X9136730Y-6728484D01*
X9136730Y-6728484D02*
X9174825Y-6728484D01*
X9174825Y-6728484D02*
X9193873Y-6718960D01*
X9193873Y-6718960D02*
X9203396Y-6699912D01*
X9203396Y-6699912D02*
X9203396Y-6690388D01*
X9203396Y-6690388D02*
X9193873Y-6671341D01*
X9193873Y-6671341D02*
X9174825Y-6661817D01*
X9174825Y-6661817D02*
X9146253Y-6661817D01*
X9146253Y-6661817D02*
X9127206Y-6652293D01*
X9127206Y-6652293D02*
X9117682Y-6633246D01*
X9117682Y-6633246D02*
X9117682Y-6623722D01*
X9117682Y-6623722D02*
X9127206Y-6604674D01*
X9127206Y-6604674D02*
X9146253Y-6595150D01*
X9146253Y-6595150D02*
X9174825Y-6595150D01*
X9174825Y-6595150D02*
X9193873Y-6604674D01*
X9270063Y-6804674D02*
X9279587Y-6795150D01*
X9279587Y-6795150D02*
X9298634Y-6766579D01*
X9298634Y-6766579D02*
X9308158Y-6747531D01*
X9308158Y-6747531D02*
X9317682Y-6718960D01*
X9317682Y-6718960D02*
X9327206Y-6671341D01*
X9327206Y-6671341D02*
X9327206Y-6633246D01*
X9327206Y-6633246D02*
X9317682Y-6585627D01*
X9317682Y-6585627D02*
X9308158Y-6557055D01*
X9308158Y-6557055D02*
X9298634Y-6538008D01*
X9298634Y-6538008D02*
X9279587Y-6509436D01*
X9279587Y-6509436D02*
X9270063Y-6499912D01*
D12*
X4435000Y-6961000D02*
X4495000Y-6901000D01*
X4435000Y-6841000D01*
X4375000Y-6901000D01*
X4435000Y-6961000D01*
D11*
X4860539Y-6992484D02*
X4746253Y-6992484D01*
X4803396Y-6992484D02*
X4803396Y-6792484D01*
X4803396Y-6792484D02*
X4784348Y-6821055D01*
X4784348Y-6821055D02*
X4765301Y-6840103D01*
X4765301Y-6840103D02*
X4746253Y-6849627D01*
X4946253Y-6973436D02*
X4955777Y-6982960D01*
X4955777Y-6982960D02*
X4946253Y-6992484D01*
X4946253Y-6992484D02*
X4936729Y-6982960D01*
X4936729Y-6982960D02*
X4946253Y-6973436D01*
X4946253Y-6973436D02*
X4946253Y-6992484D01*
X5031967Y-6811531D02*
X5041491Y-6802008D01*
X5041491Y-6802008D02*
X5060539Y-6792484D01*
X5060539Y-6792484D02*
X5108158Y-6792484D01*
X5108158Y-6792484D02*
X5127205Y-6802008D01*
X5127205Y-6802008D02*
X5136729Y-6811531D01*
X5136729Y-6811531D02*
X5146253Y-6830579D01*
X5146253Y-6830579D02*
X5146253Y-6849627D01*
X5146253Y-6849627D02*
X5136729Y-6878198D01*
X5136729Y-6878198D02*
X5022444Y-6992484D01*
X5022444Y-6992484D02*
X5146253Y-6992484D01*
X5270063Y-6792484D02*
X5289110Y-6792484D01*
X5289110Y-6792484D02*
X5308158Y-6802008D01*
X5308158Y-6802008D02*
X5317682Y-6811531D01*
X5317682Y-6811531D02*
X5327205Y-6830579D01*
X5327205Y-6830579D02*
X5336729Y-6868674D01*
X5336729Y-6868674D02*
X5336729Y-6916293D01*
X5336729Y-6916293D02*
X5327205Y-6954388D01*
X5327205Y-6954388D02*
X5317682Y-6973436D01*
X5317682Y-6973436D02*
X5308158Y-6982960D01*
X5308158Y-6982960D02*
X5289110Y-6992484D01*
X5289110Y-6992484D02*
X5270063Y-6992484D01*
X5270063Y-6992484D02*
X5251015Y-6982960D01*
X5251015Y-6982960D02*
X5241491Y-6973436D01*
X5241491Y-6973436D02*
X5231967Y-6954388D01*
X5231967Y-6954388D02*
X5222444Y-6916293D01*
X5222444Y-6916293D02*
X5222444Y-6868674D01*
X5222444Y-6868674D02*
X5231967Y-6830579D01*
X5231967Y-6830579D02*
X5241491Y-6811531D01*
X5241491Y-6811531D02*
X5251015Y-6802008D01*
X5251015Y-6802008D02*
X5270063Y-6792484D01*
X5460539Y-6792484D02*
X5479586Y-6792484D01*
X5479586Y-6792484D02*
X5498634Y-6802008D01*
X5498634Y-6802008D02*
X5508158Y-6811531D01*
X5508158Y-6811531D02*
X5517682Y-6830579D01*
X5517682Y-6830579D02*
X5527205Y-6868674D01*
X5527205Y-6868674D02*
X5527205Y-6916293D01*
X5527205Y-6916293D02*
X5517682Y-6954388D01*
X5517682Y-6954388D02*
X5508158Y-6973436D01*
X5508158Y-6973436D02*
X5498634Y-6982960D01*
X5498634Y-6982960D02*
X5479586Y-6992484D01*
X5479586Y-6992484D02*
X5460539Y-6992484D01*
X5460539Y-6992484D02*
X5441491Y-6982960D01*
X5441491Y-6982960D02*
X5431967Y-6973436D01*
X5431967Y-6973436D02*
X5422444Y-6954388D01*
X5422444Y-6954388D02*
X5412920Y-6916293D01*
X5412920Y-6916293D02*
X5412920Y-6868674D01*
X5412920Y-6868674D02*
X5422444Y-6830579D01*
X5422444Y-6830579D02*
X5431967Y-6811531D01*
X5431967Y-6811531D02*
X5441491Y-6802008D01*
X5441491Y-6802008D02*
X5460539Y-6792484D01*
X5612920Y-6992484D02*
X5612920Y-6859150D01*
X5612920Y-6878198D02*
X5622443Y-6868674D01*
X5622443Y-6868674D02*
X5641491Y-6859150D01*
X5641491Y-6859150D02*
X5670063Y-6859150D01*
X5670063Y-6859150D02*
X5689110Y-6868674D01*
X5689110Y-6868674D02*
X5698634Y-6887722D01*
X5698634Y-6887722D02*
X5698634Y-6992484D01*
X5698634Y-6887722D02*
X5708158Y-6868674D01*
X5708158Y-6868674D02*
X5727205Y-6859150D01*
X5727205Y-6859150D02*
X5755777Y-6859150D01*
X5755777Y-6859150D02*
X5774824Y-6868674D01*
X5774824Y-6868674D02*
X5784348Y-6887722D01*
X5784348Y-6887722D02*
X5784348Y-6992484D01*
X5879586Y-6992484D02*
X5879586Y-6859150D01*
X5879586Y-6878198D02*
X5889110Y-6868674D01*
X5889110Y-6868674D02*
X5908158Y-6859150D01*
X5908158Y-6859150D02*
X5936729Y-6859150D01*
X5936729Y-6859150D02*
X5955777Y-6868674D01*
X5955777Y-6868674D02*
X5965301Y-6887722D01*
X5965301Y-6887722D02*
X5965301Y-6992484D01*
X5965301Y-6887722D02*
X5974824Y-6868674D01*
X5974824Y-6868674D02*
X5993872Y-6859150D01*
X5993872Y-6859150D02*
X6022443Y-6859150D01*
X6022443Y-6859150D02*
X6041491Y-6868674D01*
X6041491Y-6868674D02*
X6051015Y-6887722D01*
X6051015Y-6887722D02*
X6051015Y-6992484D01*
X6441491Y-6782960D02*
X6270063Y-7040103D01*
X6698634Y-6792484D02*
X6717682Y-6792484D01*
X6717682Y-6792484D02*
X6736729Y-6802008D01*
X6736729Y-6802008D02*
X6746253Y-6811531D01*
X6746253Y-6811531D02*
X6755777Y-6830579D01*
X6755777Y-6830579D02*
X6765301Y-6868674D01*
X6765301Y-6868674D02*
X6765301Y-6916293D01*
X6765301Y-6916293D02*
X6755777Y-6954388D01*
X6755777Y-6954388D02*
X6746253Y-6973436D01*
X6746253Y-6973436D02*
X6736729Y-6982960D01*
X6736729Y-6982960D02*
X6717682Y-6992484D01*
X6717682Y-6992484D02*
X6698634Y-6992484D01*
X6698634Y-6992484D02*
X6679586Y-6982960D01*
X6679586Y-6982960D02*
X6670063Y-6973436D01*
X6670063Y-6973436D02*
X6660539Y-6954388D01*
X6660539Y-6954388D02*
X6651015Y-6916293D01*
X6651015Y-6916293D02*
X6651015Y-6868674D01*
X6651015Y-6868674D02*
X6660539Y-6830579D01*
X6660539Y-6830579D02*
X6670063Y-6811531D01*
X6670063Y-6811531D02*
X6679586Y-6802008D01*
X6679586Y-6802008D02*
X6698634Y-6792484D01*
X6851015Y-6973436D02*
X6860539Y-6982960D01*
X6860539Y-6982960D02*
X6851015Y-6992484D01*
X6851015Y-6992484D02*
X6841491Y-6982960D01*
X6841491Y-6982960D02*
X6851015Y-6973436D01*
X6851015Y-6973436D02*
X6851015Y-6992484D01*
X6984348Y-6792484D02*
X7003396Y-6792484D01*
X7003396Y-6792484D02*
X7022444Y-6802008D01*
X7022444Y-6802008D02*
X7031967Y-6811531D01*
X7031967Y-6811531D02*
X7041491Y-6830579D01*
X7041491Y-6830579D02*
X7051015Y-6868674D01*
X7051015Y-6868674D02*
X7051015Y-6916293D01*
X7051015Y-6916293D02*
X7041491Y-6954388D01*
X7041491Y-6954388D02*
X7031967Y-6973436D01*
X7031967Y-6973436D02*
X7022444Y-6982960D01*
X7022444Y-6982960D02*
X7003396Y-6992484D01*
X7003396Y-6992484D02*
X6984348Y-6992484D01*
X6984348Y-6992484D02*
X6965301Y-6982960D01*
X6965301Y-6982960D02*
X6955777Y-6973436D01*
X6955777Y-6973436D02*
X6946253Y-6954388D01*
X6946253Y-6954388D02*
X6936729Y-6916293D01*
X6936729Y-6916293D02*
X6936729Y-6868674D01*
X6936729Y-6868674D02*
X6946253Y-6830579D01*
X6946253Y-6830579D02*
X6955777Y-6811531D01*
X6955777Y-6811531D02*
X6965301Y-6802008D01*
X6965301Y-6802008D02*
X6984348Y-6792484D01*
X7222444Y-6859150D02*
X7222444Y-6992484D01*
X7174825Y-6782960D02*
X7127206Y-6925817D01*
X7127206Y-6925817D02*
X7251015Y-6925817D01*
X7308158Y-6792484D02*
X7441491Y-6792484D01*
X7441491Y-6792484D02*
X7355777Y-6992484D01*
X7508158Y-6811531D02*
X7517682Y-6802008D01*
X7517682Y-6802008D02*
X7536729Y-6792484D01*
X7536729Y-6792484D02*
X7584348Y-6792484D01*
X7584348Y-6792484D02*
X7603396Y-6802008D01*
X7603396Y-6802008D02*
X7612920Y-6811531D01*
X7612920Y-6811531D02*
X7622444Y-6830579D01*
X7622444Y-6830579D02*
X7622444Y-6849627D01*
X7622444Y-6849627D02*
X7612920Y-6878198D01*
X7612920Y-6878198D02*
X7498634Y-6992484D01*
X7498634Y-6992484D02*
X7622444Y-6992484D01*
X7698634Y-6792484D02*
X7698634Y-6830579D01*
X7774825Y-6792484D02*
X7774825Y-6830579D01*
X8070063Y-7068674D02*
X8060539Y-7059150D01*
X8060539Y-7059150D02*
X8041491Y-7030579D01*
X8041491Y-7030579D02*
X8031968Y-7011531D01*
X8031968Y-7011531D02*
X8022444Y-6982960D01*
X8022444Y-6982960D02*
X8012920Y-6935341D01*
X8012920Y-6935341D02*
X8012920Y-6897246D01*
X8012920Y-6897246D02*
X8022444Y-6849627D01*
X8022444Y-6849627D02*
X8031968Y-6821055D01*
X8031968Y-6821055D02*
X8041491Y-6802008D01*
X8041491Y-6802008D02*
X8060539Y-6773436D01*
X8060539Y-6773436D02*
X8070063Y-6763912D01*
X8231968Y-6859150D02*
X8231968Y-6992484D01*
X8184348Y-6782960D02*
X8136729Y-6925817D01*
X8136729Y-6925817D02*
X8260539Y-6925817D01*
X8489111Y-6992484D02*
X8489111Y-6792484D01*
X8574825Y-6992484D02*
X8574825Y-6887722D01*
X8574825Y-6887722D02*
X8565301Y-6868674D01*
X8565301Y-6868674D02*
X8546253Y-6859150D01*
X8546253Y-6859150D02*
X8517682Y-6859150D01*
X8517682Y-6859150D02*
X8498634Y-6868674D01*
X8498634Y-6868674D02*
X8489111Y-6878198D01*
X8698634Y-6992484D02*
X8679587Y-6982960D01*
X8679587Y-6982960D02*
X8670063Y-6973436D01*
X8670063Y-6973436D02*
X8660539Y-6954388D01*
X8660539Y-6954388D02*
X8660539Y-6897246D01*
X8660539Y-6897246D02*
X8670063Y-6878198D01*
X8670063Y-6878198D02*
X8679587Y-6868674D01*
X8679587Y-6868674D02*
X8698634Y-6859150D01*
X8698634Y-6859150D02*
X8727206Y-6859150D01*
X8727206Y-6859150D02*
X8746253Y-6868674D01*
X8746253Y-6868674D02*
X8755777Y-6878198D01*
X8755777Y-6878198D02*
X8765301Y-6897246D01*
X8765301Y-6897246D02*
X8765301Y-6954388D01*
X8765301Y-6954388D02*
X8755777Y-6973436D01*
X8755777Y-6973436D02*
X8746253Y-6982960D01*
X8746253Y-6982960D02*
X8727206Y-6992484D01*
X8727206Y-6992484D02*
X8698634Y-6992484D01*
X8879587Y-6992484D02*
X8860539Y-6982960D01*
X8860539Y-6982960D02*
X8851015Y-6963912D01*
X8851015Y-6963912D02*
X8851015Y-6792484D01*
X9031968Y-6982960D02*
X9012920Y-6992484D01*
X9012920Y-6992484D02*
X8974825Y-6992484D01*
X8974825Y-6992484D02*
X8955777Y-6982960D01*
X8955777Y-6982960D02*
X8946253Y-6963912D01*
X8946253Y-6963912D02*
X8946253Y-6887722D01*
X8946253Y-6887722D02*
X8955777Y-6868674D01*
X8955777Y-6868674D02*
X8974825Y-6859150D01*
X8974825Y-6859150D02*
X9012920Y-6859150D01*
X9012920Y-6859150D02*
X9031968Y-6868674D01*
X9031968Y-6868674D02*
X9041492Y-6887722D01*
X9041492Y-6887722D02*
X9041492Y-6906769D01*
X9041492Y-6906769D02*
X8946253Y-6925817D01*
X9117682Y-6982960D02*
X9136730Y-6992484D01*
X9136730Y-6992484D02*
X9174825Y-6992484D01*
X9174825Y-6992484D02*
X9193873Y-6982960D01*
X9193873Y-6982960D02*
X9203396Y-6963912D01*
X9203396Y-6963912D02*
X9203396Y-6954388D01*
X9203396Y-6954388D02*
X9193873Y-6935341D01*
X9193873Y-6935341D02*
X9174825Y-6925817D01*
X9174825Y-6925817D02*
X9146253Y-6925817D01*
X9146253Y-6925817D02*
X9127206Y-6916293D01*
X9127206Y-6916293D02*
X9117682Y-6897246D01*
X9117682Y-6897246D02*
X9117682Y-6887722D01*
X9117682Y-6887722D02*
X9127206Y-6868674D01*
X9127206Y-6868674D02*
X9146253Y-6859150D01*
X9146253Y-6859150D02*
X9174825Y-6859150D01*
X9174825Y-6859150D02*
X9193873Y-6868674D01*
X9270063Y-7068674D02*
X9279587Y-7059150D01*
X9279587Y-7059150D02*
X9298634Y-7030579D01*
X9298634Y-7030579D02*
X9308158Y-7011531D01*
X9308158Y-7011531D02*
X9317682Y-6982960D01*
X9317682Y-6982960D02*
X9327206Y-6935341D01*
X9327206Y-6935341D02*
X9327206Y-6897246D01*
X9327206Y-6897246D02*
X9317682Y-6849627D01*
X9317682Y-6849627D02*
X9308158Y-6821055D01*
X9308158Y-6821055D02*
X9298634Y-6802008D01*
X9298634Y-6802008D02*
X9279587Y-6773436D01*
X9279587Y-6773436D02*
X9270063Y-6763912D01*
X4295000Y-7065000D02*
X4495000Y-7265000D01*
X4495000Y-7065000D02*
X4295000Y-7265000D01*
X4495000Y-7165000D02*
G75*
G03*
X4495000Y-7165000I-100000J0D01*
G01*
X4746253Y-7075531D02*
X4755777Y-7066008D01*
X4755777Y-7066008D02*
X4774824Y-7056484D01*
X4774824Y-7056484D02*
X4822444Y-7056484D01*
X4822444Y-7056484D02*
X4841491Y-7066008D01*
X4841491Y-7066008D02*
X4851015Y-7075531D01*
X4851015Y-7075531D02*
X4860539Y-7094579D01*
X4860539Y-7094579D02*
X4860539Y-7113627D01*
X4860539Y-7113627D02*
X4851015Y-7142198D01*
X4851015Y-7142198D02*
X4736729Y-7256484D01*
X4736729Y-7256484D02*
X4860539Y-7256484D01*
X4946253Y-7237436D02*
X4955777Y-7246960D01*
X4955777Y-7246960D02*
X4946253Y-7256484D01*
X4946253Y-7256484D02*
X4936729Y-7246960D01*
X4936729Y-7246960D02*
X4946253Y-7237436D01*
X4946253Y-7237436D02*
X4946253Y-7256484D01*
X5031967Y-7075531D02*
X5041491Y-7066008D01*
X5041491Y-7066008D02*
X5060539Y-7056484D01*
X5060539Y-7056484D02*
X5108158Y-7056484D01*
X5108158Y-7056484D02*
X5127205Y-7066008D01*
X5127205Y-7066008D02*
X5136729Y-7075531D01*
X5136729Y-7075531D02*
X5146253Y-7094579D01*
X5146253Y-7094579D02*
X5146253Y-7113627D01*
X5146253Y-7113627D02*
X5136729Y-7142198D01*
X5136729Y-7142198D02*
X5022444Y-7256484D01*
X5022444Y-7256484D02*
X5146253Y-7256484D01*
X5270063Y-7056484D02*
X5289110Y-7056484D01*
X5289110Y-7056484D02*
X5308158Y-7066008D01*
X5308158Y-7066008D02*
X5317682Y-7075531D01*
X5317682Y-7075531D02*
X5327205Y-7094579D01*
X5327205Y-7094579D02*
X5336729Y-7132674D01*
X5336729Y-7132674D02*
X5336729Y-7180293D01*
X5336729Y-7180293D02*
X5327205Y-7218388D01*
X5327205Y-7218388D02*
X5317682Y-7237436D01*
X5317682Y-7237436D02*
X5308158Y-7246960D01*
X5308158Y-7246960D02*
X5289110Y-7256484D01*
X5289110Y-7256484D02*
X5270063Y-7256484D01*
X5270063Y-7256484D02*
X5251015Y-7246960D01*
X5251015Y-7246960D02*
X5241491Y-7237436D01*
X5241491Y-7237436D02*
X5231967Y-7218388D01*
X5231967Y-7218388D02*
X5222444Y-7180293D01*
X5222444Y-7180293D02*
X5222444Y-7132674D01*
X5222444Y-7132674D02*
X5231967Y-7094579D01*
X5231967Y-7094579D02*
X5241491Y-7075531D01*
X5241491Y-7075531D02*
X5251015Y-7066008D01*
X5251015Y-7066008D02*
X5270063Y-7056484D01*
X5460539Y-7056484D02*
X5479586Y-7056484D01*
X5479586Y-7056484D02*
X5498634Y-7066008D01*
X5498634Y-7066008D02*
X5508158Y-7075531D01*
X5508158Y-7075531D02*
X5517682Y-7094579D01*
X5517682Y-7094579D02*
X5527205Y-7132674D01*
X5527205Y-7132674D02*
X5527205Y-7180293D01*
X5527205Y-7180293D02*
X5517682Y-7218388D01*
X5517682Y-7218388D02*
X5508158Y-7237436D01*
X5508158Y-7237436D02*
X5498634Y-7246960D01*
X5498634Y-7246960D02*
X5479586Y-7256484D01*
X5479586Y-7256484D02*
X5460539Y-7256484D01*
X5460539Y-7256484D02*
X5441491Y-7246960D01*
X5441491Y-7246960D02*
X5431967Y-7237436D01*
X5431967Y-7237436D02*
X5422444Y-7218388D01*
X5422444Y-7218388D02*
X5412920Y-7180293D01*
X5412920Y-7180293D02*
X5412920Y-7132674D01*
X5412920Y-7132674D02*
X5422444Y-7094579D01*
X5422444Y-7094579D02*
X5431967Y-7075531D01*
X5431967Y-7075531D02*
X5441491Y-7066008D01*
X5441491Y-7066008D02*
X5460539Y-7056484D01*
X5612920Y-7256484D02*
X5612920Y-7123150D01*
X5612920Y-7142198D02*
X5622443Y-7132674D01*
X5622443Y-7132674D02*
X5641491Y-7123150D01*
X5641491Y-7123150D02*
X5670063Y-7123150D01*
X5670063Y-7123150D02*
X5689110Y-7132674D01*
X5689110Y-7132674D02*
X5698634Y-7151722D01*
X5698634Y-7151722D02*
X5698634Y-7256484D01*
X5698634Y-7151722D02*
X5708158Y-7132674D01*
X5708158Y-7132674D02*
X5727205Y-7123150D01*
X5727205Y-7123150D02*
X5755777Y-7123150D01*
X5755777Y-7123150D02*
X5774824Y-7132674D01*
X5774824Y-7132674D02*
X5784348Y-7151722D01*
X5784348Y-7151722D02*
X5784348Y-7256484D01*
X5879586Y-7256484D02*
X5879586Y-7123150D01*
X5879586Y-7142198D02*
X5889110Y-7132674D01*
X5889110Y-7132674D02*
X5908158Y-7123150D01*
X5908158Y-7123150D02*
X5936729Y-7123150D01*
X5936729Y-7123150D02*
X5955777Y-7132674D01*
X5955777Y-7132674D02*
X5965301Y-7151722D01*
X5965301Y-7151722D02*
X5965301Y-7256484D01*
X5965301Y-7151722D02*
X5974824Y-7132674D01*
X5974824Y-7132674D02*
X5993872Y-7123150D01*
X5993872Y-7123150D02*
X6022443Y-7123150D01*
X6022443Y-7123150D02*
X6041491Y-7132674D01*
X6041491Y-7132674D02*
X6051015Y-7151722D01*
X6051015Y-7151722D02*
X6051015Y-7256484D01*
X6441491Y-7046960D02*
X6270063Y-7304103D01*
X6698634Y-7056484D02*
X6717682Y-7056484D01*
X6717682Y-7056484D02*
X6736729Y-7066008D01*
X6736729Y-7066008D02*
X6746253Y-7075531D01*
X6746253Y-7075531D02*
X6755777Y-7094579D01*
X6755777Y-7094579D02*
X6765301Y-7132674D01*
X6765301Y-7132674D02*
X6765301Y-7180293D01*
X6765301Y-7180293D02*
X6755777Y-7218388D01*
X6755777Y-7218388D02*
X6746253Y-7237436D01*
X6746253Y-7237436D02*
X6736729Y-7246960D01*
X6736729Y-7246960D02*
X6717682Y-7256484D01*
X6717682Y-7256484D02*
X6698634Y-7256484D01*
X6698634Y-7256484D02*
X6679586Y-7246960D01*
X6679586Y-7246960D02*
X6670063Y-7237436D01*
X6670063Y-7237436D02*
X6660539Y-7218388D01*
X6660539Y-7218388D02*
X6651015Y-7180293D01*
X6651015Y-7180293D02*
X6651015Y-7132674D01*
X6651015Y-7132674D02*
X6660539Y-7094579D01*
X6660539Y-7094579D02*
X6670063Y-7075531D01*
X6670063Y-7075531D02*
X6679586Y-7066008D01*
X6679586Y-7066008D02*
X6698634Y-7056484D01*
X6851015Y-7237436D02*
X6860539Y-7246960D01*
X6860539Y-7246960D02*
X6851015Y-7256484D01*
X6851015Y-7256484D02*
X6841491Y-7246960D01*
X6841491Y-7246960D02*
X6851015Y-7237436D01*
X6851015Y-7237436D02*
X6851015Y-7256484D01*
X6984348Y-7056484D02*
X7003396Y-7056484D01*
X7003396Y-7056484D02*
X7022444Y-7066008D01*
X7022444Y-7066008D02*
X7031967Y-7075531D01*
X7031967Y-7075531D02*
X7041491Y-7094579D01*
X7041491Y-7094579D02*
X7051015Y-7132674D01*
X7051015Y-7132674D02*
X7051015Y-7180293D01*
X7051015Y-7180293D02*
X7041491Y-7218388D01*
X7041491Y-7218388D02*
X7031967Y-7237436D01*
X7031967Y-7237436D02*
X7022444Y-7246960D01*
X7022444Y-7246960D02*
X7003396Y-7256484D01*
X7003396Y-7256484D02*
X6984348Y-7256484D01*
X6984348Y-7256484D02*
X6965301Y-7246960D01*
X6965301Y-7246960D02*
X6955777Y-7237436D01*
X6955777Y-7237436D02*
X6946253Y-7218388D01*
X6946253Y-7218388D02*
X6936729Y-7180293D01*
X6936729Y-7180293D02*
X6936729Y-7132674D01*
X6936729Y-7132674D02*
X6946253Y-7094579D01*
X6946253Y-7094579D02*
X6955777Y-7075531D01*
X6955777Y-7075531D02*
X6965301Y-7066008D01*
X6965301Y-7066008D02*
X6984348Y-7056484D01*
X7165301Y-7142198D02*
X7146253Y-7132674D01*
X7146253Y-7132674D02*
X7136729Y-7123150D01*
X7136729Y-7123150D02*
X7127206Y-7104103D01*
X7127206Y-7104103D02*
X7127206Y-7094579D01*
X7127206Y-7094579D02*
X7136729Y-7075531D01*
X7136729Y-7075531D02*
X7146253Y-7066008D01*
X7146253Y-7066008D02*
X7165301Y-7056484D01*
X7165301Y-7056484D02*
X7203396Y-7056484D01*
X7203396Y-7056484D02*
X7222444Y-7066008D01*
X7222444Y-7066008D02*
X7231967Y-7075531D01*
X7231967Y-7075531D02*
X7241491Y-7094579D01*
X7241491Y-7094579D02*
X7241491Y-7104103D01*
X7241491Y-7104103D02*
X7231967Y-7123150D01*
X7231967Y-7123150D02*
X7222444Y-7132674D01*
X7222444Y-7132674D02*
X7203396Y-7142198D01*
X7203396Y-7142198D02*
X7165301Y-7142198D01*
X7165301Y-7142198D02*
X7146253Y-7151722D01*
X7146253Y-7151722D02*
X7136729Y-7161246D01*
X7136729Y-7161246D02*
X7127206Y-7180293D01*
X7127206Y-7180293D02*
X7127206Y-7218388D01*
X7127206Y-7218388D02*
X7136729Y-7237436D01*
X7136729Y-7237436D02*
X7146253Y-7246960D01*
X7146253Y-7246960D02*
X7165301Y-7256484D01*
X7165301Y-7256484D02*
X7203396Y-7256484D01*
X7203396Y-7256484D02*
X7222444Y-7246960D01*
X7222444Y-7246960D02*
X7231967Y-7237436D01*
X7231967Y-7237436D02*
X7241491Y-7218388D01*
X7241491Y-7218388D02*
X7241491Y-7180293D01*
X7241491Y-7180293D02*
X7231967Y-7161246D01*
X7231967Y-7161246D02*
X7222444Y-7151722D01*
X7222444Y-7151722D02*
X7203396Y-7142198D01*
X7412920Y-7056484D02*
X7374825Y-7056484D01*
X7374825Y-7056484D02*
X7355777Y-7066008D01*
X7355777Y-7066008D02*
X7346253Y-7075531D01*
X7346253Y-7075531D02*
X7327206Y-7104103D01*
X7327206Y-7104103D02*
X7317682Y-7142198D01*
X7317682Y-7142198D02*
X7317682Y-7218388D01*
X7317682Y-7218388D02*
X7327206Y-7237436D01*
X7327206Y-7237436D02*
X7336729Y-7246960D01*
X7336729Y-7246960D02*
X7355777Y-7256484D01*
X7355777Y-7256484D02*
X7393872Y-7256484D01*
X7393872Y-7256484D02*
X7412920Y-7246960D01*
X7412920Y-7246960D02*
X7422444Y-7237436D01*
X7422444Y-7237436D02*
X7431967Y-7218388D01*
X7431967Y-7218388D02*
X7431967Y-7170769D01*
X7431967Y-7170769D02*
X7422444Y-7151722D01*
X7422444Y-7151722D02*
X7412920Y-7142198D01*
X7412920Y-7142198D02*
X7393872Y-7132674D01*
X7393872Y-7132674D02*
X7355777Y-7132674D01*
X7355777Y-7132674D02*
X7336729Y-7142198D01*
X7336729Y-7142198D02*
X7327206Y-7151722D01*
X7327206Y-7151722D02*
X7317682Y-7170769D01*
X7603396Y-7056484D02*
X7565301Y-7056484D01*
X7565301Y-7056484D02*
X7546253Y-7066008D01*
X7546253Y-7066008D02*
X7536729Y-7075531D01*
X7536729Y-7075531D02*
X7517682Y-7104103D01*
X7517682Y-7104103D02*
X7508158Y-7142198D01*
X7508158Y-7142198D02*
X7508158Y-7218388D01*
X7508158Y-7218388D02*
X7517682Y-7237436D01*
X7517682Y-7237436D02*
X7527206Y-7246960D01*
X7527206Y-7246960D02*
X7546253Y-7256484D01*
X7546253Y-7256484D02*
X7584348Y-7256484D01*
X7584348Y-7256484D02*
X7603396Y-7246960D01*
X7603396Y-7246960D02*
X7612920Y-7237436D01*
X7612920Y-7237436D02*
X7622444Y-7218388D01*
X7622444Y-7218388D02*
X7622444Y-7170769D01*
X7622444Y-7170769D02*
X7612920Y-7151722D01*
X7612920Y-7151722D02*
X7603396Y-7142198D01*
X7603396Y-7142198D02*
X7584348Y-7132674D01*
X7584348Y-7132674D02*
X7546253Y-7132674D01*
X7546253Y-7132674D02*
X7527206Y-7142198D01*
X7527206Y-7142198D02*
X7517682Y-7151722D01*
X7517682Y-7151722D02*
X7508158Y-7170769D01*
X7698634Y-7056484D02*
X7698634Y-7094579D01*
X7774825Y-7056484D02*
X7774825Y-7094579D01*
X8070063Y-7332674D02*
X8060539Y-7323150D01*
X8060539Y-7323150D02*
X8041491Y-7294579D01*
X8041491Y-7294579D02*
X8031968Y-7275531D01*
X8031968Y-7275531D02*
X8022444Y-7246960D01*
X8022444Y-7246960D02*
X8012920Y-7199341D01*
X8012920Y-7199341D02*
X8012920Y-7161246D01*
X8012920Y-7161246D02*
X8022444Y-7113627D01*
X8022444Y-7113627D02*
X8031968Y-7085055D01*
X8031968Y-7085055D02*
X8041491Y-7066008D01*
X8041491Y-7066008D02*
X8060539Y-7037436D01*
X8060539Y-7037436D02*
X8070063Y-7027912D01*
X8136729Y-7075531D02*
X8146253Y-7066008D01*
X8146253Y-7066008D02*
X8165301Y-7056484D01*
X8165301Y-7056484D02*
X8212920Y-7056484D01*
X8212920Y-7056484D02*
X8231968Y-7066008D01*
X8231968Y-7066008D02*
X8241491Y-7075531D01*
X8241491Y-7075531D02*
X8251015Y-7094579D01*
X8251015Y-7094579D02*
X8251015Y-7113627D01*
X8251015Y-7113627D02*
X8241491Y-7142198D01*
X8241491Y-7142198D02*
X8127206Y-7256484D01*
X8127206Y-7256484D02*
X8251015Y-7256484D01*
X8489111Y-7256484D02*
X8489111Y-7056484D01*
X8574825Y-7256484D02*
X8574825Y-7151722D01*
X8574825Y-7151722D02*
X8565301Y-7132674D01*
X8565301Y-7132674D02*
X8546253Y-7123150D01*
X8546253Y-7123150D02*
X8517682Y-7123150D01*
X8517682Y-7123150D02*
X8498634Y-7132674D01*
X8498634Y-7132674D02*
X8489111Y-7142198D01*
X8698634Y-7256484D02*
X8679587Y-7246960D01*
X8679587Y-7246960D02*
X8670063Y-7237436D01*
X8670063Y-7237436D02*
X8660539Y-7218388D01*
X8660539Y-7218388D02*
X8660539Y-7161246D01*
X8660539Y-7161246D02*
X8670063Y-7142198D01*
X8670063Y-7142198D02*
X8679587Y-7132674D01*
X8679587Y-7132674D02*
X8698634Y-7123150D01*
X8698634Y-7123150D02*
X8727206Y-7123150D01*
X8727206Y-7123150D02*
X8746253Y-7132674D01*
X8746253Y-7132674D02*
X8755777Y-7142198D01*
X8755777Y-7142198D02*
X8765301Y-7161246D01*
X8765301Y-7161246D02*
X8765301Y-7218388D01*
X8765301Y-7218388D02*
X8755777Y-7237436D01*
X8755777Y-7237436D02*
X8746253Y-7246960D01*
X8746253Y-7246960D02*
X8727206Y-7256484D01*
X8727206Y-7256484D02*
X8698634Y-7256484D01*
X8879587Y-7256484D02*
X8860539Y-7246960D01*
X8860539Y-7246960D02*
X8851015Y-7227912D01*
X8851015Y-7227912D02*
X8851015Y-7056484D01*
X9031968Y-7246960D02*
X9012920Y-7256484D01*
X9012920Y-7256484D02*
X8974825Y-7256484D01*
X8974825Y-7256484D02*
X8955777Y-7246960D01*
X8955777Y-7246960D02*
X8946253Y-7227912D01*
X8946253Y-7227912D02*
X8946253Y-7151722D01*
X8946253Y-7151722D02*
X8955777Y-7132674D01*
X8955777Y-7132674D02*
X8974825Y-7123150D01*
X8974825Y-7123150D02*
X9012920Y-7123150D01*
X9012920Y-7123150D02*
X9031968Y-7132674D01*
X9031968Y-7132674D02*
X9041492Y-7151722D01*
X9041492Y-7151722D02*
X9041492Y-7170769D01*
X9041492Y-7170769D02*
X8946253Y-7189817D01*
X9117682Y-7246960D02*
X9136730Y-7256484D01*
X9136730Y-7256484D02*
X9174825Y-7256484D01*
X9174825Y-7256484D02*
X9193873Y-7246960D01*
X9193873Y-7246960D02*
X9203396Y-7227912D01*
X9203396Y-7227912D02*
X9203396Y-7218388D01*
X9203396Y-7218388D02*
X9193873Y-7199341D01*
X9193873Y-7199341D02*
X9174825Y-7189817D01*
X9174825Y-7189817D02*
X9146253Y-7189817D01*
X9146253Y-7189817D02*
X9127206Y-7180293D01*
X9127206Y-7180293D02*
X9117682Y-7161246D01*
X9117682Y-7161246D02*
X9117682Y-7151722D01*
X9117682Y-7151722D02*
X9127206Y-7132674D01*
X9127206Y-7132674D02*
X9146253Y-7123150D01*
X9146253Y-7123150D02*
X9174825Y-7123150D01*
X9174825Y-7123150D02*
X9193873Y-7132674D01*
X9270063Y-7332674D02*
X9279587Y-7323150D01*
X9279587Y-7323150D02*
X9298634Y-7294579D01*
X9298634Y-7294579D02*
X9308158Y-7275531D01*
X9308158Y-7275531D02*
X9317682Y-7246960D01*
X9317682Y-7246960D02*
X9327206Y-7199341D01*
X9327206Y-7199341D02*
X9327206Y-7161246D01*
X9327206Y-7161246D02*
X9317682Y-7113627D01*
X9317682Y-7113627D02*
X9308158Y-7085055D01*
X9308158Y-7085055D02*
X9298634Y-7066008D01*
X9298634Y-7066008D02*
X9279587Y-7037436D01*
X9279587Y-7037436D02*
X9270063Y-7027912D01*
M02*
