%TF.GenerationSoftware,KiCad,Pcbnew,7.0.9*%
%TF.CreationDate,2024-03-13T22:22:46+01:00*%
%TF.ProjectId,KorryLargePCB,4b6f7272-794c-4617-9267-655043422e6b,rev?*%
%TF.SameCoordinates,Original*%
%TF.FileFunction,Copper,L1,Top*%
%TF.FilePolarity,Positive*%
%FSLAX46Y46*%
G04 Gerber Fmt 4.6, Leading zero omitted, Abs format (unit mm)*
G04 Created by KiCad (PCBNEW 7.0.9) date 2024-03-13 22:22:46*
%MOMM*%
%LPD*%
G01*
G04 APERTURE LIST*
G04 Aperture macros list*
%AMRoundRect*
0 Rectangle with rounded corners*
0 $1 Rounding radius*
0 $2 $3 $4 $5 $6 $7 $8 $9 X,Y pos of 4 corners*
0 Add a 4 corners polygon primitive as box body*
4,1,4,$2,$3,$4,$5,$6,$7,$8,$9,$2,$3,0*
0 Add four circle primitives for the rounded corners*
1,1,$1+$1,$2,$3*
1,1,$1+$1,$4,$5*
1,1,$1+$1,$6,$7*
1,1,$1+$1,$8,$9*
0 Add four rect primitives between the rounded corners*
20,1,$1+$1,$2,$3,$4,$5,0*
20,1,$1+$1,$4,$5,$6,$7,0*
20,1,$1+$1,$6,$7,$8,$9,0*
20,1,$1+$1,$8,$9,$2,$3,0*%
G04 Aperture macros list end*
%TA.AperFunction,ComponentPad*%
%ADD10C,1.600000*%
%TD*%
%TA.AperFunction,ComponentPad*%
%ADD11O,1.600000X1.600000*%
%TD*%
%TA.AperFunction,ComponentPad*%
%ADD12RoundRect,0.250000X-0.600000X-0.750000X0.600000X-0.750000X0.600000X0.750000X-0.600000X0.750000X0*%
%TD*%
%TA.AperFunction,ComponentPad*%
%ADD13O,1.700000X2.000000*%
%TD*%
%TA.AperFunction,ComponentPad*%
%ADD14RoundRect,0.250000X0.600000X0.725000X-0.600000X0.725000X-0.600000X-0.725000X0.600000X-0.725000X0*%
%TD*%
%TA.AperFunction,ComponentPad*%
%ADD15O,1.700000X1.950000*%
%TD*%
%TA.AperFunction,ComponentPad*%
%ADD16C,2.600000*%
%TD*%
%TA.AperFunction,ConnectorPad*%
%ADD17C,3.800000*%
%TD*%
%TA.AperFunction,ComponentPad*%
%ADD18R,2.200000X2.200000*%
%TD*%
%TA.AperFunction,ComponentPad*%
%ADD19C,2.200000*%
%TD*%
%TA.AperFunction,ComponentPad*%
%ADD20R,1.800000X1.800000*%
%TD*%
%TA.AperFunction,ComponentPad*%
%ADD21C,1.800000*%
%TD*%
%TA.AperFunction,Conductor*%
%ADD22C,0.250000*%
%TD*%
%TA.AperFunction,Conductor*%
%ADD23C,0.800000*%
%TD*%
G04 APERTURE END LIST*
D10*
%TO.P,R1,1*%
%TO.N,Net-(D1-K)*%
X54500000Y-39810000D03*
D11*
%TO.P,R1,2*%
%TO.N,GND*%
X54500000Y-32190000D03*
%TD*%
D12*
%TO.P,J2,1,Pin_1*%
%TO.N,+9V*%
X59750000Y-49250000D03*
D13*
%TO.P,J2,2,Pin_2*%
%TO.N,/LED_PCB*%
X62250000Y-49250000D03*
%TD*%
D14*
%TO.P,J1,1,Pin_1*%
%TO.N,/BTN_INPUT*%
X63750000Y-23000000D03*
D15*
%TO.P,J1,2,Pin_2*%
%TO.N,/LED_INPUT*%
X61250000Y-23000000D03*
%TO.P,J1,3,Pin_3*%
%TO.N,GND*%
X58750000Y-23000000D03*
%TD*%
D10*
%TO.P,R2,1*%
%TO.N,/LED_PCB*%
X67750000Y-34130000D03*
D11*
%TO.P,R2,2*%
%TO.N,Net-(D2-K)*%
X67750000Y-41750000D03*
%TD*%
D16*
%TO.P,H2,1*%
%TO.N,N/C*%
X74500000Y-36000000D03*
D17*
X74500000Y-36000000D03*
%TD*%
D16*
%TO.P,H1,1*%
%TO.N,N/C*%
X47500000Y-36000000D03*
D17*
X47500000Y-36000000D03*
%TD*%
D18*
%TO.P,S1,1*%
%TO.N,/BTN_INPUT*%
X64250000Y-34250000D03*
D19*
%TO.P,S1,2*%
%TO.N,unconnected-(S1-Pad2)*%
X57750000Y-34250000D03*
%TO.P,S1,3*%
%TO.N,GND*%
X64250000Y-38750000D03*
%TO.P,S1,4*%
%TO.N,unconnected-(S1-Pad4)*%
X57750000Y-38750000D03*
%TD*%
D20*
%TO.P,D1,1,K*%
%TO.N,Net-(D1-K)*%
X62275000Y-29750000D03*
D21*
%TO.P,D1,2,A*%
%TO.N,/LED_INPUT*%
X59735000Y-29750000D03*
%TD*%
D20*
%TO.P,D2,1,K*%
%TO.N,Net-(D2-K)*%
X62250000Y-43250000D03*
D21*
%TO.P,D2,2,A*%
%TO.N,+9V*%
X59710000Y-43250000D03*
%TD*%
D22*
%TO.N,Net-(D1-K)*%
X58000000Y-31250000D02*
X54500000Y-34750000D01*
X54500000Y-34750000D02*
X54500000Y-39810000D01*
X60775000Y-31250000D02*
X58000000Y-31250000D01*
X62275000Y-29750000D02*
X60775000Y-31250000D01*
%TO.N,/LED_INPUT*%
X61250000Y-23000000D02*
X61250000Y-28235000D01*
X61250000Y-28235000D02*
X59735000Y-29750000D01*
D23*
%TO.N,Net-(D2-K)*%
X62250000Y-43250000D02*
X66250000Y-43250000D01*
X66250000Y-43250000D02*
X67750000Y-41750000D01*
%TO.N,+9V*%
X59750000Y-49250000D02*
X59750000Y-43290000D01*
D22*
X59750000Y-43290000D02*
X59710000Y-43250000D01*
%TO.N,/BTN_INPUT*%
X63750000Y-23000000D02*
X63750000Y-33750000D01*
X63750000Y-33750000D02*
X64250000Y-34250000D01*
%TD*%
%TA.AperFunction,Conductor*%
%TO.N,GND*%
G36*
X67193039Y-20269685D02*
G01*
X67238794Y-20322489D01*
X67250000Y-20374000D01*
X67250000Y-25750000D01*
X71626000Y-25750000D01*
X71693039Y-25769685D01*
X71738794Y-25822489D01*
X71750000Y-25874000D01*
X71750000Y-47126000D01*
X71730315Y-47193039D01*
X71677511Y-47238794D01*
X71626000Y-47250000D01*
X65500000Y-47250000D01*
X65500000Y-51626000D01*
X65480315Y-51693039D01*
X65427511Y-51738794D01*
X65376000Y-51750000D01*
X56374000Y-51750000D01*
X56306961Y-51730315D01*
X56261206Y-51677511D01*
X56250000Y-51626000D01*
X56250000Y-47250000D01*
X50374000Y-47250000D01*
X50306961Y-47230315D01*
X50261206Y-47177511D01*
X50250000Y-47126000D01*
X50250000Y-43250006D01*
X58304700Y-43250006D01*
X58323864Y-43481297D01*
X58323866Y-43481308D01*
X58380842Y-43706300D01*
X58474075Y-43918848D01*
X58601016Y-44113147D01*
X58601019Y-44113151D01*
X58601021Y-44113153D01*
X58758216Y-44283913D01*
X58801662Y-44317728D01*
X58842475Y-44374436D01*
X58849500Y-44415581D01*
X58849500Y-47734362D01*
X58829815Y-47801401D01*
X58790598Y-47839899D01*
X58722288Y-47882033D01*
X58681342Y-47907289D01*
X58557289Y-48031342D01*
X58465187Y-48180663D01*
X58465185Y-48180668D01*
X58446450Y-48237206D01*
X58410001Y-48347203D01*
X58410001Y-48347204D01*
X58410000Y-48347204D01*
X58399500Y-48449983D01*
X58399500Y-50050001D01*
X58399501Y-50050018D01*
X58410000Y-50152796D01*
X58410001Y-50152799D01*
X58455894Y-50291294D01*
X58465186Y-50319334D01*
X58557288Y-50468656D01*
X58681344Y-50592712D01*
X58830666Y-50684814D01*
X58997203Y-50739999D01*
X59099991Y-50750500D01*
X60400008Y-50750499D01*
X60502797Y-50739999D01*
X60669334Y-50684814D01*
X60818656Y-50592712D01*
X60942712Y-50468656D01*
X61034814Y-50319334D01*
X61034814Y-50319331D01*
X61038178Y-50313879D01*
X61090126Y-50267154D01*
X61159088Y-50255931D01*
X61223170Y-50283774D01*
X61231398Y-50291294D01*
X61378599Y-50438495D01*
X61421675Y-50468657D01*
X61572165Y-50574032D01*
X61572167Y-50574033D01*
X61572170Y-50574035D01*
X61786337Y-50673903D01*
X62014592Y-50735063D01*
X62191034Y-50750500D01*
X62249999Y-50755659D01*
X62250000Y-50755659D01*
X62250001Y-50755659D01*
X62308966Y-50750500D01*
X62485408Y-50735063D01*
X62713663Y-50673903D01*
X62927829Y-50574035D01*
X63121401Y-50438495D01*
X63288495Y-50271401D01*
X63424035Y-50077829D01*
X63523903Y-49863663D01*
X63585063Y-49635408D01*
X63600500Y-49458966D01*
X63600500Y-49041034D01*
X63585063Y-48864592D01*
X63523903Y-48636337D01*
X63424035Y-48422171D01*
X63405105Y-48395135D01*
X63288494Y-48228597D01*
X63121402Y-48061506D01*
X63121395Y-48061501D01*
X62927834Y-47925967D01*
X62927830Y-47925965D01*
X62887777Y-47907288D01*
X62713663Y-47826097D01*
X62713659Y-47826096D01*
X62713655Y-47826094D01*
X62485413Y-47764938D01*
X62485403Y-47764936D01*
X62250001Y-47744341D01*
X62249999Y-47744341D01*
X62014596Y-47764936D01*
X62014586Y-47764938D01*
X61786344Y-47826094D01*
X61786335Y-47826098D01*
X61572171Y-47925964D01*
X61572169Y-47925965D01*
X61378597Y-48061505D01*
X61231398Y-48208705D01*
X61170075Y-48242190D01*
X61100383Y-48237206D01*
X61044450Y-48195334D01*
X61038178Y-48186120D01*
X60942712Y-48031344D01*
X60818657Y-47907289D01*
X60818656Y-47907288D01*
X60709402Y-47839900D01*
X60662679Y-47787953D01*
X60650500Y-47734362D01*
X60650500Y-44394048D01*
X60670185Y-44327009D01*
X60722989Y-44281254D01*
X60792147Y-44271310D01*
X60855703Y-44300335D01*
X60890682Y-44350715D01*
X60906202Y-44392328D01*
X60906206Y-44392335D01*
X60992452Y-44507544D01*
X60992455Y-44507547D01*
X61107664Y-44593793D01*
X61107671Y-44593797D01*
X61242517Y-44644091D01*
X61242516Y-44644091D01*
X61249444Y-44644835D01*
X61302127Y-44650500D01*
X63197872Y-44650499D01*
X63257483Y-44644091D01*
X63392331Y-44593796D01*
X63507546Y-44507546D01*
X63593796Y-44392331D01*
X63644091Y-44257483D01*
X63644091Y-44257481D01*
X63645874Y-44249938D01*
X63648146Y-44250474D01*
X63670429Y-44196688D01*
X63727823Y-44156843D01*
X63766976Y-44150500D01*
X66169373Y-44150500D01*
X66188772Y-44152027D01*
X66202612Y-44154219D01*
X66271959Y-44150584D01*
X66275203Y-44150500D01*
X66297191Y-44150500D01*
X66297192Y-44150500D01*
X66313988Y-44148734D01*
X66319064Y-44148201D01*
X66322284Y-44147947D01*
X66391646Y-44144313D01*
X66405187Y-44140683D01*
X66424313Y-44137138D01*
X66438256Y-44135674D01*
X66504306Y-44114212D01*
X66507368Y-44113304D01*
X66574488Y-44095320D01*
X66586976Y-44088956D01*
X66604950Y-44081510D01*
X66618284Y-44077179D01*
X66678476Y-44042425D01*
X66681222Y-44040934D01*
X66743149Y-44009383D01*
X66754031Y-44000569D01*
X66770083Y-43989537D01*
X66782216Y-43982533D01*
X66833847Y-43936043D01*
X66836260Y-43933982D01*
X66853380Y-43920119D01*
X66868929Y-43904568D01*
X66871270Y-43902347D01*
X66922888Y-43855871D01*
X66931130Y-43844525D01*
X66943760Y-43829737D01*
X67683053Y-43090444D01*
X67744374Y-43056961D01*
X67759914Y-43054600D01*
X67976692Y-43035635D01*
X68196496Y-42976739D01*
X68402734Y-42880568D01*
X68589139Y-42750047D01*
X68750047Y-42589139D01*
X68880568Y-42402734D01*
X68976739Y-42196496D01*
X69035635Y-41976692D01*
X69055468Y-41750000D01*
X69054599Y-41740073D01*
X69035635Y-41523313D01*
X69035635Y-41523312D01*
X69035635Y-41523308D01*
X68976739Y-41303504D01*
X68880568Y-41097266D01*
X68750047Y-40910861D01*
X68750045Y-40910858D01*
X68589141Y-40749954D01*
X68402734Y-40619432D01*
X68402732Y-40619431D01*
X68196497Y-40523261D01*
X68196488Y-40523258D01*
X67976697Y-40464366D01*
X67976693Y-40464365D01*
X67976692Y-40464365D01*
X67976691Y-40464364D01*
X67976686Y-40464364D01*
X67750002Y-40444532D01*
X67749998Y-40444532D01*
X67523313Y-40464364D01*
X67523302Y-40464366D01*
X67303511Y-40523258D01*
X67303502Y-40523261D01*
X67097267Y-40619431D01*
X67097265Y-40619432D01*
X66910858Y-40749954D01*
X66749954Y-40910858D01*
X66619432Y-41097265D01*
X66619431Y-41097267D01*
X66523261Y-41303502D01*
X66523258Y-41303511D01*
X66464366Y-41523302D01*
X66464364Y-41523312D01*
X66445400Y-41740073D01*
X66419947Y-41805141D01*
X66409553Y-41816946D01*
X65913320Y-42313181D01*
X65851997Y-42346666D01*
X65825639Y-42349500D01*
X63766977Y-42349500D01*
X63699938Y-42329815D01*
X63654183Y-42277011D01*
X63646733Y-42249865D01*
X63645876Y-42250068D01*
X63644092Y-42242520D01*
X63593797Y-42107671D01*
X63593793Y-42107664D01*
X63507547Y-41992455D01*
X63507544Y-41992452D01*
X63392335Y-41906206D01*
X63392328Y-41906202D01*
X63257482Y-41855908D01*
X63257483Y-41855908D01*
X63197883Y-41849501D01*
X63197881Y-41849500D01*
X63197873Y-41849500D01*
X63197864Y-41849500D01*
X61302129Y-41849500D01*
X61302123Y-41849501D01*
X61242516Y-41855908D01*
X61107671Y-41906202D01*
X61107664Y-41906206D01*
X60992455Y-41992452D01*
X60992452Y-41992455D01*
X60906206Y-42107664D01*
X60906203Y-42107670D01*
X60877544Y-42184508D01*
X60835672Y-42240441D01*
X60770208Y-42264858D01*
X60701935Y-42250006D01*
X60670135Y-42225158D01*
X60661784Y-42216087D01*
X60661778Y-42216082D01*
X60661777Y-42216081D01*
X60478634Y-42073535D01*
X60478628Y-42073531D01*
X60274504Y-41963064D01*
X60274495Y-41963061D01*
X60054984Y-41887702D01*
X59864450Y-41855908D01*
X59826049Y-41849500D01*
X59593951Y-41849500D01*
X59555550Y-41855908D01*
X59365015Y-41887702D01*
X59145504Y-41963061D01*
X59145495Y-41963064D01*
X58941371Y-42073531D01*
X58941365Y-42073535D01*
X58758222Y-42216081D01*
X58758219Y-42216084D01*
X58758216Y-42216086D01*
X58758216Y-42216087D01*
X58713319Y-42264858D01*
X58601016Y-42386852D01*
X58474075Y-42581151D01*
X58380842Y-42793699D01*
X58323866Y-43018691D01*
X58323864Y-43018702D01*
X58304700Y-43249993D01*
X58304700Y-43250006D01*
X50250000Y-43250006D01*
X50250000Y-39810001D01*
X53194532Y-39810001D01*
X53214364Y-40036686D01*
X53214366Y-40036697D01*
X53273258Y-40256488D01*
X53273261Y-40256497D01*
X53369431Y-40462732D01*
X53369432Y-40462734D01*
X53499954Y-40649141D01*
X53660858Y-40810045D01*
X53660861Y-40810047D01*
X53847266Y-40940568D01*
X54053504Y-41036739D01*
X54273308Y-41095635D01*
X54435230Y-41109801D01*
X54499998Y-41115468D01*
X54500000Y-41115468D01*
X54500002Y-41115468D01*
X54556673Y-41110509D01*
X54726692Y-41095635D01*
X54946496Y-41036739D01*
X55152734Y-40940568D01*
X55339139Y-40810047D01*
X55500047Y-40649139D01*
X55630568Y-40462734D01*
X55726739Y-40256496D01*
X55785635Y-40036692D01*
X55805468Y-39810000D01*
X55785635Y-39583308D01*
X55726739Y-39363504D01*
X55630568Y-39157266D01*
X55500047Y-38970861D01*
X55500045Y-38970858D01*
X55339140Y-38809953D01*
X55253518Y-38750000D01*
X56144551Y-38750000D01*
X56164317Y-39001151D01*
X56223126Y-39246110D01*
X56319533Y-39478859D01*
X56451160Y-39693653D01*
X56451161Y-39693656D01*
X56451164Y-39693659D01*
X56614776Y-39885224D01*
X56763066Y-40011875D01*
X56806343Y-40048838D01*
X56806346Y-40048839D01*
X57021140Y-40180466D01*
X57204675Y-40256488D01*
X57253889Y-40276873D01*
X57498852Y-40335683D01*
X57750000Y-40355449D01*
X58001148Y-40335683D01*
X58246111Y-40276873D01*
X58478859Y-40180466D01*
X58693659Y-40048836D01*
X58885224Y-39885224D01*
X59048836Y-39693659D01*
X59180466Y-39478859D01*
X59276873Y-39246111D01*
X59335683Y-39001148D01*
X59355449Y-38750000D01*
X62645052Y-38750000D01*
X62664812Y-39001072D01*
X62723603Y-39245956D01*
X62819980Y-39478631D01*
X62951566Y-39693358D01*
X62951577Y-39693374D01*
X62952264Y-39694178D01*
X62952266Y-39694178D01*
X63687226Y-38959219D01*
X63725901Y-39052588D01*
X63822075Y-39177925D01*
X63947412Y-39274099D01*
X64040779Y-39312772D01*
X63305819Y-40047732D01*
X63306636Y-40048430D01*
X63306638Y-40048432D01*
X63521368Y-40180019D01*
X63754043Y-40276396D01*
X63998927Y-40335187D01*
X64250000Y-40354947D01*
X64501072Y-40335187D01*
X64745956Y-40276396D01*
X64978631Y-40180019D01*
X65193360Y-40048432D01*
X65193371Y-40048424D01*
X65194179Y-40047732D01*
X64459220Y-39312772D01*
X64552588Y-39274099D01*
X64677925Y-39177925D01*
X64774099Y-39052589D01*
X64812773Y-38959220D01*
X65547732Y-39694179D01*
X65548424Y-39693371D01*
X65548432Y-39693360D01*
X65680019Y-39478631D01*
X65776396Y-39245956D01*
X65835187Y-39001072D01*
X65854947Y-38750000D01*
X65835187Y-38498927D01*
X65776396Y-38254043D01*
X65680019Y-38021368D01*
X65548432Y-37806638D01*
X65548430Y-37806636D01*
X65547732Y-37805819D01*
X64812772Y-38540779D01*
X64774099Y-38447412D01*
X64677925Y-38322075D01*
X64552588Y-38225901D01*
X64459219Y-38187226D01*
X65194178Y-37452266D01*
X65194178Y-37452264D01*
X65193374Y-37451577D01*
X65193358Y-37451566D01*
X64978631Y-37319980D01*
X64745956Y-37223603D01*
X64501072Y-37164812D01*
X64250000Y-37145052D01*
X63998927Y-37164812D01*
X63754043Y-37223603D01*
X63521368Y-37319980D01*
X63306637Y-37451568D01*
X63305820Y-37452266D01*
X64040780Y-38187226D01*
X63947412Y-38225901D01*
X63822075Y-38322075D01*
X63725901Y-38447411D01*
X63687226Y-38540780D01*
X62952266Y-37805820D01*
X62951568Y-37806637D01*
X62819980Y-38021368D01*
X62723603Y-38254043D01*
X62664812Y-38498927D01*
X62645052Y-38750000D01*
X59355449Y-38750000D01*
X59335683Y-38498852D01*
X59276873Y-38253889D01*
X59180466Y-38021141D01*
X59180466Y-38021140D01*
X59048839Y-37806346D01*
X59048838Y-37806343D01*
X59011875Y-37763066D01*
X58885224Y-37614776D01*
X58758571Y-37506604D01*
X58693656Y-37451161D01*
X58693653Y-37451160D01*
X58478859Y-37319533D01*
X58246110Y-37223126D01*
X58001151Y-37164317D01*
X57750000Y-37144551D01*
X57498848Y-37164317D01*
X57253889Y-37223126D01*
X57021140Y-37319533D01*
X56806346Y-37451160D01*
X56806343Y-37451161D01*
X56614776Y-37614776D01*
X56451161Y-37806343D01*
X56451160Y-37806346D01*
X56319533Y-38021140D01*
X56223126Y-38253889D01*
X56164317Y-38498848D01*
X56144551Y-38750000D01*
X55253518Y-38750000D01*
X55178377Y-38697386D01*
X55134752Y-38642809D01*
X55125500Y-38595811D01*
X55125500Y-35060451D01*
X55145185Y-34993412D01*
X55161814Y-34972774D01*
X55935391Y-34199197D01*
X55996712Y-34165714D01*
X56066403Y-34170698D01*
X56122337Y-34212570D01*
X56146688Y-34277151D01*
X56164317Y-34501151D01*
X56223126Y-34746110D01*
X56319533Y-34978859D01*
X56451160Y-35193653D01*
X56451161Y-35193656D01*
X56451164Y-35193659D01*
X56614776Y-35385224D01*
X56763066Y-35511875D01*
X56806343Y-35548838D01*
X56806346Y-35548839D01*
X57021140Y-35680466D01*
X57253889Y-35776873D01*
X57498852Y-35835683D01*
X57750000Y-35855449D01*
X58001148Y-35835683D01*
X58246111Y-35776873D01*
X58478859Y-35680466D01*
X58693659Y-35548836D01*
X58885224Y-35385224D01*
X59048836Y-35193659D01*
X59180466Y-34978859D01*
X59276873Y-34746111D01*
X59335683Y-34501148D01*
X59355449Y-34250000D01*
X59335683Y-33998852D01*
X59276873Y-33753889D01*
X59180466Y-33521141D01*
X59180466Y-33521140D01*
X59048839Y-33306346D01*
X59048838Y-33306343D01*
X58949178Y-33189657D01*
X58885224Y-33114776D01*
X58750172Y-32999431D01*
X58693656Y-32951161D01*
X58693653Y-32951160D01*
X58478859Y-32819533D01*
X58246110Y-32723126D01*
X58001151Y-32664317D01*
X57812882Y-32649500D01*
X57777151Y-32646687D01*
X57711863Y-32621804D01*
X57670393Y-32565572D01*
X57665906Y-32495847D01*
X57699198Y-32435391D01*
X58222772Y-31911819D01*
X58284095Y-31878334D01*
X58310453Y-31875500D01*
X60692257Y-31875500D01*
X60707877Y-31877224D01*
X60707904Y-31876939D01*
X60715660Y-31877671D01*
X60715667Y-31877673D01*
X60784814Y-31875500D01*
X60814350Y-31875500D01*
X60821228Y-31874630D01*
X60827041Y-31874172D01*
X60873627Y-31872709D01*
X60892869Y-31867117D01*
X60911912Y-31863174D01*
X60931792Y-31860664D01*
X60975122Y-31843507D01*
X60980646Y-31841617D01*
X60984396Y-31840527D01*
X61025390Y-31828618D01*
X61042629Y-31818422D01*
X61060103Y-31809862D01*
X61078727Y-31802488D01*
X61078727Y-31802487D01*
X61078732Y-31802486D01*
X61116449Y-31775082D01*
X61121305Y-31771892D01*
X61161420Y-31748170D01*
X61175589Y-31733999D01*
X61190379Y-31721368D01*
X61206587Y-31709594D01*
X61236299Y-31673676D01*
X61240212Y-31669376D01*
X61722771Y-31186818D01*
X61784094Y-31153333D01*
X61810452Y-31150499D01*
X63000500Y-31150499D01*
X63067539Y-31170184D01*
X63113294Y-31222988D01*
X63124500Y-31274499D01*
X63124500Y-32539235D01*
X63104815Y-32606274D01*
X63052011Y-32652029D01*
X63043834Y-32655417D01*
X62907669Y-32706203D01*
X62907664Y-32706206D01*
X62792455Y-32792452D01*
X62792452Y-32792455D01*
X62706206Y-32907664D01*
X62706202Y-32907671D01*
X62655908Y-33042517D01*
X62649501Y-33102116D01*
X62649501Y-33102123D01*
X62649500Y-33102135D01*
X62649500Y-35397870D01*
X62649501Y-35397876D01*
X62655908Y-35457483D01*
X62706202Y-35592328D01*
X62706206Y-35592335D01*
X62792452Y-35707544D01*
X62792455Y-35707547D01*
X62907664Y-35793793D01*
X62907671Y-35793797D01*
X63042517Y-35844091D01*
X63042516Y-35844091D01*
X63049444Y-35844835D01*
X63102127Y-35850500D01*
X65397872Y-35850499D01*
X65457483Y-35844091D01*
X65592331Y-35793796D01*
X65707546Y-35707546D01*
X65793796Y-35592331D01*
X65844091Y-35457483D01*
X65850500Y-35397873D01*
X65850499Y-34130001D01*
X66444532Y-34130001D01*
X66464364Y-34356686D01*
X66464366Y-34356697D01*
X66523258Y-34576488D01*
X66523261Y-34576497D01*
X66619431Y-34782732D01*
X66619432Y-34782734D01*
X66749954Y-34969141D01*
X66910858Y-35130045D01*
X66910861Y-35130047D01*
X67097266Y-35260568D01*
X67303504Y-35356739D01*
X67523308Y-35415635D01*
X67685230Y-35429801D01*
X67749998Y-35435468D01*
X67750000Y-35435468D01*
X67750002Y-35435468D01*
X67806673Y-35430509D01*
X67976692Y-35415635D01*
X68196496Y-35356739D01*
X68402734Y-35260568D01*
X68589139Y-35130047D01*
X68750047Y-34969139D01*
X68880568Y-34782734D01*
X68976739Y-34576496D01*
X69035635Y-34356692D01*
X69055468Y-34130000D01*
X69035635Y-33903308D01*
X68976739Y-33683504D01*
X68880568Y-33477266D01*
X68750047Y-33290861D01*
X68750045Y-33290858D01*
X68589141Y-33129954D01*
X68402734Y-32999432D01*
X68402732Y-32999431D01*
X68196497Y-32903261D01*
X68196488Y-32903258D01*
X67976697Y-32844366D01*
X67976693Y-32844365D01*
X67976692Y-32844365D01*
X67976691Y-32844364D01*
X67976686Y-32844364D01*
X67750002Y-32824532D01*
X67749998Y-32824532D01*
X67523313Y-32844364D01*
X67523302Y-32844366D01*
X67303511Y-32903258D01*
X67303502Y-32903261D01*
X67097267Y-32999431D01*
X67097265Y-32999432D01*
X66910858Y-33129954D01*
X66749954Y-33290858D01*
X66619432Y-33477265D01*
X66619431Y-33477267D01*
X66523261Y-33683502D01*
X66523258Y-33683511D01*
X66464366Y-33903302D01*
X66464364Y-33903313D01*
X66444532Y-34129998D01*
X66444532Y-34130001D01*
X65850499Y-34130001D01*
X65850499Y-33102128D01*
X65844091Y-33042517D01*
X65838982Y-33028820D01*
X65793797Y-32907671D01*
X65793793Y-32907664D01*
X65707547Y-32792455D01*
X65707544Y-32792452D01*
X65592335Y-32706206D01*
X65592328Y-32706202D01*
X65457482Y-32655908D01*
X65457483Y-32655908D01*
X65397883Y-32649501D01*
X65397881Y-32649500D01*
X65397873Y-32649500D01*
X65397865Y-32649500D01*
X64499500Y-32649500D01*
X64432461Y-32629815D01*
X64386706Y-32577011D01*
X64375500Y-32525500D01*
X64375500Y-24589981D01*
X64395185Y-24522942D01*
X64447989Y-24477187D01*
X64486899Y-24466623D01*
X64487391Y-24466572D01*
X64502797Y-24464999D01*
X64669334Y-24409814D01*
X64818656Y-24317712D01*
X64942712Y-24193656D01*
X65034814Y-24044334D01*
X65089999Y-23877797D01*
X65100500Y-23775009D01*
X65100499Y-22224992D01*
X65099156Y-22211849D01*
X65089999Y-22122203D01*
X65089998Y-22122200D01*
X65052104Y-22007845D01*
X65034814Y-21955666D01*
X64942712Y-21806344D01*
X64818656Y-21682288D01*
X64687786Y-21601567D01*
X64669336Y-21590187D01*
X64669331Y-21590185D01*
X64667862Y-21589698D01*
X64502797Y-21535001D01*
X64502795Y-21535000D01*
X64400010Y-21524500D01*
X63099998Y-21524500D01*
X63099981Y-21524501D01*
X62997203Y-21535000D01*
X62997200Y-21535001D01*
X62830668Y-21590185D01*
X62830663Y-21590187D01*
X62681342Y-21682289D01*
X62557289Y-21806342D01*
X62461821Y-21961121D01*
X62409873Y-22007845D01*
X62340910Y-22019068D01*
X62276828Y-21991224D01*
X62268601Y-21983705D01*
X62121402Y-21836506D01*
X62121395Y-21836501D01*
X61927834Y-21700967D01*
X61927830Y-21700965D01*
X61887777Y-21682288D01*
X61713663Y-21601097D01*
X61713659Y-21601096D01*
X61713655Y-21601094D01*
X61485413Y-21539938D01*
X61485403Y-21539936D01*
X61250001Y-21519341D01*
X61249999Y-21519341D01*
X61014596Y-21539936D01*
X61014586Y-21539938D01*
X60786344Y-21601094D01*
X60786335Y-21601098D01*
X60572171Y-21700964D01*
X60572169Y-21700965D01*
X60378597Y-21836505D01*
X60211508Y-22003594D01*
X60101269Y-22161032D01*
X60046692Y-22204656D01*
X59977193Y-22211849D01*
X59914839Y-22180327D01*
X59898119Y-22161031D01*
X59788113Y-22003926D01*
X59788108Y-22003920D01*
X59621082Y-21836894D01*
X59427578Y-21701399D01*
X59213492Y-21601570D01*
X59213486Y-21601567D01*
X59000000Y-21544364D01*
X59000000Y-22591981D01*
X58885199Y-22539554D01*
X58783975Y-22525000D01*
X58716025Y-22525000D01*
X58614801Y-22539554D01*
X58500000Y-22591981D01*
X58500000Y-21544364D01*
X58499999Y-21544364D01*
X58286513Y-21601567D01*
X58286507Y-21601570D01*
X58072422Y-21701399D01*
X58072420Y-21701400D01*
X57878926Y-21836886D01*
X57878920Y-21836891D01*
X57711891Y-22003920D01*
X57711886Y-22003926D01*
X57576400Y-22197420D01*
X57576399Y-22197422D01*
X57476570Y-22411507D01*
X57476566Y-22411516D01*
X57415432Y-22639673D01*
X57415430Y-22639683D01*
X57405779Y-22750000D01*
X58346031Y-22750000D01*
X58313481Y-22800649D01*
X58275000Y-22931705D01*
X58275000Y-23068295D01*
X58313481Y-23199351D01*
X58346031Y-23250000D01*
X57405779Y-23250000D01*
X57415430Y-23360316D01*
X57415432Y-23360326D01*
X57476566Y-23588483D01*
X57476570Y-23588492D01*
X57576399Y-23802577D01*
X57576400Y-23802579D01*
X57711886Y-23996073D01*
X57711891Y-23996079D01*
X57878917Y-24163105D01*
X58072421Y-24298600D01*
X58286507Y-24398429D01*
X58286516Y-24398433D01*
X58500000Y-24455634D01*
X58500000Y-23408018D01*
X58614801Y-23460446D01*
X58716025Y-23475000D01*
X58783975Y-23475000D01*
X58885199Y-23460446D01*
X59000000Y-23408018D01*
X59000000Y-24455633D01*
X59213483Y-24398433D01*
X59213492Y-24398429D01*
X59427577Y-24298600D01*
X59427579Y-24298599D01*
X59621073Y-24163113D01*
X59621079Y-24163108D01*
X59788108Y-23996079D01*
X59788113Y-23996073D01*
X59898119Y-23838967D01*
X59952695Y-23795342D01*
X60022194Y-23788148D01*
X60084549Y-23819670D01*
X60101269Y-23838967D01*
X60211505Y-23996402D01*
X60378209Y-24163105D01*
X60378599Y-24163495D01*
X60571624Y-24298653D01*
X60615248Y-24353228D01*
X60624500Y-24400226D01*
X60624500Y-27924547D01*
X60604815Y-27991586D01*
X60588181Y-28012228D01*
X60233520Y-28366888D01*
X60172197Y-28400373D01*
X60105577Y-28396488D01*
X60079986Y-28387702D01*
X59889204Y-28355867D01*
X59851049Y-28349500D01*
X59618951Y-28349500D01*
X59573164Y-28357140D01*
X59390015Y-28387702D01*
X59170504Y-28463061D01*
X59170495Y-28463064D01*
X58966371Y-28573531D01*
X58966365Y-28573535D01*
X58783222Y-28716081D01*
X58783219Y-28716084D01*
X58626016Y-28886852D01*
X58499075Y-29081151D01*
X58405842Y-29293699D01*
X58348866Y-29518691D01*
X58348864Y-29518702D01*
X58329700Y-29749993D01*
X58329700Y-29750006D01*
X58348864Y-29981297D01*
X58348866Y-29981308D01*
X58405842Y-30206300D01*
X58499075Y-30418847D01*
X58508112Y-30432680D01*
X58528299Y-30499570D01*
X58509117Y-30566755D01*
X58456658Y-30612905D01*
X58404302Y-30624500D01*
X58082737Y-30624500D01*
X58067120Y-30622776D01*
X58067093Y-30623062D01*
X58059331Y-30622327D01*
X57990203Y-30624500D01*
X57960650Y-30624500D01*
X57959929Y-30624590D01*
X57953757Y-30625369D01*
X57947945Y-30625826D01*
X57901372Y-30627290D01*
X57901369Y-30627291D01*
X57882126Y-30632881D01*
X57863083Y-30636825D01*
X57843204Y-30639336D01*
X57843203Y-30639337D01*
X57799878Y-30656490D01*
X57794352Y-30658382D01*
X57749608Y-30671383D01*
X57749604Y-30671385D01*
X57732365Y-30681580D01*
X57714898Y-30690137D01*
X57696269Y-30697512D01*
X57696267Y-30697513D01*
X57658564Y-30724906D01*
X57653682Y-30728112D01*
X57613580Y-30751828D01*
X57599408Y-30766000D01*
X57584623Y-30778628D01*
X57568412Y-30790407D01*
X57538709Y-30826310D01*
X57534777Y-30830631D01*
X55942475Y-32422932D01*
X55881152Y-32456417D01*
X55811460Y-32451433D01*
X55795997Y-32440000D01*
X54815686Y-32440000D01*
X54827641Y-32428045D01*
X54885165Y-32315148D01*
X54904986Y-32190000D01*
X54885165Y-32064852D01*
X54827641Y-31951955D01*
X54815686Y-31940000D01*
X55778872Y-31940000D01*
X55778872Y-31939999D01*
X55726269Y-31743682D01*
X55726265Y-31743673D01*
X55630134Y-31537517D01*
X55499657Y-31351179D01*
X55338820Y-31190342D01*
X55152482Y-31059865D01*
X54946328Y-30963734D01*
X54750000Y-30911127D01*
X54750000Y-31874314D01*
X54738045Y-31862359D01*
X54625148Y-31804835D01*
X54531481Y-31790000D01*
X54468519Y-31790000D01*
X54374852Y-31804835D01*
X54261955Y-31862359D01*
X54250000Y-31874314D01*
X54250000Y-30911127D01*
X54053671Y-30963734D01*
X53847517Y-31059865D01*
X53661179Y-31190342D01*
X53500342Y-31351179D01*
X53369865Y-31537517D01*
X53273734Y-31743673D01*
X53273730Y-31743682D01*
X53221127Y-31939999D01*
X53221128Y-31940000D01*
X54184314Y-31940000D01*
X54172359Y-31951955D01*
X54114835Y-32064852D01*
X54095014Y-32190000D01*
X54114835Y-32315148D01*
X54172359Y-32428045D01*
X54184314Y-32440000D01*
X53221128Y-32440000D01*
X53273730Y-32636317D01*
X53273734Y-32636326D01*
X53369865Y-32842482D01*
X53500342Y-33028820D01*
X53661179Y-33189657D01*
X53847517Y-33320134D01*
X54053673Y-33416265D01*
X54053682Y-33416269D01*
X54249999Y-33468872D01*
X54250000Y-33468871D01*
X54250000Y-32505686D01*
X54261955Y-32517641D01*
X54374852Y-32575165D01*
X54468519Y-32590000D01*
X54531481Y-32590000D01*
X54625148Y-32575165D01*
X54738045Y-32517641D01*
X54750000Y-32505686D01*
X54750000Y-33486494D01*
X54761940Y-33502847D01*
X54766095Y-33572593D01*
X54732932Y-33632475D01*
X54116207Y-34249200D01*
X54103951Y-34259020D01*
X54104134Y-34259241D01*
X54098123Y-34264213D01*
X54050772Y-34314636D01*
X54029889Y-34335519D01*
X54029877Y-34335532D01*
X54025621Y-34341017D01*
X54021837Y-34345447D01*
X53989937Y-34379418D01*
X53989936Y-34379420D01*
X53980284Y-34396976D01*
X53969610Y-34413226D01*
X53957329Y-34429061D01*
X53957324Y-34429068D01*
X53938815Y-34471838D01*
X53936245Y-34477084D01*
X53913803Y-34517906D01*
X53908822Y-34537307D01*
X53902521Y-34555710D01*
X53894562Y-34574102D01*
X53894561Y-34574105D01*
X53887271Y-34620127D01*
X53886087Y-34625846D01*
X53874501Y-34670972D01*
X53874500Y-34670982D01*
X53874500Y-34691016D01*
X53872973Y-34710413D01*
X53869840Y-34730196D01*
X53873831Y-34772415D01*
X53874225Y-34776583D01*
X53874500Y-34782421D01*
X53874500Y-38595811D01*
X53854815Y-38662850D01*
X53821623Y-38697386D01*
X53660859Y-38809953D01*
X53499954Y-38970858D01*
X53369432Y-39157265D01*
X53369431Y-39157267D01*
X53273261Y-39363502D01*
X53273258Y-39363511D01*
X53214366Y-39583302D01*
X53214364Y-39583313D01*
X53194532Y-39809998D01*
X53194532Y-39810001D01*
X50250000Y-39810001D01*
X50250000Y-25874000D01*
X50269685Y-25806961D01*
X50322489Y-25761206D01*
X50374000Y-25750000D01*
X55250000Y-25750000D01*
X55250000Y-20374000D01*
X55269685Y-20306961D01*
X55322489Y-20261206D01*
X55374000Y-20250000D01*
X67126000Y-20250000D01*
X67193039Y-20269685D01*
G37*
%TD.AperFunction*%
%TD*%
M02*
