%TF.GenerationSoftware,KiCad,Pcbnew,8.0.5*%
%TF.CreationDate,2024-09-28T19:10:56+02:00*%
%TF.ProjectId,FCU_Mainboard_v4,4643555f-4d61-4696-9e62-6f6172645f76,rev?*%
%TF.SameCoordinates,Original*%
%TF.FileFunction,Drillmap*%
%TF.FilePolarity,Positive*%
%FSLAX45Y45*%
G04 Gerber Fmt 4.5, Leading zero omitted, Abs format (unit mm)*
G04 Created by KiCad (PCBNEW 8.0.5) date 2024-09-28 19:10:56*
%MOMM*%
%LPD*%
G01*
G04 APERTURE LIST*
%ADD10C,0.150000*%
%ADD11C,0.200000*%
%ADD12C,0.100000*%
%ADD13C,0.270000*%
G04 APERTURE END LIST*
D10*
X2000000Y-1995000D02*
X27000000Y-1995000D01*
X27000000Y-11995000D01*
X2000000Y-11995000D01*
X2000000Y-1995000D01*
D11*
D12*
X14167500Y-8135000D02*
X14202500Y-8170000D01*
X14202500Y-8135000D02*
X14167500Y-8170000D01*
X14167500Y-8262500D02*
X14202500Y-8297500D01*
X14202500Y-8262500D02*
X14167500Y-8297500D01*
X14167500Y-8390000D02*
X14202500Y-8425000D01*
X14202500Y-8390000D02*
X14167500Y-8425000D01*
X14295000Y-8135000D02*
X14330000Y-8170000D01*
X14330000Y-8135000D02*
X14295000Y-8170000D01*
X14295000Y-8262500D02*
X14330000Y-8297500D01*
X14330000Y-8262500D02*
X14295000Y-8297500D01*
X14295000Y-8390000D02*
X14330000Y-8425000D01*
X14330000Y-8390000D02*
X14295000Y-8425000D01*
X14422500Y-8135000D02*
X14457500Y-8170000D01*
X14457500Y-8135000D02*
X14422500Y-8170000D01*
X14422500Y-8262500D02*
X14457500Y-8297500D01*
X14457500Y-8262500D02*
X14422500Y-8297500D01*
X14422500Y-8390000D02*
X14457500Y-8425000D01*
X14457500Y-8390000D02*
X14422500Y-8425000D01*
X2295000Y-7910000D02*
G75*
G02*
X2255000Y-7910000I-20000J0D01*
G01*
X2255000Y-7910000D02*
G75*
G02*
X2295000Y-7910000I20000J0D01*
G01*
X2935000Y-7785000D02*
G75*
G02*
X2895000Y-7785000I-20000J0D01*
G01*
X2895000Y-7785000D02*
G75*
G02*
X2935000Y-7785000I20000J0D01*
G01*
X3013070Y-8739370D02*
G75*
G02*
X2973070Y-8739370I-20000J0D01*
G01*
X2973070Y-8739370D02*
G75*
G02*
X3013070Y-8739370I20000J0D01*
G01*
X3170000Y-8280000D02*
G75*
G02*
X3130000Y-8280000I-20000J0D01*
G01*
X3130000Y-8280000D02*
G75*
G02*
X3170000Y-8280000I20000J0D01*
G01*
X3359690Y-8805150D02*
G75*
G02*
X3319690Y-8805150I-20000J0D01*
G01*
X3319690Y-8805150D02*
G75*
G02*
X3359690Y-8805150I20000J0D01*
G01*
X3893100Y-8587780D02*
G75*
G02*
X3853100Y-8587780I-20000J0D01*
G01*
X3853100Y-8587780D02*
G75*
G02*
X3893100Y-8587780I20000J0D01*
G01*
X3980000Y-8910000D02*
G75*
G02*
X3940000Y-8910000I-20000J0D01*
G01*
X3940000Y-8910000D02*
G75*
G02*
X3980000Y-8910000I20000J0D01*
G01*
X4104480Y-7604820D02*
G75*
G02*
X4064480Y-7604820I-20000J0D01*
G01*
X4064480Y-7604820D02*
G75*
G02*
X4104480Y-7604820I20000J0D01*
G01*
X4280000Y-7980000D02*
G75*
G02*
X4240000Y-7980000I-20000J0D01*
G01*
X4240000Y-7980000D02*
G75*
G02*
X4280000Y-7980000I20000J0D01*
G01*
X4306620Y-7605120D02*
G75*
G02*
X4266620Y-7605120I-20000J0D01*
G01*
X4266620Y-7605120D02*
G75*
G02*
X4306620Y-7605120I20000J0D01*
G01*
X4701980Y-8487100D02*
G75*
G02*
X4661980Y-8487100I-20000J0D01*
G01*
X4661980Y-8487100D02*
G75*
G02*
X4701980Y-8487100I20000J0D01*
G01*
X5016530Y-7798290D02*
G75*
G02*
X4976530Y-7798290I-20000J0D01*
G01*
X4976530Y-7798290D02*
G75*
G02*
X5016530Y-7798290I20000J0D01*
G01*
X5310000Y-9210000D02*
G75*
G02*
X5270000Y-9210000I-20000J0D01*
G01*
X5270000Y-9210000D02*
G75*
G02*
X5310000Y-9210000I20000J0D01*
G01*
X5732210Y-9129240D02*
G75*
G02*
X5692210Y-9129240I-20000J0D01*
G01*
X5692210Y-9129240D02*
G75*
G02*
X5732210Y-9129240I20000J0D01*
G01*
X6295000Y-7340000D02*
G75*
G02*
X6255000Y-7340000I-20000J0D01*
G01*
X6255000Y-7340000D02*
G75*
G02*
X6295000Y-7340000I20000J0D01*
G01*
X6312630Y-8874290D02*
G75*
G02*
X6272630Y-8874290I-20000J0D01*
G01*
X6272630Y-8874290D02*
G75*
G02*
X6312630Y-8874290I20000J0D01*
G01*
X6365000Y-9310000D02*
G75*
G02*
X6325000Y-9310000I-20000J0D01*
G01*
X6325000Y-9310000D02*
G75*
G02*
X6365000Y-9310000I20000J0D01*
G01*
X6520000Y-7540000D02*
G75*
G02*
X6480000Y-7540000I-20000J0D01*
G01*
X6480000Y-7540000D02*
G75*
G02*
X6520000Y-7540000I20000J0D01*
G01*
X6571970Y-7681340D02*
G75*
G02*
X6531970Y-7681340I-20000J0D01*
G01*
X6531970Y-7681340D02*
G75*
G02*
X6571970Y-7681340I20000J0D01*
G01*
X6582240Y-7801350D02*
G75*
G02*
X6542240Y-7801350I-20000J0D01*
G01*
X6542240Y-7801350D02*
G75*
G02*
X6582240Y-7801350I20000J0D01*
G01*
X6655000Y-8315000D02*
G75*
G02*
X6615000Y-8315000I-20000J0D01*
G01*
X6615000Y-8315000D02*
G75*
G02*
X6655000Y-8315000I20000J0D01*
G01*
X6660850Y-7578910D02*
G75*
G02*
X6620850Y-7578910I-20000J0D01*
G01*
X6620850Y-7578910D02*
G75*
G02*
X6660850Y-7578910I20000J0D01*
G01*
X6727360Y-7654460D02*
G75*
G02*
X6687360Y-7654460I-20000J0D01*
G01*
X6687360Y-7654460D02*
G75*
G02*
X6727360Y-7654460I20000J0D01*
G01*
X6732750Y-7785600D02*
G75*
G02*
X6692750Y-7785600I-20000J0D01*
G01*
X6692750Y-7785600D02*
G75*
G02*
X6732750Y-7785600I20000J0D01*
G01*
X6824750Y-8163490D02*
G75*
G02*
X6784750Y-8163490I-20000J0D01*
G01*
X6784750Y-8163490D02*
G75*
G02*
X6824750Y-8163490I20000J0D01*
G01*
X6907100Y-8721490D02*
G75*
G02*
X6867100Y-8721490I-20000J0D01*
G01*
X6867100Y-8721490D02*
G75*
G02*
X6907100Y-8721490I20000J0D01*
G01*
X7093740Y-8677570D02*
G75*
G02*
X7053740Y-8677570I-20000J0D01*
G01*
X7053740Y-8677570D02*
G75*
G02*
X7093740Y-8677570I20000J0D01*
G01*
X7243720Y-8677070D02*
G75*
G02*
X7203720Y-8677070I-20000J0D01*
G01*
X7203720Y-8677070D02*
G75*
G02*
X7243720Y-8677070I20000J0D01*
G01*
X7362780Y-8640910D02*
G75*
G02*
X7322780Y-8640910I-20000J0D01*
G01*
X7322780Y-8640910D02*
G75*
G02*
X7362780Y-8640910I20000J0D01*
G01*
X7545000Y-8660000D02*
G75*
G02*
X7505000Y-8660000I-20000J0D01*
G01*
X7505000Y-8660000D02*
G75*
G02*
X7545000Y-8660000I20000J0D01*
G01*
X7709679Y-8245000D02*
G75*
G02*
X7669679Y-8245000I-20000J0D01*
G01*
X7669679Y-8245000D02*
G75*
G02*
X7709679Y-8245000I20000J0D01*
G01*
X7730000Y-8485000D02*
G75*
G02*
X7690000Y-8485000I-20000J0D01*
G01*
X7690000Y-8485000D02*
G75*
G02*
X7730000Y-8485000I20000J0D01*
G01*
X7930000Y-7515000D02*
G75*
G02*
X7890000Y-7515000I-20000J0D01*
G01*
X7890000Y-7515000D02*
G75*
G02*
X7930000Y-7515000I20000J0D01*
G01*
X8085000Y-9335000D02*
G75*
G02*
X8045000Y-9335000I-20000J0D01*
G01*
X8045000Y-9335000D02*
G75*
G02*
X8085000Y-9335000I20000J0D01*
G01*
X8250000Y-8785000D02*
G75*
G02*
X8210000Y-8785000I-20000J0D01*
G01*
X8210000Y-8785000D02*
G75*
G02*
X8250000Y-8785000I20000J0D01*
G01*
X8300000Y-7775000D02*
G75*
G02*
X8260000Y-7775000I-20000J0D01*
G01*
X8260000Y-7775000D02*
G75*
G02*
X8300000Y-7775000I20000J0D01*
G01*
X8355000Y-8300000D02*
G75*
G02*
X8315000Y-8300000I-20000J0D01*
G01*
X8315000Y-8300000D02*
G75*
G02*
X8355000Y-8300000I20000J0D01*
G01*
X8440000Y-4285000D02*
G75*
G02*
X8400000Y-4285000I-20000J0D01*
G01*
X8400000Y-4285000D02*
G75*
G02*
X8440000Y-4285000I20000J0D01*
G01*
X8515000Y-7380000D02*
G75*
G02*
X8475000Y-7380000I-20000J0D01*
G01*
X8475000Y-7380000D02*
G75*
G02*
X8515000Y-7380000I20000J0D01*
G01*
X8675000Y-8890000D02*
G75*
G02*
X8635000Y-8890000I-20000J0D01*
G01*
X8635000Y-8890000D02*
G75*
G02*
X8675000Y-8890000I20000J0D01*
G01*
X8830740Y-8096770D02*
G75*
G02*
X8790740Y-8096770I-20000J0D01*
G01*
X8790740Y-8096770D02*
G75*
G02*
X8830740Y-8096770I20000J0D01*
G01*
X8881320Y-8866560D02*
G75*
G02*
X8841320Y-8866560I-20000J0D01*
G01*
X8841320Y-8866560D02*
G75*
G02*
X8881320Y-8866560I20000J0D01*
G01*
X9068810Y-8110420D02*
G75*
G02*
X9028810Y-8110420I-20000J0D01*
G01*
X9028810Y-8110420D02*
G75*
G02*
X9068810Y-8110420I20000J0D01*
G01*
X9115360Y-9065800D02*
G75*
G02*
X9075360Y-9065800I-20000J0D01*
G01*
X9075360Y-9065800D02*
G75*
G02*
X9115360Y-9065800I20000J0D01*
G01*
X9225000Y-4235000D02*
G75*
G02*
X9185000Y-4235000I-20000J0D01*
G01*
X9185000Y-4235000D02*
G75*
G02*
X9225000Y-4235000I20000J0D01*
G01*
X9288930Y-6416840D02*
G75*
G02*
X9248930Y-6416840I-20000J0D01*
G01*
X9248930Y-6416840D02*
G75*
G02*
X9288930Y-6416840I20000J0D01*
G01*
X9330180Y-7068250D02*
G75*
G02*
X9290180Y-7068250I-20000J0D01*
G01*
X9290180Y-7068250D02*
G75*
G02*
X9330180Y-7068250I20000J0D01*
G01*
X9345710Y-7213880D02*
G75*
G02*
X9305710Y-7213880I-20000J0D01*
G01*
X9305710Y-7213880D02*
G75*
G02*
X9345710Y-7213880I20000J0D01*
G01*
X9410730Y-5983470D02*
G75*
G02*
X9370730Y-5983470I-20000J0D01*
G01*
X9370730Y-5983470D02*
G75*
G02*
X9410730Y-5983470I20000J0D01*
G01*
X9412030Y-7297560D02*
G75*
G02*
X9372030Y-7297560I-20000J0D01*
G01*
X9372030Y-7297560D02*
G75*
G02*
X9412030Y-7297560I20000J0D01*
G01*
X9507360Y-7580350D02*
G75*
G02*
X9467360Y-7580350I-20000J0D01*
G01*
X9467360Y-7580350D02*
G75*
G02*
X9507360Y-7580350I20000J0D01*
G01*
X9507620Y-7739790D02*
G75*
G02*
X9467620Y-7739790I-20000J0D01*
G01*
X9467620Y-7739790D02*
G75*
G02*
X9507620Y-7739790I20000J0D01*
G01*
X9610310Y-7585430D02*
G75*
G02*
X9570310Y-7585430I-20000J0D01*
G01*
X9570310Y-7585430D02*
G75*
G02*
X9610310Y-7585430I20000J0D01*
G01*
X9622570Y-7687890D02*
G75*
G02*
X9582570Y-7687890I-20000J0D01*
G01*
X9582570Y-7687890D02*
G75*
G02*
X9622570Y-7687890I20000J0D01*
G01*
X9665820Y-7814870D02*
G75*
G02*
X9625820Y-7814870I-20000J0D01*
G01*
X9625820Y-7814870D02*
G75*
G02*
X9665820Y-7814870I20000J0D01*
G01*
X9817460Y-9184280D02*
G75*
G02*
X9777460Y-9184280I-20000J0D01*
G01*
X9777460Y-9184280D02*
G75*
G02*
X9817460Y-9184280I20000J0D01*
G01*
X9925000Y-4340000D02*
G75*
G02*
X9885000Y-4340000I-20000J0D01*
G01*
X9885000Y-4340000D02*
G75*
G02*
X9925000Y-4340000I20000J0D01*
G01*
X9975000Y-7555000D02*
G75*
G02*
X9935000Y-7555000I-20000J0D01*
G01*
X9935000Y-7555000D02*
G75*
G02*
X9975000Y-7555000I20000J0D01*
G01*
X10043250Y-8701720D02*
G75*
G02*
X10003250Y-8701720I-20000J0D01*
G01*
X10003250Y-8701720D02*
G75*
G02*
X10043250Y-8701720I20000J0D01*
G01*
X10173500Y-8695900D02*
G75*
G02*
X10133500Y-8695900I-20000J0D01*
G01*
X10133500Y-8695900D02*
G75*
G02*
X10173500Y-8695900I20000J0D01*
G01*
X10175000Y-2955000D02*
G75*
G02*
X10135000Y-2955000I-20000J0D01*
G01*
X10135000Y-2955000D02*
G75*
G02*
X10175000Y-2955000I20000J0D01*
G01*
X10303950Y-7809070D02*
G75*
G02*
X10263950Y-7809070I-20000J0D01*
G01*
X10263950Y-7809070D02*
G75*
G02*
X10303950Y-7809070I20000J0D01*
G01*
X10465000Y-5000000D02*
G75*
G02*
X10425000Y-5000000I-20000J0D01*
G01*
X10425000Y-5000000D02*
G75*
G02*
X10465000Y-5000000I20000J0D01*
G01*
X10510000Y-4170000D02*
G75*
G02*
X10470000Y-4170000I-20000J0D01*
G01*
X10470000Y-4170000D02*
G75*
G02*
X10510000Y-4170000I20000J0D01*
G01*
X10765000Y-6545000D02*
G75*
G02*
X10725000Y-6545000I-20000J0D01*
G01*
X10725000Y-6545000D02*
G75*
G02*
X10765000Y-6545000I20000J0D01*
G01*
X11070000Y-7495000D02*
G75*
G02*
X11030000Y-7495000I-20000J0D01*
G01*
X11030000Y-7495000D02*
G75*
G02*
X11070000Y-7495000I20000J0D01*
G01*
X11111740Y-6814550D02*
G75*
G02*
X11071740Y-6814550I-20000J0D01*
G01*
X11071740Y-6814550D02*
G75*
G02*
X11111740Y-6814550I20000J0D01*
G01*
X11155000Y-3240000D02*
G75*
G02*
X11115000Y-3240000I-20000J0D01*
G01*
X11115000Y-3240000D02*
G75*
G02*
X11155000Y-3240000I20000J0D01*
G01*
X11207240Y-5353050D02*
G75*
G02*
X11167240Y-5353050I-20000J0D01*
G01*
X11167240Y-5353050D02*
G75*
G02*
X11207240Y-5353050I20000J0D01*
G01*
X11290000Y-4175000D02*
G75*
G02*
X11250000Y-4175000I-20000J0D01*
G01*
X11250000Y-4175000D02*
G75*
G02*
X11290000Y-4175000I20000J0D01*
G01*
X11290000Y-7880000D02*
G75*
G02*
X11250000Y-7880000I-20000J0D01*
G01*
X11250000Y-7880000D02*
G75*
G02*
X11290000Y-7880000I20000J0D01*
G01*
X11381480Y-6797090D02*
G75*
G02*
X11341480Y-6797090I-20000J0D01*
G01*
X11341480Y-6797090D02*
G75*
G02*
X11381480Y-6797090I20000J0D01*
G01*
X11454470Y-6564770D02*
G75*
G02*
X11414470Y-6564770I-20000J0D01*
G01*
X11414470Y-6564770D02*
G75*
G02*
X11454470Y-6564770I20000J0D01*
G01*
X11455440Y-5190000D02*
G75*
G02*
X11415440Y-5190000I-20000J0D01*
G01*
X11415440Y-5190000D02*
G75*
G02*
X11455440Y-5190000I20000J0D01*
G01*
X11509520Y-5284530D02*
G75*
G02*
X11469520Y-5284530I-20000J0D01*
G01*
X11469520Y-5284530D02*
G75*
G02*
X11509520Y-5284530I20000J0D01*
G01*
X11549570Y-6764610D02*
G75*
G02*
X11509570Y-6764610I-20000J0D01*
G01*
X11509570Y-6764610D02*
G75*
G02*
X11549570Y-6764610I20000J0D01*
G01*
X11570670Y-7029040D02*
G75*
G02*
X11530670Y-7029040I-20000J0D01*
G01*
X11530670Y-7029040D02*
G75*
G02*
X11570670Y-7029040I20000J0D01*
G01*
X11600000Y-3630000D02*
G75*
G02*
X11560000Y-3630000I-20000J0D01*
G01*
X11560000Y-3630000D02*
G75*
G02*
X11600000Y-3630000I20000J0D01*
G01*
X11640000Y-6085000D02*
G75*
G02*
X11600000Y-6085000I-20000J0D01*
G01*
X11600000Y-6085000D02*
G75*
G02*
X11640000Y-6085000I20000J0D01*
G01*
X11698710Y-5194170D02*
G75*
G02*
X11658710Y-5194170I-20000J0D01*
G01*
X11658710Y-5194170D02*
G75*
G02*
X11698710Y-5194170I20000J0D01*
G01*
X11740000Y-4560000D02*
G75*
G02*
X11700000Y-4560000I-20000J0D01*
G01*
X11700000Y-4560000D02*
G75*
G02*
X11740000Y-4560000I20000J0D01*
G01*
X12113850Y-6007700D02*
G75*
G02*
X12073850Y-6007700I-20000J0D01*
G01*
X12073850Y-6007700D02*
G75*
G02*
X12113850Y-6007700I20000J0D01*
G01*
X12210000Y-3105000D02*
G75*
G02*
X12170000Y-3105000I-20000J0D01*
G01*
X12170000Y-3105000D02*
G75*
G02*
X12210000Y-3105000I20000J0D01*
G01*
X12268030Y-6123550D02*
G75*
G02*
X12228030Y-6123550I-20000J0D01*
G01*
X12228030Y-6123550D02*
G75*
G02*
X12268030Y-6123550I20000J0D01*
G01*
X12384790Y-6154830D02*
G75*
G02*
X12344790Y-6154830I-20000J0D01*
G01*
X12344790Y-6154830D02*
G75*
G02*
X12384790Y-6154830I20000J0D01*
G01*
X12430000Y-8315000D02*
G75*
G02*
X12390000Y-8315000I-20000J0D01*
G01*
X12390000Y-8315000D02*
G75*
G02*
X12430000Y-8315000I20000J0D01*
G01*
X12610000Y-8650000D02*
G75*
G02*
X12570000Y-8650000I-20000J0D01*
G01*
X12570000Y-8650000D02*
G75*
G02*
X12610000Y-8650000I20000J0D01*
G01*
X12650000Y-4670000D02*
G75*
G02*
X12610000Y-4670000I-20000J0D01*
G01*
X12610000Y-4670000D02*
G75*
G02*
X12650000Y-4670000I20000J0D01*
G01*
X12782510Y-8106550D02*
G75*
G02*
X12742510Y-8106550I-20000J0D01*
G01*
X12742510Y-8106550D02*
G75*
G02*
X12782510Y-8106550I20000J0D01*
G01*
X12835000Y-4975000D02*
G75*
G02*
X12795000Y-4975000I-20000J0D01*
G01*
X12795000Y-4975000D02*
G75*
G02*
X12835000Y-4975000I20000J0D01*
G01*
X12839350Y-5970810D02*
G75*
G02*
X12799350Y-5970810I-20000J0D01*
G01*
X12799350Y-5970810D02*
G75*
G02*
X12839350Y-5970810I20000J0D01*
G01*
X12870000Y-6625000D02*
G75*
G02*
X12830000Y-6625000I-20000J0D01*
G01*
X12830000Y-6625000D02*
G75*
G02*
X12870000Y-6625000I20000J0D01*
G01*
X12925000Y-3900000D02*
G75*
G02*
X12885000Y-3900000I-20000J0D01*
G01*
X12885000Y-3900000D02*
G75*
G02*
X12925000Y-3900000I20000J0D01*
G01*
X12931630Y-6150810D02*
G75*
G02*
X12891630Y-6150810I-20000J0D01*
G01*
X12891630Y-6150810D02*
G75*
G02*
X12931630Y-6150810I20000J0D01*
G01*
X12932050Y-8066570D02*
G75*
G02*
X12892050Y-8066570I-20000J0D01*
G01*
X12892050Y-8066570D02*
G75*
G02*
X12932050Y-8066570I20000J0D01*
G01*
X13040000Y-7150000D02*
G75*
G02*
X13000000Y-7150000I-20000J0D01*
G01*
X13000000Y-7150000D02*
G75*
G02*
X13040000Y-7150000I20000J0D01*
G01*
X13046970Y-5955880D02*
G75*
G02*
X13006970Y-5955880I-20000J0D01*
G01*
X13006970Y-5955880D02*
G75*
G02*
X13046970Y-5955880I20000J0D01*
G01*
X13050000Y-6440000D02*
G75*
G02*
X13010000Y-6440000I-20000J0D01*
G01*
X13010000Y-6440000D02*
G75*
G02*
X13050000Y-6440000I20000J0D01*
G01*
X13105000Y-9050000D02*
G75*
G02*
X13065000Y-9050000I-20000J0D01*
G01*
X13065000Y-9050000D02*
G75*
G02*
X13105000Y-9050000I20000J0D01*
G01*
X13120000Y-7645000D02*
G75*
G02*
X13080000Y-7645000I-20000J0D01*
G01*
X13080000Y-7645000D02*
G75*
G02*
X13120000Y-7645000I20000J0D01*
G01*
X13150000Y-8145000D02*
G75*
G02*
X13110000Y-8145000I-20000J0D01*
G01*
X13110000Y-8145000D02*
G75*
G02*
X13150000Y-8145000I20000J0D01*
G01*
X13190000Y-7135000D02*
G75*
G02*
X13150000Y-7135000I-20000J0D01*
G01*
X13150000Y-7135000D02*
G75*
G02*
X13190000Y-7135000I20000J0D01*
G01*
X13310000Y-6590000D02*
G75*
G02*
X13270000Y-6590000I-20000J0D01*
G01*
X13270000Y-6590000D02*
G75*
G02*
X13310000Y-6590000I20000J0D01*
G01*
X13410470Y-9587830D02*
G75*
G02*
X13370470Y-9587830I-20000J0D01*
G01*
X13370470Y-9587830D02*
G75*
G02*
X13410470Y-9587830I20000J0D01*
G01*
X13453450Y-9805450D02*
G75*
G02*
X13413450Y-9805450I-20000J0D01*
G01*
X13413450Y-9805450D02*
G75*
G02*
X13453450Y-9805450I20000J0D01*
G01*
X13485000Y-5120000D02*
G75*
G02*
X13445000Y-5120000I-20000J0D01*
G01*
X13445000Y-5120000D02*
G75*
G02*
X13485000Y-5120000I20000J0D01*
G01*
X13545000Y-8140000D02*
G75*
G02*
X13505000Y-8140000I-20000J0D01*
G01*
X13505000Y-8140000D02*
G75*
G02*
X13545000Y-8140000I20000J0D01*
G01*
X13550000Y-6920000D02*
G75*
G02*
X13510000Y-6920000I-20000J0D01*
G01*
X13510000Y-6920000D02*
G75*
G02*
X13550000Y-6920000I20000J0D01*
G01*
X13557334Y-8244273D02*
G75*
G02*
X13517334Y-8244273I-20000J0D01*
G01*
X13517334Y-8244273D02*
G75*
G02*
X13557334Y-8244273I20000J0D01*
G01*
X13570000Y-9245000D02*
G75*
G02*
X13530000Y-9245000I-20000J0D01*
G01*
X13530000Y-9245000D02*
G75*
G02*
X13570000Y-9245000I20000J0D01*
G01*
X13616180Y-11806800D02*
G75*
G02*
X13576180Y-11806800I-20000J0D01*
G01*
X13576180Y-11806800D02*
G75*
G02*
X13616180Y-11806800I20000J0D01*
G01*
X13645000Y-8185000D02*
G75*
G02*
X13605000Y-8185000I-20000J0D01*
G01*
X13605000Y-8185000D02*
G75*
G02*
X13645000Y-8185000I20000J0D01*
G01*
X13650000Y-8440000D02*
G75*
G02*
X13610000Y-8440000I-20000J0D01*
G01*
X13610000Y-8440000D02*
G75*
G02*
X13650000Y-8440000I20000J0D01*
G01*
X13790000Y-6050000D02*
G75*
G02*
X13750000Y-6050000I-20000J0D01*
G01*
X13750000Y-6050000D02*
G75*
G02*
X13790000Y-6050000I20000J0D01*
G01*
X13806900Y-8633320D02*
G75*
G02*
X13766900Y-8633320I-20000J0D01*
G01*
X13766900Y-8633320D02*
G75*
G02*
X13806900Y-8633320I20000J0D01*
G01*
X13808087Y-7396597D02*
G75*
G02*
X13768087Y-7396597I-20000J0D01*
G01*
X13768087Y-7396597D02*
G75*
G02*
X13808087Y-7396597I20000J0D01*
G01*
X13810000Y-6620000D02*
G75*
G02*
X13770000Y-6620000I-20000J0D01*
G01*
X13770000Y-6620000D02*
G75*
G02*
X13810000Y-6620000I20000J0D01*
G01*
X13810000Y-7080000D02*
G75*
G02*
X13770000Y-7080000I-20000J0D01*
G01*
X13770000Y-7080000D02*
G75*
G02*
X13810000Y-7080000I20000J0D01*
G01*
X13880000Y-9725000D02*
G75*
G02*
X13840000Y-9725000I-20000J0D01*
G01*
X13840000Y-9725000D02*
G75*
G02*
X13880000Y-9725000I20000J0D01*
G01*
X13880000Y-10080000D02*
G75*
G02*
X13840000Y-10080000I-20000J0D01*
G01*
X13840000Y-10080000D02*
G75*
G02*
X13880000Y-10080000I20000J0D01*
G01*
X13884350Y-8313790D02*
G75*
G02*
X13844350Y-8313790I-20000J0D01*
G01*
X13844350Y-8313790D02*
G75*
G02*
X13884350Y-8313790I20000J0D01*
G01*
X13895000Y-6380000D02*
G75*
G02*
X13855000Y-6380000I-20000J0D01*
G01*
X13855000Y-6380000D02*
G75*
G02*
X13895000Y-6380000I20000J0D01*
G01*
X13898330Y-8887600D02*
G75*
G02*
X13858330Y-8887600I-20000J0D01*
G01*
X13858330Y-8887600D02*
G75*
G02*
X13898330Y-8887600I20000J0D01*
G01*
X13915000Y-9395000D02*
G75*
G02*
X13875000Y-9395000I-20000J0D01*
G01*
X13875000Y-9395000D02*
G75*
G02*
X13915000Y-9395000I20000J0D01*
G01*
X13976924Y-7313736D02*
G75*
G02*
X13936924Y-7313736I-20000J0D01*
G01*
X13936924Y-7313736D02*
G75*
G02*
X13976924Y-7313736I20000J0D01*
G01*
X13998020Y-8692130D02*
G75*
G02*
X13958020Y-8692130I-20000J0D01*
G01*
X13958020Y-8692130D02*
G75*
G02*
X13998020Y-8692130I20000J0D01*
G01*
X14005000Y-3095000D02*
G75*
G02*
X13965000Y-3095000I-20000J0D01*
G01*
X13965000Y-3095000D02*
G75*
G02*
X14005000Y-3095000I20000J0D01*
G01*
X14017097Y-7598163D02*
G75*
G02*
X13977097Y-7598163I-20000J0D01*
G01*
X13977097Y-7598163D02*
G75*
G02*
X14017097Y-7598163I20000J0D01*
G01*
X14050000Y-4060000D02*
G75*
G02*
X14010000Y-4060000I-20000J0D01*
G01*
X14010000Y-4060000D02*
G75*
G02*
X14050000Y-4060000I20000J0D01*
G01*
X14056580Y-7807160D02*
G75*
G02*
X14016580Y-7807160I-20000J0D01*
G01*
X14016580Y-7807160D02*
G75*
G02*
X14056580Y-7807160I20000J0D01*
G01*
X14070000Y-8995000D02*
G75*
G02*
X14030000Y-8995000I-20000J0D01*
G01*
X14030000Y-8995000D02*
G75*
G02*
X14070000Y-8995000I20000J0D01*
G01*
X14096727Y-9160220D02*
G75*
G02*
X14056727Y-9160220I-20000J0D01*
G01*
X14056727Y-9160220D02*
G75*
G02*
X14096727Y-9160220I20000J0D01*
G01*
X14111690Y-8266930D02*
G75*
G02*
X14071690Y-8266930I-20000J0D01*
G01*
X14071690Y-8266930D02*
G75*
G02*
X14111690Y-8266930I20000J0D01*
G01*
X14119240Y-8033770D02*
G75*
G02*
X14079240Y-8033770I-20000J0D01*
G01*
X14079240Y-8033770D02*
G75*
G02*
X14119240Y-8033770I20000J0D01*
G01*
X14119420Y-8377530D02*
G75*
G02*
X14079420Y-8377530I-20000J0D01*
G01*
X14079420Y-8377530D02*
G75*
G02*
X14119420Y-8377530I20000J0D01*
G01*
X14175000Y-5425000D02*
G75*
G02*
X14135000Y-5425000I-20000J0D01*
G01*
X14135000Y-5425000D02*
G75*
G02*
X14175000Y-5425000I20000J0D01*
G01*
X14209710Y-9237830D02*
G75*
G02*
X14169710Y-9237830I-20000J0D01*
G01*
X14169710Y-9237830D02*
G75*
G02*
X14209710Y-9237830I20000J0D01*
G01*
X14240130Y-9446840D02*
G75*
G02*
X14200130Y-9446840I-20000J0D01*
G01*
X14200130Y-9446840D02*
G75*
G02*
X14240130Y-9446840I20000J0D01*
G01*
X14285000Y-7585000D02*
G75*
G02*
X14245000Y-7585000I-20000J0D01*
G01*
X14245000Y-7585000D02*
G75*
G02*
X14285000Y-7585000I20000J0D01*
G01*
X14400000Y-9105000D02*
G75*
G02*
X14360000Y-9105000I-20000J0D01*
G01*
X14360000Y-9105000D02*
G75*
G02*
X14400000Y-9105000I20000J0D01*
G01*
X14410650Y-8780720D02*
G75*
G02*
X14370650Y-8780720I-20000J0D01*
G01*
X14370650Y-8780720D02*
G75*
G02*
X14410650Y-8780720I20000J0D01*
G01*
X14435642Y-8062449D02*
G75*
G02*
X14395642Y-8062449I-20000J0D01*
G01*
X14395642Y-8062449D02*
G75*
G02*
X14435642Y-8062449I20000J0D01*
G01*
X14440000Y-9705000D02*
G75*
G02*
X14400000Y-9705000I-20000J0D01*
G01*
X14400000Y-9705000D02*
G75*
G02*
X14440000Y-9705000I20000J0D01*
G01*
X14445690Y-5547010D02*
G75*
G02*
X14405690Y-5547010I-20000J0D01*
G01*
X14405690Y-5547010D02*
G75*
G02*
X14445690Y-5547010I20000J0D01*
G01*
X14450170Y-6699650D02*
G75*
G02*
X14410170Y-6699650I-20000J0D01*
G01*
X14410170Y-6699650D02*
G75*
G02*
X14450170Y-6699650I20000J0D01*
G01*
X14520000Y-7600000D02*
G75*
G02*
X14480000Y-7600000I-20000J0D01*
G01*
X14480000Y-7600000D02*
G75*
G02*
X14520000Y-7600000I20000J0D01*
G01*
X14538567Y-7289523D02*
G75*
G02*
X14498567Y-7289523I-20000J0D01*
G01*
X14498567Y-7289523D02*
G75*
G02*
X14538567Y-7289523I20000J0D01*
G01*
X14540466Y-8056378D02*
G75*
G02*
X14500466Y-8056378I-20000J0D01*
G01*
X14500466Y-8056378D02*
G75*
G02*
X14540466Y-8056378I20000J0D01*
G01*
X14550551Y-7450000D02*
G75*
G02*
X14510551Y-7450000I-20000J0D01*
G01*
X14510551Y-7450000D02*
G75*
G02*
X14550551Y-7450000I20000J0D01*
G01*
X14556700Y-8167620D02*
G75*
G02*
X14516700Y-8167620I-20000J0D01*
G01*
X14516700Y-8167620D02*
G75*
G02*
X14556700Y-8167620I20000J0D01*
G01*
X14562590Y-8523240D02*
G75*
G02*
X14522590Y-8523240I-20000J0D01*
G01*
X14522590Y-8523240D02*
G75*
G02*
X14562590Y-8523240I20000J0D01*
G01*
X14572000Y-7680295D02*
G75*
G02*
X14532000Y-7680295I-20000J0D01*
G01*
X14532000Y-7680295D02*
G75*
G02*
X14572000Y-7680295I20000J0D01*
G01*
X14579340Y-8322940D02*
G75*
G02*
X14539340Y-8322940I-20000J0D01*
G01*
X14539340Y-8322940D02*
G75*
G02*
X14579340Y-8322940I20000J0D01*
G01*
X14669110Y-6861690D02*
G75*
G02*
X14629110Y-6861690I-20000J0D01*
G01*
X14629110Y-6861690D02*
G75*
G02*
X14669110Y-6861690I20000J0D01*
G01*
X14669580Y-5775470D02*
G75*
G02*
X14629580Y-5775470I-20000J0D01*
G01*
X14629580Y-5775470D02*
G75*
G02*
X14669580Y-5775470I20000J0D01*
G01*
X14699820Y-7408486D02*
G75*
G02*
X14659820Y-7408486I-20000J0D01*
G01*
X14659820Y-7408486D02*
G75*
G02*
X14699820Y-7408486I20000J0D01*
G01*
X14716960Y-7950360D02*
G75*
G02*
X14676960Y-7950360I-20000J0D01*
G01*
X14676960Y-7950360D02*
G75*
G02*
X14716960Y-7950360I20000J0D01*
G01*
X14735590Y-8758760D02*
G75*
G02*
X14695590Y-8758760I-20000J0D01*
G01*
X14695590Y-8758760D02*
G75*
G02*
X14735590Y-8758760I20000J0D01*
G01*
X14740400Y-8609080D02*
G75*
G02*
X14700400Y-8609080I-20000J0D01*
G01*
X14700400Y-8609080D02*
G75*
G02*
X14740400Y-8609080I20000J0D01*
G01*
X14745000Y-10165000D02*
G75*
G02*
X14705000Y-10165000I-20000J0D01*
G01*
X14705000Y-10165000D02*
G75*
G02*
X14745000Y-10165000I20000J0D01*
G01*
X14779350Y-8446650D02*
G75*
G02*
X14739350Y-8446650I-20000J0D01*
G01*
X14739350Y-8446650D02*
G75*
G02*
X14779350Y-8446650I20000J0D01*
G01*
X14823310Y-7613970D02*
G75*
G02*
X14783310Y-7613970I-20000J0D01*
G01*
X14783310Y-7613970D02*
G75*
G02*
X14823310Y-7613970I20000J0D01*
G01*
X14825000Y-7190000D02*
G75*
G02*
X14785000Y-7190000I-20000J0D01*
G01*
X14785000Y-7190000D02*
G75*
G02*
X14825000Y-7190000I20000J0D01*
G01*
X14829670Y-8363290D02*
G75*
G02*
X14789670Y-8363290I-20000J0D01*
G01*
X14789670Y-8363290D02*
G75*
G02*
X14829670Y-8363290I20000J0D01*
G01*
X14868150Y-9543310D02*
G75*
G02*
X14828150Y-9543310I-20000J0D01*
G01*
X14828150Y-9543310D02*
G75*
G02*
X14868150Y-9543310I20000J0D01*
G01*
X14875000Y-9320000D02*
G75*
G02*
X14835000Y-9320000I-20000J0D01*
G01*
X14835000Y-9320000D02*
G75*
G02*
X14875000Y-9320000I20000J0D01*
G01*
X14918210Y-8914120D02*
G75*
G02*
X14878210Y-8914120I-20000J0D01*
G01*
X14878210Y-8914120D02*
G75*
G02*
X14918210Y-8914120I20000J0D01*
G01*
X14970000Y-7160000D02*
G75*
G02*
X14930000Y-7160000I-20000J0D01*
G01*
X14930000Y-7160000D02*
G75*
G02*
X14970000Y-7160000I20000J0D01*
G01*
X14975000Y-2385000D02*
G75*
G02*
X14935000Y-2385000I-20000J0D01*
G01*
X14935000Y-2385000D02*
G75*
G02*
X14975000Y-2385000I20000J0D01*
G01*
X15043340Y-9018530D02*
G75*
G02*
X15003340Y-9018530I-20000J0D01*
G01*
X15003340Y-9018530D02*
G75*
G02*
X15043340Y-9018530I20000J0D01*
G01*
X15121820Y-9784620D02*
G75*
G02*
X15081820Y-9784620I-20000J0D01*
G01*
X15081820Y-9784620D02*
G75*
G02*
X15121820Y-9784620I20000J0D01*
G01*
X15326080Y-6545270D02*
G75*
G02*
X15286080Y-6545270I-20000J0D01*
G01*
X15286080Y-6545270D02*
G75*
G02*
X15326080Y-6545270I20000J0D01*
G01*
X15440850Y-6555870D02*
G75*
G02*
X15400850Y-6555870I-20000J0D01*
G01*
X15400850Y-6555870D02*
G75*
G02*
X15440850Y-6555870I20000J0D01*
G01*
X15455000Y-8535000D02*
G75*
G02*
X15415000Y-8535000I-20000J0D01*
G01*
X15415000Y-8535000D02*
G75*
G02*
X15455000Y-8535000I20000J0D01*
G01*
X15457520Y-9480300D02*
G75*
G02*
X15417520Y-9480300I-20000J0D01*
G01*
X15417520Y-9480300D02*
G75*
G02*
X15457520Y-9480300I20000J0D01*
G01*
X15485020Y-9694430D02*
G75*
G02*
X15445020Y-9694430I-20000J0D01*
G01*
X15445020Y-9694430D02*
G75*
G02*
X15485020Y-9694430I20000J0D01*
G01*
X15513200Y-8072410D02*
G75*
G02*
X15473200Y-8072410I-20000J0D01*
G01*
X15473200Y-8072410D02*
G75*
G02*
X15513200Y-8072410I20000J0D01*
G01*
X15580140Y-2675320D02*
G75*
G02*
X15540140Y-2675320I-20000J0D01*
G01*
X15540140Y-2675320D02*
G75*
G02*
X15580140Y-2675320I20000J0D01*
G01*
X15605000Y-9945000D02*
G75*
G02*
X15565000Y-9945000I-20000J0D01*
G01*
X15565000Y-9945000D02*
G75*
G02*
X15605000Y-9945000I20000J0D01*
G01*
X15645230Y-6092750D02*
G75*
G02*
X15605230Y-6092750I-20000J0D01*
G01*
X15605230Y-6092750D02*
G75*
G02*
X15645230Y-6092750I20000J0D01*
G01*
X15935000Y-9115000D02*
G75*
G02*
X15895000Y-9115000I-20000J0D01*
G01*
X15895000Y-9115000D02*
G75*
G02*
X15935000Y-9115000I20000J0D01*
G01*
X15957830Y-3772370D02*
G75*
G02*
X15917830Y-3772370I-20000J0D01*
G01*
X15917830Y-3772370D02*
G75*
G02*
X15957830Y-3772370I20000J0D01*
G01*
X15996890Y-4750160D02*
G75*
G02*
X15956890Y-4750160I-20000J0D01*
G01*
X15956890Y-4750160D02*
G75*
G02*
X15996890Y-4750160I20000J0D01*
G01*
X16053720Y-4912270D02*
G75*
G02*
X16013720Y-4912270I-20000J0D01*
G01*
X16013720Y-4912270D02*
G75*
G02*
X16053720Y-4912270I20000J0D01*
G01*
X16055000Y-7450000D02*
G75*
G02*
X16015000Y-7450000I-20000J0D01*
G01*
X16015000Y-7450000D02*
G75*
G02*
X16055000Y-7450000I20000J0D01*
G01*
X16780710Y-4976600D02*
G75*
G02*
X16740710Y-4976600I-20000J0D01*
G01*
X16740710Y-4976600D02*
G75*
G02*
X16780710Y-4976600I20000J0D01*
G01*
X16792630Y-6524560D02*
G75*
G02*
X16752630Y-6524560I-20000J0D01*
G01*
X16752630Y-6524560D02*
G75*
G02*
X16792630Y-6524560I20000J0D01*
G01*
X16802360Y-4830210D02*
G75*
G02*
X16762360Y-4830210I-20000J0D01*
G01*
X16762360Y-4830210D02*
G75*
G02*
X16802360Y-4830210I20000J0D01*
G01*
X17023660Y-5380440D02*
G75*
G02*
X16983660Y-5380440I-20000J0D01*
G01*
X16983660Y-5380440D02*
G75*
G02*
X17023660Y-5380440I20000J0D01*
G01*
X17048900Y-6245630D02*
G75*
G02*
X17008900Y-6245630I-20000J0D01*
G01*
X17008900Y-6245630D02*
G75*
G02*
X17048900Y-6245630I20000J0D01*
G01*
X17075000Y-5780000D02*
G75*
G02*
X17035000Y-5780000I-20000J0D01*
G01*
X17035000Y-5780000D02*
G75*
G02*
X17075000Y-5780000I20000J0D01*
G01*
X17092350Y-3436790D02*
G75*
G02*
X17052350Y-3436790I-20000J0D01*
G01*
X17052350Y-3436790D02*
G75*
G02*
X17092350Y-3436790I20000J0D01*
G01*
X17360000Y-4825000D02*
G75*
G02*
X17320000Y-4825000I-20000J0D01*
G01*
X17320000Y-4825000D02*
G75*
G02*
X17360000Y-4825000I20000J0D01*
G01*
X17395000Y-5105000D02*
G75*
G02*
X17355000Y-5105000I-20000J0D01*
G01*
X17355000Y-5105000D02*
G75*
G02*
X17395000Y-5105000I20000J0D01*
G01*
X17628520Y-4074050D02*
G75*
G02*
X17588520Y-4074050I-20000J0D01*
G01*
X17588520Y-4074050D02*
G75*
G02*
X17628520Y-4074050I20000J0D01*
G01*
X17940000Y-4680000D02*
G75*
G02*
X17900000Y-4680000I-20000J0D01*
G01*
X17900000Y-4680000D02*
G75*
G02*
X17940000Y-4680000I20000J0D01*
G01*
X18095000Y-5965000D02*
G75*
G02*
X18055000Y-5965000I-20000J0D01*
G01*
X18055000Y-5965000D02*
G75*
G02*
X18095000Y-5965000I20000J0D01*
G01*
X18491730Y-2902850D02*
G75*
G02*
X18451730Y-2902850I-20000J0D01*
G01*
X18451730Y-2902850D02*
G75*
G02*
X18491730Y-2902850I20000J0D01*
G01*
X18950000Y-6710000D02*
G75*
G02*
X18910000Y-6710000I-20000J0D01*
G01*
X18910000Y-6710000D02*
G75*
G02*
X18950000Y-6710000I20000J0D01*
G01*
X18967780Y-7892490D02*
G75*
G02*
X18927780Y-7892490I-20000J0D01*
G01*
X18927780Y-7892490D02*
G75*
G02*
X18967780Y-7892490I20000J0D01*
G01*
X19147830Y-7982280D02*
G75*
G02*
X19107830Y-7982280I-20000J0D01*
G01*
X19107830Y-7982280D02*
G75*
G02*
X19147830Y-7982280I20000J0D01*
G01*
X19154660Y-7832920D02*
G75*
G02*
X19114660Y-7832920I-20000J0D01*
G01*
X19114660Y-7832920D02*
G75*
G02*
X19154660Y-7832920I20000J0D01*
G01*
X19155000Y-5705000D02*
G75*
G02*
X19115000Y-5705000I-20000J0D01*
G01*
X19115000Y-5705000D02*
G75*
G02*
X19155000Y-5705000I20000J0D01*
G01*
X19343380Y-9238510D02*
G75*
G02*
X19303380Y-9238510I-20000J0D01*
G01*
X19303380Y-9238510D02*
G75*
G02*
X19343380Y-9238510I20000J0D01*
G01*
X19358250Y-3004640D02*
G75*
G02*
X19318250Y-3004640I-20000J0D01*
G01*
X19318250Y-3004640D02*
G75*
G02*
X19358250Y-3004640I20000J0D01*
G01*
X19400000Y-6680000D02*
G75*
G02*
X19360000Y-6680000I-20000J0D01*
G01*
X19360000Y-6680000D02*
G75*
G02*
X19400000Y-6680000I20000J0D01*
G01*
X19423220Y-7731490D02*
G75*
G02*
X19383220Y-7731490I-20000J0D01*
G01*
X19383220Y-7731490D02*
G75*
G02*
X19423220Y-7731490I20000J0D01*
G01*
X19435000Y-7230000D02*
G75*
G02*
X19395000Y-7230000I-20000J0D01*
G01*
X19395000Y-7230000D02*
G75*
G02*
X19435000Y-7230000I20000J0D01*
G01*
X19512220Y-8303290D02*
G75*
G02*
X19472220Y-8303290I-20000J0D01*
G01*
X19472220Y-8303290D02*
G75*
G02*
X19512220Y-8303290I20000J0D01*
G01*
X19650000Y-6220000D02*
G75*
G02*
X19610000Y-6220000I-20000J0D01*
G01*
X19610000Y-6220000D02*
G75*
G02*
X19650000Y-6220000I20000J0D01*
G01*
X19666320Y-8926050D02*
G75*
G02*
X19626320Y-8926050I-20000J0D01*
G01*
X19626320Y-8926050D02*
G75*
G02*
X19666320Y-8926050I20000J0D01*
G01*
X19764450Y-7922320D02*
G75*
G02*
X19724450Y-7922320I-20000J0D01*
G01*
X19724450Y-7922320D02*
G75*
G02*
X19764450Y-7922320I20000J0D01*
G01*
X19785000Y-7040000D02*
G75*
G02*
X19745000Y-7040000I-20000J0D01*
G01*
X19745000Y-7040000D02*
G75*
G02*
X19785000Y-7040000I20000J0D01*
G01*
X19940000Y-5580000D02*
G75*
G02*
X19900000Y-5580000I-20000J0D01*
G01*
X19900000Y-5580000D02*
G75*
G02*
X19940000Y-5580000I20000J0D01*
G01*
X19958060Y-8910530D02*
G75*
G02*
X19918060Y-8910530I-20000J0D01*
G01*
X19918060Y-8910530D02*
G75*
G02*
X19958060Y-8910530I20000J0D01*
G01*
X20005000Y-6605000D02*
G75*
G02*
X19965000Y-6605000I-20000J0D01*
G01*
X19965000Y-6605000D02*
G75*
G02*
X20005000Y-6605000I20000J0D01*
G01*
X20105000Y-7740000D02*
G75*
G02*
X20065000Y-7740000I-20000J0D01*
G01*
X20065000Y-7740000D02*
G75*
G02*
X20105000Y-7740000I20000J0D01*
G01*
X20121530Y-7904480D02*
G75*
G02*
X20081530Y-7904480I-20000J0D01*
G01*
X20081530Y-7904480D02*
G75*
G02*
X20121530Y-7904480I20000J0D01*
G01*
X20143540Y-7142440D02*
G75*
G02*
X20103540Y-7142440I-20000J0D01*
G01*
X20103540Y-7142440D02*
G75*
G02*
X20143540Y-7142440I20000J0D01*
G01*
X20216640Y-7597360D02*
G75*
G02*
X20176640Y-7597360I-20000J0D01*
G01*
X20176640Y-7597360D02*
G75*
G02*
X20216640Y-7597360I20000J0D01*
G01*
X20275000Y-9285000D02*
G75*
G02*
X20235000Y-9285000I-20000J0D01*
G01*
X20235000Y-9285000D02*
G75*
G02*
X20275000Y-9285000I20000J0D01*
G01*
X20370000Y-7845000D02*
G75*
G02*
X20330000Y-7845000I-20000J0D01*
G01*
X20330000Y-7845000D02*
G75*
G02*
X20370000Y-7845000I20000J0D01*
G01*
X20425000Y-6180000D02*
G75*
G02*
X20385000Y-6180000I-20000J0D01*
G01*
X20385000Y-6180000D02*
G75*
G02*
X20425000Y-6180000I20000J0D01*
G01*
X20674640Y-7467630D02*
G75*
G02*
X20634640Y-7467630I-20000J0D01*
G01*
X20634640Y-7467630D02*
G75*
G02*
X20674640Y-7467630I20000J0D01*
G01*
X20755340Y-8882180D02*
G75*
G02*
X20715340Y-8882180I-20000J0D01*
G01*
X20715340Y-8882180D02*
G75*
G02*
X20755340Y-8882180I20000J0D01*
G01*
X20765000Y-6620000D02*
G75*
G02*
X20725000Y-6620000I-20000J0D01*
G01*
X20725000Y-6620000D02*
G75*
G02*
X20765000Y-6620000I20000J0D01*
G01*
X20782960Y-8324720D02*
G75*
G02*
X20742960Y-8324720I-20000J0D01*
G01*
X20742960Y-8324720D02*
G75*
G02*
X20782960Y-8324720I20000J0D01*
G01*
X20815000Y-7565000D02*
G75*
G02*
X20775000Y-7565000I-20000J0D01*
G01*
X20775000Y-7565000D02*
G75*
G02*
X20815000Y-7565000I20000J0D01*
G01*
X20849860Y-4512180D02*
G75*
G02*
X20809860Y-4512180I-20000J0D01*
G01*
X20809860Y-4512180D02*
G75*
G02*
X20849860Y-4512180I20000J0D01*
G01*
X20948080Y-8243910D02*
G75*
G02*
X20908080Y-8243910I-20000J0D01*
G01*
X20908080Y-8243910D02*
G75*
G02*
X20948080Y-8243910I20000J0D01*
G01*
X20980000Y-10555000D02*
G75*
G02*
X20940000Y-10555000I-20000J0D01*
G01*
X20940000Y-10555000D02*
G75*
G02*
X20980000Y-10555000I20000J0D01*
G01*
X20995000Y-5785000D02*
G75*
G02*
X20955000Y-5785000I-20000J0D01*
G01*
X20955000Y-5785000D02*
G75*
G02*
X20995000Y-5785000I20000J0D01*
G01*
X21072810Y-7598770D02*
G75*
G02*
X21032810Y-7598770I-20000J0D01*
G01*
X21032810Y-7598770D02*
G75*
G02*
X21072810Y-7598770I20000J0D01*
G01*
X21120680Y-7718390D02*
G75*
G02*
X21080680Y-7718390I-20000J0D01*
G01*
X21080680Y-7718390D02*
G75*
G02*
X21120680Y-7718390I20000J0D01*
G01*
X21447196Y-7649925D02*
G75*
G02*
X21407196Y-7649925I-20000J0D01*
G01*
X21407196Y-7649925D02*
G75*
G02*
X21447196Y-7649925I20000J0D01*
G01*
X21476550Y-7880000D02*
G75*
G02*
X21436550Y-7880000I-20000J0D01*
G01*
X21436550Y-7880000D02*
G75*
G02*
X21476550Y-7880000I20000J0D01*
G01*
X21483800Y-4379640D02*
G75*
G02*
X21443800Y-4379640I-20000J0D01*
G01*
X21443800Y-4379640D02*
G75*
G02*
X21483800Y-4379640I20000J0D01*
G01*
X21534630Y-4181410D02*
G75*
G02*
X21494630Y-4181410I-20000J0D01*
G01*
X21494630Y-4181410D02*
G75*
G02*
X21534630Y-4181410I20000J0D01*
G01*
X21536680Y-9244910D02*
G75*
G02*
X21496680Y-9244910I-20000J0D01*
G01*
X21496680Y-9244910D02*
G75*
G02*
X21536680Y-9244910I20000J0D01*
G01*
X21543265Y-7961081D02*
G75*
G02*
X21503265Y-7961081I-20000J0D01*
G01*
X21503265Y-7961081D02*
G75*
G02*
X21543265Y-7961081I20000J0D01*
G01*
X21553070Y-5598360D02*
G75*
G02*
X21513070Y-5598360I-20000J0D01*
G01*
X21513070Y-5598360D02*
G75*
G02*
X21553070Y-5598360I20000J0D01*
G01*
X21585380Y-7721399D02*
G75*
G02*
X21545380Y-7721399I-20000J0D01*
G01*
X21545380Y-7721399D02*
G75*
G02*
X21585380Y-7721399I20000J0D01*
G01*
X21638160Y-5182680D02*
G75*
G02*
X21598160Y-5182680I-20000J0D01*
G01*
X21598160Y-5182680D02*
G75*
G02*
X21638160Y-5182680I20000J0D01*
G01*
X21655000Y-7800000D02*
G75*
G02*
X21615000Y-7800000I-20000J0D01*
G01*
X21615000Y-7800000D02*
G75*
G02*
X21655000Y-7800000I20000J0D01*
G01*
X21761800Y-5323510D02*
G75*
G02*
X21721800Y-5323510I-20000J0D01*
G01*
X21721800Y-5323510D02*
G75*
G02*
X21761800Y-5323510I20000J0D01*
G01*
X21776770Y-7363340D02*
G75*
G02*
X21736770Y-7363340I-20000J0D01*
G01*
X21736770Y-7363340D02*
G75*
G02*
X21776770Y-7363340I20000J0D01*
G01*
X21831310Y-5158210D02*
G75*
G02*
X21791310Y-5158210I-20000J0D01*
G01*
X21791310Y-5158210D02*
G75*
G02*
X21831310Y-5158210I20000J0D01*
G01*
X21835000Y-7715000D02*
G75*
G02*
X21795000Y-7715000I-20000J0D01*
G01*
X21795000Y-7715000D02*
G75*
G02*
X21835000Y-7715000I20000J0D01*
G01*
X21840000Y-4580000D02*
G75*
G02*
X21800000Y-4580000I-20000J0D01*
G01*
X21800000Y-4580000D02*
G75*
G02*
X21840000Y-4580000I20000J0D01*
G01*
X21866810Y-9299010D02*
G75*
G02*
X21826810Y-9299010I-20000J0D01*
G01*
X21826810Y-9299010D02*
G75*
G02*
X21866810Y-9299010I20000J0D01*
G01*
X21900000Y-6940000D02*
G75*
G02*
X21860000Y-6940000I-20000J0D01*
G01*
X21860000Y-6940000D02*
G75*
G02*
X21900000Y-6940000I20000J0D01*
G01*
X21911390Y-5332440D02*
G75*
G02*
X21871390Y-5332440I-20000J0D01*
G01*
X21871390Y-5332440D02*
G75*
G02*
X21911390Y-5332440I20000J0D01*
G01*
X21923450Y-4769860D02*
G75*
G02*
X21883450Y-4769860I-20000J0D01*
G01*
X21883450Y-4769860D02*
G75*
G02*
X21923450Y-4769860I20000J0D01*
G01*
X21935910Y-7902190D02*
G75*
G02*
X21895910Y-7902190I-20000J0D01*
G01*
X21895910Y-7902190D02*
G75*
G02*
X21935910Y-7902190I20000J0D01*
G01*
X21936460Y-7396860D02*
G75*
G02*
X21896460Y-7396860I-20000J0D01*
G01*
X21896460Y-7396860D02*
G75*
G02*
X21936460Y-7396860I20000J0D01*
G01*
X22010000Y-5795000D02*
G75*
G02*
X21970000Y-5795000I-20000J0D01*
G01*
X21970000Y-5795000D02*
G75*
G02*
X22010000Y-5795000I20000J0D01*
G01*
X22115000Y-4455000D02*
G75*
G02*
X22075000Y-4455000I-20000J0D01*
G01*
X22075000Y-4455000D02*
G75*
G02*
X22115000Y-4455000I20000J0D01*
G01*
X22153940Y-7959820D02*
G75*
G02*
X22113940Y-7959820I-20000J0D01*
G01*
X22113940Y-7959820D02*
G75*
G02*
X22153940Y-7959820I20000J0D01*
G01*
X22230000Y-6685000D02*
G75*
G02*
X22190000Y-6685000I-20000J0D01*
G01*
X22190000Y-6685000D02*
G75*
G02*
X22230000Y-6685000I20000J0D01*
G01*
X22245000Y-6930000D02*
G75*
G02*
X22205000Y-6930000I-20000J0D01*
G01*
X22205000Y-6930000D02*
G75*
G02*
X22245000Y-6930000I20000J0D01*
G01*
X22260000Y-7655000D02*
G75*
G02*
X22220000Y-7655000I-20000J0D01*
G01*
X22220000Y-7655000D02*
G75*
G02*
X22260000Y-7655000I20000J0D01*
G01*
X22303530Y-5414490D02*
G75*
G02*
X22263530Y-5414490I-20000J0D01*
G01*
X22263530Y-5414490D02*
G75*
G02*
X22303530Y-5414490I20000J0D01*
G01*
X22365680Y-5171010D02*
G75*
G02*
X22325680Y-5171010I-20000J0D01*
G01*
X22325680Y-5171010D02*
G75*
G02*
X22365680Y-5171010I20000J0D01*
G01*
X22405000Y-4340000D02*
G75*
G02*
X22365000Y-4340000I-20000J0D01*
G01*
X22365000Y-4340000D02*
G75*
G02*
X22405000Y-4340000I20000J0D01*
G01*
X22425000Y-4675000D02*
G75*
G02*
X22385000Y-4675000I-20000J0D01*
G01*
X22385000Y-4675000D02*
G75*
G02*
X22425000Y-4675000I20000J0D01*
G01*
X22464220Y-5304180D02*
G75*
G02*
X22424220Y-5304180I-20000J0D01*
G01*
X22424220Y-5304180D02*
G75*
G02*
X22464220Y-5304180I20000J0D01*
G01*
X22507500Y-5152660D02*
G75*
G02*
X22467500Y-5152660I-20000J0D01*
G01*
X22467500Y-5152660D02*
G75*
G02*
X22507500Y-5152660I20000J0D01*
G01*
X22515030Y-4986760D02*
G75*
G02*
X22475030Y-4986760I-20000J0D01*
G01*
X22475030Y-4986760D02*
G75*
G02*
X22515030Y-4986760I20000J0D01*
G01*
X22635740Y-8865680D02*
G75*
G02*
X22595740Y-8865680I-20000J0D01*
G01*
X22595740Y-8865680D02*
G75*
G02*
X22635740Y-8865680I20000J0D01*
G01*
X22765000Y-6205000D02*
G75*
G02*
X22725000Y-6205000I-20000J0D01*
G01*
X22725000Y-6205000D02*
G75*
G02*
X22765000Y-6205000I20000J0D01*
G01*
X22801420Y-5027740D02*
G75*
G02*
X22761420Y-5027740I-20000J0D01*
G01*
X22761420Y-5027740D02*
G75*
G02*
X22801420Y-5027740I20000J0D01*
G01*
X22883200Y-8931590D02*
G75*
G02*
X22843200Y-8931590I-20000J0D01*
G01*
X22843200Y-8931590D02*
G75*
G02*
X22883200Y-8931590I20000J0D01*
G01*
X22892970Y-4787270D02*
G75*
G02*
X22852970Y-4787270I-20000J0D01*
G01*
X22852970Y-4787270D02*
G75*
G02*
X22892970Y-4787270I20000J0D01*
G01*
X23000600Y-7246230D02*
G75*
G02*
X22960600Y-7246230I-20000J0D01*
G01*
X22960600Y-7246230D02*
G75*
G02*
X23000600Y-7246230I20000J0D01*
G01*
X23370550Y-8451240D02*
G75*
G02*
X23330550Y-8451240I-20000J0D01*
G01*
X23330550Y-8451240D02*
G75*
G02*
X23370550Y-8451240I20000J0D01*
G01*
X23449360Y-6503120D02*
G75*
G02*
X23409360Y-6503120I-20000J0D01*
G01*
X23409360Y-6503120D02*
G75*
G02*
X23449360Y-6503120I20000J0D01*
G01*
X23477890Y-7392170D02*
G75*
G02*
X23437890Y-7392170I-20000J0D01*
G01*
X23437890Y-7392170D02*
G75*
G02*
X23477890Y-7392170I20000J0D01*
G01*
X23575000Y-5655000D02*
G75*
G02*
X23535000Y-5655000I-20000J0D01*
G01*
X23535000Y-5655000D02*
G75*
G02*
X23575000Y-5655000I20000J0D01*
G01*
X23598800Y-8227370D02*
G75*
G02*
X23558800Y-8227370I-20000J0D01*
G01*
X23558800Y-8227370D02*
G75*
G02*
X23598800Y-8227370I20000J0D01*
G01*
X23699190Y-6675430D02*
G75*
G02*
X23659190Y-6675430I-20000J0D01*
G01*
X23659190Y-6675430D02*
G75*
G02*
X23699190Y-6675430I20000J0D01*
G01*
X23955060Y-6100130D02*
G75*
G02*
X23915060Y-6100130I-20000J0D01*
G01*
X23915060Y-6100130D02*
G75*
G02*
X23955060Y-6100130I20000J0D01*
G01*
X24152930Y-9019190D02*
G75*
G02*
X24112930Y-9019190I-20000J0D01*
G01*
X24112930Y-9019190D02*
G75*
G02*
X24152930Y-9019190I20000J0D01*
G01*
X24470000Y-5490000D02*
G75*
G02*
X24430000Y-5490000I-20000J0D01*
G01*
X24430000Y-5490000D02*
G75*
G02*
X24470000Y-5490000I20000J0D01*
G01*
X24492400Y-8774120D02*
G75*
G02*
X24452400Y-8774120I-20000J0D01*
G01*
X24452400Y-8774120D02*
G75*
G02*
X24492400Y-8774120I20000J0D01*
G01*
X24820000Y-6540000D02*
G75*
G02*
X24780000Y-6540000I-20000J0D01*
G01*
X24780000Y-6540000D02*
G75*
G02*
X24820000Y-6540000I20000J0D01*
G01*
X25193660Y-5191060D02*
G75*
G02*
X25153660Y-5191060I-20000J0D01*
G01*
X25153660Y-5191060D02*
G75*
G02*
X25193660Y-5191060I20000J0D01*
G01*
X25640000Y-5865000D02*
G75*
G02*
X25600000Y-5865000I-20000J0D01*
G01*
X25600000Y-5865000D02*
G75*
G02*
X25640000Y-5865000I20000J0D01*
G01*
X25715000Y-6940000D02*
G75*
G02*
X25675000Y-6940000I-20000J0D01*
G01*
X25675000Y-6940000D02*
G75*
G02*
X25715000Y-6940000I20000J0D01*
G01*
X25820000Y-6235000D02*
G75*
G02*
X25780000Y-6235000I-20000J0D01*
G01*
X25780000Y-6235000D02*
G75*
G02*
X25820000Y-6235000I20000J0D01*
G01*
X25855000Y-5405000D02*
G75*
G02*
X25815000Y-5405000I-20000J0D01*
G01*
X25815000Y-5405000D02*
G75*
G02*
X25855000Y-5405000I20000J0D01*
G01*
X26020000Y-6655000D02*
G75*
G02*
X25980000Y-6655000I-20000J0D01*
G01*
X25980000Y-6655000D02*
G75*
G02*
X26020000Y-6655000I20000J0D01*
G01*
X26790000Y-6200000D02*
G75*
G02*
X26750000Y-6200000I-20000J0D01*
G01*
X26750000Y-6200000D02*
G75*
G02*
X26790000Y-6200000I20000J0D01*
G01*
X13865000Y-11334000D02*
X13865000Y-11374000D01*
X13845000Y-11354000D02*
X13885000Y-11354000D01*
X13865000Y-11469000D02*
X13865000Y-11509000D01*
X13845000Y-11489000D02*
X13885000Y-11489000D01*
X13950000Y-11334000D02*
X13950000Y-11374000D01*
X13930000Y-11354000D02*
X13970000Y-11354000D01*
X13950000Y-11469000D02*
X13950000Y-11509000D01*
X13930000Y-11489000D02*
X13970000Y-11489000D01*
X14035000Y-11334000D02*
X14035000Y-11374000D01*
X14015000Y-11354000D02*
X14055000Y-11354000D01*
X14035000Y-11469000D02*
X14035000Y-11509000D01*
X14015000Y-11489000D02*
X14055000Y-11489000D01*
X14120000Y-11334000D02*
X14120000Y-11374000D01*
X14100000Y-11354000D02*
X14140000Y-11354000D01*
X14120000Y-11469000D02*
X14120000Y-11509000D01*
X14100000Y-11489000D02*
X14140000Y-11489000D01*
X14205000Y-11334000D02*
X14205000Y-11374000D01*
X14185000Y-11354000D02*
X14225000Y-11354000D01*
X14205000Y-11469000D02*
X14205000Y-11509000D01*
X14185000Y-11489000D02*
X14225000Y-11489000D01*
X14290000Y-11334000D02*
X14290000Y-11374000D01*
X14270000Y-11354000D02*
X14310000Y-11354000D01*
X14290000Y-11469000D02*
X14290000Y-11509000D01*
X14270000Y-11489000D02*
X14310000Y-11489000D01*
X14375000Y-11334000D02*
X14375000Y-11374000D01*
X14355000Y-11354000D02*
X14395000Y-11354000D01*
X14375000Y-11469000D02*
X14375000Y-11509000D01*
X14355000Y-11489000D02*
X14395000Y-11489000D01*
X14460000Y-11334000D02*
X14460000Y-11374000D01*
X14440000Y-11354000D02*
X14480000Y-11354000D01*
X14460000Y-11469000D02*
X14460000Y-11509000D01*
X14440000Y-11489000D02*
X14480000Y-11489000D01*
X13751213Y-11473213D02*
X13751213Y-11430787D01*
X13708787Y-11430787D01*
X13708787Y-11473213D01*
X13751213Y-11473213D01*
X13700000Y-11377000D02*
X13700000Y-11527000D01*
X13760000Y-11527000D02*
G75*
G02*
X13700000Y-11527000I-30000J0D01*
G01*
X13760000Y-11527000D02*
X13760000Y-11377000D01*
X13760000Y-11377000D02*
G75*
G03*
X13700000Y-11377000I-30000J0D01*
G01*
X13751213Y-11811213D02*
X13751213Y-11768787D01*
X13708787Y-11768787D01*
X13708787Y-11811213D01*
X13751213Y-11811213D01*
X13700000Y-11750000D02*
X13700000Y-11830000D01*
X13760000Y-11830000D02*
G75*
G02*
X13700000Y-11830000I-30000J0D01*
G01*
X13760000Y-11830000D02*
X13760000Y-11750000D01*
X13760000Y-11750000D02*
G75*
G03*
X13700000Y-11750000I-30000J0D01*
G01*
X14616213Y-11473213D02*
X14616213Y-11430787D01*
X14573787Y-11430787D01*
X14573787Y-11473213D01*
X14616213Y-11473213D01*
X14565000Y-11377000D02*
X14565000Y-11527000D01*
X14625000Y-11527000D02*
G75*
G02*
X14565000Y-11527000I-30000J0D01*
G01*
X14625000Y-11527000D02*
X14625000Y-11377000D01*
X14625000Y-11377000D02*
G75*
G03*
X14565000Y-11377000I-30000J0D01*
G01*
X14616213Y-11811213D02*
X14616213Y-11768787D01*
X14573787Y-11768787D01*
X14573787Y-11811213D01*
X14616213Y-11811213D01*
X14565000Y-11750000D02*
X14565000Y-11830000D01*
X14625000Y-11830000D02*
G75*
G02*
X14565000Y-11830000I-30000J0D01*
G01*
X14625000Y-11830000D02*
X14625000Y-11750000D01*
X14625000Y-11750000D02*
G75*
G03*
X14565000Y-11750000I-30000J0D01*
G01*
X2635000Y-5185000D02*
X2685000Y-5135000D01*
X2635000Y-5085000D01*
X2585000Y-5135000D01*
X2635000Y-5185000D01*
X2635000Y-5439000D02*
X2685000Y-5389000D01*
X2635000Y-5339000D01*
X2585000Y-5389000D01*
X2635000Y-5439000D01*
X2635000Y-5693000D02*
X2685000Y-5643000D01*
X2635000Y-5593000D01*
X2585000Y-5643000D01*
X2635000Y-5693000D01*
X2635000Y-5947000D02*
X2685000Y-5897000D01*
X2635000Y-5847000D01*
X2585000Y-5897000D01*
X2635000Y-5947000D01*
X2635000Y-6201000D02*
X2685000Y-6151000D01*
X2635000Y-6101000D01*
X2585000Y-6151000D01*
X2635000Y-6201000D01*
X2635000Y-6455000D02*
X2685000Y-6405000D01*
X2635000Y-6355000D01*
X2585000Y-6405000D01*
X2635000Y-6455000D01*
X2635000Y-6935000D02*
X2685000Y-6885000D01*
X2635000Y-6835000D01*
X2585000Y-6885000D01*
X2635000Y-6935000D01*
X2635000Y-7189000D02*
X2685000Y-7139000D01*
X2635000Y-7089000D01*
X2585000Y-7139000D01*
X2635000Y-7189000D01*
X2635000Y-7443000D02*
X2685000Y-7393000D01*
X2635000Y-7343000D01*
X2585000Y-7393000D01*
X2635000Y-7443000D01*
X2635000Y-7697000D02*
X2685000Y-7647000D01*
X2635000Y-7597000D01*
X2585000Y-7647000D01*
X2635000Y-7697000D01*
X2635000Y-8190000D02*
X2685000Y-8140000D01*
X2635000Y-8090000D01*
X2585000Y-8140000D01*
X2635000Y-8190000D01*
X2635000Y-8444000D02*
X2685000Y-8394000D01*
X2635000Y-8344000D01*
X2585000Y-8394000D01*
X2635000Y-8444000D01*
X2635000Y-8698000D02*
X2685000Y-8648000D01*
X2635000Y-8598000D01*
X2585000Y-8648000D01*
X2635000Y-8698000D01*
X2635000Y-9187000D02*
X2685000Y-9137000D01*
X2635000Y-9087000D01*
X2585000Y-9137000D01*
X2635000Y-9187000D01*
X2635000Y-9441000D02*
X2685000Y-9391000D01*
X2635000Y-9341000D01*
X2585000Y-9391000D01*
X2635000Y-9441000D01*
X2635000Y-9935000D02*
X2685000Y-9885000D01*
X2635000Y-9835000D01*
X2585000Y-9885000D01*
X2635000Y-9935000D01*
X2635000Y-10189000D02*
X2685000Y-10139000D01*
X2635000Y-10089000D01*
X2585000Y-10139000D01*
X2635000Y-10189000D01*
X2640000Y-3190000D02*
X2690000Y-3140000D01*
X2640000Y-3090000D01*
X2590000Y-3140000D01*
X2640000Y-3190000D01*
X2640000Y-3444000D02*
X2690000Y-3394000D01*
X2640000Y-3344000D01*
X2590000Y-3394000D01*
X2640000Y-3444000D01*
X2640000Y-3698000D02*
X2690000Y-3648000D01*
X2640000Y-3598000D01*
X2590000Y-3648000D01*
X2640000Y-3698000D01*
X2640000Y-3952000D02*
X2690000Y-3902000D01*
X2640000Y-3852000D01*
X2590000Y-3902000D01*
X2640000Y-3952000D01*
X2640000Y-4206000D02*
X2690000Y-4156000D01*
X2640000Y-4106000D01*
X2590000Y-4156000D01*
X2640000Y-4206000D01*
X2640000Y-4460000D02*
X2690000Y-4410000D01*
X2640000Y-4360000D01*
X2590000Y-4410000D01*
X2640000Y-4460000D01*
X2640000Y-4714000D02*
X2690000Y-4664000D01*
X2640000Y-4614000D01*
X2590000Y-4664000D01*
X2640000Y-4714000D01*
X3640000Y-3190000D02*
X3690000Y-3140000D01*
X3640000Y-3090000D01*
X3590000Y-3140000D01*
X3640000Y-3190000D01*
X3640000Y-3444000D02*
X3690000Y-3394000D01*
X3640000Y-3344000D01*
X3590000Y-3394000D01*
X3640000Y-3444000D01*
X3640000Y-3698000D02*
X3690000Y-3648000D01*
X3640000Y-3598000D01*
X3590000Y-3648000D01*
X3640000Y-3698000D01*
X3640000Y-4190000D02*
X3690000Y-4140000D01*
X3640000Y-4090000D01*
X3590000Y-4140000D01*
X3640000Y-4190000D01*
X3640000Y-4444000D02*
X3690000Y-4394000D01*
X3640000Y-4344000D01*
X3590000Y-4394000D01*
X3640000Y-4444000D01*
X3640000Y-4698000D02*
X3690000Y-4648000D01*
X3640000Y-4598000D01*
X3590000Y-4648000D01*
X3640000Y-4698000D01*
X3640000Y-5190000D02*
X3690000Y-5140000D01*
X3640000Y-5090000D01*
X3590000Y-5140000D01*
X3640000Y-5190000D01*
X3640000Y-5444000D02*
X3690000Y-5394000D01*
X3640000Y-5344000D01*
X3590000Y-5394000D01*
X3640000Y-5444000D01*
X3640000Y-5698000D02*
X3690000Y-5648000D01*
X3640000Y-5598000D01*
X3590000Y-5648000D01*
X3640000Y-5698000D01*
X3640000Y-6190000D02*
X3690000Y-6140000D01*
X3640000Y-6090000D01*
X3590000Y-6140000D01*
X3640000Y-6190000D01*
X3640000Y-6444000D02*
X3690000Y-6394000D01*
X3640000Y-6344000D01*
X3590000Y-6394000D01*
X3640000Y-6444000D01*
X3640000Y-6698000D02*
X3690000Y-6648000D01*
X3640000Y-6598000D01*
X3590000Y-6648000D01*
X3640000Y-6698000D01*
X3640000Y-7190000D02*
X3690000Y-7140000D01*
X3640000Y-7090000D01*
X3590000Y-7140000D01*
X3640000Y-7190000D01*
X3640000Y-7444000D02*
X3690000Y-7394000D01*
X3640000Y-7344000D01*
X3590000Y-7394000D01*
X3640000Y-7444000D01*
X3640000Y-7698000D02*
X3690000Y-7648000D01*
X3640000Y-7598000D01*
X3590000Y-7648000D01*
X3640000Y-7698000D01*
X3640000Y-8190000D02*
X3690000Y-8140000D01*
X3640000Y-8090000D01*
X3590000Y-8140000D01*
X3640000Y-8190000D01*
X3640000Y-8444000D02*
X3690000Y-8394000D01*
X3640000Y-8344000D01*
X3590000Y-8394000D01*
X3640000Y-8444000D01*
X3640000Y-8698000D02*
X3690000Y-8648000D01*
X3640000Y-8598000D01*
X3590000Y-8648000D01*
X3640000Y-8698000D01*
X3640000Y-9190000D02*
X3690000Y-9140000D01*
X3640000Y-9090000D01*
X3590000Y-9140000D01*
X3640000Y-9190000D01*
X3640000Y-9444000D02*
X3690000Y-9394000D01*
X3640000Y-9344000D01*
X3590000Y-9394000D01*
X3640000Y-9444000D01*
X3640000Y-9698000D02*
X3690000Y-9648000D01*
X3640000Y-9598000D01*
X3590000Y-9648000D01*
X3640000Y-9698000D01*
X3640000Y-10190000D02*
X3690000Y-10140000D01*
X3640000Y-10090000D01*
X3590000Y-10140000D01*
X3640000Y-10190000D01*
X3640000Y-10444000D02*
X3690000Y-10394000D01*
X3640000Y-10344000D01*
X3590000Y-10394000D01*
X3640000Y-10444000D01*
X3640000Y-10698000D02*
X3690000Y-10648000D01*
X3640000Y-10598000D01*
X3590000Y-10648000D01*
X3640000Y-10698000D01*
X4540000Y-9190000D02*
X4590000Y-9140000D01*
X4540000Y-9090000D01*
X4490000Y-9140000D01*
X4540000Y-9190000D01*
X4540000Y-9444000D02*
X4590000Y-9394000D01*
X4540000Y-9344000D01*
X4490000Y-9394000D01*
X4540000Y-9444000D01*
X4540000Y-9698000D02*
X4590000Y-9648000D01*
X4540000Y-9598000D01*
X4490000Y-9648000D01*
X4540000Y-9698000D01*
X4540000Y-10190000D02*
X4590000Y-10140000D01*
X4540000Y-10090000D01*
X4490000Y-10140000D01*
X4540000Y-10190000D01*
X4540000Y-10444000D02*
X4590000Y-10394000D01*
X4540000Y-10344000D01*
X4490000Y-10394000D01*
X4540000Y-10444000D01*
X4540000Y-10698000D02*
X4590000Y-10648000D01*
X4540000Y-10598000D01*
X4490000Y-10648000D01*
X4540000Y-10698000D01*
X4640000Y-2560000D02*
X4690000Y-2510000D01*
X4640000Y-2460000D01*
X4590000Y-2510000D01*
X4640000Y-2560000D01*
X4894000Y-2560000D02*
X4944000Y-2510000D01*
X4894000Y-2460000D01*
X4844000Y-2510000D01*
X4894000Y-2560000D01*
X5148000Y-2560000D02*
X5198000Y-2510000D01*
X5148000Y-2460000D01*
X5098000Y-2510000D01*
X5148000Y-2560000D01*
X5890000Y-2560000D02*
X5940000Y-2510000D01*
X5890000Y-2460000D01*
X5840000Y-2510000D01*
X5890000Y-2560000D01*
X6144000Y-2560000D02*
X6194000Y-2510000D01*
X6144000Y-2460000D01*
X6094000Y-2510000D01*
X6144000Y-2560000D01*
X6885000Y-3610000D02*
X6935000Y-3560000D01*
X6885000Y-3510000D01*
X6835000Y-3560000D01*
X6885000Y-3610000D01*
X6890000Y-2560000D02*
X6940000Y-2510000D01*
X6890000Y-2460000D01*
X6840000Y-2510000D01*
X6890000Y-2560000D01*
X6890000Y-4910000D02*
X6940000Y-4860000D01*
X6890000Y-4810000D01*
X6840000Y-4860000D01*
X6890000Y-4910000D01*
X7139000Y-3610000D02*
X7189000Y-3560000D01*
X7139000Y-3510000D01*
X7089000Y-3560000D01*
X7139000Y-3610000D01*
X7144000Y-2560000D02*
X7194000Y-2510000D01*
X7144000Y-2460000D01*
X7094000Y-2510000D01*
X7144000Y-2560000D01*
X7144000Y-4910000D02*
X7194000Y-4860000D01*
X7144000Y-4810000D01*
X7094000Y-4860000D01*
X7144000Y-4910000D01*
X7398000Y-2560000D02*
X7448000Y-2510000D01*
X7398000Y-2460000D01*
X7348000Y-2510000D01*
X7398000Y-2560000D01*
X7785000Y-3610000D02*
X7835000Y-3560000D01*
X7785000Y-3510000D01*
X7735000Y-3560000D01*
X7785000Y-3610000D01*
X7790000Y-4910000D02*
X7840000Y-4860000D01*
X7790000Y-4810000D01*
X7740000Y-4860000D01*
X7790000Y-4910000D01*
X8039000Y-3610000D02*
X8089000Y-3560000D01*
X8039000Y-3510000D01*
X7989000Y-3560000D01*
X8039000Y-3610000D01*
X8044000Y-4910000D02*
X8094000Y-4860000D01*
X8044000Y-4810000D01*
X7994000Y-4860000D01*
X8044000Y-4910000D01*
X8140000Y-2560000D02*
X8190000Y-2510000D01*
X8140000Y-2460000D01*
X8090000Y-2510000D01*
X8140000Y-2560000D01*
X8293000Y-3610000D02*
X8343000Y-3560000D01*
X8293000Y-3510000D01*
X8243000Y-3560000D01*
X8293000Y-3610000D01*
X8298000Y-4910000D02*
X8348000Y-4860000D01*
X8298000Y-4810000D01*
X8248000Y-4860000D01*
X8298000Y-4910000D01*
X8394000Y-2560000D02*
X8444000Y-2510000D01*
X8394000Y-2460000D01*
X8344000Y-2510000D01*
X8394000Y-2560000D01*
X9085000Y-3610000D02*
X9135000Y-3560000D01*
X9085000Y-3510000D01*
X9035000Y-3560000D01*
X9085000Y-3610000D01*
X9090000Y-2560000D02*
X9140000Y-2510000D01*
X9090000Y-2460000D01*
X9040000Y-2510000D01*
X9090000Y-2560000D01*
X9090000Y-4910000D02*
X9140000Y-4860000D01*
X9090000Y-4810000D01*
X9040000Y-4860000D01*
X9090000Y-4910000D01*
X9339000Y-3610000D02*
X9389000Y-3560000D01*
X9339000Y-3510000D01*
X9289000Y-3560000D01*
X9339000Y-3610000D01*
X9344000Y-2560000D02*
X9394000Y-2510000D01*
X9344000Y-2460000D01*
X9294000Y-2510000D01*
X9344000Y-2560000D01*
X9344000Y-4910000D02*
X9394000Y-4860000D01*
X9344000Y-4810000D01*
X9294000Y-4860000D01*
X9344000Y-4910000D01*
X9598000Y-2560000D02*
X9648000Y-2510000D01*
X9598000Y-2460000D01*
X9548000Y-2510000D01*
X9598000Y-2560000D01*
X10376000Y-2560000D02*
X10426000Y-2510000D01*
X10376000Y-2460000D01*
X10326000Y-2510000D01*
X10376000Y-2560000D01*
X10630000Y-2560000D02*
X10680000Y-2510000D01*
X10630000Y-2460000D01*
X10580000Y-2510000D01*
X10630000Y-2560000D01*
X10884000Y-2560000D02*
X10934000Y-2510000D01*
X10884000Y-2460000D01*
X10834000Y-2510000D01*
X10884000Y-2560000D01*
X11138000Y-2560000D02*
X11188000Y-2510000D01*
X11138000Y-2460000D01*
X11088000Y-2510000D01*
X11138000Y-2560000D01*
X11653000Y-2560000D02*
X11703000Y-2510000D01*
X11653000Y-2460000D01*
X11603000Y-2510000D01*
X11653000Y-2560000D01*
X11907000Y-2560000D02*
X11957000Y-2510000D01*
X11907000Y-2460000D01*
X11857000Y-2510000D01*
X11907000Y-2560000D01*
X12140000Y-3610000D02*
X12190000Y-3560000D01*
X12140000Y-3510000D01*
X12090000Y-3560000D01*
X12140000Y-3610000D01*
X12161000Y-2560000D02*
X12211000Y-2510000D01*
X12161000Y-2460000D01*
X12111000Y-2510000D01*
X12161000Y-2560000D01*
X12394000Y-3610000D02*
X12444000Y-3560000D01*
X12394000Y-3510000D01*
X12344000Y-3560000D01*
X12394000Y-3610000D01*
X12415000Y-2560000D02*
X12465000Y-2510000D01*
X12415000Y-2460000D01*
X12365000Y-2510000D01*
X12415000Y-2560000D01*
X12954000Y-2560000D02*
X13004000Y-2510000D01*
X12954000Y-2460000D01*
X12904000Y-2510000D01*
X12954000Y-2560000D01*
X13170000Y-3610000D02*
X13220000Y-3560000D01*
X13170000Y-3510000D01*
X13120000Y-3560000D01*
X13170000Y-3610000D01*
X13208000Y-2560000D02*
X13258000Y-2510000D01*
X13208000Y-2460000D01*
X13158000Y-2510000D01*
X13208000Y-2560000D01*
X13424000Y-3610000D02*
X13474000Y-3560000D01*
X13424000Y-3510000D01*
X13374000Y-3560000D01*
X13424000Y-3610000D01*
X13462000Y-2560000D02*
X13512000Y-2510000D01*
X13462000Y-2460000D01*
X13412000Y-2510000D01*
X13462000Y-2560000D01*
X13678000Y-3610000D02*
X13728000Y-3560000D01*
X13678000Y-3510000D01*
X13628000Y-3560000D01*
X13678000Y-3610000D01*
X13716000Y-2560000D02*
X13766000Y-2510000D01*
X13716000Y-2460000D01*
X13666000Y-2510000D01*
X13716000Y-2560000D01*
X14249000Y-3610000D02*
X14299000Y-3560000D01*
X14249000Y-3510000D01*
X14199000Y-3560000D01*
X14249000Y-3610000D01*
X14503000Y-3610000D02*
X14553000Y-3560000D01*
X14503000Y-3510000D01*
X14453000Y-3560000D01*
X14503000Y-3610000D01*
X14757000Y-3610000D02*
X14807000Y-3560000D01*
X14757000Y-3510000D01*
X14707000Y-3560000D01*
X14757000Y-3610000D01*
X15273000Y-2560000D02*
X15323000Y-2510000D01*
X15273000Y-2460000D01*
X15223000Y-2510000D01*
X15273000Y-2560000D01*
X15334000Y-3610000D02*
X15384000Y-3560000D01*
X15334000Y-3510000D01*
X15284000Y-3560000D01*
X15334000Y-3610000D01*
X15527000Y-2560000D02*
X15577000Y-2510000D01*
X15527000Y-2460000D01*
X15477000Y-2510000D01*
X15527000Y-2560000D01*
X15588000Y-3610000D02*
X15638000Y-3560000D01*
X15588000Y-3510000D01*
X15538000Y-3560000D01*
X15588000Y-3610000D01*
X15781000Y-2560000D02*
X15831000Y-2510000D01*
X15781000Y-2460000D01*
X15731000Y-2510000D01*
X15781000Y-2560000D01*
X15842000Y-3610000D02*
X15892000Y-3560000D01*
X15842000Y-3510000D01*
X15792000Y-3560000D01*
X15842000Y-3610000D01*
X16035000Y-2560000D02*
X16085000Y-2510000D01*
X16035000Y-2460000D01*
X15985000Y-2510000D01*
X16035000Y-2560000D01*
X16576000Y-2560000D02*
X16626000Y-2510000D01*
X16576000Y-2460000D01*
X16526000Y-2510000D01*
X16576000Y-2560000D01*
X16640000Y-3610000D02*
X16690000Y-3560000D01*
X16640000Y-3510000D01*
X16590000Y-3560000D01*
X16640000Y-3610000D01*
X16830000Y-2560000D02*
X16880000Y-2510000D01*
X16830000Y-2460000D01*
X16780000Y-2510000D01*
X16830000Y-2560000D01*
X16894000Y-3610000D02*
X16944000Y-3560000D01*
X16894000Y-3510000D01*
X16844000Y-3560000D01*
X16894000Y-3610000D01*
X17084000Y-2560000D02*
X17134000Y-2510000D01*
X17084000Y-2460000D01*
X17034000Y-2510000D01*
X17084000Y-2560000D01*
X17148000Y-3610000D02*
X17198000Y-3560000D01*
X17148000Y-3510000D01*
X17098000Y-3560000D01*
X17148000Y-3610000D01*
X17338000Y-2560000D02*
X17388000Y-2510000D01*
X17338000Y-2460000D01*
X17288000Y-2510000D01*
X17338000Y-2560000D01*
X18140000Y-2560000D02*
X18190000Y-2510000D01*
X18140000Y-2460000D01*
X18090000Y-2510000D01*
X18140000Y-2560000D01*
X18140000Y-3610000D02*
X18190000Y-3560000D01*
X18140000Y-3510000D01*
X18090000Y-3560000D01*
X18140000Y-3610000D01*
X18140000Y-4760000D02*
X18190000Y-4710000D01*
X18140000Y-4660000D01*
X18090000Y-4710000D01*
X18140000Y-4760000D01*
X18394000Y-2560000D02*
X18444000Y-2510000D01*
X18394000Y-2460000D01*
X18344000Y-2510000D01*
X18394000Y-2560000D01*
X18394000Y-3610000D02*
X18444000Y-3560000D01*
X18394000Y-3510000D01*
X18344000Y-3560000D01*
X18394000Y-3610000D01*
X18394000Y-4760000D02*
X18444000Y-4710000D01*
X18394000Y-4660000D01*
X18344000Y-4710000D01*
X18394000Y-4760000D01*
X18648000Y-2560000D02*
X18698000Y-2510000D01*
X18648000Y-2460000D01*
X18598000Y-2510000D01*
X18648000Y-2560000D01*
X19240000Y-2560000D02*
X19290000Y-2510000D01*
X19240000Y-2460000D01*
X19190000Y-2510000D01*
X19240000Y-2560000D01*
X19240000Y-3610000D02*
X19290000Y-3560000D01*
X19240000Y-3510000D01*
X19190000Y-3560000D01*
X19240000Y-3610000D01*
X19240000Y-4760000D02*
X19290000Y-4710000D01*
X19240000Y-4660000D01*
X19190000Y-4710000D01*
X19240000Y-4760000D01*
X19397500Y-11515000D02*
X19447500Y-11465000D01*
X19397500Y-11415000D01*
X19347500Y-11465000D01*
X19397500Y-11515000D01*
X19494000Y-2560000D02*
X19544000Y-2510000D01*
X19494000Y-2460000D01*
X19444000Y-2510000D01*
X19494000Y-2560000D01*
X19494000Y-3610000D02*
X19544000Y-3560000D01*
X19494000Y-3510000D01*
X19444000Y-3560000D01*
X19494000Y-3610000D01*
X19494000Y-4760000D02*
X19544000Y-4710000D01*
X19494000Y-4660000D01*
X19444000Y-4710000D01*
X19494000Y-4760000D01*
X19651500Y-11515000D02*
X19701500Y-11465000D01*
X19651500Y-11415000D01*
X19601500Y-11465000D01*
X19651500Y-11515000D01*
X19748000Y-2560000D02*
X19798000Y-2510000D01*
X19748000Y-2460000D01*
X19698000Y-2510000D01*
X19748000Y-2560000D01*
X20490000Y-2560000D02*
X20540000Y-2510000D01*
X20490000Y-2460000D01*
X20440000Y-2510000D01*
X20490000Y-2560000D01*
X20678000Y-11445000D02*
X20728000Y-11395000D01*
X20678000Y-11345000D01*
X20628000Y-11395000D01*
X20678000Y-11445000D01*
X20744000Y-2560000D02*
X20794000Y-2510000D01*
X20744000Y-2460000D01*
X20694000Y-2510000D01*
X20744000Y-2560000D01*
X20932000Y-11445000D02*
X20982000Y-11395000D01*
X20932000Y-11345000D01*
X20882000Y-11395000D01*
X20932000Y-11445000D01*
X21186000Y-11445000D02*
X21236000Y-11395000D01*
X21186000Y-11345000D01*
X21136000Y-11395000D01*
X21186000Y-11445000D01*
X21440000Y-11445000D02*
X21490000Y-11395000D01*
X21440000Y-11345000D01*
X21390000Y-11395000D01*
X21440000Y-11445000D01*
X24360000Y-9175000D02*
X24410000Y-9125000D01*
X24360000Y-9075000D01*
X24310000Y-9125000D01*
X24360000Y-9175000D01*
X24360000Y-9429000D02*
X24410000Y-9379000D01*
X24360000Y-9329000D01*
X24310000Y-9379000D01*
X24360000Y-9429000D01*
X24360000Y-9683000D02*
X24410000Y-9633000D01*
X24360000Y-9583000D01*
X24310000Y-9633000D01*
X24360000Y-9683000D01*
X24360000Y-10180000D02*
X24410000Y-10130000D01*
X24360000Y-10080000D01*
X24310000Y-10130000D01*
X24360000Y-10180000D01*
X24360000Y-10434000D02*
X24410000Y-10384000D01*
X24360000Y-10334000D01*
X24310000Y-10384000D01*
X24360000Y-10434000D01*
X24360000Y-10688000D02*
X24410000Y-10638000D01*
X24360000Y-10588000D01*
X24310000Y-10638000D01*
X24360000Y-10688000D01*
X25360000Y-3185000D02*
X25410000Y-3135000D01*
X25360000Y-3085000D01*
X25310000Y-3135000D01*
X25360000Y-3185000D01*
X25360000Y-3439000D02*
X25410000Y-3389000D01*
X25360000Y-3339000D01*
X25310000Y-3389000D01*
X25360000Y-3439000D01*
X25360000Y-3693000D02*
X25410000Y-3643000D01*
X25360000Y-3593000D01*
X25310000Y-3643000D01*
X25360000Y-3693000D01*
X25360000Y-4190000D02*
X25410000Y-4140000D01*
X25360000Y-4090000D01*
X25310000Y-4140000D01*
X25360000Y-4190000D01*
X25360000Y-4444000D02*
X25410000Y-4394000D01*
X25360000Y-4344000D01*
X25310000Y-4394000D01*
X25360000Y-4444000D01*
X25360000Y-4698000D02*
X25410000Y-4648000D01*
X25360000Y-4598000D01*
X25310000Y-4648000D01*
X25360000Y-4698000D01*
X25360000Y-5185000D02*
X25410000Y-5135000D01*
X25360000Y-5085000D01*
X25310000Y-5135000D01*
X25360000Y-5185000D01*
X25360000Y-5439000D02*
X25410000Y-5389000D01*
X25360000Y-5339000D01*
X25310000Y-5389000D01*
X25360000Y-5439000D01*
X25360000Y-5693000D02*
X25410000Y-5643000D01*
X25360000Y-5593000D01*
X25310000Y-5643000D01*
X25360000Y-5693000D01*
X25360000Y-6180000D02*
X25410000Y-6130000D01*
X25360000Y-6080000D01*
X25310000Y-6130000D01*
X25360000Y-6180000D01*
X25360000Y-6434000D02*
X25410000Y-6384000D01*
X25360000Y-6334000D01*
X25310000Y-6384000D01*
X25360000Y-6434000D01*
X25360000Y-6688000D02*
X25410000Y-6638000D01*
X25360000Y-6588000D01*
X25310000Y-6638000D01*
X25360000Y-6688000D01*
X25360000Y-7180000D02*
X25410000Y-7130000D01*
X25360000Y-7080000D01*
X25310000Y-7130000D01*
X25360000Y-7180000D01*
X25360000Y-7434000D02*
X25410000Y-7384000D01*
X25360000Y-7334000D01*
X25310000Y-7384000D01*
X25360000Y-7434000D01*
X25360000Y-7688000D02*
X25410000Y-7638000D01*
X25360000Y-7588000D01*
X25310000Y-7638000D01*
X25360000Y-7688000D01*
X25360000Y-8185000D02*
X25410000Y-8135000D01*
X25360000Y-8085000D01*
X25310000Y-8135000D01*
X25360000Y-8185000D01*
X25360000Y-8439000D02*
X25410000Y-8389000D01*
X25360000Y-8339000D01*
X25310000Y-8389000D01*
X25360000Y-8439000D01*
X25360000Y-8693000D02*
X25410000Y-8643000D01*
X25360000Y-8593000D01*
X25310000Y-8643000D01*
X25360000Y-8693000D01*
X25360000Y-10185000D02*
X25410000Y-10135000D01*
X25360000Y-10085000D01*
X25310000Y-10135000D01*
X25360000Y-10185000D01*
X25360000Y-10439000D02*
X25410000Y-10389000D01*
X25360000Y-10339000D01*
X25310000Y-10389000D01*
X25360000Y-10439000D01*
X25360000Y-10693000D02*
X25410000Y-10643000D01*
X25360000Y-10593000D01*
X25310000Y-10643000D01*
X25360000Y-10693000D01*
X25365000Y-9180000D02*
X25415000Y-9130000D01*
X25365000Y-9080000D01*
X25315000Y-9130000D01*
X25365000Y-9180000D01*
X25365000Y-9434000D02*
X25415000Y-9384000D01*
X25365000Y-9334000D01*
X25315000Y-9384000D01*
X25365000Y-9434000D01*
X25365000Y-9688000D02*
X25415000Y-9638000D01*
X25365000Y-9588000D01*
X25315000Y-9638000D01*
X25365000Y-9688000D01*
X26360000Y-3186000D02*
X26410000Y-3136000D01*
X26360000Y-3086000D01*
X26310000Y-3136000D01*
X26360000Y-3186000D01*
X26360000Y-3440000D02*
X26410000Y-3390000D01*
X26360000Y-3340000D01*
X26310000Y-3390000D01*
X26360000Y-3440000D01*
X26360000Y-3694000D02*
X26410000Y-3644000D01*
X26360000Y-3594000D01*
X26310000Y-3644000D01*
X26360000Y-3694000D01*
X26360000Y-3948000D02*
X26410000Y-3898000D01*
X26360000Y-3848000D01*
X26310000Y-3898000D01*
X26360000Y-3948000D01*
X26360000Y-4202000D02*
X26410000Y-4152000D01*
X26360000Y-4102000D01*
X26310000Y-4152000D01*
X26360000Y-4202000D01*
X26360000Y-4456000D02*
X26410000Y-4406000D01*
X26360000Y-4356000D01*
X26310000Y-4406000D01*
X26360000Y-4456000D01*
X26360000Y-4710000D02*
X26410000Y-4660000D01*
X26360000Y-4610000D01*
X26310000Y-4660000D01*
X26360000Y-4710000D01*
X26360000Y-5190000D02*
X26410000Y-5140000D01*
X26360000Y-5090000D01*
X26310000Y-5140000D01*
X26360000Y-5190000D01*
X26360000Y-5444000D02*
X26410000Y-5394000D01*
X26360000Y-5344000D01*
X26310000Y-5394000D01*
X26360000Y-5444000D01*
X26360000Y-5698000D02*
X26410000Y-5648000D01*
X26360000Y-5598000D01*
X26310000Y-5648000D01*
X26360000Y-5698000D01*
X26360000Y-5952000D02*
X26410000Y-5902000D01*
X26360000Y-5852000D01*
X26310000Y-5902000D01*
X26360000Y-5952000D01*
X26360000Y-6206000D02*
X26410000Y-6156000D01*
X26360000Y-6106000D01*
X26310000Y-6156000D01*
X26360000Y-6206000D01*
X26360000Y-6460000D02*
X26410000Y-6410000D01*
X26360000Y-6360000D01*
X26310000Y-6410000D01*
X26360000Y-6460000D01*
X26360000Y-6940000D02*
X26410000Y-6890000D01*
X26360000Y-6840000D01*
X26310000Y-6890000D01*
X26360000Y-6940000D01*
X26360000Y-7194000D02*
X26410000Y-7144000D01*
X26360000Y-7094000D01*
X26310000Y-7144000D01*
X26360000Y-7194000D01*
X26360000Y-7448000D02*
X26410000Y-7398000D01*
X26360000Y-7348000D01*
X26310000Y-7398000D01*
X26360000Y-7448000D01*
X26360000Y-7702000D02*
X26410000Y-7652000D01*
X26360000Y-7602000D01*
X26310000Y-7652000D01*
X26360000Y-7702000D01*
X26360000Y-8180000D02*
X26410000Y-8130000D01*
X26360000Y-8080000D01*
X26310000Y-8130000D01*
X26360000Y-8180000D01*
X26360000Y-8434000D02*
X26410000Y-8384000D01*
X26360000Y-8334000D01*
X26310000Y-8384000D01*
X26360000Y-8434000D01*
X26360000Y-8688000D02*
X26410000Y-8638000D01*
X26360000Y-8588000D01*
X26310000Y-8638000D01*
X26360000Y-8688000D01*
X26360000Y-9180000D02*
X26410000Y-9130000D01*
X26360000Y-9080000D01*
X26310000Y-9130000D01*
X26360000Y-9180000D01*
X26360000Y-9434000D02*
X26410000Y-9384000D01*
X26360000Y-9334000D01*
X26310000Y-9384000D01*
X26360000Y-9434000D01*
X26360000Y-9930000D02*
X26410000Y-9880000D01*
X26360000Y-9830000D01*
X26310000Y-9880000D01*
X26360000Y-9930000D01*
X26360000Y-10184000D02*
X26410000Y-10134000D01*
X26360000Y-10084000D01*
X26310000Y-10134000D01*
X26360000Y-10184000D01*
D13*
X2365000Y-2365000D02*
X2635000Y-2635000D01*
X2635000Y-2365000D02*
X2365000Y-2635000D01*
X2635000Y-2500000D02*
G75*
G02*
X2365000Y-2500000I-135000J0D01*
G01*
X2365000Y-2500000D02*
G75*
G02*
X2635000Y-2500000I135000J0D01*
G01*
X2365000Y-11365000D02*
X2635000Y-11635000D01*
X2635000Y-11365000D02*
X2365000Y-11635000D01*
X2635000Y-11500000D02*
G75*
G02*
X2365000Y-11500000I-135000J0D01*
G01*
X2365000Y-11500000D02*
G75*
G02*
X2635000Y-11500000I135000J0D01*
G01*
X11365000Y-11365000D02*
X11635000Y-11635000D01*
X11635000Y-11365000D02*
X11365000Y-11635000D01*
X11635000Y-11500000D02*
G75*
G02*
X11365000Y-11500000I-135000J0D01*
G01*
X11365000Y-11500000D02*
G75*
G02*
X11635000Y-11500000I135000J0D01*
G01*
X14365000Y-2365000D02*
X14635000Y-2635000D01*
X14635000Y-2365000D02*
X14365000Y-2635000D01*
X14635000Y-2500000D02*
G75*
G02*
X14365000Y-2500000I-135000J0D01*
G01*
X14365000Y-2500000D02*
G75*
G02*
X14635000Y-2500000I135000J0D01*
G01*
X17365000Y-11365000D02*
X17635000Y-11635000D01*
X17635000Y-11365000D02*
X17365000Y-11635000D01*
X17635000Y-11500000D02*
G75*
G02*
X17365000Y-11500000I-135000J0D01*
G01*
X17365000Y-11500000D02*
G75*
G02*
X17635000Y-11500000I135000J0D01*
G01*
X26365000Y-2365000D02*
X26635000Y-2635000D01*
X26635000Y-2365000D02*
X26365000Y-2635000D01*
X26635000Y-2500000D02*
G75*
G02*
X26365000Y-2500000I-135000J0D01*
G01*
X26365000Y-2500000D02*
G75*
G02*
X26635000Y-2500000I135000J0D01*
G01*
X26365000Y-11365000D02*
X26635000Y-11635000D01*
X26635000Y-11365000D02*
X26365000Y-11635000D01*
X26635000Y-11500000D02*
G75*
G02*
X26365000Y-11500000I-135000J0D01*
G01*
X26365000Y-11500000D02*
G75*
G02*
X26635000Y-11500000I135000J0D01*
G01*
D11*
X2253277Y-12313984D02*
X2253277Y-12113984D01*
X2253277Y-12113984D02*
X2300896Y-12113984D01*
X2300896Y-12113984D02*
X2329467Y-12123508D01*
X2329467Y-12123508D02*
X2348515Y-12142555D01*
X2348515Y-12142555D02*
X2358039Y-12161603D01*
X2358039Y-12161603D02*
X2367563Y-12199698D01*
X2367563Y-12199698D02*
X2367563Y-12228269D01*
X2367563Y-12228269D02*
X2358039Y-12266365D01*
X2358039Y-12266365D02*
X2348515Y-12285412D01*
X2348515Y-12285412D02*
X2329467Y-12304460D01*
X2329467Y-12304460D02*
X2300896Y-12313984D01*
X2300896Y-12313984D02*
X2253277Y-12313984D01*
X2453277Y-12313984D02*
X2453277Y-12180650D01*
X2453277Y-12218746D02*
X2462801Y-12199698D01*
X2462801Y-12199698D02*
X2472324Y-12190174D01*
X2472324Y-12190174D02*
X2491372Y-12180650D01*
X2491372Y-12180650D02*
X2510420Y-12180650D01*
X2577086Y-12313984D02*
X2577086Y-12180650D01*
X2577086Y-12113984D02*
X2567563Y-12123508D01*
X2567563Y-12123508D02*
X2577086Y-12133031D01*
X2577086Y-12133031D02*
X2586610Y-12123508D01*
X2586610Y-12123508D02*
X2577086Y-12113984D01*
X2577086Y-12113984D02*
X2577086Y-12133031D01*
X2700896Y-12313984D02*
X2681848Y-12304460D01*
X2681848Y-12304460D02*
X2672324Y-12285412D01*
X2672324Y-12285412D02*
X2672324Y-12113984D01*
X2805658Y-12313984D02*
X2786610Y-12304460D01*
X2786610Y-12304460D02*
X2777086Y-12285412D01*
X2777086Y-12285412D02*
X2777086Y-12113984D01*
X3034229Y-12313984D02*
X3034229Y-12113984D01*
X3034229Y-12113984D02*
X3100896Y-12256841D01*
X3100896Y-12256841D02*
X3167562Y-12113984D01*
X3167562Y-12113984D02*
X3167562Y-12313984D01*
X3348515Y-12313984D02*
X3348515Y-12209222D01*
X3348515Y-12209222D02*
X3338991Y-12190174D01*
X3338991Y-12190174D02*
X3319943Y-12180650D01*
X3319943Y-12180650D02*
X3281848Y-12180650D01*
X3281848Y-12180650D02*
X3262801Y-12190174D01*
X3348515Y-12304460D02*
X3329467Y-12313984D01*
X3329467Y-12313984D02*
X3281848Y-12313984D01*
X3281848Y-12313984D02*
X3262801Y-12304460D01*
X3262801Y-12304460D02*
X3253277Y-12285412D01*
X3253277Y-12285412D02*
X3253277Y-12266365D01*
X3253277Y-12266365D02*
X3262801Y-12247317D01*
X3262801Y-12247317D02*
X3281848Y-12237793D01*
X3281848Y-12237793D02*
X3329467Y-12237793D01*
X3329467Y-12237793D02*
X3348515Y-12228269D01*
X3443753Y-12180650D02*
X3443753Y-12380650D01*
X3443753Y-12190174D02*
X3462801Y-12180650D01*
X3462801Y-12180650D02*
X3500896Y-12180650D01*
X3500896Y-12180650D02*
X3519943Y-12190174D01*
X3519943Y-12190174D02*
X3529467Y-12199698D01*
X3529467Y-12199698D02*
X3538991Y-12218746D01*
X3538991Y-12218746D02*
X3538991Y-12275888D01*
X3538991Y-12275888D02*
X3529467Y-12294936D01*
X3529467Y-12294936D02*
X3519943Y-12304460D01*
X3519943Y-12304460D02*
X3500896Y-12313984D01*
X3500896Y-12313984D02*
X3462801Y-12313984D01*
X3462801Y-12313984D02*
X3443753Y-12304460D01*
X3624705Y-12294936D02*
X3634229Y-12304460D01*
X3634229Y-12304460D02*
X3624705Y-12313984D01*
X3624705Y-12313984D02*
X3615182Y-12304460D01*
X3615182Y-12304460D02*
X3624705Y-12294936D01*
X3624705Y-12294936D02*
X3624705Y-12313984D01*
X3624705Y-12190174D02*
X3634229Y-12199698D01*
X3634229Y-12199698D02*
X3624705Y-12209222D01*
X3624705Y-12209222D02*
X3615182Y-12199698D01*
X3615182Y-12199698D02*
X3624705Y-12190174D01*
X3624705Y-12190174D02*
X3624705Y-12209222D01*
D12*
X1957500Y-12625000D02*
X1992500Y-12660000D01*
X1992500Y-12625000D02*
X1957500Y-12660000D01*
D11*
X2291372Y-12533984D02*
X2310420Y-12533984D01*
X2310420Y-12533984D02*
X2329467Y-12543508D01*
X2329467Y-12543508D02*
X2338991Y-12553031D01*
X2338991Y-12553031D02*
X2348515Y-12572079D01*
X2348515Y-12572079D02*
X2358039Y-12610174D01*
X2358039Y-12610174D02*
X2358039Y-12657793D01*
X2358039Y-12657793D02*
X2348515Y-12695888D01*
X2348515Y-12695888D02*
X2338991Y-12714936D01*
X2338991Y-12714936D02*
X2329467Y-12724460D01*
X2329467Y-12724460D02*
X2310420Y-12733984D01*
X2310420Y-12733984D02*
X2291372Y-12733984D01*
X2291372Y-12733984D02*
X2272324Y-12724460D01*
X2272324Y-12724460D02*
X2262801Y-12714936D01*
X2262801Y-12714936D02*
X2253277Y-12695888D01*
X2253277Y-12695888D02*
X2243753Y-12657793D01*
X2243753Y-12657793D02*
X2243753Y-12610174D01*
X2243753Y-12610174D02*
X2253277Y-12572079D01*
X2253277Y-12572079D02*
X2262801Y-12553031D01*
X2262801Y-12553031D02*
X2272324Y-12543508D01*
X2272324Y-12543508D02*
X2291372Y-12533984D01*
X2443753Y-12714936D02*
X2453277Y-12724460D01*
X2453277Y-12724460D02*
X2443753Y-12733984D01*
X2443753Y-12733984D02*
X2434229Y-12724460D01*
X2434229Y-12724460D02*
X2443753Y-12714936D01*
X2443753Y-12714936D02*
X2443753Y-12733984D01*
X2519944Y-12533984D02*
X2643753Y-12533984D01*
X2643753Y-12533984D02*
X2577086Y-12610174D01*
X2577086Y-12610174D02*
X2605658Y-12610174D01*
X2605658Y-12610174D02*
X2624705Y-12619698D01*
X2624705Y-12619698D02*
X2634229Y-12629222D01*
X2634229Y-12629222D02*
X2643753Y-12648269D01*
X2643753Y-12648269D02*
X2643753Y-12695888D01*
X2643753Y-12695888D02*
X2634229Y-12714936D01*
X2634229Y-12714936D02*
X2624705Y-12724460D01*
X2624705Y-12724460D02*
X2605658Y-12733984D01*
X2605658Y-12733984D02*
X2548515Y-12733984D01*
X2548515Y-12733984D02*
X2529467Y-12724460D01*
X2529467Y-12724460D02*
X2519944Y-12714936D01*
X2824705Y-12533984D02*
X2729467Y-12533984D01*
X2729467Y-12533984D02*
X2719944Y-12629222D01*
X2719944Y-12629222D02*
X2729467Y-12619698D01*
X2729467Y-12619698D02*
X2748515Y-12610174D01*
X2748515Y-12610174D02*
X2796134Y-12610174D01*
X2796134Y-12610174D02*
X2815182Y-12619698D01*
X2815182Y-12619698D02*
X2824705Y-12629222D01*
X2824705Y-12629222D02*
X2834229Y-12648269D01*
X2834229Y-12648269D02*
X2834229Y-12695888D01*
X2834229Y-12695888D02*
X2824705Y-12714936D01*
X2824705Y-12714936D02*
X2815182Y-12724460D01*
X2815182Y-12724460D02*
X2796134Y-12733984D01*
X2796134Y-12733984D02*
X2748515Y-12733984D01*
X2748515Y-12733984D02*
X2729467Y-12724460D01*
X2729467Y-12724460D02*
X2719944Y-12714936D01*
X2958039Y-12533984D02*
X2977086Y-12533984D01*
X2977086Y-12533984D02*
X2996134Y-12543508D01*
X2996134Y-12543508D02*
X3005658Y-12553031D01*
X3005658Y-12553031D02*
X3015182Y-12572079D01*
X3015182Y-12572079D02*
X3024705Y-12610174D01*
X3024705Y-12610174D02*
X3024705Y-12657793D01*
X3024705Y-12657793D02*
X3015182Y-12695888D01*
X3015182Y-12695888D02*
X3005658Y-12714936D01*
X3005658Y-12714936D02*
X2996134Y-12724460D01*
X2996134Y-12724460D02*
X2977086Y-12733984D01*
X2977086Y-12733984D02*
X2958039Y-12733984D01*
X2958039Y-12733984D02*
X2938991Y-12724460D01*
X2938991Y-12724460D02*
X2929467Y-12714936D01*
X2929467Y-12714936D02*
X2919943Y-12695888D01*
X2919943Y-12695888D02*
X2910420Y-12657793D01*
X2910420Y-12657793D02*
X2910420Y-12610174D01*
X2910420Y-12610174D02*
X2919943Y-12572079D01*
X2919943Y-12572079D02*
X2929467Y-12553031D01*
X2929467Y-12553031D02*
X2938991Y-12543508D01*
X2938991Y-12543508D02*
X2958039Y-12533984D01*
X3110420Y-12733984D02*
X3110420Y-12600650D01*
X3110420Y-12619698D02*
X3119943Y-12610174D01*
X3119943Y-12610174D02*
X3138991Y-12600650D01*
X3138991Y-12600650D02*
X3167563Y-12600650D01*
X3167563Y-12600650D02*
X3186610Y-12610174D01*
X3186610Y-12610174D02*
X3196134Y-12629222D01*
X3196134Y-12629222D02*
X3196134Y-12733984D01*
X3196134Y-12629222D02*
X3205658Y-12610174D01*
X3205658Y-12610174D02*
X3224705Y-12600650D01*
X3224705Y-12600650D02*
X3253277Y-12600650D01*
X3253277Y-12600650D02*
X3272324Y-12610174D01*
X3272324Y-12610174D02*
X3281848Y-12629222D01*
X3281848Y-12629222D02*
X3281848Y-12733984D01*
X3377086Y-12733984D02*
X3377086Y-12600650D01*
X3377086Y-12619698D02*
X3386610Y-12610174D01*
X3386610Y-12610174D02*
X3405658Y-12600650D01*
X3405658Y-12600650D02*
X3434229Y-12600650D01*
X3434229Y-12600650D02*
X3453277Y-12610174D01*
X3453277Y-12610174D02*
X3462801Y-12629222D01*
X3462801Y-12629222D02*
X3462801Y-12733984D01*
X3462801Y-12629222D02*
X3472324Y-12610174D01*
X3472324Y-12610174D02*
X3491372Y-12600650D01*
X3491372Y-12600650D02*
X3519943Y-12600650D01*
X3519943Y-12600650D02*
X3538991Y-12610174D01*
X3538991Y-12610174D02*
X3548515Y-12629222D01*
X3548515Y-12629222D02*
X3548515Y-12733984D01*
X3938991Y-12524460D02*
X3767563Y-12781603D01*
X4196134Y-12533984D02*
X4215182Y-12533984D01*
X4215182Y-12533984D02*
X4234229Y-12543508D01*
X4234229Y-12543508D02*
X4243753Y-12553031D01*
X4243753Y-12553031D02*
X4253277Y-12572079D01*
X4253277Y-12572079D02*
X4262801Y-12610174D01*
X4262801Y-12610174D02*
X4262801Y-12657793D01*
X4262801Y-12657793D02*
X4253277Y-12695888D01*
X4253277Y-12695888D02*
X4243753Y-12714936D01*
X4243753Y-12714936D02*
X4234229Y-12724460D01*
X4234229Y-12724460D02*
X4215182Y-12733984D01*
X4215182Y-12733984D02*
X4196134Y-12733984D01*
X4196134Y-12733984D02*
X4177086Y-12724460D01*
X4177086Y-12724460D02*
X4167563Y-12714936D01*
X4167563Y-12714936D02*
X4158039Y-12695888D01*
X4158039Y-12695888D02*
X4148515Y-12657793D01*
X4148515Y-12657793D02*
X4148515Y-12610174D01*
X4148515Y-12610174D02*
X4158039Y-12572079D01*
X4158039Y-12572079D02*
X4167563Y-12553031D01*
X4167563Y-12553031D02*
X4177086Y-12543508D01*
X4177086Y-12543508D02*
X4196134Y-12533984D01*
X4348515Y-12714936D02*
X4358039Y-12724460D01*
X4358039Y-12724460D02*
X4348515Y-12733984D01*
X4348515Y-12733984D02*
X4338991Y-12724460D01*
X4338991Y-12724460D02*
X4348515Y-12714936D01*
X4348515Y-12714936D02*
X4348515Y-12733984D01*
X4481848Y-12533984D02*
X4500896Y-12533984D01*
X4500896Y-12533984D02*
X4519944Y-12543508D01*
X4519944Y-12543508D02*
X4529468Y-12553031D01*
X4529468Y-12553031D02*
X4538991Y-12572079D01*
X4538991Y-12572079D02*
X4548515Y-12610174D01*
X4548515Y-12610174D02*
X4548515Y-12657793D01*
X4548515Y-12657793D02*
X4538991Y-12695888D01*
X4538991Y-12695888D02*
X4529468Y-12714936D01*
X4529468Y-12714936D02*
X4519944Y-12724460D01*
X4519944Y-12724460D02*
X4500896Y-12733984D01*
X4500896Y-12733984D02*
X4481848Y-12733984D01*
X4481848Y-12733984D02*
X4462801Y-12724460D01*
X4462801Y-12724460D02*
X4453277Y-12714936D01*
X4453277Y-12714936D02*
X4443753Y-12695888D01*
X4443753Y-12695888D02*
X4434229Y-12657793D01*
X4434229Y-12657793D02*
X4434229Y-12610174D01*
X4434229Y-12610174D02*
X4443753Y-12572079D01*
X4443753Y-12572079D02*
X4453277Y-12553031D01*
X4453277Y-12553031D02*
X4462801Y-12543508D01*
X4462801Y-12543508D02*
X4481848Y-12533984D01*
X4738991Y-12733984D02*
X4624706Y-12733984D01*
X4681848Y-12733984D02*
X4681848Y-12533984D01*
X4681848Y-12533984D02*
X4662801Y-12562555D01*
X4662801Y-12562555D02*
X4643753Y-12581603D01*
X4643753Y-12581603D02*
X4624706Y-12591127D01*
X4805658Y-12533984D02*
X4929468Y-12533984D01*
X4929468Y-12533984D02*
X4862801Y-12610174D01*
X4862801Y-12610174D02*
X4891372Y-12610174D01*
X4891372Y-12610174D02*
X4910420Y-12619698D01*
X4910420Y-12619698D02*
X4919944Y-12629222D01*
X4919944Y-12629222D02*
X4929468Y-12648269D01*
X4929468Y-12648269D02*
X4929468Y-12695888D01*
X4929468Y-12695888D02*
X4919944Y-12714936D01*
X4919944Y-12714936D02*
X4910420Y-12724460D01*
X4910420Y-12724460D02*
X4891372Y-12733984D01*
X4891372Y-12733984D02*
X4834229Y-12733984D01*
X4834229Y-12733984D02*
X4815182Y-12724460D01*
X4815182Y-12724460D02*
X4805658Y-12714936D01*
X5043753Y-12619698D02*
X5024706Y-12610174D01*
X5024706Y-12610174D02*
X5015182Y-12600650D01*
X5015182Y-12600650D02*
X5005658Y-12581603D01*
X5005658Y-12581603D02*
X5005658Y-12572079D01*
X5005658Y-12572079D02*
X5015182Y-12553031D01*
X5015182Y-12553031D02*
X5024706Y-12543508D01*
X5024706Y-12543508D02*
X5043753Y-12533984D01*
X5043753Y-12533984D02*
X5081849Y-12533984D01*
X5081849Y-12533984D02*
X5100896Y-12543508D01*
X5100896Y-12543508D02*
X5110420Y-12553031D01*
X5110420Y-12553031D02*
X5119944Y-12572079D01*
X5119944Y-12572079D02*
X5119944Y-12581603D01*
X5119944Y-12581603D02*
X5110420Y-12600650D01*
X5110420Y-12600650D02*
X5100896Y-12610174D01*
X5100896Y-12610174D02*
X5081849Y-12619698D01*
X5081849Y-12619698D02*
X5043753Y-12619698D01*
X5043753Y-12619698D02*
X5024706Y-12629222D01*
X5024706Y-12629222D02*
X5015182Y-12638746D01*
X5015182Y-12638746D02*
X5005658Y-12657793D01*
X5005658Y-12657793D02*
X5005658Y-12695888D01*
X5005658Y-12695888D02*
X5015182Y-12714936D01*
X5015182Y-12714936D02*
X5024706Y-12724460D01*
X5024706Y-12724460D02*
X5043753Y-12733984D01*
X5043753Y-12733984D02*
X5081849Y-12733984D01*
X5081849Y-12733984D02*
X5100896Y-12724460D01*
X5100896Y-12724460D02*
X5110420Y-12714936D01*
X5110420Y-12714936D02*
X5119944Y-12695888D01*
X5119944Y-12695888D02*
X5119944Y-12657793D01*
X5119944Y-12657793D02*
X5110420Y-12638746D01*
X5110420Y-12638746D02*
X5100896Y-12629222D01*
X5100896Y-12629222D02*
X5081849Y-12619698D01*
X5196134Y-12533984D02*
X5196134Y-12572079D01*
X5272325Y-12533984D02*
X5272325Y-12572079D01*
X5567563Y-12810174D02*
X5558039Y-12800650D01*
X5558039Y-12800650D02*
X5538991Y-12772079D01*
X5538991Y-12772079D02*
X5529468Y-12753031D01*
X5529468Y-12753031D02*
X5519944Y-12724460D01*
X5519944Y-12724460D02*
X5510420Y-12676841D01*
X5510420Y-12676841D02*
X5510420Y-12638746D01*
X5510420Y-12638746D02*
X5519944Y-12591127D01*
X5519944Y-12591127D02*
X5529468Y-12562555D01*
X5529468Y-12562555D02*
X5538991Y-12543508D01*
X5538991Y-12543508D02*
X5558039Y-12514936D01*
X5558039Y-12514936D02*
X5567563Y-12505412D01*
X5653277Y-12733984D02*
X5691372Y-12733984D01*
X5691372Y-12733984D02*
X5710420Y-12724460D01*
X5710420Y-12724460D02*
X5719944Y-12714936D01*
X5719944Y-12714936D02*
X5738991Y-12686365D01*
X5738991Y-12686365D02*
X5748515Y-12648269D01*
X5748515Y-12648269D02*
X5748515Y-12572079D01*
X5748515Y-12572079D02*
X5738991Y-12553031D01*
X5738991Y-12553031D02*
X5729468Y-12543508D01*
X5729468Y-12543508D02*
X5710420Y-12533984D01*
X5710420Y-12533984D02*
X5672325Y-12533984D01*
X5672325Y-12533984D02*
X5653277Y-12543508D01*
X5653277Y-12543508D02*
X5643753Y-12553031D01*
X5643753Y-12553031D02*
X5634229Y-12572079D01*
X5634229Y-12572079D02*
X5634229Y-12619698D01*
X5634229Y-12619698D02*
X5643753Y-12638746D01*
X5643753Y-12638746D02*
X5653277Y-12648269D01*
X5653277Y-12648269D02*
X5672325Y-12657793D01*
X5672325Y-12657793D02*
X5710420Y-12657793D01*
X5710420Y-12657793D02*
X5729468Y-12648269D01*
X5729468Y-12648269D02*
X5738991Y-12638746D01*
X5738991Y-12638746D02*
X5748515Y-12619698D01*
X5986610Y-12733984D02*
X5986610Y-12533984D01*
X6072325Y-12733984D02*
X6072325Y-12629222D01*
X6072325Y-12629222D02*
X6062801Y-12610174D01*
X6062801Y-12610174D02*
X6043753Y-12600650D01*
X6043753Y-12600650D02*
X6015182Y-12600650D01*
X6015182Y-12600650D02*
X5996134Y-12610174D01*
X5996134Y-12610174D02*
X5986610Y-12619698D01*
X6196134Y-12733984D02*
X6177087Y-12724460D01*
X6177087Y-12724460D02*
X6167563Y-12714936D01*
X6167563Y-12714936D02*
X6158039Y-12695888D01*
X6158039Y-12695888D02*
X6158039Y-12638746D01*
X6158039Y-12638746D02*
X6167563Y-12619698D01*
X6167563Y-12619698D02*
X6177087Y-12610174D01*
X6177087Y-12610174D02*
X6196134Y-12600650D01*
X6196134Y-12600650D02*
X6224706Y-12600650D01*
X6224706Y-12600650D02*
X6243753Y-12610174D01*
X6243753Y-12610174D02*
X6253277Y-12619698D01*
X6253277Y-12619698D02*
X6262801Y-12638746D01*
X6262801Y-12638746D02*
X6262801Y-12695888D01*
X6262801Y-12695888D02*
X6253277Y-12714936D01*
X6253277Y-12714936D02*
X6243753Y-12724460D01*
X6243753Y-12724460D02*
X6224706Y-12733984D01*
X6224706Y-12733984D02*
X6196134Y-12733984D01*
X6377087Y-12733984D02*
X6358039Y-12724460D01*
X6358039Y-12724460D02*
X6348515Y-12705412D01*
X6348515Y-12705412D02*
X6348515Y-12533984D01*
X6529468Y-12724460D02*
X6510420Y-12733984D01*
X6510420Y-12733984D02*
X6472325Y-12733984D01*
X6472325Y-12733984D02*
X6453277Y-12724460D01*
X6453277Y-12724460D02*
X6443753Y-12705412D01*
X6443753Y-12705412D02*
X6443753Y-12629222D01*
X6443753Y-12629222D02*
X6453277Y-12610174D01*
X6453277Y-12610174D02*
X6472325Y-12600650D01*
X6472325Y-12600650D02*
X6510420Y-12600650D01*
X6510420Y-12600650D02*
X6529468Y-12610174D01*
X6529468Y-12610174D02*
X6538991Y-12629222D01*
X6538991Y-12629222D02*
X6538991Y-12648269D01*
X6538991Y-12648269D02*
X6443753Y-12667317D01*
X6615182Y-12724460D02*
X6634230Y-12733984D01*
X6634230Y-12733984D02*
X6672325Y-12733984D01*
X6672325Y-12733984D02*
X6691372Y-12724460D01*
X6691372Y-12724460D02*
X6700896Y-12705412D01*
X6700896Y-12705412D02*
X6700896Y-12695888D01*
X6700896Y-12695888D02*
X6691372Y-12676841D01*
X6691372Y-12676841D02*
X6672325Y-12667317D01*
X6672325Y-12667317D02*
X6643753Y-12667317D01*
X6643753Y-12667317D02*
X6624706Y-12657793D01*
X6624706Y-12657793D02*
X6615182Y-12638746D01*
X6615182Y-12638746D02*
X6615182Y-12629222D01*
X6615182Y-12629222D02*
X6624706Y-12610174D01*
X6624706Y-12610174D02*
X6643753Y-12600650D01*
X6643753Y-12600650D02*
X6672325Y-12600650D01*
X6672325Y-12600650D02*
X6691372Y-12610174D01*
X6767563Y-12810174D02*
X6777087Y-12800650D01*
X6777087Y-12800650D02*
X6796134Y-12772079D01*
X6796134Y-12772079D02*
X6805658Y-12753031D01*
X6805658Y-12753031D02*
X6815182Y-12724460D01*
X6815182Y-12724460D02*
X6824706Y-12676841D01*
X6824706Y-12676841D02*
X6824706Y-12638746D01*
X6824706Y-12638746D02*
X6815182Y-12591127D01*
X6815182Y-12591127D02*
X6805658Y-12562555D01*
X6805658Y-12562555D02*
X6796134Y-12543508D01*
X6796134Y-12543508D02*
X6777087Y-12514936D01*
X6777087Y-12514936D02*
X6767563Y-12505412D01*
D12*
X1992500Y-12906500D02*
G75*
G02*
X1952500Y-12906500I-20000J0D01*
G01*
X1952500Y-12906500D02*
G75*
G02*
X1992500Y-12906500I20000J0D01*
G01*
D11*
X2291372Y-12797984D02*
X2310420Y-12797984D01*
X2310420Y-12797984D02*
X2329467Y-12807508D01*
X2329467Y-12807508D02*
X2338991Y-12817031D01*
X2338991Y-12817031D02*
X2348515Y-12836079D01*
X2348515Y-12836079D02*
X2358039Y-12874174D01*
X2358039Y-12874174D02*
X2358039Y-12921793D01*
X2358039Y-12921793D02*
X2348515Y-12959888D01*
X2348515Y-12959888D02*
X2338991Y-12978936D01*
X2338991Y-12978936D02*
X2329467Y-12988460D01*
X2329467Y-12988460D02*
X2310420Y-12997984D01*
X2310420Y-12997984D02*
X2291372Y-12997984D01*
X2291372Y-12997984D02*
X2272324Y-12988460D01*
X2272324Y-12988460D02*
X2262801Y-12978936D01*
X2262801Y-12978936D02*
X2253277Y-12959888D01*
X2253277Y-12959888D02*
X2243753Y-12921793D01*
X2243753Y-12921793D02*
X2243753Y-12874174D01*
X2243753Y-12874174D02*
X2253277Y-12836079D01*
X2253277Y-12836079D02*
X2262801Y-12817031D01*
X2262801Y-12817031D02*
X2272324Y-12807508D01*
X2272324Y-12807508D02*
X2291372Y-12797984D01*
X2443753Y-12978936D02*
X2453277Y-12988460D01*
X2453277Y-12988460D02*
X2443753Y-12997984D01*
X2443753Y-12997984D02*
X2434229Y-12988460D01*
X2434229Y-12988460D02*
X2443753Y-12978936D01*
X2443753Y-12978936D02*
X2443753Y-12997984D01*
X2624705Y-12864650D02*
X2624705Y-12997984D01*
X2577086Y-12788460D02*
X2529467Y-12931317D01*
X2529467Y-12931317D02*
X2653277Y-12931317D01*
X2767563Y-12797984D02*
X2786610Y-12797984D01*
X2786610Y-12797984D02*
X2805658Y-12807508D01*
X2805658Y-12807508D02*
X2815182Y-12817031D01*
X2815182Y-12817031D02*
X2824705Y-12836079D01*
X2824705Y-12836079D02*
X2834229Y-12874174D01*
X2834229Y-12874174D02*
X2834229Y-12921793D01*
X2834229Y-12921793D02*
X2824705Y-12959888D01*
X2824705Y-12959888D02*
X2815182Y-12978936D01*
X2815182Y-12978936D02*
X2805658Y-12988460D01*
X2805658Y-12988460D02*
X2786610Y-12997984D01*
X2786610Y-12997984D02*
X2767563Y-12997984D01*
X2767563Y-12997984D02*
X2748515Y-12988460D01*
X2748515Y-12988460D02*
X2738991Y-12978936D01*
X2738991Y-12978936D02*
X2729467Y-12959888D01*
X2729467Y-12959888D02*
X2719944Y-12921793D01*
X2719944Y-12921793D02*
X2719944Y-12874174D01*
X2719944Y-12874174D02*
X2729467Y-12836079D01*
X2729467Y-12836079D02*
X2738991Y-12817031D01*
X2738991Y-12817031D02*
X2748515Y-12807508D01*
X2748515Y-12807508D02*
X2767563Y-12797984D01*
X2958039Y-12797984D02*
X2977086Y-12797984D01*
X2977086Y-12797984D02*
X2996134Y-12807508D01*
X2996134Y-12807508D02*
X3005658Y-12817031D01*
X3005658Y-12817031D02*
X3015182Y-12836079D01*
X3015182Y-12836079D02*
X3024705Y-12874174D01*
X3024705Y-12874174D02*
X3024705Y-12921793D01*
X3024705Y-12921793D02*
X3015182Y-12959888D01*
X3015182Y-12959888D02*
X3005658Y-12978936D01*
X3005658Y-12978936D02*
X2996134Y-12988460D01*
X2996134Y-12988460D02*
X2977086Y-12997984D01*
X2977086Y-12997984D02*
X2958039Y-12997984D01*
X2958039Y-12997984D02*
X2938991Y-12988460D01*
X2938991Y-12988460D02*
X2929467Y-12978936D01*
X2929467Y-12978936D02*
X2919943Y-12959888D01*
X2919943Y-12959888D02*
X2910420Y-12921793D01*
X2910420Y-12921793D02*
X2910420Y-12874174D01*
X2910420Y-12874174D02*
X2919943Y-12836079D01*
X2919943Y-12836079D02*
X2929467Y-12817031D01*
X2929467Y-12817031D02*
X2938991Y-12807508D01*
X2938991Y-12807508D02*
X2958039Y-12797984D01*
X3110420Y-12997984D02*
X3110420Y-12864650D01*
X3110420Y-12883698D02*
X3119943Y-12874174D01*
X3119943Y-12874174D02*
X3138991Y-12864650D01*
X3138991Y-12864650D02*
X3167563Y-12864650D01*
X3167563Y-12864650D02*
X3186610Y-12874174D01*
X3186610Y-12874174D02*
X3196134Y-12893222D01*
X3196134Y-12893222D02*
X3196134Y-12997984D01*
X3196134Y-12893222D02*
X3205658Y-12874174D01*
X3205658Y-12874174D02*
X3224705Y-12864650D01*
X3224705Y-12864650D02*
X3253277Y-12864650D01*
X3253277Y-12864650D02*
X3272324Y-12874174D01*
X3272324Y-12874174D02*
X3281848Y-12893222D01*
X3281848Y-12893222D02*
X3281848Y-12997984D01*
X3377086Y-12997984D02*
X3377086Y-12864650D01*
X3377086Y-12883698D02*
X3386610Y-12874174D01*
X3386610Y-12874174D02*
X3405658Y-12864650D01*
X3405658Y-12864650D02*
X3434229Y-12864650D01*
X3434229Y-12864650D02*
X3453277Y-12874174D01*
X3453277Y-12874174D02*
X3462801Y-12893222D01*
X3462801Y-12893222D02*
X3462801Y-12997984D01*
X3462801Y-12893222D02*
X3472324Y-12874174D01*
X3472324Y-12874174D02*
X3491372Y-12864650D01*
X3491372Y-12864650D02*
X3519943Y-12864650D01*
X3519943Y-12864650D02*
X3538991Y-12874174D01*
X3538991Y-12874174D02*
X3548515Y-12893222D01*
X3548515Y-12893222D02*
X3548515Y-12997984D01*
X3938991Y-12788460D02*
X3767563Y-13045603D01*
X4196134Y-12797984D02*
X4215182Y-12797984D01*
X4215182Y-12797984D02*
X4234229Y-12807508D01*
X4234229Y-12807508D02*
X4243753Y-12817031D01*
X4243753Y-12817031D02*
X4253277Y-12836079D01*
X4253277Y-12836079D02*
X4262801Y-12874174D01*
X4262801Y-12874174D02*
X4262801Y-12921793D01*
X4262801Y-12921793D02*
X4253277Y-12959888D01*
X4253277Y-12959888D02*
X4243753Y-12978936D01*
X4243753Y-12978936D02*
X4234229Y-12988460D01*
X4234229Y-12988460D02*
X4215182Y-12997984D01*
X4215182Y-12997984D02*
X4196134Y-12997984D01*
X4196134Y-12997984D02*
X4177086Y-12988460D01*
X4177086Y-12988460D02*
X4167563Y-12978936D01*
X4167563Y-12978936D02*
X4158039Y-12959888D01*
X4158039Y-12959888D02*
X4148515Y-12921793D01*
X4148515Y-12921793D02*
X4148515Y-12874174D01*
X4148515Y-12874174D02*
X4158039Y-12836079D01*
X4158039Y-12836079D02*
X4167563Y-12817031D01*
X4167563Y-12817031D02*
X4177086Y-12807508D01*
X4177086Y-12807508D02*
X4196134Y-12797984D01*
X4348515Y-12978936D02*
X4358039Y-12988460D01*
X4358039Y-12988460D02*
X4348515Y-12997984D01*
X4348515Y-12997984D02*
X4338991Y-12988460D01*
X4338991Y-12988460D02*
X4348515Y-12978936D01*
X4348515Y-12978936D02*
X4348515Y-12997984D01*
X4481848Y-12797984D02*
X4500896Y-12797984D01*
X4500896Y-12797984D02*
X4519944Y-12807508D01*
X4519944Y-12807508D02*
X4529468Y-12817031D01*
X4529468Y-12817031D02*
X4538991Y-12836079D01*
X4538991Y-12836079D02*
X4548515Y-12874174D01*
X4548515Y-12874174D02*
X4548515Y-12921793D01*
X4548515Y-12921793D02*
X4538991Y-12959888D01*
X4538991Y-12959888D02*
X4529468Y-12978936D01*
X4529468Y-12978936D02*
X4519944Y-12988460D01*
X4519944Y-12988460D02*
X4500896Y-12997984D01*
X4500896Y-12997984D02*
X4481848Y-12997984D01*
X4481848Y-12997984D02*
X4462801Y-12988460D01*
X4462801Y-12988460D02*
X4453277Y-12978936D01*
X4453277Y-12978936D02*
X4443753Y-12959888D01*
X4443753Y-12959888D02*
X4434229Y-12921793D01*
X4434229Y-12921793D02*
X4434229Y-12874174D01*
X4434229Y-12874174D02*
X4443753Y-12836079D01*
X4443753Y-12836079D02*
X4453277Y-12817031D01*
X4453277Y-12817031D02*
X4462801Y-12807508D01*
X4462801Y-12807508D02*
X4481848Y-12797984D01*
X4738991Y-12997984D02*
X4624706Y-12997984D01*
X4681848Y-12997984D02*
X4681848Y-12797984D01*
X4681848Y-12797984D02*
X4662801Y-12826555D01*
X4662801Y-12826555D02*
X4643753Y-12845603D01*
X4643753Y-12845603D02*
X4624706Y-12855127D01*
X4919944Y-12797984D02*
X4824706Y-12797984D01*
X4824706Y-12797984D02*
X4815182Y-12893222D01*
X4815182Y-12893222D02*
X4824706Y-12883698D01*
X4824706Y-12883698D02*
X4843753Y-12874174D01*
X4843753Y-12874174D02*
X4891372Y-12874174D01*
X4891372Y-12874174D02*
X4910420Y-12883698D01*
X4910420Y-12883698D02*
X4919944Y-12893222D01*
X4919944Y-12893222D02*
X4929468Y-12912269D01*
X4929468Y-12912269D02*
X4929468Y-12959888D01*
X4929468Y-12959888D02*
X4919944Y-12978936D01*
X4919944Y-12978936D02*
X4910420Y-12988460D01*
X4910420Y-12988460D02*
X4891372Y-12997984D01*
X4891372Y-12997984D02*
X4843753Y-12997984D01*
X4843753Y-12997984D02*
X4824706Y-12988460D01*
X4824706Y-12988460D02*
X4815182Y-12978936D01*
X4996134Y-12797984D02*
X5129468Y-12797984D01*
X5129468Y-12797984D02*
X5043753Y-12997984D01*
X5196134Y-12797984D02*
X5196134Y-12836079D01*
X5272325Y-12797984D02*
X5272325Y-12836079D01*
X5567563Y-13074174D02*
X5558039Y-13064650D01*
X5558039Y-13064650D02*
X5538991Y-13036079D01*
X5538991Y-13036079D02*
X5529468Y-13017031D01*
X5529468Y-13017031D02*
X5519944Y-12988460D01*
X5519944Y-12988460D02*
X5510420Y-12940841D01*
X5510420Y-12940841D02*
X5510420Y-12902746D01*
X5510420Y-12902746D02*
X5519944Y-12855127D01*
X5519944Y-12855127D02*
X5529468Y-12826555D01*
X5529468Y-12826555D02*
X5538991Y-12807508D01*
X5538991Y-12807508D02*
X5558039Y-12778936D01*
X5558039Y-12778936D02*
X5567563Y-12769412D01*
X5634229Y-12817031D02*
X5643753Y-12807508D01*
X5643753Y-12807508D02*
X5662801Y-12797984D01*
X5662801Y-12797984D02*
X5710420Y-12797984D01*
X5710420Y-12797984D02*
X5729468Y-12807508D01*
X5729468Y-12807508D02*
X5738991Y-12817031D01*
X5738991Y-12817031D02*
X5748515Y-12836079D01*
X5748515Y-12836079D02*
X5748515Y-12855127D01*
X5748515Y-12855127D02*
X5738991Y-12883698D01*
X5738991Y-12883698D02*
X5624706Y-12997984D01*
X5624706Y-12997984D02*
X5748515Y-12997984D01*
X5843753Y-12997984D02*
X5881848Y-12997984D01*
X5881848Y-12997984D02*
X5900896Y-12988460D01*
X5900896Y-12988460D02*
X5910420Y-12978936D01*
X5910420Y-12978936D02*
X5929468Y-12950365D01*
X5929468Y-12950365D02*
X5938991Y-12912269D01*
X5938991Y-12912269D02*
X5938991Y-12836079D01*
X5938991Y-12836079D02*
X5929468Y-12817031D01*
X5929468Y-12817031D02*
X5919944Y-12807508D01*
X5919944Y-12807508D02*
X5900896Y-12797984D01*
X5900896Y-12797984D02*
X5862801Y-12797984D01*
X5862801Y-12797984D02*
X5843753Y-12807508D01*
X5843753Y-12807508D02*
X5834229Y-12817031D01*
X5834229Y-12817031D02*
X5824706Y-12836079D01*
X5824706Y-12836079D02*
X5824706Y-12883698D01*
X5824706Y-12883698D02*
X5834229Y-12902746D01*
X5834229Y-12902746D02*
X5843753Y-12912269D01*
X5843753Y-12912269D02*
X5862801Y-12921793D01*
X5862801Y-12921793D02*
X5900896Y-12921793D01*
X5900896Y-12921793D02*
X5919944Y-12912269D01*
X5919944Y-12912269D02*
X5929468Y-12902746D01*
X5929468Y-12902746D02*
X5938991Y-12883698D01*
X6015182Y-12817031D02*
X6024706Y-12807508D01*
X6024706Y-12807508D02*
X6043753Y-12797984D01*
X6043753Y-12797984D02*
X6091372Y-12797984D01*
X6091372Y-12797984D02*
X6110420Y-12807508D01*
X6110420Y-12807508D02*
X6119944Y-12817031D01*
X6119944Y-12817031D02*
X6129468Y-12836079D01*
X6129468Y-12836079D02*
X6129468Y-12855127D01*
X6129468Y-12855127D02*
X6119944Y-12883698D01*
X6119944Y-12883698D02*
X6005658Y-12997984D01*
X6005658Y-12997984D02*
X6129468Y-12997984D01*
X6367563Y-12997984D02*
X6367563Y-12797984D01*
X6453277Y-12997984D02*
X6453277Y-12893222D01*
X6453277Y-12893222D02*
X6443753Y-12874174D01*
X6443753Y-12874174D02*
X6424706Y-12864650D01*
X6424706Y-12864650D02*
X6396134Y-12864650D01*
X6396134Y-12864650D02*
X6377087Y-12874174D01*
X6377087Y-12874174D02*
X6367563Y-12883698D01*
X6577087Y-12997984D02*
X6558039Y-12988460D01*
X6558039Y-12988460D02*
X6548515Y-12978936D01*
X6548515Y-12978936D02*
X6538991Y-12959888D01*
X6538991Y-12959888D02*
X6538991Y-12902746D01*
X6538991Y-12902746D02*
X6548515Y-12883698D01*
X6548515Y-12883698D02*
X6558039Y-12874174D01*
X6558039Y-12874174D02*
X6577087Y-12864650D01*
X6577087Y-12864650D02*
X6605658Y-12864650D01*
X6605658Y-12864650D02*
X6624706Y-12874174D01*
X6624706Y-12874174D02*
X6634230Y-12883698D01*
X6634230Y-12883698D02*
X6643753Y-12902746D01*
X6643753Y-12902746D02*
X6643753Y-12959888D01*
X6643753Y-12959888D02*
X6634230Y-12978936D01*
X6634230Y-12978936D02*
X6624706Y-12988460D01*
X6624706Y-12988460D02*
X6605658Y-12997984D01*
X6605658Y-12997984D02*
X6577087Y-12997984D01*
X6758039Y-12997984D02*
X6738991Y-12988460D01*
X6738991Y-12988460D02*
X6729468Y-12969412D01*
X6729468Y-12969412D02*
X6729468Y-12797984D01*
X6910420Y-12988460D02*
X6891372Y-12997984D01*
X6891372Y-12997984D02*
X6853277Y-12997984D01*
X6853277Y-12997984D02*
X6834230Y-12988460D01*
X6834230Y-12988460D02*
X6824706Y-12969412D01*
X6824706Y-12969412D02*
X6824706Y-12893222D01*
X6824706Y-12893222D02*
X6834230Y-12874174D01*
X6834230Y-12874174D02*
X6853277Y-12864650D01*
X6853277Y-12864650D02*
X6891372Y-12864650D01*
X6891372Y-12864650D02*
X6910420Y-12874174D01*
X6910420Y-12874174D02*
X6919944Y-12893222D01*
X6919944Y-12893222D02*
X6919944Y-12912269D01*
X6919944Y-12912269D02*
X6824706Y-12931317D01*
X6996134Y-12988460D02*
X7015182Y-12997984D01*
X7015182Y-12997984D02*
X7053277Y-12997984D01*
X7053277Y-12997984D02*
X7072325Y-12988460D01*
X7072325Y-12988460D02*
X7081849Y-12969412D01*
X7081849Y-12969412D02*
X7081849Y-12959888D01*
X7081849Y-12959888D02*
X7072325Y-12940841D01*
X7072325Y-12940841D02*
X7053277Y-12931317D01*
X7053277Y-12931317D02*
X7024706Y-12931317D01*
X7024706Y-12931317D02*
X7005658Y-12921793D01*
X7005658Y-12921793D02*
X6996134Y-12902746D01*
X6996134Y-12902746D02*
X6996134Y-12893222D01*
X6996134Y-12893222D02*
X7005658Y-12874174D01*
X7005658Y-12874174D02*
X7024706Y-12864650D01*
X7024706Y-12864650D02*
X7053277Y-12864650D01*
X7053277Y-12864650D02*
X7072325Y-12874174D01*
X7148515Y-13074174D02*
X7158039Y-13064650D01*
X7158039Y-13064650D02*
X7177087Y-13036079D01*
X7177087Y-13036079D02*
X7186611Y-13017031D01*
X7186611Y-13017031D02*
X7196134Y-12988460D01*
X7196134Y-12988460D02*
X7205658Y-12940841D01*
X7205658Y-12940841D02*
X7205658Y-12902746D01*
X7205658Y-12902746D02*
X7196134Y-12855127D01*
X7196134Y-12855127D02*
X7186611Y-12826555D01*
X7186611Y-12826555D02*
X7177087Y-12807508D01*
X7177087Y-12807508D02*
X7158039Y-12778936D01*
X7158039Y-12778936D02*
X7148515Y-12769412D01*
D12*
X1972500Y-13150500D02*
X1972500Y-13190500D01*
X1952500Y-13170500D02*
X1992500Y-13170500D01*
D11*
X2291372Y-13061984D02*
X2310420Y-13061984D01*
X2310420Y-13061984D02*
X2329467Y-13071508D01*
X2329467Y-13071508D02*
X2338991Y-13081031D01*
X2338991Y-13081031D02*
X2348515Y-13100079D01*
X2348515Y-13100079D02*
X2358039Y-13138174D01*
X2358039Y-13138174D02*
X2358039Y-13185793D01*
X2358039Y-13185793D02*
X2348515Y-13223888D01*
X2348515Y-13223888D02*
X2338991Y-13242936D01*
X2338991Y-13242936D02*
X2329467Y-13252460D01*
X2329467Y-13252460D02*
X2310420Y-13261984D01*
X2310420Y-13261984D02*
X2291372Y-13261984D01*
X2291372Y-13261984D02*
X2272324Y-13252460D01*
X2272324Y-13252460D02*
X2262801Y-13242936D01*
X2262801Y-13242936D02*
X2253277Y-13223888D01*
X2253277Y-13223888D02*
X2243753Y-13185793D01*
X2243753Y-13185793D02*
X2243753Y-13138174D01*
X2243753Y-13138174D02*
X2253277Y-13100079D01*
X2253277Y-13100079D02*
X2262801Y-13081031D01*
X2262801Y-13081031D02*
X2272324Y-13071508D01*
X2272324Y-13071508D02*
X2291372Y-13061984D01*
X2443753Y-13242936D02*
X2453277Y-13252460D01*
X2453277Y-13252460D02*
X2443753Y-13261984D01*
X2443753Y-13261984D02*
X2434229Y-13252460D01*
X2434229Y-13252460D02*
X2443753Y-13242936D01*
X2443753Y-13242936D02*
X2443753Y-13261984D01*
X2624705Y-13128650D02*
X2624705Y-13261984D01*
X2577086Y-13052460D02*
X2529467Y-13195317D01*
X2529467Y-13195317D02*
X2653277Y-13195317D01*
X2767563Y-13061984D02*
X2786610Y-13061984D01*
X2786610Y-13061984D02*
X2805658Y-13071508D01*
X2805658Y-13071508D02*
X2815182Y-13081031D01*
X2815182Y-13081031D02*
X2824705Y-13100079D01*
X2824705Y-13100079D02*
X2834229Y-13138174D01*
X2834229Y-13138174D02*
X2834229Y-13185793D01*
X2834229Y-13185793D02*
X2824705Y-13223888D01*
X2824705Y-13223888D02*
X2815182Y-13242936D01*
X2815182Y-13242936D02*
X2805658Y-13252460D01*
X2805658Y-13252460D02*
X2786610Y-13261984D01*
X2786610Y-13261984D02*
X2767563Y-13261984D01*
X2767563Y-13261984D02*
X2748515Y-13252460D01*
X2748515Y-13252460D02*
X2738991Y-13242936D01*
X2738991Y-13242936D02*
X2729467Y-13223888D01*
X2729467Y-13223888D02*
X2719944Y-13185793D01*
X2719944Y-13185793D02*
X2719944Y-13138174D01*
X2719944Y-13138174D02*
X2729467Y-13100079D01*
X2729467Y-13100079D02*
X2738991Y-13081031D01*
X2738991Y-13081031D02*
X2748515Y-13071508D01*
X2748515Y-13071508D02*
X2767563Y-13061984D01*
X2958039Y-13061984D02*
X2977086Y-13061984D01*
X2977086Y-13061984D02*
X2996134Y-13071508D01*
X2996134Y-13071508D02*
X3005658Y-13081031D01*
X3005658Y-13081031D02*
X3015182Y-13100079D01*
X3015182Y-13100079D02*
X3024705Y-13138174D01*
X3024705Y-13138174D02*
X3024705Y-13185793D01*
X3024705Y-13185793D02*
X3015182Y-13223888D01*
X3015182Y-13223888D02*
X3005658Y-13242936D01*
X3005658Y-13242936D02*
X2996134Y-13252460D01*
X2996134Y-13252460D02*
X2977086Y-13261984D01*
X2977086Y-13261984D02*
X2958039Y-13261984D01*
X2958039Y-13261984D02*
X2938991Y-13252460D01*
X2938991Y-13252460D02*
X2929467Y-13242936D01*
X2929467Y-13242936D02*
X2919943Y-13223888D01*
X2919943Y-13223888D02*
X2910420Y-13185793D01*
X2910420Y-13185793D02*
X2910420Y-13138174D01*
X2910420Y-13138174D02*
X2919943Y-13100079D01*
X2919943Y-13100079D02*
X2929467Y-13081031D01*
X2929467Y-13081031D02*
X2938991Y-13071508D01*
X2938991Y-13071508D02*
X2958039Y-13061984D01*
X3110420Y-13261984D02*
X3110420Y-13128650D01*
X3110420Y-13147698D02*
X3119943Y-13138174D01*
X3119943Y-13138174D02*
X3138991Y-13128650D01*
X3138991Y-13128650D02*
X3167563Y-13128650D01*
X3167563Y-13128650D02*
X3186610Y-13138174D01*
X3186610Y-13138174D02*
X3196134Y-13157222D01*
X3196134Y-13157222D02*
X3196134Y-13261984D01*
X3196134Y-13157222D02*
X3205658Y-13138174D01*
X3205658Y-13138174D02*
X3224705Y-13128650D01*
X3224705Y-13128650D02*
X3253277Y-13128650D01*
X3253277Y-13128650D02*
X3272324Y-13138174D01*
X3272324Y-13138174D02*
X3281848Y-13157222D01*
X3281848Y-13157222D02*
X3281848Y-13261984D01*
X3377086Y-13261984D02*
X3377086Y-13128650D01*
X3377086Y-13147698D02*
X3386610Y-13138174D01*
X3386610Y-13138174D02*
X3405658Y-13128650D01*
X3405658Y-13128650D02*
X3434229Y-13128650D01*
X3434229Y-13128650D02*
X3453277Y-13138174D01*
X3453277Y-13138174D02*
X3462801Y-13157222D01*
X3462801Y-13157222D02*
X3462801Y-13261984D01*
X3462801Y-13157222D02*
X3472324Y-13138174D01*
X3472324Y-13138174D02*
X3491372Y-13128650D01*
X3491372Y-13128650D02*
X3519943Y-13128650D01*
X3519943Y-13128650D02*
X3538991Y-13138174D01*
X3538991Y-13138174D02*
X3548515Y-13157222D01*
X3548515Y-13157222D02*
X3548515Y-13261984D01*
X3938991Y-13052460D02*
X3767563Y-13309603D01*
X4196134Y-13061984D02*
X4215182Y-13061984D01*
X4215182Y-13061984D02*
X4234229Y-13071508D01*
X4234229Y-13071508D02*
X4243753Y-13081031D01*
X4243753Y-13081031D02*
X4253277Y-13100079D01*
X4253277Y-13100079D02*
X4262801Y-13138174D01*
X4262801Y-13138174D02*
X4262801Y-13185793D01*
X4262801Y-13185793D02*
X4253277Y-13223888D01*
X4253277Y-13223888D02*
X4243753Y-13242936D01*
X4243753Y-13242936D02*
X4234229Y-13252460D01*
X4234229Y-13252460D02*
X4215182Y-13261984D01*
X4215182Y-13261984D02*
X4196134Y-13261984D01*
X4196134Y-13261984D02*
X4177086Y-13252460D01*
X4177086Y-13252460D02*
X4167563Y-13242936D01*
X4167563Y-13242936D02*
X4158039Y-13223888D01*
X4158039Y-13223888D02*
X4148515Y-13185793D01*
X4148515Y-13185793D02*
X4148515Y-13138174D01*
X4148515Y-13138174D02*
X4158039Y-13100079D01*
X4158039Y-13100079D02*
X4167563Y-13081031D01*
X4167563Y-13081031D02*
X4177086Y-13071508D01*
X4177086Y-13071508D02*
X4196134Y-13061984D01*
X4348515Y-13242936D02*
X4358039Y-13252460D01*
X4358039Y-13252460D02*
X4348515Y-13261984D01*
X4348515Y-13261984D02*
X4338991Y-13252460D01*
X4338991Y-13252460D02*
X4348515Y-13242936D01*
X4348515Y-13242936D02*
X4348515Y-13261984D01*
X4481848Y-13061984D02*
X4500896Y-13061984D01*
X4500896Y-13061984D02*
X4519944Y-13071508D01*
X4519944Y-13071508D02*
X4529468Y-13081031D01*
X4529468Y-13081031D02*
X4538991Y-13100079D01*
X4538991Y-13100079D02*
X4548515Y-13138174D01*
X4548515Y-13138174D02*
X4548515Y-13185793D01*
X4548515Y-13185793D02*
X4538991Y-13223888D01*
X4538991Y-13223888D02*
X4529468Y-13242936D01*
X4529468Y-13242936D02*
X4519944Y-13252460D01*
X4519944Y-13252460D02*
X4500896Y-13261984D01*
X4500896Y-13261984D02*
X4481848Y-13261984D01*
X4481848Y-13261984D02*
X4462801Y-13252460D01*
X4462801Y-13252460D02*
X4453277Y-13242936D01*
X4453277Y-13242936D02*
X4443753Y-13223888D01*
X4443753Y-13223888D02*
X4434229Y-13185793D01*
X4434229Y-13185793D02*
X4434229Y-13138174D01*
X4434229Y-13138174D02*
X4443753Y-13100079D01*
X4443753Y-13100079D02*
X4453277Y-13081031D01*
X4453277Y-13081031D02*
X4462801Y-13071508D01*
X4462801Y-13071508D02*
X4481848Y-13061984D01*
X4738991Y-13261984D02*
X4624706Y-13261984D01*
X4681848Y-13261984D02*
X4681848Y-13061984D01*
X4681848Y-13061984D02*
X4662801Y-13090555D01*
X4662801Y-13090555D02*
X4643753Y-13109603D01*
X4643753Y-13109603D02*
X4624706Y-13119127D01*
X4919944Y-13061984D02*
X4824706Y-13061984D01*
X4824706Y-13061984D02*
X4815182Y-13157222D01*
X4815182Y-13157222D02*
X4824706Y-13147698D01*
X4824706Y-13147698D02*
X4843753Y-13138174D01*
X4843753Y-13138174D02*
X4891372Y-13138174D01*
X4891372Y-13138174D02*
X4910420Y-13147698D01*
X4910420Y-13147698D02*
X4919944Y-13157222D01*
X4919944Y-13157222D02*
X4929468Y-13176269D01*
X4929468Y-13176269D02*
X4929468Y-13223888D01*
X4929468Y-13223888D02*
X4919944Y-13242936D01*
X4919944Y-13242936D02*
X4910420Y-13252460D01*
X4910420Y-13252460D02*
X4891372Y-13261984D01*
X4891372Y-13261984D02*
X4843753Y-13261984D01*
X4843753Y-13261984D02*
X4824706Y-13252460D01*
X4824706Y-13252460D02*
X4815182Y-13242936D01*
X4996134Y-13061984D02*
X5129468Y-13061984D01*
X5129468Y-13061984D02*
X5043753Y-13261984D01*
X5196134Y-13061984D02*
X5196134Y-13100079D01*
X5272325Y-13061984D02*
X5272325Y-13100079D01*
X5567563Y-13338174D02*
X5558039Y-13328650D01*
X5558039Y-13328650D02*
X5538991Y-13300079D01*
X5538991Y-13300079D02*
X5529468Y-13281031D01*
X5529468Y-13281031D02*
X5519944Y-13252460D01*
X5519944Y-13252460D02*
X5510420Y-13204841D01*
X5510420Y-13204841D02*
X5510420Y-13166746D01*
X5510420Y-13166746D02*
X5519944Y-13119127D01*
X5519944Y-13119127D02*
X5529468Y-13090555D01*
X5529468Y-13090555D02*
X5538991Y-13071508D01*
X5538991Y-13071508D02*
X5558039Y-13042936D01*
X5558039Y-13042936D02*
X5567563Y-13033412D01*
X5748515Y-13261984D02*
X5634229Y-13261984D01*
X5691372Y-13261984D02*
X5691372Y-13061984D01*
X5691372Y-13061984D02*
X5672325Y-13090555D01*
X5672325Y-13090555D02*
X5653277Y-13109603D01*
X5653277Y-13109603D02*
X5634229Y-13119127D01*
X5919944Y-13061984D02*
X5881848Y-13061984D01*
X5881848Y-13061984D02*
X5862801Y-13071508D01*
X5862801Y-13071508D02*
X5853277Y-13081031D01*
X5853277Y-13081031D02*
X5834229Y-13109603D01*
X5834229Y-13109603D02*
X5824706Y-13147698D01*
X5824706Y-13147698D02*
X5824706Y-13223888D01*
X5824706Y-13223888D02*
X5834229Y-13242936D01*
X5834229Y-13242936D02*
X5843753Y-13252460D01*
X5843753Y-13252460D02*
X5862801Y-13261984D01*
X5862801Y-13261984D02*
X5900896Y-13261984D01*
X5900896Y-13261984D02*
X5919944Y-13252460D01*
X5919944Y-13252460D02*
X5929468Y-13242936D01*
X5929468Y-13242936D02*
X5938991Y-13223888D01*
X5938991Y-13223888D02*
X5938991Y-13176269D01*
X5938991Y-13176269D02*
X5929468Y-13157222D01*
X5929468Y-13157222D02*
X5919944Y-13147698D01*
X5919944Y-13147698D02*
X5900896Y-13138174D01*
X5900896Y-13138174D02*
X5862801Y-13138174D01*
X5862801Y-13138174D02*
X5843753Y-13147698D01*
X5843753Y-13147698D02*
X5834229Y-13157222D01*
X5834229Y-13157222D02*
X5824706Y-13176269D01*
X6177087Y-13261984D02*
X6177087Y-13061984D01*
X6262801Y-13261984D02*
X6262801Y-13157222D01*
X6262801Y-13157222D02*
X6253277Y-13138174D01*
X6253277Y-13138174D02*
X6234230Y-13128650D01*
X6234230Y-13128650D02*
X6205658Y-13128650D01*
X6205658Y-13128650D02*
X6186610Y-13138174D01*
X6186610Y-13138174D02*
X6177087Y-13147698D01*
X6386610Y-13261984D02*
X6367563Y-13252460D01*
X6367563Y-13252460D02*
X6358039Y-13242936D01*
X6358039Y-13242936D02*
X6348515Y-13223888D01*
X6348515Y-13223888D02*
X6348515Y-13166746D01*
X6348515Y-13166746D02*
X6358039Y-13147698D01*
X6358039Y-13147698D02*
X6367563Y-13138174D01*
X6367563Y-13138174D02*
X6386610Y-13128650D01*
X6386610Y-13128650D02*
X6415182Y-13128650D01*
X6415182Y-13128650D02*
X6434230Y-13138174D01*
X6434230Y-13138174D02*
X6443753Y-13147698D01*
X6443753Y-13147698D02*
X6453277Y-13166746D01*
X6453277Y-13166746D02*
X6453277Y-13223888D01*
X6453277Y-13223888D02*
X6443753Y-13242936D01*
X6443753Y-13242936D02*
X6434230Y-13252460D01*
X6434230Y-13252460D02*
X6415182Y-13261984D01*
X6415182Y-13261984D02*
X6386610Y-13261984D01*
X6567563Y-13261984D02*
X6548515Y-13252460D01*
X6548515Y-13252460D02*
X6538991Y-13233412D01*
X6538991Y-13233412D02*
X6538991Y-13061984D01*
X6719944Y-13252460D02*
X6700896Y-13261984D01*
X6700896Y-13261984D02*
X6662801Y-13261984D01*
X6662801Y-13261984D02*
X6643753Y-13252460D01*
X6643753Y-13252460D02*
X6634230Y-13233412D01*
X6634230Y-13233412D02*
X6634230Y-13157222D01*
X6634230Y-13157222D02*
X6643753Y-13138174D01*
X6643753Y-13138174D02*
X6662801Y-13128650D01*
X6662801Y-13128650D02*
X6700896Y-13128650D01*
X6700896Y-13128650D02*
X6719944Y-13138174D01*
X6719944Y-13138174D02*
X6729468Y-13157222D01*
X6729468Y-13157222D02*
X6729468Y-13176269D01*
X6729468Y-13176269D02*
X6634230Y-13195317D01*
X6805658Y-13252460D02*
X6824706Y-13261984D01*
X6824706Y-13261984D02*
X6862801Y-13261984D01*
X6862801Y-13261984D02*
X6881849Y-13252460D01*
X6881849Y-13252460D02*
X6891372Y-13233412D01*
X6891372Y-13233412D02*
X6891372Y-13223888D01*
X6891372Y-13223888D02*
X6881849Y-13204841D01*
X6881849Y-13204841D02*
X6862801Y-13195317D01*
X6862801Y-13195317D02*
X6834230Y-13195317D01*
X6834230Y-13195317D02*
X6815182Y-13185793D01*
X6815182Y-13185793D02*
X6805658Y-13166746D01*
X6805658Y-13166746D02*
X6805658Y-13157222D01*
X6805658Y-13157222D02*
X6815182Y-13138174D01*
X6815182Y-13138174D02*
X6834230Y-13128650D01*
X6834230Y-13128650D02*
X6862801Y-13128650D01*
X6862801Y-13128650D02*
X6881849Y-13138174D01*
X6958039Y-13338174D02*
X6967563Y-13328650D01*
X6967563Y-13328650D02*
X6986611Y-13300079D01*
X6986611Y-13300079D02*
X6996134Y-13281031D01*
X6996134Y-13281031D02*
X7005658Y-13252460D01*
X7005658Y-13252460D02*
X7015182Y-13204841D01*
X7015182Y-13204841D02*
X7015182Y-13166746D01*
X7015182Y-13166746D02*
X7005658Y-13119127D01*
X7005658Y-13119127D02*
X6996134Y-13090555D01*
X6996134Y-13090555D02*
X6986611Y-13071508D01*
X6986611Y-13071508D02*
X6967563Y-13042936D01*
X6967563Y-13042936D02*
X6958039Y-13033412D01*
D12*
X1983713Y-13455713D02*
X1983713Y-13413287D01*
X1941287Y-13413287D01*
X1941287Y-13455713D01*
X1983713Y-13455713D01*
D11*
X2291372Y-13325984D02*
X2310420Y-13325984D01*
X2310420Y-13325984D02*
X2329467Y-13335508D01*
X2329467Y-13335508D02*
X2338991Y-13345031D01*
X2338991Y-13345031D02*
X2348515Y-13364079D01*
X2348515Y-13364079D02*
X2358039Y-13402174D01*
X2358039Y-13402174D02*
X2358039Y-13449793D01*
X2358039Y-13449793D02*
X2348515Y-13487888D01*
X2348515Y-13487888D02*
X2338991Y-13506936D01*
X2338991Y-13506936D02*
X2329467Y-13516460D01*
X2329467Y-13516460D02*
X2310420Y-13525984D01*
X2310420Y-13525984D02*
X2291372Y-13525984D01*
X2291372Y-13525984D02*
X2272324Y-13516460D01*
X2272324Y-13516460D02*
X2262801Y-13506936D01*
X2262801Y-13506936D02*
X2253277Y-13487888D01*
X2253277Y-13487888D02*
X2243753Y-13449793D01*
X2243753Y-13449793D02*
X2243753Y-13402174D01*
X2243753Y-13402174D02*
X2253277Y-13364079D01*
X2253277Y-13364079D02*
X2262801Y-13345031D01*
X2262801Y-13345031D02*
X2272324Y-13335508D01*
X2272324Y-13335508D02*
X2291372Y-13325984D01*
X2443753Y-13506936D02*
X2453277Y-13516460D01*
X2453277Y-13516460D02*
X2443753Y-13525984D01*
X2443753Y-13525984D02*
X2434229Y-13516460D01*
X2434229Y-13516460D02*
X2443753Y-13506936D01*
X2443753Y-13506936D02*
X2443753Y-13525984D01*
X2624705Y-13325984D02*
X2586610Y-13325984D01*
X2586610Y-13325984D02*
X2567563Y-13335508D01*
X2567563Y-13335508D02*
X2558039Y-13345031D01*
X2558039Y-13345031D02*
X2538991Y-13373603D01*
X2538991Y-13373603D02*
X2529467Y-13411698D01*
X2529467Y-13411698D02*
X2529467Y-13487888D01*
X2529467Y-13487888D02*
X2538991Y-13506936D01*
X2538991Y-13506936D02*
X2548515Y-13516460D01*
X2548515Y-13516460D02*
X2567563Y-13525984D01*
X2567563Y-13525984D02*
X2605658Y-13525984D01*
X2605658Y-13525984D02*
X2624705Y-13516460D01*
X2624705Y-13516460D02*
X2634229Y-13506936D01*
X2634229Y-13506936D02*
X2643753Y-13487888D01*
X2643753Y-13487888D02*
X2643753Y-13440269D01*
X2643753Y-13440269D02*
X2634229Y-13421222D01*
X2634229Y-13421222D02*
X2624705Y-13411698D01*
X2624705Y-13411698D02*
X2605658Y-13402174D01*
X2605658Y-13402174D02*
X2567563Y-13402174D01*
X2567563Y-13402174D02*
X2548515Y-13411698D01*
X2548515Y-13411698D02*
X2538991Y-13421222D01*
X2538991Y-13421222D02*
X2529467Y-13440269D01*
X2767563Y-13325984D02*
X2786610Y-13325984D01*
X2786610Y-13325984D02*
X2805658Y-13335508D01*
X2805658Y-13335508D02*
X2815182Y-13345031D01*
X2815182Y-13345031D02*
X2824705Y-13364079D01*
X2824705Y-13364079D02*
X2834229Y-13402174D01*
X2834229Y-13402174D02*
X2834229Y-13449793D01*
X2834229Y-13449793D02*
X2824705Y-13487888D01*
X2824705Y-13487888D02*
X2815182Y-13506936D01*
X2815182Y-13506936D02*
X2805658Y-13516460D01*
X2805658Y-13516460D02*
X2786610Y-13525984D01*
X2786610Y-13525984D02*
X2767563Y-13525984D01*
X2767563Y-13525984D02*
X2748515Y-13516460D01*
X2748515Y-13516460D02*
X2738991Y-13506936D01*
X2738991Y-13506936D02*
X2729467Y-13487888D01*
X2729467Y-13487888D02*
X2719944Y-13449793D01*
X2719944Y-13449793D02*
X2719944Y-13402174D01*
X2719944Y-13402174D02*
X2729467Y-13364079D01*
X2729467Y-13364079D02*
X2738991Y-13345031D01*
X2738991Y-13345031D02*
X2748515Y-13335508D01*
X2748515Y-13335508D02*
X2767563Y-13325984D01*
X2958039Y-13325984D02*
X2977086Y-13325984D01*
X2977086Y-13325984D02*
X2996134Y-13335508D01*
X2996134Y-13335508D02*
X3005658Y-13345031D01*
X3005658Y-13345031D02*
X3015182Y-13364079D01*
X3015182Y-13364079D02*
X3024705Y-13402174D01*
X3024705Y-13402174D02*
X3024705Y-13449793D01*
X3024705Y-13449793D02*
X3015182Y-13487888D01*
X3015182Y-13487888D02*
X3005658Y-13506936D01*
X3005658Y-13506936D02*
X2996134Y-13516460D01*
X2996134Y-13516460D02*
X2977086Y-13525984D01*
X2977086Y-13525984D02*
X2958039Y-13525984D01*
X2958039Y-13525984D02*
X2938991Y-13516460D01*
X2938991Y-13516460D02*
X2929467Y-13506936D01*
X2929467Y-13506936D02*
X2919943Y-13487888D01*
X2919943Y-13487888D02*
X2910420Y-13449793D01*
X2910420Y-13449793D02*
X2910420Y-13402174D01*
X2910420Y-13402174D02*
X2919943Y-13364079D01*
X2919943Y-13364079D02*
X2929467Y-13345031D01*
X2929467Y-13345031D02*
X2938991Y-13335508D01*
X2938991Y-13335508D02*
X2958039Y-13325984D01*
X3110420Y-13525984D02*
X3110420Y-13392650D01*
X3110420Y-13411698D02*
X3119943Y-13402174D01*
X3119943Y-13402174D02*
X3138991Y-13392650D01*
X3138991Y-13392650D02*
X3167563Y-13392650D01*
X3167563Y-13392650D02*
X3186610Y-13402174D01*
X3186610Y-13402174D02*
X3196134Y-13421222D01*
X3196134Y-13421222D02*
X3196134Y-13525984D01*
X3196134Y-13421222D02*
X3205658Y-13402174D01*
X3205658Y-13402174D02*
X3224705Y-13392650D01*
X3224705Y-13392650D02*
X3253277Y-13392650D01*
X3253277Y-13392650D02*
X3272324Y-13402174D01*
X3272324Y-13402174D02*
X3281848Y-13421222D01*
X3281848Y-13421222D02*
X3281848Y-13525984D01*
X3377086Y-13525984D02*
X3377086Y-13392650D01*
X3377086Y-13411698D02*
X3386610Y-13402174D01*
X3386610Y-13402174D02*
X3405658Y-13392650D01*
X3405658Y-13392650D02*
X3434229Y-13392650D01*
X3434229Y-13392650D02*
X3453277Y-13402174D01*
X3453277Y-13402174D02*
X3462801Y-13421222D01*
X3462801Y-13421222D02*
X3462801Y-13525984D01*
X3462801Y-13421222D02*
X3472324Y-13402174D01*
X3472324Y-13402174D02*
X3491372Y-13392650D01*
X3491372Y-13392650D02*
X3519943Y-13392650D01*
X3519943Y-13392650D02*
X3538991Y-13402174D01*
X3538991Y-13402174D02*
X3548515Y-13421222D01*
X3548515Y-13421222D02*
X3548515Y-13525984D01*
X3938991Y-13316460D02*
X3767563Y-13573603D01*
X4196134Y-13325984D02*
X4215182Y-13325984D01*
X4215182Y-13325984D02*
X4234229Y-13335508D01*
X4234229Y-13335508D02*
X4243753Y-13345031D01*
X4243753Y-13345031D02*
X4253277Y-13364079D01*
X4253277Y-13364079D02*
X4262801Y-13402174D01*
X4262801Y-13402174D02*
X4262801Y-13449793D01*
X4262801Y-13449793D02*
X4253277Y-13487888D01*
X4253277Y-13487888D02*
X4243753Y-13506936D01*
X4243753Y-13506936D02*
X4234229Y-13516460D01*
X4234229Y-13516460D02*
X4215182Y-13525984D01*
X4215182Y-13525984D02*
X4196134Y-13525984D01*
X4196134Y-13525984D02*
X4177086Y-13516460D01*
X4177086Y-13516460D02*
X4167563Y-13506936D01*
X4167563Y-13506936D02*
X4158039Y-13487888D01*
X4158039Y-13487888D02*
X4148515Y-13449793D01*
X4148515Y-13449793D02*
X4148515Y-13402174D01*
X4148515Y-13402174D02*
X4158039Y-13364079D01*
X4158039Y-13364079D02*
X4167563Y-13345031D01*
X4167563Y-13345031D02*
X4177086Y-13335508D01*
X4177086Y-13335508D02*
X4196134Y-13325984D01*
X4348515Y-13506936D02*
X4358039Y-13516460D01*
X4358039Y-13516460D02*
X4348515Y-13525984D01*
X4348515Y-13525984D02*
X4338991Y-13516460D01*
X4338991Y-13516460D02*
X4348515Y-13506936D01*
X4348515Y-13506936D02*
X4348515Y-13525984D01*
X4481848Y-13325984D02*
X4500896Y-13325984D01*
X4500896Y-13325984D02*
X4519944Y-13335508D01*
X4519944Y-13335508D02*
X4529468Y-13345031D01*
X4529468Y-13345031D02*
X4538991Y-13364079D01*
X4538991Y-13364079D02*
X4548515Y-13402174D01*
X4548515Y-13402174D02*
X4548515Y-13449793D01*
X4548515Y-13449793D02*
X4538991Y-13487888D01*
X4538991Y-13487888D02*
X4529468Y-13506936D01*
X4529468Y-13506936D02*
X4519944Y-13516460D01*
X4519944Y-13516460D02*
X4500896Y-13525984D01*
X4500896Y-13525984D02*
X4481848Y-13525984D01*
X4481848Y-13525984D02*
X4462801Y-13516460D01*
X4462801Y-13516460D02*
X4453277Y-13506936D01*
X4453277Y-13506936D02*
X4443753Y-13487888D01*
X4443753Y-13487888D02*
X4434229Y-13449793D01*
X4434229Y-13449793D02*
X4434229Y-13402174D01*
X4434229Y-13402174D02*
X4443753Y-13364079D01*
X4443753Y-13364079D02*
X4453277Y-13345031D01*
X4453277Y-13345031D02*
X4462801Y-13335508D01*
X4462801Y-13335508D02*
X4481848Y-13325984D01*
X4624706Y-13345031D02*
X4634229Y-13335508D01*
X4634229Y-13335508D02*
X4653277Y-13325984D01*
X4653277Y-13325984D02*
X4700896Y-13325984D01*
X4700896Y-13325984D02*
X4719944Y-13335508D01*
X4719944Y-13335508D02*
X4729468Y-13345031D01*
X4729468Y-13345031D02*
X4738991Y-13364079D01*
X4738991Y-13364079D02*
X4738991Y-13383127D01*
X4738991Y-13383127D02*
X4729468Y-13411698D01*
X4729468Y-13411698D02*
X4615182Y-13525984D01*
X4615182Y-13525984D02*
X4738991Y-13525984D01*
X4805658Y-13325984D02*
X4929468Y-13325984D01*
X4929468Y-13325984D02*
X4862801Y-13402174D01*
X4862801Y-13402174D02*
X4891372Y-13402174D01*
X4891372Y-13402174D02*
X4910420Y-13411698D01*
X4910420Y-13411698D02*
X4919944Y-13421222D01*
X4919944Y-13421222D02*
X4929468Y-13440269D01*
X4929468Y-13440269D02*
X4929468Y-13487888D01*
X4929468Y-13487888D02*
X4919944Y-13506936D01*
X4919944Y-13506936D02*
X4910420Y-13516460D01*
X4910420Y-13516460D02*
X4891372Y-13525984D01*
X4891372Y-13525984D02*
X4834229Y-13525984D01*
X4834229Y-13525984D02*
X4815182Y-13516460D01*
X4815182Y-13516460D02*
X4805658Y-13506936D01*
X5100896Y-13325984D02*
X5062801Y-13325984D01*
X5062801Y-13325984D02*
X5043753Y-13335508D01*
X5043753Y-13335508D02*
X5034229Y-13345031D01*
X5034229Y-13345031D02*
X5015182Y-13373603D01*
X5015182Y-13373603D02*
X5005658Y-13411698D01*
X5005658Y-13411698D02*
X5005658Y-13487888D01*
X5005658Y-13487888D02*
X5015182Y-13506936D01*
X5015182Y-13506936D02*
X5024706Y-13516460D01*
X5024706Y-13516460D02*
X5043753Y-13525984D01*
X5043753Y-13525984D02*
X5081849Y-13525984D01*
X5081849Y-13525984D02*
X5100896Y-13516460D01*
X5100896Y-13516460D02*
X5110420Y-13506936D01*
X5110420Y-13506936D02*
X5119944Y-13487888D01*
X5119944Y-13487888D02*
X5119944Y-13440269D01*
X5119944Y-13440269D02*
X5110420Y-13421222D01*
X5110420Y-13421222D02*
X5100896Y-13411698D01*
X5100896Y-13411698D02*
X5081849Y-13402174D01*
X5081849Y-13402174D02*
X5043753Y-13402174D01*
X5043753Y-13402174D02*
X5024706Y-13411698D01*
X5024706Y-13411698D02*
X5015182Y-13421222D01*
X5015182Y-13421222D02*
X5005658Y-13440269D01*
X5196134Y-13325984D02*
X5196134Y-13364079D01*
X5272325Y-13325984D02*
X5272325Y-13364079D01*
X5567563Y-13602174D02*
X5558039Y-13592650D01*
X5558039Y-13592650D02*
X5538991Y-13564079D01*
X5538991Y-13564079D02*
X5529468Y-13545031D01*
X5529468Y-13545031D02*
X5519944Y-13516460D01*
X5519944Y-13516460D02*
X5510420Y-13468841D01*
X5510420Y-13468841D02*
X5510420Y-13430746D01*
X5510420Y-13430746D02*
X5519944Y-13383127D01*
X5519944Y-13383127D02*
X5529468Y-13354555D01*
X5529468Y-13354555D02*
X5538991Y-13335508D01*
X5538991Y-13335508D02*
X5558039Y-13306936D01*
X5558039Y-13306936D02*
X5567563Y-13297412D01*
X5681848Y-13325984D02*
X5700896Y-13325984D01*
X5700896Y-13325984D02*
X5719944Y-13335508D01*
X5719944Y-13335508D02*
X5729468Y-13345031D01*
X5729468Y-13345031D02*
X5738991Y-13364079D01*
X5738991Y-13364079D02*
X5748515Y-13402174D01*
X5748515Y-13402174D02*
X5748515Y-13449793D01*
X5748515Y-13449793D02*
X5738991Y-13487888D01*
X5738991Y-13487888D02*
X5729468Y-13506936D01*
X5729468Y-13506936D02*
X5719944Y-13516460D01*
X5719944Y-13516460D02*
X5700896Y-13525984D01*
X5700896Y-13525984D02*
X5681848Y-13525984D01*
X5681848Y-13525984D02*
X5662801Y-13516460D01*
X5662801Y-13516460D02*
X5653277Y-13506936D01*
X5653277Y-13506936D02*
X5643753Y-13487888D01*
X5643753Y-13487888D02*
X5634229Y-13449793D01*
X5634229Y-13449793D02*
X5634229Y-13402174D01*
X5634229Y-13402174D02*
X5643753Y-13364079D01*
X5643753Y-13364079D02*
X5653277Y-13345031D01*
X5653277Y-13345031D02*
X5662801Y-13335508D01*
X5662801Y-13335508D02*
X5681848Y-13325984D01*
X5986610Y-13525984D02*
X5986610Y-13325984D01*
X6072325Y-13525984D02*
X6072325Y-13421222D01*
X6072325Y-13421222D02*
X6062801Y-13402174D01*
X6062801Y-13402174D02*
X6043753Y-13392650D01*
X6043753Y-13392650D02*
X6015182Y-13392650D01*
X6015182Y-13392650D02*
X5996134Y-13402174D01*
X5996134Y-13402174D02*
X5986610Y-13411698D01*
X6196134Y-13525984D02*
X6177087Y-13516460D01*
X6177087Y-13516460D02*
X6167563Y-13506936D01*
X6167563Y-13506936D02*
X6158039Y-13487888D01*
X6158039Y-13487888D02*
X6158039Y-13430746D01*
X6158039Y-13430746D02*
X6167563Y-13411698D01*
X6167563Y-13411698D02*
X6177087Y-13402174D01*
X6177087Y-13402174D02*
X6196134Y-13392650D01*
X6196134Y-13392650D02*
X6224706Y-13392650D01*
X6224706Y-13392650D02*
X6243753Y-13402174D01*
X6243753Y-13402174D02*
X6253277Y-13411698D01*
X6253277Y-13411698D02*
X6262801Y-13430746D01*
X6262801Y-13430746D02*
X6262801Y-13487888D01*
X6262801Y-13487888D02*
X6253277Y-13506936D01*
X6253277Y-13506936D02*
X6243753Y-13516460D01*
X6243753Y-13516460D02*
X6224706Y-13525984D01*
X6224706Y-13525984D02*
X6196134Y-13525984D01*
X6377087Y-13525984D02*
X6358039Y-13516460D01*
X6358039Y-13516460D02*
X6348515Y-13497412D01*
X6348515Y-13497412D02*
X6348515Y-13325984D01*
X6529468Y-13516460D02*
X6510420Y-13525984D01*
X6510420Y-13525984D02*
X6472325Y-13525984D01*
X6472325Y-13525984D02*
X6453277Y-13516460D01*
X6453277Y-13516460D02*
X6443753Y-13497412D01*
X6443753Y-13497412D02*
X6443753Y-13421222D01*
X6443753Y-13421222D02*
X6453277Y-13402174D01*
X6453277Y-13402174D02*
X6472325Y-13392650D01*
X6472325Y-13392650D02*
X6510420Y-13392650D01*
X6510420Y-13392650D02*
X6529468Y-13402174D01*
X6529468Y-13402174D02*
X6538991Y-13421222D01*
X6538991Y-13421222D02*
X6538991Y-13440269D01*
X6538991Y-13440269D02*
X6443753Y-13459317D01*
X6615182Y-13516460D02*
X6634230Y-13525984D01*
X6634230Y-13525984D02*
X6672325Y-13525984D01*
X6672325Y-13525984D02*
X6691372Y-13516460D01*
X6691372Y-13516460D02*
X6700896Y-13497412D01*
X6700896Y-13497412D02*
X6700896Y-13487888D01*
X6700896Y-13487888D02*
X6691372Y-13468841D01*
X6691372Y-13468841D02*
X6672325Y-13459317D01*
X6672325Y-13459317D02*
X6643753Y-13459317D01*
X6643753Y-13459317D02*
X6624706Y-13449793D01*
X6624706Y-13449793D02*
X6615182Y-13430746D01*
X6615182Y-13430746D02*
X6615182Y-13421222D01*
X6615182Y-13421222D02*
X6624706Y-13402174D01*
X6624706Y-13402174D02*
X6643753Y-13392650D01*
X6643753Y-13392650D02*
X6672325Y-13392650D01*
X6672325Y-13392650D02*
X6691372Y-13402174D01*
X6938992Y-13449793D02*
X7091373Y-13449793D01*
X7015182Y-13525984D02*
X7015182Y-13373603D01*
X7424706Y-13392650D02*
X7424706Y-13525984D01*
X7377087Y-13316460D02*
X7329468Y-13459317D01*
X7329468Y-13459317D02*
X7453277Y-13459317D01*
X7672325Y-13516460D02*
X7691373Y-13525984D01*
X7691373Y-13525984D02*
X7729468Y-13525984D01*
X7729468Y-13525984D02*
X7748515Y-13516460D01*
X7748515Y-13516460D02*
X7758039Y-13497412D01*
X7758039Y-13497412D02*
X7758039Y-13487888D01*
X7758039Y-13487888D02*
X7748515Y-13468841D01*
X7748515Y-13468841D02*
X7729468Y-13459317D01*
X7729468Y-13459317D02*
X7700896Y-13459317D01*
X7700896Y-13459317D02*
X7681849Y-13449793D01*
X7681849Y-13449793D02*
X7672325Y-13430746D01*
X7672325Y-13430746D02*
X7672325Y-13421222D01*
X7672325Y-13421222D02*
X7681849Y-13402174D01*
X7681849Y-13402174D02*
X7700896Y-13392650D01*
X7700896Y-13392650D02*
X7729468Y-13392650D01*
X7729468Y-13392650D02*
X7748515Y-13402174D01*
X7872325Y-13525984D02*
X7853277Y-13516460D01*
X7853277Y-13516460D02*
X7843754Y-13497412D01*
X7843754Y-13497412D02*
X7843754Y-13325984D01*
X7977087Y-13525984D02*
X7958039Y-13516460D01*
X7958039Y-13516460D02*
X7948515Y-13506936D01*
X7948515Y-13506936D02*
X7938992Y-13487888D01*
X7938992Y-13487888D02*
X7938992Y-13430746D01*
X7938992Y-13430746D02*
X7948515Y-13411698D01*
X7948515Y-13411698D02*
X7958039Y-13402174D01*
X7958039Y-13402174D02*
X7977087Y-13392650D01*
X7977087Y-13392650D02*
X8005658Y-13392650D01*
X8005658Y-13392650D02*
X8024706Y-13402174D01*
X8024706Y-13402174D02*
X8034230Y-13411698D01*
X8034230Y-13411698D02*
X8043754Y-13430746D01*
X8043754Y-13430746D02*
X8043754Y-13487888D01*
X8043754Y-13487888D02*
X8034230Y-13506936D01*
X8034230Y-13506936D02*
X8024706Y-13516460D01*
X8024706Y-13516460D02*
X8005658Y-13525984D01*
X8005658Y-13525984D02*
X7977087Y-13525984D01*
X8100896Y-13392650D02*
X8177087Y-13392650D01*
X8129468Y-13325984D02*
X8129468Y-13497412D01*
X8129468Y-13497412D02*
X8138992Y-13516460D01*
X8138992Y-13516460D02*
X8158039Y-13525984D01*
X8158039Y-13525984D02*
X8177087Y-13525984D01*
X8234230Y-13516460D02*
X8253277Y-13525984D01*
X8253277Y-13525984D02*
X8291373Y-13525984D01*
X8291373Y-13525984D02*
X8310420Y-13516460D01*
X8310420Y-13516460D02*
X8319944Y-13497412D01*
X8319944Y-13497412D02*
X8319944Y-13487888D01*
X8319944Y-13487888D02*
X8310420Y-13468841D01*
X8310420Y-13468841D02*
X8291373Y-13459317D01*
X8291373Y-13459317D02*
X8262801Y-13459317D01*
X8262801Y-13459317D02*
X8243754Y-13449793D01*
X8243754Y-13449793D02*
X8234230Y-13430746D01*
X8234230Y-13430746D02*
X8234230Y-13421222D01*
X8234230Y-13421222D02*
X8243754Y-13402174D01*
X8243754Y-13402174D02*
X8262801Y-13392650D01*
X8262801Y-13392650D02*
X8291373Y-13392650D01*
X8291373Y-13392650D02*
X8310420Y-13402174D01*
X8386611Y-13602174D02*
X8396135Y-13592650D01*
X8396135Y-13592650D02*
X8415182Y-13564079D01*
X8415182Y-13564079D02*
X8424706Y-13545031D01*
X8424706Y-13545031D02*
X8434230Y-13516460D01*
X8434230Y-13516460D02*
X8443754Y-13468841D01*
X8443754Y-13468841D02*
X8443754Y-13430746D01*
X8443754Y-13430746D02*
X8434230Y-13383127D01*
X8434230Y-13383127D02*
X8424706Y-13354555D01*
X8424706Y-13354555D02*
X8415182Y-13335508D01*
X8415182Y-13335508D02*
X8396135Y-13306936D01*
X8396135Y-13306936D02*
X8386611Y-13297412D01*
D12*
X1942500Y-13748500D02*
X1992500Y-13698500D01*
X1942500Y-13648500D01*
X1892500Y-13698500D01*
X1942500Y-13748500D01*
D11*
X2358039Y-13789984D02*
X2243753Y-13789984D01*
X2300896Y-13789984D02*
X2300896Y-13589984D01*
X2300896Y-13589984D02*
X2281848Y-13618555D01*
X2281848Y-13618555D02*
X2262801Y-13637603D01*
X2262801Y-13637603D02*
X2243753Y-13647127D01*
X2443753Y-13770936D02*
X2453277Y-13780460D01*
X2453277Y-13780460D02*
X2443753Y-13789984D01*
X2443753Y-13789984D02*
X2434229Y-13780460D01*
X2434229Y-13780460D02*
X2443753Y-13770936D01*
X2443753Y-13770936D02*
X2443753Y-13789984D01*
X2577086Y-13589984D02*
X2596134Y-13589984D01*
X2596134Y-13589984D02*
X2615182Y-13599508D01*
X2615182Y-13599508D02*
X2624705Y-13609031D01*
X2624705Y-13609031D02*
X2634229Y-13628079D01*
X2634229Y-13628079D02*
X2643753Y-13666174D01*
X2643753Y-13666174D02*
X2643753Y-13713793D01*
X2643753Y-13713793D02*
X2634229Y-13751888D01*
X2634229Y-13751888D02*
X2624705Y-13770936D01*
X2624705Y-13770936D02*
X2615182Y-13780460D01*
X2615182Y-13780460D02*
X2596134Y-13789984D01*
X2596134Y-13789984D02*
X2577086Y-13789984D01*
X2577086Y-13789984D02*
X2558039Y-13780460D01*
X2558039Y-13780460D02*
X2548515Y-13770936D01*
X2548515Y-13770936D02*
X2538991Y-13751888D01*
X2538991Y-13751888D02*
X2529467Y-13713793D01*
X2529467Y-13713793D02*
X2529467Y-13666174D01*
X2529467Y-13666174D02*
X2538991Y-13628079D01*
X2538991Y-13628079D02*
X2548515Y-13609031D01*
X2548515Y-13609031D02*
X2558039Y-13599508D01*
X2558039Y-13599508D02*
X2577086Y-13589984D01*
X2767563Y-13589984D02*
X2786610Y-13589984D01*
X2786610Y-13589984D02*
X2805658Y-13599508D01*
X2805658Y-13599508D02*
X2815182Y-13609031D01*
X2815182Y-13609031D02*
X2824705Y-13628079D01*
X2824705Y-13628079D02*
X2834229Y-13666174D01*
X2834229Y-13666174D02*
X2834229Y-13713793D01*
X2834229Y-13713793D02*
X2824705Y-13751888D01*
X2824705Y-13751888D02*
X2815182Y-13770936D01*
X2815182Y-13770936D02*
X2805658Y-13780460D01*
X2805658Y-13780460D02*
X2786610Y-13789984D01*
X2786610Y-13789984D02*
X2767563Y-13789984D01*
X2767563Y-13789984D02*
X2748515Y-13780460D01*
X2748515Y-13780460D02*
X2738991Y-13770936D01*
X2738991Y-13770936D02*
X2729467Y-13751888D01*
X2729467Y-13751888D02*
X2719944Y-13713793D01*
X2719944Y-13713793D02*
X2719944Y-13666174D01*
X2719944Y-13666174D02*
X2729467Y-13628079D01*
X2729467Y-13628079D02*
X2738991Y-13609031D01*
X2738991Y-13609031D02*
X2748515Y-13599508D01*
X2748515Y-13599508D02*
X2767563Y-13589984D01*
X2958039Y-13589984D02*
X2977086Y-13589984D01*
X2977086Y-13589984D02*
X2996134Y-13599508D01*
X2996134Y-13599508D02*
X3005658Y-13609031D01*
X3005658Y-13609031D02*
X3015182Y-13628079D01*
X3015182Y-13628079D02*
X3024705Y-13666174D01*
X3024705Y-13666174D02*
X3024705Y-13713793D01*
X3024705Y-13713793D02*
X3015182Y-13751888D01*
X3015182Y-13751888D02*
X3005658Y-13770936D01*
X3005658Y-13770936D02*
X2996134Y-13780460D01*
X2996134Y-13780460D02*
X2977086Y-13789984D01*
X2977086Y-13789984D02*
X2958039Y-13789984D01*
X2958039Y-13789984D02*
X2938991Y-13780460D01*
X2938991Y-13780460D02*
X2929467Y-13770936D01*
X2929467Y-13770936D02*
X2919943Y-13751888D01*
X2919943Y-13751888D02*
X2910420Y-13713793D01*
X2910420Y-13713793D02*
X2910420Y-13666174D01*
X2910420Y-13666174D02*
X2919943Y-13628079D01*
X2919943Y-13628079D02*
X2929467Y-13609031D01*
X2929467Y-13609031D02*
X2938991Y-13599508D01*
X2938991Y-13599508D02*
X2958039Y-13589984D01*
X3110420Y-13789984D02*
X3110420Y-13656650D01*
X3110420Y-13675698D02*
X3119943Y-13666174D01*
X3119943Y-13666174D02*
X3138991Y-13656650D01*
X3138991Y-13656650D02*
X3167563Y-13656650D01*
X3167563Y-13656650D02*
X3186610Y-13666174D01*
X3186610Y-13666174D02*
X3196134Y-13685222D01*
X3196134Y-13685222D02*
X3196134Y-13789984D01*
X3196134Y-13685222D02*
X3205658Y-13666174D01*
X3205658Y-13666174D02*
X3224705Y-13656650D01*
X3224705Y-13656650D02*
X3253277Y-13656650D01*
X3253277Y-13656650D02*
X3272324Y-13666174D01*
X3272324Y-13666174D02*
X3281848Y-13685222D01*
X3281848Y-13685222D02*
X3281848Y-13789984D01*
X3377086Y-13789984D02*
X3377086Y-13656650D01*
X3377086Y-13675698D02*
X3386610Y-13666174D01*
X3386610Y-13666174D02*
X3405658Y-13656650D01*
X3405658Y-13656650D02*
X3434229Y-13656650D01*
X3434229Y-13656650D02*
X3453277Y-13666174D01*
X3453277Y-13666174D02*
X3462801Y-13685222D01*
X3462801Y-13685222D02*
X3462801Y-13789984D01*
X3462801Y-13685222D02*
X3472324Y-13666174D01*
X3472324Y-13666174D02*
X3491372Y-13656650D01*
X3491372Y-13656650D02*
X3519943Y-13656650D01*
X3519943Y-13656650D02*
X3538991Y-13666174D01*
X3538991Y-13666174D02*
X3548515Y-13685222D01*
X3548515Y-13685222D02*
X3548515Y-13789984D01*
X3938991Y-13580460D02*
X3767563Y-13837603D01*
X4196134Y-13589984D02*
X4215182Y-13589984D01*
X4215182Y-13589984D02*
X4234229Y-13599508D01*
X4234229Y-13599508D02*
X4243753Y-13609031D01*
X4243753Y-13609031D02*
X4253277Y-13628079D01*
X4253277Y-13628079D02*
X4262801Y-13666174D01*
X4262801Y-13666174D02*
X4262801Y-13713793D01*
X4262801Y-13713793D02*
X4253277Y-13751888D01*
X4253277Y-13751888D02*
X4243753Y-13770936D01*
X4243753Y-13770936D02*
X4234229Y-13780460D01*
X4234229Y-13780460D02*
X4215182Y-13789984D01*
X4215182Y-13789984D02*
X4196134Y-13789984D01*
X4196134Y-13789984D02*
X4177086Y-13780460D01*
X4177086Y-13780460D02*
X4167563Y-13770936D01*
X4167563Y-13770936D02*
X4158039Y-13751888D01*
X4158039Y-13751888D02*
X4148515Y-13713793D01*
X4148515Y-13713793D02*
X4148515Y-13666174D01*
X4148515Y-13666174D02*
X4158039Y-13628079D01*
X4158039Y-13628079D02*
X4167563Y-13609031D01*
X4167563Y-13609031D02*
X4177086Y-13599508D01*
X4177086Y-13599508D02*
X4196134Y-13589984D01*
X4348515Y-13770936D02*
X4358039Y-13780460D01*
X4358039Y-13780460D02*
X4348515Y-13789984D01*
X4348515Y-13789984D02*
X4338991Y-13780460D01*
X4338991Y-13780460D02*
X4348515Y-13770936D01*
X4348515Y-13770936D02*
X4348515Y-13789984D01*
X4481848Y-13589984D02*
X4500896Y-13589984D01*
X4500896Y-13589984D02*
X4519944Y-13599508D01*
X4519944Y-13599508D02*
X4529468Y-13609031D01*
X4529468Y-13609031D02*
X4538991Y-13628079D01*
X4538991Y-13628079D02*
X4548515Y-13666174D01*
X4548515Y-13666174D02*
X4548515Y-13713793D01*
X4548515Y-13713793D02*
X4538991Y-13751888D01*
X4538991Y-13751888D02*
X4529468Y-13770936D01*
X4529468Y-13770936D02*
X4519944Y-13780460D01*
X4519944Y-13780460D02*
X4500896Y-13789984D01*
X4500896Y-13789984D02*
X4481848Y-13789984D01*
X4481848Y-13789984D02*
X4462801Y-13780460D01*
X4462801Y-13780460D02*
X4453277Y-13770936D01*
X4453277Y-13770936D02*
X4443753Y-13751888D01*
X4443753Y-13751888D02*
X4434229Y-13713793D01*
X4434229Y-13713793D02*
X4434229Y-13666174D01*
X4434229Y-13666174D02*
X4443753Y-13628079D01*
X4443753Y-13628079D02*
X4453277Y-13609031D01*
X4453277Y-13609031D02*
X4462801Y-13599508D01*
X4462801Y-13599508D02*
X4481848Y-13589984D01*
X4615182Y-13589984D02*
X4738991Y-13589984D01*
X4738991Y-13589984D02*
X4672325Y-13666174D01*
X4672325Y-13666174D02*
X4700896Y-13666174D01*
X4700896Y-13666174D02*
X4719944Y-13675698D01*
X4719944Y-13675698D02*
X4729468Y-13685222D01*
X4729468Y-13685222D02*
X4738991Y-13704269D01*
X4738991Y-13704269D02*
X4738991Y-13751888D01*
X4738991Y-13751888D02*
X4729468Y-13770936D01*
X4729468Y-13770936D02*
X4719944Y-13780460D01*
X4719944Y-13780460D02*
X4700896Y-13789984D01*
X4700896Y-13789984D02*
X4643753Y-13789984D01*
X4643753Y-13789984D02*
X4624706Y-13780460D01*
X4624706Y-13780460D02*
X4615182Y-13770936D01*
X4834229Y-13789984D02*
X4872325Y-13789984D01*
X4872325Y-13789984D02*
X4891372Y-13780460D01*
X4891372Y-13780460D02*
X4900896Y-13770936D01*
X4900896Y-13770936D02*
X4919944Y-13742365D01*
X4919944Y-13742365D02*
X4929468Y-13704269D01*
X4929468Y-13704269D02*
X4929468Y-13628079D01*
X4929468Y-13628079D02*
X4919944Y-13609031D01*
X4919944Y-13609031D02*
X4910420Y-13599508D01*
X4910420Y-13599508D02*
X4891372Y-13589984D01*
X4891372Y-13589984D02*
X4853277Y-13589984D01*
X4853277Y-13589984D02*
X4834229Y-13599508D01*
X4834229Y-13599508D02*
X4824706Y-13609031D01*
X4824706Y-13609031D02*
X4815182Y-13628079D01*
X4815182Y-13628079D02*
X4815182Y-13675698D01*
X4815182Y-13675698D02*
X4824706Y-13694746D01*
X4824706Y-13694746D02*
X4834229Y-13704269D01*
X4834229Y-13704269D02*
X4853277Y-13713793D01*
X4853277Y-13713793D02*
X4891372Y-13713793D01*
X4891372Y-13713793D02*
X4910420Y-13704269D01*
X4910420Y-13704269D02*
X4919944Y-13694746D01*
X4919944Y-13694746D02*
X4929468Y-13675698D01*
X5100896Y-13656650D02*
X5100896Y-13789984D01*
X5053277Y-13580460D02*
X5005658Y-13723317D01*
X5005658Y-13723317D02*
X5129468Y-13723317D01*
X5196134Y-13589984D02*
X5196134Y-13628079D01*
X5272325Y-13589984D02*
X5272325Y-13628079D01*
X5567563Y-13866174D02*
X5558039Y-13856650D01*
X5558039Y-13856650D02*
X5538991Y-13828079D01*
X5538991Y-13828079D02*
X5529468Y-13809031D01*
X5529468Y-13809031D02*
X5519944Y-13780460D01*
X5519944Y-13780460D02*
X5510420Y-13732841D01*
X5510420Y-13732841D02*
X5510420Y-13694746D01*
X5510420Y-13694746D02*
X5519944Y-13647127D01*
X5519944Y-13647127D02*
X5529468Y-13618555D01*
X5529468Y-13618555D02*
X5538991Y-13599508D01*
X5538991Y-13599508D02*
X5558039Y-13570936D01*
X5558039Y-13570936D02*
X5567563Y-13561412D01*
X5748515Y-13789984D02*
X5634229Y-13789984D01*
X5691372Y-13789984D02*
X5691372Y-13589984D01*
X5691372Y-13589984D02*
X5672325Y-13618555D01*
X5672325Y-13618555D02*
X5653277Y-13637603D01*
X5653277Y-13637603D02*
X5634229Y-13647127D01*
X5843753Y-13789984D02*
X5881848Y-13789984D01*
X5881848Y-13789984D02*
X5900896Y-13780460D01*
X5900896Y-13780460D02*
X5910420Y-13770936D01*
X5910420Y-13770936D02*
X5929468Y-13742365D01*
X5929468Y-13742365D02*
X5938991Y-13704269D01*
X5938991Y-13704269D02*
X5938991Y-13628079D01*
X5938991Y-13628079D02*
X5929468Y-13609031D01*
X5929468Y-13609031D02*
X5919944Y-13599508D01*
X5919944Y-13599508D02*
X5900896Y-13589984D01*
X5900896Y-13589984D02*
X5862801Y-13589984D01*
X5862801Y-13589984D02*
X5843753Y-13599508D01*
X5843753Y-13599508D02*
X5834229Y-13609031D01*
X5834229Y-13609031D02*
X5824706Y-13628079D01*
X5824706Y-13628079D02*
X5824706Y-13675698D01*
X5824706Y-13675698D02*
X5834229Y-13694746D01*
X5834229Y-13694746D02*
X5843753Y-13704269D01*
X5843753Y-13704269D02*
X5862801Y-13713793D01*
X5862801Y-13713793D02*
X5900896Y-13713793D01*
X5900896Y-13713793D02*
X5919944Y-13704269D01*
X5919944Y-13704269D02*
X5929468Y-13694746D01*
X5929468Y-13694746D02*
X5938991Y-13675698D01*
X6129468Y-13789984D02*
X6015182Y-13789984D01*
X6072325Y-13789984D02*
X6072325Y-13589984D01*
X6072325Y-13589984D02*
X6053277Y-13618555D01*
X6053277Y-13618555D02*
X6034229Y-13637603D01*
X6034229Y-13637603D02*
X6015182Y-13647127D01*
X6367563Y-13789984D02*
X6367563Y-13589984D01*
X6453277Y-13789984D02*
X6453277Y-13685222D01*
X6453277Y-13685222D02*
X6443753Y-13666174D01*
X6443753Y-13666174D02*
X6424706Y-13656650D01*
X6424706Y-13656650D02*
X6396134Y-13656650D01*
X6396134Y-13656650D02*
X6377087Y-13666174D01*
X6377087Y-13666174D02*
X6367563Y-13675698D01*
X6577087Y-13789984D02*
X6558039Y-13780460D01*
X6558039Y-13780460D02*
X6548515Y-13770936D01*
X6548515Y-13770936D02*
X6538991Y-13751888D01*
X6538991Y-13751888D02*
X6538991Y-13694746D01*
X6538991Y-13694746D02*
X6548515Y-13675698D01*
X6548515Y-13675698D02*
X6558039Y-13666174D01*
X6558039Y-13666174D02*
X6577087Y-13656650D01*
X6577087Y-13656650D02*
X6605658Y-13656650D01*
X6605658Y-13656650D02*
X6624706Y-13666174D01*
X6624706Y-13666174D02*
X6634230Y-13675698D01*
X6634230Y-13675698D02*
X6643753Y-13694746D01*
X6643753Y-13694746D02*
X6643753Y-13751888D01*
X6643753Y-13751888D02*
X6634230Y-13770936D01*
X6634230Y-13770936D02*
X6624706Y-13780460D01*
X6624706Y-13780460D02*
X6605658Y-13789984D01*
X6605658Y-13789984D02*
X6577087Y-13789984D01*
X6758039Y-13789984D02*
X6738991Y-13780460D01*
X6738991Y-13780460D02*
X6729468Y-13761412D01*
X6729468Y-13761412D02*
X6729468Y-13589984D01*
X6910420Y-13780460D02*
X6891372Y-13789984D01*
X6891372Y-13789984D02*
X6853277Y-13789984D01*
X6853277Y-13789984D02*
X6834230Y-13780460D01*
X6834230Y-13780460D02*
X6824706Y-13761412D01*
X6824706Y-13761412D02*
X6824706Y-13685222D01*
X6824706Y-13685222D02*
X6834230Y-13666174D01*
X6834230Y-13666174D02*
X6853277Y-13656650D01*
X6853277Y-13656650D02*
X6891372Y-13656650D01*
X6891372Y-13656650D02*
X6910420Y-13666174D01*
X6910420Y-13666174D02*
X6919944Y-13685222D01*
X6919944Y-13685222D02*
X6919944Y-13704269D01*
X6919944Y-13704269D02*
X6824706Y-13723317D01*
X6996134Y-13780460D02*
X7015182Y-13789984D01*
X7015182Y-13789984D02*
X7053277Y-13789984D01*
X7053277Y-13789984D02*
X7072325Y-13780460D01*
X7072325Y-13780460D02*
X7081849Y-13761412D01*
X7081849Y-13761412D02*
X7081849Y-13751888D01*
X7081849Y-13751888D02*
X7072325Y-13732841D01*
X7072325Y-13732841D02*
X7053277Y-13723317D01*
X7053277Y-13723317D02*
X7024706Y-13723317D01*
X7024706Y-13723317D02*
X7005658Y-13713793D01*
X7005658Y-13713793D02*
X6996134Y-13694746D01*
X6996134Y-13694746D02*
X6996134Y-13685222D01*
X6996134Y-13685222D02*
X7005658Y-13666174D01*
X7005658Y-13666174D02*
X7024706Y-13656650D01*
X7024706Y-13656650D02*
X7053277Y-13656650D01*
X7053277Y-13656650D02*
X7072325Y-13666174D01*
X7148515Y-13866174D02*
X7158039Y-13856650D01*
X7158039Y-13856650D02*
X7177087Y-13828079D01*
X7177087Y-13828079D02*
X7186611Y-13809031D01*
X7186611Y-13809031D02*
X7196134Y-13780460D01*
X7196134Y-13780460D02*
X7205658Y-13732841D01*
X7205658Y-13732841D02*
X7205658Y-13694746D01*
X7205658Y-13694746D02*
X7196134Y-13647127D01*
X7196134Y-13647127D02*
X7186611Y-13618555D01*
X7186611Y-13618555D02*
X7177087Y-13599508D01*
X7177087Y-13599508D02*
X7158039Y-13570936D01*
X7158039Y-13570936D02*
X7148515Y-13561412D01*
X1792500Y-13862500D02*
X1992500Y-14062500D01*
X1992500Y-13862500D02*
X1792500Y-14062500D01*
X1992500Y-13962500D02*
G75*
G02*
X1792500Y-13962500I-100000J0D01*
G01*
X1792500Y-13962500D02*
G75*
G02*
X1992500Y-13962500I100000J0D01*
G01*
X2243753Y-13873031D02*
X2253277Y-13863508D01*
X2253277Y-13863508D02*
X2272324Y-13853984D01*
X2272324Y-13853984D02*
X2319944Y-13853984D01*
X2319944Y-13853984D02*
X2338991Y-13863508D01*
X2338991Y-13863508D02*
X2348515Y-13873031D01*
X2348515Y-13873031D02*
X2358039Y-13892079D01*
X2358039Y-13892079D02*
X2358039Y-13911127D01*
X2358039Y-13911127D02*
X2348515Y-13939698D01*
X2348515Y-13939698D02*
X2234229Y-14053984D01*
X2234229Y-14053984D02*
X2358039Y-14053984D01*
X2443753Y-14034936D02*
X2453277Y-14044460D01*
X2453277Y-14044460D02*
X2443753Y-14053984D01*
X2443753Y-14053984D02*
X2434229Y-14044460D01*
X2434229Y-14044460D02*
X2443753Y-14034936D01*
X2443753Y-14034936D02*
X2443753Y-14053984D01*
X2519944Y-13853984D02*
X2653277Y-13853984D01*
X2653277Y-13853984D02*
X2567563Y-14053984D01*
X2767563Y-13853984D02*
X2786610Y-13853984D01*
X2786610Y-13853984D02*
X2805658Y-13863508D01*
X2805658Y-13863508D02*
X2815182Y-13873031D01*
X2815182Y-13873031D02*
X2824705Y-13892079D01*
X2824705Y-13892079D02*
X2834229Y-13930174D01*
X2834229Y-13930174D02*
X2834229Y-13977793D01*
X2834229Y-13977793D02*
X2824705Y-14015888D01*
X2824705Y-14015888D02*
X2815182Y-14034936D01*
X2815182Y-14034936D02*
X2805658Y-14044460D01*
X2805658Y-14044460D02*
X2786610Y-14053984D01*
X2786610Y-14053984D02*
X2767563Y-14053984D01*
X2767563Y-14053984D02*
X2748515Y-14044460D01*
X2748515Y-14044460D02*
X2738991Y-14034936D01*
X2738991Y-14034936D02*
X2729467Y-14015888D01*
X2729467Y-14015888D02*
X2719944Y-13977793D01*
X2719944Y-13977793D02*
X2719944Y-13930174D01*
X2719944Y-13930174D02*
X2729467Y-13892079D01*
X2729467Y-13892079D02*
X2738991Y-13873031D01*
X2738991Y-13873031D02*
X2748515Y-13863508D01*
X2748515Y-13863508D02*
X2767563Y-13853984D01*
X2958039Y-13853984D02*
X2977086Y-13853984D01*
X2977086Y-13853984D02*
X2996134Y-13863508D01*
X2996134Y-13863508D02*
X3005658Y-13873031D01*
X3005658Y-13873031D02*
X3015182Y-13892079D01*
X3015182Y-13892079D02*
X3024705Y-13930174D01*
X3024705Y-13930174D02*
X3024705Y-13977793D01*
X3024705Y-13977793D02*
X3015182Y-14015888D01*
X3015182Y-14015888D02*
X3005658Y-14034936D01*
X3005658Y-14034936D02*
X2996134Y-14044460D01*
X2996134Y-14044460D02*
X2977086Y-14053984D01*
X2977086Y-14053984D02*
X2958039Y-14053984D01*
X2958039Y-14053984D02*
X2938991Y-14044460D01*
X2938991Y-14044460D02*
X2929467Y-14034936D01*
X2929467Y-14034936D02*
X2919943Y-14015888D01*
X2919943Y-14015888D02*
X2910420Y-13977793D01*
X2910420Y-13977793D02*
X2910420Y-13930174D01*
X2910420Y-13930174D02*
X2919943Y-13892079D01*
X2919943Y-13892079D02*
X2929467Y-13873031D01*
X2929467Y-13873031D02*
X2938991Y-13863508D01*
X2938991Y-13863508D02*
X2958039Y-13853984D01*
X3110420Y-14053984D02*
X3110420Y-13920650D01*
X3110420Y-13939698D02*
X3119943Y-13930174D01*
X3119943Y-13930174D02*
X3138991Y-13920650D01*
X3138991Y-13920650D02*
X3167563Y-13920650D01*
X3167563Y-13920650D02*
X3186610Y-13930174D01*
X3186610Y-13930174D02*
X3196134Y-13949222D01*
X3196134Y-13949222D02*
X3196134Y-14053984D01*
X3196134Y-13949222D02*
X3205658Y-13930174D01*
X3205658Y-13930174D02*
X3224705Y-13920650D01*
X3224705Y-13920650D02*
X3253277Y-13920650D01*
X3253277Y-13920650D02*
X3272324Y-13930174D01*
X3272324Y-13930174D02*
X3281848Y-13949222D01*
X3281848Y-13949222D02*
X3281848Y-14053984D01*
X3377086Y-14053984D02*
X3377086Y-13920650D01*
X3377086Y-13939698D02*
X3386610Y-13930174D01*
X3386610Y-13930174D02*
X3405658Y-13920650D01*
X3405658Y-13920650D02*
X3434229Y-13920650D01*
X3434229Y-13920650D02*
X3453277Y-13930174D01*
X3453277Y-13930174D02*
X3462801Y-13949222D01*
X3462801Y-13949222D02*
X3462801Y-14053984D01*
X3462801Y-13949222D02*
X3472324Y-13930174D01*
X3472324Y-13930174D02*
X3491372Y-13920650D01*
X3491372Y-13920650D02*
X3519943Y-13920650D01*
X3519943Y-13920650D02*
X3538991Y-13930174D01*
X3538991Y-13930174D02*
X3548515Y-13949222D01*
X3548515Y-13949222D02*
X3548515Y-14053984D01*
X3938991Y-13844460D02*
X3767563Y-14101603D01*
X4196134Y-13853984D02*
X4215182Y-13853984D01*
X4215182Y-13853984D02*
X4234229Y-13863508D01*
X4234229Y-13863508D02*
X4243753Y-13873031D01*
X4243753Y-13873031D02*
X4253277Y-13892079D01*
X4253277Y-13892079D02*
X4262801Y-13930174D01*
X4262801Y-13930174D02*
X4262801Y-13977793D01*
X4262801Y-13977793D02*
X4253277Y-14015888D01*
X4253277Y-14015888D02*
X4243753Y-14034936D01*
X4243753Y-14034936D02*
X4234229Y-14044460D01*
X4234229Y-14044460D02*
X4215182Y-14053984D01*
X4215182Y-14053984D02*
X4196134Y-14053984D01*
X4196134Y-14053984D02*
X4177086Y-14044460D01*
X4177086Y-14044460D02*
X4167563Y-14034936D01*
X4167563Y-14034936D02*
X4158039Y-14015888D01*
X4158039Y-14015888D02*
X4148515Y-13977793D01*
X4148515Y-13977793D02*
X4148515Y-13930174D01*
X4148515Y-13930174D02*
X4158039Y-13892079D01*
X4158039Y-13892079D02*
X4167563Y-13873031D01*
X4167563Y-13873031D02*
X4177086Y-13863508D01*
X4177086Y-13863508D02*
X4196134Y-13853984D01*
X4348515Y-14034936D02*
X4358039Y-14044460D01*
X4358039Y-14044460D02*
X4348515Y-14053984D01*
X4348515Y-14053984D02*
X4338991Y-14044460D01*
X4338991Y-14044460D02*
X4348515Y-14034936D01*
X4348515Y-14034936D02*
X4348515Y-14053984D01*
X4548515Y-14053984D02*
X4434229Y-14053984D01*
X4491372Y-14053984D02*
X4491372Y-13853984D01*
X4491372Y-13853984D02*
X4472325Y-13882555D01*
X4472325Y-13882555D02*
X4453277Y-13901603D01*
X4453277Y-13901603D02*
X4434229Y-13911127D01*
X4672325Y-13853984D02*
X4691372Y-13853984D01*
X4691372Y-13853984D02*
X4710420Y-13863508D01*
X4710420Y-13863508D02*
X4719944Y-13873031D01*
X4719944Y-13873031D02*
X4729468Y-13892079D01*
X4729468Y-13892079D02*
X4738991Y-13930174D01*
X4738991Y-13930174D02*
X4738991Y-13977793D01*
X4738991Y-13977793D02*
X4729468Y-14015888D01*
X4729468Y-14015888D02*
X4719944Y-14034936D01*
X4719944Y-14034936D02*
X4710420Y-14044460D01*
X4710420Y-14044460D02*
X4691372Y-14053984D01*
X4691372Y-14053984D02*
X4672325Y-14053984D01*
X4672325Y-14053984D02*
X4653277Y-14044460D01*
X4653277Y-14044460D02*
X4643753Y-14034936D01*
X4643753Y-14034936D02*
X4634229Y-14015888D01*
X4634229Y-14015888D02*
X4624706Y-13977793D01*
X4624706Y-13977793D02*
X4624706Y-13930174D01*
X4624706Y-13930174D02*
X4634229Y-13892079D01*
X4634229Y-13892079D02*
X4643753Y-13873031D01*
X4643753Y-13873031D02*
X4653277Y-13863508D01*
X4653277Y-13863508D02*
X4672325Y-13853984D01*
X4910420Y-13853984D02*
X4872325Y-13853984D01*
X4872325Y-13853984D02*
X4853277Y-13863508D01*
X4853277Y-13863508D02*
X4843753Y-13873031D01*
X4843753Y-13873031D02*
X4824706Y-13901603D01*
X4824706Y-13901603D02*
X4815182Y-13939698D01*
X4815182Y-13939698D02*
X4815182Y-14015888D01*
X4815182Y-14015888D02*
X4824706Y-14034936D01*
X4824706Y-14034936D02*
X4834229Y-14044460D01*
X4834229Y-14044460D02*
X4853277Y-14053984D01*
X4853277Y-14053984D02*
X4891372Y-14053984D01*
X4891372Y-14053984D02*
X4910420Y-14044460D01*
X4910420Y-14044460D02*
X4919944Y-14034936D01*
X4919944Y-14034936D02*
X4929468Y-14015888D01*
X4929468Y-14015888D02*
X4929468Y-13968269D01*
X4929468Y-13968269D02*
X4919944Y-13949222D01*
X4919944Y-13949222D02*
X4910420Y-13939698D01*
X4910420Y-13939698D02*
X4891372Y-13930174D01*
X4891372Y-13930174D02*
X4853277Y-13930174D01*
X4853277Y-13930174D02*
X4834229Y-13939698D01*
X4834229Y-13939698D02*
X4824706Y-13949222D01*
X4824706Y-13949222D02*
X4815182Y-13968269D01*
X4996134Y-13853984D02*
X5119944Y-13853984D01*
X5119944Y-13853984D02*
X5053277Y-13930174D01*
X5053277Y-13930174D02*
X5081849Y-13930174D01*
X5081849Y-13930174D02*
X5100896Y-13939698D01*
X5100896Y-13939698D02*
X5110420Y-13949222D01*
X5110420Y-13949222D02*
X5119944Y-13968269D01*
X5119944Y-13968269D02*
X5119944Y-14015888D01*
X5119944Y-14015888D02*
X5110420Y-14034936D01*
X5110420Y-14034936D02*
X5100896Y-14044460D01*
X5100896Y-14044460D02*
X5081849Y-14053984D01*
X5081849Y-14053984D02*
X5024706Y-14053984D01*
X5024706Y-14053984D02*
X5005658Y-14044460D01*
X5005658Y-14044460D02*
X4996134Y-14034936D01*
X5196134Y-13853984D02*
X5196134Y-13892079D01*
X5272325Y-13853984D02*
X5272325Y-13892079D01*
X5567563Y-14130174D02*
X5558039Y-14120650D01*
X5558039Y-14120650D02*
X5538991Y-14092079D01*
X5538991Y-14092079D02*
X5529468Y-14073031D01*
X5529468Y-14073031D02*
X5519944Y-14044460D01*
X5519944Y-14044460D02*
X5510420Y-13996841D01*
X5510420Y-13996841D02*
X5510420Y-13958746D01*
X5510420Y-13958746D02*
X5519944Y-13911127D01*
X5519944Y-13911127D02*
X5529468Y-13882555D01*
X5529468Y-13882555D02*
X5538991Y-13863508D01*
X5538991Y-13863508D02*
X5558039Y-13834936D01*
X5558039Y-13834936D02*
X5567563Y-13825412D01*
X5624706Y-13853984D02*
X5758039Y-13853984D01*
X5758039Y-13853984D02*
X5672325Y-14053984D01*
X5986610Y-14053984D02*
X5986610Y-13853984D01*
X6072325Y-14053984D02*
X6072325Y-13949222D01*
X6072325Y-13949222D02*
X6062801Y-13930174D01*
X6062801Y-13930174D02*
X6043753Y-13920650D01*
X6043753Y-13920650D02*
X6015182Y-13920650D01*
X6015182Y-13920650D02*
X5996134Y-13930174D01*
X5996134Y-13930174D02*
X5986610Y-13939698D01*
X6196134Y-14053984D02*
X6177087Y-14044460D01*
X6177087Y-14044460D02*
X6167563Y-14034936D01*
X6167563Y-14034936D02*
X6158039Y-14015888D01*
X6158039Y-14015888D02*
X6158039Y-13958746D01*
X6158039Y-13958746D02*
X6167563Y-13939698D01*
X6167563Y-13939698D02*
X6177087Y-13930174D01*
X6177087Y-13930174D02*
X6196134Y-13920650D01*
X6196134Y-13920650D02*
X6224706Y-13920650D01*
X6224706Y-13920650D02*
X6243753Y-13930174D01*
X6243753Y-13930174D02*
X6253277Y-13939698D01*
X6253277Y-13939698D02*
X6262801Y-13958746D01*
X6262801Y-13958746D02*
X6262801Y-14015888D01*
X6262801Y-14015888D02*
X6253277Y-14034936D01*
X6253277Y-14034936D02*
X6243753Y-14044460D01*
X6243753Y-14044460D02*
X6224706Y-14053984D01*
X6224706Y-14053984D02*
X6196134Y-14053984D01*
X6377087Y-14053984D02*
X6358039Y-14044460D01*
X6358039Y-14044460D02*
X6348515Y-14025412D01*
X6348515Y-14025412D02*
X6348515Y-13853984D01*
X6529468Y-14044460D02*
X6510420Y-14053984D01*
X6510420Y-14053984D02*
X6472325Y-14053984D01*
X6472325Y-14053984D02*
X6453277Y-14044460D01*
X6453277Y-14044460D02*
X6443753Y-14025412D01*
X6443753Y-14025412D02*
X6443753Y-13949222D01*
X6443753Y-13949222D02*
X6453277Y-13930174D01*
X6453277Y-13930174D02*
X6472325Y-13920650D01*
X6472325Y-13920650D02*
X6510420Y-13920650D01*
X6510420Y-13920650D02*
X6529468Y-13930174D01*
X6529468Y-13930174D02*
X6538991Y-13949222D01*
X6538991Y-13949222D02*
X6538991Y-13968269D01*
X6538991Y-13968269D02*
X6443753Y-13987317D01*
X6615182Y-14044460D02*
X6634230Y-14053984D01*
X6634230Y-14053984D02*
X6672325Y-14053984D01*
X6672325Y-14053984D02*
X6691372Y-14044460D01*
X6691372Y-14044460D02*
X6700896Y-14025412D01*
X6700896Y-14025412D02*
X6700896Y-14015888D01*
X6700896Y-14015888D02*
X6691372Y-13996841D01*
X6691372Y-13996841D02*
X6672325Y-13987317D01*
X6672325Y-13987317D02*
X6643753Y-13987317D01*
X6643753Y-13987317D02*
X6624706Y-13977793D01*
X6624706Y-13977793D02*
X6615182Y-13958746D01*
X6615182Y-13958746D02*
X6615182Y-13949222D01*
X6615182Y-13949222D02*
X6624706Y-13930174D01*
X6624706Y-13930174D02*
X6643753Y-13920650D01*
X6643753Y-13920650D02*
X6672325Y-13920650D01*
X6672325Y-13920650D02*
X6691372Y-13930174D01*
X6767563Y-14130174D02*
X6777087Y-14120650D01*
X6777087Y-14120650D02*
X6796134Y-14092079D01*
X6796134Y-14092079D02*
X6805658Y-14073031D01*
X6805658Y-14073031D02*
X6815182Y-14044460D01*
X6815182Y-14044460D02*
X6824706Y-13996841D01*
X6824706Y-13996841D02*
X6824706Y-13958746D01*
X6824706Y-13958746D02*
X6815182Y-13911127D01*
X6815182Y-13911127D02*
X6805658Y-13882555D01*
X6805658Y-13882555D02*
X6796134Y-13863508D01*
X6796134Y-13863508D02*
X6777087Y-13834936D01*
X6777087Y-13834936D02*
X6767563Y-13825412D01*
M02*
