M48
; DRILL file {KiCad 8.0.5} date 2024-09-28T19:10:55+0200
; FORMAT={-:-/ absolute / inch / decimal}
; #@! TF.CreationDate,2024-09-28T19:10:55+02:00
; #@! TF.GenerationSoftware,Kicad,Pcbnew,8.0.5
; #@! TF.FileFunction,Plated,1,2,PTH
FMAT,2
INCH
; #@! TA.AperFunction,Plated,PTH,ComponentDrill
T1C0.0138
; #@! TA.AperFunction,Plated,PTH,ViaDrill
T2C0.0157
; #@! TA.AperFunction,Plated,PTH,ComponentDrill
T3C0.0157
; #@! TA.AperFunction,Plated,PTH,ComponentDrill
T4C0.0236
; #@! TA.AperFunction,Plated,PTH,ComponentDrill
T5C0.0394
; #@! TA.AperFunction,Plated,PTH,ComponentDrill
T6C0.1063
%
G90
G05
T1
X5.5846Y-3.2096
X5.5846Y-3.2598
X5.5846Y-3.31
X5.6348Y-3.2096
X5.6348Y-3.2598
X5.6348Y-3.31
X5.685Y-3.2096
X5.685Y-3.2598
X5.685Y-3.31
T2
X0.8957Y-3.1142
X1.1476Y-3.065
X1.1784Y-3.4407
X1.2402Y-3.2598
X1.3148Y-3.4666
X1.5248Y-3.381
X1.5591Y-3.5079
X1.6081Y-2.994
X1.6772Y-3.1417
X1.6876Y-2.9941
X1.8433Y-3.3414
X1.9671Y-3.0702
X2.0827Y-3.626
X2.2489Y-3.5942
X2.4705Y-2.8898
X2.4774Y-3.4938
X2.498Y-3.6654
X2.5591Y-2.9685
X2.5795Y-3.0241
X2.5836Y-3.0714
X2.6122Y-3.2736
X2.6145Y-2.9838
X2.6407Y-3.0136
X2.6428Y-3.0652
X2.679Y-3.214
X2.7115Y-3.4337
X2.7849Y-3.4164
X2.844Y-3.4162
X2.8909Y-3.4019
X2.9626Y-3.4094
X3.0274Y-3.2461
X3.0354Y-3.3406
X3.1142Y-2.9587
X3.1752Y-3.6752
X3.2402Y-3.4587
X3.2598Y-3.061
X3.2815Y-3.2677
X3.315Y-1.687
X3.3445Y-2.9055
X3.4075Y-3.5
X3.4688Y-3.1877
X3.4887Y-3.4908
X3.5625Y-3.1931
X3.5809Y-3.5692
X3.624Y-1.6673
X3.6492Y-2.5263
X3.6654Y-2.7828
X3.6715Y-2.8401
X3.6971Y-2.3557
X3.6976Y-2.8731
X3.7352Y-2.9844
X3.7353Y-3.0472
X3.7757Y-2.9864
X3.7805Y-3.0267
X3.7976Y-3.0767
X3.8573Y-3.6159
X3.8996Y-1.7087
X3.9193Y-2.9744
X3.9462Y-3.4259
X3.9974Y-3.4236
X3.998Y-1.1634
X4.0488Y-3.0744
X4.1122Y-1.9685
X4.1299Y-1.6417
X4.2303Y-2.5768
X4.3504Y-2.9508
X4.3668Y-2.6829
X4.3839Y-1.2756
X4.4044Y-2.1075
X4.437Y-1.6437
X4.437Y-3.1024
X4.473Y-2.676
X4.5018Y-2.5846
X4.5021Y-2.0433
X4.5234Y-2.0805
X4.5392Y-2.6632
X4.5475Y-2.7673
X4.5591Y-1.4291
X4.5748Y-2.3957
X4.5979Y-2.0449
X4.6142Y-1.7953
X4.7614Y-2.3652
X4.7992Y-1.2224
X4.8221Y-2.4108
X4.868Y-2.4232
X4.8858Y-3.2736
X4.9567Y-3.4055
X4.9724Y-1.8386
X5.0246Y-3.1916
X5.0453Y-1.9587
X5.047Y-2.3507
X5.0591Y-2.6083
X5.0807Y-1.5354
X5.0833Y-2.4216
X5.0835Y-3.1758
X5.126Y-2.815
X5.1287Y-2.3448
X5.1299Y-2.5354
X5.1516Y-3.563
X5.1575Y-3.0098
X5.1693Y-3.2067
X5.185Y-2.8091
X5.2323Y-2.5945
X5.2718Y-3.7747
X5.2888Y-3.8604
X5.3012Y-2.0157
X5.3248Y-3.2047
X5.3268Y-2.7244
X5.3297Y-3.2458
X5.3346Y-3.6398
X5.3528Y-4.6483
X5.3642Y-3.2224
X5.3661Y-3.3228
X5.4213Y-2.3819
X5.4279Y-3.3989
X5.4284Y-2.912
X5.4291Y-2.6063
X5.4291Y-2.7874
X5.4567Y-3.8287
X5.4567Y-3.9685
X5.4584Y-3.2731
X5.4626Y-2.5118
X5.4639Y-3.4991
X5.4705Y-3.6988
X5.4949Y-2.8794
X5.5032Y-3.4221
X5.5059Y-1.2185
X5.5107Y-2.9914
X5.5236Y-1.5984
X5.5262Y-3.0737
X5.5315Y-3.5413
X5.542Y-3.6064
X5.5479Y-3.2547
X5.5509Y-3.1629
X5.551Y-3.2982
X5.5728Y-2.1358
X5.5865Y-3.6369
X5.5985Y-3.7192
X5.6161Y-2.9862
X5.6614Y-3.5846
X5.6656Y-3.457
X5.6754Y-3.1742
X5.6772Y-3.8209
X5.6794Y-2.1839
X5.6812Y-2.6377
X5.7087Y-2.9921
X5.716Y-2.8699
X5.7167Y-3.1718
X5.7207Y-2.9331
X5.7231Y-3.2156
X5.7254Y-3.3556
X5.7291Y-3.0237
X5.732Y-3.2767
X5.7674Y-2.7015
X5.7676Y-2.2738
X5.7795Y-2.9167
X5.7862Y-3.1301
X5.7935Y-3.4483
X5.7954Y-3.3894
X5.7972Y-4.002
X5.8108Y-3.3255
X5.8281Y-2.9976
X5.8287Y-2.8307
X5.8306Y-3.2926
X5.8457Y-3.7572
X5.8484Y-3.6693
X5.8654Y-3.5095
X5.8858Y-2.8189
X5.8878Y-0.939
X5.9147Y-3.5506
X5.9456Y-3.8522
X6.026Y-2.5769
X6.0712Y-2.5811
X6.0768Y-3.3602
X6.0778Y-3.7324
X6.0886Y-3.8167
X6.0997Y-3.1781
X6.126Y-1.0533
X6.1358Y-3.9154
X6.1517Y-2.3987
X6.2657Y-3.5886
X6.2747Y-1.4852
X6.2901Y-1.8701
X6.3125Y-1.934
X6.313Y-2.9331
X6.5987Y-1.9593
X6.6034Y-2.5687
X6.6072Y-1.9017
X6.6944Y-2.1183
X6.7043Y-2.4589
X6.7146Y-2.2756
X6.7214Y-1.3531
X6.8268Y-1.8996
X6.8406Y-2.0098
X6.9325Y-1.604
X7.0551Y-1.8425
X7.1161Y-2.3484
X7.2723Y-1.1429
X7.4528Y-2.6417
X7.4598Y-3.1073
X7.5306Y-3.1426
X7.5333Y-3.0838
X7.5335Y-2.2461
X7.6076Y-3.6372
X7.6135Y-1.1829
X7.6299Y-2.6299
X7.6391Y-3.0439
X7.6437Y-2.8465
X7.6741Y-3.269
X7.7283Y-2.4488
X7.7348Y-3.5142
X7.7734Y-3.119
X7.7815Y-2.7717
X7.8425Y-2.1969
X7.8496Y-3.5081
X7.8681Y-2.6004
X7.9075Y-3.0472
X7.914Y-3.112
X7.9227Y-2.812
X7.9514Y-2.9911
X7.9744Y-3.6555
X8.0118Y-3.0886
X8.0335Y-2.4331
X8.1317Y-2.94
X8.1635Y-3.4969
X8.1673Y-2.6063
X8.1744Y-3.2774
X8.187Y-2.9783
X8.2007Y-1.7764
X8.2394Y-3.2456
X8.252Y-4.1555
X8.2579Y-2.2776
X8.2885Y-2.9916
X8.3074Y-3.0387
X8.4359Y-3.0118
X8.4475Y-3.1024
X8.4503Y-1.7243
X8.4703Y-1.6462
X8.4711Y-3.6397
X8.4737Y-3.1343
X8.4776Y-2.2041
X8.4903Y-3.0399
X8.5111Y-2.0404
X8.5177Y-3.0709
X8.5598Y-2.0959
X8.5657Y-2.899
X8.5871Y-2.0308
X8.5886Y-3.0374
X8.5906Y-1.8031
X8.6011Y-3.661
X8.6142Y-2.7323
X8.6187Y-2.0994
X8.6234Y-1.8779
X8.6283Y-3.1111
X8.6285Y-2.9121
X8.6575Y-2.2815
X8.6988Y-1.7539
X8.7141Y-3.1338
X8.7441Y-2.6319
X8.75Y-2.7283
X8.7559Y-3.0138
X8.773Y-2.1317
X8.7975Y-2.0358
X8.813Y-1.7087
X8.8209Y-1.8406
X8.8363Y-2.0883
X8.8533Y-2.0286
X8.8563Y-1.9633
X8.9038Y-3.4904
X8.9547Y-2.4429
X8.9691Y-1.9794
X9.0013Y-3.5164
X9.0051Y-1.8848
X9.0475Y-2.8528
X9.1931Y-3.3273
X9.2242Y-2.5603
X9.2354Y-2.9103
X9.2736Y-2.2264
X9.283Y-3.2391
X9.3225Y-2.6281
X9.4233Y-2.4016
X9.5012Y-3.5509
X9.626Y-2.1614
X9.6348Y-3.4544
X9.7638Y-2.5748
X9.9109Y-2.0437
X10.0866Y-2.3091
X10.1161Y-2.7323
X10.1575Y-2.4547
X10.1713Y-2.128
X10.2362Y-2.6201
X10.5394Y-2.4409
T3
X5.4587Y-4.4701
X5.4587Y-4.5232
X5.4921Y-4.4701
X5.4921Y-4.5232
X5.5256Y-4.4701
X5.5256Y-4.5232
X5.5591Y-4.4701
X5.5591Y-4.5232
X5.5925Y-4.4701
X5.5925Y-4.5232
X5.626Y-4.4701
X5.626Y-4.5232
X5.6594Y-4.4701
X5.6594Y-4.5232
X5.6929Y-4.4701
X5.6929Y-4.5232
T5
X1.0374Y-2.0217
X1.0374Y-2.1217
X1.0374Y-2.2217
X1.0374Y-2.3217
X1.0374Y-2.4217
X1.0374Y-2.5217
X1.0374Y-2.7106
X1.0374Y-2.8106
X1.0374Y-2.9106
X1.0374Y-3.0106
X1.0374Y-3.2047
X1.0374Y-3.3047
X1.0374Y-3.4047
X1.0374Y-3.5972
X1.0374Y-3.6972
X1.0374Y-3.8917
X1.0374Y-3.9917
X1.0394Y-1.2362
X1.0394Y-1.3362
X1.0394Y-1.4362
X1.0394Y-1.5362
X1.0394Y-1.6362
X1.0394Y-1.7362
X1.0394Y-1.8362
X1.4331Y-1.2362
X1.4331Y-1.3362
X1.4331Y-1.4362
X1.4331Y-1.6299
X1.4331Y-1.7299
X1.4331Y-1.8299
X1.4331Y-2.0236
X1.4331Y-2.1236
X1.4331Y-2.2236
X1.4331Y-2.4173
X1.4331Y-2.5173
X1.4331Y-2.6173
X1.4331Y-2.811
X1.4331Y-2.911
X1.4331Y-3.011
X1.4331Y-3.2047
X1.4331Y-3.3047
X1.4331Y-3.4047
X1.4331Y-3.5984
X1.4331Y-3.6984
X1.4331Y-3.7984
X1.4331Y-3.9921
X1.4331Y-4.0921
X1.4331Y-4.1921
X1.7874Y-3.5984
X1.7874Y-3.6984
X1.7874Y-3.7984
X1.7874Y-3.9921
X1.7874Y-4.0921
X1.7874Y-4.1921
X1.8268Y-0.9882
X1.9268Y-0.9882
X2.0268Y-0.9882
X2.3189Y-0.9882
X2.4189Y-0.9882
X2.7106Y-1.4016
X2.7126Y-0.9882
X2.7126Y-1.9134
X2.8106Y-1.4016
X2.8126Y-0.9882
X2.8126Y-1.9134
X2.9126Y-0.9882
X3.065Y-1.4016
X3.0669Y-1.9134
X3.165Y-1.4016
X3.1669Y-1.9134
X3.2047Y-0.9882
X3.265Y-1.4016
X3.2669Y-1.9134
X3.3047Y-0.9882
X3.5768Y-1.4016
X3.5787Y-0.9882
X3.5787Y-1.9134
X3.6768Y-1.4016
X3.6787Y-0.9882
X3.6787Y-1.9134
X3.7787Y-0.9882
X4.085Y-0.9882
X4.185Y-0.9882
X4.285Y-0.9882
X4.385Y-0.9882
X4.5878Y-0.9882
X4.6878Y-0.9882
X4.7795Y-1.4016
X4.7878Y-0.9882
X4.8795Y-1.4016
X4.8878Y-0.9882
X5.1Y-0.9882
X5.185Y-1.4016
X5.2Y-0.9882
X5.285Y-1.4016
X5.3Y-0.9882
X5.385Y-1.4016
X5.4Y-0.9882
X5.6098Y-1.4016
X5.7098Y-1.4016
X5.8098Y-1.4016
X6.013Y-0.9882
X6.037Y-1.4016
X6.113Y-0.9882
X6.137Y-1.4016
X6.213Y-0.9882
X6.237Y-1.4016
X6.313Y-0.9882
X6.526Y-0.9882
X6.5512Y-1.4016
X6.626Y-0.9882
X6.6512Y-1.4016
X6.726Y-0.9882
X6.7512Y-1.4016
X6.826Y-0.9882
X7.1417Y-0.9882
X7.1417Y-1.4016
X7.1417Y-1.8543
X7.2417Y-0.9882
X7.2417Y-1.4016
X7.2417Y-1.8543
X7.3417Y-0.9882
X7.5748Y-0.9882
X7.5748Y-1.4016
X7.5748Y-1.8543
X7.6368Y-4.5138
X7.6748Y-0.9882
X7.6748Y-1.4016
X7.6748Y-1.8543
X7.7368Y-4.5138
X7.7748Y-0.9882
X8.0669Y-0.9882
X8.1409Y-4.4862
X8.1669Y-0.9882
X8.2409Y-4.4862
X8.3409Y-4.4862
X8.4409Y-4.4862
X9.5906Y-3.5925
X9.5906Y-3.6925
X9.5906Y-3.7925
X9.5906Y-3.9882
X9.5906Y-4.0882
X9.5906Y-4.1882
X9.9843Y-1.2343
X9.9843Y-1.3343
X9.9843Y-1.4343
X9.9843Y-1.6299
X9.9843Y-1.7299
X9.9843Y-1.8299
X9.9843Y-2.0217
X9.9843Y-2.1217
X9.9843Y-2.2217
X9.9843Y-2.4134
X9.9843Y-2.5134
X9.9843Y-2.6134
X9.9843Y-2.8071
X9.9843Y-2.9071
X9.9843Y-3.0071
X9.9843Y-3.2028
X9.9843Y-3.3028
X9.9843Y-3.4028
X9.9843Y-3.9902
X9.9843Y-4.0902
X9.9843Y-4.1902
X9.9862Y-3.5945
X9.9862Y-3.6945
X9.9862Y-3.7945
X10.378Y-1.2346
X10.378Y-1.3346
X10.378Y-1.4346
X10.378Y-1.5346
X10.378Y-1.6346
X10.378Y-1.7346
X10.378Y-1.8346
X10.378Y-2.0236
X10.378Y-2.1236
X10.378Y-2.2236
X10.378Y-2.3236
X10.378Y-2.4236
X10.378Y-2.5236
X10.378Y-2.7126
X10.378Y-2.8126
X10.378Y-2.9126
X10.378Y-3.0126
X10.378Y-3.2008
X10.378Y-3.3008
X10.378Y-3.4008
X10.378Y-3.5945
X10.378Y-3.6945
X10.378Y-3.8898
X10.378Y-3.9898
T6
X0.9843Y-0.9843
X0.9843Y-4.5276
X4.5276Y-4.5276
X5.7087Y-0.9843
X6.8898Y-4.5276
X10.4331Y-0.9843
X10.4331Y-4.5276
T4
G00X5.4055Y-4.4791
M15
G01X5.4055Y-4.5382
M16
G05
G00X5.4055Y-4.626
M15
G01X5.4055Y-4.6575
M16
G05
G00X5.7461Y-4.4791
M15
G01X5.7461Y-4.5382
M16
G05
G00X5.7461Y-4.626
M15
G01X5.7461Y-4.6575
M16
G05
M30
