%TF.GenerationSoftware,KiCad,Pcbnew,8.0.5*%
%TF.CreationDate,2024-09-28T19:10:59+02:00*%
%TF.ProjectId,FCU_Mainboard_v4,4643555f-4d61-4696-9e62-6f6172645f76,rev?*%
%TF.SameCoordinates,Original*%
%TF.FileFunction,Soldermask,Top*%
%TF.FilePolarity,Negative*%
%FSLAX46Y46*%
G04 Gerber Fmt 4.6, Leading zero omitted, Abs format (unit mm)*
G04 Created by KiCad (PCBNEW 8.0.5) date 2024-09-28 19:10:59*
%MOMM*%
%LPD*%
G01*
G04 APERTURE LIST*
G04 Aperture macros list*
%AMRoundRect*
0 Rectangle with rounded corners*
0 $1 Rounding radius*
0 $2 $3 $4 $5 $6 $7 $8 $9 X,Y pos of 4 corners*
0 Add a 4 corners polygon primitive as box body*
4,1,4,$2,$3,$4,$5,$6,$7,$8,$9,$2,$3,0*
0 Add four circle primitives for the rounded corners*
1,1,$1+$1,$2,$3*
1,1,$1+$1,$4,$5*
1,1,$1+$1,$6,$7*
1,1,$1+$1,$8,$9*
0 Add four rect primitives between the rounded corners*
20,1,$1+$1,$2,$3,$4,$5,0*
20,1,$1+$1,$4,$5,$6,$7,0*
20,1,$1+$1,$6,$7,$8,$9,0*
20,1,$1+$1,$8,$9,$2,$3,0*%
G04 Aperture macros list end*
%ADD10C,0.700000*%
%ADD11O,0.900000X2.400000*%
%ADD12O,0.900000X1.700000*%
%ADD13R,1.700000X1.700000*%
%ADD14O,1.700000X1.700000*%
%ADD15RoundRect,0.135000X-0.135000X-0.185000X0.135000X-0.185000X0.135000X0.185000X-0.135000X0.185000X0*%
%ADD16RoundRect,0.135000X0.135000X0.185000X-0.135000X0.185000X-0.135000X-0.185000X0.135000X-0.185000X0*%
%ADD17R,0.700000X0.600000*%
%ADD18R,0.600000X0.700000*%
%ADD19C,3.100000*%
%ADD20C,4.700000*%
%ADD21R,1.400000X1.200000*%
%ADD22RoundRect,0.150000X0.150000X-0.875000X0.150000X0.875000X-0.150000X0.875000X-0.150000X-0.875000X0*%
%ADD23RoundRect,0.135000X0.185000X-0.135000X0.185000X0.135000X-0.185000X0.135000X-0.185000X-0.135000X0*%
%ADD24RoundRect,0.076750X-0.810250X-0.230250X0.810250X-0.230250X0.810250X0.230250X-0.810250X0.230250X0*%
%ADD25RoundRect,0.250000X-0.450000X0.262500X-0.450000X-0.262500X0.450000X-0.262500X0.450000X0.262500X0*%
%ADD26RoundRect,0.250000X0.450000X-0.262500X0.450000X0.262500X-0.450000X0.262500X-0.450000X-0.262500X0*%
%ADD27RoundRect,0.150000X0.650000X0.150000X-0.650000X0.150000X-0.650000X-0.150000X0.650000X-0.150000X0*%
%ADD28RoundRect,0.135000X-0.185000X0.135000X-0.185000X-0.135000X0.185000X-0.135000X0.185000X0.135000X0*%
%ADD29RoundRect,0.050000X0.387500X0.050000X-0.387500X0.050000X-0.387500X-0.050000X0.387500X-0.050000X0*%
%ADD30RoundRect,0.050000X0.050000X0.387500X-0.050000X0.387500X-0.050000X-0.387500X0.050000X-0.387500X0*%
%ADD31RoundRect,0.144000X1.456000X1.456000X-1.456000X1.456000X-1.456000X-1.456000X1.456000X-1.456000X0*%
%ADD32RoundRect,0.375000X0.375000X-0.625000X0.375000X0.625000X-0.375000X0.625000X-0.375000X-0.625000X0*%
%ADD33RoundRect,0.500000X1.400000X-0.500000X1.400000X0.500000X-1.400000X0.500000X-1.400000X-0.500000X0*%
%ADD34RoundRect,0.243750X0.456250X-0.243750X0.456250X0.243750X-0.456250X0.243750X-0.456250X-0.243750X0*%
G04 APERTURE END LIST*
D10*
%TO.C,P1*%
X138650000Y-113540000D03*
X139500000Y-113540000D03*
X140350000Y-113540000D03*
X141200000Y-113540000D03*
X142050000Y-113540000D03*
X142900000Y-113540000D03*
X143750000Y-113540000D03*
X144600000Y-113540000D03*
X144600000Y-114890000D03*
X143750000Y-114890000D03*
X142900000Y-114890000D03*
X142050000Y-114890000D03*
X141200000Y-114890000D03*
X140350000Y-114890000D03*
X139500000Y-114890000D03*
X138650000Y-114890000D03*
D11*
X137300000Y-114520000D03*
D12*
X137300000Y-117900000D03*
D11*
X145950000Y-114520000D03*
D12*
X145950000Y-117900000D03*
%TD*%
D13*
%TO.C,J55*%
X263600000Y-31360000D03*
D14*
X263600000Y-33900000D03*
X263600000Y-36440000D03*
X263600000Y-38980000D03*
X263600000Y-41520000D03*
X263600000Y-44060000D03*
X263600000Y-46600000D03*
%TD*%
D15*
%TO.C,R21*%
X215530000Y-52725000D03*
X216550000Y-52725000D03*
%TD*%
D13*
%TO.C,J56*%
X253650000Y-91300000D03*
D14*
X253650000Y-93840000D03*
X253650000Y-96380000D03*
%TD*%
D13*
%TO.C,J11*%
X153340000Y-35600000D03*
D14*
X155880000Y-35600000D03*
X158420000Y-35600000D03*
%TD*%
D16*
%TO.C,R28*%
X230820000Y-54950000D03*
X229800000Y-54950000D03*
%TD*%
D17*
%TO.C,C4*%
X188200000Y-79200000D03*
X188200000Y-78200000D03*
%TD*%
D13*
%TO.C,J49*%
X45400000Y-91400000D03*
D14*
X45400000Y-93940000D03*
X45400000Y-96480000D03*
%TD*%
D13*
%TO.C,J57*%
X243600000Y-91250000D03*
D14*
X243600000Y-93790000D03*
X243600000Y-96330000D03*
%TD*%
D18*
%TO.C,C8*%
X131900000Y-109950000D03*
X130900000Y-109950000D03*
%TD*%
D13*
%TO.C,J37*%
X181400000Y-47100000D03*
D14*
X183940000Y-47100000D03*
%TD*%
D19*
%TO.C,H3*%
X265000000Y-25000000D03*
D20*
X265000000Y-25000000D03*
%TD*%
D13*
%TO.C,J33*%
X58900000Y-25100000D03*
D14*
X61440000Y-25100000D03*
%TD*%
D19*
%TO.C,H1*%
X175000000Y-115000000D03*
D20*
X175000000Y-115000000D03*
%TD*%
D13*
%TO.C,J54*%
X263600000Y-51400000D03*
D14*
X263600000Y-53940000D03*
X263600000Y-56480000D03*
X263600000Y-59020000D03*
X263600000Y-61560000D03*
X263600000Y-64100000D03*
%TD*%
D17*
%TO.C,C2*%
X64505000Y-77200000D03*
X64505000Y-76200000D03*
%TD*%
D21*
%TO.C,Y1*%
X142950000Y-70700000D03*
X140750000Y-70700000D03*
X140750000Y-72400000D03*
X142950000Y-72400000D03*
%TD*%
D13*
%TO.C,J72*%
X68850000Y-35600000D03*
D14*
X71390000Y-35600000D03*
%TD*%
D13*
%TO.C,J42*%
X90900000Y-25100000D03*
D14*
X93440000Y-25100000D03*
X95980000Y-25100000D03*
%TD*%
D19*
%TO.C,H7*%
X265000000Y-115000000D03*
D20*
X265000000Y-115000000D03*
%TD*%
D16*
%TO.C,R26*%
X230820000Y-57200000D03*
X229800000Y-57200000D03*
%TD*%
D15*
%TO.C,R23*%
X215530000Y-57325000D03*
X216550000Y-57325000D03*
%TD*%
D17*
%TO.C,C15*%
X113100000Y-52200000D03*
X113100000Y-51200000D03*
%TD*%
D13*
%TO.C,J6*%
X77900000Y-48600000D03*
D14*
X80440000Y-48600000D03*
X82980000Y-48600000D03*
%TD*%
D17*
%TO.C,C16*%
X139700000Y-87800000D03*
X139700000Y-88800000D03*
%TD*%
D13*
%TO.C,J14*%
X116530000Y-25100000D03*
D14*
X119070000Y-25100000D03*
X121610000Y-25100000D03*
X124150000Y-25100000D03*
%TD*%
D15*
%TO.C,R24*%
X215530000Y-59575000D03*
X216550000Y-59575000D03*
%TD*%
D13*
%TO.C,J46*%
X68900000Y-25100000D03*
D14*
X71440000Y-25100000D03*
X73980000Y-25100000D03*
%TD*%
D22*
%TO.C,U3*%
X188190000Y-90800000D03*
X189460000Y-90800000D03*
X190730000Y-90800000D03*
X192000000Y-90800000D03*
X193270000Y-90800000D03*
X194540000Y-90800000D03*
X195810000Y-90800000D03*
X197080000Y-90800000D03*
X198350000Y-90800000D03*
X199620000Y-90800000D03*
X200890000Y-90800000D03*
X202160000Y-90800000D03*
X202160000Y-81500000D03*
X200890000Y-81500000D03*
X199620000Y-81500000D03*
X198350000Y-81500000D03*
X197080000Y-81500000D03*
X195810000Y-81500000D03*
X194540000Y-81500000D03*
X193270000Y-81500000D03*
X192000000Y-81500000D03*
X190730000Y-81500000D03*
X189460000Y-81500000D03*
X188190000Y-81500000D03*
%TD*%
D23*
%TO.C,R9*%
X199650000Y-79260000D03*
X199650000Y-78240000D03*
%TD*%
D13*
%TO.C,J53*%
X26400000Y-31400000D03*
D14*
X26400000Y-33940000D03*
X26400000Y-36480000D03*
X26400000Y-39020000D03*
X26400000Y-41560000D03*
X26400000Y-44100000D03*
X26400000Y-46640000D03*
%TD*%
D18*
%TO.C,C21*%
X148300000Y-85400000D03*
X149300000Y-85400000D03*
%TD*%
D19*
%TO.C,H2*%
X25000000Y-115000000D03*
D20*
X25000000Y-115000000D03*
%TD*%
D18*
%TO.C,C9*%
X153200000Y-101350000D03*
X152200000Y-101350000D03*
%TD*%
%TO.C,C6*%
X146050000Y-72650000D03*
X147050000Y-72650000D03*
%TD*%
D13*
%TO.C,J1*%
X26350000Y-68850000D03*
D14*
X26350000Y-71390000D03*
X26350000Y-73930000D03*
X26350000Y-76470000D03*
%TD*%
D16*
%TO.C,R25*%
X230820000Y-59500000D03*
X229800000Y-59500000D03*
%TD*%
D13*
%TO.C,J47*%
X253600000Y-41400000D03*
D14*
X253600000Y-43940000D03*
X253600000Y-46480000D03*
%TD*%
D15*
%TO.C,R3*%
X215580000Y-43495000D03*
X216600000Y-43495000D03*
%TD*%
D13*
%TO.C,J35*%
X181400000Y-25100000D03*
D14*
X183940000Y-25100000D03*
X186480000Y-25100000D03*
%TD*%
D23*
%TO.C,R18*%
X142650000Y-88960000D03*
X142650000Y-87940000D03*
%TD*%
D13*
%TO.C,J24*%
X263600000Y-98800000D03*
D14*
X263600000Y-101340000D03*
%TD*%
D13*
%TO.C,J44*%
X26350000Y-98850000D03*
D14*
X26350000Y-101390000D03*
%TD*%
D13*
%TO.C,J7*%
X77850000Y-35600000D03*
D14*
X80390000Y-35600000D03*
X82930000Y-35600000D03*
%TD*%
D13*
%TO.C,J32*%
X81400000Y-25100000D03*
D14*
X83940000Y-25100000D03*
%TD*%
D13*
%TO.C,J3*%
X152730000Y-25100000D03*
D14*
X155270000Y-25100000D03*
X157810000Y-25100000D03*
X160350000Y-25100000D03*
%TD*%
D18*
%TO.C,C23*%
X148300000Y-81800000D03*
X149300000Y-81800000D03*
%TD*%
D13*
%TO.C,J8*%
X166400000Y-35600000D03*
D14*
X168940000Y-35600000D03*
X171480000Y-35600000D03*
%TD*%
D16*
%TO.C,R30*%
X230820000Y-50450000D03*
X229800000Y-50450000D03*
%TD*%
D15*
%TO.C,R4*%
X215580000Y-50475000D03*
X216600000Y-50475000D03*
%TD*%
D13*
%TO.C,J70*%
X181400000Y-35600000D03*
D14*
X183940000Y-35600000D03*
%TD*%
D13*
%TO.C,J34*%
X192400000Y-47100000D03*
D14*
X194940000Y-47100000D03*
%TD*%
D23*
%TO.C,R19*%
X169020000Y-49280000D03*
X169020000Y-48260000D03*
%TD*%
D13*
%TO.C,J39*%
X36400000Y-101400000D03*
D14*
X36400000Y-103940000D03*
X36400000Y-106480000D03*
%TD*%
D13*
%TO.C,J21*%
X36400000Y-41400000D03*
D14*
X36400000Y-43940000D03*
X36400000Y-46480000D03*
%TD*%
D13*
%TO.C,J31*%
X121400000Y-35600000D03*
D14*
X123940000Y-35600000D03*
%TD*%
D13*
%TO.C,J10*%
X131700000Y-35600000D03*
D14*
X134240000Y-35600000D03*
X136780000Y-35600000D03*
%TD*%
D24*
%TO.C,I2C_1*%
X220530000Y-45875000D03*
X220530000Y-46525000D03*
X220530000Y-47175000D03*
X220530000Y-47825000D03*
X220530000Y-48475000D03*
X220530000Y-49125000D03*
X220530000Y-49775000D03*
X220530000Y-50425000D03*
X220530000Y-51075000D03*
X220530000Y-51725000D03*
X220530000Y-52375000D03*
X220530000Y-53025000D03*
X226270000Y-53025000D03*
X226270000Y-52375000D03*
X226270000Y-51725000D03*
X226270000Y-51075000D03*
X226270000Y-50425000D03*
X226270000Y-49775000D03*
X226270000Y-49125000D03*
X226270000Y-48475000D03*
X226270000Y-47825000D03*
X226270000Y-47175000D03*
X226270000Y-46525000D03*
X226270000Y-45875000D03*
%TD*%
D19*
%TO.C,H4*%
X25000000Y-25000000D03*
D20*
X25000000Y-25000000D03*
%TD*%
D13*
%TO.C,J17*%
X36400000Y-71400000D03*
D14*
X36400000Y-73940000D03*
X36400000Y-76480000D03*
%TD*%
D13*
%TO.C,J18*%
X26350000Y-81400000D03*
D14*
X26350000Y-83940000D03*
X26350000Y-86480000D03*
%TD*%
D22*
%TO.C,U9*%
X157640000Y-60850000D03*
X158910000Y-60850000D03*
X160180000Y-60850000D03*
X161450000Y-60850000D03*
X162720000Y-60850000D03*
X163990000Y-60850000D03*
X165260000Y-60850000D03*
X166530000Y-60850000D03*
X167800000Y-60850000D03*
X169070000Y-60850000D03*
X170340000Y-60850000D03*
X171610000Y-60850000D03*
X171610000Y-51550000D03*
X170340000Y-51550000D03*
X169070000Y-51550000D03*
X167800000Y-51550000D03*
X166530000Y-51550000D03*
X165260000Y-51550000D03*
X163990000Y-51550000D03*
X162720000Y-51550000D03*
X161450000Y-51550000D03*
X160180000Y-51550000D03*
X158910000Y-51550000D03*
X157640000Y-51550000D03*
%TD*%
D25*
%TO.C,R10*%
X159725000Y-102382500D03*
X159725000Y-104207500D03*
%TD*%
D23*
%TO.C,R8*%
X100905000Y-77210000D03*
X100905000Y-76190000D03*
%TD*%
%TO.C,R11*%
X224625000Y-79210000D03*
X224625000Y-78190000D03*
%TD*%
D26*
%TO.C,R15*%
X157475000Y-104207500D03*
X157475000Y-102382500D03*
%TD*%
D15*
%TO.C,R5*%
X229750000Y-45800000D03*
X230770000Y-45800000D03*
%TD*%
D13*
%TO.C,J51*%
X26350000Y-51350000D03*
D14*
X26350000Y-53890000D03*
X26350000Y-56430000D03*
X26350000Y-58970000D03*
X26350000Y-61510000D03*
X26350000Y-64050000D03*
%TD*%
D13*
%TO.C,J22*%
X36400000Y-31400000D03*
D14*
X36400000Y-33940000D03*
X36400000Y-36480000D03*
%TD*%
D13*
%TO.C,J38*%
X26350000Y-91370000D03*
D14*
X26350000Y-93910000D03*
%TD*%
D13*
%TO.C,J69*%
X192400000Y-35600000D03*
D14*
X194940000Y-35600000D03*
%TD*%
D13*
%TO.C,J25*%
X253600000Y-101350000D03*
D14*
X253600000Y-103890000D03*
X253600000Y-106430000D03*
%TD*%
D13*
%TO.C,J19*%
X36400000Y-61400000D03*
D14*
X36400000Y-63940000D03*
X36400000Y-66480000D03*
%TD*%
D18*
%TO.C,C10*%
X131700000Y-95900000D03*
X130700000Y-95900000D03*
%TD*%
D15*
%TO.C,R1*%
X215580000Y-48225000D03*
X216600000Y-48225000D03*
%TD*%
D22*
%TO.C,U6*%
X113070000Y-63650000D03*
X114340000Y-63650000D03*
X115610000Y-63650000D03*
X116880000Y-63650000D03*
X118150000Y-63650000D03*
X119420000Y-63650000D03*
X120690000Y-63650000D03*
X121960000Y-63650000D03*
X123230000Y-63650000D03*
X124500000Y-63650000D03*
X125770000Y-63650000D03*
X127040000Y-63650000D03*
X127040000Y-54350000D03*
X125770000Y-54350000D03*
X124500000Y-54350000D03*
X123230000Y-54350000D03*
X121960000Y-54350000D03*
X120690000Y-54350000D03*
X119420000Y-54350000D03*
X118150000Y-54350000D03*
X116880000Y-54350000D03*
X115610000Y-54350000D03*
X114340000Y-54350000D03*
X113070000Y-54350000D03*
%TD*%
D23*
%TO.C,R12*%
X124500000Y-52160000D03*
X124500000Y-51140000D03*
%TD*%
D19*
%TO.C,H5*%
X115000000Y-115000000D03*
D20*
X115000000Y-115000000D03*
%TD*%
D23*
%TO.C,R17*%
X141700000Y-88960000D03*
X141700000Y-87940000D03*
%TD*%
D17*
%TO.C,C11*%
X140700000Y-87800000D03*
X140700000Y-88800000D03*
%TD*%
D27*
%TO.C,U7*%
X160225000Y-99100000D03*
X160225000Y-97830000D03*
X160225000Y-96560000D03*
X160225000Y-95290000D03*
X153025000Y-95290000D03*
X153025000Y-96560000D03*
X153025000Y-97830000D03*
X153025000Y-99100000D03*
%TD*%
D13*
%TO.C,J58*%
X243600000Y-101300000D03*
D14*
X243600000Y-103840000D03*
X243600000Y-106380000D03*
%TD*%
D28*
%TO.C,R13*%
X131250000Y-114690000D03*
X131250000Y-115710000D03*
%TD*%
D13*
%TO.C,J15*%
X103760000Y-25100000D03*
D14*
X106300000Y-25100000D03*
X108840000Y-25100000D03*
X111380000Y-25100000D03*
%TD*%
D15*
%TO.C,R22*%
X215530000Y-55025000D03*
X216550000Y-55025000D03*
%TD*%
D22*
%TO.C,U2*%
X89465000Y-88850000D03*
X90735000Y-88850000D03*
X92005000Y-88850000D03*
X93275000Y-88850000D03*
X94545000Y-88850000D03*
X95815000Y-88850000D03*
X97085000Y-88850000D03*
X98355000Y-88850000D03*
X99625000Y-88850000D03*
X100895000Y-88850000D03*
X102165000Y-88850000D03*
X103435000Y-88850000D03*
X103435000Y-79550000D03*
X102165000Y-79550000D03*
X100895000Y-79550000D03*
X99625000Y-79550000D03*
X98355000Y-79550000D03*
X97085000Y-79550000D03*
X95815000Y-79550000D03*
X94545000Y-79550000D03*
X93275000Y-79550000D03*
X92005000Y-79550000D03*
X90735000Y-79550000D03*
X89465000Y-79550000D03*
%TD*%
D13*
%TO.C,J16*%
X36400000Y-81400000D03*
D14*
X36400000Y-83940000D03*
X36400000Y-86480000D03*
%TD*%
D17*
%TO.C,C5*%
X213200000Y-79200000D03*
X213200000Y-78200000D03*
%TD*%
D23*
%TO.C,R7*%
X75905000Y-77210000D03*
X75905000Y-76190000D03*
%TD*%
D18*
%TO.C,C22*%
X138200000Y-81800000D03*
X137200000Y-81800000D03*
%TD*%
D13*
%TO.C,J30*%
X204900000Y-25100000D03*
D14*
X207440000Y-25100000D03*
%TD*%
D17*
%TO.C,C3*%
X89500000Y-77200000D03*
X89500000Y-76200000D03*
%TD*%
D22*
%TO.C,U4*%
X213190000Y-90800000D03*
X214460000Y-90800000D03*
X215730000Y-90800000D03*
X217000000Y-90800000D03*
X218270000Y-90800000D03*
X219540000Y-90800000D03*
X220810000Y-90800000D03*
X222080000Y-90800000D03*
X223350000Y-90800000D03*
X224620000Y-90800000D03*
X225890000Y-90800000D03*
X227160000Y-90800000D03*
X227160000Y-81500000D03*
X225890000Y-81500000D03*
X224620000Y-81500000D03*
X223350000Y-81500000D03*
X222080000Y-81500000D03*
X220810000Y-81500000D03*
X219540000Y-81500000D03*
X218270000Y-81500000D03*
X217000000Y-81500000D03*
X215730000Y-81500000D03*
X214460000Y-81500000D03*
X213190000Y-81500000D03*
%TD*%
%TO.C,U1*%
X64465000Y-88850000D03*
X65735000Y-88850000D03*
X67005000Y-88850000D03*
X68275000Y-88850000D03*
X69545000Y-88850000D03*
X70815000Y-88850000D03*
X72085000Y-88850000D03*
X73355000Y-88850000D03*
X74625000Y-88850000D03*
X75895000Y-88850000D03*
X77165000Y-88850000D03*
X78435000Y-88850000D03*
X78435000Y-79550000D03*
X77165000Y-79550000D03*
X75895000Y-79550000D03*
X74625000Y-79550000D03*
X73355000Y-79550000D03*
X72085000Y-79550000D03*
X70815000Y-79550000D03*
X69545000Y-79550000D03*
X68275000Y-79550000D03*
X67005000Y-79550000D03*
X65735000Y-79550000D03*
X64465000Y-79550000D03*
%TD*%
D15*
%TO.C,R16*%
X151090000Y-80150000D03*
X152110000Y-80150000D03*
%TD*%
D13*
%TO.C,J40*%
X253600000Y-51350000D03*
D14*
X253600000Y-53890000D03*
X253600000Y-56430000D03*
%TD*%
D18*
%TO.C,C1*%
X226870000Y-43700000D03*
X225870000Y-43700000D03*
%TD*%
D16*
%TO.C,R6*%
X230770000Y-43550000D03*
X229750000Y-43550000D03*
%TD*%
D13*
%TO.C,J45*%
X46400000Y-25100000D03*
D14*
X48940000Y-25100000D03*
X51480000Y-25100000D03*
%TD*%
D13*
%TO.C,J28*%
X263600000Y-81300000D03*
D14*
X263600000Y-83840000D03*
X263600000Y-86380000D03*
%TD*%
D13*
%TO.C,J23*%
X263600000Y-91300000D03*
D14*
X263600000Y-93840000D03*
%TD*%
D18*
%TO.C,C7*%
X146050000Y-70650000D03*
X147050000Y-70650000D03*
%TD*%
D13*
%TO.C,J41*%
X192400000Y-25100000D03*
D14*
X194940000Y-25100000D03*
X197480000Y-25100000D03*
%TD*%
D16*
%TO.C,R2*%
X216600000Y-45975000D03*
X215580000Y-45975000D03*
%TD*%
%TO.C,R29*%
X230770000Y-48150000D03*
X229750000Y-48150000D03*
%TD*%
D13*
%TO.C,J59*%
X193975000Y-114650000D03*
D14*
X196515000Y-114650000D03*
%TD*%
D17*
%TO.C,C12*%
X141750000Y-77700000D03*
X141750000Y-76700000D03*
%TD*%
D29*
%TO.C,U8*%
X146562500Y-85400000D03*
X146562500Y-85000000D03*
X146562500Y-84600000D03*
X146562500Y-84200000D03*
X146562500Y-83800000D03*
X146562500Y-83400000D03*
X146562500Y-83000000D03*
X146562500Y-82600000D03*
X146562500Y-82200000D03*
X146562500Y-81800000D03*
X146562500Y-81400000D03*
X146562500Y-81000000D03*
X146562500Y-80600000D03*
X146562500Y-80200000D03*
D30*
X145725000Y-79362500D03*
X145325000Y-79362500D03*
X144925000Y-79362500D03*
X144525000Y-79362500D03*
X144125000Y-79362500D03*
X143725000Y-79362500D03*
X143325000Y-79362500D03*
X142925000Y-79362500D03*
X142525000Y-79362500D03*
X142125000Y-79362500D03*
X141725000Y-79362500D03*
X141325000Y-79362500D03*
X140925000Y-79362500D03*
X140525000Y-79362500D03*
D29*
X139687500Y-80200000D03*
X139687500Y-80600000D03*
X139687500Y-81000000D03*
X139687500Y-81400000D03*
X139687500Y-81800000D03*
X139687500Y-82200000D03*
X139687500Y-82600000D03*
X139687500Y-83000000D03*
X139687500Y-83400000D03*
X139687500Y-83800000D03*
X139687500Y-84200000D03*
X139687500Y-84600000D03*
X139687500Y-85000000D03*
X139687500Y-85400000D03*
D30*
X140525000Y-86237500D03*
X140925000Y-86237500D03*
X141325000Y-86237500D03*
X141725000Y-86237500D03*
X142125000Y-86237500D03*
X142525000Y-86237500D03*
X142925000Y-86237500D03*
X143325000Y-86237500D03*
X143725000Y-86237500D03*
X144125000Y-86237500D03*
X144525000Y-86237500D03*
X144925000Y-86237500D03*
X145325000Y-86237500D03*
X145725000Y-86237500D03*
D31*
X143125000Y-82800000D03*
%TD*%
D13*
%TO.C,J2*%
X263600000Y-68900000D03*
D14*
X263600000Y-71440000D03*
X263600000Y-73980000D03*
X263600000Y-76520000D03*
%TD*%
D13*
%TO.C,J36*%
X36400000Y-91400000D03*
D14*
X36400000Y-93940000D03*
X36400000Y-96480000D03*
%TD*%
D13*
%TO.C,J60*%
X206780000Y-113950000D03*
D14*
X209320000Y-113950000D03*
X211860000Y-113950000D03*
X214400000Y-113950000D03*
%TD*%
D16*
%TO.C,R27*%
X230820000Y-52700000D03*
X229800000Y-52700000D03*
%TD*%
D13*
%TO.C,J29*%
X253600000Y-61300000D03*
D14*
X253600000Y-63840000D03*
X253600000Y-66380000D03*
%TD*%
D15*
%TO.C,R20*%
X219810000Y-43700000D03*
X220830000Y-43700000D03*
%TD*%
D13*
%TO.C,J4*%
X165760000Y-25100000D03*
D14*
X168300000Y-25100000D03*
X170840000Y-25100000D03*
X173380000Y-25100000D03*
%TD*%
D13*
%TO.C,J27*%
X253600000Y-71300000D03*
D14*
X253600000Y-73840000D03*
X253600000Y-76380000D03*
%TD*%
D13*
%TO.C,J48*%
X68900000Y-48600000D03*
D14*
X71440000Y-48600000D03*
%TD*%
D13*
%TO.C,J20*%
X36400000Y-51400000D03*
D14*
X36400000Y-53940000D03*
X36400000Y-56480000D03*
%TD*%
D23*
%TO.C,R14*%
X143950000Y-77760000D03*
X143950000Y-76740000D03*
%TD*%
D13*
%TO.C,J71*%
X90850000Y-35600000D03*
D14*
X93390000Y-35600000D03*
%TD*%
D17*
%TO.C,C14*%
X144800000Y-88800000D03*
X144800000Y-89800000D03*
%TD*%
D18*
%TO.C,C26*%
X138200000Y-85350000D03*
X137200000Y-85350000D03*
%TD*%
D13*
%TO.C,J43*%
X90900000Y-48600000D03*
D14*
X93440000Y-48600000D03*
%TD*%
D13*
%TO.C,J5*%
X129540000Y-25100000D03*
D14*
X132080000Y-25100000D03*
X134620000Y-25100000D03*
X137160000Y-25100000D03*
%TD*%
D13*
%TO.C,J52*%
X253600000Y-31350000D03*
D14*
X253600000Y-33890000D03*
X253600000Y-36430000D03*
%TD*%
D19*
%TO.C,H6*%
X145000000Y-25000000D03*
D20*
X145000000Y-25000000D03*
%TD*%
D32*
%TO.C,U5*%
X128850000Y-106250000D03*
X131150000Y-106250000D03*
X133450000Y-106250000D03*
D33*
X131150000Y-99950000D03*
%TD*%
D13*
%TO.C,J9*%
X142490000Y-35600000D03*
D14*
X145030000Y-35600000D03*
X147570000Y-35600000D03*
%TD*%
D13*
%TO.C,J26*%
X253600000Y-81350000D03*
D14*
X253600000Y-83890000D03*
X253600000Y-86430000D03*
%TD*%
D18*
%TO.C,C25*%
X138200000Y-84350000D03*
X137200000Y-84350000D03*
%TD*%
D17*
%TO.C,C24*%
X142950000Y-77700000D03*
X142950000Y-76700000D03*
%TD*%
%TO.C,C17*%
X157650000Y-49200000D03*
X157650000Y-48200000D03*
%TD*%
%TO.C,C13*%
X143800000Y-88800000D03*
X143800000Y-89800000D03*
%TD*%
D13*
%TO.C,J50*%
X45400000Y-101400000D03*
D14*
X45400000Y-103940000D03*
X45400000Y-106480000D03*
%TD*%
D34*
%TO.C,D1*%
X126600000Y-116187500D03*
X126600000Y-114312500D03*
%TD*%
M02*
