%TF.GenerationSoftware,KiCad,Pcbnew,8.0.5*%
%TF.CreationDate,2024-09-28T19:10:59+02:00*%
%TF.ProjectId,FCU_Mainboard_v4,4643555f-4d61-4696-9e62-6f6172645f76,rev?*%
%TF.SameCoordinates,Original*%
%TF.FileFunction,Soldermask,Bot*%
%TF.FilePolarity,Negative*%
%FSLAX46Y46*%
G04 Gerber Fmt 4.6, Leading zero omitted, Abs format (unit mm)*
G04 Created by KiCad (PCBNEW 8.0.5) date 2024-09-28 19:10:59*
%MOMM*%
%LPD*%
G01*
G04 APERTURE LIST*
%ADD10C,0.700000*%
%ADD11O,0.900000X2.400000*%
%ADD12O,0.900000X1.700000*%
%ADD13R,1.700000X1.700000*%
%ADD14O,1.700000X1.700000*%
%ADD15C,3.100000*%
%ADD16C,4.700000*%
G04 APERTURE END LIST*
D10*
%TO.C,P1*%
X138650000Y-113540000D03*
X139500000Y-113540000D03*
X140350000Y-113540000D03*
X141200000Y-113540000D03*
X142050000Y-113540000D03*
X142900000Y-113540000D03*
X143750000Y-113540000D03*
X144600000Y-113540000D03*
X144600000Y-114890000D03*
X143750000Y-114890000D03*
X142900000Y-114890000D03*
X142050000Y-114890000D03*
X141200000Y-114890000D03*
X140350000Y-114890000D03*
X139500000Y-114890000D03*
X138650000Y-114890000D03*
D11*
X137300000Y-114520000D03*
D12*
X137300000Y-117900000D03*
D11*
X145950000Y-114520000D03*
D12*
X145950000Y-117900000D03*
%TD*%
D13*
%TO.C,J55*%
X263600000Y-31360000D03*
D14*
X263600000Y-33900000D03*
X263600000Y-36440000D03*
X263600000Y-38980000D03*
X263600000Y-41520000D03*
X263600000Y-44060000D03*
X263600000Y-46600000D03*
%TD*%
D13*
%TO.C,J56*%
X253650000Y-91300000D03*
D14*
X253650000Y-93840000D03*
X253650000Y-96380000D03*
%TD*%
D13*
%TO.C,J11*%
X153340000Y-35600000D03*
D14*
X155880000Y-35600000D03*
X158420000Y-35600000D03*
%TD*%
D13*
%TO.C,J49*%
X45400000Y-91400000D03*
D14*
X45400000Y-93940000D03*
X45400000Y-96480000D03*
%TD*%
D13*
%TO.C,J57*%
X243600000Y-91250000D03*
D14*
X243600000Y-93790000D03*
X243600000Y-96330000D03*
%TD*%
D13*
%TO.C,J37*%
X181400000Y-47100000D03*
D14*
X183940000Y-47100000D03*
%TD*%
D15*
%TO.C,H3*%
X265000000Y-25000000D03*
D16*
X265000000Y-25000000D03*
%TD*%
D13*
%TO.C,J33*%
X58900000Y-25100000D03*
D14*
X61440000Y-25100000D03*
%TD*%
D15*
%TO.C,H1*%
X175000000Y-115000000D03*
D16*
X175000000Y-115000000D03*
%TD*%
D13*
%TO.C,J54*%
X263600000Y-51400000D03*
D14*
X263600000Y-53940000D03*
X263600000Y-56480000D03*
X263600000Y-59020000D03*
X263600000Y-61560000D03*
X263600000Y-64100000D03*
%TD*%
D13*
%TO.C,J72*%
X68850000Y-35600000D03*
D14*
X71390000Y-35600000D03*
%TD*%
D13*
%TO.C,J42*%
X90900000Y-25100000D03*
D14*
X93440000Y-25100000D03*
X95980000Y-25100000D03*
%TD*%
D15*
%TO.C,H7*%
X265000000Y-115000000D03*
D16*
X265000000Y-115000000D03*
%TD*%
D13*
%TO.C,J6*%
X77900000Y-48600000D03*
D14*
X80440000Y-48600000D03*
X82980000Y-48600000D03*
%TD*%
D13*
%TO.C,J14*%
X116530000Y-25100000D03*
D14*
X119070000Y-25100000D03*
X121610000Y-25100000D03*
X124150000Y-25100000D03*
%TD*%
D13*
%TO.C,J46*%
X68900000Y-25100000D03*
D14*
X71440000Y-25100000D03*
X73980000Y-25100000D03*
%TD*%
D13*
%TO.C,J53*%
X26400000Y-31400000D03*
D14*
X26400000Y-33940000D03*
X26400000Y-36480000D03*
X26400000Y-39020000D03*
X26400000Y-41560000D03*
X26400000Y-44100000D03*
X26400000Y-46640000D03*
%TD*%
D15*
%TO.C,H2*%
X25000000Y-115000000D03*
D16*
X25000000Y-115000000D03*
%TD*%
D13*
%TO.C,J1*%
X26350000Y-68850000D03*
D14*
X26350000Y-71390000D03*
X26350000Y-73930000D03*
X26350000Y-76470000D03*
%TD*%
D13*
%TO.C,J47*%
X253600000Y-41400000D03*
D14*
X253600000Y-43940000D03*
X253600000Y-46480000D03*
%TD*%
D13*
%TO.C,J35*%
X181400000Y-25100000D03*
D14*
X183940000Y-25100000D03*
X186480000Y-25100000D03*
%TD*%
D13*
%TO.C,J24*%
X263600000Y-98800000D03*
D14*
X263600000Y-101340000D03*
%TD*%
D13*
%TO.C,J44*%
X26350000Y-98850000D03*
D14*
X26350000Y-101390000D03*
%TD*%
D13*
%TO.C,J7*%
X77850000Y-35600000D03*
D14*
X80390000Y-35600000D03*
X82930000Y-35600000D03*
%TD*%
D13*
%TO.C,J32*%
X81400000Y-25100000D03*
D14*
X83940000Y-25100000D03*
%TD*%
D13*
%TO.C,J3*%
X152730000Y-25100000D03*
D14*
X155270000Y-25100000D03*
X157810000Y-25100000D03*
X160350000Y-25100000D03*
%TD*%
D13*
%TO.C,J8*%
X166400000Y-35600000D03*
D14*
X168940000Y-35600000D03*
X171480000Y-35600000D03*
%TD*%
D13*
%TO.C,J70*%
X181400000Y-35600000D03*
D14*
X183940000Y-35600000D03*
%TD*%
D13*
%TO.C,J34*%
X192400000Y-47100000D03*
D14*
X194940000Y-47100000D03*
%TD*%
D13*
%TO.C,J39*%
X36400000Y-101400000D03*
D14*
X36400000Y-103940000D03*
X36400000Y-106480000D03*
%TD*%
D13*
%TO.C,J21*%
X36400000Y-41400000D03*
D14*
X36400000Y-43940000D03*
X36400000Y-46480000D03*
%TD*%
D13*
%TO.C,J31*%
X121400000Y-35600000D03*
D14*
X123940000Y-35600000D03*
%TD*%
D13*
%TO.C,J10*%
X131700000Y-35600000D03*
D14*
X134240000Y-35600000D03*
X136780000Y-35600000D03*
%TD*%
D15*
%TO.C,H4*%
X25000000Y-25000000D03*
D16*
X25000000Y-25000000D03*
%TD*%
D13*
%TO.C,J17*%
X36400000Y-71400000D03*
D14*
X36400000Y-73940000D03*
X36400000Y-76480000D03*
%TD*%
D13*
%TO.C,J18*%
X26350000Y-81400000D03*
D14*
X26350000Y-83940000D03*
X26350000Y-86480000D03*
%TD*%
D13*
%TO.C,J51*%
X26350000Y-51350000D03*
D14*
X26350000Y-53890000D03*
X26350000Y-56430000D03*
X26350000Y-58970000D03*
X26350000Y-61510000D03*
X26350000Y-64050000D03*
%TD*%
D13*
%TO.C,J22*%
X36400000Y-31400000D03*
D14*
X36400000Y-33940000D03*
X36400000Y-36480000D03*
%TD*%
D13*
%TO.C,J38*%
X26350000Y-91370000D03*
D14*
X26350000Y-93910000D03*
%TD*%
D13*
%TO.C,J69*%
X192400000Y-35600000D03*
D14*
X194940000Y-35600000D03*
%TD*%
D13*
%TO.C,J25*%
X253600000Y-101350000D03*
D14*
X253600000Y-103890000D03*
X253600000Y-106430000D03*
%TD*%
D13*
%TO.C,J19*%
X36400000Y-61400000D03*
D14*
X36400000Y-63940000D03*
X36400000Y-66480000D03*
%TD*%
D15*
%TO.C,H5*%
X115000000Y-115000000D03*
D16*
X115000000Y-115000000D03*
%TD*%
D13*
%TO.C,J58*%
X243600000Y-101300000D03*
D14*
X243600000Y-103840000D03*
X243600000Y-106380000D03*
%TD*%
D13*
%TO.C,J15*%
X103760000Y-25100000D03*
D14*
X106300000Y-25100000D03*
X108840000Y-25100000D03*
X111380000Y-25100000D03*
%TD*%
D13*
%TO.C,J16*%
X36400000Y-81400000D03*
D14*
X36400000Y-83940000D03*
X36400000Y-86480000D03*
%TD*%
D13*
%TO.C,J30*%
X204900000Y-25100000D03*
D14*
X207440000Y-25100000D03*
%TD*%
D13*
%TO.C,J40*%
X253600000Y-51350000D03*
D14*
X253600000Y-53890000D03*
X253600000Y-56430000D03*
%TD*%
D13*
%TO.C,J45*%
X46400000Y-25100000D03*
D14*
X48940000Y-25100000D03*
X51480000Y-25100000D03*
%TD*%
D13*
%TO.C,J28*%
X263600000Y-81300000D03*
D14*
X263600000Y-83840000D03*
X263600000Y-86380000D03*
%TD*%
D13*
%TO.C,J23*%
X263600000Y-91300000D03*
D14*
X263600000Y-93840000D03*
%TD*%
D13*
%TO.C,J41*%
X192400000Y-25100000D03*
D14*
X194940000Y-25100000D03*
X197480000Y-25100000D03*
%TD*%
D13*
%TO.C,J59*%
X193975000Y-114650000D03*
D14*
X196515000Y-114650000D03*
%TD*%
D13*
%TO.C,J2*%
X263600000Y-68900000D03*
D14*
X263600000Y-71440000D03*
X263600000Y-73980000D03*
X263600000Y-76520000D03*
%TD*%
D13*
%TO.C,J36*%
X36400000Y-91400000D03*
D14*
X36400000Y-93940000D03*
X36400000Y-96480000D03*
%TD*%
D13*
%TO.C,J60*%
X206780000Y-113950000D03*
D14*
X209320000Y-113950000D03*
X211860000Y-113950000D03*
X214400000Y-113950000D03*
%TD*%
D13*
%TO.C,J29*%
X253600000Y-61300000D03*
D14*
X253600000Y-63840000D03*
X253600000Y-66380000D03*
%TD*%
D13*
%TO.C,J4*%
X165760000Y-25100000D03*
D14*
X168300000Y-25100000D03*
X170840000Y-25100000D03*
X173380000Y-25100000D03*
%TD*%
D13*
%TO.C,J27*%
X253600000Y-71300000D03*
D14*
X253600000Y-73840000D03*
X253600000Y-76380000D03*
%TD*%
D13*
%TO.C,J48*%
X68900000Y-48600000D03*
D14*
X71440000Y-48600000D03*
%TD*%
D13*
%TO.C,J20*%
X36400000Y-51400000D03*
D14*
X36400000Y-53940000D03*
X36400000Y-56480000D03*
%TD*%
D13*
%TO.C,J71*%
X90850000Y-35600000D03*
D14*
X93390000Y-35600000D03*
%TD*%
D13*
%TO.C,J43*%
X90900000Y-48600000D03*
D14*
X93440000Y-48600000D03*
%TD*%
D13*
%TO.C,J5*%
X129540000Y-25100000D03*
D14*
X132080000Y-25100000D03*
X134620000Y-25100000D03*
X137160000Y-25100000D03*
%TD*%
D13*
%TO.C,J52*%
X253600000Y-31350000D03*
D14*
X253600000Y-33890000D03*
X253600000Y-36430000D03*
%TD*%
D15*
%TO.C,H6*%
X145000000Y-25000000D03*
D16*
X145000000Y-25000000D03*
%TD*%
D13*
%TO.C,J9*%
X142490000Y-35600000D03*
D14*
X145030000Y-35600000D03*
X147570000Y-35600000D03*
%TD*%
D13*
%TO.C,J26*%
X253600000Y-81350000D03*
D14*
X253600000Y-83890000D03*
X253600000Y-86430000D03*
%TD*%
D13*
%TO.C,J50*%
X45400000Y-101400000D03*
D14*
X45400000Y-103940000D03*
X45400000Y-106480000D03*
%TD*%
M02*
