%TF.GenerationSoftware,KiCad,Pcbnew,8.0.2*%
%TF.CreationDate,2024-05-31T10:43:30+02:00*%
%TF.ProjectId,LTS_Spooler,4c54535f-5370-46f6-9f6c-65722e6b6963,rev?*%
%TF.SameCoordinates,Original*%
%TF.FileFunction,Legend,Top*%
%TF.FilePolarity,Positive*%
%FSLAX46Y46*%
G04 Gerber Fmt 4.6, Leading zero omitted, Abs format (unit mm)*
G04 Created by KiCad (PCBNEW 8.0.2) date 2024-05-31 10:43:30*
%MOMM*%
%LPD*%
G01*
G04 APERTURE LIST*
%ADD10C,0.100000*%
%ADD11C,0.200000*%
%ADD12C,0.300000*%
%ADD13C,0.150000*%
%ADD14C,0.120000*%
%ADD15C,0.127000*%
G04 APERTURE END LIST*
D10*
X58127580Y-35553884D02*
X59127580Y-35553884D01*
X58127580Y-36030074D02*
X59127580Y-36030074D01*
X59127580Y-36030074D02*
X58127580Y-36601502D01*
X58127580Y-36601502D02*
X59127580Y-36601502D01*
X59127580Y-49994360D02*
X59127580Y-50184836D01*
X59127580Y-50184836D02*
X59079961Y-50280074D01*
X59079961Y-50280074D02*
X58984723Y-50375312D01*
X58984723Y-50375312D02*
X58794247Y-50422931D01*
X58794247Y-50422931D02*
X58460914Y-50422931D01*
X58460914Y-50422931D02*
X58270438Y-50375312D01*
X58270438Y-50375312D02*
X58175200Y-50280074D01*
X58175200Y-50280074D02*
X58127580Y-50184836D01*
X58127580Y-50184836D02*
X58127580Y-49994360D01*
X58127580Y-49994360D02*
X58175200Y-49899122D01*
X58175200Y-49899122D02*
X58270438Y-49803884D01*
X58270438Y-49803884D02*
X58460914Y-49756265D01*
X58460914Y-49756265D02*
X58794247Y-49756265D01*
X58794247Y-49756265D02*
X58984723Y-49803884D01*
X58984723Y-49803884D02*
X59079961Y-49899122D01*
X59079961Y-49899122D02*
X59127580Y-49994360D01*
X59127580Y-50851503D02*
X58318057Y-50851503D01*
X58318057Y-50851503D02*
X58222819Y-50899122D01*
X58222819Y-50899122D02*
X58175200Y-50946741D01*
X58175200Y-50946741D02*
X58127580Y-51041979D01*
X58127580Y-51041979D02*
X58127580Y-51232455D01*
X58127580Y-51232455D02*
X58175200Y-51327693D01*
X58175200Y-51327693D02*
X58222819Y-51375312D01*
X58222819Y-51375312D02*
X58318057Y-51422931D01*
X58318057Y-51422931D02*
X59127580Y-51422931D01*
X59127580Y-51756265D02*
X59127580Y-52327693D01*
X58127580Y-52041979D02*
X59127580Y-52041979D01*
D11*
X65869673Y-55486266D02*
X66631578Y-55486266D01*
X63369673Y-55486266D02*
X64131578Y-55486266D01*
X63750625Y-55867219D02*
X63750625Y-55105314D01*
X60869673Y-55867219D02*
X60869673Y-54867219D01*
X60869673Y-54867219D02*
X61107768Y-54867219D01*
X61107768Y-54867219D02*
X61250625Y-54914838D01*
X61250625Y-54914838D02*
X61345863Y-55010076D01*
X61345863Y-55010076D02*
X61393482Y-55105314D01*
X61393482Y-55105314D02*
X61441101Y-55295790D01*
X61441101Y-55295790D02*
X61441101Y-55438647D01*
X61441101Y-55438647D02*
X61393482Y-55629123D01*
X61393482Y-55629123D02*
X61345863Y-55724361D01*
X61345863Y-55724361D02*
X61250625Y-55819600D01*
X61250625Y-55819600D02*
X61107768Y-55867219D01*
X61107768Y-55867219D02*
X60869673Y-55867219D01*
X58941101Y-55771980D02*
X58893482Y-55819600D01*
X58893482Y-55819600D02*
X58750625Y-55867219D01*
X58750625Y-55867219D02*
X58655387Y-55867219D01*
X58655387Y-55867219D02*
X58512530Y-55819600D01*
X58512530Y-55819600D02*
X58417292Y-55724361D01*
X58417292Y-55724361D02*
X58369673Y-55629123D01*
X58369673Y-55629123D02*
X58322054Y-55438647D01*
X58322054Y-55438647D02*
X58322054Y-55295790D01*
X58322054Y-55295790D02*
X58369673Y-55105314D01*
X58369673Y-55105314D02*
X58417292Y-55010076D01*
X58417292Y-55010076D02*
X58512530Y-54914838D01*
X58512530Y-54914838D02*
X58655387Y-54867219D01*
X58655387Y-54867219D02*
X58750625Y-54867219D01*
X58750625Y-54867219D02*
X58893482Y-54914838D01*
X58893482Y-54914838D02*
X58941101Y-54962457D01*
X56203006Y-55343409D02*
X56345863Y-55391028D01*
X56345863Y-55391028D02*
X56393482Y-55438647D01*
X56393482Y-55438647D02*
X56441101Y-55533885D01*
X56441101Y-55533885D02*
X56441101Y-55676742D01*
X56441101Y-55676742D02*
X56393482Y-55771980D01*
X56393482Y-55771980D02*
X56345863Y-55819600D01*
X56345863Y-55819600D02*
X56250625Y-55867219D01*
X56250625Y-55867219D02*
X55869673Y-55867219D01*
X55869673Y-55867219D02*
X55869673Y-54867219D01*
X55869673Y-54867219D02*
X56203006Y-54867219D01*
X56203006Y-54867219D02*
X56298244Y-54914838D01*
X56298244Y-54914838D02*
X56345863Y-54962457D01*
X56345863Y-54962457D02*
X56393482Y-55057695D01*
X56393482Y-55057695D02*
X56393482Y-55152933D01*
X56393482Y-55152933D02*
X56345863Y-55248171D01*
X56345863Y-55248171D02*
X56298244Y-55295790D01*
X56298244Y-55295790D02*
X56203006Y-55343409D01*
X56203006Y-55343409D02*
X55869673Y-55343409D01*
X53072054Y-55581504D02*
X53548244Y-55581504D01*
X52976816Y-55867219D02*
X53310149Y-54867219D01*
X53310149Y-54867219D02*
X53643482Y-55867219D01*
D12*
X17440225Y-57772257D02*
X17297368Y-57700828D01*
X17297368Y-57700828D02*
X17083082Y-57700828D01*
X17083082Y-57700828D02*
X16868796Y-57772257D01*
X16868796Y-57772257D02*
X16725939Y-57915114D01*
X16725939Y-57915114D02*
X16654510Y-58057971D01*
X16654510Y-58057971D02*
X16583082Y-58343685D01*
X16583082Y-58343685D02*
X16583082Y-58557971D01*
X16583082Y-58557971D02*
X16654510Y-58843685D01*
X16654510Y-58843685D02*
X16725939Y-58986542D01*
X16725939Y-58986542D02*
X16868796Y-59129400D01*
X16868796Y-59129400D02*
X17083082Y-59200828D01*
X17083082Y-59200828D02*
X17225939Y-59200828D01*
X17225939Y-59200828D02*
X17440225Y-59129400D01*
X17440225Y-59129400D02*
X17511653Y-59057971D01*
X17511653Y-59057971D02*
X17511653Y-58557971D01*
X17511653Y-58557971D02*
X17225939Y-58557971D01*
X18154510Y-59200828D02*
X18154510Y-57700828D01*
X18154510Y-57700828D02*
X19011653Y-59200828D01*
X19011653Y-59200828D02*
X19011653Y-57700828D01*
X19725939Y-59200828D02*
X19725939Y-57700828D01*
X19725939Y-57700828D02*
X20083082Y-57700828D01*
X20083082Y-57700828D02*
X20297368Y-57772257D01*
X20297368Y-57772257D02*
X20440225Y-57915114D01*
X20440225Y-57915114D02*
X20511654Y-58057971D01*
X20511654Y-58057971D02*
X20583082Y-58343685D01*
X20583082Y-58343685D02*
X20583082Y-58557971D01*
X20583082Y-58557971D02*
X20511654Y-58843685D01*
X20511654Y-58843685D02*
X20440225Y-58986542D01*
X20440225Y-58986542D02*
X20297368Y-59129400D01*
X20297368Y-59129400D02*
X20083082Y-59200828D01*
X20083082Y-59200828D02*
X19725939Y-59200828D01*
X17440225Y-46600828D02*
X16583082Y-46600828D01*
X17011653Y-46600828D02*
X17011653Y-45100828D01*
X17011653Y-45100828D02*
X16868796Y-45315114D01*
X16868796Y-45315114D02*
X16725939Y-45457971D01*
X16725939Y-45457971D02*
X16583082Y-45529400D01*
X18011653Y-45243685D02*
X18083081Y-45172257D01*
X18083081Y-45172257D02*
X18225939Y-45100828D01*
X18225939Y-45100828D02*
X18583081Y-45100828D01*
X18583081Y-45100828D02*
X18725939Y-45172257D01*
X18725939Y-45172257D02*
X18797367Y-45243685D01*
X18797367Y-45243685D02*
X18868796Y-45386542D01*
X18868796Y-45386542D02*
X18868796Y-45529400D01*
X18868796Y-45529400D02*
X18797367Y-45743685D01*
X18797367Y-45743685D02*
X17940224Y-46600828D01*
X17940224Y-46600828D02*
X18868796Y-46600828D01*
X19297367Y-45100828D02*
X19797367Y-46600828D01*
X19797367Y-46600828D02*
X20297367Y-45100828D01*
D11*
X31737292Y-52914171D02*
X31908720Y-52971314D01*
X31908720Y-52971314D02*
X31965863Y-53028457D01*
X31965863Y-53028457D02*
X32023006Y-53142742D01*
X32023006Y-53142742D02*
X32023006Y-53314171D01*
X32023006Y-53314171D02*
X31965863Y-53428457D01*
X31965863Y-53428457D02*
X31908720Y-53485600D01*
X31908720Y-53485600D02*
X31794435Y-53542742D01*
X31794435Y-53542742D02*
X31337292Y-53542742D01*
X31337292Y-53542742D02*
X31337292Y-52342742D01*
X31337292Y-52342742D02*
X31737292Y-52342742D01*
X31737292Y-52342742D02*
X31851578Y-52399885D01*
X31851578Y-52399885D02*
X31908720Y-52457028D01*
X31908720Y-52457028D02*
X31965863Y-52571314D01*
X31965863Y-52571314D02*
X31965863Y-52685600D01*
X31965863Y-52685600D02*
X31908720Y-52799885D01*
X31908720Y-52799885D02*
X31851578Y-52857028D01*
X31851578Y-52857028D02*
X31737292Y-52914171D01*
X31737292Y-52914171D02*
X31337292Y-52914171D01*
X32537292Y-52342742D02*
X32537292Y-53314171D01*
X32537292Y-53314171D02*
X32594435Y-53428457D01*
X32594435Y-53428457D02*
X32651578Y-53485600D01*
X32651578Y-53485600D02*
X32765863Y-53542742D01*
X32765863Y-53542742D02*
X32994435Y-53542742D01*
X32994435Y-53542742D02*
X33108720Y-53485600D01*
X33108720Y-53485600D02*
X33165863Y-53428457D01*
X33165863Y-53428457D02*
X33223006Y-53314171D01*
X33223006Y-53314171D02*
X33223006Y-52342742D01*
X33623006Y-52342742D02*
X34308721Y-52342742D01*
X33965863Y-53542742D02*
X33965863Y-52342742D01*
X34537292Y-52342742D02*
X35223007Y-52342742D01*
X34880149Y-53542742D02*
X34880149Y-52342742D01*
X35851578Y-52342742D02*
X36080150Y-52342742D01*
X36080150Y-52342742D02*
X36194435Y-52399885D01*
X36194435Y-52399885D02*
X36308721Y-52514171D01*
X36308721Y-52514171D02*
X36365864Y-52742742D01*
X36365864Y-52742742D02*
X36365864Y-53142742D01*
X36365864Y-53142742D02*
X36308721Y-53371314D01*
X36308721Y-53371314D02*
X36194435Y-53485600D01*
X36194435Y-53485600D02*
X36080150Y-53542742D01*
X36080150Y-53542742D02*
X35851578Y-53542742D01*
X35851578Y-53542742D02*
X35737293Y-53485600D01*
X35737293Y-53485600D02*
X35623007Y-53371314D01*
X35623007Y-53371314D02*
X35565864Y-53142742D01*
X35565864Y-53142742D02*
X35565864Y-52742742D01*
X35565864Y-52742742D02*
X35623007Y-52514171D01*
X35623007Y-52514171D02*
X35737293Y-52399885D01*
X35737293Y-52399885D02*
X35851578Y-52342742D01*
X36880150Y-53542742D02*
X36880150Y-52342742D01*
X36880150Y-52342742D02*
X37565864Y-53542742D01*
X37565864Y-53542742D02*
X37565864Y-52342742D01*
X36337292Y-57985600D02*
X37251578Y-57985600D01*
X36794435Y-58442742D02*
X36794435Y-57528457D01*
X38394434Y-58442742D02*
X37823006Y-58442742D01*
X37823006Y-58442742D02*
X37823006Y-57242742D01*
X38794435Y-57814171D02*
X39194435Y-57814171D01*
X39365863Y-58442742D02*
X38794435Y-58442742D01*
X38794435Y-58442742D02*
X38794435Y-57242742D01*
X38794435Y-57242742D02*
X39365863Y-57242742D01*
X39880149Y-58442742D02*
X39880149Y-57242742D01*
X39880149Y-57242742D02*
X40165863Y-57242742D01*
X40165863Y-57242742D02*
X40337292Y-57299885D01*
X40337292Y-57299885D02*
X40451577Y-57414171D01*
X40451577Y-57414171D02*
X40508720Y-57528457D01*
X40508720Y-57528457D02*
X40565863Y-57757028D01*
X40565863Y-57757028D02*
X40565863Y-57928457D01*
X40565863Y-57928457D02*
X40508720Y-58157028D01*
X40508720Y-58157028D02*
X40451577Y-58271314D01*
X40451577Y-58271314D02*
X40337292Y-58385600D01*
X40337292Y-58385600D02*
X40165863Y-58442742D01*
X40165863Y-58442742D02*
X39880149Y-58442742D01*
X41023006Y-57357028D02*
X41080149Y-57299885D01*
X41080149Y-57299885D02*
X41194435Y-57242742D01*
X41194435Y-57242742D02*
X41480149Y-57242742D01*
X41480149Y-57242742D02*
X41594435Y-57299885D01*
X41594435Y-57299885D02*
X41651577Y-57357028D01*
X41651577Y-57357028D02*
X41708720Y-57471314D01*
X41708720Y-57471314D02*
X41708720Y-57585600D01*
X41708720Y-57585600D02*
X41651577Y-57757028D01*
X41651577Y-57757028D02*
X40965863Y-58442742D01*
X40965863Y-58442742D02*
X41708720Y-58442742D01*
X42223006Y-57985600D02*
X43137292Y-57985600D01*
X25737292Y-57885600D02*
X26651578Y-57885600D01*
X26194435Y-58342742D02*
X26194435Y-57428457D01*
X27794434Y-58342742D02*
X27223006Y-58342742D01*
X27223006Y-58342742D02*
X27223006Y-57142742D01*
X28194435Y-57714171D02*
X28594435Y-57714171D01*
X28765863Y-58342742D02*
X28194435Y-58342742D01*
X28194435Y-58342742D02*
X28194435Y-57142742D01*
X28194435Y-57142742D02*
X28765863Y-57142742D01*
X29280149Y-58342742D02*
X29280149Y-57142742D01*
X29280149Y-57142742D02*
X29565863Y-57142742D01*
X29565863Y-57142742D02*
X29737292Y-57199885D01*
X29737292Y-57199885D02*
X29851577Y-57314171D01*
X29851577Y-57314171D02*
X29908720Y-57428457D01*
X29908720Y-57428457D02*
X29965863Y-57657028D01*
X29965863Y-57657028D02*
X29965863Y-57828457D01*
X29965863Y-57828457D02*
X29908720Y-58057028D01*
X29908720Y-58057028D02*
X29851577Y-58171314D01*
X29851577Y-58171314D02*
X29737292Y-58285600D01*
X29737292Y-58285600D02*
X29565863Y-58342742D01*
X29565863Y-58342742D02*
X29280149Y-58342742D01*
X31108720Y-58342742D02*
X30423006Y-58342742D01*
X30765863Y-58342742D02*
X30765863Y-57142742D01*
X30765863Y-57142742D02*
X30651577Y-57314171D01*
X30651577Y-57314171D02*
X30537292Y-57428457D01*
X30537292Y-57428457D02*
X30423006Y-57485600D01*
X31623006Y-57885600D02*
X32537292Y-57885600D01*
X52917292Y-60592742D02*
X52917292Y-59392742D01*
X52917292Y-59392742D02*
X53317292Y-60249885D01*
X53317292Y-60249885D02*
X53717292Y-59392742D01*
X53717292Y-59392742D02*
X53717292Y-60592742D01*
X54517292Y-59392742D02*
X54745864Y-59392742D01*
X54745864Y-59392742D02*
X54860149Y-59449885D01*
X54860149Y-59449885D02*
X54974435Y-59564171D01*
X54974435Y-59564171D02*
X55031578Y-59792742D01*
X55031578Y-59792742D02*
X55031578Y-60192742D01*
X55031578Y-60192742D02*
X54974435Y-60421314D01*
X54974435Y-60421314D02*
X54860149Y-60535600D01*
X54860149Y-60535600D02*
X54745864Y-60592742D01*
X54745864Y-60592742D02*
X54517292Y-60592742D01*
X54517292Y-60592742D02*
X54403007Y-60535600D01*
X54403007Y-60535600D02*
X54288721Y-60421314D01*
X54288721Y-60421314D02*
X54231578Y-60192742D01*
X54231578Y-60192742D02*
X54231578Y-59792742D01*
X54231578Y-59792742D02*
X54288721Y-59564171D01*
X54288721Y-59564171D02*
X54403007Y-59449885D01*
X54403007Y-59449885D02*
X54517292Y-59392742D01*
X55374435Y-59392742D02*
X56060150Y-59392742D01*
X55717292Y-60592742D02*
X55717292Y-59392742D01*
X56688721Y-59392742D02*
X56917293Y-59392742D01*
X56917293Y-59392742D02*
X57031578Y-59449885D01*
X57031578Y-59449885D02*
X57145864Y-59564171D01*
X57145864Y-59564171D02*
X57203007Y-59792742D01*
X57203007Y-59792742D02*
X57203007Y-60192742D01*
X57203007Y-60192742D02*
X57145864Y-60421314D01*
X57145864Y-60421314D02*
X57031578Y-60535600D01*
X57031578Y-60535600D02*
X56917293Y-60592742D01*
X56917293Y-60592742D02*
X56688721Y-60592742D01*
X56688721Y-60592742D02*
X56574436Y-60535600D01*
X56574436Y-60535600D02*
X56460150Y-60421314D01*
X56460150Y-60421314D02*
X56403007Y-60192742D01*
X56403007Y-60192742D02*
X56403007Y-59792742D01*
X56403007Y-59792742D02*
X56460150Y-59564171D01*
X56460150Y-59564171D02*
X56574436Y-59449885D01*
X56574436Y-59449885D02*
X56688721Y-59392742D01*
X58403007Y-60592742D02*
X58003007Y-60021314D01*
X57717293Y-60592742D02*
X57717293Y-59392742D01*
X57717293Y-59392742D02*
X58174436Y-59392742D01*
X58174436Y-59392742D02*
X58288721Y-59449885D01*
X58288721Y-59449885D02*
X58345864Y-59507028D01*
X58345864Y-59507028D02*
X58403007Y-59621314D01*
X58403007Y-59621314D02*
X58403007Y-59792742D01*
X58403007Y-59792742D02*
X58345864Y-59907028D01*
X58345864Y-59907028D02*
X58288721Y-59964171D01*
X58288721Y-59964171D02*
X58174436Y-60021314D01*
X58174436Y-60021314D02*
X57717293Y-60021314D01*
X60110149Y-60535600D02*
X60281578Y-60592742D01*
X60281578Y-60592742D02*
X60567292Y-60592742D01*
X60567292Y-60592742D02*
X60681578Y-60535600D01*
X60681578Y-60535600D02*
X60738720Y-60478457D01*
X60738720Y-60478457D02*
X60795863Y-60364171D01*
X60795863Y-60364171D02*
X60795863Y-60249885D01*
X60795863Y-60249885D02*
X60738720Y-60135600D01*
X60738720Y-60135600D02*
X60681578Y-60078457D01*
X60681578Y-60078457D02*
X60567292Y-60021314D01*
X60567292Y-60021314D02*
X60338720Y-59964171D01*
X60338720Y-59964171D02*
X60224435Y-59907028D01*
X60224435Y-59907028D02*
X60167292Y-59849885D01*
X60167292Y-59849885D02*
X60110149Y-59735600D01*
X60110149Y-59735600D02*
X60110149Y-59621314D01*
X60110149Y-59621314D02*
X60167292Y-59507028D01*
X60167292Y-59507028D02*
X60224435Y-59449885D01*
X60224435Y-59449885D02*
X60338720Y-59392742D01*
X60338720Y-59392742D02*
X60624435Y-59392742D01*
X60624435Y-59392742D02*
X60795863Y-59449885D01*
X61310149Y-59964171D02*
X61710149Y-59964171D01*
X61881577Y-60592742D02*
X61310149Y-60592742D01*
X61310149Y-60592742D02*
X61310149Y-59392742D01*
X61310149Y-59392742D02*
X61881577Y-59392742D01*
X62395863Y-60592742D02*
X62395863Y-59392742D01*
X62395863Y-59392742D02*
X63081577Y-60592742D01*
X63081577Y-60592742D02*
X63081577Y-59392742D01*
X63595863Y-60535600D02*
X63767292Y-60592742D01*
X63767292Y-60592742D02*
X64053006Y-60592742D01*
X64053006Y-60592742D02*
X64167292Y-60535600D01*
X64167292Y-60535600D02*
X64224434Y-60478457D01*
X64224434Y-60478457D02*
X64281577Y-60364171D01*
X64281577Y-60364171D02*
X64281577Y-60249885D01*
X64281577Y-60249885D02*
X64224434Y-60135600D01*
X64224434Y-60135600D02*
X64167292Y-60078457D01*
X64167292Y-60078457D02*
X64053006Y-60021314D01*
X64053006Y-60021314D02*
X63824434Y-59964171D01*
X63824434Y-59964171D02*
X63710149Y-59907028D01*
X63710149Y-59907028D02*
X63653006Y-59849885D01*
X63653006Y-59849885D02*
X63595863Y-59735600D01*
X63595863Y-59735600D02*
X63595863Y-59621314D01*
X63595863Y-59621314D02*
X63653006Y-59507028D01*
X63653006Y-59507028D02*
X63710149Y-59449885D01*
X63710149Y-59449885D02*
X63824434Y-59392742D01*
X63824434Y-59392742D02*
X64110149Y-59392742D01*
X64110149Y-59392742D02*
X64281577Y-59449885D01*
X65024434Y-59392742D02*
X65253006Y-59392742D01*
X65253006Y-59392742D02*
X65367291Y-59449885D01*
X65367291Y-59449885D02*
X65481577Y-59564171D01*
X65481577Y-59564171D02*
X65538720Y-59792742D01*
X65538720Y-59792742D02*
X65538720Y-60192742D01*
X65538720Y-60192742D02*
X65481577Y-60421314D01*
X65481577Y-60421314D02*
X65367291Y-60535600D01*
X65367291Y-60535600D02*
X65253006Y-60592742D01*
X65253006Y-60592742D02*
X65024434Y-60592742D01*
X65024434Y-60592742D02*
X64910149Y-60535600D01*
X64910149Y-60535600D02*
X64795863Y-60421314D01*
X64795863Y-60421314D02*
X64738720Y-60192742D01*
X64738720Y-60192742D02*
X64738720Y-59792742D01*
X64738720Y-59792742D02*
X64795863Y-59564171D01*
X64795863Y-59564171D02*
X64910149Y-59449885D01*
X64910149Y-59449885D02*
X65024434Y-59392742D01*
X66738720Y-60592742D02*
X66338720Y-60021314D01*
X66053006Y-60592742D02*
X66053006Y-59392742D01*
X66053006Y-59392742D02*
X66510149Y-59392742D01*
X66510149Y-59392742D02*
X66624434Y-59449885D01*
X66624434Y-59449885D02*
X66681577Y-59507028D01*
X66681577Y-59507028D02*
X66738720Y-59621314D01*
X66738720Y-59621314D02*
X66738720Y-59792742D01*
X66738720Y-59792742D02*
X66681577Y-59907028D01*
X66681577Y-59907028D02*
X66624434Y-59964171D01*
X66624434Y-59964171D02*
X66510149Y-60021314D01*
X66510149Y-60021314D02*
X66053006Y-60021314D01*
D10*
X35161027Y-42872419D02*
X35732455Y-42872419D01*
X35446741Y-43872419D02*
X35446741Y-42872419D01*
X36065789Y-43872419D02*
X36065789Y-42872419D01*
X36065789Y-42872419D02*
X36399122Y-43586704D01*
X36399122Y-43586704D02*
X36732455Y-42872419D01*
X36732455Y-42872419D02*
X36732455Y-43872419D01*
X37780074Y-43777180D02*
X37732455Y-43824800D01*
X37732455Y-43824800D02*
X37589598Y-43872419D01*
X37589598Y-43872419D02*
X37494360Y-43872419D01*
X37494360Y-43872419D02*
X37351503Y-43824800D01*
X37351503Y-43824800D02*
X37256265Y-43729561D01*
X37256265Y-43729561D02*
X37208646Y-43634323D01*
X37208646Y-43634323D02*
X37161027Y-43443847D01*
X37161027Y-43443847D02*
X37161027Y-43300990D01*
X37161027Y-43300990D02*
X37208646Y-43110514D01*
X37208646Y-43110514D02*
X37256265Y-43015276D01*
X37256265Y-43015276D02*
X37351503Y-42920038D01*
X37351503Y-42920038D02*
X37494360Y-42872419D01*
X37494360Y-42872419D02*
X37589598Y-42872419D01*
X37589598Y-42872419D02*
X37732455Y-42920038D01*
X37732455Y-42920038D02*
X37780074Y-42967657D01*
X38161027Y-42967657D02*
X38208646Y-42920038D01*
X38208646Y-42920038D02*
X38303884Y-42872419D01*
X38303884Y-42872419D02*
X38541979Y-42872419D01*
X38541979Y-42872419D02*
X38637217Y-42920038D01*
X38637217Y-42920038D02*
X38684836Y-42967657D01*
X38684836Y-42967657D02*
X38732455Y-43062895D01*
X38732455Y-43062895D02*
X38732455Y-43158133D01*
X38732455Y-43158133D02*
X38684836Y-43300990D01*
X38684836Y-43300990D02*
X38113408Y-43872419D01*
X38113408Y-43872419D02*
X38732455Y-43872419D01*
X39113408Y-42967657D02*
X39161027Y-42920038D01*
X39161027Y-42920038D02*
X39256265Y-42872419D01*
X39256265Y-42872419D02*
X39494360Y-42872419D01*
X39494360Y-42872419D02*
X39589598Y-42920038D01*
X39589598Y-42920038D02*
X39637217Y-42967657D01*
X39637217Y-42967657D02*
X39684836Y-43062895D01*
X39684836Y-43062895D02*
X39684836Y-43158133D01*
X39684836Y-43158133D02*
X39637217Y-43300990D01*
X39637217Y-43300990D02*
X39065789Y-43872419D01*
X39065789Y-43872419D02*
X39684836Y-43872419D01*
X40303884Y-42872419D02*
X40399122Y-42872419D01*
X40399122Y-42872419D02*
X40494360Y-42920038D01*
X40494360Y-42920038D02*
X40541979Y-42967657D01*
X40541979Y-42967657D02*
X40589598Y-43062895D01*
X40589598Y-43062895D02*
X40637217Y-43253371D01*
X40637217Y-43253371D02*
X40637217Y-43491466D01*
X40637217Y-43491466D02*
X40589598Y-43681942D01*
X40589598Y-43681942D02*
X40541979Y-43777180D01*
X40541979Y-43777180D02*
X40494360Y-43824800D01*
X40494360Y-43824800D02*
X40399122Y-43872419D01*
X40399122Y-43872419D02*
X40303884Y-43872419D01*
X40303884Y-43872419D02*
X40208646Y-43824800D01*
X40208646Y-43824800D02*
X40161027Y-43777180D01*
X40161027Y-43777180D02*
X40113408Y-43681942D01*
X40113408Y-43681942D02*
X40065789Y-43491466D01*
X40065789Y-43491466D02*
X40065789Y-43253371D01*
X40065789Y-43253371D02*
X40113408Y-43062895D01*
X40113408Y-43062895D02*
X40161027Y-42967657D01*
X40161027Y-42967657D02*
X40208646Y-42920038D01*
X40208646Y-42920038D02*
X40303884Y-42872419D01*
X41113408Y-43872419D02*
X41303884Y-43872419D01*
X41303884Y-43872419D02*
X41399122Y-43824800D01*
X41399122Y-43824800D02*
X41446741Y-43777180D01*
X41446741Y-43777180D02*
X41541979Y-43634323D01*
X41541979Y-43634323D02*
X41589598Y-43443847D01*
X41589598Y-43443847D02*
X41589598Y-43062895D01*
X41589598Y-43062895D02*
X41541979Y-42967657D01*
X41541979Y-42967657D02*
X41494360Y-42920038D01*
X41494360Y-42920038D02*
X41399122Y-42872419D01*
X41399122Y-42872419D02*
X41208646Y-42872419D01*
X41208646Y-42872419D02*
X41113408Y-42920038D01*
X41113408Y-42920038D02*
X41065789Y-42967657D01*
X41065789Y-42967657D02*
X41018170Y-43062895D01*
X41018170Y-43062895D02*
X41018170Y-43300990D01*
X41018170Y-43300990D02*
X41065789Y-43396228D01*
X41065789Y-43396228D02*
X41113408Y-43443847D01*
X41113408Y-43443847D02*
X41208646Y-43491466D01*
X41208646Y-43491466D02*
X41399122Y-43491466D01*
X41399122Y-43491466D02*
X41494360Y-43443847D01*
X41494360Y-43443847D02*
X41541979Y-43396228D01*
X41541979Y-43396228D02*
X41589598Y-43300990D01*
X19803884Y-28991466D02*
X20565789Y-28991466D01*
X20184836Y-29372419D02*
X20184836Y-28610514D01*
X20946741Y-28372419D02*
X21565788Y-28372419D01*
X21565788Y-28372419D02*
X21232455Y-28753371D01*
X21232455Y-28753371D02*
X21375312Y-28753371D01*
X21375312Y-28753371D02*
X21470550Y-28800990D01*
X21470550Y-28800990D02*
X21518169Y-28848609D01*
X21518169Y-28848609D02*
X21565788Y-28943847D01*
X21565788Y-28943847D02*
X21565788Y-29181942D01*
X21565788Y-29181942D02*
X21518169Y-29277180D01*
X21518169Y-29277180D02*
X21470550Y-29324800D01*
X21470550Y-29324800D02*
X21375312Y-29372419D01*
X21375312Y-29372419D02*
X21089598Y-29372419D01*
X21089598Y-29372419D02*
X20994360Y-29324800D01*
X20994360Y-29324800D02*
X20946741Y-29277180D01*
X21899122Y-28705752D02*
X22137217Y-29372419D01*
X22137217Y-29372419D02*
X22375312Y-28705752D01*
X22661027Y-28372419D02*
X23280074Y-28372419D01*
X23280074Y-28372419D02*
X22946741Y-28753371D01*
X22946741Y-28753371D02*
X23089598Y-28753371D01*
X23089598Y-28753371D02*
X23184836Y-28800990D01*
X23184836Y-28800990D02*
X23232455Y-28848609D01*
X23232455Y-28848609D02*
X23280074Y-28943847D01*
X23280074Y-28943847D02*
X23280074Y-29181942D01*
X23280074Y-29181942D02*
X23232455Y-29277180D01*
X23232455Y-29277180D02*
X23184836Y-29324800D01*
X23184836Y-29324800D02*
X23089598Y-29372419D01*
X23089598Y-29372419D02*
X22803884Y-29372419D01*
X22803884Y-29372419D02*
X22708646Y-29324800D01*
X22708646Y-29324800D02*
X22661027Y-29277180D01*
X54161027Y-28372419D02*
X54494360Y-29372419D01*
X54494360Y-29372419D02*
X54827693Y-28372419D01*
X55161027Y-29372419D02*
X55161027Y-28372419D01*
X55637217Y-29372419D02*
X55637217Y-28372419D01*
X55637217Y-28372419D02*
X56208645Y-29372419D01*
X56208645Y-29372419D02*
X56208645Y-28372419D01*
X52200000Y-34100000D02*
X65200000Y-34100000D01*
X65200000Y-53100000D01*
X52200000Y-53100000D01*
X52200000Y-34100000D01*
D12*
X55254510Y-43900828D02*
X55254510Y-42400828D01*
X55254510Y-42400828D02*
X55611653Y-42400828D01*
X55611653Y-42400828D02*
X55825939Y-42472257D01*
X55825939Y-42472257D02*
X55968796Y-42615114D01*
X55968796Y-42615114D02*
X56040225Y-42757971D01*
X56040225Y-42757971D02*
X56111653Y-43043685D01*
X56111653Y-43043685D02*
X56111653Y-43257971D01*
X56111653Y-43257971D02*
X56040225Y-43543685D01*
X56040225Y-43543685D02*
X55968796Y-43686542D01*
X55968796Y-43686542D02*
X55825939Y-43829400D01*
X55825939Y-43829400D02*
X55611653Y-43900828D01*
X55611653Y-43900828D02*
X55254510Y-43900828D01*
X57611653Y-43757971D02*
X57540225Y-43829400D01*
X57540225Y-43829400D02*
X57325939Y-43900828D01*
X57325939Y-43900828D02*
X57183082Y-43900828D01*
X57183082Y-43900828D02*
X56968796Y-43829400D01*
X56968796Y-43829400D02*
X56825939Y-43686542D01*
X56825939Y-43686542D02*
X56754510Y-43543685D01*
X56754510Y-43543685D02*
X56683082Y-43257971D01*
X56683082Y-43257971D02*
X56683082Y-43043685D01*
X56683082Y-43043685D02*
X56754510Y-42757971D01*
X56754510Y-42757971D02*
X56825939Y-42615114D01*
X56825939Y-42615114D02*
X56968796Y-42472257D01*
X56968796Y-42472257D02*
X57183082Y-42400828D01*
X57183082Y-42400828D02*
X57325939Y-42400828D01*
X57325939Y-42400828D02*
X57540225Y-42472257D01*
X57540225Y-42472257D02*
X57611653Y-42543685D01*
X58254510Y-43329400D02*
X59397368Y-43329400D01*
X60111653Y-43900828D02*
X60111653Y-42400828D01*
X60111653Y-42400828D02*
X60468796Y-42400828D01*
X60468796Y-42400828D02*
X60683082Y-42472257D01*
X60683082Y-42472257D02*
X60825939Y-42615114D01*
X60825939Y-42615114D02*
X60897368Y-42757971D01*
X60897368Y-42757971D02*
X60968796Y-43043685D01*
X60968796Y-43043685D02*
X60968796Y-43257971D01*
X60968796Y-43257971D02*
X60897368Y-43543685D01*
X60897368Y-43543685D02*
X60825939Y-43686542D01*
X60825939Y-43686542D02*
X60683082Y-43829400D01*
X60683082Y-43829400D02*
X60468796Y-43900828D01*
X60468796Y-43900828D02*
X60111653Y-43900828D01*
X62468796Y-43757971D02*
X62397368Y-43829400D01*
X62397368Y-43829400D02*
X62183082Y-43900828D01*
X62183082Y-43900828D02*
X62040225Y-43900828D01*
X62040225Y-43900828D02*
X61825939Y-43829400D01*
X61825939Y-43829400D02*
X61683082Y-43686542D01*
X61683082Y-43686542D02*
X61611653Y-43543685D01*
X61611653Y-43543685D02*
X61540225Y-43257971D01*
X61540225Y-43257971D02*
X61540225Y-43043685D01*
X61540225Y-43043685D02*
X61611653Y-42757971D01*
X61611653Y-42757971D02*
X61683082Y-42615114D01*
X61683082Y-42615114D02*
X61825939Y-42472257D01*
X61825939Y-42472257D02*
X62040225Y-42400828D01*
X62040225Y-42400828D02*
X62183082Y-42400828D01*
X62183082Y-42400828D02*
X62397368Y-42472257D01*
X62397368Y-42472257D02*
X62468796Y-42543685D01*
D13*
X17490476Y-50954819D02*
X17490476Y-51669104D01*
X17490476Y-51669104D02*
X17442857Y-51811961D01*
X17442857Y-51811961D02*
X17347619Y-51907200D01*
X17347619Y-51907200D02*
X17204762Y-51954819D01*
X17204762Y-51954819D02*
X17109524Y-51954819D01*
X18490476Y-51954819D02*
X17919048Y-51954819D01*
X18204762Y-51954819D02*
X18204762Y-50954819D01*
X18204762Y-50954819D02*
X18109524Y-51097676D01*
X18109524Y-51097676D02*
X18014286Y-51192914D01*
X18014286Y-51192914D02*
X17919048Y-51240533D01*
X19109524Y-50954819D02*
X19204762Y-50954819D01*
X19204762Y-50954819D02*
X19300000Y-51002438D01*
X19300000Y-51002438D02*
X19347619Y-51050057D01*
X19347619Y-51050057D02*
X19395238Y-51145295D01*
X19395238Y-51145295D02*
X19442857Y-51335771D01*
X19442857Y-51335771D02*
X19442857Y-51573866D01*
X19442857Y-51573866D02*
X19395238Y-51764342D01*
X19395238Y-51764342D02*
X19347619Y-51859580D01*
X19347619Y-51859580D02*
X19300000Y-51907200D01*
X19300000Y-51907200D02*
X19204762Y-51954819D01*
X19204762Y-51954819D02*
X19109524Y-51954819D01*
X19109524Y-51954819D02*
X19014286Y-51907200D01*
X19014286Y-51907200D02*
X18966667Y-51859580D01*
X18966667Y-51859580D02*
X18919048Y-51764342D01*
X18919048Y-51764342D02*
X18871429Y-51573866D01*
X18871429Y-51573866D02*
X18871429Y-51335771D01*
X18871429Y-51335771D02*
X18919048Y-51145295D01*
X18919048Y-51145295D02*
X18966667Y-51050057D01*
X18966667Y-51050057D02*
X19014286Y-51002438D01*
X19014286Y-51002438D02*
X19109524Y-50954819D01*
X62916666Y-47954819D02*
X62916666Y-48669104D01*
X62916666Y-48669104D02*
X62869047Y-48811961D01*
X62869047Y-48811961D02*
X62773809Y-48907200D01*
X62773809Y-48907200D02*
X62630952Y-48954819D01*
X62630952Y-48954819D02*
X62535714Y-48954819D01*
X63297619Y-47954819D02*
X63964285Y-47954819D01*
X63964285Y-47954819D02*
X63535714Y-48954819D01*
X60369048Y-51323866D02*
X61130953Y-51323866D01*
X53666666Y-47954819D02*
X53666666Y-48669104D01*
X53666666Y-48669104D02*
X53619047Y-48811961D01*
X53619047Y-48811961D02*
X53523809Y-48907200D01*
X53523809Y-48907200D02*
X53380952Y-48954819D01*
X53380952Y-48954819D02*
X53285714Y-48954819D01*
X54571428Y-47954819D02*
X54380952Y-47954819D01*
X54380952Y-47954819D02*
X54285714Y-48002438D01*
X54285714Y-48002438D02*
X54238095Y-48050057D01*
X54238095Y-48050057D02*
X54142857Y-48192914D01*
X54142857Y-48192914D02*
X54095238Y-48383390D01*
X54095238Y-48383390D02*
X54095238Y-48764342D01*
X54095238Y-48764342D02*
X54142857Y-48859580D01*
X54142857Y-48859580D02*
X54190476Y-48907200D01*
X54190476Y-48907200D02*
X54285714Y-48954819D01*
X54285714Y-48954819D02*
X54476190Y-48954819D01*
X54476190Y-48954819D02*
X54571428Y-48907200D01*
X54571428Y-48907200D02*
X54619047Y-48859580D01*
X54619047Y-48859580D02*
X54666666Y-48764342D01*
X54666666Y-48764342D02*
X54666666Y-48526247D01*
X54666666Y-48526247D02*
X54619047Y-48431009D01*
X54619047Y-48431009D02*
X54571428Y-48383390D01*
X54571428Y-48383390D02*
X54476190Y-48335771D01*
X54476190Y-48335771D02*
X54285714Y-48335771D01*
X54285714Y-48335771D02*
X54190476Y-48383390D01*
X54190476Y-48383390D02*
X54142857Y-48431009D01*
X54142857Y-48431009D02*
X54095238Y-48526247D01*
X56119048Y-51323866D02*
X56880953Y-51323866D01*
X56500000Y-51704819D02*
X56500000Y-50942914D01*
X53666666Y-38204819D02*
X53666666Y-38919104D01*
X53666666Y-38919104D02*
X53619047Y-39061961D01*
X53619047Y-39061961D02*
X53523809Y-39157200D01*
X53523809Y-39157200D02*
X53380952Y-39204819D01*
X53380952Y-39204819D02*
X53285714Y-39204819D01*
X54571428Y-38538152D02*
X54571428Y-39204819D01*
X54333333Y-38157200D02*
X54095238Y-38871485D01*
X54095238Y-38871485D02*
X54714285Y-38871485D01*
X56119048Y-36073866D02*
X56880953Y-36073866D01*
X56500000Y-36454819D02*
X56500000Y-35692914D01*
X62666666Y-38204819D02*
X62666666Y-38919104D01*
X62666666Y-38919104D02*
X62619047Y-39061961D01*
X62619047Y-39061961D02*
X62523809Y-39157200D01*
X62523809Y-39157200D02*
X62380952Y-39204819D01*
X62380952Y-39204819D02*
X62285714Y-39204819D01*
X63619047Y-38204819D02*
X63142857Y-38204819D01*
X63142857Y-38204819D02*
X63095238Y-38681009D01*
X63095238Y-38681009D02*
X63142857Y-38633390D01*
X63142857Y-38633390D02*
X63238095Y-38585771D01*
X63238095Y-38585771D02*
X63476190Y-38585771D01*
X63476190Y-38585771D02*
X63571428Y-38633390D01*
X63571428Y-38633390D02*
X63619047Y-38681009D01*
X63619047Y-38681009D02*
X63666666Y-38776247D01*
X63666666Y-38776247D02*
X63666666Y-39014342D01*
X63666666Y-39014342D02*
X63619047Y-39109580D01*
X63619047Y-39109580D02*
X63571428Y-39157200D01*
X63571428Y-39157200D02*
X63476190Y-39204819D01*
X63476190Y-39204819D02*
X63238095Y-39204819D01*
X63238095Y-39204819D02*
X63142857Y-39157200D01*
X63142857Y-39157200D02*
X63095238Y-39109580D01*
X60369048Y-36073866D02*
X61130953Y-36073866D01*
X26799819Y-49336904D02*
X27609342Y-49336904D01*
X27609342Y-49336904D02*
X27704580Y-49289285D01*
X27704580Y-49289285D02*
X27752200Y-49241666D01*
X27752200Y-49241666D02*
X27799819Y-49146428D01*
X27799819Y-49146428D02*
X27799819Y-48955952D01*
X27799819Y-48955952D02*
X27752200Y-48860714D01*
X27752200Y-48860714D02*
X27704580Y-48813095D01*
X27704580Y-48813095D02*
X27609342Y-48765476D01*
X27609342Y-48765476D02*
X26799819Y-48765476D01*
X27799819Y-47765476D02*
X27799819Y-48336904D01*
X27799819Y-48051190D02*
X26799819Y-48051190D01*
X26799819Y-48051190D02*
X26942676Y-48146428D01*
X26942676Y-48146428D02*
X27037914Y-48241666D01*
X27037914Y-48241666D02*
X27085533Y-48336904D01*
X58940476Y-53454819D02*
X58940476Y-54169104D01*
X58940476Y-54169104D02*
X58892857Y-54311961D01*
X58892857Y-54311961D02*
X58797619Y-54407200D01*
X58797619Y-54407200D02*
X58654762Y-54454819D01*
X58654762Y-54454819D02*
X58559524Y-54454819D01*
X59940476Y-54454819D02*
X59369048Y-54454819D01*
X59654762Y-54454819D02*
X59654762Y-53454819D01*
X59654762Y-53454819D02*
X59559524Y-53597676D01*
X59559524Y-53597676D02*
X59464286Y-53692914D01*
X59464286Y-53692914D02*
X59369048Y-53740533D01*
X60892857Y-54454819D02*
X60321429Y-54454819D01*
X60607143Y-54454819D02*
X60607143Y-53454819D01*
X60607143Y-53454819D02*
X60511905Y-53597676D01*
X60511905Y-53597676D02*
X60416667Y-53692914D01*
X60416667Y-53692914D02*
X60321429Y-53740533D01*
X25024819Y-56309523D02*
X25739104Y-56309523D01*
X25739104Y-56309523D02*
X25881961Y-56357142D01*
X25881961Y-56357142D02*
X25977200Y-56452380D01*
X25977200Y-56452380D02*
X26024819Y-56595237D01*
X26024819Y-56595237D02*
X26024819Y-56690475D01*
X26024819Y-55309523D02*
X26024819Y-55880951D01*
X26024819Y-55595237D02*
X25024819Y-55595237D01*
X25024819Y-55595237D02*
X25167676Y-55690475D01*
X25167676Y-55690475D02*
X25262914Y-55785713D01*
X25262914Y-55785713D02*
X25310533Y-55880951D01*
X25120057Y-54928570D02*
X25072438Y-54880951D01*
X25072438Y-54880951D02*
X25024819Y-54785713D01*
X25024819Y-54785713D02*
X25024819Y-54547618D01*
X25024819Y-54547618D02*
X25072438Y-54452380D01*
X25072438Y-54452380D02*
X25120057Y-54404761D01*
X25120057Y-54404761D02*
X25215295Y-54357142D01*
X25215295Y-54357142D02*
X25310533Y-54357142D01*
X25310533Y-54357142D02*
X25453390Y-54404761D01*
X25453390Y-54404761D02*
X26024819Y-54976189D01*
X26024819Y-54976189D02*
X26024819Y-54357142D01*
X47238095Y-59704819D02*
X47238095Y-58704819D01*
X47238095Y-59181009D02*
X47809523Y-59181009D01*
X47809523Y-59704819D02*
X47809523Y-58704819D01*
X48238095Y-58800057D02*
X48285714Y-58752438D01*
X48285714Y-58752438D02*
X48380952Y-58704819D01*
X48380952Y-58704819D02*
X48619047Y-58704819D01*
X48619047Y-58704819D02*
X48714285Y-58752438D01*
X48714285Y-58752438D02*
X48761904Y-58800057D01*
X48761904Y-58800057D02*
X48809523Y-58895295D01*
X48809523Y-58895295D02*
X48809523Y-58990533D01*
X48809523Y-58990533D02*
X48761904Y-59133390D01*
X48761904Y-59133390D02*
X48190476Y-59704819D01*
X48190476Y-59704819D02*
X48809523Y-59704819D01*
X17238095Y-35254819D02*
X17238095Y-34254819D01*
X17238095Y-34731009D02*
X17809523Y-34731009D01*
X17809523Y-35254819D02*
X17809523Y-34254819D01*
X18809523Y-35254819D02*
X18238095Y-35254819D01*
X18523809Y-35254819D02*
X18523809Y-34254819D01*
X18523809Y-34254819D02*
X18428571Y-34397676D01*
X18428571Y-34397676D02*
X18333333Y-34492914D01*
X18333333Y-34492914D02*
X18238095Y-34540533D01*
X61238095Y-20954819D02*
X61238095Y-19954819D01*
X61238095Y-20431009D02*
X61809523Y-20431009D01*
X61809523Y-20954819D02*
X61809523Y-19954819D01*
X62190476Y-19954819D02*
X62809523Y-19954819D01*
X62809523Y-19954819D02*
X62476190Y-20335771D01*
X62476190Y-20335771D02*
X62619047Y-20335771D01*
X62619047Y-20335771D02*
X62714285Y-20383390D01*
X62714285Y-20383390D02*
X62761904Y-20431009D01*
X62761904Y-20431009D02*
X62809523Y-20526247D01*
X62809523Y-20526247D02*
X62809523Y-20764342D01*
X62809523Y-20764342D02*
X62761904Y-20859580D01*
X62761904Y-20859580D02*
X62714285Y-20907200D01*
X62714285Y-20907200D02*
X62619047Y-20954819D01*
X62619047Y-20954819D02*
X62333333Y-20954819D01*
X62333333Y-20954819D02*
X62238095Y-20907200D01*
X62238095Y-20907200D02*
X62190476Y-20859580D01*
X64154819Y-28556666D02*
X63678628Y-28889999D01*
X64154819Y-29128094D02*
X63154819Y-29128094D01*
X63154819Y-29128094D02*
X63154819Y-28747142D01*
X63154819Y-28747142D02*
X63202438Y-28651904D01*
X63202438Y-28651904D02*
X63250057Y-28604285D01*
X63250057Y-28604285D02*
X63345295Y-28556666D01*
X63345295Y-28556666D02*
X63488152Y-28556666D01*
X63488152Y-28556666D02*
X63583390Y-28604285D01*
X63583390Y-28604285D02*
X63631009Y-28651904D01*
X63631009Y-28651904D02*
X63678628Y-28747142D01*
X63678628Y-28747142D02*
X63678628Y-29128094D01*
X63250057Y-28175713D02*
X63202438Y-28128094D01*
X63202438Y-28128094D02*
X63154819Y-28032856D01*
X63154819Y-28032856D02*
X63154819Y-27794761D01*
X63154819Y-27794761D02*
X63202438Y-27699523D01*
X63202438Y-27699523D02*
X63250057Y-27651904D01*
X63250057Y-27651904D02*
X63345295Y-27604285D01*
X63345295Y-27604285D02*
X63440533Y-27604285D01*
X63440533Y-27604285D02*
X63583390Y-27651904D01*
X63583390Y-27651904D02*
X64154819Y-28223332D01*
X64154819Y-28223332D02*
X64154819Y-27604285D01*
X60804819Y-28566666D02*
X60328628Y-28899999D01*
X60804819Y-29138094D02*
X59804819Y-29138094D01*
X59804819Y-29138094D02*
X59804819Y-28757142D01*
X59804819Y-28757142D02*
X59852438Y-28661904D01*
X59852438Y-28661904D02*
X59900057Y-28614285D01*
X59900057Y-28614285D02*
X59995295Y-28566666D01*
X59995295Y-28566666D02*
X60138152Y-28566666D01*
X60138152Y-28566666D02*
X60233390Y-28614285D01*
X60233390Y-28614285D02*
X60281009Y-28661904D01*
X60281009Y-28661904D02*
X60328628Y-28757142D01*
X60328628Y-28757142D02*
X60328628Y-29138094D01*
X60804819Y-27614285D02*
X60804819Y-28185713D01*
X60804819Y-27899999D02*
X59804819Y-27899999D01*
X59804819Y-27899999D02*
X59947676Y-27995237D01*
X59947676Y-27995237D02*
X60042914Y-28090475D01*
X60042914Y-28090475D02*
X60090533Y-28185713D01*
X57339104Y-17224285D02*
X57339104Y-16748095D01*
X57624819Y-17319523D02*
X56624819Y-16986190D01*
X56624819Y-16986190D02*
X57624819Y-16652857D01*
X57624819Y-15795714D02*
X57624819Y-16367142D01*
X57624819Y-16081428D02*
X56624819Y-16081428D01*
X56624819Y-16081428D02*
X56767676Y-16176666D01*
X56767676Y-16176666D02*
X56862914Y-16271904D01*
X56862914Y-16271904D02*
X56910533Y-16367142D01*
X28941904Y-25069104D02*
X29418094Y-25069104D01*
X28846666Y-25354819D02*
X29179999Y-24354819D01*
X29179999Y-24354819D02*
X29513332Y-25354819D01*
X29846666Y-25354819D02*
X29846666Y-24688152D01*
X29846666Y-24878628D02*
X29894285Y-24783390D01*
X29894285Y-24783390D02*
X29941904Y-24735771D01*
X29941904Y-24735771D02*
X30037142Y-24688152D01*
X30037142Y-24688152D02*
X30132380Y-24688152D01*
X30894285Y-25354819D02*
X30894285Y-24354819D01*
X30894285Y-25307200D02*
X30799047Y-25354819D01*
X30799047Y-25354819D02*
X30608571Y-25354819D01*
X30608571Y-25354819D02*
X30513333Y-25307200D01*
X30513333Y-25307200D02*
X30465714Y-25259580D01*
X30465714Y-25259580D02*
X30418095Y-25164342D01*
X30418095Y-25164342D02*
X30418095Y-24878628D01*
X30418095Y-24878628D02*
X30465714Y-24783390D01*
X30465714Y-24783390D02*
X30513333Y-24735771D01*
X30513333Y-24735771D02*
X30608571Y-24688152D01*
X30608571Y-24688152D02*
X30799047Y-24688152D01*
X30799047Y-24688152D02*
X30894285Y-24735771D01*
X31799047Y-24688152D02*
X31799047Y-25354819D01*
X31370476Y-24688152D02*
X31370476Y-25211961D01*
X31370476Y-25211961D02*
X31418095Y-25307200D01*
X31418095Y-25307200D02*
X31513333Y-25354819D01*
X31513333Y-25354819D02*
X31656190Y-25354819D01*
X31656190Y-25354819D02*
X31751428Y-25307200D01*
X31751428Y-25307200D02*
X31799047Y-25259580D01*
X32275238Y-25354819D02*
X32275238Y-24688152D01*
X32275238Y-24354819D02*
X32227619Y-24402438D01*
X32227619Y-24402438D02*
X32275238Y-24450057D01*
X32275238Y-24450057D02*
X32322857Y-24402438D01*
X32322857Y-24402438D02*
X32275238Y-24354819D01*
X32275238Y-24354819D02*
X32275238Y-24450057D01*
X32751428Y-24688152D02*
X32751428Y-25354819D01*
X32751428Y-24783390D02*
X32799047Y-24735771D01*
X32799047Y-24735771D02*
X32894285Y-24688152D01*
X32894285Y-24688152D02*
X33037142Y-24688152D01*
X33037142Y-24688152D02*
X33132380Y-24735771D01*
X33132380Y-24735771D02*
X33179999Y-24831009D01*
X33179999Y-24831009D02*
X33179999Y-25354819D01*
X33799047Y-25354819D02*
X33703809Y-25307200D01*
X33703809Y-25307200D02*
X33656190Y-25259580D01*
X33656190Y-25259580D02*
X33608571Y-25164342D01*
X33608571Y-25164342D02*
X33608571Y-24878628D01*
X33608571Y-24878628D02*
X33656190Y-24783390D01*
X33656190Y-24783390D02*
X33703809Y-24735771D01*
X33703809Y-24735771D02*
X33799047Y-24688152D01*
X33799047Y-24688152D02*
X33941904Y-24688152D01*
X33941904Y-24688152D02*
X34037142Y-24735771D01*
X34037142Y-24735771D02*
X34084761Y-24783390D01*
X34084761Y-24783390D02*
X34132380Y-24878628D01*
X34132380Y-24878628D02*
X34132380Y-25164342D01*
X34132380Y-25164342D02*
X34084761Y-25259580D01*
X34084761Y-25259580D02*
X34037142Y-25307200D01*
X34037142Y-25307200D02*
X33941904Y-25354819D01*
X33941904Y-25354819D02*
X33799047Y-25354819D01*
X34322857Y-25450057D02*
X35084761Y-25450057D01*
X35322857Y-25354819D02*
X35322857Y-24354819D01*
X35322857Y-24354819D02*
X35894285Y-25354819D01*
X35894285Y-25354819D02*
X35894285Y-24354819D01*
X36799047Y-25354819D02*
X36799047Y-24831009D01*
X36799047Y-24831009D02*
X36751428Y-24735771D01*
X36751428Y-24735771D02*
X36656190Y-24688152D01*
X36656190Y-24688152D02*
X36465714Y-24688152D01*
X36465714Y-24688152D02*
X36370476Y-24735771D01*
X36799047Y-25307200D02*
X36703809Y-25354819D01*
X36703809Y-25354819D02*
X36465714Y-25354819D01*
X36465714Y-25354819D02*
X36370476Y-25307200D01*
X36370476Y-25307200D02*
X36322857Y-25211961D01*
X36322857Y-25211961D02*
X36322857Y-25116723D01*
X36322857Y-25116723D02*
X36370476Y-25021485D01*
X36370476Y-25021485D02*
X36465714Y-24973866D01*
X36465714Y-24973866D02*
X36703809Y-24973866D01*
X36703809Y-24973866D02*
X36799047Y-24926247D01*
X37275238Y-24688152D02*
X37275238Y-25354819D01*
X37275238Y-24783390D02*
X37322857Y-24735771D01*
X37322857Y-24735771D02*
X37418095Y-24688152D01*
X37418095Y-24688152D02*
X37560952Y-24688152D01*
X37560952Y-24688152D02*
X37656190Y-24735771D01*
X37656190Y-24735771D02*
X37703809Y-24831009D01*
X37703809Y-24831009D02*
X37703809Y-25354819D01*
X38322857Y-25354819D02*
X38227619Y-25307200D01*
X38227619Y-25307200D02*
X38180000Y-25259580D01*
X38180000Y-25259580D02*
X38132381Y-25164342D01*
X38132381Y-25164342D02*
X38132381Y-24878628D01*
X38132381Y-24878628D02*
X38180000Y-24783390D01*
X38180000Y-24783390D02*
X38227619Y-24735771D01*
X38227619Y-24735771D02*
X38322857Y-24688152D01*
X38322857Y-24688152D02*
X38465714Y-24688152D01*
X38465714Y-24688152D02*
X38560952Y-24735771D01*
X38560952Y-24735771D02*
X38608571Y-24783390D01*
X38608571Y-24783390D02*
X38656190Y-24878628D01*
X38656190Y-24878628D02*
X38656190Y-25164342D01*
X38656190Y-25164342D02*
X38608571Y-25259580D01*
X38608571Y-25259580D02*
X38560952Y-25307200D01*
X38560952Y-25307200D02*
X38465714Y-25354819D01*
X38465714Y-25354819D02*
X38322857Y-25354819D01*
X38846667Y-25450057D02*
X39608571Y-25450057D01*
X39751429Y-24688152D02*
X39989524Y-25354819D01*
X39989524Y-25354819D02*
X40227619Y-24688152D01*
X40513334Y-24354819D02*
X41132381Y-24354819D01*
X41132381Y-24354819D02*
X40799048Y-24735771D01*
X40799048Y-24735771D02*
X40941905Y-24735771D01*
X40941905Y-24735771D02*
X41037143Y-24783390D01*
X41037143Y-24783390D02*
X41084762Y-24831009D01*
X41084762Y-24831009D02*
X41132381Y-24926247D01*
X41132381Y-24926247D02*
X41132381Y-25164342D01*
X41132381Y-25164342D02*
X41084762Y-25259580D01*
X41084762Y-25259580D02*
X41037143Y-25307200D01*
X41037143Y-25307200D02*
X40941905Y-25354819D01*
X40941905Y-25354819D02*
X40656191Y-25354819D01*
X40656191Y-25354819D02*
X40560953Y-25307200D01*
X40560953Y-25307200D02*
X40513334Y-25259580D01*
X41560953Y-25259580D02*
X41608572Y-25307200D01*
X41608572Y-25307200D02*
X41560953Y-25354819D01*
X41560953Y-25354819D02*
X41513334Y-25307200D01*
X41513334Y-25307200D02*
X41560953Y-25259580D01*
X41560953Y-25259580D02*
X41560953Y-25354819D01*
X41941905Y-25354819D02*
X42465714Y-24688152D01*
X41941905Y-24688152D02*
X42465714Y-25354819D01*
X19715180Y-22368095D02*
X18905657Y-22368095D01*
X18905657Y-22368095D02*
X18810419Y-22415714D01*
X18810419Y-22415714D02*
X18762800Y-22463333D01*
X18762800Y-22463333D02*
X18715180Y-22558571D01*
X18715180Y-22558571D02*
X18715180Y-22749047D01*
X18715180Y-22749047D02*
X18762800Y-22844285D01*
X18762800Y-22844285D02*
X18810419Y-22891904D01*
X18810419Y-22891904D02*
X18905657Y-22939523D01*
X18905657Y-22939523D02*
X19715180Y-22939523D01*
X18762800Y-23368095D02*
X18715180Y-23510952D01*
X18715180Y-23510952D02*
X18715180Y-23749047D01*
X18715180Y-23749047D02*
X18762800Y-23844285D01*
X18762800Y-23844285D02*
X18810419Y-23891904D01*
X18810419Y-23891904D02*
X18905657Y-23939523D01*
X18905657Y-23939523D02*
X19000895Y-23939523D01*
X19000895Y-23939523D02*
X19096133Y-23891904D01*
X19096133Y-23891904D02*
X19143752Y-23844285D01*
X19143752Y-23844285D02*
X19191371Y-23749047D01*
X19191371Y-23749047D02*
X19238990Y-23558571D01*
X19238990Y-23558571D02*
X19286609Y-23463333D01*
X19286609Y-23463333D02*
X19334228Y-23415714D01*
X19334228Y-23415714D02*
X19429466Y-23368095D01*
X19429466Y-23368095D02*
X19524704Y-23368095D01*
X19524704Y-23368095D02*
X19619942Y-23415714D01*
X19619942Y-23415714D02*
X19667561Y-23463333D01*
X19667561Y-23463333D02*
X19715180Y-23558571D01*
X19715180Y-23558571D02*
X19715180Y-23796666D01*
X19715180Y-23796666D02*
X19667561Y-23939523D01*
X19238990Y-24701428D02*
X19191371Y-24844285D01*
X19191371Y-24844285D02*
X19143752Y-24891904D01*
X19143752Y-24891904D02*
X19048514Y-24939523D01*
X19048514Y-24939523D02*
X18905657Y-24939523D01*
X18905657Y-24939523D02*
X18810419Y-24891904D01*
X18810419Y-24891904D02*
X18762800Y-24844285D01*
X18762800Y-24844285D02*
X18715180Y-24749047D01*
X18715180Y-24749047D02*
X18715180Y-24368095D01*
X18715180Y-24368095D02*
X19715180Y-24368095D01*
X19715180Y-24368095D02*
X19715180Y-24701428D01*
X19715180Y-24701428D02*
X19667561Y-24796666D01*
X19667561Y-24796666D02*
X19619942Y-24844285D01*
X19619942Y-24844285D02*
X19524704Y-24891904D01*
X19524704Y-24891904D02*
X19429466Y-24891904D01*
X19429466Y-24891904D02*
X19334228Y-24844285D01*
X19334228Y-24844285D02*
X19286609Y-24796666D01*
X19286609Y-24796666D02*
X19238990Y-24701428D01*
X19238990Y-24701428D02*
X19238990Y-24368095D01*
D14*
%TO.C,J10*%
X12950000Y-41150000D02*
X27650000Y-41150000D01*
X12950000Y-50350000D02*
X12950000Y-41150000D01*
X21750000Y-50350000D02*
X12950000Y-50350000D01*
X26800000Y-40950000D02*
X27850000Y-40950000D01*
X27650000Y-41150000D02*
X27650000Y-43750000D01*
X27650000Y-47650000D02*
X27650000Y-50350000D01*
X27650000Y-50350000D02*
X25750000Y-50350000D01*
X27850000Y-42000000D02*
X27850000Y-40950000D01*
%TO.C,J7*%
X61870000Y-49770000D02*
X63200000Y-49770000D01*
X61870000Y-51100000D02*
X61870000Y-49770000D01*
X61870000Y-52370000D02*
X61870000Y-52430000D01*
X61870000Y-52370000D02*
X64530000Y-52370000D01*
X61870000Y-52430000D02*
X64530000Y-52430000D01*
X64530000Y-52370000D02*
X64530000Y-52430000D01*
%TO.C,J6*%
X52870000Y-49770000D02*
X54200000Y-49770000D01*
X52870000Y-51100000D02*
X52870000Y-49770000D01*
X52870000Y-52370000D02*
X52870000Y-52430000D01*
X52870000Y-52370000D02*
X55530000Y-52370000D01*
X52870000Y-52430000D02*
X55530000Y-52430000D01*
X55530000Y-52370000D02*
X55530000Y-52430000D01*
%TO.C,J4*%
X52870000Y-34770000D02*
X54200000Y-34770000D01*
X52870000Y-36100000D02*
X52870000Y-34770000D01*
X52870000Y-37370000D02*
X52870000Y-37430000D01*
X52870000Y-37370000D02*
X55530000Y-37370000D01*
X52870000Y-37430000D02*
X55530000Y-37430000D01*
X55530000Y-37370000D02*
X55530000Y-37430000D01*
%TO.C,J5*%
X61870000Y-34770000D02*
X63200000Y-34770000D01*
X61870000Y-36100000D02*
X61870000Y-34770000D01*
X61870000Y-37370000D02*
X61870000Y-37430000D01*
X61870000Y-37370000D02*
X64530000Y-37370000D01*
X61870000Y-37430000D02*
X64530000Y-37430000D01*
X64530000Y-37370000D02*
X64530000Y-37430000D01*
D15*
%TO.C,U1*%
X28340000Y-51120000D02*
X28340000Y-35880000D01*
X48660000Y-51120000D02*
X28340000Y-51120000D01*
X28340000Y-35880000D02*
X48660000Y-35880000D01*
X48660000Y-35880000D02*
X48660000Y-51120000D01*
D11*
X29710000Y-51700000D02*
G75*
G02*
X29510000Y-51700000I-100000J0D01*
G01*
X29510000Y-51700000D02*
G75*
G02*
X29710000Y-51700000I100000J0D01*
G01*
D14*
%TO.C,J11*%
X52070000Y-59080000D02*
X52070000Y-57750000D01*
X53400000Y-59080000D02*
X52070000Y-59080000D01*
X54670000Y-59080000D02*
X67430000Y-59080000D01*
X54670000Y-59080000D02*
X54670000Y-56420000D01*
X67430000Y-59080000D02*
X67430000Y-56420000D01*
X54670000Y-56420000D02*
X67430000Y-56420000D01*
%TO.C,J12*%
X26570000Y-56830000D02*
X26570000Y-55500000D01*
X27900000Y-56830000D02*
X26570000Y-56830000D01*
X29170000Y-56830000D02*
X41930000Y-56830000D01*
X29170000Y-56830000D02*
X29170000Y-54170000D01*
X41930000Y-56830000D02*
X41930000Y-54170000D01*
X29170000Y-54170000D02*
X41930000Y-54170000D01*
%TO.C,R2*%
X62330000Y-31660000D02*
X62330000Y-25120000D01*
X62660000Y-31660000D02*
X62330000Y-31660000D01*
X64740000Y-31660000D02*
X65070000Y-31660000D01*
X65070000Y-31660000D02*
X65070000Y-25120000D01*
X62330000Y-25120000D02*
X62660000Y-25120000D01*
X65070000Y-25120000D02*
X64740000Y-25120000D01*
%TO.C,R1*%
X58930000Y-31660000D02*
X58930000Y-25120000D01*
X59260000Y-31660000D02*
X58930000Y-31660000D01*
X61340000Y-31660000D02*
X61670000Y-31660000D01*
X61670000Y-31660000D02*
X61670000Y-25120000D01*
X58930000Y-25120000D02*
X59260000Y-25120000D01*
X61670000Y-25120000D02*
X61340000Y-25120000D01*
%TO.C,A1*%
X58670000Y-14610000D02*
X56000000Y-14610000D01*
X53460000Y-14610000D02*
X15230000Y-14610000D01*
X15230000Y-14610000D02*
X15230000Y-19690000D01*
X56000000Y-17280000D02*
X56000000Y-14610000D01*
X53460000Y-17280000D02*
X53460000Y-14610000D01*
X53460000Y-17280000D02*
X56000000Y-17280000D01*
X53460000Y-17280000D02*
X17900000Y-17280000D01*
X17900000Y-17280000D02*
X17900000Y-14610000D01*
X23110000Y-19690000D02*
X23110000Y-27570000D01*
X12690000Y-19690000D02*
X23110000Y-19690000D01*
X23110000Y-27570000D02*
X12690000Y-27570000D01*
X12690000Y-27570000D02*
X12690000Y-19690000D01*
X56000000Y-29980000D02*
X17900000Y-29980000D01*
X56000000Y-29980000D02*
X56000000Y-32650000D01*
X17900000Y-29980000D02*
X17900000Y-32650000D01*
X58670000Y-32650000D02*
X58670000Y-14610000D01*
X15230000Y-32650000D02*
X15230000Y-27570000D01*
X15230000Y-32650000D02*
X58670000Y-32650000D01*
%TD*%
M02*
