%TF.GenerationSoftware,KiCad,Pcbnew,8.0.2*%
%TF.CreationDate,2024-05-31T10:43:29+02:00*%
%TF.ProjectId,LTS_Spooler,4c54535f-5370-46f6-9f6c-65722e6b6963,rev?*%
%TF.SameCoordinates,Original*%
%TF.FileFunction,Drillmap*%
%TF.FilePolarity,Positive*%
%FSLAX45Y45*%
G04 Gerber Fmt 4.5, Leading zero omitted, Abs format (unit mm)*
G04 Created by KiCad (PCBNEW 8.0.2) date 2024-05-31 10:43:29*
%MOMM*%
%LPD*%
G01*
G04 APERTURE LIST*
%ADD10C,0.050000*%
%ADD11C,0.200000*%
%ADD12C,0.100000*%
G04 APERTURE END LIST*
D10*
X1400000Y-5900000D02*
X1400000Y-1600000D01*
X6600000Y-1400000D02*
G75*
G02*
X6800000Y-1600000I0J-200000D01*
G01*
X6600000Y-6100000D02*
X1600000Y-6100000D01*
X6800000Y-1600000D02*
X6800000Y-5900000D01*
X1600000Y-1400000D02*
X6600000Y-1400000D01*
X6800000Y-5900000D02*
G75*
G02*
X6600000Y-6100000I-200000J0D01*
G01*
X1400000Y-1600000D02*
G75*
G02*
X1600000Y-1400000I200000J0D01*
G01*
X1600000Y-6100000D02*
G75*
G02*
X1400000Y-5900000I0J200000D01*
G01*
D11*
D12*
X3563320Y-5144470D02*
X3593320Y-5174470D01*
X3593320Y-5144470D02*
X3563320Y-5174470D01*
X3734220Y-2337050D02*
X3764220Y-2367050D01*
X3764220Y-2337050D02*
X3734220Y-2367050D01*
X6070000Y-2458000D02*
G75*
G02*
X5990000Y-2458000I-40000J0D01*
G01*
X5990000Y-2458000D02*
G75*
G02*
X6070000Y-2458000I40000J0D01*
G01*
X6070000Y-3220000D02*
G75*
G02*
X5990000Y-3220000I-40000J0D01*
G01*
X5990000Y-3220000D02*
G75*
G02*
X6070000Y-3220000I40000J0D01*
G01*
X6410000Y-2458000D02*
G75*
G02*
X6330000Y-2458000I-40000J0D01*
G01*
X6330000Y-2458000D02*
G75*
G02*
X6410000Y-2458000I40000J0D01*
G01*
X6410000Y-3220000D02*
G75*
G02*
X6330000Y-3220000I-40000J0D01*
G01*
X6330000Y-3220000D02*
G75*
G02*
X6410000Y-3220000I40000J0D01*
G01*
X1917000Y-1551000D02*
X1917000Y-1651000D01*
X1867000Y-1601000D02*
X1967000Y-1601000D01*
X1917000Y-3075000D02*
X1917000Y-3175000D01*
X1867000Y-3125000D02*
X1967000Y-3125000D01*
X2075000Y-4525000D02*
X2075000Y-4625000D01*
X2025000Y-4575000D02*
X2125000Y-4575000D01*
X2025000Y-4475000D02*
X2025000Y-4675000D01*
X2125000Y-4675000D02*
G75*
G02*
X2025000Y-4675000I-50000J0D01*
G01*
X2125000Y-4675000D02*
X2125000Y-4475000D01*
X2125000Y-4475000D02*
G75*
G03*
X2025000Y-4475000I-50000J0D01*
G01*
X2171000Y-1551000D02*
X2171000Y-1651000D01*
X2121000Y-1601000D02*
X2221000Y-1601000D01*
X2171000Y-3075000D02*
X2171000Y-3175000D01*
X2121000Y-3125000D02*
X2221000Y-3125000D01*
X2375000Y-4995000D02*
X2375000Y-5095000D01*
X2325000Y-5045000D02*
X2425000Y-5045000D01*
X2275000Y-5095000D02*
X2475000Y-5095000D01*
X2475000Y-4995000D02*
G75*
G02*
X2475000Y-5095000I0J-50000D01*
G01*
X2475000Y-4995000D02*
X2275000Y-4995000D01*
X2275000Y-4995000D02*
G75*
G03*
X2275000Y-5095000I0J-50000D01*
G01*
X2425000Y-1551000D02*
X2425000Y-1651000D01*
X2375000Y-1601000D02*
X2475000Y-1601000D01*
X2425000Y-3075000D02*
X2425000Y-3175000D01*
X2375000Y-3125000D02*
X2475000Y-3125000D01*
X2675000Y-4525000D02*
X2675000Y-4625000D01*
X2625000Y-4575000D02*
X2725000Y-4575000D01*
X2625000Y-4475000D02*
X2625000Y-4675000D01*
X2725000Y-4675000D02*
G75*
G02*
X2625000Y-4675000I-50000J0D01*
G01*
X2725000Y-4675000D02*
X2725000Y-4475000D01*
X2725000Y-4475000D02*
G75*
G03*
X2625000Y-4475000I-50000J0D01*
G01*
X2679000Y-1551000D02*
X2679000Y-1651000D01*
X2629000Y-1601000D02*
X2729000Y-1601000D01*
X2679000Y-3075000D02*
X2679000Y-3175000D01*
X2629000Y-3125000D02*
X2729000Y-3125000D01*
X2790000Y-5500000D02*
X2790000Y-5600000D01*
X2740000Y-5550000D02*
X2840000Y-5550000D01*
X2933000Y-1551000D02*
X2933000Y-1651000D01*
X2883000Y-1601000D02*
X2983000Y-1601000D01*
X2933000Y-3075000D02*
X2933000Y-3175000D01*
X2883000Y-3125000D02*
X2983000Y-3125000D01*
X2961000Y-3665000D02*
X2961000Y-3765000D01*
X2911000Y-3715000D02*
X3011000Y-3715000D01*
X2961000Y-4935000D02*
X2961000Y-5035000D01*
X2911000Y-4985000D02*
X3011000Y-4985000D01*
X3044000Y-5500000D02*
X3044000Y-5600000D01*
X2994000Y-5550000D02*
X3094000Y-5550000D01*
X3187000Y-1551000D02*
X3187000Y-1651000D01*
X3137000Y-1601000D02*
X3237000Y-1601000D01*
X3187000Y-3075000D02*
X3187000Y-3175000D01*
X3137000Y-3125000D02*
X3237000Y-3125000D01*
X3215000Y-3665000D02*
X3215000Y-3765000D01*
X3165000Y-3715000D02*
X3265000Y-3715000D01*
X3215000Y-4935000D02*
X3215000Y-5035000D01*
X3165000Y-4985000D02*
X3265000Y-4985000D01*
X3298000Y-5500000D02*
X3298000Y-5600000D01*
X3248000Y-5550000D02*
X3348000Y-5550000D01*
X3441000Y-1551000D02*
X3441000Y-1651000D01*
X3391000Y-1601000D02*
X3491000Y-1601000D01*
X3441000Y-3075000D02*
X3441000Y-3175000D01*
X3391000Y-3125000D02*
X3491000Y-3125000D01*
X3469000Y-3665000D02*
X3469000Y-3765000D01*
X3419000Y-3715000D02*
X3519000Y-3715000D01*
X3469000Y-4935000D02*
X3469000Y-5035000D01*
X3419000Y-4985000D02*
X3519000Y-4985000D01*
X3552000Y-5500000D02*
X3552000Y-5600000D01*
X3502000Y-5550000D02*
X3602000Y-5550000D01*
X3695000Y-1551000D02*
X3695000Y-1651000D01*
X3645000Y-1601000D02*
X3745000Y-1601000D01*
X3695000Y-3075000D02*
X3695000Y-3175000D01*
X3645000Y-3125000D02*
X3745000Y-3125000D01*
X3723000Y-3665000D02*
X3723000Y-3765000D01*
X3673000Y-3715000D02*
X3773000Y-3715000D01*
X3723000Y-4935000D02*
X3723000Y-5035000D01*
X3673000Y-4985000D02*
X3773000Y-4985000D01*
X3806000Y-5500000D02*
X3806000Y-5600000D01*
X3756000Y-5550000D02*
X3856000Y-5550000D01*
X3949000Y-1551000D02*
X3949000Y-1651000D01*
X3899000Y-1601000D02*
X3999000Y-1601000D01*
X3949000Y-3075000D02*
X3949000Y-3175000D01*
X3899000Y-3125000D02*
X3999000Y-3125000D01*
X3977000Y-3665000D02*
X3977000Y-3765000D01*
X3927000Y-3715000D02*
X4027000Y-3715000D01*
X3977000Y-4935000D02*
X3977000Y-5035000D01*
X3927000Y-4985000D02*
X4027000Y-4985000D01*
X4060000Y-5500000D02*
X4060000Y-5600000D01*
X4010000Y-5550000D02*
X4110000Y-5550000D01*
X4203000Y-1551000D02*
X4203000Y-1651000D01*
X4153000Y-1601000D02*
X4253000Y-1601000D01*
X4203000Y-3075000D02*
X4203000Y-3175000D01*
X4153000Y-3125000D02*
X4253000Y-3125000D01*
X4231000Y-3665000D02*
X4231000Y-3765000D01*
X4181000Y-3715000D02*
X4281000Y-3715000D01*
X4231000Y-4935000D02*
X4231000Y-5035000D01*
X4181000Y-4985000D02*
X4281000Y-4985000D01*
X4457000Y-1551000D02*
X4457000Y-1651000D01*
X4407000Y-1601000D02*
X4507000Y-1601000D01*
X4457000Y-3075000D02*
X4457000Y-3175000D01*
X4407000Y-3125000D02*
X4507000Y-3125000D01*
X4485000Y-3665000D02*
X4485000Y-3765000D01*
X4435000Y-3715000D02*
X4535000Y-3715000D01*
X4485000Y-4935000D02*
X4485000Y-5035000D01*
X4435000Y-4985000D02*
X4535000Y-4985000D01*
X4711000Y-1551000D02*
X4711000Y-1651000D01*
X4661000Y-1601000D02*
X4761000Y-1601000D01*
X4711000Y-3075000D02*
X4711000Y-3175000D01*
X4661000Y-3125000D02*
X4761000Y-3125000D01*
X4739000Y-3665000D02*
X4739000Y-3765000D01*
X4689000Y-3715000D02*
X4789000Y-3715000D01*
X4739000Y-3919000D02*
X4739000Y-4019000D01*
X4689000Y-3969000D02*
X4789000Y-3969000D01*
X4739000Y-4173000D02*
X4739000Y-4273000D01*
X4689000Y-4223000D02*
X4789000Y-4223000D01*
X4739000Y-4935000D02*
X4739000Y-5035000D01*
X4689000Y-4985000D02*
X4789000Y-4985000D01*
X4965000Y-1551000D02*
X4965000Y-1651000D01*
X4915000Y-1601000D02*
X5015000Y-1601000D01*
X4965000Y-3075000D02*
X4965000Y-3175000D01*
X4915000Y-3125000D02*
X5015000Y-3125000D01*
X5219000Y-1551000D02*
X5219000Y-1651000D01*
X5169000Y-1601000D02*
X5269000Y-1601000D01*
X5219000Y-3075000D02*
X5219000Y-3175000D01*
X5169000Y-3125000D02*
X5269000Y-3125000D01*
X5340000Y-5725000D02*
X5340000Y-5825000D01*
X5290000Y-5775000D02*
X5390000Y-5775000D01*
X5420000Y-3560000D02*
X5420000Y-3660000D01*
X5370000Y-3610000D02*
X5470000Y-3610000D01*
X5420000Y-5060000D02*
X5420000Y-5160000D01*
X5370000Y-5110000D02*
X5470000Y-5110000D01*
X5473000Y-1551000D02*
X5473000Y-1651000D01*
X5423000Y-1601000D02*
X5523000Y-1601000D01*
X5473000Y-3075000D02*
X5473000Y-3175000D01*
X5423000Y-3125000D02*
X5523000Y-3125000D01*
X5594000Y-5725000D02*
X5594000Y-5825000D01*
X5544000Y-5775000D02*
X5644000Y-5775000D01*
X5848000Y-5725000D02*
X5848000Y-5825000D01*
X5798000Y-5775000D02*
X5898000Y-5775000D01*
X6102000Y-5725000D02*
X6102000Y-5825000D01*
X6052000Y-5775000D02*
X6152000Y-5775000D01*
X6320000Y-3560000D02*
X6320000Y-3660000D01*
X6270000Y-3610000D02*
X6370000Y-3610000D01*
X6320000Y-5060000D02*
X6320000Y-5160000D01*
X6270000Y-5110000D02*
X6370000Y-5110000D01*
X6356000Y-5725000D02*
X6356000Y-5825000D01*
X6306000Y-5775000D02*
X6406000Y-5775000D01*
X6610000Y-5725000D02*
X6610000Y-5825000D01*
X6560000Y-5775000D02*
X6660000Y-5775000D01*
D11*
X1658277Y-6413984D02*
X1658277Y-6213984D01*
X1658277Y-6213984D02*
X1705896Y-6213984D01*
X1705896Y-6213984D02*
X1734467Y-6223508D01*
X1734467Y-6223508D02*
X1753515Y-6242555D01*
X1753515Y-6242555D02*
X1763039Y-6261603D01*
X1763039Y-6261603D02*
X1772562Y-6299698D01*
X1772562Y-6299698D02*
X1772562Y-6328269D01*
X1772562Y-6328269D02*
X1763039Y-6366365D01*
X1763039Y-6366365D02*
X1753515Y-6385412D01*
X1753515Y-6385412D02*
X1734467Y-6404460D01*
X1734467Y-6404460D02*
X1705896Y-6413984D01*
X1705896Y-6413984D02*
X1658277Y-6413984D01*
X1858277Y-6413984D02*
X1858277Y-6280650D01*
X1858277Y-6318746D02*
X1867801Y-6299698D01*
X1867801Y-6299698D02*
X1877324Y-6290174D01*
X1877324Y-6290174D02*
X1896372Y-6280650D01*
X1896372Y-6280650D02*
X1915420Y-6280650D01*
X1982086Y-6413984D02*
X1982086Y-6280650D01*
X1982086Y-6213984D02*
X1972562Y-6223508D01*
X1972562Y-6223508D02*
X1982086Y-6233031D01*
X1982086Y-6233031D02*
X1991610Y-6223508D01*
X1991610Y-6223508D02*
X1982086Y-6213984D01*
X1982086Y-6213984D02*
X1982086Y-6233031D01*
X2105896Y-6413984D02*
X2086848Y-6404460D01*
X2086848Y-6404460D02*
X2077324Y-6385412D01*
X2077324Y-6385412D02*
X2077324Y-6213984D01*
X2210658Y-6413984D02*
X2191610Y-6404460D01*
X2191610Y-6404460D02*
X2182086Y-6385412D01*
X2182086Y-6385412D02*
X2182086Y-6213984D01*
X2439229Y-6413984D02*
X2439229Y-6213984D01*
X2439229Y-6213984D02*
X2505896Y-6356841D01*
X2505896Y-6356841D02*
X2572563Y-6213984D01*
X2572563Y-6213984D02*
X2572563Y-6413984D01*
X2753515Y-6413984D02*
X2753515Y-6309222D01*
X2753515Y-6309222D02*
X2743991Y-6290174D01*
X2743991Y-6290174D02*
X2724944Y-6280650D01*
X2724944Y-6280650D02*
X2686848Y-6280650D01*
X2686848Y-6280650D02*
X2667801Y-6290174D01*
X2753515Y-6404460D02*
X2734467Y-6413984D01*
X2734467Y-6413984D02*
X2686848Y-6413984D01*
X2686848Y-6413984D02*
X2667801Y-6404460D01*
X2667801Y-6404460D02*
X2658277Y-6385412D01*
X2658277Y-6385412D02*
X2658277Y-6366365D01*
X2658277Y-6366365D02*
X2667801Y-6347317D01*
X2667801Y-6347317D02*
X2686848Y-6337793D01*
X2686848Y-6337793D02*
X2734467Y-6337793D01*
X2734467Y-6337793D02*
X2753515Y-6328269D01*
X2848753Y-6280650D02*
X2848753Y-6480650D01*
X2848753Y-6290174D02*
X2867801Y-6280650D01*
X2867801Y-6280650D02*
X2905896Y-6280650D01*
X2905896Y-6280650D02*
X2924943Y-6290174D01*
X2924943Y-6290174D02*
X2934467Y-6299698D01*
X2934467Y-6299698D02*
X2943991Y-6318746D01*
X2943991Y-6318746D02*
X2943991Y-6375888D01*
X2943991Y-6375888D02*
X2934467Y-6394936D01*
X2934467Y-6394936D02*
X2924943Y-6404460D01*
X2924943Y-6404460D02*
X2905896Y-6413984D01*
X2905896Y-6413984D02*
X2867801Y-6413984D01*
X2867801Y-6413984D02*
X2848753Y-6404460D01*
X3029705Y-6394936D02*
X3039229Y-6404460D01*
X3039229Y-6404460D02*
X3029705Y-6413984D01*
X3029705Y-6413984D02*
X3020182Y-6404460D01*
X3020182Y-6404460D02*
X3029705Y-6394936D01*
X3029705Y-6394936D02*
X3029705Y-6413984D01*
X3029705Y-6290174D02*
X3039229Y-6299698D01*
X3039229Y-6299698D02*
X3029705Y-6309222D01*
X3029705Y-6309222D02*
X3020182Y-6299698D01*
X3020182Y-6299698D02*
X3029705Y-6290174D01*
X3029705Y-6290174D02*
X3029705Y-6309222D01*
D12*
X1367500Y-6727500D02*
X1397500Y-6757500D01*
X1397500Y-6727500D02*
X1367500Y-6757500D01*
D11*
X1696372Y-6633984D02*
X1715420Y-6633984D01*
X1715420Y-6633984D02*
X1734467Y-6643508D01*
X1734467Y-6643508D02*
X1743991Y-6653031D01*
X1743991Y-6653031D02*
X1753515Y-6672079D01*
X1753515Y-6672079D02*
X1763039Y-6710174D01*
X1763039Y-6710174D02*
X1763039Y-6757793D01*
X1763039Y-6757793D02*
X1753515Y-6795888D01*
X1753515Y-6795888D02*
X1743991Y-6814936D01*
X1743991Y-6814936D02*
X1734467Y-6824460D01*
X1734467Y-6824460D02*
X1715420Y-6833984D01*
X1715420Y-6833984D02*
X1696372Y-6833984D01*
X1696372Y-6833984D02*
X1677324Y-6824460D01*
X1677324Y-6824460D02*
X1667801Y-6814936D01*
X1667801Y-6814936D02*
X1658277Y-6795888D01*
X1658277Y-6795888D02*
X1648753Y-6757793D01*
X1648753Y-6757793D02*
X1648753Y-6710174D01*
X1648753Y-6710174D02*
X1658277Y-6672079D01*
X1658277Y-6672079D02*
X1667801Y-6653031D01*
X1667801Y-6653031D02*
X1677324Y-6643508D01*
X1677324Y-6643508D02*
X1696372Y-6633984D01*
X1848753Y-6814936D02*
X1858277Y-6824460D01*
X1858277Y-6824460D02*
X1848753Y-6833984D01*
X1848753Y-6833984D02*
X1839229Y-6824460D01*
X1839229Y-6824460D02*
X1848753Y-6814936D01*
X1848753Y-6814936D02*
X1848753Y-6833984D01*
X1924943Y-6633984D02*
X2048753Y-6633984D01*
X2048753Y-6633984D02*
X1982086Y-6710174D01*
X1982086Y-6710174D02*
X2010658Y-6710174D01*
X2010658Y-6710174D02*
X2029705Y-6719698D01*
X2029705Y-6719698D02*
X2039229Y-6729222D01*
X2039229Y-6729222D02*
X2048753Y-6748269D01*
X2048753Y-6748269D02*
X2048753Y-6795888D01*
X2048753Y-6795888D02*
X2039229Y-6814936D01*
X2039229Y-6814936D02*
X2029705Y-6824460D01*
X2029705Y-6824460D02*
X2010658Y-6833984D01*
X2010658Y-6833984D02*
X1953515Y-6833984D01*
X1953515Y-6833984D02*
X1934467Y-6824460D01*
X1934467Y-6824460D02*
X1924943Y-6814936D01*
X2172563Y-6633984D02*
X2191610Y-6633984D01*
X2191610Y-6633984D02*
X2210658Y-6643508D01*
X2210658Y-6643508D02*
X2220182Y-6653031D01*
X2220182Y-6653031D02*
X2229705Y-6672079D01*
X2229705Y-6672079D02*
X2239229Y-6710174D01*
X2239229Y-6710174D02*
X2239229Y-6757793D01*
X2239229Y-6757793D02*
X2229705Y-6795888D01*
X2229705Y-6795888D02*
X2220182Y-6814936D01*
X2220182Y-6814936D02*
X2210658Y-6824460D01*
X2210658Y-6824460D02*
X2191610Y-6833984D01*
X2191610Y-6833984D02*
X2172563Y-6833984D01*
X2172563Y-6833984D02*
X2153515Y-6824460D01*
X2153515Y-6824460D02*
X2143991Y-6814936D01*
X2143991Y-6814936D02*
X2134467Y-6795888D01*
X2134467Y-6795888D02*
X2124944Y-6757793D01*
X2124944Y-6757793D02*
X2124944Y-6710174D01*
X2124944Y-6710174D02*
X2134467Y-6672079D01*
X2134467Y-6672079D02*
X2143991Y-6653031D01*
X2143991Y-6653031D02*
X2153515Y-6643508D01*
X2153515Y-6643508D02*
X2172563Y-6633984D01*
X2363039Y-6633984D02*
X2382086Y-6633984D01*
X2382086Y-6633984D02*
X2401134Y-6643508D01*
X2401134Y-6643508D02*
X2410658Y-6653031D01*
X2410658Y-6653031D02*
X2420182Y-6672079D01*
X2420182Y-6672079D02*
X2429705Y-6710174D01*
X2429705Y-6710174D02*
X2429705Y-6757793D01*
X2429705Y-6757793D02*
X2420182Y-6795888D01*
X2420182Y-6795888D02*
X2410658Y-6814936D01*
X2410658Y-6814936D02*
X2401134Y-6824460D01*
X2401134Y-6824460D02*
X2382086Y-6833984D01*
X2382086Y-6833984D02*
X2363039Y-6833984D01*
X2363039Y-6833984D02*
X2343991Y-6824460D01*
X2343991Y-6824460D02*
X2334467Y-6814936D01*
X2334467Y-6814936D02*
X2324944Y-6795888D01*
X2324944Y-6795888D02*
X2315420Y-6757793D01*
X2315420Y-6757793D02*
X2315420Y-6710174D01*
X2315420Y-6710174D02*
X2324944Y-6672079D01*
X2324944Y-6672079D02*
X2334467Y-6653031D01*
X2334467Y-6653031D02*
X2343991Y-6643508D01*
X2343991Y-6643508D02*
X2363039Y-6633984D01*
X2515420Y-6833984D02*
X2515420Y-6700650D01*
X2515420Y-6719698D02*
X2524944Y-6710174D01*
X2524944Y-6710174D02*
X2543991Y-6700650D01*
X2543991Y-6700650D02*
X2572563Y-6700650D01*
X2572563Y-6700650D02*
X2591610Y-6710174D01*
X2591610Y-6710174D02*
X2601134Y-6729222D01*
X2601134Y-6729222D02*
X2601134Y-6833984D01*
X2601134Y-6729222D02*
X2610658Y-6710174D01*
X2610658Y-6710174D02*
X2629705Y-6700650D01*
X2629705Y-6700650D02*
X2658277Y-6700650D01*
X2658277Y-6700650D02*
X2677325Y-6710174D01*
X2677325Y-6710174D02*
X2686848Y-6729222D01*
X2686848Y-6729222D02*
X2686848Y-6833984D01*
X2782086Y-6833984D02*
X2782086Y-6700650D01*
X2782086Y-6719698D02*
X2791610Y-6710174D01*
X2791610Y-6710174D02*
X2810658Y-6700650D01*
X2810658Y-6700650D02*
X2839229Y-6700650D01*
X2839229Y-6700650D02*
X2858277Y-6710174D01*
X2858277Y-6710174D02*
X2867801Y-6729222D01*
X2867801Y-6729222D02*
X2867801Y-6833984D01*
X2867801Y-6729222D02*
X2877324Y-6710174D01*
X2877324Y-6710174D02*
X2896372Y-6700650D01*
X2896372Y-6700650D02*
X2924943Y-6700650D01*
X2924943Y-6700650D02*
X2943991Y-6710174D01*
X2943991Y-6710174D02*
X2953515Y-6729222D01*
X2953515Y-6729222D02*
X2953515Y-6833984D01*
X3343991Y-6624460D02*
X3172563Y-6881603D01*
X3601134Y-6633984D02*
X3620182Y-6633984D01*
X3620182Y-6633984D02*
X3639229Y-6643508D01*
X3639229Y-6643508D02*
X3648753Y-6653031D01*
X3648753Y-6653031D02*
X3658277Y-6672079D01*
X3658277Y-6672079D02*
X3667801Y-6710174D01*
X3667801Y-6710174D02*
X3667801Y-6757793D01*
X3667801Y-6757793D02*
X3658277Y-6795888D01*
X3658277Y-6795888D02*
X3648753Y-6814936D01*
X3648753Y-6814936D02*
X3639229Y-6824460D01*
X3639229Y-6824460D02*
X3620182Y-6833984D01*
X3620182Y-6833984D02*
X3601134Y-6833984D01*
X3601134Y-6833984D02*
X3582086Y-6824460D01*
X3582086Y-6824460D02*
X3572563Y-6814936D01*
X3572563Y-6814936D02*
X3563039Y-6795888D01*
X3563039Y-6795888D02*
X3553515Y-6757793D01*
X3553515Y-6757793D02*
X3553515Y-6710174D01*
X3553515Y-6710174D02*
X3563039Y-6672079D01*
X3563039Y-6672079D02*
X3572563Y-6653031D01*
X3572563Y-6653031D02*
X3582086Y-6643508D01*
X3582086Y-6643508D02*
X3601134Y-6633984D01*
X3753515Y-6814936D02*
X3763039Y-6824460D01*
X3763039Y-6824460D02*
X3753515Y-6833984D01*
X3753515Y-6833984D02*
X3743991Y-6824460D01*
X3743991Y-6824460D02*
X3753515Y-6814936D01*
X3753515Y-6814936D02*
X3753515Y-6833984D01*
X3886848Y-6633984D02*
X3905896Y-6633984D01*
X3905896Y-6633984D02*
X3924944Y-6643508D01*
X3924944Y-6643508D02*
X3934467Y-6653031D01*
X3934467Y-6653031D02*
X3943991Y-6672079D01*
X3943991Y-6672079D02*
X3953515Y-6710174D01*
X3953515Y-6710174D02*
X3953515Y-6757793D01*
X3953515Y-6757793D02*
X3943991Y-6795888D01*
X3943991Y-6795888D02*
X3934467Y-6814936D01*
X3934467Y-6814936D02*
X3924944Y-6824460D01*
X3924944Y-6824460D02*
X3905896Y-6833984D01*
X3905896Y-6833984D02*
X3886848Y-6833984D01*
X3886848Y-6833984D02*
X3867801Y-6824460D01*
X3867801Y-6824460D02*
X3858277Y-6814936D01*
X3858277Y-6814936D02*
X3848753Y-6795888D01*
X3848753Y-6795888D02*
X3839229Y-6757793D01*
X3839229Y-6757793D02*
X3839229Y-6710174D01*
X3839229Y-6710174D02*
X3848753Y-6672079D01*
X3848753Y-6672079D02*
X3858277Y-6653031D01*
X3858277Y-6653031D02*
X3867801Y-6643508D01*
X3867801Y-6643508D02*
X3886848Y-6633984D01*
X4143991Y-6833984D02*
X4029706Y-6833984D01*
X4086848Y-6833984D02*
X4086848Y-6633984D01*
X4086848Y-6633984D02*
X4067801Y-6662555D01*
X4067801Y-6662555D02*
X4048753Y-6681603D01*
X4048753Y-6681603D02*
X4029706Y-6691127D01*
X4334468Y-6833984D02*
X4220182Y-6833984D01*
X4277325Y-6833984D02*
X4277325Y-6633984D01*
X4277325Y-6633984D02*
X4258277Y-6662555D01*
X4258277Y-6662555D02*
X4239229Y-6681603D01*
X4239229Y-6681603D02*
X4220182Y-6691127D01*
X4448753Y-6719698D02*
X4429706Y-6710174D01*
X4429706Y-6710174D02*
X4420182Y-6700650D01*
X4420182Y-6700650D02*
X4410658Y-6681603D01*
X4410658Y-6681603D02*
X4410658Y-6672079D01*
X4410658Y-6672079D02*
X4420182Y-6653031D01*
X4420182Y-6653031D02*
X4429706Y-6643508D01*
X4429706Y-6643508D02*
X4448753Y-6633984D01*
X4448753Y-6633984D02*
X4486849Y-6633984D01*
X4486849Y-6633984D02*
X4505896Y-6643508D01*
X4505896Y-6643508D02*
X4515420Y-6653031D01*
X4515420Y-6653031D02*
X4524944Y-6672079D01*
X4524944Y-6672079D02*
X4524944Y-6681603D01*
X4524944Y-6681603D02*
X4515420Y-6700650D01*
X4515420Y-6700650D02*
X4505896Y-6710174D01*
X4505896Y-6710174D02*
X4486849Y-6719698D01*
X4486849Y-6719698D02*
X4448753Y-6719698D01*
X4448753Y-6719698D02*
X4429706Y-6729222D01*
X4429706Y-6729222D02*
X4420182Y-6738746D01*
X4420182Y-6738746D02*
X4410658Y-6757793D01*
X4410658Y-6757793D02*
X4410658Y-6795888D01*
X4410658Y-6795888D02*
X4420182Y-6814936D01*
X4420182Y-6814936D02*
X4429706Y-6824460D01*
X4429706Y-6824460D02*
X4448753Y-6833984D01*
X4448753Y-6833984D02*
X4486849Y-6833984D01*
X4486849Y-6833984D02*
X4505896Y-6824460D01*
X4505896Y-6824460D02*
X4515420Y-6814936D01*
X4515420Y-6814936D02*
X4524944Y-6795888D01*
X4524944Y-6795888D02*
X4524944Y-6757793D01*
X4524944Y-6757793D02*
X4515420Y-6738746D01*
X4515420Y-6738746D02*
X4505896Y-6729222D01*
X4505896Y-6729222D02*
X4486849Y-6719698D01*
X4601134Y-6633984D02*
X4601134Y-6672079D01*
X4677325Y-6633984D02*
X4677325Y-6672079D01*
X4972563Y-6910174D02*
X4963039Y-6900650D01*
X4963039Y-6900650D02*
X4943991Y-6872079D01*
X4943991Y-6872079D02*
X4934468Y-6853031D01*
X4934468Y-6853031D02*
X4924944Y-6824460D01*
X4924944Y-6824460D02*
X4915420Y-6776841D01*
X4915420Y-6776841D02*
X4915420Y-6738746D01*
X4915420Y-6738746D02*
X4924944Y-6691127D01*
X4924944Y-6691127D02*
X4934468Y-6662555D01*
X4934468Y-6662555D02*
X4943991Y-6643508D01*
X4943991Y-6643508D02*
X4963039Y-6614936D01*
X4963039Y-6614936D02*
X4972563Y-6605412D01*
X5039230Y-6653031D02*
X5048753Y-6643508D01*
X5048753Y-6643508D02*
X5067801Y-6633984D01*
X5067801Y-6633984D02*
X5115420Y-6633984D01*
X5115420Y-6633984D02*
X5134468Y-6643508D01*
X5134468Y-6643508D02*
X5143991Y-6653031D01*
X5143991Y-6653031D02*
X5153515Y-6672079D01*
X5153515Y-6672079D02*
X5153515Y-6691127D01*
X5153515Y-6691127D02*
X5143991Y-6719698D01*
X5143991Y-6719698D02*
X5029706Y-6833984D01*
X5029706Y-6833984D02*
X5153515Y-6833984D01*
X5391611Y-6833984D02*
X5391611Y-6633984D01*
X5477325Y-6833984D02*
X5477325Y-6729222D01*
X5477325Y-6729222D02*
X5467801Y-6710174D01*
X5467801Y-6710174D02*
X5448753Y-6700650D01*
X5448753Y-6700650D02*
X5420182Y-6700650D01*
X5420182Y-6700650D02*
X5401134Y-6710174D01*
X5401134Y-6710174D02*
X5391611Y-6719698D01*
X5601134Y-6833984D02*
X5582087Y-6824460D01*
X5582087Y-6824460D02*
X5572563Y-6814936D01*
X5572563Y-6814936D02*
X5563039Y-6795888D01*
X5563039Y-6795888D02*
X5563039Y-6738746D01*
X5563039Y-6738746D02*
X5572563Y-6719698D01*
X5572563Y-6719698D02*
X5582087Y-6710174D01*
X5582087Y-6710174D02*
X5601134Y-6700650D01*
X5601134Y-6700650D02*
X5629706Y-6700650D01*
X5629706Y-6700650D02*
X5648753Y-6710174D01*
X5648753Y-6710174D02*
X5658277Y-6719698D01*
X5658277Y-6719698D02*
X5667801Y-6738746D01*
X5667801Y-6738746D02*
X5667801Y-6795888D01*
X5667801Y-6795888D02*
X5658277Y-6814936D01*
X5658277Y-6814936D02*
X5648753Y-6824460D01*
X5648753Y-6824460D02*
X5629706Y-6833984D01*
X5629706Y-6833984D02*
X5601134Y-6833984D01*
X5782087Y-6833984D02*
X5763039Y-6824460D01*
X5763039Y-6824460D02*
X5753515Y-6805412D01*
X5753515Y-6805412D02*
X5753515Y-6633984D01*
X5934468Y-6824460D02*
X5915420Y-6833984D01*
X5915420Y-6833984D02*
X5877325Y-6833984D01*
X5877325Y-6833984D02*
X5858277Y-6824460D01*
X5858277Y-6824460D02*
X5848753Y-6805412D01*
X5848753Y-6805412D02*
X5848753Y-6729222D01*
X5848753Y-6729222D02*
X5858277Y-6710174D01*
X5858277Y-6710174D02*
X5877325Y-6700650D01*
X5877325Y-6700650D02*
X5915420Y-6700650D01*
X5915420Y-6700650D02*
X5934468Y-6710174D01*
X5934468Y-6710174D02*
X5943991Y-6729222D01*
X5943991Y-6729222D02*
X5943991Y-6748269D01*
X5943991Y-6748269D02*
X5848753Y-6767317D01*
X6020182Y-6824460D02*
X6039230Y-6833984D01*
X6039230Y-6833984D02*
X6077325Y-6833984D01*
X6077325Y-6833984D02*
X6096372Y-6824460D01*
X6096372Y-6824460D02*
X6105896Y-6805412D01*
X6105896Y-6805412D02*
X6105896Y-6795888D01*
X6105896Y-6795888D02*
X6096372Y-6776841D01*
X6096372Y-6776841D02*
X6077325Y-6767317D01*
X6077325Y-6767317D02*
X6048753Y-6767317D01*
X6048753Y-6767317D02*
X6029706Y-6757793D01*
X6029706Y-6757793D02*
X6020182Y-6738746D01*
X6020182Y-6738746D02*
X6020182Y-6729222D01*
X6020182Y-6729222D02*
X6029706Y-6710174D01*
X6029706Y-6710174D02*
X6048753Y-6700650D01*
X6048753Y-6700650D02*
X6077325Y-6700650D01*
X6077325Y-6700650D02*
X6096372Y-6710174D01*
X6172563Y-6910174D02*
X6182087Y-6900650D01*
X6182087Y-6900650D02*
X6201134Y-6872079D01*
X6201134Y-6872079D02*
X6210658Y-6853031D01*
X6210658Y-6853031D02*
X6220182Y-6824460D01*
X6220182Y-6824460D02*
X6229706Y-6776841D01*
X6229706Y-6776841D02*
X6229706Y-6738746D01*
X6229706Y-6738746D02*
X6220182Y-6691127D01*
X6220182Y-6691127D02*
X6210658Y-6662555D01*
X6210658Y-6662555D02*
X6201134Y-6643508D01*
X6201134Y-6643508D02*
X6182087Y-6614936D01*
X6182087Y-6614936D02*
X6172563Y-6605412D01*
D12*
X1397500Y-7006500D02*
G75*
G02*
X1317500Y-7006500I-40000J0D01*
G01*
X1317500Y-7006500D02*
G75*
G02*
X1397500Y-7006500I40000J0D01*
G01*
D11*
X1696372Y-6897984D02*
X1715420Y-6897984D01*
X1715420Y-6897984D02*
X1734467Y-6907508D01*
X1734467Y-6907508D02*
X1743991Y-6917031D01*
X1743991Y-6917031D02*
X1753515Y-6936079D01*
X1753515Y-6936079D02*
X1763039Y-6974174D01*
X1763039Y-6974174D02*
X1763039Y-7021793D01*
X1763039Y-7021793D02*
X1753515Y-7059888D01*
X1753515Y-7059888D02*
X1743991Y-7078936D01*
X1743991Y-7078936D02*
X1734467Y-7088460D01*
X1734467Y-7088460D02*
X1715420Y-7097984D01*
X1715420Y-7097984D02*
X1696372Y-7097984D01*
X1696372Y-7097984D02*
X1677324Y-7088460D01*
X1677324Y-7088460D02*
X1667801Y-7078936D01*
X1667801Y-7078936D02*
X1658277Y-7059888D01*
X1658277Y-7059888D02*
X1648753Y-7021793D01*
X1648753Y-7021793D02*
X1648753Y-6974174D01*
X1648753Y-6974174D02*
X1658277Y-6936079D01*
X1658277Y-6936079D02*
X1667801Y-6917031D01*
X1667801Y-6917031D02*
X1677324Y-6907508D01*
X1677324Y-6907508D02*
X1696372Y-6897984D01*
X1848753Y-7078936D02*
X1858277Y-7088460D01*
X1858277Y-7088460D02*
X1848753Y-7097984D01*
X1848753Y-7097984D02*
X1839229Y-7088460D01*
X1839229Y-7088460D02*
X1848753Y-7078936D01*
X1848753Y-7078936D02*
X1848753Y-7097984D01*
X1972562Y-6983698D02*
X1953515Y-6974174D01*
X1953515Y-6974174D02*
X1943991Y-6964650D01*
X1943991Y-6964650D02*
X1934467Y-6945603D01*
X1934467Y-6945603D02*
X1934467Y-6936079D01*
X1934467Y-6936079D02*
X1943991Y-6917031D01*
X1943991Y-6917031D02*
X1953515Y-6907508D01*
X1953515Y-6907508D02*
X1972562Y-6897984D01*
X1972562Y-6897984D02*
X2010658Y-6897984D01*
X2010658Y-6897984D02*
X2029705Y-6907508D01*
X2029705Y-6907508D02*
X2039229Y-6917031D01*
X2039229Y-6917031D02*
X2048753Y-6936079D01*
X2048753Y-6936079D02*
X2048753Y-6945603D01*
X2048753Y-6945603D02*
X2039229Y-6964650D01*
X2039229Y-6964650D02*
X2029705Y-6974174D01*
X2029705Y-6974174D02*
X2010658Y-6983698D01*
X2010658Y-6983698D02*
X1972562Y-6983698D01*
X1972562Y-6983698D02*
X1953515Y-6993222D01*
X1953515Y-6993222D02*
X1943991Y-7002746D01*
X1943991Y-7002746D02*
X1934467Y-7021793D01*
X1934467Y-7021793D02*
X1934467Y-7059888D01*
X1934467Y-7059888D02*
X1943991Y-7078936D01*
X1943991Y-7078936D02*
X1953515Y-7088460D01*
X1953515Y-7088460D02*
X1972562Y-7097984D01*
X1972562Y-7097984D02*
X2010658Y-7097984D01*
X2010658Y-7097984D02*
X2029705Y-7088460D01*
X2029705Y-7088460D02*
X2039229Y-7078936D01*
X2039229Y-7078936D02*
X2048753Y-7059888D01*
X2048753Y-7059888D02*
X2048753Y-7021793D01*
X2048753Y-7021793D02*
X2039229Y-7002746D01*
X2039229Y-7002746D02*
X2029705Y-6993222D01*
X2029705Y-6993222D02*
X2010658Y-6983698D01*
X2172563Y-6897984D02*
X2191610Y-6897984D01*
X2191610Y-6897984D02*
X2210658Y-6907508D01*
X2210658Y-6907508D02*
X2220182Y-6917031D01*
X2220182Y-6917031D02*
X2229705Y-6936079D01*
X2229705Y-6936079D02*
X2239229Y-6974174D01*
X2239229Y-6974174D02*
X2239229Y-7021793D01*
X2239229Y-7021793D02*
X2229705Y-7059888D01*
X2229705Y-7059888D02*
X2220182Y-7078936D01*
X2220182Y-7078936D02*
X2210658Y-7088460D01*
X2210658Y-7088460D02*
X2191610Y-7097984D01*
X2191610Y-7097984D02*
X2172563Y-7097984D01*
X2172563Y-7097984D02*
X2153515Y-7088460D01*
X2153515Y-7088460D02*
X2143991Y-7078936D01*
X2143991Y-7078936D02*
X2134467Y-7059888D01*
X2134467Y-7059888D02*
X2124944Y-7021793D01*
X2124944Y-7021793D02*
X2124944Y-6974174D01*
X2124944Y-6974174D02*
X2134467Y-6936079D01*
X2134467Y-6936079D02*
X2143991Y-6917031D01*
X2143991Y-6917031D02*
X2153515Y-6907508D01*
X2153515Y-6907508D02*
X2172563Y-6897984D01*
X2363039Y-6897984D02*
X2382086Y-6897984D01*
X2382086Y-6897984D02*
X2401134Y-6907508D01*
X2401134Y-6907508D02*
X2410658Y-6917031D01*
X2410658Y-6917031D02*
X2420182Y-6936079D01*
X2420182Y-6936079D02*
X2429705Y-6974174D01*
X2429705Y-6974174D02*
X2429705Y-7021793D01*
X2429705Y-7021793D02*
X2420182Y-7059888D01*
X2420182Y-7059888D02*
X2410658Y-7078936D01*
X2410658Y-7078936D02*
X2401134Y-7088460D01*
X2401134Y-7088460D02*
X2382086Y-7097984D01*
X2382086Y-7097984D02*
X2363039Y-7097984D01*
X2363039Y-7097984D02*
X2343991Y-7088460D01*
X2343991Y-7088460D02*
X2334467Y-7078936D01*
X2334467Y-7078936D02*
X2324944Y-7059888D01*
X2324944Y-7059888D02*
X2315420Y-7021793D01*
X2315420Y-7021793D02*
X2315420Y-6974174D01*
X2315420Y-6974174D02*
X2324944Y-6936079D01*
X2324944Y-6936079D02*
X2334467Y-6917031D01*
X2334467Y-6917031D02*
X2343991Y-6907508D01*
X2343991Y-6907508D02*
X2363039Y-6897984D01*
X2515420Y-7097984D02*
X2515420Y-6964650D01*
X2515420Y-6983698D02*
X2524944Y-6974174D01*
X2524944Y-6974174D02*
X2543991Y-6964650D01*
X2543991Y-6964650D02*
X2572563Y-6964650D01*
X2572563Y-6964650D02*
X2591610Y-6974174D01*
X2591610Y-6974174D02*
X2601134Y-6993222D01*
X2601134Y-6993222D02*
X2601134Y-7097984D01*
X2601134Y-6993222D02*
X2610658Y-6974174D01*
X2610658Y-6974174D02*
X2629705Y-6964650D01*
X2629705Y-6964650D02*
X2658277Y-6964650D01*
X2658277Y-6964650D02*
X2677325Y-6974174D01*
X2677325Y-6974174D02*
X2686848Y-6993222D01*
X2686848Y-6993222D02*
X2686848Y-7097984D01*
X2782086Y-7097984D02*
X2782086Y-6964650D01*
X2782086Y-6983698D02*
X2791610Y-6974174D01*
X2791610Y-6974174D02*
X2810658Y-6964650D01*
X2810658Y-6964650D02*
X2839229Y-6964650D01*
X2839229Y-6964650D02*
X2858277Y-6974174D01*
X2858277Y-6974174D02*
X2867801Y-6993222D01*
X2867801Y-6993222D02*
X2867801Y-7097984D01*
X2867801Y-6993222D02*
X2877324Y-6974174D01*
X2877324Y-6974174D02*
X2896372Y-6964650D01*
X2896372Y-6964650D02*
X2924943Y-6964650D01*
X2924943Y-6964650D02*
X2943991Y-6974174D01*
X2943991Y-6974174D02*
X2953515Y-6993222D01*
X2953515Y-6993222D02*
X2953515Y-7097984D01*
X3343991Y-6888460D02*
X3172563Y-7145603D01*
X3601134Y-6897984D02*
X3620182Y-6897984D01*
X3620182Y-6897984D02*
X3639229Y-6907508D01*
X3639229Y-6907508D02*
X3648753Y-6917031D01*
X3648753Y-6917031D02*
X3658277Y-6936079D01*
X3658277Y-6936079D02*
X3667801Y-6974174D01*
X3667801Y-6974174D02*
X3667801Y-7021793D01*
X3667801Y-7021793D02*
X3658277Y-7059888D01*
X3658277Y-7059888D02*
X3648753Y-7078936D01*
X3648753Y-7078936D02*
X3639229Y-7088460D01*
X3639229Y-7088460D02*
X3620182Y-7097984D01*
X3620182Y-7097984D02*
X3601134Y-7097984D01*
X3601134Y-7097984D02*
X3582086Y-7088460D01*
X3582086Y-7088460D02*
X3572563Y-7078936D01*
X3572563Y-7078936D02*
X3563039Y-7059888D01*
X3563039Y-7059888D02*
X3553515Y-7021793D01*
X3553515Y-7021793D02*
X3553515Y-6974174D01*
X3553515Y-6974174D02*
X3563039Y-6936079D01*
X3563039Y-6936079D02*
X3572563Y-6917031D01*
X3572563Y-6917031D02*
X3582086Y-6907508D01*
X3582086Y-6907508D02*
X3601134Y-6897984D01*
X3753515Y-7078936D02*
X3763039Y-7088460D01*
X3763039Y-7088460D02*
X3753515Y-7097984D01*
X3753515Y-7097984D02*
X3743991Y-7088460D01*
X3743991Y-7088460D02*
X3753515Y-7078936D01*
X3753515Y-7078936D02*
X3753515Y-7097984D01*
X3886848Y-6897984D02*
X3905896Y-6897984D01*
X3905896Y-6897984D02*
X3924944Y-6907508D01*
X3924944Y-6907508D02*
X3934467Y-6917031D01*
X3934467Y-6917031D02*
X3943991Y-6936079D01*
X3943991Y-6936079D02*
X3953515Y-6974174D01*
X3953515Y-6974174D02*
X3953515Y-7021793D01*
X3953515Y-7021793D02*
X3943991Y-7059888D01*
X3943991Y-7059888D02*
X3934467Y-7078936D01*
X3934467Y-7078936D02*
X3924944Y-7088460D01*
X3924944Y-7088460D02*
X3905896Y-7097984D01*
X3905896Y-7097984D02*
X3886848Y-7097984D01*
X3886848Y-7097984D02*
X3867801Y-7088460D01*
X3867801Y-7088460D02*
X3858277Y-7078936D01*
X3858277Y-7078936D02*
X3848753Y-7059888D01*
X3848753Y-7059888D02*
X3839229Y-7021793D01*
X3839229Y-7021793D02*
X3839229Y-6974174D01*
X3839229Y-6974174D02*
X3848753Y-6936079D01*
X3848753Y-6936079D02*
X3858277Y-6917031D01*
X3858277Y-6917031D02*
X3867801Y-6907508D01*
X3867801Y-6907508D02*
X3886848Y-6897984D01*
X4020182Y-6897984D02*
X4143991Y-6897984D01*
X4143991Y-6897984D02*
X4077325Y-6974174D01*
X4077325Y-6974174D02*
X4105896Y-6974174D01*
X4105896Y-6974174D02*
X4124944Y-6983698D01*
X4124944Y-6983698D02*
X4134467Y-6993222D01*
X4134467Y-6993222D02*
X4143991Y-7012269D01*
X4143991Y-7012269D02*
X4143991Y-7059888D01*
X4143991Y-7059888D02*
X4134467Y-7078936D01*
X4134467Y-7078936D02*
X4124944Y-7088460D01*
X4124944Y-7088460D02*
X4105896Y-7097984D01*
X4105896Y-7097984D02*
X4048753Y-7097984D01*
X4048753Y-7097984D02*
X4029706Y-7088460D01*
X4029706Y-7088460D02*
X4020182Y-7078936D01*
X4334468Y-7097984D02*
X4220182Y-7097984D01*
X4277325Y-7097984D02*
X4277325Y-6897984D01*
X4277325Y-6897984D02*
X4258277Y-6926555D01*
X4258277Y-6926555D02*
X4239229Y-6945603D01*
X4239229Y-6945603D02*
X4220182Y-6955127D01*
X4515420Y-6897984D02*
X4420182Y-6897984D01*
X4420182Y-6897984D02*
X4410658Y-6993222D01*
X4410658Y-6993222D02*
X4420182Y-6983698D01*
X4420182Y-6983698D02*
X4439229Y-6974174D01*
X4439229Y-6974174D02*
X4486849Y-6974174D01*
X4486849Y-6974174D02*
X4505896Y-6983698D01*
X4505896Y-6983698D02*
X4515420Y-6993222D01*
X4515420Y-6993222D02*
X4524944Y-7012269D01*
X4524944Y-7012269D02*
X4524944Y-7059888D01*
X4524944Y-7059888D02*
X4515420Y-7078936D01*
X4515420Y-7078936D02*
X4505896Y-7088460D01*
X4505896Y-7088460D02*
X4486849Y-7097984D01*
X4486849Y-7097984D02*
X4439229Y-7097984D01*
X4439229Y-7097984D02*
X4420182Y-7088460D01*
X4420182Y-7088460D02*
X4410658Y-7078936D01*
X4601134Y-6897984D02*
X4601134Y-6936079D01*
X4677325Y-6897984D02*
X4677325Y-6936079D01*
X4972563Y-7174174D02*
X4963039Y-7164650D01*
X4963039Y-7164650D02*
X4943991Y-7136079D01*
X4943991Y-7136079D02*
X4934468Y-7117031D01*
X4934468Y-7117031D02*
X4924944Y-7088460D01*
X4924944Y-7088460D02*
X4915420Y-7040841D01*
X4915420Y-7040841D02*
X4915420Y-7002746D01*
X4915420Y-7002746D02*
X4924944Y-6955127D01*
X4924944Y-6955127D02*
X4934468Y-6926555D01*
X4934468Y-6926555D02*
X4943991Y-6907508D01*
X4943991Y-6907508D02*
X4963039Y-6878936D01*
X4963039Y-6878936D02*
X4972563Y-6869412D01*
X5134468Y-6964650D02*
X5134468Y-7097984D01*
X5086849Y-6888460D02*
X5039230Y-7031317D01*
X5039230Y-7031317D02*
X5163039Y-7031317D01*
X5391611Y-7097984D02*
X5391611Y-6897984D01*
X5477325Y-7097984D02*
X5477325Y-6993222D01*
X5477325Y-6993222D02*
X5467801Y-6974174D01*
X5467801Y-6974174D02*
X5448753Y-6964650D01*
X5448753Y-6964650D02*
X5420182Y-6964650D01*
X5420182Y-6964650D02*
X5401134Y-6974174D01*
X5401134Y-6974174D02*
X5391611Y-6983698D01*
X5601134Y-7097984D02*
X5582087Y-7088460D01*
X5582087Y-7088460D02*
X5572563Y-7078936D01*
X5572563Y-7078936D02*
X5563039Y-7059888D01*
X5563039Y-7059888D02*
X5563039Y-7002746D01*
X5563039Y-7002746D02*
X5572563Y-6983698D01*
X5572563Y-6983698D02*
X5582087Y-6974174D01*
X5582087Y-6974174D02*
X5601134Y-6964650D01*
X5601134Y-6964650D02*
X5629706Y-6964650D01*
X5629706Y-6964650D02*
X5648753Y-6974174D01*
X5648753Y-6974174D02*
X5658277Y-6983698D01*
X5658277Y-6983698D02*
X5667801Y-7002746D01*
X5667801Y-7002746D02*
X5667801Y-7059888D01*
X5667801Y-7059888D02*
X5658277Y-7078936D01*
X5658277Y-7078936D02*
X5648753Y-7088460D01*
X5648753Y-7088460D02*
X5629706Y-7097984D01*
X5629706Y-7097984D02*
X5601134Y-7097984D01*
X5782087Y-7097984D02*
X5763039Y-7088460D01*
X5763039Y-7088460D02*
X5753515Y-7069412D01*
X5753515Y-7069412D02*
X5753515Y-6897984D01*
X5934468Y-7088460D02*
X5915420Y-7097984D01*
X5915420Y-7097984D02*
X5877325Y-7097984D01*
X5877325Y-7097984D02*
X5858277Y-7088460D01*
X5858277Y-7088460D02*
X5848753Y-7069412D01*
X5848753Y-7069412D02*
X5848753Y-6993222D01*
X5848753Y-6993222D02*
X5858277Y-6974174D01*
X5858277Y-6974174D02*
X5877325Y-6964650D01*
X5877325Y-6964650D02*
X5915420Y-6964650D01*
X5915420Y-6964650D02*
X5934468Y-6974174D01*
X5934468Y-6974174D02*
X5943991Y-6993222D01*
X5943991Y-6993222D02*
X5943991Y-7012269D01*
X5943991Y-7012269D02*
X5848753Y-7031317D01*
X6020182Y-7088460D02*
X6039230Y-7097984D01*
X6039230Y-7097984D02*
X6077325Y-7097984D01*
X6077325Y-7097984D02*
X6096372Y-7088460D01*
X6096372Y-7088460D02*
X6105896Y-7069412D01*
X6105896Y-7069412D02*
X6105896Y-7059888D01*
X6105896Y-7059888D02*
X6096372Y-7040841D01*
X6096372Y-7040841D02*
X6077325Y-7031317D01*
X6077325Y-7031317D02*
X6048753Y-7031317D01*
X6048753Y-7031317D02*
X6029706Y-7021793D01*
X6029706Y-7021793D02*
X6020182Y-7002746D01*
X6020182Y-7002746D02*
X6020182Y-6993222D01*
X6020182Y-6993222D02*
X6029706Y-6974174D01*
X6029706Y-6974174D02*
X6048753Y-6964650D01*
X6048753Y-6964650D02*
X6077325Y-6964650D01*
X6077325Y-6964650D02*
X6096372Y-6974174D01*
X6172563Y-7174174D02*
X6182087Y-7164650D01*
X6182087Y-7164650D02*
X6201134Y-7136079D01*
X6201134Y-7136079D02*
X6210658Y-7117031D01*
X6210658Y-7117031D02*
X6220182Y-7088460D01*
X6220182Y-7088460D02*
X6229706Y-7040841D01*
X6229706Y-7040841D02*
X6229706Y-7002746D01*
X6229706Y-7002746D02*
X6220182Y-6955127D01*
X6220182Y-6955127D02*
X6210658Y-6926555D01*
X6210658Y-6926555D02*
X6201134Y-6907508D01*
X6201134Y-6907508D02*
X6182087Y-6878936D01*
X6182087Y-6878936D02*
X6172563Y-6869412D01*
D12*
X1347500Y-7220500D02*
X1347500Y-7320500D01*
X1297500Y-7270500D02*
X1397500Y-7270500D01*
D11*
X1763039Y-7361984D02*
X1648753Y-7361984D01*
X1705896Y-7361984D02*
X1705896Y-7161984D01*
X1705896Y-7161984D02*
X1686848Y-7190555D01*
X1686848Y-7190555D02*
X1667801Y-7209603D01*
X1667801Y-7209603D02*
X1648753Y-7219127D01*
X1848753Y-7342936D02*
X1858277Y-7352460D01*
X1858277Y-7352460D02*
X1848753Y-7361984D01*
X1848753Y-7361984D02*
X1839229Y-7352460D01*
X1839229Y-7352460D02*
X1848753Y-7342936D01*
X1848753Y-7342936D02*
X1848753Y-7361984D01*
X1982086Y-7161984D02*
X2001134Y-7161984D01*
X2001134Y-7161984D02*
X2020182Y-7171508D01*
X2020182Y-7171508D02*
X2029705Y-7181031D01*
X2029705Y-7181031D02*
X2039229Y-7200079D01*
X2039229Y-7200079D02*
X2048753Y-7238174D01*
X2048753Y-7238174D02*
X2048753Y-7285793D01*
X2048753Y-7285793D02*
X2039229Y-7323888D01*
X2039229Y-7323888D02*
X2029705Y-7342936D01*
X2029705Y-7342936D02*
X2020182Y-7352460D01*
X2020182Y-7352460D02*
X2001134Y-7361984D01*
X2001134Y-7361984D02*
X1982086Y-7361984D01*
X1982086Y-7361984D02*
X1963039Y-7352460D01*
X1963039Y-7352460D02*
X1953515Y-7342936D01*
X1953515Y-7342936D02*
X1943991Y-7323888D01*
X1943991Y-7323888D02*
X1934467Y-7285793D01*
X1934467Y-7285793D02*
X1934467Y-7238174D01*
X1934467Y-7238174D02*
X1943991Y-7200079D01*
X1943991Y-7200079D02*
X1953515Y-7181031D01*
X1953515Y-7181031D02*
X1963039Y-7171508D01*
X1963039Y-7171508D02*
X1982086Y-7161984D01*
X2172563Y-7161984D02*
X2191610Y-7161984D01*
X2191610Y-7161984D02*
X2210658Y-7171508D01*
X2210658Y-7171508D02*
X2220182Y-7181031D01*
X2220182Y-7181031D02*
X2229705Y-7200079D01*
X2229705Y-7200079D02*
X2239229Y-7238174D01*
X2239229Y-7238174D02*
X2239229Y-7285793D01*
X2239229Y-7285793D02*
X2229705Y-7323888D01*
X2229705Y-7323888D02*
X2220182Y-7342936D01*
X2220182Y-7342936D02*
X2210658Y-7352460D01*
X2210658Y-7352460D02*
X2191610Y-7361984D01*
X2191610Y-7361984D02*
X2172563Y-7361984D01*
X2172563Y-7361984D02*
X2153515Y-7352460D01*
X2153515Y-7352460D02*
X2143991Y-7342936D01*
X2143991Y-7342936D02*
X2134467Y-7323888D01*
X2134467Y-7323888D02*
X2124944Y-7285793D01*
X2124944Y-7285793D02*
X2124944Y-7238174D01*
X2124944Y-7238174D02*
X2134467Y-7200079D01*
X2134467Y-7200079D02*
X2143991Y-7181031D01*
X2143991Y-7181031D02*
X2153515Y-7171508D01*
X2153515Y-7171508D02*
X2172563Y-7161984D01*
X2363039Y-7161984D02*
X2382086Y-7161984D01*
X2382086Y-7161984D02*
X2401134Y-7171508D01*
X2401134Y-7171508D02*
X2410658Y-7181031D01*
X2410658Y-7181031D02*
X2420182Y-7200079D01*
X2420182Y-7200079D02*
X2429705Y-7238174D01*
X2429705Y-7238174D02*
X2429705Y-7285793D01*
X2429705Y-7285793D02*
X2420182Y-7323888D01*
X2420182Y-7323888D02*
X2410658Y-7342936D01*
X2410658Y-7342936D02*
X2401134Y-7352460D01*
X2401134Y-7352460D02*
X2382086Y-7361984D01*
X2382086Y-7361984D02*
X2363039Y-7361984D01*
X2363039Y-7361984D02*
X2343991Y-7352460D01*
X2343991Y-7352460D02*
X2334467Y-7342936D01*
X2334467Y-7342936D02*
X2324944Y-7323888D01*
X2324944Y-7323888D02*
X2315420Y-7285793D01*
X2315420Y-7285793D02*
X2315420Y-7238174D01*
X2315420Y-7238174D02*
X2324944Y-7200079D01*
X2324944Y-7200079D02*
X2334467Y-7181031D01*
X2334467Y-7181031D02*
X2343991Y-7171508D01*
X2343991Y-7171508D02*
X2363039Y-7161984D01*
X2515420Y-7361984D02*
X2515420Y-7228650D01*
X2515420Y-7247698D02*
X2524944Y-7238174D01*
X2524944Y-7238174D02*
X2543991Y-7228650D01*
X2543991Y-7228650D02*
X2572563Y-7228650D01*
X2572563Y-7228650D02*
X2591610Y-7238174D01*
X2591610Y-7238174D02*
X2601134Y-7257222D01*
X2601134Y-7257222D02*
X2601134Y-7361984D01*
X2601134Y-7257222D02*
X2610658Y-7238174D01*
X2610658Y-7238174D02*
X2629705Y-7228650D01*
X2629705Y-7228650D02*
X2658277Y-7228650D01*
X2658277Y-7228650D02*
X2677325Y-7238174D01*
X2677325Y-7238174D02*
X2686848Y-7257222D01*
X2686848Y-7257222D02*
X2686848Y-7361984D01*
X2782086Y-7361984D02*
X2782086Y-7228650D01*
X2782086Y-7247698D02*
X2791610Y-7238174D01*
X2791610Y-7238174D02*
X2810658Y-7228650D01*
X2810658Y-7228650D02*
X2839229Y-7228650D01*
X2839229Y-7228650D02*
X2858277Y-7238174D01*
X2858277Y-7238174D02*
X2867801Y-7257222D01*
X2867801Y-7257222D02*
X2867801Y-7361984D01*
X2867801Y-7257222D02*
X2877324Y-7238174D01*
X2877324Y-7238174D02*
X2896372Y-7228650D01*
X2896372Y-7228650D02*
X2924943Y-7228650D01*
X2924943Y-7228650D02*
X2943991Y-7238174D01*
X2943991Y-7238174D02*
X2953515Y-7257222D01*
X2953515Y-7257222D02*
X2953515Y-7361984D01*
X3343991Y-7152460D02*
X3172563Y-7409603D01*
X3601134Y-7161984D02*
X3620182Y-7161984D01*
X3620182Y-7161984D02*
X3639229Y-7171508D01*
X3639229Y-7171508D02*
X3648753Y-7181031D01*
X3648753Y-7181031D02*
X3658277Y-7200079D01*
X3658277Y-7200079D02*
X3667801Y-7238174D01*
X3667801Y-7238174D02*
X3667801Y-7285793D01*
X3667801Y-7285793D02*
X3658277Y-7323888D01*
X3658277Y-7323888D02*
X3648753Y-7342936D01*
X3648753Y-7342936D02*
X3639229Y-7352460D01*
X3639229Y-7352460D02*
X3620182Y-7361984D01*
X3620182Y-7361984D02*
X3601134Y-7361984D01*
X3601134Y-7361984D02*
X3582086Y-7352460D01*
X3582086Y-7352460D02*
X3572563Y-7342936D01*
X3572563Y-7342936D02*
X3563039Y-7323888D01*
X3563039Y-7323888D02*
X3553515Y-7285793D01*
X3553515Y-7285793D02*
X3553515Y-7238174D01*
X3553515Y-7238174D02*
X3563039Y-7200079D01*
X3563039Y-7200079D02*
X3572563Y-7181031D01*
X3572563Y-7181031D02*
X3582086Y-7171508D01*
X3582086Y-7171508D02*
X3601134Y-7161984D01*
X3753515Y-7342936D02*
X3763039Y-7352460D01*
X3763039Y-7352460D02*
X3753515Y-7361984D01*
X3753515Y-7361984D02*
X3743991Y-7352460D01*
X3743991Y-7352460D02*
X3753515Y-7342936D01*
X3753515Y-7342936D02*
X3753515Y-7361984D01*
X3886848Y-7161984D02*
X3905896Y-7161984D01*
X3905896Y-7161984D02*
X3924944Y-7171508D01*
X3924944Y-7171508D02*
X3934467Y-7181031D01*
X3934467Y-7181031D02*
X3943991Y-7200079D01*
X3943991Y-7200079D02*
X3953515Y-7238174D01*
X3953515Y-7238174D02*
X3953515Y-7285793D01*
X3953515Y-7285793D02*
X3943991Y-7323888D01*
X3943991Y-7323888D02*
X3934467Y-7342936D01*
X3934467Y-7342936D02*
X3924944Y-7352460D01*
X3924944Y-7352460D02*
X3905896Y-7361984D01*
X3905896Y-7361984D02*
X3886848Y-7361984D01*
X3886848Y-7361984D02*
X3867801Y-7352460D01*
X3867801Y-7352460D02*
X3858277Y-7342936D01*
X3858277Y-7342936D02*
X3848753Y-7323888D01*
X3848753Y-7323888D02*
X3839229Y-7285793D01*
X3839229Y-7285793D02*
X3839229Y-7238174D01*
X3839229Y-7238174D02*
X3848753Y-7200079D01*
X3848753Y-7200079D02*
X3858277Y-7181031D01*
X3858277Y-7181031D02*
X3867801Y-7171508D01*
X3867801Y-7171508D02*
X3886848Y-7161984D01*
X4020182Y-7161984D02*
X4143991Y-7161984D01*
X4143991Y-7161984D02*
X4077325Y-7238174D01*
X4077325Y-7238174D02*
X4105896Y-7238174D01*
X4105896Y-7238174D02*
X4124944Y-7247698D01*
X4124944Y-7247698D02*
X4134467Y-7257222D01*
X4134467Y-7257222D02*
X4143991Y-7276269D01*
X4143991Y-7276269D02*
X4143991Y-7323888D01*
X4143991Y-7323888D02*
X4134467Y-7342936D01*
X4134467Y-7342936D02*
X4124944Y-7352460D01*
X4124944Y-7352460D02*
X4105896Y-7361984D01*
X4105896Y-7361984D02*
X4048753Y-7361984D01*
X4048753Y-7361984D02*
X4029706Y-7352460D01*
X4029706Y-7352460D02*
X4020182Y-7342936D01*
X4239229Y-7361984D02*
X4277325Y-7361984D01*
X4277325Y-7361984D02*
X4296372Y-7352460D01*
X4296372Y-7352460D02*
X4305896Y-7342936D01*
X4305896Y-7342936D02*
X4324944Y-7314365D01*
X4324944Y-7314365D02*
X4334468Y-7276269D01*
X4334468Y-7276269D02*
X4334468Y-7200079D01*
X4334468Y-7200079D02*
X4324944Y-7181031D01*
X4324944Y-7181031D02*
X4315420Y-7171508D01*
X4315420Y-7171508D02*
X4296372Y-7161984D01*
X4296372Y-7161984D02*
X4258277Y-7161984D01*
X4258277Y-7161984D02*
X4239229Y-7171508D01*
X4239229Y-7171508D02*
X4229706Y-7181031D01*
X4229706Y-7181031D02*
X4220182Y-7200079D01*
X4220182Y-7200079D02*
X4220182Y-7247698D01*
X4220182Y-7247698D02*
X4229706Y-7266746D01*
X4229706Y-7266746D02*
X4239229Y-7276269D01*
X4239229Y-7276269D02*
X4258277Y-7285793D01*
X4258277Y-7285793D02*
X4296372Y-7285793D01*
X4296372Y-7285793D02*
X4315420Y-7276269D01*
X4315420Y-7276269D02*
X4324944Y-7266746D01*
X4324944Y-7266746D02*
X4334468Y-7247698D01*
X4505896Y-7228650D02*
X4505896Y-7361984D01*
X4458277Y-7152460D02*
X4410658Y-7295317D01*
X4410658Y-7295317D02*
X4534468Y-7295317D01*
X4601134Y-7161984D02*
X4601134Y-7200079D01*
X4677325Y-7161984D02*
X4677325Y-7200079D01*
X4972563Y-7438174D02*
X4963039Y-7428650D01*
X4963039Y-7428650D02*
X4943991Y-7400079D01*
X4943991Y-7400079D02*
X4934468Y-7381031D01*
X4934468Y-7381031D02*
X4924944Y-7352460D01*
X4924944Y-7352460D02*
X4915420Y-7304841D01*
X4915420Y-7304841D02*
X4915420Y-7266746D01*
X4915420Y-7266746D02*
X4924944Y-7219127D01*
X4924944Y-7219127D02*
X4934468Y-7190555D01*
X4934468Y-7190555D02*
X4943991Y-7171508D01*
X4943991Y-7171508D02*
X4963039Y-7142936D01*
X4963039Y-7142936D02*
X4972563Y-7133412D01*
X5134468Y-7161984D02*
X5096372Y-7161984D01*
X5096372Y-7161984D02*
X5077325Y-7171508D01*
X5077325Y-7171508D02*
X5067801Y-7181031D01*
X5067801Y-7181031D02*
X5048753Y-7209603D01*
X5048753Y-7209603D02*
X5039230Y-7247698D01*
X5039230Y-7247698D02*
X5039230Y-7323888D01*
X5039230Y-7323888D02*
X5048753Y-7342936D01*
X5048753Y-7342936D02*
X5058277Y-7352460D01*
X5058277Y-7352460D02*
X5077325Y-7361984D01*
X5077325Y-7361984D02*
X5115420Y-7361984D01*
X5115420Y-7361984D02*
X5134468Y-7352460D01*
X5134468Y-7352460D02*
X5143991Y-7342936D01*
X5143991Y-7342936D02*
X5153515Y-7323888D01*
X5153515Y-7323888D02*
X5153515Y-7276269D01*
X5153515Y-7276269D02*
X5143991Y-7257222D01*
X5143991Y-7257222D02*
X5134468Y-7247698D01*
X5134468Y-7247698D02*
X5115420Y-7238174D01*
X5115420Y-7238174D02*
X5077325Y-7238174D01*
X5077325Y-7238174D02*
X5058277Y-7247698D01*
X5058277Y-7247698D02*
X5048753Y-7257222D01*
X5048753Y-7257222D02*
X5039230Y-7276269D01*
X5324944Y-7228650D02*
X5324944Y-7361984D01*
X5277325Y-7152460D02*
X5229706Y-7295317D01*
X5229706Y-7295317D02*
X5353515Y-7295317D01*
X5582087Y-7361984D02*
X5582087Y-7161984D01*
X5667801Y-7361984D02*
X5667801Y-7257222D01*
X5667801Y-7257222D02*
X5658277Y-7238174D01*
X5658277Y-7238174D02*
X5639230Y-7228650D01*
X5639230Y-7228650D02*
X5610658Y-7228650D01*
X5610658Y-7228650D02*
X5591611Y-7238174D01*
X5591611Y-7238174D02*
X5582087Y-7247698D01*
X5791610Y-7361984D02*
X5772563Y-7352460D01*
X5772563Y-7352460D02*
X5763039Y-7342936D01*
X5763039Y-7342936D02*
X5753515Y-7323888D01*
X5753515Y-7323888D02*
X5753515Y-7266746D01*
X5753515Y-7266746D02*
X5763039Y-7247698D01*
X5763039Y-7247698D02*
X5772563Y-7238174D01*
X5772563Y-7238174D02*
X5791610Y-7228650D01*
X5791610Y-7228650D02*
X5820182Y-7228650D01*
X5820182Y-7228650D02*
X5839230Y-7238174D01*
X5839230Y-7238174D02*
X5848753Y-7247698D01*
X5848753Y-7247698D02*
X5858277Y-7266746D01*
X5858277Y-7266746D02*
X5858277Y-7323888D01*
X5858277Y-7323888D02*
X5848753Y-7342936D01*
X5848753Y-7342936D02*
X5839230Y-7352460D01*
X5839230Y-7352460D02*
X5820182Y-7361984D01*
X5820182Y-7361984D02*
X5791610Y-7361984D01*
X5972563Y-7361984D02*
X5953515Y-7352460D01*
X5953515Y-7352460D02*
X5943991Y-7333412D01*
X5943991Y-7333412D02*
X5943991Y-7161984D01*
X6124944Y-7352460D02*
X6105896Y-7361984D01*
X6105896Y-7361984D02*
X6067801Y-7361984D01*
X6067801Y-7361984D02*
X6048753Y-7352460D01*
X6048753Y-7352460D02*
X6039230Y-7333412D01*
X6039230Y-7333412D02*
X6039230Y-7257222D01*
X6039230Y-7257222D02*
X6048753Y-7238174D01*
X6048753Y-7238174D02*
X6067801Y-7228650D01*
X6067801Y-7228650D02*
X6105896Y-7228650D01*
X6105896Y-7228650D02*
X6124944Y-7238174D01*
X6124944Y-7238174D02*
X6134468Y-7257222D01*
X6134468Y-7257222D02*
X6134468Y-7276269D01*
X6134468Y-7276269D02*
X6039230Y-7295317D01*
X6210658Y-7352460D02*
X6229706Y-7361984D01*
X6229706Y-7361984D02*
X6267801Y-7361984D01*
X6267801Y-7361984D02*
X6286849Y-7352460D01*
X6286849Y-7352460D02*
X6296372Y-7333412D01*
X6296372Y-7333412D02*
X6296372Y-7323888D01*
X6296372Y-7323888D02*
X6286849Y-7304841D01*
X6286849Y-7304841D02*
X6267801Y-7295317D01*
X6267801Y-7295317D02*
X6239230Y-7295317D01*
X6239230Y-7295317D02*
X6220182Y-7285793D01*
X6220182Y-7285793D02*
X6210658Y-7266746D01*
X6210658Y-7266746D02*
X6210658Y-7257222D01*
X6210658Y-7257222D02*
X6220182Y-7238174D01*
X6220182Y-7238174D02*
X6239230Y-7228650D01*
X6239230Y-7228650D02*
X6267801Y-7228650D01*
X6267801Y-7228650D02*
X6286849Y-7238174D01*
X6534468Y-7285793D02*
X6686849Y-7285793D01*
X6610658Y-7361984D02*
X6610658Y-7209603D01*
X6915420Y-7161984D02*
X7039230Y-7161984D01*
X7039230Y-7161984D02*
X6972563Y-7238174D01*
X6972563Y-7238174D02*
X7001134Y-7238174D01*
X7001134Y-7238174D02*
X7020182Y-7247698D01*
X7020182Y-7247698D02*
X7029706Y-7257222D01*
X7029706Y-7257222D02*
X7039230Y-7276269D01*
X7039230Y-7276269D02*
X7039230Y-7323888D01*
X7039230Y-7323888D02*
X7029706Y-7342936D01*
X7029706Y-7342936D02*
X7020182Y-7352460D01*
X7020182Y-7352460D02*
X7001134Y-7361984D01*
X7001134Y-7361984D02*
X6943992Y-7361984D01*
X6943992Y-7361984D02*
X6924944Y-7352460D01*
X6924944Y-7352460D02*
X6915420Y-7342936D01*
X7267801Y-7352460D02*
X7286849Y-7361984D01*
X7286849Y-7361984D02*
X7324944Y-7361984D01*
X7324944Y-7361984D02*
X7343992Y-7352460D01*
X7343992Y-7352460D02*
X7353515Y-7333412D01*
X7353515Y-7333412D02*
X7353515Y-7323888D01*
X7353515Y-7323888D02*
X7343992Y-7304841D01*
X7343992Y-7304841D02*
X7324944Y-7295317D01*
X7324944Y-7295317D02*
X7296373Y-7295317D01*
X7296373Y-7295317D02*
X7277325Y-7285793D01*
X7277325Y-7285793D02*
X7267801Y-7266746D01*
X7267801Y-7266746D02*
X7267801Y-7257222D01*
X7267801Y-7257222D02*
X7277325Y-7238174D01*
X7277325Y-7238174D02*
X7296373Y-7228650D01*
X7296373Y-7228650D02*
X7324944Y-7228650D01*
X7324944Y-7228650D02*
X7343992Y-7238174D01*
X7467801Y-7361984D02*
X7448754Y-7352460D01*
X7448754Y-7352460D02*
X7439230Y-7333412D01*
X7439230Y-7333412D02*
X7439230Y-7161984D01*
X7572563Y-7361984D02*
X7553515Y-7352460D01*
X7553515Y-7352460D02*
X7543992Y-7342936D01*
X7543992Y-7342936D02*
X7534468Y-7323888D01*
X7534468Y-7323888D02*
X7534468Y-7266746D01*
X7534468Y-7266746D02*
X7543992Y-7247698D01*
X7543992Y-7247698D02*
X7553515Y-7238174D01*
X7553515Y-7238174D02*
X7572563Y-7228650D01*
X7572563Y-7228650D02*
X7601135Y-7228650D01*
X7601135Y-7228650D02*
X7620182Y-7238174D01*
X7620182Y-7238174D02*
X7629706Y-7247698D01*
X7629706Y-7247698D02*
X7639230Y-7266746D01*
X7639230Y-7266746D02*
X7639230Y-7323888D01*
X7639230Y-7323888D02*
X7629706Y-7342936D01*
X7629706Y-7342936D02*
X7620182Y-7352460D01*
X7620182Y-7352460D02*
X7601135Y-7361984D01*
X7601135Y-7361984D02*
X7572563Y-7361984D01*
X7696373Y-7228650D02*
X7772563Y-7228650D01*
X7724944Y-7161984D02*
X7724944Y-7333412D01*
X7724944Y-7333412D02*
X7734468Y-7352460D01*
X7734468Y-7352460D02*
X7753515Y-7361984D01*
X7753515Y-7361984D02*
X7772563Y-7361984D01*
X7829706Y-7352460D02*
X7848754Y-7361984D01*
X7848754Y-7361984D02*
X7886849Y-7361984D01*
X7886849Y-7361984D02*
X7905896Y-7352460D01*
X7905896Y-7352460D02*
X7915420Y-7333412D01*
X7915420Y-7333412D02*
X7915420Y-7323888D01*
X7915420Y-7323888D02*
X7905896Y-7304841D01*
X7905896Y-7304841D02*
X7886849Y-7295317D01*
X7886849Y-7295317D02*
X7858277Y-7295317D01*
X7858277Y-7295317D02*
X7839230Y-7285793D01*
X7839230Y-7285793D02*
X7829706Y-7266746D01*
X7829706Y-7266746D02*
X7829706Y-7257222D01*
X7829706Y-7257222D02*
X7839230Y-7238174D01*
X7839230Y-7238174D02*
X7858277Y-7228650D01*
X7858277Y-7228650D02*
X7886849Y-7228650D01*
X7886849Y-7228650D02*
X7905896Y-7238174D01*
X7982087Y-7438174D02*
X7991611Y-7428650D01*
X7991611Y-7428650D02*
X8010658Y-7400079D01*
X8010658Y-7400079D02*
X8020182Y-7381031D01*
X8020182Y-7381031D02*
X8029706Y-7352460D01*
X8029706Y-7352460D02*
X8039230Y-7304841D01*
X8039230Y-7304841D02*
X8039230Y-7266746D01*
X8039230Y-7266746D02*
X8029706Y-7219127D01*
X8029706Y-7219127D02*
X8020182Y-7190555D01*
X8020182Y-7190555D02*
X8010658Y-7171508D01*
X8010658Y-7171508D02*
X7991611Y-7142936D01*
X7991611Y-7142936D02*
X7982087Y-7133412D01*
M02*
