M48
; DRILL file {KiCad 8.0.2} date 2024-05-31T10:43:29+0200
; FORMAT={-:-/ absolute / inch / decimal}
; #@! TF.CreationDate,2024-05-31T10:43:29+02:00
; #@! TF.GenerationSoftware,Kicad,Pcbnew,8.0.2
; #@! TF.FileFunction,Plated,1,2,PTH
FMAT,2
INCH
; #@! TA.AperFunction,Plated,PTH,ViaDrill
T1C0.0118
; #@! TA.AperFunction,Plated,PTH,ComponentDrill
T2C0.0315
; #@! TA.AperFunction,Plated,PTH,ComponentDrill
T3C0.0394
%
G90
G05
T1
X1.4088Y-2.0313
X1.4761Y-0.926
T2
X2.374Y-0.9677
X2.374Y-1.2677
X2.5079Y-0.9677
X2.5079Y-1.2677
T3
X0.7547Y-0.6303
X0.7547Y-1.2303
X0.8547Y-0.6303
X0.8547Y-1.2303
X0.9547Y-0.6303
X0.9547Y-1.2303
X1.0547Y-0.6303
X1.0547Y-1.2303
X1.0984Y-2.185
X1.1547Y-0.6303
X1.1547Y-1.2303
X1.1657Y-1.4626
X1.1657Y-1.9626
X1.1984Y-2.185
X1.2547Y-0.6303
X1.2547Y-1.2303
X1.2657Y-1.4626
X1.2657Y-1.9626
X1.2984Y-2.185
X1.3547Y-0.6303
X1.3547Y-1.2303
X1.3657Y-1.4626
X1.3657Y-1.9626
X1.3984Y-2.185
X1.4547Y-0.6303
X1.4547Y-1.2303
X1.4657Y-1.4626
X1.4657Y-1.9626
X1.4984Y-2.185
X1.5547Y-0.6303
X1.5547Y-1.2303
X1.5657Y-1.4626
X1.5657Y-1.9626
X1.5984Y-2.185
X1.6547Y-0.6303
X1.6547Y-1.2303
X1.6657Y-1.4626
X1.6657Y-1.9626
X1.7547Y-0.6303
X1.7547Y-1.2303
X1.7657Y-1.4626
X1.7657Y-1.9626
X1.8547Y-0.6303
X1.8547Y-1.2303
X1.8657Y-1.4626
X1.8657Y-1.5626
X1.8657Y-1.6626
X1.8657Y-1.9626
X1.9547Y-0.6303
X1.9547Y-1.2303
X2.0547Y-0.6303
X2.0547Y-1.2303
X2.1024Y-2.2736
X2.1339Y-1.4213
X2.1339Y-2.0118
X2.1547Y-0.6303
X2.1547Y-1.2303
X2.2024Y-2.2736
X2.3024Y-2.2736
X2.4024Y-2.2736
X2.4882Y-1.4213
X2.4882Y-2.0118
X2.5024Y-2.2736
X2.6024Y-2.2736
T3
G00X0.8169Y-1.7618
M15
G01X0.8169Y-1.8406
M16
G05
G00X0.8957Y-1.9862
M15
G01X0.9744Y-1.9862
M16
G05
G00X1.0531Y-1.7618
M15
G01X1.0531Y-1.8406
M16
G05
M30
