%TF.GenerationSoftware,KiCad,Pcbnew,8.0.2*%
%TF.CreationDate,2024-05-31T10:43:29+02:00*%
%TF.ProjectId,LTS_Spooler,4c54535f-5370-46f6-9f6c-65722e6b6963,rev?*%
%TF.SameCoordinates,Original*%
%TF.FileFunction,Drillmap*%
%TF.FilePolarity,Positive*%
%FSLAX45Y45*%
G04 Gerber Fmt 4.5, Leading zero omitted, Abs format (unit mm)*
G04 Created by KiCad (PCBNEW 8.0.2) date 2024-05-31 10:43:29*
%MOMM*%
%LPD*%
G01*
G04 APERTURE LIST*
%ADD10C,0.050000*%
%ADD11C,0.200000*%
%ADD12C,0.320000*%
G04 APERTURE END LIST*
D10*
X1400000Y-5900000D02*
X1400000Y-1600000D01*
X6600000Y-1400000D02*
G75*
G02*
X6800000Y-1600000I0J-200000D01*
G01*
X6600000Y-6100000D02*
X1600000Y-6100000D01*
X6800000Y-1600000D02*
X6800000Y-5900000D01*
X1600000Y-1400000D02*
X6600000Y-1400000D01*
X6800000Y-5900000D02*
G75*
G02*
X6600000Y-6100000I-200000J0D01*
G01*
X1400000Y-1600000D02*
G75*
G02*
X1600000Y-1400000I200000J0D01*
G01*
X1600000Y-6100000D02*
G75*
G02*
X1400000Y-5900000I0J200000D01*
G01*
D11*
D12*
X1640000Y-3740000D02*
X1960000Y-4060000D01*
X1960000Y-3740000D02*
X1640000Y-4060000D01*
X4640000Y-5340000D02*
X4960000Y-5660000D01*
X4960000Y-5340000D02*
X4640000Y-5660000D01*
X6040000Y-1440000D02*
X6360000Y-1760000D01*
X6360000Y-1440000D02*
X6040000Y-1760000D01*
D11*
X1658277Y-6413984D02*
X1658277Y-6213984D01*
X1658277Y-6213984D02*
X1705896Y-6213984D01*
X1705896Y-6213984D02*
X1734467Y-6223508D01*
X1734467Y-6223508D02*
X1753515Y-6242555D01*
X1753515Y-6242555D02*
X1763039Y-6261603D01*
X1763039Y-6261603D02*
X1772562Y-6299698D01*
X1772562Y-6299698D02*
X1772562Y-6328269D01*
X1772562Y-6328269D02*
X1763039Y-6366365D01*
X1763039Y-6366365D02*
X1753515Y-6385412D01*
X1753515Y-6385412D02*
X1734467Y-6404460D01*
X1734467Y-6404460D02*
X1705896Y-6413984D01*
X1705896Y-6413984D02*
X1658277Y-6413984D01*
X1858277Y-6413984D02*
X1858277Y-6280650D01*
X1858277Y-6318746D02*
X1867801Y-6299698D01*
X1867801Y-6299698D02*
X1877324Y-6290174D01*
X1877324Y-6290174D02*
X1896372Y-6280650D01*
X1896372Y-6280650D02*
X1915420Y-6280650D01*
X1982086Y-6413984D02*
X1982086Y-6280650D01*
X1982086Y-6213984D02*
X1972562Y-6223508D01*
X1972562Y-6223508D02*
X1982086Y-6233031D01*
X1982086Y-6233031D02*
X1991610Y-6223508D01*
X1991610Y-6223508D02*
X1982086Y-6213984D01*
X1982086Y-6213984D02*
X1982086Y-6233031D01*
X2105896Y-6413984D02*
X2086848Y-6404460D01*
X2086848Y-6404460D02*
X2077324Y-6385412D01*
X2077324Y-6385412D02*
X2077324Y-6213984D01*
X2210658Y-6413984D02*
X2191610Y-6404460D01*
X2191610Y-6404460D02*
X2182086Y-6385412D01*
X2182086Y-6385412D02*
X2182086Y-6213984D01*
X2439229Y-6413984D02*
X2439229Y-6213984D01*
X2439229Y-6213984D02*
X2505896Y-6356841D01*
X2505896Y-6356841D02*
X2572563Y-6213984D01*
X2572563Y-6213984D02*
X2572563Y-6413984D01*
X2753515Y-6413984D02*
X2753515Y-6309222D01*
X2753515Y-6309222D02*
X2743991Y-6290174D01*
X2743991Y-6290174D02*
X2724944Y-6280650D01*
X2724944Y-6280650D02*
X2686848Y-6280650D01*
X2686848Y-6280650D02*
X2667801Y-6290174D01*
X2753515Y-6404460D02*
X2734467Y-6413984D01*
X2734467Y-6413984D02*
X2686848Y-6413984D01*
X2686848Y-6413984D02*
X2667801Y-6404460D01*
X2667801Y-6404460D02*
X2658277Y-6385412D01*
X2658277Y-6385412D02*
X2658277Y-6366365D01*
X2658277Y-6366365D02*
X2667801Y-6347317D01*
X2667801Y-6347317D02*
X2686848Y-6337793D01*
X2686848Y-6337793D02*
X2734467Y-6337793D01*
X2734467Y-6337793D02*
X2753515Y-6328269D01*
X2848753Y-6280650D02*
X2848753Y-6480650D01*
X2848753Y-6290174D02*
X2867801Y-6280650D01*
X2867801Y-6280650D02*
X2905896Y-6280650D01*
X2905896Y-6280650D02*
X2924943Y-6290174D01*
X2924943Y-6290174D02*
X2934467Y-6299698D01*
X2934467Y-6299698D02*
X2943991Y-6318746D01*
X2943991Y-6318746D02*
X2943991Y-6375888D01*
X2943991Y-6375888D02*
X2934467Y-6394936D01*
X2934467Y-6394936D02*
X2924943Y-6404460D01*
X2924943Y-6404460D02*
X2905896Y-6413984D01*
X2905896Y-6413984D02*
X2867801Y-6413984D01*
X2867801Y-6413984D02*
X2848753Y-6404460D01*
X3029705Y-6394936D02*
X3039229Y-6404460D01*
X3039229Y-6404460D02*
X3029705Y-6413984D01*
X3029705Y-6413984D02*
X3020182Y-6404460D01*
X3020182Y-6404460D02*
X3029705Y-6394936D01*
X3029705Y-6394936D02*
X3029705Y-6413984D01*
X3029705Y-6290174D02*
X3039229Y-6299698D01*
X3039229Y-6299698D02*
X3029705Y-6309222D01*
X3029705Y-6309222D02*
X3020182Y-6299698D01*
X3020182Y-6299698D02*
X3029705Y-6290174D01*
X3029705Y-6290174D02*
X3029705Y-6309222D01*
X1197500Y-6642500D02*
X1397500Y-6842500D01*
X1397500Y-6642500D02*
X1197500Y-6842500D01*
X1639229Y-6633984D02*
X1763039Y-6633984D01*
X1763039Y-6633984D02*
X1696372Y-6710174D01*
X1696372Y-6710174D02*
X1724943Y-6710174D01*
X1724943Y-6710174D02*
X1743991Y-6719698D01*
X1743991Y-6719698D02*
X1753515Y-6729222D01*
X1753515Y-6729222D02*
X1763039Y-6748269D01*
X1763039Y-6748269D02*
X1763039Y-6795888D01*
X1763039Y-6795888D02*
X1753515Y-6814936D01*
X1753515Y-6814936D02*
X1743991Y-6824460D01*
X1743991Y-6824460D02*
X1724943Y-6833984D01*
X1724943Y-6833984D02*
X1667801Y-6833984D01*
X1667801Y-6833984D02*
X1648753Y-6824460D01*
X1648753Y-6824460D02*
X1639229Y-6814936D01*
X1848753Y-6814936D02*
X1858277Y-6824460D01*
X1858277Y-6824460D02*
X1848753Y-6833984D01*
X1848753Y-6833984D02*
X1839229Y-6824460D01*
X1839229Y-6824460D02*
X1848753Y-6814936D01*
X1848753Y-6814936D02*
X1848753Y-6833984D01*
X1934467Y-6653031D02*
X1943991Y-6643508D01*
X1943991Y-6643508D02*
X1963039Y-6633984D01*
X1963039Y-6633984D02*
X2010658Y-6633984D01*
X2010658Y-6633984D02*
X2029705Y-6643508D01*
X2029705Y-6643508D02*
X2039229Y-6653031D01*
X2039229Y-6653031D02*
X2048753Y-6672079D01*
X2048753Y-6672079D02*
X2048753Y-6691127D01*
X2048753Y-6691127D02*
X2039229Y-6719698D01*
X2039229Y-6719698D02*
X1924943Y-6833984D01*
X1924943Y-6833984D02*
X2048753Y-6833984D01*
X2172563Y-6633984D02*
X2191610Y-6633984D01*
X2191610Y-6633984D02*
X2210658Y-6643508D01*
X2210658Y-6643508D02*
X2220182Y-6653031D01*
X2220182Y-6653031D02*
X2229705Y-6672079D01*
X2229705Y-6672079D02*
X2239229Y-6710174D01*
X2239229Y-6710174D02*
X2239229Y-6757793D01*
X2239229Y-6757793D02*
X2229705Y-6795888D01*
X2229705Y-6795888D02*
X2220182Y-6814936D01*
X2220182Y-6814936D02*
X2210658Y-6824460D01*
X2210658Y-6824460D02*
X2191610Y-6833984D01*
X2191610Y-6833984D02*
X2172563Y-6833984D01*
X2172563Y-6833984D02*
X2153515Y-6824460D01*
X2153515Y-6824460D02*
X2143991Y-6814936D01*
X2143991Y-6814936D02*
X2134467Y-6795888D01*
X2134467Y-6795888D02*
X2124944Y-6757793D01*
X2124944Y-6757793D02*
X2124944Y-6710174D01*
X2124944Y-6710174D02*
X2134467Y-6672079D01*
X2134467Y-6672079D02*
X2143991Y-6653031D01*
X2143991Y-6653031D02*
X2153515Y-6643508D01*
X2153515Y-6643508D02*
X2172563Y-6633984D01*
X2363039Y-6633984D02*
X2382086Y-6633984D01*
X2382086Y-6633984D02*
X2401134Y-6643508D01*
X2401134Y-6643508D02*
X2410658Y-6653031D01*
X2410658Y-6653031D02*
X2420182Y-6672079D01*
X2420182Y-6672079D02*
X2429705Y-6710174D01*
X2429705Y-6710174D02*
X2429705Y-6757793D01*
X2429705Y-6757793D02*
X2420182Y-6795888D01*
X2420182Y-6795888D02*
X2410658Y-6814936D01*
X2410658Y-6814936D02*
X2401134Y-6824460D01*
X2401134Y-6824460D02*
X2382086Y-6833984D01*
X2382086Y-6833984D02*
X2363039Y-6833984D01*
X2363039Y-6833984D02*
X2343991Y-6824460D01*
X2343991Y-6824460D02*
X2334467Y-6814936D01*
X2334467Y-6814936D02*
X2324944Y-6795888D01*
X2324944Y-6795888D02*
X2315420Y-6757793D01*
X2315420Y-6757793D02*
X2315420Y-6710174D01*
X2315420Y-6710174D02*
X2324944Y-6672079D01*
X2324944Y-6672079D02*
X2334467Y-6653031D01*
X2334467Y-6653031D02*
X2343991Y-6643508D01*
X2343991Y-6643508D02*
X2363039Y-6633984D01*
X2515420Y-6833984D02*
X2515420Y-6700650D01*
X2515420Y-6719698D02*
X2524944Y-6710174D01*
X2524944Y-6710174D02*
X2543991Y-6700650D01*
X2543991Y-6700650D02*
X2572563Y-6700650D01*
X2572563Y-6700650D02*
X2591610Y-6710174D01*
X2591610Y-6710174D02*
X2601134Y-6729222D01*
X2601134Y-6729222D02*
X2601134Y-6833984D01*
X2601134Y-6729222D02*
X2610658Y-6710174D01*
X2610658Y-6710174D02*
X2629705Y-6700650D01*
X2629705Y-6700650D02*
X2658277Y-6700650D01*
X2658277Y-6700650D02*
X2677325Y-6710174D01*
X2677325Y-6710174D02*
X2686848Y-6729222D01*
X2686848Y-6729222D02*
X2686848Y-6833984D01*
X2782086Y-6833984D02*
X2782086Y-6700650D01*
X2782086Y-6719698D02*
X2791610Y-6710174D01*
X2791610Y-6710174D02*
X2810658Y-6700650D01*
X2810658Y-6700650D02*
X2839229Y-6700650D01*
X2839229Y-6700650D02*
X2858277Y-6710174D01*
X2858277Y-6710174D02*
X2867801Y-6729222D01*
X2867801Y-6729222D02*
X2867801Y-6833984D01*
X2867801Y-6729222D02*
X2877324Y-6710174D01*
X2877324Y-6710174D02*
X2896372Y-6700650D01*
X2896372Y-6700650D02*
X2924943Y-6700650D01*
X2924943Y-6700650D02*
X2943991Y-6710174D01*
X2943991Y-6710174D02*
X2953515Y-6729222D01*
X2953515Y-6729222D02*
X2953515Y-6833984D01*
X3343991Y-6624460D02*
X3172563Y-6881603D01*
X3601134Y-6633984D02*
X3620182Y-6633984D01*
X3620182Y-6633984D02*
X3639229Y-6643508D01*
X3639229Y-6643508D02*
X3648753Y-6653031D01*
X3648753Y-6653031D02*
X3658277Y-6672079D01*
X3658277Y-6672079D02*
X3667801Y-6710174D01*
X3667801Y-6710174D02*
X3667801Y-6757793D01*
X3667801Y-6757793D02*
X3658277Y-6795888D01*
X3658277Y-6795888D02*
X3648753Y-6814936D01*
X3648753Y-6814936D02*
X3639229Y-6824460D01*
X3639229Y-6824460D02*
X3620182Y-6833984D01*
X3620182Y-6833984D02*
X3601134Y-6833984D01*
X3601134Y-6833984D02*
X3582086Y-6824460D01*
X3582086Y-6824460D02*
X3572563Y-6814936D01*
X3572563Y-6814936D02*
X3563039Y-6795888D01*
X3563039Y-6795888D02*
X3553515Y-6757793D01*
X3553515Y-6757793D02*
X3553515Y-6710174D01*
X3553515Y-6710174D02*
X3563039Y-6672079D01*
X3563039Y-6672079D02*
X3572563Y-6653031D01*
X3572563Y-6653031D02*
X3582086Y-6643508D01*
X3582086Y-6643508D02*
X3601134Y-6633984D01*
X3753515Y-6814936D02*
X3763039Y-6824460D01*
X3763039Y-6824460D02*
X3753515Y-6833984D01*
X3753515Y-6833984D02*
X3743991Y-6824460D01*
X3743991Y-6824460D02*
X3753515Y-6814936D01*
X3753515Y-6814936D02*
X3753515Y-6833984D01*
X3953515Y-6833984D02*
X3839229Y-6833984D01*
X3896372Y-6833984D02*
X3896372Y-6633984D01*
X3896372Y-6633984D02*
X3877325Y-6662555D01*
X3877325Y-6662555D02*
X3858277Y-6681603D01*
X3858277Y-6681603D02*
X3839229Y-6691127D01*
X4029706Y-6653031D02*
X4039229Y-6643508D01*
X4039229Y-6643508D02*
X4058277Y-6633984D01*
X4058277Y-6633984D02*
X4105896Y-6633984D01*
X4105896Y-6633984D02*
X4124944Y-6643508D01*
X4124944Y-6643508D02*
X4134467Y-6653031D01*
X4134467Y-6653031D02*
X4143991Y-6672079D01*
X4143991Y-6672079D02*
X4143991Y-6691127D01*
X4143991Y-6691127D02*
X4134467Y-6719698D01*
X4134467Y-6719698D02*
X4020182Y-6833984D01*
X4020182Y-6833984D02*
X4143991Y-6833984D01*
X4315420Y-6633984D02*
X4277325Y-6633984D01*
X4277325Y-6633984D02*
X4258277Y-6643508D01*
X4258277Y-6643508D02*
X4248753Y-6653031D01*
X4248753Y-6653031D02*
X4229706Y-6681603D01*
X4229706Y-6681603D02*
X4220182Y-6719698D01*
X4220182Y-6719698D02*
X4220182Y-6795888D01*
X4220182Y-6795888D02*
X4229706Y-6814936D01*
X4229706Y-6814936D02*
X4239229Y-6824460D01*
X4239229Y-6824460D02*
X4258277Y-6833984D01*
X4258277Y-6833984D02*
X4296372Y-6833984D01*
X4296372Y-6833984D02*
X4315420Y-6824460D01*
X4315420Y-6824460D02*
X4324944Y-6814936D01*
X4324944Y-6814936D02*
X4334468Y-6795888D01*
X4334468Y-6795888D02*
X4334468Y-6748269D01*
X4334468Y-6748269D02*
X4324944Y-6729222D01*
X4324944Y-6729222D02*
X4315420Y-6719698D01*
X4315420Y-6719698D02*
X4296372Y-6710174D01*
X4296372Y-6710174D02*
X4258277Y-6710174D01*
X4258277Y-6710174D02*
X4239229Y-6719698D01*
X4239229Y-6719698D02*
X4229706Y-6729222D01*
X4229706Y-6729222D02*
X4220182Y-6748269D01*
X4458277Y-6633984D02*
X4477325Y-6633984D01*
X4477325Y-6633984D02*
X4496372Y-6643508D01*
X4496372Y-6643508D02*
X4505896Y-6653031D01*
X4505896Y-6653031D02*
X4515420Y-6672079D01*
X4515420Y-6672079D02*
X4524944Y-6710174D01*
X4524944Y-6710174D02*
X4524944Y-6757793D01*
X4524944Y-6757793D02*
X4515420Y-6795888D01*
X4515420Y-6795888D02*
X4505896Y-6814936D01*
X4505896Y-6814936D02*
X4496372Y-6824460D01*
X4496372Y-6824460D02*
X4477325Y-6833984D01*
X4477325Y-6833984D02*
X4458277Y-6833984D01*
X4458277Y-6833984D02*
X4439229Y-6824460D01*
X4439229Y-6824460D02*
X4429706Y-6814936D01*
X4429706Y-6814936D02*
X4420182Y-6795888D01*
X4420182Y-6795888D02*
X4410658Y-6757793D01*
X4410658Y-6757793D02*
X4410658Y-6710174D01*
X4410658Y-6710174D02*
X4420182Y-6672079D01*
X4420182Y-6672079D02*
X4429706Y-6653031D01*
X4429706Y-6653031D02*
X4439229Y-6643508D01*
X4439229Y-6643508D02*
X4458277Y-6633984D01*
X4601134Y-6633984D02*
X4601134Y-6672079D01*
X4677325Y-6633984D02*
X4677325Y-6672079D01*
X4972563Y-6910174D02*
X4963039Y-6900650D01*
X4963039Y-6900650D02*
X4943991Y-6872079D01*
X4943991Y-6872079D02*
X4934468Y-6853031D01*
X4934468Y-6853031D02*
X4924944Y-6824460D01*
X4924944Y-6824460D02*
X4915420Y-6776841D01*
X4915420Y-6776841D02*
X4915420Y-6738746D01*
X4915420Y-6738746D02*
X4924944Y-6691127D01*
X4924944Y-6691127D02*
X4934468Y-6662555D01*
X4934468Y-6662555D02*
X4943991Y-6643508D01*
X4943991Y-6643508D02*
X4963039Y-6614936D01*
X4963039Y-6614936D02*
X4972563Y-6605412D01*
X5029706Y-6633984D02*
X5153515Y-6633984D01*
X5153515Y-6633984D02*
X5086849Y-6710174D01*
X5086849Y-6710174D02*
X5115420Y-6710174D01*
X5115420Y-6710174D02*
X5134468Y-6719698D01*
X5134468Y-6719698D02*
X5143991Y-6729222D01*
X5143991Y-6729222D02*
X5153515Y-6748269D01*
X5153515Y-6748269D02*
X5153515Y-6795888D01*
X5153515Y-6795888D02*
X5143991Y-6814936D01*
X5143991Y-6814936D02*
X5134468Y-6824460D01*
X5134468Y-6824460D02*
X5115420Y-6833984D01*
X5115420Y-6833984D02*
X5058277Y-6833984D01*
X5058277Y-6833984D02*
X5039230Y-6824460D01*
X5039230Y-6824460D02*
X5029706Y-6814936D01*
X5391611Y-6833984D02*
X5391611Y-6633984D01*
X5477325Y-6833984D02*
X5477325Y-6729222D01*
X5477325Y-6729222D02*
X5467801Y-6710174D01*
X5467801Y-6710174D02*
X5448753Y-6700650D01*
X5448753Y-6700650D02*
X5420182Y-6700650D01*
X5420182Y-6700650D02*
X5401134Y-6710174D01*
X5401134Y-6710174D02*
X5391611Y-6719698D01*
X5601134Y-6833984D02*
X5582087Y-6824460D01*
X5582087Y-6824460D02*
X5572563Y-6814936D01*
X5572563Y-6814936D02*
X5563039Y-6795888D01*
X5563039Y-6795888D02*
X5563039Y-6738746D01*
X5563039Y-6738746D02*
X5572563Y-6719698D01*
X5572563Y-6719698D02*
X5582087Y-6710174D01*
X5582087Y-6710174D02*
X5601134Y-6700650D01*
X5601134Y-6700650D02*
X5629706Y-6700650D01*
X5629706Y-6700650D02*
X5648753Y-6710174D01*
X5648753Y-6710174D02*
X5658277Y-6719698D01*
X5658277Y-6719698D02*
X5667801Y-6738746D01*
X5667801Y-6738746D02*
X5667801Y-6795888D01*
X5667801Y-6795888D02*
X5658277Y-6814936D01*
X5658277Y-6814936D02*
X5648753Y-6824460D01*
X5648753Y-6824460D02*
X5629706Y-6833984D01*
X5629706Y-6833984D02*
X5601134Y-6833984D01*
X5782087Y-6833984D02*
X5763039Y-6824460D01*
X5763039Y-6824460D02*
X5753515Y-6805412D01*
X5753515Y-6805412D02*
X5753515Y-6633984D01*
X5934468Y-6824460D02*
X5915420Y-6833984D01*
X5915420Y-6833984D02*
X5877325Y-6833984D01*
X5877325Y-6833984D02*
X5858277Y-6824460D01*
X5858277Y-6824460D02*
X5848753Y-6805412D01*
X5848753Y-6805412D02*
X5848753Y-6729222D01*
X5848753Y-6729222D02*
X5858277Y-6710174D01*
X5858277Y-6710174D02*
X5877325Y-6700650D01*
X5877325Y-6700650D02*
X5915420Y-6700650D01*
X5915420Y-6700650D02*
X5934468Y-6710174D01*
X5934468Y-6710174D02*
X5943991Y-6729222D01*
X5943991Y-6729222D02*
X5943991Y-6748269D01*
X5943991Y-6748269D02*
X5848753Y-6767317D01*
X6020182Y-6824460D02*
X6039230Y-6833984D01*
X6039230Y-6833984D02*
X6077325Y-6833984D01*
X6077325Y-6833984D02*
X6096372Y-6824460D01*
X6096372Y-6824460D02*
X6105896Y-6805412D01*
X6105896Y-6805412D02*
X6105896Y-6795888D01*
X6105896Y-6795888D02*
X6096372Y-6776841D01*
X6096372Y-6776841D02*
X6077325Y-6767317D01*
X6077325Y-6767317D02*
X6048753Y-6767317D01*
X6048753Y-6767317D02*
X6029706Y-6757793D01*
X6029706Y-6757793D02*
X6020182Y-6738746D01*
X6020182Y-6738746D02*
X6020182Y-6729222D01*
X6020182Y-6729222D02*
X6029706Y-6710174D01*
X6029706Y-6710174D02*
X6048753Y-6700650D01*
X6048753Y-6700650D02*
X6077325Y-6700650D01*
X6077325Y-6700650D02*
X6096372Y-6710174D01*
X6172563Y-6910174D02*
X6182087Y-6900650D01*
X6182087Y-6900650D02*
X6201134Y-6872079D01*
X6201134Y-6872079D02*
X6210658Y-6853031D01*
X6210658Y-6853031D02*
X6220182Y-6824460D01*
X6220182Y-6824460D02*
X6229706Y-6776841D01*
X6229706Y-6776841D02*
X6229706Y-6738746D01*
X6229706Y-6738746D02*
X6220182Y-6691127D01*
X6220182Y-6691127D02*
X6210658Y-6662555D01*
X6210658Y-6662555D02*
X6201134Y-6643508D01*
X6201134Y-6643508D02*
X6182087Y-6614936D01*
X6182087Y-6614936D02*
X6172563Y-6605412D01*
X6534468Y-6910174D02*
X6524944Y-6900650D01*
X6524944Y-6900650D02*
X6505896Y-6872079D01*
X6505896Y-6872079D02*
X6496372Y-6853031D01*
X6496372Y-6853031D02*
X6486849Y-6824460D01*
X6486849Y-6824460D02*
X6477325Y-6776841D01*
X6477325Y-6776841D02*
X6477325Y-6738746D01*
X6477325Y-6738746D02*
X6486849Y-6691127D01*
X6486849Y-6691127D02*
X6496372Y-6662555D01*
X6496372Y-6662555D02*
X6505896Y-6643508D01*
X6505896Y-6643508D02*
X6524944Y-6614936D01*
X6524944Y-6614936D02*
X6534468Y-6605412D01*
X6610658Y-6700650D02*
X6610658Y-6833984D01*
X6610658Y-6719698D02*
X6620182Y-6710174D01*
X6620182Y-6710174D02*
X6639230Y-6700650D01*
X6639230Y-6700650D02*
X6667801Y-6700650D01*
X6667801Y-6700650D02*
X6686849Y-6710174D01*
X6686849Y-6710174D02*
X6696372Y-6729222D01*
X6696372Y-6729222D02*
X6696372Y-6833984D01*
X6820182Y-6833984D02*
X6801134Y-6824460D01*
X6801134Y-6824460D02*
X6791611Y-6814936D01*
X6791611Y-6814936D02*
X6782087Y-6795888D01*
X6782087Y-6795888D02*
X6782087Y-6738746D01*
X6782087Y-6738746D02*
X6791611Y-6719698D01*
X6791611Y-6719698D02*
X6801134Y-6710174D01*
X6801134Y-6710174D02*
X6820182Y-6700650D01*
X6820182Y-6700650D02*
X6848753Y-6700650D01*
X6848753Y-6700650D02*
X6867801Y-6710174D01*
X6867801Y-6710174D02*
X6877325Y-6719698D01*
X6877325Y-6719698D02*
X6886849Y-6738746D01*
X6886849Y-6738746D02*
X6886849Y-6795888D01*
X6886849Y-6795888D02*
X6877325Y-6814936D01*
X6877325Y-6814936D02*
X6867801Y-6824460D01*
X6867801Y-6824460D02*
X6848753Y-6833984D01*
X6848753Y-6833984D02*
X6820182Y-6833984D01*
X6943992Y-6700650D02*
X7020182Y-6700650D01*
X6972563Y-6633984D02*
X6972563Y-6805412D01*
X6972563Y-6805412D02*
X6982087Y-6824460D01*
X6982087Y-6824460D02*
X7001134Y-6833984D01*
X7001134Y-6833984D02*
X7020182Y-6833984D01*
X7239230Y-6700650D02*
X7239230Y-6900650D01*
X7239230Y-6710174D02*
X7258277Y-6700650D01*
X7258277Y-6700650D02*
X7296373Y-6700650D01*
X7296373Y-6700650D02*
X7315420Y-6710174D01*
X7315420Y-6710174D02*
X7324944Y-6719698D01*
X7324944Y-6719698D02*
X7334468Y-6738746D01*
X7334468Y-6738746D02*
X7334468Y-6795888D01*
X7334468Y-6795888D02*
X7324944Y-6814936D01*
X7324944Y-6814936D02*
X7315420Y-6824460D01*
X7315420Y-6824460D02*
X7296373Y-6833984D01*
X7296373Y-6833984D02*
X7258277Y-6833984D01*
X7258277Y-6833984D02*
X7239230Y-6824460D01*
X7448753Y-6833984D02*
X7429706Y-6824460D01*
X7429706Y-6824460D02*
X7420182Y-6805412D01*
X7420182Y-6805412D02*
X7420182Y-6633984D01*
X7610658Y-6833984D02*
X7610658Y-6729222D01*
X7610658Y-6729222D02*
X7601134Y-6710174D01*
X7601134Y-6710174D02*
X7582087Y-6700650D01*
X7582087Y-6700650D02*
X7543992Y-6700650D01*
X7543992Y-6700650D02*
X7524944Y-6710174D01*
X7610658Y-6824460D02*
X7591611Y-6833984D01*
X7591611Y-6833984D02*
X7543992Y-6833984D01*
X7543992Y-6833984D02*
X7524944Y-6824460D01*
X7524944Y-6824460D02*
X7515420Y-6805412D01*
X7515420Y-6805412D02*
X7515420Y-6786365D01*
X7515420Y-6786365D02*
X7524944Y-6767317D01*
X7524944Y-6767317D02*
X7543992Y-6757793D01*
X7543992Y-6757793D02*
X7591611Y-6757793D01*
X7591611Y-6757793D02*
X7610658Y-6748269D01*
X7677325Y-6700650D02*
X7753515Y-6700650D01*
X7705896Y-6633984D02*
X7705896Y-6805412D01*
X7705896Y-6805412D02*
X7715420Y-6824460D01*
X7715420Y-6824460D02*
X7734468Y-6833984D01*
X7734468Y-6833984D02*
X7753515Y-6833984D01*
X7896373Y-6824460D02*
X7877325Y-6833984D01*
X7877325Y-6833984D02*
X7839230Y-6833984D01*
X7839230Y-6833984D02*
X7820182Y-6824460D01*
X7820182Y-6824460D02*
X7810658Y-6805412D01*
X7810658Y-6805412D02*
X7810658Y-6729222D01*
X7810658Y-6729222D02*
X7820182Y-6710174D01*
X7820182Y-6710174D02*
X7839230Y-6700650D01*
X7839230Y-6700650D02*
X7877325Y-6700650D01*
X7877325Y-6700650D02*
X7896373Y-6710174D01*
X7896373Y-6710174D02*
X7905896Y-6729222D01*
X7905896Y-6729222D02*
X7905896Y-6748269D01*
X7905896Y-6748269D02*
X7810658Y-6767317D01*
X8077325Y-6833984D02*
X8077325Y-6633984D01*
X8077325Y-6824460D02*
X8058277Y-6833984D01*
X8058277Y-6833984D02*
X8020182Y-6833984D01*
X8020182Y-6833984D02*
X8001134Y-6824460D01*
X8001134Y-6824460D02*
X7991611Y-6814936D01*
X7991611Y-6814936D02*
X7982087Y-6795888D01*
X7982087Y-6795888D02*
X7982087Y-6738746D01*
X7982087Y-6738746D02*
X7991611Y-6719698D01*
X7991611Y-6719698D02*
X8001134Y-6710174D01*
X8001134Y-6710174D02*
X8020182Y-6700650D01*
X8020182Y-6700650D02*
X8058277Y-6700650D01*
X8058277Y-6700650D02*
X8077325Y-6710174D01*
X8153515Y-6910174D02*
X8163039Y-6900650D01*
X8163039Y-6900650D02*
X8182087Y-6872079D01*
X8182087Y-6872079D02*
X8191611Y-6853031D01*
X8191611Y-6853031D02*
X8201134Y-6824460D01*
X8201134Y-6824460D02*
X8210658Y-6776841D01*
X8210658Y-6776841D02*
X8210658Y-6738746D01*
X8210658Y-6738746D02*
X8201134Y-6691127D01*
X8201134Y-6691127D02*
X8191611Y-6662555D01*
X8191611Y-6662555D02*
X8182087Y-6643508D01*
X8182087Y-6643508D02*
X8163039Y-6614936D01*
X8163039Y-6614936D02*
X8153515Y-6605412D01*
M02*
