%TF.GenerationSoftware,KiCad,Pcbnew,8.0.2*%
%TF.CreationDate,2024-05-31T10:43:30+02:00*%
%TF.ProjectId,LTS_Spooler,4c54535f-5370-46f6-9f6c-65722e6b6963,rev?*%
%TF.SameCoordinates,Original*%
%TF.FileFunction,Copper,L2,Bot*%
%TF.FilePolarity,Positive*%
%FSLAX46Y46*%
G04 Gerber Fmt 4.6, Leading zero omitted, Abs format (unit mm)*
G04 Created by KiCad (PCBNEW 8.0.2) date 2024-05-31 10:43:30*
%MOMM*%
%LPD*%
G01*
G04 APERTURE LIST*
G04 Aperture macros list*
%AMRoundRect*
0 Rectangle with rounded corners*
0 $1 Rounding radius*
0 $2 $3 $4 $5 $6 $7 $8 $9 X,Y pos of 4 corners*
0 Add a 4 corners polygon primitive as box body*
4,1,4,$2,$3,$4,$5,$6,$7,$8,$9,$2,$3,0*
0 Add four circle primitives for the rounded corners*
1,1,$1+$1,$2,$3*
1,1,$1+$1,$4,$5*
1,1,$1+$1,$6,$7*
1,1,$1+$1,$8,$9*
0 Add four rect primitives between the rounded corners*
20,1,$1+$1,$2,$3,$4,$5,0*
20,1,$1+$1,$4,$5,$6,$7,0*
20,1,$1+$1,$6,$7,$8,$9,0*
20,1,$1+$1,$8,$9,$2,$3,0*%
G04 Aperture macros list end*
%TA.AperFunction,ComponentPad*%
%ADD10R,3.500000X3.500000*%
%TD*%
%TA.AperFunction,ComponentPad*%
%ADD11RoundRect,0.750000X-0.750000X-1.000000X0.750000X-1.000000X0.750000X1.000000X-0.750000X1.000000X0*%
%TD*%
%TA.AperFunction,ComponentPad*%
%ADD12RoundRect,0.875000X-0.875000X-0.875000X0.875000X-0.875000X0.875000X0.875000X-0.875000X0.875000X0*%
%TD*%
%TA.AperFunction,ComponentPad*%
%ADD13R,1.700000X1.700000*%
%TD*%
%TA.AperFunction,ComponentPad*%
%ADD14R,1.508000X1.508000*%
%TD*%
%TA.AperFunction,ComponentPad*%
%ADD15C,1.508000*%
%TD*%
%TA.AperFunction,ComponentPad*%
%ADD16O,1.700000X1.700000*%
%TD*%
%TA.AperFunction,ComponentPad*%
%ADD17C,1.600000*%
%TD*%
%TA.AperFunction,ComponentPad*%
%ADD18O,1.600000X1.600000*%
%TD*%
%TA.AperFunction,ComponentPad*%
%ADD19R,1.600000X1.600000*%
%TD*%
%TA.AperFunction,ViaPad*%
%ADD20C,0.600000*%
%TD*%
%TA.AperFunction,Conductor*%
%ADD21C,0.500000*%
%TD*%
G04 APERTURE END LIST*
D10*
%TO.P,J10,1,Pin_1*%
%TO.N,+12V*%
X26750000Y-45750000D03*
D11*
%TO.P,J10,2,Pin_2*%
%TO.N,GND*%
X20750000Y-45750000D03*
D12*
%TO.P,J10,3*%
%TO.N,N/C*%
X23750000Y-50450000D03*
%TD*%
D13*
%TO.P,J7,1,Pin_1*%
%TO.N,GND*%
X63200000Y-51100000D03*
%TD*%
%TO.P,J6,1,Pin_1*%
%TO.N,/VIN*%
X54200000Y-51100000D03*
%TD*%
%TO.P,J4,1,Pin_1*%
%TO.N,+12V*%
X54200000Y-36100000D03*
%TD*%
%TO.P,J5,1,Pin_1*%
%TO.N,GND*%
X63200000Y-36100000D03*
%TD*%
D14*
%TO.P,U1,1,GND*%
%TO.N,GND*%
X29610000Y-49850000D03*
D15*
%TO.P,U1,2,VIO*%
%TO.N,/3V3*%
X32150000Y-49850000D03*
%TO.P,U1,3,M1B*%
%TO.N,/MotorD*%
X34690000Y-49850000D03*
%TO.P,U1,4,M1A*%
%TO.N,/MotorB*%
X37230000Y-49850000D03*
%TO.P,U1,5,M2A*%
%TO.N,/MotorC*%
X39770000Y-49850000D03*
%TO.P,U1,6,M2B*%
%TO.N,/MotorA*%
X42310000Y-49850000D03*
%TO.P,U1,7,GND*%
%TO.N,GND*%
X44850000Y-49850000D03*
%TO.P,U1,8,VM*%
%TO.N,/VIN*%
X47390000Y-49850000D03*
%TO.P,U1,9,DIR*%
%TO.N,/Direction*%
X29610000Y-37150000D03*
%TO.P,U1,10,STEP*%
%TO.N,/Step*%
X32150000Y-37150000D03*
%TO.P,U1,11,PDN*%
%TO.N,unconnected-(U1-PDN-Pad11)*%
X34690000Y-37150000D03*
%TO.P,U1,12,UART*%
%TO.N,unconnected-(U1-UART-Pad12)*%
X37230000Y-37150000D03*
%TO.P,U1,13,SPRD*%
%TO.N,unconnected-(U1-SPRD-Pad13)*%
X39770000Y-37150000D03*
%TO.P,U1,14,MS2*%
%TO.N,unconnected-(U1-MS2-Pad14)*%
X42310000Y-37150000D03*
%TO.P,U1,15,MS1*%
%TO.N,unconnected-(U1-MS1-Pad15)*%
X44850000Y-37150000D03*
%TO.P,U1,16,~{EN}*%
%TO.N,/Enable*%
X47390000Y-37150000D03*
%TO.P,U1,17,INDEX*%
%TO.N,unconnected-(U1-INDEX-Pad17)*%
X47390000Y-42230000D03*
%TO.P,U1,18,DIAG*%
%TO.N,unconnected-(U1-DIAG-Pad18)*%
X47390000Y-39690000D03*
%TD*%
D13*
%TO.P,J11,1,Pin_1*%
%TO.N,/MotorA*%
X53400000Y-57750000D03*
D16*
%TO.P,J11,2,Pin_2*%
%TO.N,/MotorC*%
X55940000Y-57750000D03*
%TO.P,J11,3,Pin_3*%
%TO.N,/MotorB*%
X58480000Y-57750000D03*
%TO.P,J11,4,Pin_4*%
%TO.N,/MotorD*%
X61020000Y-57750000D03*
%TO.P,J11,5,Pin_5*%
%TO.N,/FilamentSensor*%
X63560000Y-57750000D03*
%TO.P,J11,6,Pin_6*%
%TO.N,GND*%
X66100000Y-57750000D03*
%TD*%
D13*
%TO.P,J12,1,Pin_1*%
%TO.N,/LED1*%
X27900000Y-55500000D03*
D16*
%TO.P,J12,2,Pin_2*%
%TO.N,Net-(J12-Pin_2)*%
X30440000Y-55500000D03*
%TO.P,J12,3,Pin_3*%
%TO.N,/BTN*%
X32980000Y-55500000D03*
%TO.P,J12,4,Pin_4*%
%TO.N,GND*%
X35520000Y-55500000D03*
%TO.P,J12,5,Pin_5*%
%TO.N,/LED2*%
X38060000Y-55500000D03*
%TO.P,J12,6,Pin_6*%
%TO.N,Net-(J12-Pin_6)*%
X40600000Y-55500000D03*
%TD*%
D17*
%TO.P,R2,1*%
%TO.N,Net-(J12-Pin_6)*%
X63700000Y-32200000D03*
D18*
%TO.P,R2,2*%
%TO.N,GND*%
X63700000Y-24580000D03*
%TD*%
D17*
%TO.P,R1,1*%
%TO.N,Net-(J12-Pin_2)*%
X60300000Y-32200000D03*
D18*
%TO.P,R1,2*%
%TO.N,GND*%
X60300000Y-24580000D03*
%TD*%
D19*
%TO.P,A1,1,D1/TX*%
%TO.N,unconnected-(A1-D1{slash}TX-Pad1)*%
X54730000Y-16010000D03*
D18*
%TO.P,A1,2,D0/RX*%
%TO.N,unconnected-(A1-D0{slash}RX-Pad2)*%
X52190000Y-16010000D03*
%TO.P,A1,3,~{RESET}*%
%TO.N,unconnected-(A1-~{RESET}-Pad3)*%
X49650000Y-16010000D03*
%TO.P,A1,4,GND*%
%TO.N,GND*%
X47110000Y-16010000D03*
%TO.P,A1,5,D2*%
%TO.N,/Direction*%
X44570000Y-16010000D03*
%TO.P,A1,6,D3*%
%TO.N,/Step*%
X42030000Y-16010000D03*
%TO.P,A1,7,D4*%
%TO.N,/Enable*%
X39490000Y-16010000D03*
%TO.P,A1,8,D5*%
%TO.N,unconnected-(A1-D5-Pad8)*%
X36950000Y-16010000D03*
%TO.P,A1,9,D6*%
%TO.N,unconnected-(A1-D6-Pad9)*%
X34410000Y-16010000D03*
%TO.P,A1,10,D7*%
%TO.N,/FilamentSensor*%
X31870000Y-16010000D03*
%TO.P,A1,11,D8*%
%TO.N,/BTN*%
X29330000Y-16010000D03*
%TO.P,A1,12,D9*%
%TO.N,/LED1*%
X26790000Y-16010000D03*
%TO.P,A1,13,D10*%
%TO.N,/LED2*%
X24250000Y-16010000D03*
%TO.P,A1,14,D11*%
%TO.N,unconnected-(A1-D11-Pad14)*%
X21710000Y-16010000D03*
%TO.P,A1,15,D12*%
%TO.N,unconnected-(A1-D12-Pad15)*%
X19170000Y-16010000D03*
%TO.P,A1,16,D13*%
%TO.N,unconnected-(A1-D13-Pad16)*%
X19170000Y-31250000D03*
%TO.P,A1,17,3V3*%
%TO.N,/3V3*%
X21710000Y-31250000D03*
%TO.P,A1,18,AREF*%
%TO.N,unconnected-(A1-AREF-Pad18)*%
X24250000Y-31250000D03*
%TO.P,A1,19,A0*%
%TO.N,unconnected-(A1-A0-Pad19)*%
X26790000Y-31250000D03*
%TO.P,A1,20,A1*%
%TO.N,unconnected-(A1-A1-Pad20)*%
X29330000Y-31250000D03*
%TO.P,A1,21,A2*%
%TO.N,unconnected-(A1-A2-Pad21)*%
X31870000Y-31250000D03*
%TO.P,A1,22,A3*%
%TO.N,unconnected-(A1-A3-Pad22)*%
X34410000Y-31250000D03*
%TO.P,A1,23,A4*%
%TO.N,unconnected-(A1-A4-Pad23)*%
X36950000Y-31250000D03*
%TO.P,A1,24,A5*%
%TO.N,unconnected-(A1-A5-Pad24)*%
X39490000Y-31250000D03*
%TO.P,A1,25,A6*%
%TO.N,unconnected-(A1-A6-Pad25)*%
X42030000Y-31250000D03*
%TO.P,A1,26,A7*%
%TO.N,unconnected-(A1-A7-Pad26)*%
X44570000Y-31250000D03*
%TO.P,A1,27,+5V*%
%TO.N,unconnected-(A1-+5V-Pad27)*%
X47110000Y-31250000D03*
%TO.P,A1,28,~{RESET}*%
%TO.N,unconnected-(A1-~{RESET}-Pad28)*%
X49650000Y-31250000D03*
%TO.P,A1,29,GND*%
%TO.N,unconnected-(A1-GND-Pad29)*%
X52190000Y-31250000D03*
%TO.P,A1,30,VIN*%
%TO.N,/VIN*%
X54730000Y-31250000D03*
%TD*%
D20*
%TO.N,/MotorD*%
X35783200Y-51594700D03*
%TO.N,/LED2*%
X37492200Y-23520500D03*
%TD*%
D21*
%TO.N,/VIN*%
X52900000Y-33080000D02*
X54730000Y-31250000D01*
X52900000Y-44340000D02*
X52900000Y-33080000D01*
X47390000Y-49850000D02*
X52900000Y-44340000D01*
%TO.N,/FilamentSensor*%
X64950000Y-56360000D02*
X63560000Y-57750000D01*
X64950000Y-31450000D02*
X64950000Y-56360000D01*
X63500000Y-30000000D02*
X64950000Y-31450000D01*
X53750001Y-30000000D02*
X63500000Y-30000000D01*
X40740000Y-16989999D02*
X53750001Y-30000000D01*
X40740000Y-15492233D02*
X40740000Y-16989999D01*
X40007767Y-14760000D02*
X40740000Y-15492233D01*
X33120000Y-14760000D02*
X40007767Y-14760000D01*
X31870000Y-16010000D02*
X33120000Y-14760000D01*
%TO.N,Net-(J12-Pin_6)*%
X53601500Y-42298500D02*
X63700000Y-32200000D01*
X53601500Y-45361000D02*
X53601500Y-42298500D01*
X43462500Y-55500000D02*
X53601500Y-45361000D01*
X40600000Y-55500000D02*
X43462500Y-55500000D01*
%TO.N,/MotorD*%
X34690000Y-50501500D02*
X35783200Y-51594700D01*
X34690000Y-49850000D02*
X34690000Y-50501500D01*
%TO.N,/3V3*%
X21710000Y-31250000D02*
X21710000Y-32550000D01*
X32150000Y-42990000D02*
X32150000Y-49850000D01*
X21710000Y-32550000D02*
X32150000Y-42990000D01*
%TO.N,/LED2*%
X38220000Y-24248300D02*
X37492200Y-23520500D01*
X38220000Y-34442700D02*
X38220000Y-24248300D01*
X38463500Y-34686200D02*
X38220000Y-34442700D01*
X38463500Y-53746500D02*
X38463500Y-34686200D01*
X38060000Y-54150000D02*
X38463500Y-53746500D01*
X38060000Y-55500000D02*
X38060000Y-54150000D01*
%TO.N,/Enable*%
X45839900Y-35599900D02*
X47390000Y-37150000D01*
X45839900Y-23659900D02*
X45839900Y-35599900D01*
X39490000Y-17310000D02*
X45839900Y-23659900D01*
X39490000Y-16010000D02*
X39490000Y-17310000D01*
%TO.N,/BTN*%
X30600100Y-18580100D02*
X29330000Y-17310000D01*
X30600100Y-34865800D02*
X30600100Y-18580100D01*
X30880000Y-35145700D02*
X30600100Y-34865800D01*
X30880000Y-38707900D02*
X30880000Y-35145700D01*
X33365000Y-41192900D02*
X30880000Y-38707900D01*
X33365000Y-53765000D02*
X33365000Y-41192900D01*
X32980000Y-54150000D02*
X33365000Y-53765000D01*
X32980000Y-55500000D02*
X32980000Y-54150000D01*
X29330000Y-16010000D02*
X29330000Y-17310000D01*
%TO.N,/LED1*%
X27900000Y-50906500D02*
X27900000Y-55500000D01*
X24983500Y-47990000D02*
X27900000Y-50906500D01*
X24839300Y-47990000D02*
X24983500Y-47990000D01*
X23378800Y-46529500D02*
X24839300Y-47990000D01*
X23378800Y-37926100D02*
X23378800Y-46529500D01*
X17868600Y-32415900D02*
X23378800Y-37926100D01*
X17868600Y-26231400D02*
X17868600Y-32415900D01*
X26790000Y-17310000D02*
X17868600Y-26231400D01*
X26790000Y-16010000D02*
X26790000Y-17310000D01*
%TD*%
%TA.AperFunction,Conductor*%
%TO.N,GND*%
G36*
X18447283Y-14719685D02*
G01*
X18493038Y-14772489D01*
X18502982Y-14841647D01*
X18473957Y-14905203D01*
X18451369Y-14925573D01*
X18416794Y-14949782D01*
X18330858Y-15009954D01*
X18169954Y-15170858D01*
X18039432Y-15357265D01*
X18039431Y-15357267D01*
X17943261Y-15563502D01*
X17943258Y-15563511D01*
X17884366Y-15783302D01*
X17884364Y-15783313D01*
X17864532Y-16009998D01*
X17864532Y-16010001D01*
X17884364Y-16236686D01*
X17884366Y-16236697D01*
X17943258Y-16456488D01*
X17943261Y-16456497D01*
X18039431Y-16662732D01*
X18039432Y-16662734D01*
X18169954Y-16849141D01*
X18330858Y-17010045D01*
X18366621Y-17035086D01*
X18517266Y-17140568D01*
X18723504Y-17236739D01*
X18943308Y-17295635D01*
X19080949Y-17307677D01*
X19169998Y-17315468D01*
X19170000Y-17315468D01*
X19170002Y-17315468D01*
X19226807Y-17310498D01*
X19396692Y-17295635D01*
X19616496Y-17236739D01*
X19822734Y-17140568D01*
X20009139Y-17010047D01*
X20170047Y-16849139D01*
X20300568Y-16662734D01*
X20327618Y-16604724D01*
X20373790Y-16552285D01*
X20440983Y-16533133D01*
X20507865Y-16553348D01*
X20552382Y-16604725D01*
X20579429Y-16662728D01*
X20579432Y-16662734D01*
X20709954Y-16849141D01*
X20870858Y-17010045D01*
X20906621Y-17035086D01*
X21057266Y-17140568D01*
X21263504Y-17236739D01*
X21483308Y-17295635D01*
X21620949Y-17307677D01*
X21709998Y-17315468D01*
X21710000Y-17315468D01*
X21710002Y-17315468D01*
X21766807Y-17310498D01*
X21936692Y-17295635D01*
X22156496Y-17236739D01*
X22362734Y-17140568D01*
X22549139Y-17010047D01*
X22710047Y-16849139D01*
X22840568Y-16662734D01*
X22867618Y-16604724D01*
X22913790Y-16552285D01*
X22980983Y-16533133D01*
X23047865Y-16553348D01*
X23092382Y-16604725D01*
X23119429Y-16662728D01*
X23119432Y-16662734D01*
X23249954Y-16849141D01*
X23410858Y-17010045D01*
X23446621Y-17035086D01*
X23597266Y-17140568D01*
X23803504Y-17236739D01*
X24023308Y-17295635D01*
X24160949Y-17307677D01*
X24249998Y-17315468D01*
X24250000Y-17315468D01*
X24250002Y-17315468D01*
X24306807Y-17310498D01*
X24476692Y-17295635D01*
X24696496Y-17236739D01*
X24902734Y-17140568D01*
X25089139Y-17010047D01*
X25250047Y-16849139D01*
X25380568Y-16662734D01*
X25407618Y-16604724D01*
X25453790Y-16552285D01*
X25520983Y-16533133D01*
X25587865Y-16553348D01*
X25632382Y-16604725D01*
X25659429Y-16662728D01*
X25659432Y-16662734D01*
X25789954Y-16849141D01*
X25902041Y-16961228D01*
X25935526Y-17022551D01*
X25930542Y-17092243D01*
X25902041Y-17136590D01*
X17285650Y-25752980D01*
X17285644Y-25752988D01*
X17236412Y-25826668D01*
X17236413Y-25826669D01*
X17203521Y-25875896D01*
X17203514Y-25875908D01*
X17146942Y-26012486D01*
X17146940Y-26012492D01*
X17118100Y-26157479D01*
X17118100Y-26157482D01*
X17118100Y-32489818D01*
X17118100Y-32489820D01*
X17118099Y-32489820D01*
X17146940Y-32634807D01*
X17146943Y-32634817D01*
X17203514Y-32771392D01*
X17236412Y-32820627D01*
X17236413Y-32820630D01*
X17285646Y-32894314D01*
X17285652Y-32894321D01*
X22591981Y-38200648D01*
X22625466Y-38261971D01*
X22628300Y-38288329D01*
X22628300Y-43811172D01*
X22608615Y-43878211D01*
X22555811Y-43923966D01*
X22486653Y-43933910D01*
X22423097Y-43904885D01*
X22416619Y-43898853D01*
X22304335Y-43786569D01*
X22304323Y-43786559D01*
X22119380Y-43658431D01*
X22119374Y-43658428D01*
X21914519Y-43565377D01*
X21696332Y-43510400D01*
X21564196Y-43500000D01*
X21000000Y-43500000D01*
X21000000Y-44316988D01*
X20942993Y-44284075D01*
X20815826Y-44250000D01*
X20684174Y-44250000D01*
X20557007Y-44284075D01*
X20500000Y-44316988D01*
X20500000Y-43500000D01*
X19935817Y-43500000D01*
X19935802Y-43500001D01*
X19803667Y-43510400D01*
X19585480Y-43565377D01*
X19380625Y-43658428D01*
X19380619Y-43658431D01*
X19195676Y-43786559D01*
X19195664Y-43786569D01*
X19036569Y-43945664D01*
X19036559Y-43945676D01*
X18908431Y-44130619D01*
X18908428Y-44130625D01*
X18815377Y-44335480D01*
X18760400Y-44553667D01*
X18750000Y-44685803D01*
X18750000Y-45500000D01*
X20250000Y-45500000D01*
X20250000Y-46000000D01*
X18750001Y-46000000D01*
X18750001Y-46814197D01*
X18760400Y-46946332D01*
X18815377Y-47164519D01*
X18908428Y-47369374D01*
X18908431Y-47369380D01*
X19036559Y-47554323D01*
X19036569Y-47554335D01*
X19195664Y-47713430D01*
X19195676Y-47713440D01*
X19380619Y-47841568D01*
X19380625Y-47841571D01*
X19585480Y-47934622D01*
X19803667Y-47989599D01*
X19935810Y-47999999D01*
X20499999Y-47999999D01*
X20500000Y-47999998D01*
X20500000Y-47183012D01*
X20557007Y-47215925D01*
X20684174Y-47250000D01*
X20815826Y-47250000D01*
X20942993Y-47215925D01*
X21000000Y-47183012D01*
X21000000Y-47999999D01*
X21564182Y-47999999D01*
X21564197Y-47999998D01*
X21696332Y-47989599D01*
X21914519Y-47934622D01*
X22119374Y-47841571D01*
X22119380Y-47841568D01*
X22304323Y-47713440D01*
X22304335Y-47713430D01*
X22463430Y-47554335D01*
X22463440Y-47554323D01*
X22591568Y-47369380D01*
X22591571Y-47369374D01*
X22684621Y-47164519D01*
X22685126Y-47162518D01*
X22685610Y-47161694D01*
X22686464Y-47159257D01*
X22686947Y-47159426D01*
X22720587Y-47102316D01*
X22782967Y-47070843D01*
X22852460Y-47078091D01*
X22893052Y-47105121D01*
X23775751Y-47987819D01*
X23809236Y-48049142D01*
X23804252Y-48118833D01*
X23762380Y-48174767D01*
X23696916Y-48199184D01*
X23688070Y-48199500D01*
X22781378Y-48199500D01*
X22781370Y-48199500D01*
X22781347Y-48199501D01*
X22728756Y-48202295D01*
X22728755Y-48202295D01*
X22498878Y-48246754D01*
X22498876Y-48246754D01*
X22498874Y-48246755D01*
X22424933Y-48274659D01*
X22279810Y-48329425D01*
X22077868Y-48447929D01*
X22077861Y-48447934D01*
X21898858Y-48598856D01*
X21898856Y-48598858D01*
X21747934Y-48777861D01*
X21747929Y-48777868D01*
X21629425Y-48979810D01*
X21603627Y-49048172D01*
X21546755Y-49198874D01*
X21546754Y-49198876D01*
X21546754Y-49198878D01*
X21502295Y-49428755D01*
X21502295Y-49428756D01*
X21499501Y-49481347D01*
X21499500Y-49481386D01*
X21499500Y-51418613D01*
X21499501Y-51418652D01*
X21502295Y-51471243D01*
X21502295Y-51471244D01*
X21527197Y-51600000D01*
X21546755Y-51701126D01*
X21595326Y-51829832D01*
X21629425Y-51920189D01*
X21747929Y-52122131D01*
X21747934Y-52122138D01*
X21898856Y-52301141D01*
X21898858Y-52301143D01*
X22077861Y-52452065D01*
X22077868Y-52452070D01*
X22279810Y-52570574D01*
X22498874Y-52653245D01*
X22728759Y-52697705D01*
X22781378Y-52700500D01*
X22781386Y-52700500D01*
X24718614Y-52700500D01*
X24718622Y-52700500D01*
X24771241Y-52697705D01*
X25001126Y-52653245D01*
X25220190Y-52570574D01*
X25422132Y-52452070D01*
X25423995Y-52450499D01*
X25601141Y-52301143D01*
X25601143Y-52301141D01*
X25752065Y-52122138D01*
X25752065Y-52122137D01*
X25752070Y-52122132D01*
X25870574Y-51920190D01*
X25953245Y-51701126D01*
X25997705Y-51471241D01*
X26000500Y-51418622D01*
X26000500Y-50367730D01*
X26020185Y-50300691D01*
X26072989Y-50254936D01*
X26142147Y-50244992D01*
X26205703Y-50274017D01*
X26212181Y-50280049D01*
X27113181Y-51181049D01*
X27146666Y-51242372D01*
X27149500Y-51268730D01*
X27149500Y-54025500D01*
X27129815Y-54092539D01*
X27077011Y-54138294D01*
X27025505Y-54149500D01*
X27002132Y-54149500D01*
X27002123Y-54149501D01*
X26942516Y-54155908D01*
X26807671Y-54206202D01*
X26807664Y-54206206D01*
X26692455Y-54292452D01*
X26692452Y-54292455D01*
X26606206Y-54407664D01*
X26606202Y-54407671D01*
X26555908Y-54542517D01*
X26549501Y-54602116D01*
X26549500Y-54602135D01*
X26549500Y-56397870D01*
X26549501Y-56397876D01*
X26555908Y-56457483D01*
X26606202Y-56592328D01*
X26606206Y-56592335D01*
X26692452Y-56707544D01*
X26692455Y-56707547D01*
X26807664Y-56793793D01*
X26807671Y-56793797D01*
X26942517Y-56844091D01*
X26942516Y-56844091D01*
X26949444Y-56844835D01*
X27002127Y-56850500D01*
X28797872Y-56850499D01*
X28857483Y-56844091D01*
X28992331Y-56793796D01*
X29107546Y-56707546D01*
X29193796Y-56592331D01*
X29242810Y-56460916D01*
X29284681Y-56404984D01*
X29350145Y-56380566D01*
X29418418Y-56395417D01*
X29446673Y-56416569D01*
X29568599Y-56538495D01*
X29665384Y-56606265D01*
X29762165Y-56674032D01*
X29762167Y-56674033D01*
X29762170Y-56674035D01*
X29976337Y-56773903D01*
X30204592Y-56835063D01*
X30381034Y-56850500D01*
X30439999Y-56855659D01*
X30440000Y-56855659D01*
X30440001Y-56855659D01*
X30498966Y-56850500D01*
X30675408Y-56835063D01*
X30903663Y-56773903D01*
X31117830Y-56674035D01*
X31311401Y-56538495D01*
X31478495Y-56371401D01*
X31608425Y-56185842D01*
X31663002Y-56142217D01*
X31732500Y-56135023D01*
X31794855Y-56166546D01*
X31811575Y-56185842D01*
X31941281Y-56371082D01*
X31941505Y-56371401D01*
X32108599Y-56538495D01*
X32205384Y-56606265D01*
X32302165Y-56674032D01*
X32302167Y-56674033D01*
X32302170Y-56674035D01*
X32516337Y-56773903D01*
X32744592Y-56835063D01*
X32921034Y-56850500D01*
X32979999Y-56855659D01*
X32980000Y-56855659D01*
X32980001Y-56855659D01*
X33038966Y-56850500D01*
X33215408Y-56835063D01*
X33443663Y-56773903D01*
X33657830Y-56674035D01*
X33851401Y-56538495D01*
X34018495Y-56371401D01*
X34148730Y-56185405D01*
X34203307Y-56141781D01*
X34272805Y-56134587D01*
X34335160Y-56166110D01*
X34351879Y-56185405D01*
X34481890Y-56371078D01*
X34648917Y-56538105D01*
X34842421Y-56673600D01*
X35056507Y-56773429D01*
X35056516Y-56773433D01*
X35270000Y-56830634D01*
X35270000Y-55933012D01*
X35327007Y-55965925D01*
X35454174Y-56000000D01*
X35585826Y-56000000D01*
X35712993Y-55965925D01*
X35770000Y-55933012D01*
X35770000Y-56830633D01*
X35983483Y-56773433D01*
X35983492Y-56773429D01*
X36197578Y-56673600D01*
X36391082Y-56538105D01*
X36558105Y-56371082D01*
X36688119Y-56185405D01*
X36742696Y-56141781D01*
X36812195Y-56134588D01*
X36874549Y-56166110D01*
X36891269Y-56185405D01*
X37021505Y-56371401D01*
X37188599Y-56538495D01*
X37285384Y-56606265D01*
X37382165Y-56674032D01*
X37382167Y-56674033D01*
X37382170Y-56674035D01*
X37596337Y-56773903D01*
X37824592Y-56835063D01*
X38001034Y-56850500D01*
X38059999Y-56855659D01*
X38060000Y-56855659D01*
X38060001Y-56855659D01*
X38118966Y-56850500D01*
X38295408Y-56835063D01*
X38523663Y-56773903D01*
X38737830Y-56674035D01*
X38931401Y-56538495D01*
X39098495Y-56371401D01*
X39228425Y-56185842D01*
X39283002Y-56142217D01*
X39352500Y-56135023D01*
X39414855Y-56166546D01*
X39431575Y-56185842D01*
X39561281Y-56371082D01*
X39561505Y-56371401D01*
X39728599Y-56538495D01*
X39825384Y-56606265D01*
X39922165Y-56674032D01*
X39922167Y-56674033D01*
X39922170Y-56674035D01*
X40136337Y-56773903D01*
X40364592Y-56835063D01*
X40541034Y-56850500D01*
X40599999Y-56855659D01*
X40600000Y-56855659D01*
X40600001Y-56855659D01*
X40658966Y-56850500D01*
X40835408Y-56835063D01*
X41063663Y-56773903D01*
X41277830Y-56674035D01*
X41471401Y-56538495D01*
X41638495Y-56371401D01*
X41686127Y-56303376D01*
X41740704Y-56259751D01*
X41787701Y-56250500D01*
X43536420Y-56250500D01*
X43675958Y-56222743D01*
X43681413Y-56221658D01*
X43817995Y-56165084D01*
X43867229Y-56132186D01*
X43940916Y-56082952D01*
X45145157Y-54878711D01*
X46149500Y-54878711D01*
X46149500Y-55121288D01*
X46181161Y-55361785D01*
X46243947Y-55596104D01*
X46284080Y-55692993D01*
X46336776Y-55820212D01*
X46458064Y-56030289D01*
X46458066Y-56030292D01*
X46458067Y-56030293D01*
X46605733Y-56222736D01*
X46605739Y-56222743D01*
X46777256Y-56394260D01*
X46777263Y-56394266D01*
X46809972Y-56419364D01*
X46969711Y-56541936D01*
X47179788Y-56663224D01*
X47403900Y-56756054D01*
X47638211Y-56818838D01*
X47818586Y-56842584D01*
X47878711Y-56850500D01*
X47878712Y-56850500D01*
X48121289Y-56850500D01*
X48169970Y-56844091D01*
X48361789Y-56818838D01*
X48596100Y-56756054D01*
X48820212Y-56663224D01*
X49030289Y-56541936D01*
X49222738Y-56394265D01*
X49394265Y-56222738D01*
X49541936Y-56030289D01*
X49663224Y-55820212D01*
X49756054Y-55596100D01*
X49818838Y-55361789D01*
X49850500Y-55121288D01*
X49850500Y-54878712D01*
X49818838Y-54638211D01*
X49756054Y-54403900D01*
X49663224Y-54179788D01*
X49541936Y-53969711D01*
X49394265Y-53777262D01*
X49394260Y-53777256D01*
X49222743Y-53605739D01*
X49222736Y-53605733D01*
X49030293Y-53458067D01*
X49030292Y-53458066D01*
X49030289Y-53458064D01*
X48820212Y-53336776D01*
X48820205Y-53336773D01*
X48596104Y-53243947D01*
X48361785Y-53181161D01*
X48121289Y-53149500D01*
X48121288Y-53149500D01*
X47878712Y-53149500D01*
X47878711Y-53149500D01*
X47638214Y-53181161D01*
X47403895Y-53243947D01*
X47179794Y-53336773D01*
X47179785Y-53336777D01*
X47008564Y-53435632D01*
X46976522Y-53454132D01*
X46969706Y-53458067D01*
X46777263Y-53605733D01*
X46777256Y-53605739D01*
X46605739Y-53777256D01*
X46605733Y-53777263D01*
X46458067Y-53969706D01*
X46458064Y-53969710D01*
X46458064Y-53969711D01*
X46449862Y-53983917D01*
X46336777Y-54179785D01*
X46336773Y-54179794D01*
X46243947Y-54403895D01*
X46181161Y-54638214D01*
X46149500Y-54878711D01*
X45145157Y-54878711D01*
X49821732Y-50202135D01*
X52849500Y-50202135D01*
X52849500Y-51997870D01*
X52849501Y-51997876D01*
X52855908Y-52057483D01*
X52906202Y-52192328D01*
X52906206Y-52192335D01*
X52992452Y-52307544D01*
X52992455Y-52307547D01*
X53107664Y-52393793D01*
X53107671Y-52393797D01*
X53242517Y-52444091D01*
X53242516Y-52444091D01*
X53249444Y-52444835D01*
X53302127Y-52450500D01*
X55097872Y-52450499D01*
X55157483Y-52444091D01*
X55292331Y-52393796D01*
X55407546Y-52307546D01*
X55493796Y-52192331D01*
X55544091Y-52057483D01*
X55550500Y-51997873D01*
X55550499Y-50202128D01*
X55544091Y-50142517D01*
X55543669Y-50141386D01*
X55493797Y-50007671D01*
X55493793Y-50007664D01*
X55407547Y-49892455D01*
X55407544Y-49892452D01*
X55292335Y-49806206D01*
X55292328Y-49806202D01*
X55157482Y-49755908D01*
X55157483Y-49755908D01*
X55097883Y-49749501D01*
X55097881Y-49749500D01*
X55097873Y-49749500D01*
X55097864Y-49749500D01*
X53302129Y-49749500D01*
X53302123Y-49749501D01*
X53242516Y-49755908D01*
X53107671Y-49806202D01*
X53107664Y-49806206D01*
X52992455Y-49892452D01*
X52992452Y-49892455D01*
X52906206Y-50007664D01*
X52906202Y-50007671D01*
X52855908Y-50142517D01*
X52849501Y-50202116D01*
X52849501Y-50202123D01*
X52849500Y-50202135D01*
X49821732Y-50202135D01*
X54184451Y-45839416D01*
X54266584Y-45716495D01*
X54323158Y-45579913D01*
X54352000Y-45434918D01*
X54352000Y-45287083D01*
X54352000Y-42660728D01*
X54371685Y-42593689D01*
X54388314Y-42573052D01*
X61638321Y-35323045D01*
X61699642Y-35289562D01*
X61769334Y-35294546D01*
X61825267Y-35336418D01*
X61849684Y-35401882D01*
X61850000Y-35410728D01*
X61850000Y-35850000D01*
X62766988Y-35850000D01*
X62734075Y-35907007D01*
X62700000Y-36034174D01*
X62700000Y-36165826D01*
X62734075Y-36292993D01*
X62766988Y-36350000D01*
X61850000Y-36350000D01*
X61850000Y-36997844D01*
X61856401Y-37057372D01*
X61856403Y-37057379D01*
X61906645Y-37192086D01*
X61906649Y-37192093D01*
X61992809Y-37307187D01*
X61992812Y-37307190D01*
X62107906Y-37393350D01*
X62107913Y-37393354D01*
X62242620Y-37443596D01*
X62242627Y-37443598D01*
X62302155Y-37449999D01*
X62302172Y-37450000D01*
X62950000Y-37450000D01*
X62950000Y-36533012D01*
X63007007Y-36565925D01*
X63134174Y-36600000D01*
X63265826Y-36600000D01*
X63392993Y-36565925D01*
X63450000Y-36533012D01*
X63450000Y-37450000D01*
X64075500Y-37450000D01*
X64142539Y-37469685D01*
X64188294Y-37522489D01*
X64199500Y-37574000D01*
X64199500Y-49626000D01*
X64179815Y-49693039D01*
X64127011Y-49738794D01*
X64075500Y-49750000D01*
X63450000Y-49750000D01*
X63450000Y-50666988D01*
X63392993Y-50634075D01*
X63265826Y-50600000D01*
X63134174Y-50600000D01*
X63007007Y-50634075D01*
X62950000Y-50666988D01*
X62950000Y-49750000D01*
X62302155Y-49750000D01*
X62242627Y-49756401D01*
X62242620Y-49756403D01*
X62107913Y-49806645D01*
X62107906Y-49806649D01*
X61992812Y-49892809D01*
X61992809Y-49892812D01*
X61906649Y-50007906D01*
X61906645Y-50007913D01*
X61856403Y-50142620D01*
X61856401Y-50142627D01*
X61850000Y-50202155D01*
X61850000Y-50850000D01*
X62766988Y-50850000D01*
X62734075Y-50907007D01*
X62700000Y-51034174D01*
X62700000Y-51165826D01*
X62734075Y-51292993D01*
X62766988Y-51350000D01*
X61850000Y-51350000D01*
X61850000Y-51997844D01*
X61856401Y-52057372D01*
X61856403Y-52057379D01*
X61906645Y-52192086D01*
X61906649Y-52192093D01*
X61992809Y-52307187D01*
X61992812Y-52307190D01*
X62107906Y-52393350D01*
X62107913Y-52393354D01*
X62242620Y-52443596D01*
X62242627Y-52443598D01*
X62302155Y-52449999D01*
X62302172Y-52450000D01*
X62950000Y-52450000D01*
X62950000Y-51533012D01*
X63007007Y-51565925D01*
X63134174Y-51600000D01*
X63265826Y-51600000D01*
X63392993Y-51565925D01*
X63450000Y-51533012D01*
X63450000Y-52450000D01*
X64075500Y-52450000D01*
X64142539Y-52469685D01*
X64188294Y-52522489D01*
X64199500Y-52574000D01*
X64199500Y-55997769D01*
X64179815Y-56064808D01*
X64163181Y-56085450D01*
X63871500Y-56377130D01*
X63810177Y-56410615D01*
X63773012Y-56412977D01*
X63560002Y-56394341D01*
X63559999Y-56394341D01*
X63324596Y-56414936D01*
X63324586Y-56414938D01*
X63096344Y-56476094D01*
X63096335Y-56476098D01*
X62882171Y-56575964D01*
X62882169Y-56575965D01*
X62688597Y-56711505D01*
X62521505Y-56878597D01*
X62391575Y-57064158D01*
X62336998Y-57107783D01*
X62267500Y-57114977D01*
X62205145Y-57083454D01*
X62188425Y-57064158D01*
X62058494Y-56878597D01*
X61891402Y-56711506D01*
X61891395Y-56711501D01*
X61697834Y-56575967D01*
X61697830Y-56575965D01*
X61697828Y-56575964D01*
X61483663Y-56476097D01*
X61483659Y-56476096D01*
X61483655Y-56476094D01*
X61255413Y-56414938D01*
X61255403Y-56414936D01*
X61020001Y-56394341D01*
X61019999Y-56394341D01*
X60784596Y-56414936D01*
X60784586Y-56414938D01*
X60556344Y-56476094D01*
X60556335Y-56476098D01*
X60342171Y-56575964D01*
X60342169Y-56575965D01*
X60148597Y-56711505D01*
X59981505Y-56878597D01*
X59851575Y-57064158D01*
X59796998Y-57107783D01*
X59727500Y-57114977D01*
X59665145Y-57083454D01*
X59648425Y-57064158D01*
X59518494Y-56878597D01*
X59351402Y-56711506D01*
X59351395Y-56711501D01*
X59157834Y-56575967D01*
X59157830Y-56575965D01*
X59157828Y-56575964D01*
X58943663Y-56476097D01*
X58943659Y-56476096D01*
X58943655Y-56476094D01*
X58715413Y-56414938D01*
X58715403Y-56414936D01*
X58480001Y-56394341D01*
X58479999Y-56394341D01*
X58244596Y-56414936D01*
X58244586Y-56414938D01*
X58016344Y-56476094D01*
X58016335Y-56476098D01*
X57802171Y-56575964D01*
X57802169Y-56575965D01*
X57608597Y-56711505D01*
X57441505Y-56878597D01*
X57311575Y-57064158D01*
X57256998Y-57107783D01*
X57187500Y-57114977D01*
X57125145Y-57083454D01*
X57108425Y-57064158D01*
X56978494Y-56878597D01*
X56811402Y-56711506D01*
X56811395Y-56711501D01*
X56617834Y-56575967D01*
X56617830Y-56575965D01*
X56617828Y-56575964D01*
X56403663Y-56476097D01*
X56403659Y-56476096D01*
X56403655Y-56476094D01*
X56175413Y-56414938D01*
X56175403Y-56414936D01*
X55940001Y-56394341D01*
X55939999Y-56394341D01*
X55704596Y-56414936D01*
X55704586Y-56414938D01*
X55476344Y-56476094D01*
X55476335Y-56476098D01*
X55262171Y-56575964D01*
X55262169Y-56575965D01*
X55068600Y-56711503D01*
X54946673Y-56833430D01*
X54885350Y-56866914D01*
X54815658Y-56861930D01*
X54759725Y-56820058D01*
X54742810Y-56789081D01*
X54693797Y-56657671D01*
X54693793Y-56657664D01*
X54607547Y-56542455D01*
X54607544Y-56542452D01*
X54492335Y-56456206D01*
X54492328Y-56456202D01*
X54357482Y-56405908D01*
X54357483Y-56405908D01*
X54297883Y-56399501D01*
X54297881Y-56399500D01*
X54297873Y-56399500D01*
X54297864Y-56399500D01*
X52502129Y-56399500D01*
X52502123Y-56399501D01*
X52442516Y-56405908D01*
X52307671Y-56456202D01*
X52307664Y-56456206D01*
X52192455Y-56542452D01*
X52192452Y-56542455D01*
X52106206Y-56657664D01*
X52106202Y-56657671D01*
X52055908Y-56792517D01*
X52049501Y-56852116D01*
X52049500Y-56852135D01*
X52049500Y-58647870D01*
X52049501Y-58647876D01*
X52055908Y-58707483D01*
X52106202Y-58842328D01*
X52106206Y-58842335D01*
X52192452Y-58957544D01*
X52192455Y-58957547D01*
X52307664Y-59043793D01*
X52307671Y-59043797D01*
X52442517Y-59094091D01*
X52442516Y-59094091D01*
X52449444Y-59094835D01*
X52502127Y-59100500D01*
X54297872Y-59100499D01*
X54357483Y-59094091D01*
X54492331Y-59043796D01*
X54607546Y-58957546D01*
X54693796Y-58842331D01*
X54742810Y-58710916D01*
X54784681Y-58654984D01*
X54850145Y-58630566D01*
X54918418Y-58645417D01*
X54946673Y-58666569D01*
X55068599Y-58788495D01*
X55150882Y-58846110D01*
X55262165Y-58924032D01*
X55262167Y-58924033D01*
X55262170Y-58924035D01*
X55476337Y-59023903D01*
X55704592Y-59085063D01*
X55881034Y-59100500D01*
X55939999Y-59105659D01*
X55940000Y-59105659D01*
X55940001Y-59105659D01*
X55998966Y-59100500D01*
X56175408Y-59085063D01*
X56403663Y-59023903D01*
X56617830Y-58924035D01*
X56811401Y-58788495D01*
X56978495Y-58621401D01*
X57108425Y-58435842D01*
X57163002Y-58392217D01*
X57232500Y-58385023D01*
X57294855Y-58416546D01*
X57311575Y-58435842D01*
X57441278Y-58621078D01*
X57441505Y-58621401D01*
X57608599Y-58788495D01*
X57690882Y-58846110D01*
X57802165Y-58924032D01*
X57802167Y-58924033D01*
X57802170Y-58924035D01*
X58016337Y-59023903D01*
X58244592Y-59085063D01*
X58421034Y-59100500D01*
X58479999Y-59105659D01*
X58480000Y-59105659D01*
X58480001Y-59105659D01*
X58538966Y-59100500D01*
X58715408Y-59085063D01*
X58943663Y-59023903D01*
X59157830Y-58924035D01*
X59351401Y-58788495D01*
X59518495Y-58621401D01*
X59648425Y-58435842D01*
X59703002Y-58392217D01*
X59772500Y-58385023D01*
X59834855Y-58416546D01*
X59851575Y-58435842D01*
X59981278Y-58621078D01*
X59981505Y-58621401D01*
X60148599Y-58788495D01*
X60230882Y-58846110D01*
X60342165Y-58924032D01*
X60342167Y-58924033D01*
X60342170Y-58924035D01*
X60556337Y-59023903D01*
X60784592Y-59085063D01*
X60961034Y-59100500D01*
X61019999Y-59105659D01*
X61020000Y-59105659D01*
X61020001Y-59105659D01*
X61078966Y-59100500D01*
X61255408Y-59085063D01*
X61483663Y-59023903D01*
X61697830Y-58924035D01*
X61891401Y-58788495D01*
X62058495Y-58621401D01*
X62188425Y-58435842D01*
X62243002Y-58392217D01*
X62312500Y-58385023D01*
X62374855Y-58416546D01*
X62391575Y-58435842D01*
X62521278Y-58621078D01*
X62521505Y-58621401D01*
X62688599Y-58788495D01*
X62770882Y-58846110D01*
X62882165Y-58924032D01*
X62882167Y-58924033D01*
X62882170Y-58924035D01*
X63096337Y-59023903D01*
X63324592Y-59085063D01*
X63501034Y-59100500D01*
X63559999Y-59105659D01*
X63560000Y-59105659D01*
X63560001Y-59105659D01*
X63618966Y-59100500D01*
X63795408Y-59085063D01*
X64023663Y-59023903D01*
X64237830Y-58924035D01*
X64431401Y-58788495D01*
X64598495Y-58621401D01*
X64728730Y-58435405D01*
X64783307Y-58391781D01*
X64852805Y-58384587D01*
X64915160Y-58416110D01*
X64931879Y-58435405D01*
X65061890Y-58621078D01*
X65228917Y-58788105D01*
X65422421Y-58923600D01*
X65636507Y-59023429D01*
X65636516Y-59023433D01*
X65850000Y-59080634D01*
X65850000Y-58183012D01*
X65907007Y-58215925D01*
X66034174Y-58250000D01*
X66165826Y-58250000D01*
X66292993Y-58215925D01*
X66350000Y-58183012D01*
X66350000Y-59080633D01*
X66563483Y-59023433D01*
X66563492Y-59023429D01*
X66777578Y-58923600D01*
X66971081Y-58788106D01*
X66991907Y-58767280D01*
X67053229Y-58733793D01*
X67122921Y-58738776D01*
X67178856Y-58780647D01*
X67203274Y-58846110D01*
X67203590Y-58855230D01*
X67201418Y-59849895D01*
X67181587Y-59916891D01*
X67176686Y-59923934D01*
X67138561Y-59974864D01*
X67126974Y-59988235D01*
X66988237Y-60126972D01*
X66974867Y-60138558D01*
X66817789Y-60256146D01*
X66802904Y-60265711D01*
X66630701Y-60359740D01*
X66614609Y-60367090D01*
X66430763Y-60435662D01*
X66413787Y-60440646D01*
X66222068Y-60482351D01*
X66204557Y-60484869D01*
X66023779Y-60497799D01*
X66004417Y-60499184D01*
X65995572Y-60499500D01*
X16004428Y-60499500D01*
X15995582Y-60499184D01*
X15973622Y-60497613D01*
X15795442Y-60484869D01*
X15777931Y-60482351D01*
X15586212Y-60440646D01*
X15569236Y-60435662D01*
X15385390Y-60367090D01*
X15369298Y-60359740D01*
X15197095Y-60265711D01*
X15182210Y-60256146D01*
X15025132Y-60138558D01*
X15011762Y-60126972D01*
X14873027Y-59988237D01*
X14861441Y-59974866D01*
X14823313Y-59923933D01*
X14798896Y-59858469D01*
X14798580Y-59849909D01*
X14752792Y-38878711D01*
X16149500Y-38878711D01*
X16149500Y-39121288D01*
X16181161Y-39361785D01*
X16243947Y-39596104D01*
X16282841Y-39690002D01*
X16336776Y-39820212D01*
X16458064Y-40030289D01*
X16458066Y-40030292D01*
X16458067Y-40030293D01*
X16605733Y-40222736D01*
X16605739Y-40222743D01*
X16777256Y-40394260D01*
X16777262Y-40394265D01*
X16969711Y-40541936D01*
X17179788Y-40663224D01*
X17403900Y-40756054D01*
X17638211Y-40818838D01*
X17818586Y-40842584D01*
X17878711Y-40850500D01*
X17878712Y-40850500D01*
X18121289Y-40850500D01*
X18169388Y-40844167D01*
X18361789Y-40818838D01*
X18596100Y-40756054D01*
X18820212Y-40663224D01*
X19030289Y-40541936D01*
X19222738Y-40394265D01*
X19394265Y-40222738D01*
X19541936Y-40030289D01*
X19663224Y-39820212D01*
X19756054Y-39596100D01*
X19818838Y-39361789D01*
X19850500Y-39121288D01*
X19850500Y-38878712D01*
X19818838Y-38638211D01*
X19756054Y-38403900D01*
X19663224Y-38179788D01*
X19541936Y-37969711D01*
X19402337Y-37787782D01*
X19394266Y-37777263D01*
X19394260Y-37777256D01*
X19222743Y-37605739D01*
X19222735Y-37605732D01*
X19030293Y-37458067D01*
X19030292Y-37458066D01*
X19030289Y-37458064D01*
X18831252Y-37343150D01*
X18820214Y-37336777D01*
X18820205Y-37336773D01*
X18596104Y-37243947D01*
X18402584Y-37192093D01*
X18361789Y-37181162D01*
X18361788Y-37181161D01*
X18361785Y-37181161D01*
X18121289Y-37149500D01*
X18121288Y-37149500D01*
X17878712Y-37149500D01*
X17878711Y-37149500D01*
X17638214Y-37181161D01*
X17403895Y-37243947D01*
X17179794Y-37336773D01*
X17179785Y-37336777D01*
X16969706Y-37458067D01*
X16777265Y-37605732D01*
X16777256Y-37605739D01*
X16605739Y-37777256D01*
X16605733Y-37777263D01*
X16458067Y-37969706D01*
X16336777Y-38179785D01*
X16336773Y-38179794D01*
X16243947Y-38403895D01*
X16181161Y-38638214D01*
X16149500Y-38878711D01*
X14752792Y-38878711D01*
X14701287Y-15289450D01*
X14716454Y-15229756D01*
X14727879Y-15208834D01*
X14734291Y-15197090D01*
X14743850Y-15182215D01*
X14861448Y-15025123D01*
X14873020Y-15011769D01*
X15011769Y-14873020D01*
X15025123Y-14861448D01*
X15182221Y-14743845D01*
X15197081Y-14734295D01*
X15232115Y-14715165D01*
X15291539Y-14700000D01*
X18380244Y-14700000D01*
X18447283Y-14719685D01*
G37*
%TD.AperFunction*%
%TA.AperFunction,Conductor*%
G36*
X60480612Y-14719685D02*
G01*
X60526367Y-14772489D01*
X60536311Y-14841647D01*
X60511949Y-14899486D01*
X60458067Y-14969706D01*
X60336777Y-15179785D01*
X60336773Y-15179794D01*
X60243947Y-15403895D01*
X60181161Y-15638214D01*
X60149500Y-15878711D01*
X60149500Y-16121288D01*
X60181161Y-16361785D01*
X60243947Y-16596104D01*
X60320498Y-16780913D01*
X60336776Y-16820212D01*
X60458064Y-17030289D01*
X60458066Y-17030292D01*
X60458067Y-17030293D01*
X60605733Y-17222736D01*
X60605739Y-17222743D01*
X60777256Y-17394260D01*
X60777262Y-17394265D01*
X60969711Y-17541936D01*
X61179788Y-17663224D01*
X61403900Y-17756054D01*
X61638211Y-17818838D01*
X61818586Y-17842584D01*
X61878711Y-17850500D01*
X61878712Y-17850500D01*
X62121289Y-17850500D01*
X62169388Y-17844167D01*
X62361789Y-17818838D01*
X62596100Y-17756054D01*
X62820212Y-17663224D01*
X63030289Y-17541936D01*
X63222738Y-17394265D01*
X63394265Y-17222738D01*
X63541936Y-17030289D01*
X63663224Y-16820212D01*
X63756054Y-16596100D01*
X63818838Y-16361789D01*
X63850500Y-16121288D01*
X63850500Y-15878712D01*
X63818838Y-15638211D01*
X63756054Y-15403900D01*
X63663224Y-15179788D01*
X63541936Y-14969711D01*
X63526946Y-14950176D01*
X63488051Y-14899486D01*
X63462857Y-14834317D01*
X63476896Y-14765872D01*
X63525710Y-14715883D01*
X63586427Y-14700000D01*
X66708461Y-14700000D01*
X66767886Y-14715167D01*
X66769245Y-14715909D01*
X66802907Y-14734289D01*
X66817784Y-14743849D01*
X66962862Y-14852454D01*
X66974867Y-14861441D01*
X66988237Y-14873027D01*
X67126972Y-15011762D01*
X67138558Y-15025132D01*
X67256144Y-15182208D01*
X67265710Y-15197093D01*
X67283545Y-15229756D01*
X67298712Y-15289453D01*
X67208405Y-56650126D01*
X67188574Y-56717122D01*
X67135670Y-56762762D01*
X67066490Y-56772554D01*
X67002998Y-56743390D01*
X66996724Y-56737536D01*
X66971082Y-56711894D01*
X66777578Y-56576399D01*
X66563492Y-56476570D01*
X66563486Y-56476567D01*
X66350000Y-56419364D01*
X66350000Y-57316988D01*
X66292993Y-57284075D01*
X66165826Y-57250000D01*
X66034174Y-57250000D01*
X65907007Y-57284075D01*
X65850000Y-57316988D01*
X65850000Y-56419364D01*
X65847411Y-56417378D01*
X65786743Y-56415934D01*
X65728881Y-56376771D01*
X65701377Y-56312543D01*
X65700500Y-56297822D01*
X65700500Y-31376082D01*
X65697472Y-31360861D01*
X65692150Y-31334106D01*
X65671659Y-31231088D01*
X65617408Y-31100117D01*
X65615764Y-31095522D01*
X65532954Y-30971588D01*
X65532953Y-30971587D01*
X65532951Y-30971584D01*
X65428416Y-30867049D01*
X65158632Y-30597265D01*
X63978421Y-29417052D01*
X63978414Y-29417046D01*
X63904729Y-29367812D01*
X63904729Y-29367813D01*
X63855491Y-29334913D01*
X63718917Y-29278343D01*
X63718907Y-29278340D01*
X63573920Y-29249500D01*
X63573918Y-29249500D01*
X54112231Y-29249500D01*
X54045192Y-29229815D01*
X54024550Y-29213181D01*
X49141368Y-24329999D01*
X59021127Y-24329999D01*
X59021128Y-24330000D01*
X59984314Y-24330000D01*
X59979920Y-24334394D01*
X59927259Y-24425606D01*
X59900000Y-24527339D01*
X59900000Y-24632661D01*
X59927259Y-24734394D01*
X59979920Y-24825606D01*
X59984314Y-24830000D01*
X59021128Y-24830000D01*
X59073730Y-25026317D01*
X59073734Y-25026326D01*
X59169865Y-25232482D01*
X59300342Y-25418820D01*
X59461179Y-25579657D01*
X59647517Y-25710134D01*
X59853673Y-25806265D01*
X59853682Y-25806269D01*
X60049999Y-25858872D01*
X60050000Y-25858871D01*
X60050000Y-24895686D01*
X60054394Y-24900080D01*
X60145606Y-24952741D01*
X60247339Y-24980000D01*
X60352661Y-24980000D01*
X60454394Y-24952741D01*
X60545606Y-24900080D01*
X60550000Y-24895686D01*
X60550000Y-25858872D01*
X60746317Y-25806269D01*
X60746326Y-25806265D01*
X60952482Y-25710134D01*
X61138820Y-25579657D01*
X61299657Y-25418820D01*
X61430134Y-25232482D01*
X61526265Y-25026326D01*
X61526269Y-25026317D01*
X61578872Y-24830000D01*
X60615686Y-24830000D01*
X60620080Y-24825606D01*
X60672741Y-24734394D01*
X60700000Y-24632661D01*
X60700000Y-24527339D01*
X60672741Y-24425606D01*
X60620080Y-24334394D01*
X60615686Y-24330000D01*
X61578872Y-24330000D01*
X61578872Y-24329999D01*
X62421127Y-24329999D01*
X62421128Y-24330000D01*
X63384314Y-24330000D01*
X63379920Y-24334394D01*
X63327259Y-24425606D01*
X63300000Y-24527339D01*
X63300000Y-24632661D01*
X63327259Y-24734394D01*
X63379920Y-24825606D01*
X63384314Y-24830000D01*
X62421128Y-24830000D01*
X62473730Y-25026317D01*
X62473734Y-25026326D01*
X62569865Y-25232482D01*
X62700342Y-25418820D01*
X62861179Y-25579657D01*
X63047517Y-25710134D01*
X63253673Y-25806265D01*
X63253682Y-25806269D01*
X63449999Y-25858872D01*
X63450000Y-25858871D01*
X63450000Y-24895686D01*
X63454394Y-24900080D01*
X63545606Y-24952741D01*
X63647339Y-24980000D01*
X63752661Y-24980000D01*
X63854394Y-24952741D01*
X63945606Y-24900080D01*
X63950000Y-24895686D01*
X63950000Y-25858872D01*
X64146317Y-25806269D01*
X64146326Y-25806265D01*
X64352482Y-25710134D01*
X64538820Y-25579657D01*
X64699657Y-25418820D01*
X64830134Y-25232482D01*
X64926265Y-25026326D01*
X64926269Y-25026317D01*
X64978872Y-24830000D01*
X64015686Y-24830000D01*
X64020080Y-24825606D01*
X64072741Y-24734394D01*
X64100000Y-24632661D01*
X64100000Y-24527339D01*
X64072741Y-24425606D01*
X64020080Y-24334394D01*
X64015686Y-24330000D01*
X64978872Y-24330000D01*
X64978872Y-24329999D01*
X64926269Y-24133682D01*
X64926265Y-24133673D01*
X64830134Y-23927517D01*
X64699657Y-23741179D01*
X64538820Y-23580342D01*
X64352482Y-23449865D01*
X64146328Y-23353734D01*
X63950000Y-23301127D01*
X63950000Y-24264314D01*
X63945606Y-24259920D01*
X63854394Y-24207259D01*
X63752661Y-24180000D01*
X63647339Y-24180000D01*
X63545606Y-24207259D01*
X63454394Y-24259920D01*
X63450000Y-24264314D01*
X63450000Y-23301127D01*
X63253671Y-23353734D01*
X63047517Y-23449865D01*
X62861179Y-23580342D01*
X62700342Y-23741179D01*
X62569865Y-23927517D01*
X62473734Y-24133673D01*
X62473730Y-24133682D01*
X62421127Y-24329999D01*
X61578872Y-24329999D01*
X61526269Y-24133682D01*
X61526265Y-24133673D01*
X61430134Y-23927517D01*
X61299657Y-23741179D01*
X61138820Y-23580342D01*
X60952482Y-23449865D01*
X60746328Y-23353734D01*
X60550000Y-23301127D01*
X60550000Y-24264314D01*
X60545606Y-24259920D01*
X60454394Y-24207259D01*
X60352661Y-24180000D01*
X60247339Y-24180000D01*
X60145606Y-24207259D01*
X60054394Y-24259920D01*
X60050000Y-24264314D01*
X60050000Y-23301127D01*
X59853671Y-23353734D01*
X59647517Y-23449865D01*
X59461179Y-23580342D01*
X59300342Y-23741179D01*
X59169865Y-23927517D01*
X59073734Y-24133673D01*
X59073730Y-24133682D01*
X59021127Y-24329999D01*
X49141368Y-24329999D01*
X42290505Y-17479136D01*
X42257020Y-17417813D01*
X42262004Y-17348121D01*
X42303876Y-17292188D01*
X42346092Y-17271680D01*
X42476496Y-17236739D01*
X42682734Y-17140568D01*
X42869139Y-17010047D01*
X43030047Y-16849139D01*
X43160568Y-16662734D01*
X43187618Y-16604724D01*
X43233790Y-16552285D01*
X43300983Y-16533133D01*
X43367865Y-16553348D01*
X43412382Y-16604725D01*
X43439429Y-16662728D01*
X43439432Y-16662734D01*
X43569954Y-16849141D01*
X43730858Y-17010045D01*
X43766621Y-17035086D01*
X43917266Y-17140568D01*
X44123504Y-17236739D01*
X44343308Y-17295635D01*
X44480949Y-17307677D01*
X44569998Y-17315468D01*
X44570000Y-17315468D01*
X44570002Y-17315468D01*
X44626807Y-17310498D01*
X44796692Y-17295635D01*
X45016496Y-17236739D01*
X45222734Y-17140568D01*
X45409139Y-17010047D01*
X45570047Y-16849139D01*
X45700568Y-16662734D01*
X45727895Y-16604129D01*
X45774064Y-16551695D01*
X45841257Y-16532542D01*
X45908139Y-16552757D01*
X45952657Y-16604133D01*
X45979865Y-16662482D01*
X46110342Y-16848820D01*
X46271179Y-17009657D01*
X46457517Y-17140134D01*
X46663673Y-17236265D01*
X46663682Y-17236269D01*
X46859999Y-17288872D01*
X46860000Y-17288871D01*
X46860000Y-16443012D01*
X46917007Y-16475925D01*
X47044174Y-16510000D01*
X47175826Y-16510000D01*
X47302993Y-16475925D01*
X47360000Y-16443012D01*
X47360000Y-17288872D01*
X47556317Y-17236269D01*
X47556326Y-17236265D01*
X47762482Y-17140134D01*
X47948820Y-17009657D01*
X48109657Y-16848820D01*
X48240132Y-16662484D01*
X48267341Y-16604134D01*
X48313513Y-16551695D01*
X48380707Y-16532542D01*
X48447588Y-16552757D01*
X48492106Y-16604133D01*
X48519431Y-16662732D01*
X48519432Y-16662734D01*
X48649954Y-16849141D01*
X48810858Y-17010045D01*
X48846621Y-17035086D01*
X48997266Y-17140568D01*
X49203504Y-17236739D01*
X49423308Y-17295635D01*
X49560949Y-17307677D01*
X49649998Y-17315468D01*
X49650000Y-17315468D01*
X49650002Y-17315468D01*
X49706807Y-17310498D01*
X49876692Y-17295635D01*
X50096496Y-17236739D01*
X50302734Y-17140568D01*
X50489139Y-17010047D01*
X50650047Y-16849139D01*
X50780568Y-16662734D01*
X50807618Y-16604724D01*
X50853790Y-16552285D01*
X50920983Y-16533133D01*
X50987865Y-16553348D01*
X51032382Y-16604725D01*
X51059429Y-16662728D01*
X51059432Y-16662734D01*
X51189954Y-16849141D01*
X51350858Y-17010045D01*
X51386621Y-17035086D01*
X51537266Y-17140568D01*
X51743504Y-17236739D01*
X51963308Y-17295635D01*
X52100949Y-17307677D01*
X52189998Y-17315468D01*
X52190000Y-17315468D01*
X52190002Y-17315468D01*
X52246807Y-17310498D01*
X52416692Y-17295635D01*
X52636496Y-17236739D01*
X52842734Y-17140568D01*
X53029139Y-17010047D01*
X53190047Y-16849139D01*
X53207272Y-16824539D01*
X53261848Y-16780913D01*
X53331346Y-16773718D01*
X53393701Y-16805239D01*
X53429116Y-16865468D01*
X53432138Y-16882406D01*
X53435908Y-16917483D01*
X53486202Y-17052328D01*
X53486206Y-17052335D01*
X53572452Y-17167544D01*
X53572455Y-17167547D01*
X53687664Y-17253793D01*
X53687671Y-17253797D01*
X53822517Y-17304091D01*
X53822516Y-17304091D01*
X53829444Y-17304835D01*
X53882127Y-17310500D01*
X55577872Y-17310499D01*
X55637483Y-17304091D01*
X55772331Y-17253796D01*
X55887546Y-17167546D01*
X55973796Y-17052331D01*
X56024091Y-16917483D01*
X56030500Y-16857873D01*
X56030499Y-15162128D01*
X56024091Y-15102517D01*
X55995228Y-15025132D01*
X55973797Y-14967671D01*
X55973793Y-14967664D01*
X55921875Y-14898311D01*
X55897457Y-14832847D01*
X55912308Y-14764574D01*
X55961713Y-14715168D01*
X56021141Y-14700000D01*
X60413573Y-14700000D01*
X60480612Y-14719685D01*
G37*
%TD.AperFunction*%
%TA.AperFunction,Conductor*%
G36*
X36595615Y-50937949D02*
G01*
X36595662Y-50937870D01*
X36596221Y-50938192D01*
X36597921Y-50938875D01*
X36600354Y-50940579D01*
X36799297Y-51033347D01*
X37011326Y-51090161D01*
X37167521Y-51103826D01*
X37229998Y-51109292D01*
X37230000Y-51109292D01*
X37230002Y-51109292D01*
X37290501Y-51103999D01*
X37448674Y-51090161D01*
X37556908Y-51061159D01*
X37626755Y-51062822D01*
X37684618Y-51101984D01*
X37712123Y-51166212D01*
X37713000Y-51180934D01*
X37713000Y-53384269D01*
X37693315Y-53451308D01*
X37676681Y-53471950D01*
X37477050Y-53671580D01*
X37477044Y-53671588D01*
X37427812Y-53745268D01*
X37427813Y-53745269D01*
X37394921Y-53794496D01*
X37394914Y-53794508D01*
X37338342Y-53931086D01*
X37338340Y-53931092D01*
X37309500Y-54076079D01*
X37309500Y-54312298D01*
X37289815Y-54379337D01*
X37256625Y-54413872D01*
X37188595Y-54461507D01*
X37021508Y-54628594D01*
X36891269Y-54814595D01*
X36836692Y-54858219D01*
X36767193Y-54865412D01*
X36704839Y-54833890D01*
X36688119Y-54814594D01*
X36558113Y-54628926D01*
X36558108Y-54628920D01*
X36391082Y-54461894D01*
X36197578Y-54326399D01*
X35983492Y-54226570D01*
X35983486Y-54226567D01*
X35770000Y-54169364D01*
X35770000Y-55066988D01*
X35712993Y-55034075D01*
X35585826Y-55000000D01*
X35454174Y-55000000D01*
X35327007Y-55034075D01*
X35270000Y-55066988D01*
X35270000Y-54169364D01*
X35269999Y-54169364D01*
X35056513Y-54226567D01*
X35056507Y-54226570D01*
X34842422Y-54326399D01*
X34842420Y-54326400D01*
X34648926Y-54461886D01*
X34648920Y-54461891D01*
X34481891Y-54628920D01*
X34481890Y-54628922D01*
X34351880Y-54814595D01*
X34297303Y-54858219D01*
X34227804Y-54865412D01*
X34165450Y-54833890D01*
X34148730Y-54814594D01*
X34018496Y-54628600D01*
X33959954Y-54570058D01*
X33878310Y-54488414D01*
X33844827Y-54427094D01*
X33849811Y-54357402D01*
X33878311Y-54313054D01*
X33947951Y-54243416D01*
X34030084Y-54120495D01*
X34086658Y-53983913D01*
X34115500Y-53838918D01*
X34115500Y-53691083D01*
X34115500Y-51287729D01*
X34135185Y-51220690D01*
X34187989Y-51174935D01*
X34257147Y-51164991D01*
X34320703Y-51194016D01*
X34327181Y-51200048D01*
X35029892Y-51902759D01*
X35052558Y-51938825D01*
X35054388Y-51937944D01*
X35057409Y-51944218D01*
X35057411Y-51944222D01*
X35153384Y-52096962D01*
X35280938Y-52224516D01*
X35433678Y-52320489D01*
X35603945Y-52380068D01*
X35603950Y-52380069D01*
X35783196Y-52400265D01*
X35783200Y-52400265D01*
X35783204Y-52400265D01*
X35962449Y-52380069D01*
X35962452Y-52380068D01*
X35962455Y-52380068D01*
X36132722Y-52320489D01*
X36285462Y-52224516D01*
X36413016Y-52096962D01*
X36508989Y-51944222D01*
X36568568Y-51773955D01*
X36576774Y-51701126D01*
X36588765Y-51594703D01*
X36588765Y-51594696D01*
X36568569Y-51415450D01*
X36568568Y-51415445D01*
X36508988Y-51245176D01*
X36421802Y-51106421D01*
X36402802Y-51039185D01*
X36423170Y-50972349D01*
X36476437Y-50927135D01*
X36545694Y-50917897D01*
X36595615Y-50937949D01*
G37*
%TD.AperFunction*%
%TA.AperFunction,Conductor*%
G36*
X29860000Y-51104000D02*
G01*
X30411828Y-51104000D01*
X30411844Y-51103999D01*
X30471372Y-51097598D01*
X30471379Y-51097596D01*
X30606086Y-51047354D01*
X30606093Y-51047350D01*
X30721187Y-50961190D01*
X30721190Y-50961187D01*
X30807350Y-50846093D01*
X30807354Y-50846086D01*
X30857596Y-50711379D01*
X30857598Y-50711372D01*
X30863999Y-50651844D01*
X30864000Y-50651827D01*
X30864000Y-50593833D01*
X30883685Y-50526794D01*
X30936489Y-50481039D01*
X31005647Y-50471095D01*
X31069203Y-50500120D01*
X31089573Y-50522708D01*
X31103391Y-50542442D01*
X31185322Y-50659452D01*
X31185327Y-50659458D01*
X31340541Y-50814672D01*
X31340547Y-50814677D01*
X31520349Y-50940576D01*
X31520351Y-50940577D01*
X31520354Y-50940579D01*
X31719297Y-51033347D01*
X31931326Y-51090161D01*
X32087521Y-51103826D01*
X32149998Y-51109292D01*
X32150000Y-51109292D01*
X32150002Y-51109292D01*
X32210501Y-51103999D01*
X32368674Y-51090161D01*
X32458405Y-51066117D01*
X32528255Y-51067779D01*
X32586118Y-51106940D01*
X32613623Y-51171169D01*
X32614500Y-51185891D01*
X32614500Y-53402769D01*
X32594815Y-53469808D01*
X32578181Y-53490450D01*
X32397050Y-53671580D01*
X32397044Y-53671588D01*
X32347812Y-53745268D01*
X32347813Y-53745269D01*
X32314921Y-53794496D01*
X32314914Y-53794508D01*
X32258342Y-53931086D01*
X32258340Y-53931092D01*
X32229500Y-54076079D01*
X32229500Y-54312298D01*
X32209815Y-54379337D01*
X32176625Y-54413872D01*
X32108595Y-54461507D01*
X31941505Y-54628597D01*
X31811575Y-54814158D01*
X31756998Y-54857783D01*
X31687500Y-54864977D01*
X31625145Y-54833454D01*
X31608425Y-54814158D01*
X31478494Y-54628597D01*
X31311402Y-54461506D01*
X31311395Y-54461501D01*
X31117834Y-54325967D01*
X31117830Y-54325965D01*
X31088521Y-54312298D01*
X30903663Y-54226097D01*
X30903659Y-54226096D01*
X30903655Y-54226094D01*
X30675413Y-54164938D01*
X30675403Y-54164936D01*
X30440001Y-54144341D01*
X30439999Y-54144341D01*
X30204596Y-54164936D01*
X30204586Y-54164938D01*
X29976344Y-54226094D01*
X29976335Y-54226098D01*
X29762171Y-54325964D01*
X29762169Y-54325965D01*
X29568600Y-54461503D01*
X29446673Y-54583430D01*
X29385350Y-54616914D01*
X29315658Y-54611930D01*
X29259725Y-54570058D01*
X29242810Y-54539081D01*
X29193797Y-54407671D01*
X29193793Y-54407664D01*
X29107547Y-54292455D01*
X29107544Y-54292452D01*
X28992335Y-54206206D01*
X28992328Y-54206202D01*
X28857482Y-54155908D01*
X28857483Y-54155908D01*
X28797883Y-54149501D01*
X28797881Y-54149500D01*
X28797873Y-54149500D01*
X28797865Y-54149500D01*
X28774500Y-54149500D01*
X28707461Y-54129815D01*
X28661706Y-54077011D01*
X28650500Y-54025500D01*
X28650500Y-51225094D01*
X28670185Y-51158055D01*
X28722989Y-51112300D01*
X28787760Y-51101805D01*
X28808165Y-51103999D01*
X28808172Y-51104000D01*
X29360000Y-51104000D01*
X29360000Y-50283012D01*
X29417007Y-50315925D01*
X29544174Y-50350000D01*
X29675826Y-50350000D01*
X29802993Y-50315925D01*
X29860000Y-50283012D01*
X29860000Y-51104000D01*
G37*
%TD.AperFunction*%
%TA.AperFunction,Conductor*%
G36*
X45895995Y-50542442D02*
G01*
X45940146Y-50479390D01*
X46007342Y-50335289D01*
X46053514Y-50282849D01*
X46120707Y-50263697D01*
X46187589Y-50283913D01*
X46232106Y-50335288D01*
X46299421Y-50479646D01*
X46299423Y-50479650D01*
X46407553Y-50634075D01*
X46425326Y-50659457D01*
X46580543Y-50814674D01*
X46696681Y-50895995D01*
X46757051Y-50938266D01*
X46800676Y-50992843D01*
X46807870Y-51062341D01*
X46776347Y-51124696D01*
X46773609Y-51127522D01*
X43187951Y-54713181D01*
X43126628Y-54746666D01*
X43100270Y-54749500D01*
X41787701Y-54749500D01*
X41720662Y-54729815D01*
X41686126Y-54696623D01*
X41638494Y-54628597D01*
X41471402Y-54461506D01*
X41471395Y-54461501D01*
X41277834Y-54325967D01*
X41277830Y-54325965D01*
X41248521Y-54312298D01*
X41063663Y-54226097D01*
X41063659Y-54226096D01*
X41063655Y-54226094D01*
X40835413Y-54164938D01*
X40835403Y-54164936D01*
X40600001Y-54144341D01*
X40599999Y-54144341D01*
X40364596Y-54164936D01*
X40364586Y-54164938D01*
X40136344Y-54226094D01*
X40136335Y-54226098D01*
X39922171Y-54325964D01*
X39922169Y-54325965D01*
X39728597Y-54461505D01*
X39561505Y-54628597D01*
X39431575Y-54814158D01*
X39376998Y-54857783D01*
X39307500Y-54864977D01*
X39245145Y-54833454D01*
X39228425Y-54814158D01*
X39098496Y-54628600D01*
X39039954Y-54570058D01*
X38958310Y-54488414D01*
X38924827Y-54427094D01*
X38929811Y-54357402D01*
X38958312Y-54313054D01*
X39046451Y-54224916D01*
X39128584Y-54101995D01*
X39139318Y-54076082D01*
X39177495Y-53983913D01*
X39185158Y-53965413D01*
X39214000Y-53820418D01*
X39214000Y-53672583D01*
X39214000Y-51161373D01*
X39233685Y-51094334D01*
X39286489Y-51048579D01*
X39355647Y-51038635D01*
X39370072Y-51041593D01*
X39551326Y-51090161D01*
X39707521Y-51103826D01*
X39769998Y-51109292D01*
X39770000Y-51109292D01*
X39770002Y-51109292D01*
X39830501Y-51103999D01*
X39988674Y-51090161D01*
X40200703Y-51033347D01*
X40399646Y-50940579D01*
X40579457Y-50814674D01*
X40734674Y-50659457D01*
X40860579Y-50479646D01*
X40927618Y-50335878D01*
X40973790Y-50283439D01*
X41040983Y-50264287D01*
X41107864Y-50284502D01*
X41152381Y-50335878D01*
X41167234Y-50367730D01*
X41219419Y-50479642D01*
X41219423Y-50479650D01*
X41345322Y-50659452D01*
X41345327Y-50659458D01*
X41500541Y-50814672D01*
X41500547Y-50814677D01*
X41680349Y-50940576D01*
X41680351Y-50940577D01*
X41680354Y-50940579D01*
X41879297Y-51033347D01*
X42091326Y-51090161D01*
X42247521Y-51103826D01*
X42309998Y-51109292D01*
X42310000Y-51109292D01*
X42310002Y-51109292D01*
X42370501Y-51103999D01*
X42528674Y-51090161D01*
X42740703Y-51033347D01*
X42939646Y-50940579D01*
X43119457Y-50814674D01*
X43274674Y-50659457D01*
X43400579Y-50479646D01*
X43467893Y-50335288D01*
X43514065Y-50282849D01*
X43581258Y-50263697D01*
X43648139Y-50283912D01*
X43692657Y-50335288D01*
X43759854Y-50479392D01*
X43804003Y-50542443D01*
X44367037Y-49979409D01*
X44384075Y-50042993D01*
X44449901Y-50157007D01*
X44542993Y-50250099D01*
X44657007Y-50315925D01*
X44720590Y-50332962D01*
X44157555Y-50895996D01*
X44220601Y-50940142D01*
X44220605Y-50940144D01*
X44419466Y-51032874D01*
X44419475Y-51032878D01*
X44631407Y-51089664D01*
X44631417Y-51089666D01*
X44849999Y-51108790D01*
X44850001Y-51108790D01*
X45068582Y-51089666D01*
X45068592Y-51089664D01*
X45280524Y-51032878D01*
X45280533Y-51032874D01*
X45479392Y-50940145D01*
X45542443Y-50895995D01*
X44979410Y-50332962D01*
X45042993Y-50315925D01*
X45157007Y-50250099D01*
X45250099Y-50157007D01*
X45315925Y-50042993D01*
X45332962Y-49979409D01*
X45895995Y-50542442D01*
G37*
%TD.AperFunction*%
%TA.AperFunction,Conductor*%
G36*
X20507865Y-31793348D02*
G01*
X20552382Y-31844725D01*
X20579429Y-31902728D01*
X20579432Y-31902734D01*
X20709954Y-32089141D01*
X20870859Y-32250046D01*
X20906621Y-32275086D01*
X20950247Y-32329662D01*
X20959500Y-32376662D01*
X20959500Y-32623918D01*
X20959500Y-32623920D01*
X20959499Y-32623920D01*
X20988340Y-32768907D01*
X20988343Y-32768917D01*
X21044914Y-32905492D01*
X21077812Y-32954727D01*
X21077813Y-32954730D01*
X21127046Y-33028414D01*
X21127052Y-33028421D01*
X31363181Y-43264548D01*
X31396666Y-43325871D01*
X31399500Y-43352229D01*
X31399500Y-48779493D01*
X31379815Y-48846532D01*
X31346627Y-48881065D01*
X31340550Y-48885319D01*
X31340539Y-48885329D01*
X31185327Y-49040541D01*
X31185322Y-49040548D01*
X31089575Y-49177289D01*
X31034998Y-49220914D01*
X30965500Y-49228107D01*
X30903145Y-49196585D01*
X30867731Y-49136355D01*
X30864000Y-49106166D01*
X30864000Y-49048172D01*
X30863999Y-49048155D01*
X30857598Y-48988627D01*
X30857596Y-48988620D01*
X30807354Y-48853913D01*
X30807350Y-48853906D01*
X30721190Y-48738812D01*
X30721187Y-48738809D01*
X30606093Y-48652649D01*
X30606086Y-48652645D01*
X30471379Y-48602403D01*
X30471372Y-48602401D01*
X30411844Y-48596000D01*
X29860000Y-48596000D01*
X29860000Y-49416988D01*
X29802993Y-49384075D01*
X29675826Y-49350000D01*
X29544174Y-49350000D01*
X29417007Y-49384075D01*
X29360000Y-49416988D01*
X29360000Y-48596000D01*
X28808155Y-48596000D01*
X28748627Y-48602401D01*
X28748620Y-48602403D01*
X28613913Y-48652645D01*
X28613906Y-48652649D01*
X28498812Y-48738809D01*
X28498809Y-48738812D01*
X28412649Y-48853906D01*
X28412645Y-48853913D01*
X28362403Y-48988620D01*
X28362401Y-48988627D01*
X28356000Y-49048155D01*
X28356000Y-49600000D01*
X29176988Y-49600000D01*
X29144075Y-49657007D01*
X29110000Y-49784174D01*
X29110000Y-49915826D01*
X29144075Y-50042993D01*
X29176988Y-50100000D01*
X28356000Y-50100000D01*
X28343115Y-50112885D01*
X28281792Y-50146370D01*
X28212100Y-50141386D01*
X28167753Y-50112885D01*
X26267048Y-48212180D01*
X26233563Y-48150857D01*
X26238547Y-48081165D01*
X26280419Y-48025232D01*
X26345883Y-48000815D01*
X26354729Y-48000499D01*
X28547871Y-48000499D01*
X28547872Y-48000499D01*
X28607483Y-47994091D01*
X28742331Y-47943796D01*
X28857546Y-47857546D01*
X28943796Y-47742331D01*
X28994091Y-47607483D01*
X29000500Y-47547873D01*
X29000499Y-43952128D01*
X28994091Y-43892517D01*
X28988755Y-43878211D01*
X28943797Y-43757671D01*
X28943793Y-43757664D01*
X28857547Y-43642455D01*
X28857544Y-43642452D01*
X28742335Y-43556206D01*
X28742328Y-43556202D01*
X28607482Y-43505908D01*
X28607483Y-43505908D01*
X28547883Y-43499501D01*
X28547881Y-43499500D01*
X28547873Y-43499500D01*
X28547864Y-43499500D01*
X24952129Y-43499500D01*
X24952123Y-43499501D01*
X24892516Y-43505908D01*
X24757671Y-43556202D01*
X24757664Y-43556206D01*
X24642455Y-43642452D01*
X24642452Y-43642455D01*
X24556206Y-43757664D01*
X24556202Y-43757671D01*
X24505908Y-43892517D01*
X24499501Y-43952116D01*
X24499501Y-43952123D01*
X24499500Y-43952135D01*
X24499500Y-46289470D01*
X24479815Y-46356509D01*
X24427011Y-46402264D01*
X24357853Y-46412208D01*
X24294297Y-46383183D01*
X24287819Y-46377151D01*
X24165619Y-46254951D01*
X24132134Y-46193628D01*
X24129300Y-46167270D01*
X24129300Y-37852179D01*
X24116490Y-37787783D01*
X24116490Y-37787782D01*
X24100459Y-37707188D01*
X24058435Y-37605735D01*
X24043884Y-37570605D01*
X24039662Y-37564287D01*
X23961754Y-37447688D01*
X23961753Y-37447687D01*
X23961751Y-37447684D01*
X23857216Y-37343149D01*
X21562497Y-35048430D01*
X19265650Y-32751582D01*
X19232165Y-32690259D01*
X19237149Y-32620567D01*
X19279021Y-32564634D01*
X19342522Y-32540374D01*
X19396692Y-32535635D01*
X19616496Y-32476739D01*
X19822734Y-32380568D01*
X20009139Y-32250047D01*
X20170047Y-32089139D01*
X20300568Y-31902734D01*
X20327618Y-31844724D01*
X20373790Y-31792285D01*
X20440983Y-31773133D01*
X20507865Y-31793348D01*
G37*
%TD.AperFunction*%
%TA.AperFunction,Conductor*%
G36*
X50987865Y-31793348D02*
G01*
X51032382Y-31844725D01*
X51059429Y-31902728D01*
X51059432Y-31902734D01*
X51189954Y-32089141D01*
X51350858Y-32250045D01*
X51350861Y-32250047D01*
X51537266Y-32380568D01*
X51743504Y-32476739D01*
X51963308Y-32535635D01*
X52132443Y-32550432D01*
X52197511Y-32575884D01*
X52238490Y-32632475D01*
X52242368Y-32702237D01*
X52236196Y-32721412D01*
X52178343Y-32861082D01*
X52178340Y-32861092D01*
X52149500Y-33006079D01*
X52149500Y-43977769D01*
X52129815Y-44044808D01*
X52113181Y-44065450D01*
X47612887Y-48565743D01*
X47551564Y-48599228D01*
X47514400Y-48601590D01*
X47390004Y-48590708D01*
X47389998Y-48590708D01*
X47171331Y-48609838D01*
X47171324Y-48609839D01*
X47052037Y-48641803D01*
X46959297Y-48666653D01*
X46959295Y-48666653D01*
X46959291Y-48666655D01*
X46760357Y-48759419D01*
X46760349Y-48759423D01*
X46580547Y-48885322D01*
X46580541Y-48885327D01*
X46425327Y-49040541D01*
X46425322Y-49040547D01*
X46299423Y-49220349D01*
X46299421Y-49220353D01*
X46232106Y-49364711D01*
X46185933Y-49417150D01*
X46118740Y-49436302D01*
X46051859Y-49416086D01*
X46007342Y-49364711D01*
X45940144Y-49220605D01*
X45940142Y-49220601D01*
X45895996Y-49157555D01*
X45332962Y-49720589D01*
X45315925Y-49657007D01*
X45250099Y-49542993D01*
X45157007Y-49449901D01*
X45042993Y-49384075D01*
X44979409Y-49367037D01*
X45542443Y-48804003D01*
X45479392Y-48759854D01*
X45280533Y-48667125D01*
X45280524Y-48667121D01*
X45068592Y-48610335D01*
X45068582Y-48610333D01*
X44850001Y-48591210D01*
X44849999Y-48591210D01*
X44631417Y-48610333D01*
X44631407Y-48610335D01*
X44419475Y-48667121D01*
X44419466Y-48667124D01*
X44220606Y-48759855D01*
X44220604Y-48759856D01*
X44157556Y-48804003D01*
X44157555Y-48804003D01*
X44720590Y-49367037D01*
X44657007Y-49384075D01*
X44542993Y-49449901D01*
X44449901Y-49542993D01*
X44384075Y-49657007D01*
X44367037Y-49720589D01*
X43804003Y-49157555D01*
X43804003Y-49157556D01*
X43759857Y-49220603D01*
X43692657Y-49364712D01*
X43646484Y-49417151D01*
X43579290Y-49436302D01*
X43512409Y-49416086D01*
X43467893Y-49364710D01*
X43400580Y-49220357D01*
X43400579Y-49220354D01*
X43400577Y-49220351D01*
X43400576Y-49220349D01*
X43274677Y-49040547D01*
X43274672Y-49040541D01*
X43119458Y-48885327D01*
X43119452Y-48885322D01*
X42939650Y-48759423D01*
X42939642Y-48759419D01*
X42740708Y-48666655D01*
X42740706Y-48666654D01*
X42740703Y-48666653D01*
X42576048Y-48622533D01*
X42528675Y-48609839D01*
X42528668Y-48609838D01*
X42310002Y-48590708D01*
X42309998Y-48590708D01*
X42091331Y-48609838D01*
X42091324Y-48609839D01*
X41972037Y-48641803D01*
X41879297Y-48666653D01*
X41879295Y-48666653D01*
X41879291Y-48666655D01*
X41680357Y-48759419D01*
X41680349Y-48759423D01*
X41500547Y-48885322D01*
X41500541Y-48885327D01*
X41345327Y-49040541D01*
X41345322Y-49040547D01*
X41219423Y-49220349D01*
X41219419Y-49220357D01*
X41152382Y-49364120D01*
X41106210Y-49416560D01*
X41039017Y-49435712D01*
X40972135Y-49415496D01*
X40927618Y-49364120D01*
X40860580Y-49220357D01*
X40860579Y-49220354D01*
X40860577Y-49220351D01*
X40860576Y-49220349D01*
X40734677Y-49040547D01*
X40734672Y-49040541D01*
X40579458Y-48885327D01*
X40579452Y-48885322D01*
X40399650Y-48759423D01*
X40399642Y-48759419D01*
X40200708Y-48666655D01*
X40200706Y-48666654D01*
X40200703Y-48666653D01*
X40036048Y-48622533D01*
X39988675Y-48609839D01*
X39988668Y-48609838D01*
X39770002Y-48590708D01*
X39769998Y-48590708D01*
X39551331Y-48609838D01*
X39551324Y-48609839D01*
X39432037Y-48641803D01*
X39370093Y-48658400D01*
X39300244Y-48656738D01*
X39242381Y-48617576D01*
X39214877Y-48553348D01*
X39214000Y-48538626D01*
X39214000Y-38461373D01*
X39233685Y-38394334D01*
X39286489Y-38348579D01*
X39355647Y-38338635D01*
X39370072Y-38341593D01*
X39551326Y-38390161D01*
X39707521Y-38403826D01*
X39769998Y-38409292D01*
X39770000Y-38409292D01*
X39770002Y-38409292D01*
X39831632Y-38403900D01*
X39988674Y-38390161D01*
X40200703Y-38333347D01*
X40399646Y-38240579D01*
X40579457Y-38114674D01*
X40734674Y-37959457D01*
X40860579Y-37779646D01*
X40927618Y-37635878D01*
X40973790Y-37583439D01*
X41040983Y-37564287D01*
X41107864Y-37584502D01*
X41152382Y-37635879D01*
X41219419Y-37779642D01*
X41219423Y-37779650D01*
X41345322Y-37959452D01*
X41345327Y-37959458D01*
X41500541Y-38114672D01*
X41500547Y-38114677D01*
X41680349Y-38240576D01*
X41680351Y-38240577D01*
X41680354Y-38240579D01*
X41879297Y-38333347D01*
X42091326Y-38390161D01*
X42247521Y-38403826D01*
X42309998Y-38409292D01*
X42310000Y-38409292D01*
X42310002Y-38409292D01*
X42371632Y-38403900D01*
X42528674Y-38390161D01*
X42740703Y-38333347D01*
X42939646Y-38240579D01*
X43119457Y-38114674D01*
X43274674Y-37959457D01*
X43400579Y-37779646D01*
X43467618Y-37635878D01*
X43513790Y-37583439D01*
X43580983Y-37564287D01*
X43647864Y-37584502D01*
X43692382Y-37635879D01*
X43759419Y-37779642D01*
X43759423Y-37779650D01*
X43885322Y-37959452D01*
X43885327Y-37959458D01*
X44040541Y-38114672D01*
X44040547Y-38114677D01*
X44220349Y-38240576D01*
X44220351Y-38240577D01*
X44220354Y-38240579D01*
X44419297Y-38333347D01*
X44631326Y-38390161D01*
X44787521Y-38403826D01*
X44849998Y-38409292D01*
X44850000Y-38409292D01*
X44850002Y-38409292D01*
X44911632Y-38403900D01*
X45068674Y-38390161D01*
X45280703Y-38333347D01*
X45479646Y-38240579D01*
X45659457Y-38114674D01*
X45814674Y-37959457D01*
X45940579Y-37779646D01*
X46007618Y-37635878D01*
X46053790Y-37583439D01*
X46120983Y-37564287D01*
X46187864Y-37584502D01*
X46232382Y-37635879D01*
X46299419Y-37779642D01*
X46299423Y-37779650D01*
X46425322Y-37959452D01*
X46425327Y-37959458D01*
X46580541Y-38114672D01*
X46580547Y-38114677D01*
X46760349Y-38240576D01*
X46760351Y-38240577D01*
X46760354Y-38240579D01*
X46806230Y-38261971D01*
X46904120Y-38307618D01*
X46956560Y-38353790D01*
X46975712Y-38420983D01*
X46955496Y-38487865D01*
X46904120Y-38532382D01*
X46760357Y-38599419D01*
X46760349Y-38599423D01*
X46580547Y-38725322D01*
X46580541Y-38725327D01*
X46425327Y-38880541D01*
X46425322Y-38880547D01*
X46299423Y-39060349D01*
X46299419Y-39060357D01*
X46206655Y-39259291D01*
X46149839Y-39471324D01*
X46149838Y-39471331D01*
X46130708Y-39689997D01*
X46130708Y-39690002D01*
X46142099Y-39820212D01*
X46149839Y-39908674D01*
X46206653Y-40120703D01*
X46206654Y-40120706D01*
X46206655Y-40120708D01*
X46299419Y-40319642D01*
X46299423Y-40319650D01*
X46425322Y-40499452D01*
X46425327Y-40499458D01*
X46580541Y-40654672D01*
X46580547Y-40654677D01*
X46760349Y-40780576D01*
X46760351Y-40780577D01*
X46760354Y-40780579D01*
X46842401Y-40818838D01*
X46904120Y-40847618D01*
X46956560Y-40893790D01*
X46975712Y-40960983D01*
X46955496Y-41027865D01*
X46904120Y-41072382D01*
X46760357Y-41139419D01*
X46760349Y-41139423D01*
X46580547Y-41265322D01*
X46580541Y-41265327D01*
X46425327Y-41420541D01*
X46425322Y-41420547D01*
X46299423Y-41600349D01*
X46299419Y-41600357D01*
X46206655Y-41799291D01*
X46149839Y-42011324D01*
X46149838Y-42011331D01*
X46130708Y-42229997D01*
X46130708Y-42230002D01*
X46144979Y-42393132D01*
X46149839Y-42448674D01*
X46206653Y-42660703D01*
X46206654Y-42660706D01*
X46206655Y-42660708D01*
X46299419Y-42859642D01*
X46299423Y-42859650D01*
X46425322Y-43039452D01*
X46425327Y-43039458D01*
X46580541Y-43194672D01*
X46580547Y-43194677D01*
X46760349Y-43320576D01*
X46760351Y-43320577D01*
X46760354Y-43320579D01*
X46959297Y-43413347D01*
X47171326Y-43470161D01*
X47327521Y-43483826D01*
X47389998Y-43489292D01*
X47390000Y-43489292D01*
X47390002Y-43489292D01*
X47444668Y-43484509D01*
X47608674Y-43470161D01*
X47820703Y-43413347D01*
X48019646Y-43320579D01*
X48199457Y-43194674D01*
X48354674Y-43039457D01*
X48480579Y-42859646D01*
X48573347Y-42660703D01*
X48630161Y-42448674D01*
X48649292Y-42230000D01*
X48630161Y-42011326D01*
X48573347Y-41799297D01*
X48480579Y-41600354D01*
X48480577Y-41600351D01*
X48480576Y-41600349D01*
X48354677Y-41420547D01*
X48354672Y-41420541D01*
X48199458Y-41265327D01*
X48199452Y-41265322D01*
X48019650Y-41139423D01*
X48019642Y-41139419D01*
X47875879Y-41072382D01*
X47823439Y-41026210D01*
X47804287Y-40959017D01*
X47824502Y-40892136D01*
X47875879Y-40847618D01*
X48019646Y-40780579D01*
X48199457Y-40654674D01*
X48354674Y-40499457D01*
X48480579Y-40319646D01*
X48573347Y-40120703D01*
X48630161Y-39908674D01*
X48649292Y-39690000D01*
X48630161Y-39471326D01*
X48573347Y-39259297D01*
X48480579Y-39060354D01*
X48480577Y-39060351D01*
X48480576Y-39060349D01*
X48354677Y-38880547D01*
X48354672Y-38880541D01*
X48199458Y-38725327D01*
X48199452Y-38725322D01*
X48019650Y-38599423D01*
X48019642Y-38599419D01*
X47959497Y-38571373D01*
X47875878Y-38532381D01*
X47823439Y-38486210D01*
X47804287Y-38419017D01*
X47824502Y-38352136D01*
X47875879Y-38307618D01*
X48019646Y-38240579D01*
X48199457Y-38114674D01*
X48354674Y-37959457D01*
X48480579Y-37779646D01*
X48573347Y-37580703D01*
X48630161Y-37368674D01*
X48649292Y-37150000D01*
X48649248Y-37149500D01*
X48630161Y-36931331D01*
X48630161Y-36931326D01*
X48573347Y-36719297D01*
X48480579Y-36520354D01*
X48480577Y-36520351D01*
X48480576Y-36520349D01*
X48354677Y-36340547D01*
X48354672Y-36340541D01*
X48199458Y-36185327D01*
X48199452Y-36185322D01*
X48019650Y-36059423D01*
X48019642Y-36059419D01*
X47820708Y-35966655D01*
X47820706Y-35966654D01*
X47820703Y-35966653D01*
X47669885Y-35926240D01*
X47608675Y-35909839D01*
X47608668Y-35909838D01*
X47390002Y-35890708D01*
X47389997Y-35890708D01*
X47265598Y-35901590D01*
X47197098Y-35887823D01*
X47167111Y-35865743D01*
X46626719Y-35325351D01*
X46593234Y-35264028D01*
X46590400Y-35237670D01*
X46590400Y-32618750D01*
X46610085Y-32551711D01*
X46662889Y-32505956D01*
X46732047Y-32496012D01*
X46746478Y-32498971D01*
X46883308Y-32535635D01*
X47045230Y-32549801D01*
X47109998Y-32555468D01*
X47110000Y-32555468D01*
X47110002Y-32555468D01*
X47167562Y-32550432D01*
X47336692Y-32535635D01*
X47556496Y-32476739D01*
X47762734Y-32380568D01*
X47949139Y-32250047D01*
X48110047Y-32089139D01*
X48240568Y-31902734D01*
X48267618Y-31844724D01*
X48313790Y-31792285D01*
X48380983Y-31773133D01*
X48447865Y-31793348D01*
X48492382Y-31844725D01*
X48519429Y-31902728D01*
X48519432Y-31902734D01*
X48649954Y-32089141D01*
X48810858Y-32250045D01*
X48810861Y-32250047D01*
X48997266Y-32380568D01*
X49203504Y-32476739D01*
X49423308Y-32535635D01*
X49585230Y-32549801D01*
X49649998Y-32555468D01*
X49650000Y-32555468D01*
X49650002Y-32555468D01*
X49707562Y-32550432D01*
X49876692Y-32535635D01*
X50096496Y-32476739D01*
X50302734Y-32380568D01*
X50489139Y-32250047D01*
X50650047Y-32089139D01*
X50780568Y-31902734D01*
X50807618Y-31844724D01*
X50853790Y-31792285D01*
X50920983Y-31773133D01*
X50987865Y-31793348D01*
G37*
%TD.AperFunction*%
%TA.AperFunction,Conductor*%
G36*
X64113256Y-33456024D02*
G01*
X64171119Y-33495186D01*
X64198623Y-33559415D01*
X64199500Y-33574136D01*
X64199500Y-34626000D01*
X64179815Y-34693039D01*
X64127011Y-34738794D01*
X64075500Y-34750000D01*
X63450000Y-34750000D01*
X63450000Y-35666988D01*
X63392993Y-35634075D01*
X63265826Y-35600000D01*
X63134174Y-35600000D01*
X63007007Y-35634075D01*
X62950000Y-35666988D01*
X62950000Y-34750000D01*
X62510728Y-34750000D01*
X62443689Y-34730315D01*
X62397934Y-34677511D01*
X62387990Y-34608353D01*
X62417015Y-34544797D01*
X62423033Y-34538333D01*
X63434652Y-33526714D01*
X63495973Y-33493231D01*
X63533135Y-33490869D01*
X63676366Y-33503400D01*
X63699999Y-33505468D01*
X63700000Y-33505468D01*
X63700002Y-33505468D01*
X63756673Y-33500509D01*
X63926692Y-33485635D01*
X64043408Y-33454361D01*
X64113256Y-33456024D01*
G37*
%TD.AperFunction*%
%TD*%
M02*
